%TF.GenerationSoftware,KiCad,Pcbnew,(5.1.6)-1*%
%TF.CreationDate,2020-11-03T02:47:29-08:00*%
%TF.ProjectId,Power Board V2,506f7765-7220-4426-9f61-72642056322e,rev?*%
%TF.SameCoordinates,Original*%
%TF.FileFunction,Legend,Bot*%
%TF.FilePolarity,Positive*%
%FSLAX46Y46*%
G04 Gerber Fmt 4.6, Leading zero omitted, Abs format (unit mm)*
G04 Created by KiCad (PCBNEW (5.1.6)-1) date 2020-11-03 02:47:29*
%MOMM*%
%LPD*%
G01*
G04 APERTURE LIST*
%ADD10C,0.150000*%
%ADD11C,0.101600*%
%ADD12C,0.127000*%
%ADD13C,0.152400*%
%ADD14C,0.010000*%
G04 APERTURE END LIST*
D10*
X127381000Y-109537500D02*
X128714500Y-109537500D01*
X127381000Y-111760000D02*
X127000000Y-111760000D01*
X127381000Y-107315000D02*
X127381000Y-111760000D01*
X127000000Y-107315000D02*
X127381000Y-107315000D01*
D11*
X139669761Y-130335261D02*
X139881428Y-130032880D01*
X140032619Y-130335261D02*
X140032619Y-129700261D01*
X139790714Y-129700261D01*
X139730238Y-129730500D01*
X139700000Y-129760738D01*
X139669761Y-129821214D01*
X139669761Y-129911928D01*
X139700000Y-129972404D01*
X139730238Y-130002642D01*
X139790714Y-130032880D01*
X140032619Y-130032880D01*
X139155714Y-130305023D02*
X139216190Y-130335261D01*
X139337142Y-130335261D01*
X139397619Y-130305023D01*
X139427857Y-130244547D01*
X139427857Y-130002642D01*
X139397619Y-129942166D01*
X139337142Y-129911928D01*
X139216190Y-129911928D01*
X139155714Y-129942166D01*
X139125476Y-130002642D01*
X139125476Y-130063119D01*
X139427857Y-130123595D01*
X138883571Y-130305023D02*
X138823095Y-130335261D01*
X138702142Y-130335261D01*
X138641666Y-130305023D01*
X138611428Y-130244547D01*
X138611428Y-130214309D01*
X138641666Y-130153833D01*
X138702142Y-130123595D01*
X138792857Y-130123595D01*
X138853333Y-130093357D01*
X138883571Y-130032880D01*
X138883571Y-130002642D01*
X138853333Y-129942166D01*
X138792857Y-129911928D01*
X138702142Y-129911928D01*
X138641666Y-129942166D01*
X138248571Y-130335261D02*
X138309047Y-130305023D01*
X138339285Y-130274785D01*
X138369523Y-130214309D01*
X138369523Y-130032880D01*
X138339285Y-129972404D01*
X138309047Y-129942166D01*
X138248571Y-129911928D01*
X138157857Y-129911928D01*
X138097380Y-129942166D01*
X138067142Y-129972404D01*
X138036904Y-130032880D01*
X138036904Y-130214309D01*
X138067142Y-130274785D01*
X138097380Y-130305023D01*
X138157857Y-130335261D01*
X138248571Y-130335261D01*
X137492619Y-129911928D02*
X137492619Y-130335261D01*
X137764761Y-129911928D02*
X137764761Y-130244547D01*
X137734523Y-130305023D01*
X137674047Y-130335261D01*
X137583333Y-130335261D01*
X137522857Y-130305023D01*
X137492619Y-130274785D01*
X137190238Y-130335261D02*
X137190238Y-129911928D01*
X137190238Y-130032880D02*
X137160000Y-129972404D01*
X137129761Y-129942166D01*
X137069285Y-129911928D01*
X137008809Y-129911928D01*
X136525000Y-130305023D02*
X136585476Y-130335261D01*
X136706428Y-130335261D01*
X136766904Y-130305023D01*
X136797142Y-130274785D01*
X136827380Y-130214309D01*
X136827380Y-130032880D01*
X136797142Y-129972404D01*
X136766904Y-129942166D01*
X136706428Y-129911928D01*
X136585476Y-129911928D01*
X136525000Y-129942166D01*
X136010952Y-130305023D02*
X136071428Y-130335261D01*
X136192380Y-130335261D01*
X136252857Y-130305023D01*
X136283095Y-130244547D01*
X136283095Y-130002642D01*
X136252857Y-129942166D01*
X136192380Y-129911928D01*
X136071428Y-129911928D01*
X136010952Y-129942166D01*
X135980714Y-130002642D01*
X135980714Y-130063119D01*
X136283095Y-130123595D01*
X135738809Y-130305023D02*
X135678333Y-130335261D01*
X135557380Y-130335261D01*
X135496904Y-130305023D01*
X135466666Y-130244547D01*
X135466666Y-130214309D01*
X135496904Y-130153833D01*
X135557380Y-130123595D01*
X135648095Y-130123595D01*
X135708571Y-130093357D01*
X135738809Y-130032880D01*
X135738809Y-130002642D01*
X135708571Y-129942166D01*
X135648095Y-129911928D01*
X135557380Y-129911928D01*
X135496904Y-129942166D01*
X134317619Y-130032880D02*
X134347857Y-130002642D01*
X134408333Y-129972404D01*
X134468809Y-129972404D01*
X134529285Y-130002642D01*
X134559523Y-130032880D01*
X134589761Y-130093357D01*
X134589761Y-130153833D01*
X134559523Y-130214309D01*
X134529285Y-130244547D01*
X134468809Y-130274785D01*
X134408333Y-130274785D01*
X134347857Y-130244547D01*
X134317619Y-130214309D01*
X134317619Y-129972404D02*
X134317619Y-130214309D01*
X134287380Y-130244547D01*
X134257142Y-130244547D01*
X134196666Y-130214309D01*
X134166428Y-130153833D01*
X134166428Y-130002642D01*
X134226904Y-129911928D01*
X134317619Y-129851452D01*
X134438571Y-129821214D01*
X134559523Y-129851452D01*
X134650238Y-129911928D01*
X134710714Y-130002642D01*
X134740952Y-130123595D01*
X134710714Y-130244547D01*
X134650238Y-130335261D01*
X134559523Y-130395738D01*
X134438571Y-130425976D01*
X134317619Y-130395738D01*
X134226904Y-130335261D01*
X133410476Y-130335261D02*
X133410476Y-129700261D01*
X133138333Y-130335261D02*
X133138333Y-130002642D01*
X133168571Y-129942166D01*
X133229047Y-129911928D01*
X133319761Y-129911928D01*
X133380238Y-129942166D01*
X133410476Y-129972404D01*
X132926666Y-129911928D02*
X132684761Y-129911928D01*
X132835952Y-129700261D02*
X132835952Y-130244547D01*
X132805714Y-130305023D01*
X132745238Y-130335261D01*
X132684761Y-130335261D01*
X132563809Y-129911928D02*
X132321904Y-129911928D01*
X132473095Y-129700261D02*
X132473095Y-130244547D01*
X132442857Y-130305023D01*
X132382380Y-130335261D01*
X132321904Y-130335261D01*
X132110238Y-129911928D02*
X132110238Y-130546928D01*
X132110238Y-129942166D02*
X132049761Y-129911928D01*
X131928809Y-129911928D01*
X131868333Y-129942166D01*
X131838095Y-129972404D01*
X131807857Y-130032880D01*
X131807857Y-130214309D01*
X131838095Y-130274785D01*
X131868333Y-130305023D01*
X131928809Y-130335261D01*
X132049761Y-130335261D01*
X132110238Y-130305023D01*
X131565952Y-130305023D02*
X131505476Y-130335261D01*
X131384523Y-130335261D01*
X131324047Y-130305023D01*
X131293809Y-130244547D01*
X131293809Y-130214309D01*
X131324047Y-130153833D01*
X131384523Y-130123595D01*
X131475238Y-130123595D01*
X131535714Y-130093357D01*
X131565952Y-130032880D01*
X131565952Y-130002642D01*
X131535714Y-129942166D01*
X131475238Y-129911928D01*
X131384523Y-129911928D01*
X131324047Y-129942166D01*
X131021666Y-130274785D02*
X130991428Y-130305023D01*
X131021666Y-130335261D01*
X131051904Y-130305023D01*
X131021666Y-130274785D01*
X131021666Y-130335261D01*
X131021666Y-129942166D02*
X130991428Y-129972404D01*
X131021666Y-130002642D01*
X131051904Y-129972404D01*
X131021666Y-129942166D01*
X131021666Y-130002642D01*
X130265714Y-129670023D02*
X130810000Y-130486452D01*
X129600476Y-129670023D02*
X130144761Y-130486452D01*
X129116666Y-129911928D02*
X129116666Y-130425976D01*
X129146904Y-130486452D01*
X129177142Y-130516690D01*
X129237619Y-130546928D01*
X129328333Y-130546928D01*
X129388809Y-130516690D01*
X129116666Y-130305023D02*
X129177142Y-130335261D01*
X129298095Y-130335261D01*
X129358571Y-130305023D01*
X129388809Y-130274785D01*
X129419047Y-130214309D01*
X129419047Y-130032880D01*
X129388809Y-129972404D01*
X129358571Y-129942166D01*
X129298095Y-129911928D01*
X129177142Y-129911928D01*
X129116666Y-129942166D01*
X128814285Y-130335261D02*
X128814285Y-129911928D01*
X128814285Y-129700261D02*
X128844523Y-129730500D01*
X128814285Y-129760738D01*
X128784047Y-129730500D01*
X128814285Y-129700261D01*
X128814285Y-129760738D01*
X128602619Y-129911928D02*
X128360714Y-129911928D01*
X128511904Y-129700261D02*
X128511904Y-130244547D01*
X128481666Y-130305023D01*
X128421190Y-130335261D01*
X128360714Y-130335261D01*
X128149047Y-130335261D02*
X128149047Y-129700261D01*
X127876904Y-130335261D02*
X127876904Y-130002642D01*
X127907142Y-129942166D01*
X127967619Y-129911928D01*
X128058333Y-129911928D01*
X128118809Y-129942166D01*
X128149047Y-129972404D01*
X127302380Y-129911928D02*
X127302380Y-130335261D01*
X127574523Y-129911928D02*
X127574523Y-130244547D01*
X127544285Y-130305023D01*
X127483809Y-130335261D01*
X127393095Y-130335261D01*
X127332619Y-130305023D01*
X127302380Y-130274785D01*
X127000000Y-130335261D02*
X127000000Y-129700261D01*
X127000000Y-129942166D02*
X126939523Y-129911928D01*
X126818571Y-129911928D01*
X126758095Y-129942166D01*
X126727857Y-129972404D01*
X126697619Y-130032880D01*
X126697619Y-130214309D01*
X126727857Y-130274785D01*
X126758095Y-130305023D01*
X126818571Y-130335261D01*
X126939523Y-130335261D01*
X127000000Y-130305023D01*
X126425476Y-130274785D02*
X126395238Y-130305023D01*
X126425476Y-130335261D01*
X126455714Y-130305023D01*
X126425476Y-130274785D01*
X126425476Y-130335261D01*
X125850952Y-130305023D02*
X125911428Y-130335261D01*
X126032380Y-130335261D01*
X126092857Y-130305023D01*
X126123095Y-130274785D01*
X126153333Y-130214309D01*
X126153333Y-130032880D01*
X126123095Y-129972404D01*
X126092857Y-129942166D01*
X126032380Y-129911928D01*
X125911428Y-129911928D01*
X125850952Y-129942166D01*
X125488095Y-130335261D02*
X125548571Y-130305023D01*
X125578809Y-130274785D01*
X125609047Y-130214309D01*
X125609047Y-130032880D01*
X125578809Y-129972404D01*
X125548571Y-129942166D01*
X125488095Y-129911928D01*
X125397380Y-129911928D01*
X125336904Y-129942166D01*
X125306666Y-129972404D01*
X125276428Y-130032880D01*
X125276428Y-130214309D01*
X125306666Y-130274785D01*
X125336904Y-130305023D01*
X125397380Y-130335261D01*
X125488095Y-130335261D01*
X125004285Y-130335261D02*
X125004285Y-129911928D01*
X125004285Y-129972404D02*
X124974047Y-129942166D01*
X124913571Y-129911928D01*
X124822857Y-129911928D01*
X124762380Y-129942166D01*
X124732142Y-130002642D01*
X124732142Y-130335261D01*
X124732142Y-130002642D02*
X124701904Y-129942166D01*
X124641428Y-129911928D01*
X124550714Y-129911928D01*
X124490238Y-129942166D01*
X124460000Y-130002642D01*
X124460000Y-130335261D01*
X123704047Y-129670023D02*
X124248333Y-130486452D01*
X123552857Y-129911928D02*
X123431904Y-130335261D01*
X123310952Y-130032880D01*
X123190000Y-130335261D01*
X123069047Y-129911928D01*
X122827142Y-130335261D02*
X122827142Y-129911928D01*
X122827142Y-129700261D02*
X122857380Y-129730500D01*
X122827142Y-129760738D01*
X122796904Y-129730500D01*
X122827142Y-129700261D01*
X122827142Y-129760738D01*
X122434047Y-130335261D02*
X122494523Y-130305023D01*
X122524761Y-130244547D01*
X122524761Y-129700261D01*
X122222380Y-130305023D02*
X122161904Y-130335261D01*
X122040952Y-130335261D01*
X121980476Y-130305023D01*
X121950238Y-130244547D01*
X121950238Y-130214309D01*
X121980476Y-130153833D01*
X122040952Y-130123595D01*
X122131666Y-130123595D01*
X122192142Y-130093357D01*
X122222380Y-130032880D01*
X122222380Y-130002642D01*
X122192142Y-129942166D01*
X122131666Y-129911928D01*
X122040952Y-129911928D01*
X121980476Y-129942166D01*
X121587380Y-130335261D02*
X121647857Y-130305023D01*
X121678095Y-130274785D01*
X121708333Y-130214309D01*
X121708333Y-130032880D01*
X121678095Y-129972404D01*
X121647857Y-129942166D01*
X121587380Y-129911928D01*
X121496666Y-129911928D01*
X121436190Y-129942166D01*
X121405952Y-129972404D01*
X121375714Y-130032880D01*
X121375714Y-130214309D01*
X121405952Y-130274785D01*
X121436190Y-130305023D01*
X121496666Y-130335261D01*
X121587380Y-130335261D01*
X121103571Y-129911928D02*
X121103571Y-130335261D01*
X121103571Y-129972404D02*
X121073333Y-129942166D01*
X121012857Y-129911928D01*
X120922142Y-129911928D01*
X120861666Y-129942166D01*
X120831428Y-130002642D01*
X120831428Y-130335261D01*
X120438333Y-130335261D02*
X120498809Y-130305023D01*
X120529047Y-130244547D01*
X120529047Y-129700261D01*
X119924285Y-129911928D02*
X119924285Y-130335261D01*
X120196428Y-129911928D02*
X120196428Y-130244547D01*
X120166190Y-130305023D01*
X120105714Y-130335261D01*
X120015000Y-130335261D01*
X119954523Y-130305023D01*
X119924285Y-130274785D01*
X119621904Y-130335261D02*
X119621904Y-129700261D01*
X119561428Y-130093357D02*
X119380000Y-130335261D01*
X119380000Y-129911928D02*
X119621904Y-130153833D01*
X118654285Y-129670023D02*
X119198571Y-130486452D01*
X118472857Y-130153833D02*
X118170476Y-130153833D01*
X118533333Y-130335261D02*
X118321666Y-129700261D01*
X118110000Y-130335261D01*
X117898333Y-130335261D02*
X117898333Y-129911928D01*
X117898333Y-130032880D02*
X117868095Y-129972404D01*
X117837857Y-129942166D01*
X117777380Y-129911928D01*
X117716904Y-129911928D01*
X117233095Y-130335261D02*
X117233095Y-129700261D01*
X117233095Y-130305023D02*
X117293571Y-130335261D01*
X117414523Y-130335261D01*
X117475000Y-130305023D01*
X117505238Y-130274785D01*
X117535476Y-130214309D01*
X117535476Y-130032880D01*
X117505238Y-129972404D01*
X117475000Y-129942166D01*
X117414523Y-129911928D01*
X117293571Y-129911928D01*
X117233095Y-129942166D01*
X116658571Y-129911928D02*
X116658571Y-130335261D01*
X116930714Y-129911928D02*
X116930714Y-130244547D01*
X116900476Y-130305023D01*
X116840000Y-130335261D01*
X116749285Y-130335261D01*
X116688809Y-130305023D01*
X116658571Y-130274785D01*
X116356190Y-130335261D02*
X116356190Y-129911928D01*
X116356190Y-129700261D02*
X116386428Y-129730500D01*
X116356190Y-129760738D01*
X116325952Y-129730500D01*
X116356190Y-129700261D01*
X116356190Y-129760738D01*
X116053809Y-129911928D02*
X116053809Y-130335261D01*
X116053809Y-129972404D02*
X116023571Y-129942166D01*
X115963095Y-129911928D01*
X115872380Y-129911928D01*
X115811904Y-129942166D01*
X115781666Y-130002642D01*
X115781666Y-130335261D01*
X115388571Y-130335261D02*
X115449047Y-130305023D01*
X115479285Y-130274785D01*
X115509523Y-130214309D01*
X115509523Y-130032880D01*
X115479285Y-129972404D01*
X115449047Y-129942166D01*
X115388571Y-129911928D01*
X115297857Y-129911928D01*
X115237380Y-129942166D01*
X115207142Y-129972404D01*
X115176904Y-130032880D01*
X115176904Y-130214309D01*
X115207142Y-130274785D01*
X115237380Y-130305023D01*
X115297857Y-130335261D01*
X115388571Y-130335261D01*
X114602380Y-130335261D02*
X114904761Y-130335261D01*
X114904761Y-129700261D01*
X114118571Y-130335261D02*
X114118571Y-130002642D01*
X114148809Y-129942166D01*
X114209285Y-129911928D01*
X114330238Y-129911928D01*
X114390714Y-129942166D01*
X114118571Y-130305023D02*
X114179047Y-130335261D01*
X114330238Y-130335261D01*
X114390714Y-130305023D01*
X114420952Y-130244547D01*
X114420952Y-130184071D01*
X114390714Y-130123595D01*
X114330238Y-130093357D01*
X114179047Y-130093357D01*
X114118571Y-130063119D01*
X113816190Y-130335261D02*
X113816190Y-129911928D01*
X113816190Y-129972404D02*
X113785952Y-129942166D01*
X113725476Y-129911928D01*
X113634761Y-129911928D01*
X113574285Y-129942166D01*
X113544047Y-130002642D01*
X113544047Y-130335261D01*
X113544047Y-130002642D02*
X113513809Y-129942166D01*
X113453333Y-129911928D01*
X113362619Y-129911928D01*
X113302142Y-129942166D01*
X113271904Y-130002642D01*
X113271904Y-130335261D01*
X112969523Y-129911928D02*
X112969523Y-130546928D01*
X112969523Y-129942166D02*
X112909047Y-129911928D01*
X112788095Y-129911928D01*
X112727619Y-129942166D01*
X112697380Y-129972404D01*
X112667142Y-130032880D01*
X112667142Y-130214309D01*
X112697380Y-130274785D01*
X112727619Y-130305023D01*
X112788095Y-130335261D01*
X112909047Y-130335261D01*
X112969523Y-130305023D01*
D12*
X133026452Y-109250238D02*
X132996214Y-109220000D01*
X132935738Y-109189761D01*
X132784547Y-109189761D01*
X132724071Y-109220000D01*
X132693833Y-109250238D01*
X132663595Y-109310714D01*
X132663595Y-109371190D01*
X132693833Y-109461904D01*
X133056690Y-109824761D01*
X132663595Y-109824761D01*
X132270500Y-109189761D02*
X132210023Y-109189761D01*
X132149547Y-109220000D01*
X132119309Y-109250238D01*
X132089071Y-109310714D01*
X132058833Y-109431666D01*
X132058833Y-109582857D01*
X132089071Y-109703809D01*
X132119309Y-109764285D01*
X132149547Y-109794523D01*
X132210023Y-109824761D01*
X132270500Y-109824761D01*
X132330976Y-109794523D01*
X132361214Y-109764285D01*
X132391452Y-109703809D01*
X132421690Y-109582857D01*
X132421690Y-109431666D01*
X132391452Y-109310714D01*
X132361214Y-109250238D01*
X132330976Y-109220000D01*
X132270500Y-109189761D01*
X131847166Y-109189761D02*
X131695976Y-109824761D01*
X131575023Y-109371190D01*
X131454071Y-109824761D01*
X131302880Y-109189761D01*
X130577166Y-109824761D02*
X130577166Y-109189761D01*
X130365500Y-109643333D01*
X130153833Y-109189761D01*
X130153833Y-109824761D01*
X129881690Y-109643333D02*
X129579309Y-109643333D01*
X129942166Y-109824761D02*
X129730500Y-109189761D01*
X129518833Y-109824761D01*
X129367642Y-109189761D02*
X128944309Y-109824761D01*
X128944309Y-109189761D02*
X129367642Y-109824761D01*
D13*
X134387166Y-104923166D02*
X134810500Y-104923166D01*
X134810500Y-104034166D01*
X134090833Y-104457500D02*
X133794500Y-104457500D01*
X133667500Y-104923166D02*
X134090833Y-104923166D01*
X134090833Y-104034166D01*
X133667500Y-104034166D01*
X133286500Y-104923166D02*
X133286500Y-104034166D01*
X133074833Y-104034166D01*
X132947833Y-104076500D01*
X132863166Y-104161166D01*
X132820833Y-104245833D01*
X132778500Y-104415166D01*
X132778500Y-104542166D01*
X132820833Y-104711500D01*
X132863166Y-104796166D01*
X132947833Y-104880833D01*
X133074833Y-104923166D01*
X133286500Y-104923166D01*
X131720166Y-104923166D02*
X131720166Y-104034166D01*
X131381500Y-104034166D01*
X131296833Y-104076500D01*
X131254500Y-104118833D01*
X131212166Y-104203500D01*
X131212166Y-104330500D01*
X131254500Y-104415166D01*
X131296833Y-104457500D01*
X131381500Y-104499833D01*
X131720166Y-104499833D01*
X130704166Y-104923166D02*
X130788833Y-104880833D01*
X130831166Y-104838500D01*
X130873500Y-104753833D01*
X130873500Y-104499833D01*
X130831166Y-104415166D01*
X130788833Y-104372833D01*
X130704166Y-104330500D01*
X130577166Y-104330500D01*
X130492500Y-104372833D01*
X130450166Y-104415166D01*
X130407833Y-104499833D01*
X130407833Y-104753833D01*
X130450166Y-104838500D01*
X130492500Y-104880833D01*
X130577166Y-104923166D01*
X130704166Y-104923166D01*
X130111500Y-104330500D02*
X129942166Y-104923166D01*
X129772833Y-104499833D01*
X129603500Y-104923166D01*
X129434166Y-104330500D01*
X128756833Y-104880833D02*
X128841500Y-104923166D01*
X129010833Y-104923166D01*
X129095500Y-104880833D01*
X129137833Y-104796166D01*
X129137833Y-104457500D01*
X129095500Y-104372833D01*
X129010833Y-104330500D01*
X128841500Y-104330500D01*
X128756833Y-104372833D01*
X128714500Y-104457500D01*
X128714500Y-104542166D01*
X129137833Y-104626833D01*
X128333500Y-104923166D02*
X128333500Y-104330500D01*
X128333500Y-104499833D02*
X128291166Y-104415166D01*
X128248833Y-104372833D01*
X128164166Y-104330500D01*
X128079500Y-104330500D01*
X126809499Y-104457500D02*
X126682499Y-104499833D01*
X126640166Y-104542166D01*
X126597833Y-104626833D01*
X126597833Y-104753833D01*
X126640166Y-104838500D01*
X126682499Y-104880833D01*
X126767166Y-104923166D01*
X127105833Y-104923166D01*
X127105833Y-104034166D01*
X126809499Y-104034166D01*
X126724833Y-104076500D01*
X126682499Y-104118833D01*
X126640166Y-104203500D01*
X126640166Y-104288166D01*
X126682499Y-104372833D01*
X126724833Y-104415166D01*
X126809499Y-104457500D01*
X127105833Y-104457500D01*
X126089833Y-104923166D02*
X126174499Y-104880833D01*
X126216833Y-104838500D01*
X126259166Y-104753833D01*
X126259166Y-104499833D01*
X126216833Y-104415166D01*
X126174499Y-104372833D01*
X126089833Y-104330500D01*
X125962833Y-104330500D01*
X125878166Y-104372833D01*
X125835833Y-104415166D01*
X125793499Y-104499833D01*
X125793499Y-104753833D01*
X125835833Y-104838500D01*
X125878166Y-104880833D01*
X125962833Y-104923166D01*
X126089833Y-104923166D01*
X125031499Y-104923166D02*
X125031499Y-104457500D01*
X125073833Y-104372833D01*
X125158499Y-104330500D01*
X125327833Y-104330500D01*
X125412499Y-104372833D01*
X125031499Y-104880833D02*
X125116166Y-104923166D01*
X125327833Y-104923166D01*
X125412499Y-104880833D01*
X125454833Y-104796166D01*
X125454833Y-104711500D01*
X125412499Y-104626833D01*
X125327833Y-104584500D01*
X125116166Y-104584500D01*
X125031499Y-104542166D01*
X124608166Y-104923166D02*
X124608166Y-104330500D01*
X124608166Y-104499833D02*
X124565833Y-104415166D01*
X124523499Y-104372833D01*
X124438833Y-104330500D01*
X124354166Y-104330500D01*
X123676833Y-104923166D02*
X123676833Y-104034166D01*
X123676833Y-104880833D02*
X123761499Y-104923166D01*
X123930833Y-104923166D01*
X124015499Y-104880833D01*
X124057833Y-104838500D01*
X124100166Y-104753833D01*
X124100166Y-104499833D01*
X124057833Y-104415166D01*
X124015499Y-104372833D01*
X123930833Y-104330500D01*
X123761499Y-104330500D01*
X123676833Y-104372833D01*
X122068166Y-104923166D02*
X122364500Y-104499833D01*
X122576166Y-104923166D02*
X122576166Y-104034166D01*
X122237500Y-104034166D01*
X122152833Y-104076500D01*
X122110500Y-104118833D01*
X122068166Y-104203500D01*
X122068166Y-104330500D01*
X122110500Y-104415166D01*
X122152833Y-104457500D01*
X122237500Y-104499833D01*
X122576166Y-104499833D01*
X121348499Y-104880833D02*
X121433166Y-104923166D01*
X121602499Y-104923166D01*
X121687166Y-104880833D01*
X121729499Y-104796166D01*
X121729499Y-104457500D01*
X121687166Y-104372833D01*
X121602499Y-104330500D01*
X121433166Y-104330500D01*
X121348499Y-104372833D01*
X121306166Y-104457500D01*
X121306166Y-104542166D01*
X121729499Y-104626833D01*
X121009833Y-104330500D02*
X120798166Y-104923166D01*
X120586499Y-104330500D01*
X120247833Y-104838500D02*
X120205499Y-104880833D01*
X120247833Y-104923166D01*
X120290166Y-104880833D01*
X120247833Y-104838500D01*
X120247833Y-104923166D01*
X118850833Y-104457500D02*
X118723833Y-104499833D01*
X118681500Y-104542166D01*
X118639166Y-104626833D01*
X118639166Y-104753833D01*
X118681500Y-104838500D01*
X118723833Y-104880833D01*
X118808500Y-104923166D01*
X119147166Y-104923166D01*
X119147166Y-104034166D01*
X118850833Y-104034166D01*
X118766166Y-104076500D01*
X118723833Y-104118833D01*
X118681500Y-104203500D01*
X118681500Y-104288166D01*
X118723833Y-104372833D01*
X118766166Y-104415166D01*
X118850833Y-104457500D01*
X119147166Y-104457500D01*
D10*
X134874000Y-105410000D02*
X105029000Y-105410000D01*
D13*
X126202440Y-111061500D02*
X126498773Y-111061500D01*
X126498773Y-111527166D02*
X126498773Y-110638166D01*
X126075440Y-110638166D01*
X125779106Y-111273166D02*
X125355773Y-111273166D01*
X125863773Y-111527166D02*
X125567440Y-110638166D01*
X125271106Y-111527166D01*
X124974773Y-111527166D02*
X124974773Y-110638166D01*
X124466773Y-111527166D01*
X124466773Y-110638166D01*
X119048106Y-111865833D02*
X119090440Y-111823500D01*
X119175106Y-111696500D01*
X119217440Y-111611833D01*
X119259773Y-111484833D01*
X119302106Y-111273166D01*
X119302106Y-111103833D01*
X119259773Y-110892166D01*
X119217440Y-110765166D01*
X119175106Y-110680500D01*
X119090440Y-110553500D01*
X119048106Y-110511166D01*
X118540106Y-110638166D02*
X118455440Y-110638166D01*
X118370773Y-110680500D01*
X118328440Y-110722833D01*
X118286106Y-110807500D01*
X118243773Y-110976833D01*
X118243773Y-111188500D01*
X118286106Y-111357833D01*
X118328440Y-111442500D01*
X118370773Y-111484833D01*
X118455440Y-111527166D01*
X118540106Y-111527166D01*
X118624773Y-111484833D01*
X118667106Y-111442500D01*
X118709440Y-111357833D01*
X118751773Y-111188500D01*
X118751773Y-110976833D01*
X118709440Y-110807500D01*
X118667106Y-110722833D01*
X118624773Y-110680500D01*
X118540106Y-110638166D01*
X117862773Y-111188500D02*
X117185440Y-111188500D01*
X116296440Y-111527166D02*
X116804440Y-111527166D01*
X116550440Y-111527166D02*
X116550440Y-110638166D01*
X116635106Y-110765166D01*
X116719773Y-110849833D01*
X116804440Y-110892166D01*
X116000106Y-110638166D02*
X115449773Y-110638166D01*
X115746106Y-110976833D01*
X115619106Y-110976833D01*
X115534440Y-111019166D01*
X115492106Y-111061500D01*
X115449773Y-111146166D01*
X115449773Y-111357833D01*
X115492106Y-111442500D01*
X115534440Y-111484833D01*
X115619106Y-111527166D01*
X115873106Y-111527166D01*
X115957773Y-111484833D01*
X116000106Y-111442500D01*
X115195773Y-110638166D02*
X114899440Y-111527166D01*
X114603106Y-110638166D01*
X114306773Y-111527166D02*
X114306773Y-110638166D01*
X114095106Y-110638166D01*
X113968106Y-110680500D01*
X113883440Y-110765166D01*
X113841106Y-110849833D01*
X113798773Y-111019166D01*
X113798773Y-111146166D01*
X113841106Y-111315500D01*
X113883440Y-111400166D01*
X113968106Y-111484833D01*
X114095106Y-111527166D01*
X114306773Y-111527166D01*
X112909773Y-111442500D02*
X112952106Y-111484833D01*
X113079106Y-111527166D01*
X113163773Y-111527166D01*
X113290773Y-111484833D01*
X113375440Y-111400166D01*
X113417773Y-111315500D01*
X113460106Y-111146166D01*
X113460106Y-111019166D01*
X113417773Y-110849833D01*
X113375440Y-110765166D01*
X113290773Y-110680500D01*
X113163773Y-110638166D01*
X113079106Y-110638166D01*
X112952106Y-110680500D01*
X112909773Y-110722833D01*
X112613440Y-111865833D02*
X112571106Y-111823500D01*
X112486440Y-111696500D01*
X112444106Y-111611833D01*
X112401773Y-111484833D01*
X112359440Y-111273166D01*
X112359440Y-111103833D01*
X112401773Y-110892166D01*
X112444106Y-110765166D01*
X112486440Y-110680500D01*
X112571106Y-110553500D01*
X112613440Y-110511166D01*
X111555106Y-110553500D02*
X110793106Y-111696500D01*
X110031106Y-110722833D02*
X109988773Y-110680500D01*
X109904106Y-110638166D01*
X109692440Y-110638166D01*
X109607773Y-110680500D01*
X109565440Y-110722833D01*
X109523106Y-110807500D01*
X109523106Y-110892166D01*
X109565440Y-111019166D01*
X110073440Y-111527166D01*
X109523106Y-111527166D01*
X108718773Y-110638166D02*
X109142106Y-110638166D01*
X109184440Y-111061500D01*
X109142106Y-111019166D01*
X109057440Y-110976833D01*
X108845773Y-110976833D01*
X108761106Y-111019166D01*
X108718773Y-111061500D01*
X108676440Y-111146166D01*
X108676440Y-111357833D01*
X108718773Y-111442500D01*
X108761106Y-111484833D01*
X108845773Y-111527166D01*
X109057440Y-111527166D01*
X109142106Y-111484833D01*
X109184440Y-111442500D01*
X108126106Y-110638166D02*
X108041440Y-110638166D01*
X107956773Y-110680500D01*
X107914440Y-110722833D01*
X107872106Y-110807500D01*
X107829773Y-110976833D01*
X107829773Y-111188500D01*
X107872106Y-111357833D01*
X107914440Y-111442500D01*
X107956773Y-111484833D01*
X108041440Y-111527166D01*
X108126106Y-111527166D01*
X108210773Y-111484833D01*
X108253106Y-111442500D01*
X108295440Y-111357833D01*
X108337773Y-111188500D01*
X108337773Y-110976833D01*
X108295440Y-110807500D01*
X108253106Y-110722833D01*
X108210773Y-110680500D01*
X108126106Y-110638166D01*
X107448773Y-111527166D02*
X107448773Y-110934500D01*
X107448773Y-111019166D02*
X107406440Y-110976833D01*
X107321773Y-110934500D01*
X107194773Y-110934500D01*
X107110106Y-110976833D01*
X107067773Y-111061500D01*
X107067773Y-111527166D01*
X107067773Y-111061500D02*
X107025440Y-110976833D01*
X106940773Y-110934500D01*
X106813773Y-110934500D01*
X106729106Y-110976833D01*
X106686773Y-111061500D01*
X106686773Y-111527166D01*
X106305773Y-111273166D02*
X105882440Y-111273166D01*
X106390440Y-111527166D02*
X106094106Y-110638166D01*
X105797773Y-111527166D01*
X125990773Y-109918500D02*
X126033106Y-109960833D01*
X126160106Y-110003166D01*
X126244773Y-110003166D01*
X126371773Y-109960833D01*
X126456440Y-109876166D01*
X126498773Y-109791500D01*
X126541106Y-109622166D01*
X126541106Y-109495166D01*
X126498773Y-109325833D01*
X126456440Y-109241166D01*
X126371773Y-109156500D01*
X126244773Y-109114166D01*
X126160106Y-109114166D01*
X126033106Y-109156500D01*
X125990773Y-109198833D01*
X125440440Y-109114166D02*
X125271106Y-109114166D01*
X125186440Y-109156500D01*
X125101773Y-109241166D01*
X125059440Y-109410500D01*
X125059440Y-109706833D01*
X125101773Y-109876166D01*
X125186440Y-109960833D01*
X125271106Y-110003166D01*
X125440440Y-110003166D01*
X125525106Y-109960833D01*
X125609773Y-109876166D01*
X125652106Y-109706833D01*
X125652106Y-109410500D01*
X125609773Y-109241166D01*
X125525106Y-109156500D01*
X125440440Y-109114166D01*
X124678440Y-110003166D02*
X124678440Y-109114166D01*
X124170440Y-110003166D01*
X124170440Y-109114166D01*
X123874106Y-109114166D02*
X123366106Y-109114166D01*
X123620106Y-110003166D02*
X123620106Y-109114166D01*
X122561773Y-110003166D02*
X122858106Y-109579833D01*
X123069773Y-110003166D02*
X123069773Y-109114166D01*
X122731106Y-109114166D01*
X122646440Y-109156500D01*
X122604106Y-109198833D01*
X122561773Y-109283500D01*
X122561773Y-109410500D01*
X122604106Y-109495166D01*
X122646440Y-109537500D01*
X122731106Y-109579833D01*
X123069773Y-109579833D01*
X122011440Y-109114166D02*
X121842106Y-109114166D01*
X121757440Y-109156500D01*
X121672773Y-109241166D01*
X121630440Y-109410500D01*
X121630440Y-109706833D01*
X121672773Y-109876166D01*
X121757440Y-109960833D01*
X121842106Y-110003166D01*
X122011440Y-110003166D01*
X122096106Y-109960833D01*
X122180773Y-109876166D01*
X122223106Y-109706833D01*
X122223106Y-109410500D01*
X122180773Y-109241166D01*
X122096106Y-109156500D01*
X122011440Y-109114166D01*
X120826106Y-110003166D02*
X121249440Y-110003166D01*
X121249440Y-109114166D01*
X117397106Y-109114166D02*
X117820440Y-109114166D01*
X117862773Y-109537500D01*
X117820440Y-109495166D01*
X117735773Y-109452833D01*
X117524106Y-109452833D01*
X117439440Y-109495166D01*
X117397106Y-109537500D01*
X117354773Y-109622166D01*
X117354773Y-109833833D01*
X117397106Y-109918500D01*
X117439440Y-109960833D01*
X117524106Y-110003166D01*
X117735773Y-110003166D01*
X117820440Y-109960833D01*
X117862773Y-109918500D01*
X117100773Y-109114166D02*
X116804440Y-110003166D01*
X116508106Y-109114166D01*
X116211773Y-110003166D02*
X116211773Y-109114166D01*
X116000106Y-109114166D01*
X115873106Y-109156500D01*
X115788440Y-109241166D01*
X115746106Y-109325833D01*
X115703773Y-109495166D01*
X115703773Y-109622166D01*
X115746106Y-109791500D01*
X115788440Y-109876166D01*
X115873106Y-109960833D01*
X116000106Y-110003166D01*
X116211773Y-110003166D01*
X114814773Y-109918500D02*
X114857106Y-109960833D01*
X114984106Y-110003166D01*
X115068773Y-110003166D01*
X115195773Y-109960833D01*
X115280440Y-109876166D01*
X115322773Y-109791500D01*
X115365106Y-109622166D01*
X115365106Y-109495166D01*
X115322773Y-109325833D01*
X115280440Y-109241166D01*
X115195773Y-109156500D01*
X115068773Y-109114166D01*
X114984106Y-109114166D01*
X114857106Y-109156500D01*
X114814773Y-109198833D01*
X114052773Y-109029500D02*
X113290773Y-110172500D01*
X112571106Y-109114166D02*
X111978440Y-109114166D01*
X112359440Y-110003166D01*
X111216440Y-109114166D02*
X111639773Y-109114166D01*
X111682106Y-109537500D01*
X111639773Y-109495166D01*
X111555106Y-109452833D01*
X111343440Y-109452833D01*
X111258773Y-109495166D01*
X111216440Y-109537500D01*
X111174106Y-109622166D01*
X111174106Y-109833833D01*
X111216440Y-109918500D01*
X111258773Y-109960833D01*
X111343440Y-110003166D01*
X111555106Y-110003166D01*
X111639773Y-109960833D01*
X111682106Y-109918500D01*
X110623773Y-109114166D02*
X110539106Y-109114166D01*
X110454440Y-109156500D01*
X110412106Y-109198833D01*
X110369773Y-109283500D01*
X110327440Y-109452833D01*
X110327440Y-109664500D01*
X110369773Y-109833833D01*
X110412106Y-109918500D01*
X110454440Y-109960833D01*
X110539106Y-110003166D01*
X110623773Y-110003166D01*
X110708440Y-109960833D01*
X110750773Y-109918500D01*
X110793106Y-109833833D01*
X110835440Y-109664500D01*
X110835440Y-109452833D01*
X110793106Y-109283500D01*
X110750773Y-109198833D01*
X110708440Y-109156500D01*
X110623773Y-109114166D01*
X109946440Y-110003166D02*
X109946440Y-109410500D01*
X109946440Y-109495166D02*
X109904106Y-109452833D01*
X109819440Y-109410500D01*
X109692440Y-109410500D01*
X109607773Y-109452833D01*
X109565440Y-109537500D01*
X109565440Y-110003166D01*
X109565440Y-109537500D02*
X109523106Y-109452833D01*
X109438440Y-109410500D01*
X109311440Y-109410500D01*
X109226773Y-109452833D01*
X109184440Y-109537500D01*
X109184440Y-110003166D01*
X108803440Y-109749166D02*
X108380106Y-109749166D01*
X108888106Y-110003166D02*
X108591773Y-109114166D01*
X108295440Y-110003166D01*
X134495540Y-107463166D02*
X134326206Y-107463166D01*
X134241540Y-107505500D01*
X134156873Y-107590166D01*
X134114540Y-107759500D01*
X134114540Y-108055833D01*
X134156873Y-108225166D01*
X134241540Y-108309833D01*
X134326206Y-108352166D01*
X134495540Y-108352166D01*
X134580206Y-108309833D01*
X134664873Y-108225166D01*
X134707206Y-108055833D01*
X134707206Y-107759500D01*
X134664873Y-107590166D01*
X134580206Y-107505500D01*
X134495540Y-107463166D01*
X133733540Y-107463166D02*
X133733540Y-108182833D01*
X133691206Y-108267500D01*
X133648873Y-108309833D01*
X133564206Y-108352166D01*
X133394873Y-108352166D01*
X133310206Y-108309833D01*
X133267873Y-108267500D01*
X133225540Y-108182833D01*
X133225540Y-107463166D01*
X132929206Y-107463166D02*
X132421206Y-107463166D01*
X132675206Y-108352166D02*
X132675206Y-107463166D01*
X132124873Y-108352166D02*
X132124873Y-107463166D01*
X131786206Y-107463166D01*
X131701540Y-107505500D01*
X131659206Y-107547833D01*
X131616873Y-107632500D01*
X131616873Y-107759500D01*
X131659206Y-107844166D01*
X131701540Y-107886500D01*
X131786206Y-107928833D01*
X132124873Y-107928833D01*
X131235873Y-107463166D02*
X131235873Y-108182833D01*
X131193540Y-108267500D01*
X131151206Y-108309833D01*
X131066540Y-108352166D01*
X130897206Y-108352166D01*
X130812540Y-108309833D01*
X130770206Y-108267500D01*
X130727873Y-108182833D01*
X130727873Y-107463166D01*
X130431540Y-107463166D02*
X129923540Y-107463166D01*
X130177540Y-108352166D02*
X130177540Y-107463166D01*
X129627206Y-108267500D02*
X129584873Y-108309833D01*
X129627206Y-108352166D01*
X129669540Y-108309833D01*
X129627206Y-108267500D01*
X129627206Y-108352166D01*
X129627206Y-107801833D02*
X129584873Y-107844166D01*
X129627206Y-107886500D01*
X129669540Y-107844166D01*
X129627206Y-107801833D01*
X129627206Y-107886500D01*
X126071206Y-108352166D02*
X126494540Y-108352166D01*
X126494540Y-107463166D01*
X125774873Y-107886500D02*
X125478540Y-107886500D01*
X125351540Y-108352166D02*
X125774873Y-108352166D01*
X125774873Y-107463166D01*
X125351540Y-107463166D01*
X124970540Y-108352166D02*
X124970540Y-107463166D01*
X124758873Y-107463166D01*
X124631873Y-107505500D01*
X124547206Y-107590166D01*
X124504873Y-107674833D01*
X124462540Y-107844166D01*
X124462540Y-107971166D01*
X124504873Y-108140500D01*
X124547206Y-108225166D01*
X124631873Y-108309833D01*
X124758873Y-108352166D01*
X124970540Y-108352166D01*
X121414540Y-107547833D02*
X121372206Y-107505500D01*
X121287540Y-107463166D01*
X121075873Y-107463166D01*
X120991206Y-107505500D01*
X120948873Y-107547833D01*
X120906540Y-107632500D01*
X120906540Y-107717166D01*
X120948873Y-107844166D01*
X121456873Y-108352166D01*
X120906540Y-108352166D01*
X119932873Y-107463166D02*
X119340206Y-108352166D01*
X119340206Y-107463166D02*
X119932873Y-108352166D01*
X118070206Y-108690833D02*
X118112540Y-108648500D01*
X118197206Y-108521500D01*
X118239540Y-108436833D01*
X118281873Y-108309833D01*
X118324206Y-108098166D01*
X118324206Y-107928833D01*
X118281873Y-107717166D01*
X118239540Y-107590166D01*
X118197206Y-107505500D01*
X118112540Y-107378500D01*
X118070206Y-107336166D01*
X117562206Y-107463166D02*
X117477540Y-107463166D01*
X117392873Y-107505500D01*
X117350540Y-107547833D01*
X117308206Y-107632500D01*
X117265873Y-107801833D01*
X117265873Y-108013500D01*
X117308206Y-108182833D01*
X117350540Y-108267500D01*
X117392873Y-108309833D01*
X117477540Y-108352166D01*
X117562206Y-108352166D01*
X117646873Y-108309833D01*
X117689206Y-108267500D01*
X117731540Y-108182833D01*
X117773873Y-108013500D01*
X117773873Y-107801833D01*
X117731540Y-107632500D01*
X117689206Y-107547833D01*
X117646873Y-107505500D01*
X117562206Y-107463166D01*
X116884873Y-108013500D02*
X116207540Y-108013500D01*
X115360873Y-107463166D02*
X115784206Y-107463166D01*
X115826540Y-107886500D01*
X115784206Y-107844166D01*
X115699540Y-107801833D01*
X115487873Y-107801833D01*
X115403206Y-107844166D01*
X115360873Y-107886500D01*
X115318540Y-107971166D01*
X115318540Y-108182833D01*
X115360873Y-108267500D01*
X115403206Y-108309833D01*
X115487873Y-108352166D01*
X115699540Y-108352166D01*
X115784206Y-108309833D01*
X115826540Y-108267500D01*
X114768206Y-107463166D02*
X114683540Y-107463166D01*
X114598873Y-107505500D01*
X114556540Y-107547833D01*
X114514206Y-107632500D01*
X114471873Y-107801833D01*
X114471873Y-108013500D01*
X114514206Y-108182833D01*
X114556540Y-108267500D01*
X114598873Y-108309833D01*
X114683540Y-108352166D01*
X114768206Y-108352166D01*
X114852873Y-108309833D01*
X114895206Y-108267500D01*
X114937540Y-108182833D01*
X114979873Y-108013500D01*
X114979873Y-107801833D01*
X114937540Y-107632500D01*
X114895206Y-107547833D01*
X114852873Y-107505500D01*
X114768206Y-107463166D01*
X113921540Y-107463166D02*
X113836873Y-107463166D01*
X113752206Y-107505500D01*
X113709873Y-107547833D01*
X113667540Y-107632500D01*
X113625206Y-107801833D01*
X113625206Y-108013500D01*
X113667540Y-108182833D01*
X113709873Y-108267500D01*
X113752206Y-108309833D01*
X113836873Y-108352166D01*
X113921540Y-108352166D01*
X114006206Y-108309833D01*
X114048540Y-108267500D01*
X114090873Y-108182833D01*
X114133206Y-108013500D01*
X114133206Y-107801833D01*
X114090873Y-107632500D01*
X114048540Y-107547833D01*
X114006206Y-107505500D01*
X113921540Y-107463166D01*
X113244206Y-108352166D02*
X113244206Y-107759500D01*
X113244206Y-107844166D02*
X113201873Y-107801833D01*
X113117206Y-107759500D01*
X112990206Y-107759500D01*
X112905540Y-107801833D01*
X112863206Y-107886500D01*
X112863206Y-108352166D01*
X112863206Y-107886500D02*
X112820873Y-107801833D01*
X112736206Y-107759500D01*
X112609206Y-107759500D01*
X112524540Y-107801833D01*
X112482206Y-107886500D01*
X112482206Y-108352166D01*
X112101206Y-108098166D02*
X111677873Y-108098166D01*
X112185873Y-108352166D02*
X111889540Y-107463166D01*
X111593206Y-108352166D01*
X110111540Y-108267500D02*
X110153873Y-108309833D01*
X110280873Y-108352166D01*
X110365540Y-108352166D01*
X110492540Y-108309833D01*
X110577206Y-108225166D01*
X110619540Y-108140500D01*
X110661873Y-107971166D01*
X110661873Y-107844166D01*
X110619540Y-107674833D01*
X110577206Y-107590166D01*
X110492540Y-107505500D01*
X110365540Y-107463166D01*
X110280873Y-107463166D01*
X110153873Y-107505500D01*
X110111540Y-107547833D01*
X109222540Y-108267500D02*
X109264873Y-108309833D01*
X109391873Y-108352166D01*
X109476540Y-108352166D01*
X109603540Y-108309833D01*
X109688206Y-108225166D01*
X109730540Y-108140500D01*
X109772873Y-107971166D01*
X109772873Y-107844166D01*
X109730540Y-107674833D01*
X109688206Y-107590166D01*
X109603540Y-107505500D01*
X109476540Y-107463166D01*
X109391873Y-107463166D01*
X109264873Y-107505500D01*
X109222540Y-107547833D01*
X107486873Y-107759500D02*
X108164206Y-108013500D01*
X107486873Y-108267500D01*
X107105873Y-107547833D02*
X107063540Y-107505500D01*
X106978873Y-107463166D01*
X106767206Y-107463166D01*
X106682540Y-107505500D01*
X106640206Y-107547833D01*
X106597873Y-107632500D01*
X106597873Y-107717166D01*
X106640206Y-107844166D01*
X107148206Y-108352166D01*
X106597873Y-108352166D01*
X106047540Y-107463166D02*
X105962873Y-107463166D01*
X105878206Y-107505500D01*
X105835873Y-107547833D01*
X105793540Y-107632500D01*
X105751206Y-107801833D01*
X105751206Y-108013500D01*
X105793540Y-108182833D01*
X105835873Y-108267500D01*
X105878206Y-108309833D01*
X105962873Y-108352166D01*
X106047540Y-108352166D01*
X106132206Y-108309833D01*
X106174540Y-108267500D01*
X106216873Y-108182833D01*
X106259206Y-108013500D01*
X106259206Y-107801833D01*
X106216873Y-107632500D01*
X106174540Y-107547833D01*
X106132206Y-107505500D01*
X106047540Y-107463166D01*
X105497206Y-107463166D02*
X105200873Y-108352166D01*
X104904540Y-107463166D01*
X104692873Y-108690833D02*
X104650540Y-108648500D01*
X104565873Y-108521500D01*
X104523540Y-108436833D01*
X104481206Y-108309833D01*
X104438873Y-108098166D01*
X104438873Y-107928833D01*
X104481206Y-107717166D01*
X104523540Y-107590166D01*
X104565873Y-107505500D01*
X104650540Y-107378500D01*
X104692873Y-107336166D01*
X133483773Y-106828166D02*
X133483773Y-105939166D01*
X133060440Y-106828166D02*
X133060440Y-105939166D01*
X132552440Y-106828166D01*
X132552440Y-105939166D01*
X132129106Y-106828166D02*
X132129106Y-105939166D01*
X131790440Y-105939166D01*
X131705773Y-105981500D01*
X131663440Y-106023833D01*
X131621106Y-106108500D01*
X131621106Y-106235500D01*
X131663440Y-106320166D01*
X131705773Y-106362500D01*
X131790440Y-106404833D01*
X132129106Y-106404833D01*
X131240106Y-105939166D02*
X131240106Y-106658833D01*
X131197773Y-106743500D01*
X131155440Y-106785833D01*
X131070773Y-106828166D01*
X130901440Y-106828166D01*
X130816773Y-106785833D01*
X130774440Y-106743500D01*
X130732106Y-106658833D01*
X130732106Y-105939166D01*
X130435773Y-105939166D02*
X129927773Y-105939166D01*
X130181773Y-106828166D02*
X130181773Y-105939166D01*
X129631440Y-106743500D02*
X129589106Y-106785833D01*
X129631440Y-106828166D01*
X129673773Y-106785833D01*
X129631440Y-106743500D01*
X129631440Y-106828166D01*
X129631440Y-106277833D02*
X129589106Y-106320166D01*
X129631440Y-106362500D01*
X129673773Y-106320166D01*
X129631440Y-106277833D01*
X129631440Y-106362500D01*
X126456440Y-106828166D02*
X126287106Y-106828166D01*
X126202440Y-106785833D01*
X126160106Y-106743500D01*
X126075440Y-106616500D01*
X126033106Y-106447166D01*
X126033106Y-106108500D01*
X126075440Y-106023833D01*
X126117773Y-105981500D01*
X126202440Y-105939166D01*
X126371773Y-105939166D01*
X126456440Y-105981500D01*
X126498773Y-106023833D01*
X126541106Y-106108500D01*
X126541106Y-106320166D01*
X126498773Y-106404833D01*
X126456440Y-106447166D01*
X126371773Y-106489500D01*
X126202440Y-106489500D01*
X126117773Y-106447166D01*
X126075440Y-106404833D01*
X126033106Y-106320166D01*
X125652106Y-106489500D02*
X124974773Y-106489500D01*
X124593773Y-106023833D02*
X124551440Y-105981500D01*
X124466773Y-105939166D01*
X124255106Y-105939166D01*
X124170440Y-105981500D01*
X124128106Y-106023833D01*
X124085773Y-106108500D01*
X124085773Y-106193166D01*
X124128106Y-106320166D01*
X124636106Y-106828166D01*
X124085773Y-106828166D01*
X123323773Y-106235500D02*
X123323773Y-106828166D01*
X123535440Y-105896833D02*
X123747106Y-106531833D01*
X123196773Y-106531833D01*
X122985106Y-105939166D02*
X122688773Y-106828166D01*
X122392440Y-105939166D01*
X122096106Y-106828166D02*
X122096106Y-105939166D01*
X121884440Y-105939166D01*
X121757440Y-105981500D01*
X121672773Y-106066166D01*
X121630440Y-106150833D01*
X121588106Y-106320166D01*
X121588106Y-106447166D01*
X121630440Y-106616500D01*
X121672773Y-106701166D01*
X121757440Y-106785833D01*
X121884440Y-106828166D01*
X122096106Y-106828166D01*
X120699106Y-106743500D02*
X120741440Y-106785833D01*
X120868440Y-106828166D01*
X120953106Y-106828166D01*
X121080106Y-106785833D01*
X121164773Y-106701166D01*
X121207106Y-106616500D01*
X121249440Y-106447166D01*
X121249440Y-106320166D01*
X121207106Y-106150833D01*
X121164773Y-106066166D01*
X121080106Y-105981500D01*
X120953106Y-105939166D01*
X120868440Y-105939166D01*
X120741440Y-105981500D01*
X120699106Y-106023833D01*
X119937106Y-105854500D02*
X119175106Y-106997500D01*
X118413106Y-106023833D02*
X118370773Y-105981500D01*
X118286106Y-105939166D01*
X118074440Y-105939166D01*
X117989773Y-105981500D01*
X117947440Y-106023833D01*
X117905106Y-106108500D01*
X117905106Y-106193166D01*
X117947440Y-106320166D01*
X118455440Y-106828166D01*
X117905106Y-106828166D01*
X117100773Y-105939166D02*
X117524106Y-105939166D01*
X117566440Y-106362500D01*
X117524106Y-106320166D01*
X117439440Y-106277833D01*
X117227773Y-106277833D01*
X117143106Y-106320166D01*
X117100773Y-106362500D01*
X117058440Y-106447166D01*
X117058440Y-106658833D01*
X117100773Y-106743500D01*
X117143106Y-106785833D01*
X117227773Y-106828166D01*
X117439440Y-106828166D01*
X117524106Y-106785833D01*
X117566440Y-106743500D01*
X116762106Y-105939166D02*
X116550440Y-106828166D01*
X116381106Y-106193166D01*
X116211773Y-106828166D01*
X116000106Y-105939166D01*
X114984106Y-106828166D02*
X114984106Y-105939166D01*
X114687773Y-106574166D01*
X114391440Y-105939166D01*
X114391440Y-106828166D01*
X114010440Y-106574166D02*
X113587106Y-106574166D01*
X114095106Y-106828166D02*
X113798773Y-105939166D01*
X113502440Y-106828166D01*
X113290773Y-105939166D02*
X112698106Y-106828166D01*
X112698106Y-105939166D02*
X113290773Y-106828166D01*
D14*
%TO.C,REF\u002A\u002A*%
G36*
X120675400Y-121314054D02*
G01*
X120664535Y-121427993D01*
X120632918Y-121535616D01*
X120582015Y-121634615D01*
X120513293Y-121722684D01*
X120428219Y-121797516D01*
X120331232Y-121855384D01*
X120224964Y-121895005D01*
X120117950Y-121913573D01*
X120012300Y-121912434D01*
X119910125Y-121892930D01*
X119813534Y-121856406D01*
X119724638Y-121804205D01*
X119645546Y-121737673D01*
X119578369Y-121658152D01*
X119525217Y-121566987D01*
X119488199Y-121465523D01*
X119469427Y-121355102D01*
X119467489Y-121305206D01*
X119467489Y-121217267D01*
X119415560Y-121217267D01*
X119379253Y-121220111D01*
X119352355Y-121231911D01*
X119325249Y-121255649D01*
X119286867Y-121294031D01*
X119286867Y-123485602D01*
X119286876Y-123747739D01*
X119286908Y-123988241D01*
X119286972Y-124208048D01*
X119287076Y-124408101D01*
X119287227Y-124589344D01*
X119287434Y-124752716D01*
X119287706Y-124899160D01*
X119288050Y-125029617D01*
X119288474Y-125145029D01*
X119288987Y-125246338D01*
X119289597Y-125334484D01*
X119290312Y-125410410D01*
X119291140Y-125475057D01*
X119292089Y-125529367D01*
X119293167Y-125574280D01*
X119294383Y-125610740D01*
X119295745Y-125639687D01*
X119297261Y-125662063D01*
X119298938Y-125678809D01*
X119300786Y-125690868D01*
X119302813Y-125699180D01*
X119305025Y-125704687D01*
X119306108Y-125706537D01*
X119310271Y-125713549D01*
X119313805Y-125719996D01*
X119317635Y-125725900D01*
X119322682Y-125731286D01*
X119329871Y-125736178D01*
X119340123Y-125740598D01*
X119354364Y-125744572D01*
X119373514Y-125748121D01*
X119398499Y-125751270D01*
X119430240Y-125754042D01*
X119469662Y-125756461D01*
X119517686Y-125758551D01*
X119575237Y-125760335D01*
X119643237Y-125761837D01*
X119722610Y-125763080D01*
X119814279Y-125764089D01*
X119919166Y-125764885D01*
X120038196Y-125765494D01*
X120172290Y-125765939D01*
X120322373Y-125766243D01*
X120489367Y-125766430D01*
X120674196Y-125766524D01*
X120877783Y-125766548D01*
X121101050Y-125766525D01*
X121344922Y-125766480D01*
X121610321Y-125766437D01*
X121648704Y-125766432D01*
X121915682Y-125766389D01*
X122161002Y-125766318D01*
X122385583Y-125766213D01*
X122590345Y-125766066D01*
X122776206Y-125765869D01*
X122944088Y-125765616D01*
X123094908Y-125765300D01*
X123229587Y-125764913D01*
X123349044Y-125764447D01*
X123454199Y-125763897D01*
X123545971Y-125763253D01*
X123625279Y-125762511D01*
X123693043Y-125761661D01*
X123750182Y-125760697D01*
X123797617Y-125759611D01*
X123836266Y-125758397D01*
X123867049Y-125757047D01*
X123890885Y-125755555D01*
X123908694Y-125753911D01*
X123921395Y-125752111D01*
X123929908Y-125750145D01*
X123934266Y-125748477D01*
X123942728Y-125744906D01*
X123950497Y-125742270D01*
X123957602Y-125739634D01*
X123964073Y-125736062D01*
X123969939Y-125730621D01*
X123975229Y-125722375D01*
X123979974Y-125710390D01*
X123984202Y-125693731D01*
X123987943Y-125671463D01*
X123991227Y-125642652D01*
X123994083Y-125606363D01*
X123996540Y-125561661D01*
X123998629Y-125507611D01*
X124000378Y-125443279D01*
X124001817Y-125367730D01*
X124002976Y-125280030D01*
X124003883Y-125179243D01*
X124004569Y-125064434D01*
X124005063Y-124934670D01*
X124005395Y-124789015D01*
X124005593Y-124626535D01*
X124005687Y-124446295D01*
X124005708Y-124247360D01*
X124005685Y-124028796D01*
X124005646Y-123789668D01*
X124005622Y-123529040D01*
X124005622Y-123486889D01*
X124005636Y-123223992D01*
X124005661Y-122982732D01*
X124005671Y-122762165D01*
X124005642Y-122561352D01*
X124005548Y-122379349D01*
X124005362Y-122215216D01*
X124005059Y-122068011D01*
X124004614Y-121936792D01*
X124004034Y-121826867D01*
X123701197Y-121826867D01*
X123661407Y-121884711D01*
X123650236Y-121900479D01*
X123640166Y-121914441D01*
X123631138Y-121927784D01*
X123623097Y-121941693D01*
X123615986Y-121957356D01*
X123609747Y-121975958D01*
X123604325Y-121998686D01*
X123599662Y-122026727D01*
X123595701Y-122061267D01*
X123592385Y-122103492D01*
X123589659Y-122154589D01*
X123587464Y-122215744D01*
X123585745Y-122288144D01*
X123584444Y-122372975D01*
X123583505Y-122471422D01*
X123582870Y-122584674D01*
X123582484Y-122713916D01*
X123582288Y-122860334D01*
X123582227Y-123025116D01*
X123582243Y-123209447D01*
X123582280Y-123414513D01*
X123582289Y-123537133D01*
X123582265Y-123754082D01*
X123582231Y-123949642D01*
X123582243Y-124124999D01*
X123582358Y-124281341D01*
X123582630Y-124419857D01*
X123583118Y-124541734D01*
X123583876Y-124648160D01*
X123584962Y-124740322D01*
X123586431Y-124819409D01*
X123588340Y-124886608D01*
X123590744Y-124943107D01*
X123593701Y-124990093D01*
X123597266Y-125028755D01*
X123601495Y-125060280D01*
X123606446Y-125085855D01*
X123612173Y-125106670D01*
X123618733Y-125123911D01*
X123626183Y-125138765D01*
X123634579Y-125152422D01*
X123643976Y-125166069D01*
X123654432Y-125180893D01*
X123660523Y-125189783D01*
X123699296Y-125247400D01*
X123167732Y-125247400D01*
X123044483Y-125247365D01*
X122941987Y-125247215D01*
X122858420Y-125246878D01*
X122791956Y-125246286D01*
X122740771Y-125245367D01*
X122703041Y-125244051D01*
X122676940Y-125242269D01*
X122660644Y-125239951D01*
X122652328Y-125237026D01*
X122650168Y-125233424D01*
X122652339Y-125229075D01*
X122653535Y-125227645D01*
X122678685Y-125190573D01*
X122704583Y-125137772D01*
X122728192Y-125075770D01*
X122736461Y-125049357D01*
X122741078Y-125031416D01*
X122744979Y-125010355D01*
X122748248Y-124984089D01*
X122750966Y-124950532D01*
X122753215Y-124907599D01*
X122755077Y-124853204D01*
X122756636Y-124785262D01*
X122757972Y-124701688D01*
X122759169Y-124600395D01*
X122760308Y-124479300D01*
X122760685Y-124434600D01*
X122761702Y-124309449D01*
X122762460Y-124205082D01*
X122762903Y-124119707D01*
X122762970Y-124051533D01*
X122762605Y-123998765D01*
X122761748Y-123959614D01*
X122760341Y-123932285D01*
X122758325Y-123914986D01*
X122755643Y-123905926D01*
X122752236Y-123903312D01*
X122748044Y-123905351D01*
X122743571Y-123909667D01*
X122733216Y-123922602D01*
X122711158Y-123951676D01*
X122678957Y-123994759D01*
X122638174Y-124049718D01*
X122590370Y-124114423D01*
X122537105Y-124186742D01*
X122479940Y-124264544D01*
X122420437Y-124345698D01*
X122360155Y-124428072D01*
X122300655Y-124509536D01*
X122243498Y-124587957D01*
X122190245Y-124661204D01*
X122142457Y-124727147D01*
X122101693Y-124783654D01*
X122069516Y-124828593D01*
X122047485Y-124859834D01*
X122042917Y-124866466D01*
X122019996Y-124903369D01*
X121993188Y-124951359D01*
X121967789Y-125000897D01*
X121964568Y-125007577D01*
X121942890Y-125055772D01*
X121930304Y-125093334D01*
X121924574Y-125129160D01*
X121923456Y-125171200D01*
X121924090Y-125247400D01*
X120769651Y-125247400D01*
X120860815Y-125153669D01*
X120907612Y-125103775D01*
X120957899Y-125047295D01*
X121003944Y-124993026D01*
X121024369Y-124967673D01*
X121054807Y-124928128D01*
X121094862Y-124874916D01*
X121143361Y-124809667D01*
X121199135Y-124734011D01*
X121261011Y-124649577D01*
X121327819Y-124557994D01*
X121398387Y-124460892D01*
X121471545Y-124359901D01*
X121546121Y-124256650D01*
X121620944Y-124152768D01*
X121694843Y-124049885D01*
X121766646Y-123949631D01*
X121835184Y-123853636D01*
X121899284Y-123763527D01*
X121957775Y-123680936D01*
X122009486Y-123607492D01*
X122053247Y-123544824D01*
X122087885Y-123494561D01*
X122112230Y-123458334D01*
X122125111Y-123437771D01*
X122126869Y-123433668D01*
X122118910Y-123422342D01*
X122098115Y-123395162D01*
X122065847Y-123353829D01*
X122023470Y-123300044D01*
X121972347Y-123235506D01*
X121913841Y-123161918D01*
X121849314Y-123080978D01*
X121780131Y-122994388D01*
X121707653Y-122903848D01*
X121633246Y-122811060D01*
X121573517Y-122736702D01*
X120562511Y-122736702D01*
X120556602Y-122749659D01*
X120542272Y-122771908D01*
X120541225Y-122773391D01*
X120522438Y-122803544D01*
X120502791Y-122840375D01*
X120498892Y-122848511D01*
X120495356Y-122856940D01*
X120492230Y-122867059D01*
X120489486Y-122880260D01*
X120487092Y-122897938D01*
X120485019Y-122921484D01*
X120483235Y-122952293D01*
X120481712Y-122991757D01*
X120480419Y-123041269D01*
X120479326Y-123102223D01*
X120478403Y-123176011D01*
X120477619Y-123264028D01*
X120476945Y-123367665D01*
X120476350Y-123488316D01*
X120475805Y-123627374D01*
X120475279Y-123786232D01*
X120474745Y-123965089D01*
X120474206Y-124150207D01*
X120473772Y-124314145D01*
X120473509Y-124458303D01*
X120473484Y-124584079D01*
X120473765Y-124692871D01*
X120474419Y-124786077D01*
X120475514Y-124865097D01*
X120477118Y-124931328D01*
X120479297Y-124986170D01*
X120482119Y-125031021D01*
X120485651Y-125067278D01*
X120489961Y-125096341D01*
X120495117Y-125119609D01*
X120501185Y-125138479D01*
X120508233Y-125154351D01*
X120516329Y-125168622D01*
X120525540Y-125182691D01*
X120534040Y-125195158D01*
X120551176Y-125221452D01*
X120561322Y-125239037D01*
X120562511Y-125242257D01*
X120551604Y-125243334D01*
X120520411Y-125244335D01*
X120471223Y-125245235D01*
X120406333Y-125246010D01*
X120328030Y-125246637D01*
X120238607Y-125247091D01*
X120140356Y-125247349D01*
X120071445Y-125247400D01*
X119966452Y-125247180D01*
X119869610Y-125246548D01*
X119783107Y-125245549D01*
X119709132Y-125244227D01*
X119649874Y-125242626D01*
X119607520Y-125240791D01*
X119584260Y-125238765D01*
X119580378Y-125237493D01*
X119588076Y-125222591D01*
X119596074Y-125214560D01*
X119609246Y-125197434D01*
X119626485Y-125167183D01*
X119638407Y-125142622D01*
X119665045Y-125083711D01*
X119668120Y-123906845D01*
X119671195Y-122729978D01*
X120116853Y-122729978D01*
X120214670Y-122730142D01*
X120305064Y-122730611D01*
X120385630Y-122731347D01*
X120453962Y-122732316D01*
X120507656Y-122733480D01*
X120544305Y-122734803D01*
X120561504Y-122736249D01*
X120562511Y-122736702D01*
X121573517Y-122736702D01*
X121558270Y-122717722D01*
X121484090Y-122625537D01*
X121412069Y-122536204D01*
X121343569Y-122451424D01*
X121279955Y-122372898D01*
X121222588Y-122302326D01*
X121172833Y-122241409D01*
X121132052Y-122191847D01*
X121114888Y-122171178D01*
X121028596Y-122070516D01*
X120951997Y-121987259D01*
X120883183Y-121919438D01*
X120820248Y-121865089D01*
X120810867Y-121857722D01*
X120771356Y-121827117D01*
X121903116Y-121826867D01*
X121897827Y-121874844D01*
X121901130Y-121932188D01*
X121922661Y-122000463D01*
X121962635Y-122080212D01*
X122007943Y-122152495D01*
X122024161Y-122175140D01*
X122052214Y-122212696D01*
X122090430Y-122263021D01*
X122137137Y-122323973D01*
X122190661Y-122393411D01*
X122249331Y-122469194D01*
X122311475Y-122549180D01*
X122375421Y-122631228D01*
X122439495Y-122713196D01*
X122502027Y-122792943D01*
X122561343Y-122868327D01*
X122615771Y-122937207D01*
X122663639Y-122997442D01*
X122703275Y-123046889D01*
X122733006Y-123083408D01*
X122751161Y-123104858D01*
X122754220Y-123108156D01*
X122757079Y-123100149D01*
X122759293Y-123069855D01*
X122760857Y-123017556D01*
X122761767Y-122943531D01*
X122762020Y-122848063D01*
X122761613Y-122731434D01*
X122760704Y-122611445D01*
X122759382Y-122479333D01*
X122757857Y-122367594D01*
X122755881Y-122274025D01*
X122753206Y-122196419D01*
X122749582Y-122132574D01*
X122744761Y-122080283D01*
X122738494Y-122037344D01*
X122730532Y-122001551D01*
X122720627Y-121970700D01*
X122708531Y-121942586D01*
X122693993Y-121915005D01*
X122679311Y-121889966D01*
X122641314Y-121826867D01*
X123701197Y-121826867D01*
X124004034Y-121826867D01*
X124004001Y-121820617D01*
X124003195Y-121718544D01*
X124002170Y-121629633D01*
X124000900Y-121552941D01*
X123999360Y-121487527D01*
X123997524Y-121432449D01*
X123995367Y-121386765D01*
X123992863Y-121349534D01*
X123989987Y-121319813D01*
X123986713Y-121296662D01*
X123983015Y-121279139D01*
X123978869Y-121266301D01*
X123974247Y-121257208D01*
X123969126Y-121250918D01*
X123963478Y-121246488D01*
X123957279Y-121242978D01*
X123950504Y-121239445D01*
X123944508Y-121235876D01*
X123939275Y-121233300D01*
X123931099Y-121230972D01*
X123918886Y-121228878D01*
X123901541Y-121227007D01*
X123877969Y-121225347D01*
X123847077Y-121223884D01*
X123807768Y-121222608D01*
X123758950Y-121221504D01*
X123699527Y-121220561D01*
X123628404Y-121219767D01*
X123544488Y-121219109D01*
X123446683Y-121218575D01*
X123333894Y-121218153D01*
X123205029Y-121217829D01*
X123058991Y-121217592D01*
X122894686Y-121217430D01*
X122711020Y-121217330D01*
X122506897Y-121217280D01*
X122295753Y-121217267D01*
X120675400Y-121217267D01*
X120675400Y-121314054D01*
G37*
X120675400Y-121314054D02*
X120664535Y-121427993D01*
X120632918Y-121535616D01*
X120582015Y-121634615D01*
X120513293Y-121722684D01*
X120428219Y-121797516D01*
X120331232Y-121855384D01*
X120224964Y-121895005D01*
X120117950Y-121913573D01*
X120012300Y-121912434D01*
X119910125Y-121892930D01*
X119813534Y-121856406D01*
X119724638Y-121804205D01*
X119645546Y-121737673D01*
X119578369Y-121658152D01*
X119525217Y-121566987D01*
X119488199Y-121465523D01*
X119469427Y-121355102D01*
X119467489Y-121305206D01*
X119467489Y-121217267D01*
X119415560Y-121217267D01*
X119379253Y-121220111D01*
X119352355Y-121231911D01*
X119325249Y-121255649D01*
X119286867Y-121294031D01*
X119286867Y-123485602D01*
X119286876Y-123747739D01*
X119286908Y-123988241D01*
X119286972Y-124208048D01*
X119287076Y-124408101D01*
X119287227Y-124589344D01*
X119287434Y-124752716D01*
X119287706Y-124899160D01*
X119288050Y-125029617D01*
X119288474Y-125145029D01*
X119288987Y-125246338D01*
X119289597Y-125334484D01*
X119290312Y-125410410D01*
X119291140Y-125475057D01*
X119292089Y-125529367D01*
X119293167Y-125574280D01*
X119294383Y-125610740D01*
X119295745Y-125639687D01*
X119297261Y-125662063D01*
X119298938Y-125678809D01*
X119300786Y-125690868D01*
X119302813Y-125699180D01*
X119305025Y-125704687D01*
X119306108Y-125706537D01*
X119310271Y-125713549D01*
X119313805Y-125719996D01*
X119317635Y-125725900D01*
X119322682Y-125731286D01*
X119329871Y-125736178D01*
X119340123Y-125740598D01*
X119354364Y-125744572D01*
X119373514Y-125748121D01*
X119398499Y-125751270D01*
X119430240Y-125754042D01*
X119469662Y-125756461D01*
X119517686Y-125758551D01*
X119575237Y-125760335D01*
X119643237Y-125761837D01*
X119722610Y-125763080D01*
X119814279Y-125764089D01*
X119919166Y-125764885D01*
X120038196Y-125765494D01*
X120172290Y-125765939D01*
X120322373Y-125766243D01*
X120489367Y-125766430D01*
X120674196Y-125766524D01*
X120877783Y-125766548D01*
X121101050Y-125766525D01*
X121344922Y-125766480D01*
X121610321Y-125766437D01*
X121648704Y-125766432D01*
X121915682Y-125766389D01*
X122161002Y-125766318D01*
X122385583Y-125766213D01*
X122590345Y-125766066D01*
X122776206Y-125765869D01*
X122944088Y-125765616D01*
X123094908Y-125765300D01*
X123229587Y-125764913D01*
X123349044Y-125764447D01*
X123454199Y-125763897D01*
X123545971Y-125763253D01*
X123625279Y-125762511D01*
X123693043Y-125761661D01*
X123750182Y-125760697D01*
X123797617Y-125759611D01*
X123836266Y-125758397D01*
X123867049Y-125757047D01*
X123890885Y-125755555D01*
X123908694Y-125753911D01*
X123921395Y-125752111D01*
X123929908Y-125750145D01*
X123934266Y-125748477D01*
X123942728Y-125744906D01*
X123950497Y-125742270D01*
X123957602Y-125739634D01*
X123964073Y-125736062D01*
X123969939Y-125730621D01*
X123975229Y-125722375D01*
X123979974Y-125710390D01*
X123984202Y-125693731D01*
X123987943Y-125671463D01*
X123991227Y-125642652D01*
X123994083Y-125606363D01*
X123996540Y-125561661D01*
X123998629Y-125507611D01*
X124000378Y-125443279D01*
X124001817Y-125367730D01*
X124002976Y-125280030D01*
X124003883Y-125179243D01*
X124004569Y-125064434D01*
X124005063Y-124934670D01*
X124005395Y-124789015D01*
X124005593Y-124626535D01*
X124005687Y-124446295D01*
X124005708Y-124247360D01*
X124005685Y-124028796D01*
X124005646Y-123789668D01*
X124005622Y-123529040D01*
X124005622Y-123486889D01*
X124005636Y-123223992D01*
X124005661Y-122982732D01*
X124005671Y-122762165D01*
X124005642Y-122561352D01*
X124005548Y-122379349D01*
X124005362Y-122215216D01*
X124005059Y-122068011D01*
X124004614Y-121936792D01*
X124004034Y-121826867D01*
X123701197Y-121826867D01*
X123661407Y-121884711D01*
X123650236Y-121900479D01*
X123640166Y-121914441D01*
X123631138Y-121927784D01*
X123623097Y-121941693D01*
X123615986Y-121957356D01*
X123609747Y-121975958D01*
X123604325Y-121998686D01*
X123599662Y-122026727D01*
X123595701Y-122061267D01*
X123592385Y-122103492D01*
X123589659Y-122154589D01*
X123587464Y-122215744D01*
X123585745Y-122288144D01*
X123584444Y-122372975D01*
X123583505Y-122471422D01*
X123582870Y-122584674D01*
X123582484Y-122713916D01*
X123582288Y-122860334D01*
X123582227Y-123025116D01*
X123582243Y-123209447D01*
X123582280Y-123414513D01*
X123582289Y-123537133D01*
X123582265Y-123754082D01*
X123582231Y-123949642D01*
X123582243Y-124124999D01*
X123582358Y-124281341D01*
X123582630Y-124419857D01*
X123583118Y-124541734D01*
X123583876Y-124648160D01*
X123584962Y-124740322D01*
X123586431Y-124819409D01*
X123588340Y-124886608D01*
X123590744Y-124943107D01*
X123593701Y-124990093D01*
X123597266Y-125028755D01*
X123601495Y-125060280D01*
X123606446Y-125085855D01*
X123612173Y-125106670D01*
X123618733Y-125123911D01*
X123626183Y-125138765D01*
X123634579Y-125152422D01*
X123643976Y-125166069D01*
X123654432Y-125180893D01*
X123660523Y-125189783D01*
X123699296Y-125247400D01*
X123167732Y-125247400D01*
X123044483Y-125247365D01*
X122941987Y-125247215D01*
X122858420Y-125246878D01*
X122791956Y-125246286D01*
X122740771Y-125245367D01*
X122703041Y-125244051D01*
X122676940Y-125242269D01*
X122660644Y-125239951D01*
X122652328Y-125237026D01*
X122650168Y-125233424D01*
X122652339Y-125229075D01*
X122653535Y-125227645D01*
X122678685Y-125190573D01*
X122704583Y-125137772D01*
X122728192Y-125075770D01*
X122736461Y-125049357D01*
X122741078Y-125031416D01*
X122744979Y-125010355D01*
X122748248Y-124984089D01*
X122750966Y-124950532D01*
X122753215Y-124907599D01*
X122755077Y-124853204D01*
X122756636Y-124785262D01*
X122757972Y-124701688D01*
X122759169Y-124600395D01*
X122760308Y-124479300D01*
X122760685Y-124434600D01*
X122761702Y-124309449D01*
X122762460Y-124205082D01*
X122762903Y-124119707D01*
X122762970Y-124051533D01*
X122762605Y-123998765D01*
X122761748Y-123959614D01*
X122760341Y-123932285D01*
X122758325Y-123914986D01*
X122755643Y-123905926D01*
X122752236Y-123903312D01*
X122748044Y-123905351D01*
X122743571Y-123909667D01*
X122733216Y-123922602D01*
X122711158Y-123951676D01*
X122678957Y-123994759D01*
X122638174Y-124049718D01*
X122590370Y-124114423D01*
X122537105Y-124186742D01*
X122479940Y-124264544D01*
X122420437Y-124345698D01*
X122360155Y-124428072D01*
X122300655Y-124509536D01*
X122243498Y-124587957D01*
X122190245Y-124661204D01*
X122142457Y-124727147D01*
X122101693Y-124783654D01*
X122069516Y-124828593D01*
X122047485Y-124859834D01*
X122042917Y-124866466D01*
X122019996Y-124903369D01*
X121993188Y-124951359D01*
X121967789Y-125000897D01*
X121964568Y-125007577D01*
X121942890Y-125055772D01*
X121930304Y-125093334D01*
X121924574Y-125129160D01*
X121923456Y-125171200D01*
X121924090Y-125247400D01*
X120769651Y-125247400D01*
X120860815Y-125153669D01*
X120907612Y-125103775D01*
X120957899Y-125047295D01*
X121003944Y-124993026D01*
X121024369Y-124967673D01*
X121054807Y-124928128D01*
X121094862Y-124874916D01*
X121143361Y-124809667D01*
X121199135Y-124734011D01*
X121261011Y-124649577D01*
X121327819Y-124557994D01*
X121398387Y-124460892D01*
X121471545Y-124359901D01*
X121546121Y-124256650D01*
X121620944Y-124152768D01*
X121694843Y-124049885D01*
X121766646Y-123949631D01*
X121835184Y-123853636D01*
X121899284Y-123763527D01*
X121957775Y-123680936D01*
X122009486Y-123607492D01*
X122053247Y-123544824D01*
X122087885Y-123494561D01*
X122112230Y-123458334D01*
X122125111Y-123437771D01*
X122126869Y-123433668D01*
X122118910Y-123422342D01*
X122098115Y-123395162D01*
X122065847Y-123353829D01*
X122023470Y-123300044D01*
X121972347Y-123235506D01*
X121913841Y-123161918D01*
X121849314Y-123080978D01*
X121780131Y-122994388D01*
X121707653Y-122903848D01*
X121633246Y-122811060D01*
X121573517Y-122736702D01*
X120562511Y-122736702D01*
X120556602Y-122749659D01*
X120542272Y-122771908D01*
X120541225Y-122773391D01*
X120522438Y-122803544D01*
X120502791Y-122840375D01*
X120498892Y-122848511D01*
X120495356Y-122856940D01*
X120492230Y-122867059D01*
X120489486Y-122880260D01*
X120487092Y-122897938D01*
X120485019Y-122921484D01*
X120483235Y-122952293D01*
X120481712Y-122991757D01*
X120480419Y-123041269D01*
X120479326Y-123102223D01*
X120478403Y-123176011D01*
X120477619Y-123264028D01*
X120476945Y-123367665D01*
X120476350Y-123488316D01*
X120475805Y-123627374D01*
X120475279Y-123786232D01*
X120474745Y-123965089D01*
X120474206Y-124150207D01*
X120473772Y-124314145D01*
X120473509Y-124458303D01*
X120473484Y-124584079D01*
X120473765Y-124692871D01*
X120474419Y-124786077D01*
X120475514Y-124865097D01*
X120477118Y-124931328D01*
X120479297Y-124986170D01*
X120482119Y-125031021D01*
X120485651Y-125067278D01*
X120489961Y-125096341D01*
X120495117Y-125119609D01*
X120501185Y-125138479D01*
X120508233Y-125154351D01*
X120516329Y-125168622D01*
X120525540Y-125182691D01*
X120534040Y-125195158D01*
X120551176Y-125221452D01*
X120561322Y-125239037D01*
X120562511Y-125242257D01*
X120551604Y-125243334D01*
X120520411Y-125244335D01*
X120471223Y-125245235D01*
X120406333Y-125246010D01*
X120328030Y-125246637D01*
X120238607Y-125247091D01*
X120140356Y-125247349D01*
X120071445Y-125247400D01*
X119966452Y-125247180D01*
X119869610Y-125246548D01*
X119783107Y-125245549D01*
X119709132Y-125244227D01*
X119649874Y-125242626D01*
X119607520Y-125240791D01*
X119584260Y-125238765D01*
X119580378Y-125237493D01*
X119588076Y-125222591D01*
X119596074Y-125214560D01*
X119609246Y-125197434D01*
X119626485Y-125167183D01*
X119638407Y-125142622D01*
X119665045Y-125083711D01*
X119668120Y-123906845D01*
X119671195Y-122729978D01*
X120116853Y-122729978D01*
X120214670Y-122730142D01*
X120305064Y-122730611D01*
X120385630Y-122731347D01*
X120453962Y-122732316D01*
X120507656Y-122733480D01*
X120544305Y-122734803D01*
X120561504Y-122736249D01*
X120562511Y-122736702D01*
X121573517Y-122736702D01*
X121558270Y-122717722D01*
X121484090Y-122625537D01*
X121412069Y-122536204D01*
X121343569Y-122451424D01*
X121279955Y-122372898D01*
X121222588Y-122302326D01*
X121172833Y-122241409D01*
X121132052Y-122191847D01*
X121114888Y-122171178D01*
X121028596Y-122070516D01*
X120951997Y-121987259D01*
X120883183Y-121919438D01*
X120820248Y-121865089D01*
X120810867Y-121857722D01*
X120771356Y-121827117D01*
X121903116Y-121826867D01*
X121897827Y-121874844D01*
X121901130Y-121932188D01*
X121922661Y-122000463D01*
X121962635Y-122080212D01*
X122007943Y-122152495D01*
X122024161Y-122175140D01*
X122052214Y-122212696D01*
X122090430Y-122263021D01*
X122137137Y-122323973D01*
X122190661Y-122393411D01*
X122249331Y-122469194D01*
X122311475Y-122549180D01*
X122375421Y-122631228D01*
X122439495Y-122713196D01*
X122502027Y-122792943D01*
X122561343Y-122868327D01*
X122615771Y-122937207D01*
X122663639Y-122997442D01*
X122703275Y-123046889D01*
X122733006Y-123083408D01*
X122751161Y-123104858D01*
X122754220Y-123108156D01*
X122757079Y-123100149D01*
X122759293Y-123069855D01*
X122760857Y-123017556D01*
X122761767Y-122943531D01*
X122762020Y-122848063D01*
X122761613Y-122731434D01*
X122760704Y-122611445D01*
X122759382Y-122479333D01*
X122757857Y-122367594D01*
X122755881Y-122274025D01*
X122753206Y-122196419D01*
X122749582Y-122132574D01*
X122744761Y-122080283D01*
X122738494Y-122037344D01*
X122730532Y-122001551D01*
X122720627Y-121970700D01*
X122708531Y-121942586D01*
X122693993Y-121915005D01*
X122679311Y-121889966D01*
X122641314Y-121826867D01*
X123701197Y-121826867D01*
X124004034Y-121826867D01*
X124004001Y-121820617D01*
X124003195Y-121718544D01*
X124002170Y-121629633D01*
X124000900Y-121552941D01*
X123999360Y-121487527D01*
X123997524Y-121432449D01*
X123995367Y-121386765D01*
X123992863Y-121349534D01*
X123989987Y-121319813D01*
X123986713Y-121296662D01*
X123983015Y-121279139D01*
X123978869Y-121266301D01*
X123974247Y-121257208D01*
X123969126Y-121250918D01*
X123963478Y-121246488D01*
X123957279Y-121242978D01*
X123950504Y-121239445D01*
X123944508Y-121235876D01*
X123939275Y-121233300D01*
X123931099Y-121230972D01*
X123918886Y-121228878D01*
X123901541Y-121227007D01*
X123877969Y-121225347D01*
X123847077Y-121223884D01*
X123807768Y-121222608D01*
X123758950Y-121221504D01*
X123699527Y-121220561D01*
X123628404Y-121219767D01*
X123544488Y-121219109D01*
X123446683Y-121218575D01*
X123333894Y-121218153D01*
X123205029Y-121217829D01*
X123058991Y-121217592D01*
X122894686Y-121217430D01*
X122711020Y-121217330D01*
X122506897Y-121217280D01*
X122295753Y-121217267D01*
X120675400Y-121217267D01*
X120675400Y-121314054D01*
G36*
X117400571Y-121774071D02*
G01*
X117240430Y-121795245D01*
X117076490Y-121835385D01*
X116906687Y-121894889D01*
X116728957Y-121974154D01*
X116717690Y-121979699D01*
X116659995Y-122007725D01*
X116608448Y-122031802D01*
X116566809Y-122050249D01*
X116538838Y-122061386D01*
X116529267Y-122063933D01*
X116510050Y-122068941D01*
X116505439Y-122073147D01*
X116510542Y-122083580D01*
X116526582Y-122109868D01*
X116551712Y-122149257D01*
X116584086Y-122198991D01*
X116621857Y-122256315D01*
X116663178Y-122318476D01*
X116706202Y-122382718D01*
X116749083Y-122446285D01*
X116789974Y-122506425D01*
X116827029Y-122560380D01*
X116858400Y-122605397D01*
X116882241Y-122638721D01*
X116896706Y-122657597D01*
X116898691Y-122659787D01*
X116908809Y-122655138D01*
X116931150Y-122637962D01*
X116961720Y-122611440D01*
X116977464Y-122596964D01*
X117073953Y-122521682D01*
X117180664Y-122466241D01*
X117296168Y-122431141D01*
X117419038Y-122416880D01*
X117488439Y-122418051D01*
X117609577Y-122435212D01*
X117718795Y-122471094D01*
X117816418Y-122525959D01*
X117902772Y-122600070D01*
X117978185Y-122693688D01*
X118042982Y-122807076D01*
X118080399Y-122893667D01*
X118124252Y-123029366D01*
X118156572Y-123176850D01*
X118177443Y-123332314D01*
X118186949Y-123491956D01*
X118185173Y-123651973D01*
X118172197Y-123808561D01*
X118148106Y-123957918D01*
X118112982Y-124096240D01*
X118066908Y-124219724D01*
X118050627Y-124253978D01*
X117982380Y-124368064D01*
X117901921Y-124464557D01*
X117810430Y-124542670D01*
X117709089Y-124601617D01*
X117599080Y-124640612D01*
X117481585Y-124658868D01*
X117440117Y-124660211D01*
X117318559Y-124649290D01*
X117198122Y-124616474D01*
X117080334Y-124562439D01*
X116966723Y-124487865D01*
X116875315Y-124409539D01*
X116828785Y-124365008D01*
X116647517Y-124662271D01*
X116602420Y-124736433D01*
X116561181Y-124804646D01*
X116525265Y-124864459D01*
X116496134Y-124913420D01*
X116475250Y-124949079D01*
X116464076Y-124968984D01*
X116462625Y-124972079D01*
X116470854Y-124981718D01*
X116496433Y-124998999D01*
X116536127Y-125022283D01*
X116586703Y-125049934D01*
X116644926Y-125080315D01*
X116707563Y-125111790D01*
X116771379Y-125142722D01*
X116833140Y-125171473D01*
X116889612Y-125196408D01*
X116937562Y-125215889D01*
X116961014Y-125224318D01*
X117094779Y-125262133D01*
X117232673Y-125287136D01*
X117380378Y-125300140D01*
X117507167Y-125302468D01*
X117575122Y-125301373D01*
X117640723Y-125299275D01*
X117698153Y-125296434D01*
X117741597Y-125293106D01*
X117755702Y-125291422D01*
X117894716Y-125262587D01*
X118036243Y-125217468D01*
X118173725Y-125158750D01*
X118300606Y-125089120D01*
X118378111Y-125036441D01*
X118505519Y-124928239D01*
X118623822Y-124801671D01*
X118730828Y-124659866D01*
X118824348Y-124505951D01*
X118902190Y-124343053D01*
X118946044Y-124225756D01*
X118996292Y-124042128D01*
X119029791Y-123847581D01*
X119046551Y-123646325D01*
X119046584Y-123442568D01*
X119029899Y-123240521D01*
X118996507Y-123044392D01*
X118946420Y-122858391D01*
X118942603Y-122846803D01*
X118879719Y-122684750D01*
X118802972Y-122536832D01*
X118709758Y-122398865D01*
X118597473Y-122266661D01*
X118553608Y-122221399D01*
X118417466Y-122097457D01*
X118277509Y-121994915D01*
X118131589Y-121912656D01*
X117977558Y-121849564D01*
X117813268Y-121804523D01*
X117717711Y-121787033D01*
X117558977Y-121771466D01*
X117400571Y-121774071D01*
G37*
X117400571Y-121774071D02*
X117240430Y-121795245D01*
X117076490Y-121835385D01*
X116906687Y-121894889D01*
X116728957Y-121974154D01*
X116717690Y-121979699D01*
X116659995Y-122007725D01*
X116608448Y-122031802D01*
X116566809Y-122050249D01*
X116538838Y-122061386D01*
X116529267Y-122063933D01*
X116510050Y-122068941D01*
X116505439Y-122073147D01*
X116510542Y-122083580D01*
X116526582Y-122109868D01*
X116551712Y-122149257D01*
X116584086Y-122198991D01*
X116621857Y-122256315D01*
X116663178Y-122318476D01*
X116706202Y-122382718D01*
X116749083Y-122446285D01*
X116789974Y-122506425D01*
X116827029Y-122560380D01*
X116858400Y-122605397D01*
X116882241Y-122638721D01*
X116896706Y-122657597D01*
X116898691Y-122659787D01*
X116908809Y-122655138D01*
X116931150Y-122637962D01*
X116961720Y-122611440D01*
X116977464Y-122596964D01*
X117073953Y-122521682D01*
X117180664Y-122466241D01*
X117296168Y-122431141D01*
X117419038Y-122416880D01*
X117488439Y-122418051D01*
X117609577Y-122435212D01*
X117718795Y-122471094D01*
X117816418Y-122525959D01*
X117902772Y-122600070D01*
X117978185Y-122693688D01*
X118042982Y-122807076D01*
X118080399Y-122893667D01*
X118124252Y-123029366D01*
X118156572Y-123176850D01*
X118177443Y-123332314D01*
X118186949Y-123491956D01*
X118185173Y-123651973D01*
X118172197Y-123808561D01*
X118148106Y-123957918D01*
X118112982Y-124096240D01*
X118066908Y-124219724D01*
X118050627Y-124253978D01*
X117982380Y-124368064D01*
X117901921Y-124464557D01*
X117810430Y-124542670D01*
X117709089Y-124601617D01*
X117599080Y-124640612D01*
X117481585Y-124658868D01*
X117440117Y-124660211D01*
X117318559Y-124649290D01*
X117198122Y-124616474D01*
X117080334Y-124562439D01*
X116966723Y-124487865D01*
X116875315Y-124409539D01*
X116828785Y-124365008D01*
X116647517Y-124662271D01*
X116602420Y-124736433D01*
X116561181Y-124804646D01*
X116525265Y-124864459D01*
X116496134Y-124913420D01*
X116475250Y-124949079D01*
X116464076Y-124968984D01*
X116462625Y-124972079D01*
X116470854Y-124981718D01*
X116496433Y-124998999D01*
X116536127Y-125022283D01*
X116586703Y-125049934D01*
X116644926Y-125080315D01*
X116707563Y-125111790D01*
X116771379Y-125142722D01*
X116833140Y-125171473D01*
X116889612Y-125196408D01*
X116937562Y-125215889D01*
X116961014Y-125224318D01*
X117094779Y-125262133D01*
X117232673Y-125287136D01*
X117380378Y-125300140D01*
X117507167Y-125302468D01*
X117575122Y-125301373D01*
X117640723Y-125299275D01*
X117698153Y-125296434D01*
X117741597Y-125293106D01*
X117755702Y-125291422D01*
X117894716Y-125262587D01*
X118036243Y-125217468D01*
X118173725Y-125158750D01*
X118300606Y-125089120D01*
X118378111Y-125036441D01*
X118505519Y-124928239D01*
X118623822Y-124801671D01*
X118730828Y-124659866D01*
X118824348Y-124505951D01*
X118902190Y-124343053D01*
X118946044Y-124225756D01*
X118996292Y-124042128D01*
X119029791Y-123847581D01*
X119046551Y-123646325D01*
X119046584Y-123442568D01*
X119029899Y-123240521D01*
X118996507Y-123044392D01*
X118946420Y-122858391D01*
X118942603Y-122846803D01*
X118879719Y-122684750D01*
X118802972Y-122536832D01*
X118709758Y-122398865D01*
X118597473Y-122266661D01*
X118553608Y-122221399D01*
X118417466Y-122097457D01*
X118277509Y-121994915D01*
X118131589Y-121912656D01*
X117977558Y-121849564D01*
X117813268Y-121804523D01*
X117717711Y-121787033D01*
X117558977Y-121771466D01*
X117400571Y-121774071D01*
G36*
X115055426Y-122691552D02*
G01*
X114903508Y-122711567D01*
X114768244Y-122745202D01*
X114648761Y-122792725D01*
X114544185Y-122854405D01*
X114466576Y-122917965D01*
X114397735Y-122992099D01*
X114343994Y-123071871D01*
X114301090Y-123164091D01*
X114285616Y-123207161D01*
X114272756Y-123246142D01*
X114261554Y-123282289D01*
X114251880Y-123317434D01*
X114243604Y-123353410D01*
X114236597Y-123392050D01*
X114230728Y-123435185D01*
X114225869Y-123484649D01*
X114221890Y-123542273D01*
X114218660Y-123609891D01*
X114216051Y-123689334D01*
X114213933Y-123782436D01*
X114212176Y-123891027D01*
X114210651Y-124016942D01*
X114209228Y-124162012D01*
X114207975Y-124304778D01*
X114206649Y-124460968D01*
X114205444Y-124596239D01*
X114204234Y-124712246D01*
X114202894Y-124810645D01*
X114201300Y-124893093D01*
X114199325Y-124961246D01*
X114196844Y-125016760D01*
X114193731Y-125061292D01*
X114189862Y-125096498D01*
X114185111Y-125124034D01*
X114179352Y-125145556D01*
X114172461Y-125162722D01*
X114164311Y-125177186D01*
X114154777Y-125190606D01*
X114143734Y-125204638D01*
X114139434Y-125210071D01*
X114123614Y-125232910D01*
X114116578Y-125248463D01*
X114116556Y-125248922D01*
X114127433Y-125251121D01*
X114158418Y-125253147D01*
X114207043Y-125254942D01*
X114270837Y-125256451D01*
X114347331Y-125257616D01*
X114434056Y-125258380D01*
X114528543Y-125258686D01*
X114539450Y-125258689D01*
X114962343Y-125258689D01*
X114965605Y-125162622D01*
X114968867Y-125066556D01*
X115030956Y-125117543D01*
X115128286Y-125185057D01*
X115238187Y-125239749D01*
X115324651Y-125269978D01*
X115393722Y-125284666D01*
X115477075Y-125294659D01*
X115566841Y-125299646D01*
X115655155Y-125299313D01*
X115734149Y-125293351D01*
X115770378Y-125287638D01*
X115910397Y-125249776D01*
X116036822Y-125194932D01*
X116148740Y-125123924D01*
X116245238Y-125037568D01*
X116325400Y-124936679D01*
X116388313Y-124822076D01*
X116432688Y-124695984D01*
X116445022Y-124639401D01*
X116452632Y-124577202D01*
X116456261Y-124502363D01*
X116456755Y-124468467D01*
X116456690Y-124465282D01*
X115696752Y-124465282D01*
X115687459Y-124540333D01*
X115659272Y-124604160D01*
X115610803Y-124659798D01*
X115605746Y-124664211D01*
X115557452Y-124699037D01*
X115505743Y-124721620D01*
X115445011Y-124733540D01*
X115369648Y-124736383D01*
X115351541Y-124735978D01*
X115297722Y-124733325D01*
X115257692Y-124727909D01*
X115222676Y-124717745D01*
X115183897Y-124700850D01*
X115173255Y-124695672D01*
X115112604Y-124659844D01*
X115065785Y-124617212D01*
X115053048Y-124601973D01*
X115008378Y-124545462D01*
X115008378Y-124349586D01*
X115008914Y-124270939D01*
X115010604Y-124212988D01*
X115013572Y-124173875D01*
X115017943Y-124151741D01*
X115022028Y-124145274D01*
X115037953Y-124142111D01*
X115071736Y-124139488D01*
X115118660Y-124137655D01*
X115174007Y-124136857D01*
X115182894Y-124136842D01*
X115303670Y-124142096D01*
X115406340Y-124158263D01*
X115492894Y-124185961D01*
X115565319Y-124225808D01*
X115620249Y-124272758D01*
X115664796Y-124330645D01*
X115689520Y-124393693D01*
X115696752Y-124465282D01*
X116456690Y-124465282D01*
X116454822Y-124374712D01*
X116446478Y-124295812D01*
X116430232Y-124224590D01*
X116404595Y-124153864D01*
X116380599Y-124101493D01*
X116321980Y-124006196D01*
X116243883Y-123918170D01*
X116148685Y-123839017D01*
X116038762Y-123770340D01*
X115916490Y-123713741D01*
X115784245Y-123670821D01*
X115719578Y-123655882D01*
X115583396Y-123633777D01*
X115434951Y-123619194D01*
X115283495Y-123612813D01*
X115156936Y-123614445D01*
X114995050Y-123621224D01*
X115002470Y-123562245D01*
X115021762Y-123463092D01*
X115052896Y-123382372D01*
X115096731Y-123319466D01*
X115154129Y-123273756D01*
X115225952Y-123244622D01*
X115313059Y-123231447D01*
X115416314Y-123233611D01*
X115454289Y-123237612D01*
X115595480Y-123262780D01*
X115732293Y-123303814D01*
X115826822Y-123341815D01*
X115871982Y-123361190D01*
X115910415Y-123376760D01*
X115936766Y-123386405D01*
X115944454Y-123388452D01*
X115954198Y-123379374D01*
X115970917Y-123350405D01*
X115994768Y-123301217D01*
X116025907Y-123231484D01*
X116064493Y-123140879D01*
X116071090Y-123125089D01*
X116101147Y-123052772D01*
X116128126Y-122987425D01*
X116150864Y-122931906D01*
X116168194Y-122889072D01*
X116178952Y-122861781D01*
X116182059Y-122852942D01*
X116172060Y-122848187D01*
X116145783Y-122842910D01*
X116117511Y-122839231D01*
X116087354Y-122834474D01*
X116039567Y-122825028D01*
X115978388Y-122811820D01*
X115908054Y-122795776D01*
X115832806Y-122777820D01*
X115804245Y-122770797D01*
X115699184Y-122745209D01*
X115611520Y-122725147D01*
X115536932Y-122709969D01*
X115471097Y-122699035D01*
X115409693Y-122691704D01*
X115348398Y-122687335D01*
X115282890Y-122685287D01*
X115224872Y-122684889D01*
X115055426Y-122691552D01*
G37*
X115055426Y-122691552D02*
X114903508Y-122711567D01*
X114768244Y-122745202D01*
X114648761Y-122792725D01*
X114544185Y-122854405D01*
X114466576Y-122917965D01*
X114397735Y-122992099D01*
X114343994Y-123071871D01*
X114301090Y-123164091D01*
X114285616Y-123207161D01*
X114272756Y-123246142D01*
X114261554Y-123282289D01*
X114251880Y-123317434D01*
X114243604Y-123353410D01*
X114236597Y-123392050D01*
X114230728Y-123435185D01*
X114225869Y-123484649D01*
X114221890Y-123542273D01*
X114218660Y-123609891D01*
X114216051Y-123689334D01*
X114213933Y-123782436D01*
X114212176Y-123891027D01*
X114210651Y-124016942D01*
X114209228Y-124162012D01*
X114207975Y-124304778D01*
X114206649Y-124460968D01*
X114205444Y-124596239D01*
X114204234Y-124712246D01*
X114202894Y-124810645D01*
X114201300Y-124893093D01*
X114199325Y-124961246D01*
X114196844Y-125016760D01*
X114193731Y-125061292D01*
X114189862Y-125096498D01*
X114185111Y-125124034D01*
X114179352Y-125145556D01*
X114172461Y-125162722D01*
X114164311Y-125177186D01*
X114154777Y-125190606D01*
X114143734Y-125204638D01*
X114139434Y-125210071D01*
X114123614Y-125232910D01*
X114116578Y-125248463D01*
X114116556Y-125248922D01*
X114127433Y-125251121D01*
X114158418Y-125253147D01*
X114207043Y-125254942D01*
X114270837Y-125256451D01*
X114347331Y-125257616D01*
X114434056Y-125258380D01*
X114528543Y-125258686D01*
X114539450Y-125258689D01*
X114962343Y-125258689D01*
X114965605Y-125162622D01*
X114968867Y-125066556D01*
X115030956Y-125117543D01*
X115128286Y-125185057D01*
X115238187Y-125239749D01*
X115324651Y-125269978D01*
X115393722Y-125284666D01*
X115477075Y-125294659D01*
X115566841Y-125299646D01*
X115655155Y-125299313D01*
X115734149Y-125293351D01*
X115770378Y-125287638D01*
X115910397Y-125249776D01*
X116036822Y-125194932D01*
X116148740Y-125123924D01*
X116245238Y-125037568D01*
X116325400Y-124936679D01*
X116388313Y-124822076D01*
X116432688Y-124695984D01*
X116445022Y-124639401D01*
X116452632Y-124577202D01*
X116456261Y-124502363D01*
X116456755Y-124468467D01*
X116456690Y-124465282D01*
X115696752Y-124465282D01*
X115687459Y-124540333D01*
X115659272Y-124604160D01*
X115610803Y-124659798D01*
X115605746Y-124664211D01*
X115557452Y-124699037D01*
X115505743Y-124721620D01*
X115445011Y-124733540D01*
X115369648Y-124736383D01*
X115351541Y-124735978D01*
X115297722Y-124733325D01*
X115257692Y-124727909D01*
X115222676Y-124717745D01*
X115183897Y-124700850D01*
X115173255Y-124695672D01*
X115112604Y-124659844D01*
X115065785Y-124617212D01*
X115053048Y-124601973D01*
X115008378Y-124545462D01*
X115008378Y-124349586D01*
X115008914Y-124270939D01*
X115010604Y-124212988D01*
X115013572Y-124173875D01*
X115017943Y-124151741D01*
X115022028Y-124145274D01*
X115037953Y-124142111D01*
X115071736Y-124139488D01*
X115118660Y-124137655D01*
X115174007Y-124136857D01*
X115182894Y-124136842D01*
X115303670Y-124142096D01*
X115406340Y-124158263D01*
X115492894Y-124185961D01*
X115565319Y-124225808D01*
X115620249Y-124272758D01*
X115664796Y-124330645D01*
X115689520Y-124393693D01*
X115696752Y-124465282D01*
X116456690Y-124465282D01*
X116454822Y-124374712D01*
X116446478Y-124295812D01*
X116430232Y-124224590D01*
X116404595Y-124153864D01*
X116380599Y-124101493D01*
X116321980Y-124006196D01*
X116243883Y-123918170D01*
X116148685Y-123839017D01*
X116038762Y-123770340D01*
X115916490Y-123713741D01*
X115784245Y-123670821D01*
X115719578Y-123655882D01*
X115583396Y-123633777D01*
X115434951Y-123619194D01*
X115283495Y-123612813D01*
X115156936Y-123614445D01*
X114995050Y-123621224D01*
X115002470Y-123562245D01*
X115021762Y-123463092D01*
X115052896Y-123382372D01*
X115096731Y-123319466D01*
X115154129Y-123273756D01*
X115225952Y-123244622D01*
X115313059Y-123231447D01*
X115416314Y-123233611D01*
X115454289Y-123237612D01*
X115595480Y-123262780D01*
X115732293Y-123303814D01*
X115826822Y-123341815D01*
X115871982Y-123361190D01*
X115910415Y-123376760D01*
X115936766Y-123386405D01*
X115944454Y-123388452D01*
X115954198Y-123379374D01*
X115970917Y-123350405D01*
X115994768Y-123301217D01*
X116025907Y-123231484D01*
X116064493Y-123140879D01*
X116071090Y-123125089D01*
X116101147Y-123052772D01*
X116128126Y-122987425D01*
X116150864Y-122931906D01*
X116168194Y-122889072D01*
X116178952Y-122861781D01*
X116182059Y-122852942D01*
X116172060Y-122848187D01*
X116145783Y-122842910D01*
X116117511Y-122839231D01*
X116087354Y-122834474D01*
X116039567Y-122825028D01*
X115978388Y-122811820D01*
X115908054Y-122795776D01*
X115832806Y-122777820D01*
X115804245Y-122770797D01*
X115699184Y-122745209D01*
X115611520Y-122725147D01*
X115536932Y-122709969D01*
X115471097Y-122699035D01*
X115409693Y-122691704D01*
X115348398Y-122687335D01*
X115282890Y-122685287D01*
X115224872Y-122684889D01*
X115055426Y-122691552D01*
G36*
X111542493Y-123297245D02*
G01*
X111542474Y-123531662D01*
X111542448Y-123744603D01*
X111542375Y-123937168D01*
X111542218Y-124110459D01*
X111541936Y-124265576D01*
X111541491Y-124403620D01*
X111540844Y-124525692D01*
X111539955Y-124632894D01*
X111538787Y-124726326D01*
X111537299Y-124807090D01*
X111535454Y-124876286D01*
X111533211Y-124935015D01*
X111530531Y-124984379D01*
X111527377Y-125025478D01*
X111523708Y-125059413D01*
X111519487Y-125087286D01*
X111514673Y-125110198D01*
X111509227Y-125129249D01*
X111503112Y-125145540D01*
X111496288Y-125160173D01*
X111488715Y-125174249D01*
X111480355Y-125188868D01*
X111475161Y-125197974D01*
X111440896Y-125258689D01*
X112299045Y-125258689D01*
X112299045Y-125162733D01*
X112299776Y-125119370D01*
X112301728Y-125086205D01*
X112304537Y-125068424D01*
X112305779Y-125066778D01*
X112317201Y-125073662D01*
X112339916Y-125091505D01*
X112362615Y-125110879D01*
X112417200Y-125151614D01*
X112486679Y-125192617D01*
X112563730Y-125230123D01*
X112641035Y-125260364D01*
X112671887Y-125270012D01*
X112740384Y-125284578D01*
X112823236Y-125294539D01*
X112912629Y-125299583D01*
X113000752Y-125299396D01*
X113079793Y-125293666D01*
X113117489Y-125287858D01*
X113255586Y-125249797D01*
X113382887Y-125192073D01*
X113498708Y-125115211D01*
X113602363Y-125019739D01*
X113693167Y-124906179D01*
X113759969Y-124795381D01*
X113814836Y-124678625D01*
X113856837Y-124559276D01*
X113886833Y-124433283D01*
X113905689Y-124296594D01*
X113914268Y-124145158D01*
X113914994Y-124067711D01*
X113912900Y-124010934D01*
X113083783Y-124010934D01*
X113083576Y-124104002D01*
X113080663Y-124191692D01*
X113075000Y-124268772D01*
X113066545Y-124330009D01*
X113063962Y-124342350D01*
X113032160Y-124449633D01*
X112990502Y-124536658D01*
X112938637Y-124603642D01*
X112876219Y-124650805D01*
X112802900Y-124678365D01*
X112718331Y-124686541D01*
X112622165Y-124675551D01*
X112558689Y-124659829D01*
X112509546Y-124641639D01*
X112455417Y-124615791D01*
X112414756Y-124592089D01*
X112344200Y-124545721D01*
X112344200Y-123395530D01*
X112411608Y-123351962D01*
X112490133Y-123311040D01*
X112574319Y-123284389D01*
X112659443Y-123272465D01*
X112740784Y-123275722D01*
X112813620Y-123294615D01*
X112845574Y-123310184D01*
X112903499Y-123353181D01*
X112952456Y-123409953D01*
X112993610Y-123482575D01*
X113028126Y-123573121D01*
X113057167Y-123683666D01*
X113058448Y-123689533D01*
X113068619Y-123751788D01*
X113076261Y-123829594D01*
X113081330Y-123917720D01*
X113083783Y-124010934D01*
X113912900Y-124010934D01*
X113907143Y-123854895D01*
X113885198Y-123659059D01*
X113849214Y-123480332D01*
X113799241Y-123318845D01*
X113735332Y-123174726D01*
X113657538Y-123048106D01*
X113565911Y-122939115D01*
X113460503Y-122847883D01*
X113415338Y-122816932D01*
X113314389Y-122760785D01*
X113211099Y-122721174D01*
X113101011Y-122697014D01*
X112979670Y-122687219D01*
X112887164Y-122688265D01*
X112757510Y-122699231D01*
X112644916Y-122721046D01*
X112546125Y-122754714D01*
X112457879Y-122801236D01*
X112409014Y-122835448D01*
X112379647Y-122857362D01*
X112357957Y-122872333D01*
X112349747Y-122876733D01*
X112348132Y-122865904D01*
X112346841Y-122835251D01*
X112345862Y-122787526D01*
X112345183Y-122725479D01*
X112344790Y-122651862D01*
X112344670Y-122569427D01*
X112344812Y-122480925D01*
X112345203Y-122389107D01*
X112345829Y-122296724D01*
X112346680Y-122206528D01*
X112347740Y-122121271D01*
X112348999Y-122043703D01*
X112350444Y-121976576D01*
X112352062Y-121922641D01*
X112353839Y-121884650D01*
X112354331Y-121877667D01*
X112361908Y-121807251D01*
X112373469Y-121752102D01*
X112391208Y-121704981D01*
X112417318Y-121658647D01*
X112423585Y-121649067D01*
X112448017Y-121612378D01*
X111542689Y-121612378D01*
X111542493Y-123297245D01*
G37*
X111542493Y-123297245D02*
X111542474Y-123531662D01*
X111542448Y-123744603D01*
X111542375Y-123937168D01*
X111542218Y-124110459D01*
X111541936Y-124265576D01*
X111541491Y-124403620D01*
X111540844Y-124525692D01*
X111539955Y-124632894D01*
X111538787Y-124726326D01*
X111537299Y-124807090D01*
X111535454Y-124876286D01*
X111533211Y-124935015D01*
X111530531Y-124984379D01*
X111527377Y-125025478D01*
X111523708Y-125059413D01*
X111519487Y-125087286D01*
X111514673Y-125110198D01*
X111509227Y-125129249D01*
X111503112Y-125145540D01*
X111496288Y-125160173D01*
X111488715Y-125174249D01*
X111480355Y-125188868D01*
X111475161Y-125197974D01*
X111440896Y-125258689D01*
X112299045Y-125258689D01*
X112299045Y-125162733D01*
X112299776Y-125119370D01*
X112301728Y-125086205D01*
X112304537Y-125068424D01*
X112305779Y-125066778D01*
X112317201Y-125073662D01*
X112339916Y-125091505D01*
X112362615Y-125110879D01*
X112417200Y-125151614D01*
X112486679Y-125192617D01*
X112563730Y-125230123D01*
X112641035Y-125260364D01*
X112671887Y-125270012D01*
X112740384Y-125284578D01*
X112823236Y-125294539D01*
X112912629Y-125299583D01*
X113000752Y-125299396D01*
X113079793Y-125293666D01*
X113117489Y-125287858D01*
X113255586Y-125249797D01*
X113382887Y-125192073D01*
X113498708Y-125115211D01*
X113602363Y-125019739D01*
X113693167Y-124906179D01*
X113759969Y-124795381D01*
X113814836Y-124678625D01*
X113856837Y-124559276D01*
X113886833Y-124433283D01*
X113905689Y-124296594D01*
X113914268Y-124145158D01*
X113914994Y-124067711D01*
X113912900Y-124010934D01*
X113083783Y-124010934D01*
X113083576Y-124104002D01*
X113080663Y-124191692D01*
X113075000Y-124268772D01*
X113066545Y-124330009D01*
X113063962Y-124342350D01*
X113032160Y-124449633D01*
X112990502Y-124536658D01*
X112938637Y-124603642D01*
X112876219Y-124650805D01*
X112802900Y-124678365D01*
X112718331Y-124686541D01*
X112622165Y-124675551D01*
X112558689Y-124659829D01*
X112509546Y-124641639D01*
X112455417Y-124615791D01*
X112414756Y-124592089D01*
X112344200Y-124545721D01*
X112344200Y-123395530D01*
X112411608Y-123351962D01*
X112490133Y-123311040D01*
X112574319Y-123284389D01*
X112659443Y-123272465D01*
X112740784Y-123275722D01*
X112813620Y-123294615D01*
X112845574Y-123310184D01*
X112903499Y-123353181D01*
X112952456Y-123409953D01*
X112993610Y-123482575D01*
X113028126Y-123573121D01*
X113057167Y-123683666D01*
X113058448Y-123689533D01*
X113068619Y-123751788D01*
X113076261Y-123829594D01*
X113081330Y-123917720D01*
X113083783Y-124010934D01*
X113912900Y-124010934D01*
X113907143Y-123854895D01*
X113885198Y-123659059D01*
X113849214Y-123480332D01*
X113799241Y-123318845D01*
X113735332Y-123174726D01*
X113657538Y-123048106D01*
X113565911Y-122939115D01*
X113460503Y-122847883D01*
X113415338Y-122816932D01*
X113314389Y-122760785D01*
X113211099Y-122721174D01*
X113101011Y-122697014D01*
X112979670Y-122687219D01*
X112887164Y-122688265D01*
X112757510Y-122699231D01*
X112644916Y-122721046D01*
X112546125Y-122754714D01*
X112457879Y-122801236D01*
X112409014Y-122835448D01*
X112379647Y-122857362D01*
X112357957Y-122872333D01*
X112349747Y-122876733D01*
X112348132Y-122865904D01*
X112346841Y-122835251D01*
X112345862Y-122787526D01*
X112345183Y-122725479D01*
X112344790Y-122651862D01*
X112344670Y-122569427D01*
X112344812Y-122480925D01*
X112345203Y-122389107D01*
X112345829Y-122296724D01*
X112346680Y-122206528D01*
X112347740Y-122121271D01*
X112348999Y-122043703D01*
X112350444Y-121976576D01*
X112352062Y-121922641D01*
X112353839Y-121884650D01*
X112354331Y-121877667D01*
X112361908Y-121807251D01*
X112373469Y-121752102D01*
X112391208Y-121704981D01*
X112417318Y-121658647D01*
X112423585Y-121649067D01*
X112448017Y-121612378D01*
X111542689Y-121612378D01*
X111542493Y-123297245D01*
G36*
X120002043Y-120851571D02*
G01*
X119905768Y-120875809D01*
X119819184Y-120918641D01*
X119744373Y-120978419D01*
X119683418Y-121053494D01*
X119638399Y-121142220D01*
X119612136Y-121238530D01*
X119606286Y-121335795D01*
X119621140Y-121429654D01*
X119654840Y-121517511D01*
X119705528Y-121596770D01*
X119771345Y-121664836D01*
X119850434Y-121719112D01*
X119940934Y-121757002D01*
X119992200Y-121769426D01*
X120036698Y-121776947D01*
X120070999Y-121779919D01*
X120103960Y-121778094D01*
X120144434Y-121771225D01*
X120177531Y-121764250D01*
X120270947Y-121732741D01*
X120354619Y-121681617D01*
X120426665Y-121612429D01*
X120485200Y-121526728D01*
X120499148Y-121499489D01*
X120515586Y-121463122D01*
X120525894Y-121432582D01*
X120531460Y-121400450D01*
X120533669Y-121359307D01*
X120533948Y-121313222D01*
X120529861Y-121228865D01*
X120516446Y-121159586D01*
X120491256Y-121098961D01*
X120451846Y-121040567D01*
X120413298Y-120996302D01*
X120341406Y-120930484D01*
X120266313Y-120885053D01*
X120183562Y-120857850D01*
X120105928Y-120847576D01*
X120002043Y-120851571D01*
G37*
X120002043Y-120851571D02*
X119905768Y-120875809D01*
X119819184Y-120918641D01*
X119744373Y-120978419D01*
X119683418Y-121053494D01*
X119638399Y-121142220D01*
X119612136Y-121238530D01*
X119606286Y-121335795D01*
X119621140Y-121429654D01*
X119654840Y-121517511D01*
X119705528Y-121596770D01*
X119771345Y-121664836D01*
X119850434Y-121719112D01*
X119940934Y-121757002D01*
X119992200Y-121769426D01*
X120036698Y-121776947D01*
X120070999Y-121779919D01*
X120103960Y-121778094D01*
X120144434Y-121771225D01*
X120177531Y-121764250D01*
X120270947Y-121732741D01*
X120354619Y-121681617D01*
X120426665Y-121612429D01*
X120485200Y-121526728D01*
X120499148Y-121499489D01*
X120515586Y-121463122D01*
X120525894Y-121432582D01*
X120531460Y-121400450D01*
X120533669Y-121359307D01*
X120533948Y-121313222D01*
X120529861Y-121228865D01*
X120516446Y-121159586D01*
X120491256Y-121098961D01*
X120451846Y-121040567D01*
X120413298Y-120996302D01*
X120341406Y-120930484D01*
X120266313Y-120885053D01*
X120183562Y-120857850D01*
X120105928Y-120847576D01*
X120002043Y-120851571D01*
%TO.C,G\u002A\u002A\u002A*%
G36*
X140642410Y-101948589D02*
G01*
X140416513Y-102007247D01*
X140080209Y-102126172D01*
X139606244Y-102313654D01*
X139141945Y-102505112D01*
X138322174Y-102847733D01*
X137670254Y-103124262D01*
X137165794Y-103345120D01*
X136788401Y-103520729D01*
X136517682Y-103661510D01*
X136333244Y-103777884D01*
X136214696Y-103880274D01*
X136141645Y-103979100D01*
X136104314Y-104057478D01*
X136014199Y-104428469D01*
X135978957Y-104913363D01*
X135993630Y-105453443D01*
X136053260Y-105989995D01*
X136152890Y-106464301D01*
X136287561Y-106817647D01*
X136344792Y-106905359D01*
X136470597Y-106974786D01*
X136759404Y-107091047D01*
X137179310Y-107243521D01*
X137698408Y-107421587D01*
X138284794Y-107614625D01*
X138906562Y-107812013D01*
X139531808Y-108003131D01*
X140128625Y-108177359D01*
X140362008Y-108242632D01*
X141100215Y-108445945D01*
X141245323Y-108223372D01*
X141381917Y-107923721D01*
X141500694Y-107507152D01*
X141580653Y-107059925D01*
X141600688Y-106781600D01*
X141320620Y-106781600D01*
X141264067Y-107195063D01*
X141201690Y-107533997D01*
X141121462Y-107832538D01*
X141107771Y-107870870D01*
X141008028Y-108133214D01*
X140214314Y-107901393D01*
X139803807Y-107778992D01*
X139268308Y-107615766D01*
X138676373Y-107432772D01*
X138096557Y-107251066D01*
X138081354Y-107246262D01*
X136742108Y-106822953D01*
X136876465Y-106446676D01*
X136981426Y-106211024D01*
X137077290Y-106087734D01*
X137098111Y-106082087D01*
X137220545Y-106101600D01*
X137512189Y-106149360D01*
X137941820Y-106220217D01*
X138478213Y-106309016D01*
X139090141Y-106410605D01*
X139253010Y-106437687D01*
X141320620Y-106781600D01*
X141600688Y-106781600D01*
X141602517Y-106756200D01*
X141627218Y-106508128D01*
X141718238Y-106444088D01*
X141908748Y-106547634D01*
X141954619Y-106581631D01*
X142196002Y-106697271D01*
X142447770Y-106724623D01*
X142631925Y-106661274D01*
X142671521Y-106603800D01*
X142681066Y-106424435D01*
X142654369Y-106220658D01*
X142345079Y-106220658D01*
X142321496Y-106385248D01*
X142198686Y-106432869D01*
X142069315Y-106335911D01*
X142087721Y-106204956D01*
X142152509Y-106130570D01*
X142272057Y-106080881D01*
X142342653Y-106211538D01*
X142345079Y-106220658D01*
X142654369Y-106220658D01*
X142645763Y-106154976D01*
X142638893Y-106121813D01*
X142516917Y-105832780D01*
X142324683Y-105732896D01*
X142074614Y-105825690D01*
X141951537Y-105926515D01*
X141706600Y-106156620D01*
X141706600Y-105834110D01*
X141729407Y-105609200D01*
X141799617Y-105551162D01*
X141399722Y-105551162D01*
X141395591Y-105948786D01*
X141382785Y-106256836D01*
X141360951Y-106425368D01*
X141353443Y-106440490D01*
X141243463Y-106438256D01*
X140963521Y-106404530D01*
X140543654Y-106343737D01*
X140013903Y-106260301D01*
X139404304Y-106158647D01*
X139194443Y-106122500D01*
X137083800Y-105756153D01*
X137053437Y-105347049D01*
X137048889Y-105285765D01*
X136718350Y-105285765D01*
X136716094Y-105696653D01*
X136675028Y-106063985D01*
X136611735Y-106292385D01*
X136495269Y-106578400D01*
X136365543Y-106172000D01*
X136280164Y-105799218D01*
X136231459Y-105385632D01*
X136228009Y-105295700D01*
X136239525Y-104887547D01*
X136282133Y-104534572D01*
X136347016Y-104285939D01*
X136425356Y-104190809D01*
X136426161Y-104190800D01*
X136535700Y-104283838D01*
X136623807Y-104530151D01*
X136686139Y-104880529D01*
X136718350Y-105285765D01*
X137048889Y-105285765D01*
X137023073Y-104937945D01*
X139034637Y-104309925D01*
X139644126Y-104121306D01*
X140190459Y-103955393D01*
X140642991Y-103821235D01*
X140971076Y-103727881D01*
X141144069Y-103684380D01*
X141159907Y-103682352D01*
X141247717Y-103772145D01*
X141323196Y-103994311D01*
X141336589Y-104063800D01*
X141363613Y-104320283D01*
X141383379Y-104686966D01*
X141395534Y-105113908D01*
X141399722Y-105551162D01*
X141799617Y-105551162D01*
X141834088Y-105522668D01*
X141986000Y-105510716D01*
X142253297Y-105497907D01*
X142613000Y-105466427D01*
X142791700Y-105446605D01*
X143317999Y-105383378D01*
X143389478Y-105777689D01*
X143526652Y-106268138D01*
X143721639Y-106624250D01*
X143950923Y-106835199D01*
X144190987Y-106890159D01*
X144418315Y-106778303D01*
X144609391Y-106488807D01*
X144657536Y-106361457D01*
X144725416Y-106002462D01*
X144751289Y-105514563D01*
X144744923Y-105230810D01*
X144464204Y-105230810D01*
X144442797Y-105823811D01*
X144378950Y-106259963D01*
X144277028Y-106528306D01*
X144141392Y-106617885D01*
X143976405Y-106517740D01*
X143959581Y-106498224D01*
X143869433Y-106325641D01*
X143766721Y-106040102D01*
X143724149Y-105893414D01*
X143654588Y-105603398D01*
X143657677Y-105432502D01*
X143750193Y-105304481D01*
X143876739Y-105199865D01*
X144084770Y-104950457D01*
X144100956Y-104785781D01*
X143827059Y-104785781D01*
X143772564Y-104908676D01*
X143524247Y-105043779D01*
X143103777Y-105139660D01*
X142539414Y-105190635D01*
X142341600Y-105196400D01*
X141995220Y-105197395D01*
X141805147Y-105173997D01*
X141724590Y-105108256D01*
X141706760Y-104982222D01*
X141706600Y-104952800D01*
X141723703Y-104800460D01*
X141810100Y-104725473D01*
X142018424Y-104700766D01*
X142200420Y-104698800D01*
X142615265Y-104686211D01*
X143038931Y-104654873D01*
X143140220Y-104643627D01*
X143484192Y-104632418D01*
X143724390Y-104684519D01*
X143827059Y-104785781D01*
X144100956Y-104785781D01*
X144109346Y-104700425D01*
X143951135Y-104489169D01*
X143863801Y-104437077D01*
X143652508Y-104318418D01*
X143567544Y-104195499D01*
X143583157Y-103996252D01*
X143634239Y-103794655D01*
X143764333Y-103495715D01*
X143927809Y-103374376D01*
X144095885Y-103437297D01*
X144227462Y-103657400D01*
X144343322Y-103986922D01*
X144414082Y-104282377D01*
X144450499Y-104615250D01*
X144463328Y-105057023D01*
X144464204Y-105230810D01*
X144744923Y-105230810D01*
X144738893Y-104962111D01*
X144691966Y-104409454D01*
X144614245Y-103920939D01*
X144509469Y-103560917D01*
X144492725Y-103524167D01*
X144346600Y-103268573D01*
X144195235Y-103152670D01*
X143967039Y-103124084D01*
X143945696Y-103124000D01*
X143669574Y-103178031D01*
X143475933Y-103358804D01*
X143343888Y-103694338D01*
X143279866Y-104017176D01*
X143219826Y-104402353D01*
X142443504Y-104372776D01*
X141667182Y-104343200D01*
X141542083Y-103663815D01*
X141453842Y-103287141D01*
X141177795Y-103287141D01*
X141173659Y-103327718D01*
X141065140Y-103367470D01*
X140797532Y-103455053D01*
X140406265Y-103579533D01*
X139926767Y-103729979D01*
X139394467Y-103895456D01*
X138844794Y-104065033D01*
X138313177Y-104227777D01*
X137835046Y-104372754D01*
X137445828Y-104489032D01*
X137180953Y-104565678D01*
X137077218Y-104591812D01*
X136967692Y-104512372D01*
X136833186Y-104308952D01*
X136803540Y-104250152D01*
X136638045Y-103903104D01*
X137572123Y-103494145D01*
X138083845Y-103272199D01*
X138688869Y-103012938D01*
X139292731Y-102756730D01*
X139592465Y-102630767D01*
X140678729Y-102176349D01*
X140820247Y-102396174D01*
X140926657Y-102596476D01*
X141039008Y-102857310D01*
X141131365Y-103110319D01*
X141177795Y-103287141D01*
X141453842Y-103287141D01*
X141412079Y-103108870D01*
X141243754Y-102610216D01*
X141056535Y-102216698D01*
X140871994Y-101978918D01*
X140785153Y-101941909D01*
X140642410Y-101948589D01*
G37*
X140642410Y-101948589D02*
X140416513Y-102007247D01*
X140080209Y-102126172D01*
X139606244Y-102313654D01*
X139141945Y-102505112D01*
X138322174Y-102847733D01*
X137670254Y-103124262D01*
X137165794Y-103345120D01*
X136788401Y-103520729D01*
X136517682Y-103661510D01*
X136333244Y-103777884D01*
X136214696Y-103880274D01*
X136141645Y-103979100D01*
X136104314Y-104057478D01*
X136014199Y-104428469D01*
X135978957Y-104913363D01*
X135993630Y-105453443D01*
X136053260Y-105989995D01*
X136152890Y-106464301D01*
X136287561Y-106817647D01*
X136344792Y-106905359D01*
X136470597Y-106974786D01*
X136759404Y-107091047D01*
X137179310Y-107243521D01*
X137698408Y-107421587D01*
X138284794Y-107614625D01*
X138906562Y-107812013D01*
X139531808Y-108003131D01*
X140128625Y-108177359D01*
X140362008Y-108242632D01*
X141100215Y-108445945D01*
X141245323Y-108223372D01*
X141381917Y-107923721D01*
X141500694Y-107507152D01*
X141580653Y-107059925D01*
X141600688Y-106781600D01*
X141320620Y-106781600D01*
X141264067Y-107195063D01*
X141201690Y-107533997D01*
X141121462Y-107832538D01*
X141107771Y-107870870D01*
X141008028Y-108133214D01*
X140214314Y-107901393D01*
X139803807Y-107778992D01*
X139268308Y-107615766D01*
X138676373Y-107432772D01*
X138096557Y-107251066D01*
X138081354Y-107246262D01*
X136742108Y-106822953D01*
X136876465Y-106446676D01*
X136981426Y-106211024D01*
X137077290Y-106087734D01*
X137098111Y-106082087D01*
X137220545Y-106101600D01*
X137512189Y-106149360D01*
X137941820Y-106220217D01*
X138478213Y-106309016D01*
X139090141Y-106410605D01*
X139253010Y-106437687D01*
X141320620Y-106781600D01*
X141600688Y-106781600D01*
X141602517Y-106756200D01*
X141627218Y-106508128D01*
X141718238Y-106444088D01*
X141908748Y-106547634D01*
X141954619Y-106581631D01*
X142196002Y-106697271D01*
X142447770Y-106724623D01*
X142631925Y-106661274D01*
X142671521Y-106603800D01*
X142681066Y-106424435D01*
X142654369Y-106220658D01*
X142345079Y-106220658D01*
X142321496Y-106385248D01*
X142198686Y-106432869D01*
X142069315Y-106335911D01*
X142087721Y-106204956D01*
X142152509Y-106130570D01*
X142272057Y-106080881D01*
X142342653Y-106211538D01*
X142345079Y-106220658D01*
X142654369Y-106220658D01*
X142645763Y-106154976D01*
X142638893Y-106121813D01*
X142516917Y-105832780D01*
X142324683Y-105732896D01*
X142074614Y-105825690D01*
X141951537Y-105926515D01*
X141706600Y-106156620D01*
X141706600Y-105834110D01*
X141729407Y-105609200D01*
X141799617Y-105551162D01*
X141399722Y-105551162D01*
X141395591Y-105948786D01*
X141382785Y-106256836D01*
X141360951Y-106425368D01*
X141353443Y-106440490D01*
X141243463Y-106438256D01*
X140963521Y-106404530D01*
X140543654Y-106343737D01*
X140013903Y-106260301D01*
X139404304Y-106158647D01*
X139194443Y-106122500D01*
X137083800Y-105756153D01*
X137053437Y-105347049D01*
X137048889Y-105285765D01*
X136718350Y-105285765D01*
X136716094Y-105696653D01*
X136675028Y-106063985D01*
X136611735Y-106292385D01*
X136495269Y-106578400D01*
X136365543Y-106172000D01*
X136280164Y-105799218D01*
X136231459Y-105385632D01*
X136228009Y-105295700D01*
X136239525Y-104887547D01*
X136282133Y-104534572D01*
X136347016Y-104285939D01*
X136425356Y-104190809D01*
X136426161Y-104190800D01*
X136535700Y-104283838D01*
X136623807Y-104530151D01*
X136686139Y-104880529D01*
X136718350Y-105285765D01*
X137048889Y-105285765D01*
X137023073Y-104937945D01*
X139034637Y-104309925D01*
X139644126Y-104121306D01*
X140190459Y-103955393D01*
X140642991Y-103821235D01*
X140971076Y-103727881D01*
X141144069Y-103684380D01*
X141159907Y-103682352D01*
X141247717Y-103772145D01*
X141323196Y-103994311D01*
X141336589Y-104063800D01*
X141363613Y-104320283D01*
X141383379Y-104686966D01*
X141395534Y-105113908D01*
X141399722Y-105551162D01*
X141799617Y-105551162D01*
X141834088Y-105522668D01*
X141986000Y-105510716D01*
X142253297Y-105497907D01*
X142613000Y-105466427D01*
X142791700Y-105446605D01*
X143317999Y-105383378D01*
X143389478Y-105777689D01*
X143526652Y-106268138D01*
X143721639Y-106624250D01*
X143950923Y-106835199D01*
X144190987Y-106890159D01*
X144418315Y-106778303D01*
X144609391Y-106488807D01*
X144657536Y-106361457D01*
X144725416Y-106002462D01*
X144751289Y-105514563D01*
X144744923Y-105230810D01*
X144464204Y-105230810D01*
X144442797Y-105823811D01*
X144378950Y-106259963D01*
X144277028Y-106528306D01*
X144141392Y-106617885D01*
X143976405Y-106517740D01*
X143959581Y-106498224D01*
X143869433Y-106325641D01*
X143766721Y-106040102D01*
X143724149Y-105893414D01*
X143654588Y-105603398D01*
X143657677Y-105432502D01*
X143750193Y-105304481D01*
X143876739Y-105199865D01*
X144084770Y-104950457D01*
X144100956Y-104785781D01*
X143827059Y-104785781D01*
X143772564Y-104908676D01*
X143524247Y-105043779D01*
X143103777Y-105139660D01*
X142539414Y-105190635D01*
X142341600Y-105196400D01*
X141995220Y-105197395D01*
X141805147Y-105173997D01*
X141724590Y-105108256D01*
X141706760Y-104982222D01*
X141706600Y-104952800D01*
X141723703Y-104800460D01*
X141810100Y-104725473D01*
X142018424Y-104700766D01*
X142200420Y-104698800D01*
X142615265Y-104686211D01*
X143038931Y-104654873D01*
X143140220Y-104643627D01*
X143484192Y-104632418D01*
X143724390Y-104684519D01*
X143827059Y-104785781D01*
X144100956Y-104785781D01*
X144109346Y-104700425D01*
X143951135Y-104489169D01*
X143863801Y-104437077D01*
X143652508Y-104318418D01*
X143567544Y-104195499D01*
X143583157Y-103996252D01*
X143634239Y-103794655D01*
X143764333Y-103495715D01*
X143927809Y-103374376D01*
X144095885Y-103437297D01*
X144227462Y-103657400D01*
X144343322Y-103986922D01*
X144414082Y-104282377D01*
X144450499Y-104615250D01*
X144463328Y-105057023D01*
X144464204Y-105230810D01*
X144744923Y-105230810D01*
X144738893Y-104962111D01*
X144691966Y-104409454D01*
X144614245Y-103920939D01*
X144509469Y-103560917D01*
X144492725Y-103524167D01*
X144346600Y-103268573D01*
X144195235Y-103152670D01*
X143967039Y-103124084D01*
X143945696Y-103124000D01*
X143669574Y-103178031D01*
X143475933Y-103358804D01*
X143343888Y-103694338D01*
X143279866Y-104017176D01*
X143219826Y-104402353D01*
X142443504Y-104372776D01*
X141667182Y-104343200D01*
X141542083Y-103663815D01*
X141453842Y-103287141D01*
X141177795Y-103287141D01*
X141173659Y-103327718D01*
X141065140Y-103367470D01*
X140797532Y-103455053D01*
X140406265Y-103579533D01*
X139926767Y-103729979D01*
X139394467Y-103895456D01*
X138844794Y-104065033D01*
X138313177Y-104227777D01*
X137835046Y-104372754D01*
X137445828Y-104489032D01*
X137180953Y-104565678D01*
X137077218Y-104591812D01*
X136967692Y-104512372D01*
X136833186Y-104308952D01*
X136803540Y-104250152D01*
X136638045Y-103903104D01*
X137572123Y-103494145D01*
X138083845Y-103272199D01*
X138688869Y-103012938D01*
X139292731Y-102756730D01*
X139592465Y-102630767D01*
X140678729Y-102176349D01*
X140820247Y-102396174D01*
X140926657Y-102596476D01*
X141039008Y-102857310D01*
X141131365Y-103110319D01*
X141177795Y-103287141D01*
X141453842Y-103287141D01*
X141412079Y-103108870D01*
X141243754Y-102610216D01*
X141056535Y-102216698D01*
X140871994Y-101978918D01*
X140785153Y-101941909D01*
X140642410Y-101948589D01*
G36*
X142604850Y-106860673D02*
G01*
X142568853Y-106938245D01*
X142450415Y-107092581D01*
X142333406Y-107092965D01*
X142085837Y-107090528D01*
X141928940Y-107225457D01*
X141883372Y-107444360D01*
X141969788Y-107693848D01*
X142058606Y-107803241D01*
X142387066Y-107999792D01*
X142783357Y-108047274D01*
X143168111Y-107936700D01*
X143179800Y-107930193D01*
X143453591Y-107687575D01*
X143536738Y-107398278D01*
X143515474Y-107340309D01*
X143218165Y-107340309D01*
X143185691Y-107536009D01*
X143000903Y-107683703D01*
X142688426Y-107746531D01*
X142663921Y-107746800D01*
X142396973Y-107701423D01*
X142214600Y-107594400D01*
X142147487Y-107471621D01*
X142238065Y-107426538D01*
X142434052Y-107435136D01*
X142613713Y-107371418D01*
X142759749Y-107227458D01*
X142895394Y-107078349D01*
X143017662Y-107091838D01*
X143073697Y-107133462D01*
X143218165Y-107340309D01*
X143515474Y-107340309D01*
X143425285Y-107094448D01*
X143300252Y-106951710D01*
X143028796Y-106774104D01*
X142780774Y-106743459D01*
X142604850Y-106860673D01*
G37*
X142604850Y-106860673D02*
X142568853Y-106938245D01*
X142450415Y-107092581D01*
X142333406Y-107092965D01*
X142085837Y-107090528D01*
X141928940Y-107225457D01*
X141883372Y-107444360D01*
X141969788Y-107693848D01*
X142058606Y-107803241D01*
X142387066Y-107999792D01*
X142783357Y-108047274D01*
X143168111Y-107936700D01*
X143179800Y-107930193D01*
X143453591Y-107687575D01*
X143536738Y-107398278D01*
X143515474Y-107340309D01*
X143218165Y-107340309D01*
X143185691Y-107536009D01*
X143000903Y-107683703D01*
X142688426Y-107746531D01*
X142663921Y-107746800D01*
X142396973Y-107701423D01*
X142214600Y-107594400D01*
X142147487Y-107471621D01*
X142238065Y-107426538D01*
X142434052Y-107435136D01*
X142613713Y-107371418D01*
X142759749Y-107227458D01*
X142895394Y-107078349D01*
X143017662Y-107091838D01*
X143073697Y-107133462D01*
X143218165Y-107340309D01*
X143515474Y-107340309D01*
X143425285Y-107094448D01*
X143300252Y-106951710D01*
X143028796Y-106774104D01*
X142780774Y-106743459D01*
X142604850Y-106860673D01*
G36*
X147446307Y-87373842D02*
G01*
X147418268Y-87389694D01*
X147294648Y-87537460D01*
X147156419Y-87800860D01*
X147102477Y-87933785D01*
X146936602Y-88267938D01*
X146736922Y-88435253D01*
X146683685Y-88453802D01*
X146155385Y-88528712D01*
X145724381Y-88429852D01*
X145588686Y-88349773D01*
X145217264Y-88127077D01*
X144945773Y-88068816D01*
X144757528Y-88184169D01*
X144635846Y-88482315D01*
X144569869Y-88910280D01*
X144529743Y-89278337D01*
X144483501Y-89491727D01*
X144405593Y-89598053D01*
X144270471Y-89644916D01*
X144166402Y-89662000D01*
X143925174Y-89736462D01*
X143874774Y-89829806D01*
X144011865Y-89900991D01*
X144187046Y-89916000D01*
X144441023Y-89957254D01*
X144510471Y-90055356D01*
X144389863Y-90171810D01*
X144232417Y-90232088D01*
X143966617Y-90342271D01*
X143851454Y-90454953D01*
X143892662Y-90535181D01*
X144095979Y-90548003D01*
X144182749Y-90534751D01*
X144551400Y-90465592D01*
X144552234Y-91206796D01*
X144565569Y-91677123D01*
X144600027Y-92238215D01*
X144648594Y-92779596D01*
X144656720Y-92852779D01*
X144703216Y-93287941D01*
X144718544Y-93571134D01*
X144697815Y-93751884D01*
X144636137Y-93879717D01*
X144544697Y-93987135D01*
X144387160Y-94254004D01*
X144394608Y-94423359D01*
X144535302Y-94615565D01*
X144755058Y-94718513D01*
X144957751Y-94691230D01*
X145071479Y-94701978D01*
X145147242Y-94845764D01*
X145169193Y-95053633D01*
X145121486Y-95256630D01*
X145097188Y-95298006D01*
X145012670Y-95542925D01*
X144966331Y-95970337D01*
X144957800Y-96332032D01*
X144962458Y-96749004D01*
X144985450Y-97015255D01*
X145040309Y-97183205D01*
X145140568Y-97305275D01*
X145227811Y-97378042D01*
X145586067Y-97578649D01*
X146100374Y-97754757D01*
X146723847Y-97892206D01*
X147116800Y-97948608D01*
X147701000Y-98016613D01*
X147701000Y-100742110D01*
X147697230Y-101613982D01*
X147686225Y-102338365D01*
X147668440Y-102902729D01*
X147644332Y-103294544D01*
X147614359Y-103501279D01*
X147599400Y-103530400D01*
X147514050Y-103673703D01*
X147497800Y-103790396D01*
X147443465Y-103952017D01*
X147371072Y-103987600D01*
X147239971Y-104056338D01*
X147021487Y-104235959D01*
X146780144Y-104470200D01*
X146491282Y-104754954D01*
X146213861Y-105002999D01*
X146043273Y-105135343D01*
X145822752Y-105366899D01*
X145774148Y-105611888D01*
X145874317Y-105826814D01*
X146100114Y-105968180D01*
X146428393Y-105992491D01*
X146493617Y-105981676D01*
X146772588Y-105899212D01*
X147107909Y-105765731D01*
X147199362Y-105723317D01*
X147545509Y-105587181D01*
X147760867Y-105594645D01*
X147871672Y-105760337D01*
X147904159Y-106098885D01*
X147904200Y-106116323D01*
X147943570Y-106505732D01*
X148067372Y-106737098D01*
X148082000Y-106750399D01*
X148312405Y-106920445D01*
X148495047Y-106951565D01*
X148717976Y-106855982D01*
X148742219Y-106842050D01*
X148910307Y-106719719D01*
X148993372Y-106561415D01*
X149020190Y-106296789D01*
X149021619Y-106159040D01*
X149050287Y-105757039D01*
X149109561Y-105621666D01*
X148715445Y-105621666D01*
X148709645Y-106092288D01*
X148683617Y-106392675D01*
X148627454Y-106555531D01*
X148531247Y-106613558D01*
X148417155Y-106606168D01*
X148335926Y-106548414D01*
X148282263Y-106388613D01*
X148248727Y-106091092D01*
X148230800Y-105712599D01*
X148226072Y-105231638D01*
X148253788Y-104909782D01*
X148318902Y-104704803D01*
X148355869Y-104646942D01*
X148498921Y-104525250D01*
X148604548Y-104588920D01*
X148674344Y-104842269D01*
X148709902Y-105289616D01*
X148715445Y-105621666D01*
X149109561Y-105621666D01*
X149144722Y-105541365D01*
X149318090Y-105502073D01*
X149583559Y-105629216D01*
X149656706Y-105679300D01*
X150027887Y-105872249D01*
X150439958Y-105987591D01*
X150478703Y-105992656D01*
X150773768Y-106010500D01*
X150939303Y-105964394D01*
X151044175Y-105834318D01*
X151048055Y-105827135D01*
X151108814Y-105615264D01*
X150850600Y-105615264D01*
X150769163Y-105704743D01*
X150559852Y-105709993D01*
X150275167Y-105640358D01*
X149967609Y-105505177D01*
X149854938Y-105438098D01*
X149594365Y-105249828D01*
X149468104Y-105082118D01*
X149429600Y-104862920D01*
X149428200Y-104777698D01*
X149454059Y-104498730D01*
X149534446Y-104412514D01*
X149673582Y-104518790D01*
X149836552Y-104752758D01*
X150077831Y-105036146D01*
X150390654Y-105278141D01*
X150454439Y-105313623D01*
X150695758Y-105457469D01*
X150836123Y-105581260D01*
X150850600Y-105615264D01*
X151108814Y-105615264D01*
X151110931Y-105607882D01*
X151030160Y-105404516D01*
X150786060Y-105180339D01*
X150649616Y-105084237D01*
X150349690Y-104831367D01*
X150084003Y-104528273D01*
X150059552Y-104493182D01*
X149856830Y-104255012D01*
X149647516Y-104101815D01*
X149599935Y-104084348D01*
X149427318Y-103978392D01*
X149123400Y-103978392D01*
X149123021Y-104414796D01*
X149122641Y-104851200D01*
X148921314Y-104521000D01*
X148691195Y-104272873D01*
X148442504Y-104213680D01*
X148206112Y-104335261D01*
X148012894Y-104629458D01*
X147960171Y-104775000D01*
X147887484Y-104963806D01*
X147838543Y-104966507D01*
X147812460Y-104787447D01*
X147497800Y-104787447D01*
X147489500Y-105080198D01*
X147433178Y-105251898D01*
X147281704Y-105371873D01*
X147015200Y-105497316D01*
X146589086Y-105649160D01*
X146284036Y-105675962D01*
X146117196Y-105576867D01*
X146102279Y-105542960D01*
X146155225Y-105419608D01*
X146337525Y-105280173D01*
X146362761Y-105266618D01*
X146607132Y-105091946D01*
X146878285Y-104829595D01*
X146987378Y-104701858D01*
X147188880Y-104468528D01*
X147349030Y-104320250D01*
X147404738Y-104292400D01*
X147458414Y-104383654D01*
X147492040Y-104616390D01*
X147497800Y-104787447D01*
X147812460Y-104787447D01*
X147811025Y-104777599D01*
X147802600Y-104401787D01*
X147802600Y-103799974D01*
X148113032Y-103954837D01*
X148549204Y-104062501D01*
X148773432Y-104044046D01*
X149123400Y-103978392D01*
X149427318Y-103978392D01*
X149423937Y-103976317D01*
X149376105Y-103862919D01*
X149333509Y-103673281D01*
X149299905Y-103622237D01*
X149280150Y-103504660D01*
X149262347Y-103210967D01*
X149247215Y-102768239D01*
X149235468Y-102203556D01*
X149227825Y-101543998D01*
X149225003Y-100816646D01*
X149225000Y-100793171D01*
X149225000Y-98039009D01*
X149512914Y-97993200D01*
X148920200Y-97993200D01*
X148920200Y-100829533D01*
X148918063Y-101710877D01*
X148911133Y-102406662D01*
X148898638Y-102934489D01*
X148879803Y-103311957D01*
X148853855Y-103556669D01*
X148820018Y-103686224D01*
X148793200Y-103717112D01*
X148458820Y-103767707D01*
X148202321Y-103679225D01*
X148144128Y-103638874D01*
X148098699Y-103572036D01*
X148064461Y-103455509D01*
X148039838Y-103266089D01*
X148023256Y-102980574D01*
X148013140Y-102575762D01*
X148007916Y-102028450D01*
X148006008Y-101315437D01*
X148005800Y-100783625D01*
X148005800Y-97993200D01*
X148920200Y-97993200D01*
X149512914Y-97993200D01*
X149965185Y-97921241D01*
X150441336Y-97826729D01*
X150936250Y-97699206D01*
X151285985Y-97586236D01*
X151866600Y-97369000D01*
X151865402Y-96728615D01*
X151561800Y-96728615D01*
X151549171Y-97001292D01*
X151476289Y-97155015D01*
X151290661Y-97262216D01*
X151130000Y-97324420D01*
X150749935Y-97451403D01*
X150360994Y-97560270D01*
X150291800Y-97576617D01*
X149959276Y-97623224D01*
X149477849Y-97655048D01*
X148901278Y-97672075D01*
X148283323Y-97674292D01*
X147677744Y-97661685D01*
X147138299Y-97634241D01*
X146718749Y-97591945D01*
X146630684Y-97577551D01*
X146223659Y-97480241D01*
X145832513Y-97351406D01*
X145646824Y-97270686D01*
X145390270Y-97109997D01*
X145279805Y-96938870D01*
X145262600Y-96782588D01*
X145262600Y-96490507D01*
X145897600Y-96691099D01*
X146510428Y-96834498D01*
X147235793Y-96924154D01*
X148025961Y-96961610D01*
X148833192Y-96948408D01*
X149609751Y-96886092D01*
X150307900Y-96776204D01*
X150879902Y-96620288D01*
X150911440Y-96606872D01*
X148627240Y-96606872D01*
X148599079Y-96632767D01*
X148412667Y-96642042D01*
X148051357Y-96635938D01*
X147701000Y-96623781D01*
X147176493Y-96592058D01*
X146674110Y-96541572D01*
X146259615Y-96479986D01*
X146045280Y-96430906D01*
X145729323Y-96319982D01*
X145481727Y-96206655D01*
X145410280Y-96160482D01*
X145309257Y-95986866D01*
X145264805Y-95739389D01*
X145284784Y-95512674D01*
X145348149Y-95412320D01*
X145456819Y-95452194D01*
X145663979Y-95606427D01*
X145927212Y-95842963D01*
X145959654Y-95874474D01*
X146246542Y-96144026D01*
X146447874Y-96291571D01*
X146615576Y-96344730D01*
X146801573Y-96331124D01*
X146813906Y-96328888D01*
X147182052Y-96314335D01*
X147677879Y-96370211D01*
X148241708Y-96488292D01*
X148513800Y-96563112D01*
X148627240Y-96606872D01*
X150911440Y-96606872D01*
X151053345Y-96546509D01*
X150095335Y-96546509D01*
X149995467Y-96562778D01*
X149863690Y-96544099D01*
X149862117Y-96509416D01*
X149998098Y-96485162D01*
X150056850Y-96501395D01*
X150095335Y-96546509D01*
X151053345Y-96546509D01*
X151109477Y-96522632D01*
X151561800Y-96293637D01*
X151561800Y-96728615D01*
X151865402Y-96728615D01*
X151865045Y-96538100D01*
X151853965Y-96133103D01*
X151827653Y-95818762D01*
X151514079Y-95818762D01*
X151447241Y-95926501D01*
X151253623Y-96082463D01*
X150953720Y-96251731D01*
X150632702Y-96392711D01*
X150375738Y-96463808D01*
X150342600Y-96465976D01*
X150341382Y-96429658D01*
X150492410Y-96334063D01*
X150711151Y-96224649D01*
X151009961Y-96072199D01*
X151228935Y-95935936D01*
X151301347Y-95870042D01*
X151338908Y-95841187D01*
X150534473Y-95841187D01*
X150471733Y-95976772D01*
X150317200Y-96053383D01*
X150143792Y-96086192D01*
X150141447Y-96083120D01*
X149428200Y-96083120D01*
X149369172Y-96219736D01*
X149164208Y-96265429D01*
X149123400Y-96266000D01*
X148904786Y-96237902D01*
X148825145Y-96121727D01*
X148818600Y-96023849D01*
X148893582Y-95801507D01*
X149013233Y-95730802D01*
X149253991Y-95752603D01*
X149403208Y-95930952D01*
X149428200Y-96083120D01*
X150141447Y-96083120D01*
X150060082Y-95976570D01*
X150034712Y-95872309D01*
X150041007Y-95630930D01*
X150136312Y-95539772D01*
X150322160Y-95555572D01*
X150418800Y-95635391D01*
X150534473Y-95841187D01*
X151338908Y-95841187D01*
X151438927Y-95764353D01*
X151478637Y-95758000D01*
X151514079Y-95818762D01*
X151827653Y-95818762D01*
X151825940Y-95798309D01*
X151786430Y-95592531D01*
X151774931Y-95567388D01*
X151764589Y-95377117D01*
X151872618Y-95041095D01*
X151954287Y-94856188D01*
X152091038Y-94531463D01*
X152172394Y-94228438D01*
X152211673Y-93873260D01*
X152222190Y-93392080D01*
X152222200Y-93370400D01*
X152218302Y-93117936D01*
X151946924Y-93117936D01*
X151908856Y-93906207D01*
X151716757Y-94661290D01*
X151641931Y-94843600D01*
X151480196Y-95168132D01*
X151322485Y-95426185D01*
X151231147Y-95534770D01*
X151117051Y-95595821D01*
X151031159Y-95522925D01*
X150940309Y-95306170D01*
X150843026Y-95073660D01*
X150765925Y-94950942D01*
X150753990Y-94945251D01*
X150634991Y-94978089D01*
X150389466Y-95062338D01*
X150190200Y-95135239D01*
X149798982Y-95251993D01*
X149329628Y-95351471D01*
X149021800Y-95395878D01*
X148489019Y-95488706D01*
X148119549Y-95631984D01*
X147928318Y-95818650D01*
X147904200Y-95924591D01*
X147849219Y-96037460D01*
X147675600Y-96025237D01*
X147444259Y-95975464D01*
X147329512Y-95962587D01*
X147254973Y-95881723D01*
X147262163Y-95769466D01*
X147267757Y-95572027D01*
X147176333Y-95518636D01*
X147036405Y-95611525D01*
X146940718Y-95754678D01*
X146768255Y-95998234D01*
X146615434Y-96071990D01*
X146517605Y-95979711D01*
X146510118Y-95725166D01*
X146512617Y-95709061D01*
X146521041Y-95426179D01*
X146447157Y-95290326D01*
X146312268Y-95322853D01*
X146221810Y-95417625D01*
X146124039Y-95520909D01*
X146029482Y-95515272D01*
X145886399Y-95381457D01*
X145771498Y-95250000D01*
X145568117Y-94974581D01*
X145425715Y-94711998D01*
X145401081Y-94640400D01*
X145321094Y-94380234D01*
X145233568Y-94284508D01*
X145095300Y-94317614D01*
X145042327Y-94344737D01*
X144820257Y-94406885D01*
X144715013Y-94339945D01*
X144758992Y-94196830D01*
X144884521Y-94086986D01*
X145045955Y-93956639D01*
X145090616Y-93807537D01*
X145042954Y-93554468D01*
X145040288Y-93544127D01*
X145009522Y-93335249D01*
X144979037Y-92968837D01*
X144949885Y-92480752D01*
X144923118Y-91906856D01*
X144899789Y-91283010D01*
X144880948Y-90645074D01*
X144867650Y-90028910D01*
X144860945Y-89470379D01*
X144861885Y-89005343D01*
X144871523Y-88669661D01*
X144890910Y-88499196D01*
X144892182Y-88495580D01*
X144956527Y-88394717D01*
X145074596Y-88403871D01*
X145242963Y-88483445D01*
X145505060Y-88651295D01*
X145796453Y-88882241D01*
X145865133Y-88944198D01*
X146099234Y-89156338D01*
X146222688Y-89236240D01*
X146270727Y-89193124D01*
X146278600Y-89052400D01*
X146334216Y-88879434D01*
X146452267Y-88870623D01*
X146546659Y-89001599D01*
X146652730Y-89143286D01*
X146751044Y-89103176D01*
X146786600Y-88935053D01*
X146799619Y-88785525D01*
X146873211Y-88799174D01*
X146975950Y-88887465D01*
X147083001Y-88970299D01*
X147152758Y-88954922D01*
X147209051Y-88808342D01*
X147275707Y-88497568D01*
X147282518Y-88463012D01*
X147367690Y-88108787D01*
X147464941Y-87817606D01*
X147529478Y-87689769D01*
X147611429Y-87605865D01*
X147713878Y-87600319D01*
X147880528Y-87688440D01*
X148155080Y-87885537D01*
X148213510Y-87929388D01*
X148531752Y-88189961D01*
X148697046Y-88385706D01*
X148735344Y-88548147D01*
X148733617Y-88561166D01*
X148742487Y-88717395D01*
X148876836Y-88728878D01*
X148911316Y-88720484D01*
X149120368Y-88719501D01*
X149190617Y-88821620D01*
X149091773Y-88973916D01*
X149067253Y-88992946D01*
X148937324Y-89147728D01*
X148973151Y-89256179D01*
X149137398Y-89278584D01*
X149290497Y-89230417D01*
X149449678Y-89176181D01*
X149586160Y-89202764D01*
X149754600Y-89336104D01*
X149958974Y-89547663D01*
X150192648Y-89822488D01*
X150282119Y-89999389D01*
X150252706Y-90097334D01*
X150137523Y-90325072D01*
X150180509Y-90561144D01*
X150345813Y-90753483D01*
X150597590Y-90850024D01*
X150765631Y-90842313D01*
X150975259Y-90825483D01*
X151043445Y-90909008D01*
X150983568Y-91123026D01*
X150937263Y-91229010D01*
X150889329Y-91508374D01*
X151016840Y-91705055D01*
X151300164Y-91793239D01*
X151368203Y-91795600D01*
X151536253Y-91813633D01*
X151647918Y-91898752D01*
X151740086Y-92097483D01*
X151825342Y-92372183D01*
X151946924Y-93117936D01*
X152218302Y-93117936D01*
X152215029Y-92906042D01*
X152181887Y-92564556D01*
X152105328Y-92265791D01*
X151967909Y-91929599D01*
X151857338Y-91694000D01*
X151639029Y-91293477D01*
X151343210Y-90825166D01*
X151005542Y-90338463D01*
X150661686Y-89882761D01*
X150347306Y-89507455D01*
X150106225Y-89268559D01*
X149957375Y-89104352D01*
X149992201Y-88990023D01*
X150219409Y-88907967D01*
X150291800Y-88893296D01*
X150565698Y-88814564D01*
X150646031Y-88713198D01*
X150593385Y-88625851D01*
X150470186Y-88610988D01*
X150219315Y-88634845D01*
X150070131Y-88659498D01*
X149688327Y-88697921D01*
X149469305Y-88637778D01*
X149463747Y-88633340D01*
X149341270Y-88480287D01*
X149391154Y-88346210D01*
X149625815Y-88209524D01*
X149733000Y-88165215D01*
X149981675Y-88050656D01*
X150125320Y-87951808D01*
X150139400Y-87925384D01*
X150068478Y-87803698D01*
X149853864Y-87819702D01*
X149510170Y-87964718D01*
X149057966Y-88193653D01*
X148573416Y-87809836D01*
X148105406Y-87490496D01*
X147728253Y-87344638D01*
X147446307Y-87373842D01*
G37*
X147446307Y-87373842D02*
X147418268Y-87389694D01*
X147294648Y-87537460D01*
X147156419Y-87800860D01*
X147102477Y-87933785D01*
X146936602Y-88267938D01*
X146736922Y-88435253D01*
X146683685Y-88453802D01*
X146155385Y-88528712D01*
X145724381Y-88429852D01*
X145588686Y-88349773D01*
X145217264Y-88127077D01*
X144945773Y-88068816D01*
X144757528Y-88184169D01*
X144635846Y-88482315D01*
X144569869Y-88910280D01*
X144529743Y-89278337D01*
X144483501Y-89491727D01*
X144405593Y-89598053D01*
X144270471Y-89644916D01*
X144166402Y-89662000D01*
X143925174Y-89736462D01*
X143874774Y-89829806D01*
X144011865Y-89900991D01*
X144187046Y-89916000D01*
X144441023Y-89957254D01*
X144510471Y-90055356D01*
X144389863Y-90171810D01*
X144232417Y-90232088D01*
X143966617Y-90342271D01*
X143851454Y-90454953D01*
X143892662Y-90535181D01*
X144095979Y-90548003D01*
X144182749Y-90534751D01*
X144551400Y-90465592D01*
X144552234Y-91206796D01*
X144565569Y-91677123D01*
X144600027Y-92238215D01*
X144648594Y-92779596D01*
X144656720Y-92852779D01*
X144703216Y-93287941D01*
X144718544Y-93571134D01*
X144697815Y-93751884D01*
X144636137Y-93879717D01*
X144544697Y-93987135D01*
X144387160Y-94254004D01*
X144394608Y-94423359D01*
X144535302Y-94615565D01*
X144755058Y-94718513D01*
X144957751Y-94691230D01*
X145071479Y-94701978D01*
X145147242Y-94845764D01*
X145169193Y-95053633D01*
X145121486Y-95256630D01*
X145097188Y-95298006D01*
X145012670Y-95542925D01*
X144966331Y-95970337D01*
X144957800Y-96332032D01*
X144962458Y-96749004D01*
X144985450Y-97015255D01*
X145040309Y-97183205D01*
X145140568Y-97305275D01*
X145227811Y-97378042D01*
X145586067Y-97578649D01*
X146100374Y-97754757D01*
X146723847Y-97892206D01*
X147116800Y-97948608D01*
X147701000Y-98016613D01*
X147701000Y-100742110D01*
X147697230Y-101613982D01*
X147686225Y-102338365D01*
X147668440Y-102902729D01*
X147644332Y-103294544D01*
X147614359Y-103501279D01*
X147599400Y-103530400D01*
X147514050Y-103673703D01*
X147497800Y-103790396D01*
X147443465Y-103952017D01*
X147371072Y-103987600D01*
X147239971Y-104056338D01*
X147021487Y-104235959D01*
X146780144Y-104470200D01*
X146491282Y-104754954D01*
X146213861Y-105002999D01*
X146043273Y-105135343D01*
X145822752Y-105366899D01*
X145774148Y-105611888D01*
X145874317Y-105826814D01*
X146100114Y-105968180D01*
X146428393Y-105992491D01*
X146493617Y-105981676D01*
X146772588Y-105899212D01*
X147107909Y-105765731D01*
X147199362Y-105723317D01*
X147545509Y-105587181D01*
X147760867Y-105594645D01*
X147871672Y-105760337D01*
X147904159Y-106098885D01*
X147904200Y-106116323D01*
X147943570Y-106505732D01*
X148067372Y-106737098D01*
X148082000Y-106750399D01*
X148312405Y-106920445D01*
X148495047Y-106951565D01*
X148717976Y-106855982D01*
X148742219Y-106842050D01*
X148910307Y-106719719D01*
X148993372Y-106561415D01*
X149020190Y-106296789D01*
X149021619Y-106159040D01*
X149050287Y-105757039D01*
X149109561Y-105621666D01*
X148715445Y-105621666D01*
X148709645Y-106092288D01*
X148683617Y-106392675D01*
X148627454Y-106555531D01*
X148531247Y-106613558D01*
X148417155Y-106606168D01*
X148335926Y-106548414D01*
X148282263Y-106388613D01*
X148248727Y-106091092D01*
X148230800Y-105712599D01*
X148226072Y-105231638D01*
X148253788Y-104909782D01*
X148318902Y-104704803D01*
X148355869Y-104646942D01*
X148498921Y-104525250D01*
X148604548Y-104588920D01*
X148674344Y-104842269D01*
X148709902Y-105289616D01*
X148715445Y-105621666D01*
X149109561Y-105621666D01*
X149144722Y-105541365D01*
X149318090Y-105502073D01*
X149583559Y-105629216D01*
X149656706Y-105679300D01*
X150027887Y-105872249D01*
X150439958Y-105987591D01*
X150478703Y-105992656D01*
X150773768Y-106010500D01*
X150939303Y-105964394D01*
X151044175Y-105834318D01*
X151048055Y-105827135D01*
X151108814Y-105615264D01*
X150850600Y-105615264D01*
X150769163Y-105704743D01*
X150559852Y-105709993D01*
X150275167Y-105640358D01*
X149967609Y-105505177D01*
X149854938Y-105438098D01*
X149594365Y-105249828D01*
X149468104Y-105082118D01*
X149429600Y-104862920D01*
X149428200Y-104777698D01*
X149454059Y-104498730D01*
X149534446Y-104412514D01*
X149673582Y-104518790D01*
X149836552Y-104752758D01*
X150077831Y-105036146D01*
X150390654Y-105278141D01*
X150454439Y-105313623D01*
X150695758Y-105457469D01*
X150836123Y-105581260D01*
X150850600Y-105615264D01*
X151108814Y-105615264D01*
X151110931Y-105607882D01*
X151030160Y-105404516D01*
X150786060Y-105180339D01*
X150649616Y-105084237D01*
X150349690Y-104831367D01*
X150084003Y-104528273D01*
X150059552Y-104493182D01*
X149856830Y-104255012D01*
X149647516Y-104101815D01*
X149599935Y-104084348D01*
X149427318Y-103978392D01*
X149123400Y-103978392D01*
X149123021Y-104414796D01*
X149122641Y-104851200D01*
X148921314Y-104521000D01*
X148691195Y-104272873D01*
X148442504Y-104213680D01*
X148206112Y-104335261D01*
X148012894Y-104629458D01*
X147960171Y-104775000D01*
X147887484Y-104963806D01*
X147838543Y-104966507D01*
X147812460Y-104787447D01*
X147497800Y-104787447D01*
X147489500Y-105080198D01*
X147433178Y-105251898D01*
X147281704Y-105371873D01*
X147015200Y-105497316D01*
X146589086Y-105649160D01*
X146284036Y-105675962D01*
X146117196Y-105576867D01*
X146102279Y-105542960D01*
X146155225Y-105419608D01*
X146337525Y-105280173D01*
X146362761Y-105266618D01*
X146607132Y-105091946D01*
X146878285Y-104829595D01*
X146987378Y-104701858D01*
X147188880Y-104468528D01*
X147349030Y-104320250D01*
X147404738Y-104292400D01*
X147458414Y-104383654D01*
X147492040Y-104616390D01*
X147497800Y-104787447D01*
X147812460Y-104787447D01*
X147811025Y-104777599D01*
X147802600Y-104401787D01*
X147802600Y-103799974D01*
X148113032Y-103954837D01*
X148549204Y-104062501D01*
X148773432Y-104044046D01*
X149123400Y-103978392D01*
X149427318Y-103978392D01*
X149423937Y-103976317D01*
X149376105Y-103862919D01*
X149333509Y-103673281D01*
X149299905Y-103622237D01*
X149280150Y-103504660D01*
X149262347Y-103210967D01*
X149247215Y-102768239D01*
X149235468Y-102203556D01*
X149227825Y-101543998D01*
X149225003Y-100816646D01*
X149225000Y-100793171D01*
X149225000Y-98039009D01*
X149512914Y-97993200D01*
X148920200Y-97993200D01*
X148920200Y-100829533D01*
X148918063Y-101710877D01*
X148911133Y-102406662D01*
X148898638Y-102934489D01*
X148879803Y-103311957D01*
X148853855Y-103556669D01*
X148820018Y-103686224D01*
X148793200Y-103717112D01*
X148458820Y-103767707D01*
X148202321Y-103679225D01*
X148144128Y-103638874D01*
X148098699Y-103572036D01*
X148064461Y-103455509D01*
X148039838Y-103266089D01*
X148023256Y-102980574D01*
X148013140Y-102575762D01*
X148007916Y-102028450D01*
X148006008Y-101315437D01*
X148005800Y-100783625D01*
X148005800Y-97993200D01*
X148920200Y-97993200D01*
X149512914Y-97993200D01*
X149965185Y-97921241D01*
X150441336Y-97826729D01*
X150936250Y-97699206D01*
X151285985Y-97586236D01*
X151866600Y-97369000D01*
X151865402Y-96728615D01*
X151561800Y-96728615D01*
X151549171Y-97001292D01*
X151476289Y-97155015D01*
X151290661Y-97262216D01*
X151130000Y-97324420D01*
X150749935Y-97451403D01*
X150360994Y-97560270D01*
X150291800Y-97576617D01*
X149959276Y-97623224D01*
X149477849Y-97655048D01*
X148901278Y-97672075D01*
X148283323Y-97674292D01*
X147677744Y-97661685D01*
X147138299Y-97634241D01*
X146718749Y-97591945D01*
X146630684Y-97577551D01*
X146223659Y-97480241D01*
X145832513Y-97351406D01*
X145646824Y-97270686D01*
X145390270Y-97109997D01*
X145279805Y-96938870D01*
X145262600Y-96782588D01*
X145262600Y-96490507D01*
X145897600Y-96691099D01*
X146510428Y-96834498D01*
X147235793Y-96924154D01*
X148025961Y-96961610D01*
X148833192Y-96948408D01*
X149609751Y-96886092D01*
X150307900Y-96776204D01*
X150879902Y-96620288D01*
X150911440Y-96606872D01*
X148627240Y-96606872D01*
X148599079Y-96632767D01*
X148412667Y-96642042D01*
X148051357Y-96635938D01*
X147701000Y-96623781D01*
X147176493Y-96592058D01*
X146674110Y-96541572D01*
X146259615Y-96479986D01*
X146045280Y-96430906D01*
X145729323Y-96319982D01*
X145481727Y-96206655D01*
X145410280Y-96160482D01*
X145309257Y-95986866D01*
X145264805Y-95739389D01*
X145284784Y-95512674D01*
X145348149Y-95412320D01*
X145456819Y-95452194D01*
X145663979Y-95606427D01*
X145927212Y-95842963D01*
X145959654Y-95874474D01*
X146246542Y-96144026D01*
X146447874Y-96291571D01*
X146615576Y-96344730D01*
X146801573Y-96331124D01*
X146813906Y-96328888D01*
X147182052Y-96314335D01*
X147677879Y-96370211D01*
X148241708Y-96488292D01*
X148513800Y-96563112D01*
X148627240Y-96606872D01*
X150911440Y-96606872D01*
X151053345Y-96546509D01*
X150095335Y-96546509D01*
X149995467Y-96562778D01*
X149863690Y-96544099D01*
X149862117Y-96509416D01*
X149998098Y-96485162D01*
X150056850Y-96501395D01*
X150095335Y-96546509D01*
X151053345Y-96546509D01*
X151109477Y-96522632D01*
X151561800Y-96293637D01*
X151561800Y-96728615D01*
X151865402Y-96728615D01*
X151865045Y-96538100D01*
X151853965Y-96133103D01*
X151827653Y-95818762D01*
X151514079Y-95818762D01*
X151447241Y-95926501D01*
X151253623Y-96082463D01*
X150953720Y-96251731D01*
X150632702Y-96392711D01*
X150375738Y-96463808D01*
X150342600Y-96465976D01*
X150341382Y-96429658D01*
X150492410Y-96334063D01*
X150711151Y-96224649D01*
X151009961Y-96072199D01*
X151228935Y-95935936D01*
X151301347Y-95870042D01*
X151338908Y-95841187D01*
X150534473Y-95841187D01*
X150471733Y-95976772D01*
X150317200Y-96053383D01*
X150143792Y-96086192D01*
X150141447Y-96083120D01*
X149428200Y-96083120D01*
X149369172Y-96219736D01*
X149164208Y-96265429D01*
X149123400Y-96266000D01*
X148904786Y-96237902D01*
X148825145Y-96121727D01*
X148818600Y-96023849D01*
X148893582Y-95801507D01*
X149013233Y-95730802D01*
X149253991Y-95752603D01*
X149403208Y-95930952D01*
X149428200Y-96083120D01*
X150141447Y-96083120D01*
X150060082Y-95976570D01*
X150034712Y-95872309D01*
X150041007Y-95630930D01*
X150136312Y-95539772D01*
X150322160Y-95555572D01*
X150418800Y-95635391D01*
X150534473Y-95841187D01*
X151338908Y-95841187D01*
X151438927Y-95764353D01*
X151478637Y-95758000D01*
X151514079Y-95818762D01*
X151827653Y-95818762D01*
X151825940Y-95798309D01*
X151786430Y-95592531D01*
X151774931Y-95567388D01*
X151764589Y-95377117D01*
X151872618Y-95041095D01*
X151954287Y-94856188D01*
X152091038Y-94531463D01*
X152172394Y-94228438D01*
X152211673Y-93873260D01*
X152222190Y-93392080D01*
X152222200Y-93370400D01*
X152218302Y-93117936D01*
X151946924Y-93117936D01*
X151908856Y-93906207D01*
X151716757Y-94661290D01*
X151641931Y-94843600D01*
X151480196Y-95168132D01*
X151322485Y-95426185D01*
X151231147Y-95534770D01*
X151117051Y-95595821D01*
X151031159Y-95522925D01*
X150940309Y-95306170D01*
X150843026Y-95073660D01*
X150765925Y-94950942D01*
X150753990Y-94945251D01*
X150634991Y-94978089D01*
X150389466Y-95062338D01*
X150190200Y-95135239D01*
X149798982Y-95251993D01*
X149329628Y-95351471D01*
X149021800Y-95395878D01*
X148489019Y-95488706D01*
X148119549Y-95631984D01*
X147928318Y-95818650D01*
X147904200Y-95924591D01*
X147849219Y-96037460D01*
X147675600Y-96025237D01*
X147444259Y-95975464D01*
X147329512Y-95962587D01*
X147254973Y-95881723D01*
X147262163Y-95769466D01*
X147267757Y-95572027D01*
X147176333Y-95518636D01*
X147036405Y-95611525D01*
X146940718Y-95754678D01*
X146768255Y-95998234D01*
X146615434Y-96071990D01*
X146517605Y-95979711D01*
X146510118Y-95725166D01*
X146512617Y-95709061D01*
X146521041Y-95426179D01*
X146447157Y-95290326D01*
X146312268Y-95322853D01*
X146221810Y-95417625D01*
X146124039Y-95520909D01*
X146029482Y-95515272D01*
X145886399Y-95381457D01*
X145771498Y-95250000D01*
X145568117Y-94974581D01*
X145425715Y-94711998D01*
X145401081Y-94640400D01*
X145321094Y-94380234D01*
X145233568Y-94284508D01*
X145095300Y-94317614D01*
X145042327Y-94344737D01*
X144820257Y-94406885D01*
X144715013Y-94339945D01*
X144758992Y-94196830D01*
X144884521Y-94086986D01*
X145045955Y-93956639D01*
X145090616Y-93807537D01*
X145042954Y-93554468D01*
X145040288Y-93544127D01*
X145009522Y-93335249D01*
X144979037Y-92968837D01*
X144949885Y-92480752D01*
X144923118Y-91906856D01*
X144899789Y-91283010D01*
X144880948Y-90645074D01*
X144867650Y-90028910D01*
X144860945Y-89470379D01*
X144861885Y-89005343D01*
X144871523Y-88669661D01*
X144890910Y-88499196D01*
X144892182Y-88495580D01*
X144956527Y-88394717D01*
X145074596Y-88403871D01*
X145242963Y-88483445D01*
X145505060Y-88651295D01*
X145796453Y-88882241D01*
X145865133Y-88944198D01*
X146099234Y-89156338D01*
X146222688Y-89236240D01*
X146270727Y-89193124D01*
X146278600Y-89052400D01*
X146334216Y-88879434D01*
X146452267Y-88870623D01*
X146546659Y-89001599D01*
X146652730Y-89143286D01*
X146751044Y-89103176D01*
X146786600Y-88935053D01*
X146799619Y-88785525D01*
X146873211Y-88799174D01*
X146975950Y-88887465D01*
X147083001Y-88970299D01*
X147152758Y-88954922D01*
X147209051Y-88808342D01*
X147275707Y-88497568D01*
X147282518Y-88463012D01*
X147367690Y-88108787D01*
X147464941Y-87817606D01*
X147529478Y-87689769D01*
X147611429Y-87605865D01*
X147713878Y-87600319D01*
X147880528Y-87688440D01*
X148155080Y-87885537D01*
X148213510Y-87929388D01*
X148531752Y-88189961D01*
X148697046Y-88385706D01*
X148735344Y-88548147D01*
X148733617Y-88561166D01*
X148742487Y-88717395D01*
X148876836Y-88728878D01*
X148911316Y-88720484D01*
X149120368Y-88719501D01*
X149190617Y-88821620D01*
X149091773Y-88973916D01*
X149067253Y-88992946D01*
X148937324Y-89147728D01*
X148973151Y-89256179D01*
X149137398Y-89278584D01*
X149290497Y-89230417D01*
X149449678Y-89176181D01*
X149586160Y-89202764D01*
X149754600Y-89336104D01*
X149958974Y-89547663D01*
X150192648Y-89822488D01*
X150282119Y-89999389D01*
X150252706Y-90097334D01*
X150137523Y-90325072D01*
X150180509Y-90561144D01*
X150345813Y-90753483D01*
X150597590Y-90850024D01*
X150765631Y-90842313D01*
X150975259Y-90825483D01*
X151043445Y-90909008D01*
X150983568Y-91123026D01*
X150937263Y-91229010D01*
X150889329Y-91508374D01*
X151016840Y-91705055D01*
X151300164Y-91793239D01*
X151368203Y-91795600D01*
X151536253Y-91813633D01*
X151647918Y-91898752D01*
X151740086Y-92097483D01*
X151825342Y-92372183D01*
X151946924Y-93117936D01*
X152218302Y-93117936D01*
X152215029Y-92906042D01*
X152181887Y-92564556D01*
X152105328Y-92265791D01*
X151967909Y-91929599D01*
X151857338Y-91694000D01*
X151639029Y-91293477D01*
X151343210Y-90825166D01*
X151005542Y-90338463D01*
X150661686Y-89882761D01*
X150347306Y-89507455D01*
X150106225Y-89268559D01*
X149957375Y-89104352D01*
X149992201Y-88990023D01*
X150219409Y-88907967D01*
X150291800Y-88893296D01*
X150565698Y-88814564D01*
X150646031Y-88713198D01*
X150593385Y-88625851D01*
X150470186Y-88610988D01*
X150219315Y-88634845D01*
X150070131Y-88659498D01*
X149688327Y-88697921D01*
X149469305Y-88637778D01*
X149463747Y-88633340D01*
X149341270Y-88480287D01*
X149391154Y-88346210D01*
X149625815Y-88209524D01*
X149733000Y-88165215D01*
X149981675Y-88050656D01*
X150125320Y-87951808D01*
X150139400Y-87925384D01*
X150068478Y-87803698D01*
X149853864Y-87819702D01*
X149510170Y-87964718D01*
X149057966Y-88193653D01*
X148573416Y-87809836D01*
X148105406Y-87490496D01*
X147728253Y-87344638D01*
X147446307Y-87373842D01*
G36*
X145534457Y-89894568D02*
G01*
X145479427Y-90085964D01*
X145552629Y-90260129D01*
X145582804Y-90283269D01*
X145787245Y-90365756D01*
X145910157Y-90279626D01*
X145937059Y-90220800D01*
X145957020Y-89988776D01*
X145857909Y-89820740D01*
X145695874Y-89782657D01*
X145534457Y-89894568D01*
G37*
X145534457Y-89894568D02*
X145479427Y-90085964D01*
X145552629Y-90260129D01*
X145582804Y-90283269D01*
X145787245Y-90365756D01*
X145910157Y-90279626D01*
X145937059Y-90220800D01*
X145957020Y-89988776D01*
X145857909Y-89820740D01*
X145695874Y-89782657D01*
X145534457Y-89894568D01*
G36*
X146704053Y-89722380D02*
G01*
X146685000Y-89811211D01*
X146617683Y-89913710D01*
X146532600Y-89901941D01*
X146401690Y-89917982D01*
X146380200Y-89995859D01*
X146449567Y-90146963D01*
X146596487Y-90222426D01*
X146729190Y-90178789D01*
X146738543Y-90165562D01*
X146876581Y-90089722D01*
X147040600Y-90068400D01*
X147278877Y-90014906D01*
X147375824Y-89879213D01*
X147342351Y-89758666D01*
X147230315Y-89709953D01*
X147142200Y-89763600D01*
X146997578Y-89818639D01*
X146942050Y-89768533D01*
X146811400Y-89666563D01*
X146704053Y-89722380D01*
G37*
X146704053Y-89722380D02*
X146685000Y-89811211D01*
X146617683Y-89913710D01*
X146532600Y-89901941D01*
X146401690Y-89917982D01*
X146380200Y-89995859D01*
X146449567Y-90146963D01*
X146596487Y-90222426D01*
X146729190Y-90178789D01*
X146738543Y-90165562D01*
X146876581Y-90089722D01*
X147040600Y-90068400D01*
X147278877Y-90014906D01*
X147375824Y-89879213D01*
X147342351Y-89758666D01*
X147230315Y-89709953D01*
X147142200Y-89763600D01*
X146997578Y-89818639D01*
X146942050Y-89768533D01*
X146811400Y-89666563D01*
X146704053Y-89722380D01*
G36*
X147808389Y-89108283D02*
G01*
X147748067Y-89164990D01*
X147654705Y-89354109D01*
X147680988Y-89546512D01*
X147809146Y-89657089D01*
X147851830Y-89662000D01*
X148018862Y-89590728D01*
X148111632Y-89504500D01*
X148186048Y-89354883D01*
X148100732Y-89206177D01*
X148073273Y-89177929D01*
X147928111Y-89065460D01*
X147808389Y-89108283D01*
G37*
X147808389Y-89108283D02*
X147748067Y-89164990D01*
X147654705Y-89354109D01*
X147680988Y-89546512D01*
X147809146Y-89657089D01*
X147851830Y-89662000D01*
X148018862Y-89590728D01*
X148111632Y-89504500D01*
X148186048Y-89354883D01*
X148100732Y-89206177D01*
X148073273Y-89177929D01*
X147928111Y-89065460D01*
X147808389Y-89108283D01*
%TD*%
M02*
