M48
INCH,TZ
T1C0.0118
T2C0.0157
T3C0.0197
T4C0.0295
T5C0.0315
T6C0.0394
T7C0.1260
%
G90
G05
T1
X41725Y-37000
X42150Y-34800
X43625Y-36275
X44025Y-34125
X44675Y-38125
X45100Y-38125
X45400Y-37175
X45400Y-37600
X45825Y-37175
X45825Y-37600
X46000Y-33800
X46875Y-38875
X46875Y-39625
X47050Y-32675
X47375Y-38875
X47375Y-39625
X47400Y-33000
X47875Y-38875
X47875Y-39625
X48375Y-38875
X48375Y-39625
X49400Y-34900
X49500Y-42800
X50100Y-40100
X54600Y-39775
X55000Y-39775
X55350Y-43025
X55350Y-43425
X55400Y-39775
X55774Y-43226
X55800Y-39775
X60015Y-39780
X60415Y-39780
X60750Y-43050
X60750Y-43450
X60815Y-39780
X61174Y-43251
X61215Y-39780
T2
X42450Y-39250
X42450Y-39800
X42950Y-39250
X42950Y-39800
X43000Y-44900
X43000Y-45750
X43000Y-46500
X43000Y-47250
X43000Y-48000
X43000Y-48750
X43450Y-39250
X43450Y-39800
X43750Y-44900
X43750Y-45750
X43750Y-46500
X43750Y-47250
X43750Y-48000
X43750Y-48750
X43950Y-39250
X43950Y-39800
X44500Y-44900
X45250Y-44900
X46000Y-44900
X46750Y-44900
X47500Y-44900
X51400Y-51800
X53200Y-50900
X54150Y-48025
X55850Y-45400
X57125Y-51150
X61200Y-45400
X62900Y-33000
X63100Y-36550
X63500Y-46500
X63800Y-38650
X64400Y-36850
X64650Y-47750
X65000Y-46500
X65700Y-45450
X66600Y-47650
X66900Y-42100
T3
X67055Y-31000
X67332Y-30332
X67332Y-31668
X68000Y-30055
X68000Y-31945
X68668Y-30332
X68668Y-31668
X68945Y-31000
X67055Y-51000
X67332Y-50332
X67332Y-51668
X68000Y-50055
X68000Y-51945
X68668Y-50332
X68668Y-51668
X68945Y-51000
X41055Y-31000
X41332Y-30332
X41332Y-31668
X42000Y-30055
X42000Y-31945
X42668Y-30332
X42668Y-31668
X42945Y-31000
X41055Y-51000
X41332Y-50332
X41332Y-51668
X42000Y-50055
X42000Y-51945
X42668Y-50332
X42668Y-51668
X42945Y-51000
T4
X67700Y-42550
X67700Y-43050
X67700Y-43550
X49000Y-31100
X49000Y-31600
X49000Y-32100
T5
X49500Y-47722
X49500Y-49100
T6
X63166Y-31600
X64150Y-31600
X52566Y-31600
X53550Y-31600
X60250Y-49500
X60250Y-50500
X61250Y-49500
X61250Y-50500
X62250Y-49500
X62250Y-50500
X63250Y-49500
X63250Y-50500
X64250Y-49500
X64250Y-50500
X44800Y-50200
X45784Y-50200
X57866Y-31600
X58850Y-31600
X50500Y-34531
X50500Y-36500
T7
X68000Y-51000
X42000Y-31000
X42000Y-51000
X68000Y-31000
T0
M30
