%TF.GenerationSoftware,KiCad,Pcbnew,(5.1.6)-1*%
%TF.CreationDate,2020-11-03T02:47:29-08:00*%
%TF.ProjectId,Power Board V2,506f7765-7220-4426-9f61-72642056322e,rev?*%
%TF.SameCoordinates,Original*%
%TF.FileFunction,Soldermask,Bot*%
%TF.FilePolarity,Negative*%
%FSLAX46Y46*%
G04 Gerber Fmt 4.6, Leading zero omitted, Abs format (unit mm)*
G04 Created by KiCad (PCBNEW (5.1.6)-1) date 2020-11-03 02:47:29*
%MOMM*%
%LPD*%
G01*
G04 APERTURE LIST*
%ADD10R,1.500000X1.050000*%
%ADD11O,1.500000X1.050000*%
%ADD12R,2.000000X2.000000*%
%ADD13C,2.000000*%
%ADD14O,1.700000X2.000000*%
%ADD15C,0.800000*%
%ADD16C,6.400000*%
%ADD17R,1.600000X1.600000*%
%ADD18C,1.600000*%
%ADD19C,1.700000*%
G04 APERTURE END LIST*
D10*
%TO.C,Q1*%
X124460000Y-78994000D03*
D11*
X124460000Y-81534000D03*
X124460000Y-80264000D03*
%TD*%
D12*
%TO.C,C23*%
X128270000Y-92710000D03*
D13*
X128270000Y-87710000D03*
%TD*%
D11*
%TO.C,Q3*%
X171958000Y-109347000D03*
X171958000Y-108077000D03*
D10*
X171958000Y-110617000D03*
%TD*%
%TO.C,J1*%
G36*
G01*
X112942000Y-128258000D02*
X112942000Y-126758000D01*
G75*
G02*
X113192000Y-126508000I250000J0D01*
G01*
X114392000Y-126508000D01*
G75*
G02*
X114642000Y-126758000I0J-250000D01*
G01*
X114642000Y-128258000D01*
G75*
G02*
X114392000Y-128508000I-250000J0D01*
G01*
X113192000Y-128508000D01*
G75*
G02*
X112942000Y-128258000I0J250000D01*
G01*
G37*
D14*
X116292000Y-127508000D03*
%TD*%
%TO.C,J3*%
G36*
G01*
X136867000Y-79514000D02*
X136867000Y-81014000D01*
G75*
G02*
X136617000Y-81264000I-250000J0D01*
G01*
X135417000Y-81264000D01*
G75*
G02*
X135167000Y-81014000I0J250000D01*
G01*
X135167000Y-79514000D01*
G75*
G02*
X135417000Y-79264000I250000J0D01*
G01*
X136617000Y-79264000D01*
G75*
G02*
X136867000Y-79514000I0J-250000D01*
G01*
G37*
X133517000Y-80264000D03*
%TD*%
%TO.C,J4*%
X146979000Y-80264000D03*
G36*
G01*
X150329000Y-79514000D02*
X150329000Y-81014000D01*
G75*
G02*
X150079000Y-81264000I-250000J0D01*
G01*
X148879000Y-81264000D01*
G75*
G02*
X148629000Y-81014000I0J250000D01*
G01*
X148629000Y-79514000D01*
G75*
G02*
X148879000Y-79264000I250000J0D01*
G01*
X150079000Y-79264000D01*
G75*
G02*
X150329000Y-79514000I0J-250000D01*
G01*
G37*
%TD*%
%TO.C,J2*%
G36*
G01*
X163791000Y-79514000D02*
X163791000Y-81014000D01*
G75*
G02*
X163541000Y-81264000I-250000J0D01*
G01*
X162341000Y-81264000D01*
G75*
G02*
X162091000Y-81014000I0J250000D01*
G01*
X162091000Y-79514000D01*
G75*
G02*
X162341000Y-79264000I250000J0D01*
G01*
X163541000Y-79264000D01*
G75*
G02*
X163791000Y-79514000I0J-250000D01*
G01*
G37*
X160441000Y-80264000D03*
%TD*%
D15*
%TO.C,H1*%
X108377056Y-77042944D03*
X106680000Y-76340000D03*
X104982944Y-77042944D03*
X104280000Y-78740000D03*
X104982944Y-80437056D03*
X106680000Y-81140000D03*
X108377056Y-80437056D03*
X109080000Y-78740000D03*
D16*
X106680000Y-78740000D03*
%TD*%
%TO.C,H2*%
X172720000Y-129540000D03*
D15*
X175120000Y-129540000D03*
X174417056Y-131237056D03*
X172720000Y-131940000D03*
X171022944Y-131237056D03*
X170320000Y-129540000D03*
X171022944Y-127842944D03*
X172720000Y-127140000D03*
X174417056Y-127842944D03*
%TD*%
%TO.C,H3*%
X174417056Y-77042944D03*
X172720000Y-76340000D03*
X171022944Y-77042944D03*
X170320000Y-78740000D03*
X171022944Y-80437056D03*
X172720000Y-81140000D03*
X174417056Y-80437056D03*
X175120000Y-78740000D03*
D16*
X172720000Y-78740000D03*
%TD*%
%TO.C,H4*%
X106680000Y-129540000D03*
D15*
X109080000Y-129540000D03*
X108377056Y-131237056D03*
X106680000Y-131940000D03*
X104982944Y-131237056D03*
X104280000Y-129540000D03*
X104982944Y-127842944D03*
X106680000Y-127140000D03*
X108377056Y-127842944D03*
%TD*%
D17*
%TO.C,C1*%
X125730000Y-124714000D03*
D18*
X125730000Y-121214000D03*
%TD*%
%TO.C,J5*%
G36*
G01*
X153635000Y-129120000D02*
X152435000Y-129120000D01*
G75*
G02*
X152185000Y-128870000I0J250000D01*
G01*
X152185000Y-127670000D01*
G75*
G02*
X152435000Y-127420000I250000J0D01*
G01*
X153635000Y-127420000D01*
G75*
G02*
X153885000Y-127670000I0J-250000D01*
G01*
X153885000Y-128870000D01*
G75*
G02*
X153635000Y-129120000I-250000J0D01*
G01*
G37*
D19*
X155575000Y-128270000D03*
X158115000Y-128270000D03*
X160655000Y-128270000D03*
X163195000Y-128270000D03*
X153035000Y-125730000D03*
X155575000Y-125730000D03*
X158115000Y-125730000D03*
X160655000Y-125730000D03*
X163195000Y-125730000D03*
%TD*%
M02*
