G04 #@! TF.GenerationSoftware,KiCad,Pcbnew,(5.1.6)-1*
G04 #@! TF.CreationDate,2020-11-18T04:23:11-08:00*
G04 #@! TF.ProjectId,Power Board V2,506f7765-7220-4426-9f61-72642056322e,rev?*
G04 #@! TF.SameCoordinates,Original*
G04 #@! TF.FileFunction,Soldermask,Top*
G04 #@! TF.FilePolarity,Negative*
%FSLAX46Y46*%
G04 Gerber Fmt 4.6, Leading zero omitted, Abs format (unit mm)*
G04 Created by KiCad (PCBNEW (5.1.6)-1) date 2020-11-18 04:23:11*
%MOMM*%
%LPD*%
G01*
G04 APERTURE LIST*
%ADD10R,1.000000X1.000000*%
%ADD11R,5.800001X6.400000*%
%ADD12R,1.200000X2.200000*%
%ADD13C,1.500000*%
%ADD14C,1.700000*%
%ADD15R,6.400000X5.800000*%
%ADD16R,2.200000X1.200000*%
%ADD17R,1.500000X1.050000*%
%ADD18O,1.500000X1.050000*%
%ADD19R,3.000000X3.000000*%
%ADD20R,3.300000X3.300000*%
%ADD21R,2.000000X2.000000*%
%ADD22C,2.000000*%
%ADD23R,0.800000X0.900000*%
%ADD24R,1.560000X0.650000*%
%ADD25R,0.650000X1.560000*%
%ADD26R,2.700000X1.800000*%
%ADD27O,1.700000X2.000000*%
%ADD28C,0.800000*%
%ADD29C,6.400000*%
%ADD30R,1.600000X1.600000*%
%ADD31C,1.600000*%
%ADD32R,3.500000X3.000000*%
G04 APERTURE END LIST*
D10*
X162275200Y-120332500D03*
X164775200Y-120332500D03*
D11*
X121666000Y-97409000D03*
D12*
X123946000Y-103709000D03*
X119386000Y-103709000D03*
D13*
X143002000Y-122809000D03*
G36*
G01*
X169768000Y-115109000D02*
X169768000Y-114634000D01*
G75*
G02*
X170005500Y-114396500I237500J0D01*
G01*
X170580500Y-114396500D01*
G75*
G02*
X170818000Y-114634000I0J-237500D01*
G01*
X170818000Y-115109000D01*
G75*
G02*
X170580500Y-115346500I-237500J0D01*
G01*
X170005500Y-115346500D01*
G75*
G02*
X169768000Y-115109000I0J237500D01*
G01*
G37*
G36*
G01*
X168018000Y-115109000D02*
X168018000Y-114634000D01*
G75*
G02*
X168255500Y-114396500I237500J0D01*
G01*
X168830500Y-114396500D01*
G75*
G02*
X169068000Y-114634000I0J-237500D01*
G01*
X169068000Y-115109000D01*
G75*
G02*
X168830500Y-115346500I-237500J0D01*
G01*
X168255500Y-115346500D01*
G75*
G02*
X168018000Y-115109000I0J237500D01*
G01*
G37*
D10*
X137267000Y-129286000D03*
X134767000Y-129286000D03*
G36*
G01*
X152746000Y-129120000D02*
X151546000Y-129120000D01*
G75*
G02*
X151296000Y-128870000I0J250000D01*
G01*
X151296000Y-127670000D01*
G75*
G02*
X151546000Y-127420000I250000J0D01*
G01*
X152746000Y-127420000D01*
G75*
G02*
X152996000Y-127670000I0J-250000D01*
G01*
X152996000Y-128870000D01*
G75*
G02*
X152746000Y-129120000I-250000J0D01*
G01*
G37*
D14*
X154686000Y-128270000D03*
X157226000Y-128270000D03*
X159766000Y-128270000D03*
X162306000Y-128270000D03*
X152146000Y-125730000D03*
X154686000Y-125730000D03*
X157226000Y-125730000D03*
X159766000Y-125730000D03*
X162306000Y-125730000D03*
G36*
G01*
X136748000Y-131428500D02*
X136748000Y-130953500D01*
G75*
G02*
X136985500Y-130716000I237500J0D01*
G01*
X137560500Y-130716000D01*
G75*
G02*
X137798000Y-130953500I0J-237500D01*
G01*
X137798000Y-131428500D01*
G75*
G02*
X137560500Y-131666000I-237500J0D01*
G01*
X136985500Y-131666000D01*
G75*
G02*
X136748000Y-131428500I0J237500D01*
G01*
G37*
G36*
G01*
X134998000Y-131428500D02*
X134998000Y-130953500D01*
G75*
G02*
X135235500Y-130716000I237500J0D01*
G01*
X135810500Y-130716000D01*
G75*
G02*
X136048000Y-130953500I0J-237500D01*
G01*
X136048000Y-131428500D01*
G75*
G02*
X135810500Y-131666000I-237500J0D01*
G01*
X135235500Y-131666000D01*
G75*
G02*
X134998000Y-131428500I0J237500D01*
G01*
G37*
D15*
X125535000Y-128905000D03*
D16*
X131835000Y-126625000D03*
X131835000Y-131185000D03*
G36*
G01*
X119095000Y-91804500D02*
X119095000Y-91329500D01*
G75*
G02*
X119332500Y-91092000I237500J0D01*
G01*
X119907500Y-91092000D01*
G75*
G02*
X120145000Y-91329500I0J-237500D01*
G01*
X120145000Y-91804500D01*
G75*
G02*
X119907500Y-92042000I-237500J0D01*
G01*
X119332500Y-92042000D01*
G75*
G02*
X119095000Y-91804500I0J237500D01*
G01*
G37*
G36*
G01*
X117345000Y-91804500D02*
X117345000Y-91329500D01*
G75*
G02*
X117582500Y-91092000I237500J0D01*
G01*
X118157500Y-91092000D01*
G75*
G02*
X118395000Y-91329500I0J-237500D01*
G01*
X118395000Y-91804500D01*
G75*
G02*
X118157500Y-92042000I-237500J0D01*
G01*
X117582500Y-92042000D01*
G75*
G02*
X117345000Y-91804500I0J237500D01*
G01*
G37*
D10*
X126873000Y-79141000D03*
X126873000Y-81641000D03*
G36*
G01*
X169068000Y-116285000D02*
X169068000Y-116760000D01*
G75*
G02*
X168830500Y-116997500I-237500J0D01*
G01*
X168255500Y-116997500D01*
G75*
G02*
X168018000Y-116760000I0J237500D01*
G01*
X168018000Y-116285000D01*
G75*
G02*
X168255500Y-116047500I237500J0D01*
G01*
X168830500Y-116047500D01*
G75*
G02*
X169068000Y-116285000I0J-237500D01*
G01*
G37*
G36*
G01*
X170818000Y-116285000D02*
X170818000Y-116760000D01*
G75*
G02*
X170580500Y-116997500I-237500J0D01*
G01*
X170005500Y-116997500D01*
G75*
G02*
X169768000Y-116760000I0J237500D01*
G01*
X169768000Y-116285000D01*
G75*
G02*
X170005500Y-116047500I237500J0D01*
G01*
X170580500Y-116047500D01*
G75*
G02*
X170818000Y-116285000I0J-237500D01*
G01*
G37*
D17*
X122936000Y-78359000D03*
D18*
X122936000Y-80899000D03*
X122936000Y-79629000D03*
D19*
X139509500Y-87360000D03*
X139509500Y-98060000D03*
X153225500Y-87360000D03*
X153225500Y-98060000D03*
X168529000Y-96028000D03*
X168529000Y-85328000D03*
G36*
G01*
X120456011Y-84871913D02*
X120791887Y-85207789D01*
G75*
G02*
X120791887Y-85543665I-167938J-167938D01*
G01*
X120385301Y-85950251D01*
G75*
G02*
X120049425Y-85950251I-167938J167938D01*
G01*
X119713549Y-85614375D01*
G75*
G02*
X119713549Y-85278499I167938J167938D01*
G01*
X120120135Y-84871913D01*
G75*
G02*
X120456011Y-84871913I167938J-167938D01*
G01*
G37*
G36*
G01*
X119218575Y-86109349D02*
X119554451Y-86445225D01*
G75*
G02*
X119554451Y-86781101I-167938J-167938D01*
G01*
X119147865Y-87187687D01*
G75*
G02*
X118811989Y-87187687I-167938J167938D01*
G01*
X118476113Y-86851811D01*
G75*
G02*
X118476113Y-86515935I167938J167938D01*
G01*
X118882699Y-86109349D01*
G75*
G02*
X119218575Y-86109349I167938J-167938D01*
G01*
G37*
G36*
G01*
X120125500Y-78136000D02*
X119650500Y-78136000D01*
G75*
G02*
X119413000Y-77898500I0J237500D01*
G01*
X119413000Y-77323500D01*
G75*
G02*
X119650500Y-77086000I237500J0D01*
G01*
X120125500Y-77086000D01*
G75*
G02*
X120363000Y-77323500I0J-237500D01*
G01*
X120363000Y-77898500D01*
G75*
G02*
X120125500Y-78136000I-237500J0D01*
G01*
G37*
G36*
G01*
X120125500Y-79886000D02*
X119650500Y-79886000D01*
G75*
G02*
X119413000Y-79648500I0J237500D01*
G01*
X119413000Y-79073500D01*
G75*
G02*
X119650500Y-78836000I237500J0D01*
G01*
X120125500Y-78836000D01*
G75*
G02*
X120363000Y-79073500I0J-237500D01*
G01*
X120363000Y-79648500D01*
G75*
G02*
X120125500Y-79886000I-237500J0D01*
G01*
G37*
G36*
G01*
X110586000Y-85200500D02*
X110586000Y-84725500D01*
G75*
G02*
X110823500Y-84488000I237500J0D01*
G01*
X111398500Y-84488000D01*
G75*
G02*
X111636000Y-84725500I0J-237500D01*
G01*
X111636000Y-85200500D01*
G75*
G02*
X111398500Y-85438000I-237500J0D01*
G01*
X110823500Y-85438000D01*
G75*
G02*
X110586000Y-85200500I0J237500D01*
G01*
G37*
G36*
G01*
X108836000Y-85200500D02*
X108836000Y-84725500D01*
G75*
G02*
X109073500Y-84488000I237500J0D01*
G01*
X109648500Y-84488000D01*
G75*
G02*
X109886000Y-84725500I0J-237500D01*
G01*
X109886000Y-85200500D01*
G75*
G02*
X109648500Y-85438000I-237500J0D01*
G01*
X109073500Y-85438000D01*
G75*
G02*
X108836000Y-85200500I0J237500D01*
G01*
G37*
G36*
G01*
X110664451Y-90516575D02*
X110328575Y-90852451D01*
G75*
G02*
X109992699Y-90852451I-167938J167938D01*
G01*
X109586113Y-90445865D01*
G75*
G02*
X109586113Y-90109989I167938J167938D01*
G01*
X109921989Y-89774113D01*
G75*
G02*
X110257865Y-89774113I167938J-167938D01*
G01*
X110664451Y-90180699D01*
G75*
G02*
X110664451Y-90516575I-167938J-167938D01*
G01*
G37*
G36*
G01*
X111901887Y-91754011D02*
X111566011Y-92089887D01*
G75*
G02*
X111230135Y-92089887I-167938J167938D01*
G01*
X110823549Y-91683301D01*
G75*
G02*
X110823549Y-91347425I167938J167938D01*
G01*
X111159425Y-91011549D01*
G75*
G02*
X111495301Y-91011549I167938J-167938D01*
G01*
X111901887Y-91418135D01*
G75*
G02*
X111901887Y-91754011I-167938J-167938D01*
G01*
G37*
D20*
X135191500Y-102372000D03*
X135191500Y-109972000D03*
X148907500Y-102372000D03*
X148907500Y-109972000D03*
G36*
G01*
X112081500Y-121381500D02*
X112081500Y-116456500D01*
G75*
G02*
X112619000Y-115919000I537500J0D01*
G01*
X113694000Y-115919000D01*
G75*
G02*
X114231500Y-116456500I0J-537500D01*
G01*
X114231500Y-121381500D01*
G75*
G02*
X113694000Y-121919000I-537500J0D01*
G01*
X112619000Y-121919000D01*
G75*
G02*
X112081500Y-121381500I0J537500D01*
G01*
G37*
G36*
G01*
X115511500Y-121381500D02*
X115511500Y-116456500D01*
G75*
G02*
X116049000Y-115919000I537500J0D01*
G01*
X117124000Y-115919000D01*
G75*
G02*
X117661500Y-116456500I0J-537500D01*
G01*
X117661500Y-121381500D01*
G75*
G02*
X117124000Y-121919000I-537500J0D01*
G01*
X116049000Y-121919000D01*
G75*
G02*
X115511500Y-121381500I0J537500D01*
G01*
G37*
G36*
G01*
X115511500Y-111381500D02*
X115511500Y-106456500D01*
G75*
G02*
X116049000Y-105919000I537500J0D01*
G01*
X117124000Y-105919000D01*
G75*
G02*
X117661500Y-106456500I0J-537500D01*
G01*
X117661500Y-111381500D01*
G75*
G02*
X117124000Y-111919000I-537500J0D01*
G01*
X116049000Y-111919000D01*
G75*
G02*
X115511500Y-111381500I0J537500D01*
G01*
G37*
G36*
G01*
X112081500Y-111381500D02*
X112081500Y-106456500D01*
G75*
G02*
X112619000Y-105919000I537500J0D01*
G01*
X113694000Y-105919000D01*
G75*
G02*
X114231500Y-106456500I0J-537500D01*
G01*
X114231500Y-111381500D01*
G75*
G02*
X113694000Y-111919000I-537500J0D01*
G01*
X112619000Y-111919000D01*
G75*
G02*
X112081500Y-111381500I0J537500D01*
G01*
G37*
D21*
X128270000Y-91567000D03*
D22*
X128270000Y-86567000D03*
G36*
G01*
X121319425Y-87220251D02*
X120983549Y-86884375D01*
G75*
G02*
X120983549Y-86548499I167938J167938D01*
G01*
X121390135Y-86141913D01*
G75*
G02*
X121726011Y-86141913I167938J-167938D01*
G01*
X122061887Y-86477789D01*
G75*
G02*
X122061887Y-86813665I-167938J-167938D01*
G01*
X121655301Y-87220251D01*
G75*
G02*
X121319425Y-87220251I-167938J167938D01*
G01*
G37*
G36*
G01*
X120081989Y-88457687D02*
X119746113Y-88121811D01*
G75*
G02*
X119746113Y-87785935I167938J167938D01*
G01*
X120152699Y-87379349D01*
G75*
G02*
X120488575Y-87379349I167938J-167938D01*
G01*
X120824451Y-87715225D01*
G75*
G02*
X120824451Y-88051101I-167938J-167938D01*
G01*
X120417865Y-88457687D01*
G75*
G02*
X120081989Y-88457687I-167938J167938D01*
G01*
G37*
G36*
G01*
X116871000Y-77232500D02*
X116871000Y-77707500D01*
G75*
G02*
X116633500Y-77945000I-237500J0D01*
G01*
X116058500Y-77945000D01*
G75*
G02*
X115821000Y-77707500I0J237500D01*
G01*
X115821000Y-77232500D01*
G75*
G02*
X116058500Y-76995000I237500J0D01*
G01*
X116633500Y-76995000D01*
G75*
G02*
X116871000Y-77232500I0J-237500D01*
G01*
G37*
G36*
G01*
X118621000Y-77232500D02*
X118621000Y-77707500D01*
G75*
G02*
X118383500Y-77945000I-237500J0D01*
G01*
X117808500Y-77945000D01*
G75*
G02*
X117571000Y-77707500I0J237500D01*
G01*
X117571000Y-77232500D01*
G75*
G02*
X117808500Y-76995000I237500J0D01*
G01*
X118383500Y-76995000D01*
G75*
G02*
X118621000Y-77232500I0J-237500D01*
G01*
G37*
G36*
G01*
X118621000Y-79137500D02*
X118621000Y-79612500D01*
G75*
G02*
X118383500Y-79850000I-237500J0D01*
G01*
X117808500Y-79850000D01*
G75*
G02*
X117571000Y-79612500I0J237500D01*
G01*
X117571000Y-79137500D01*
G75*
G02*
X117808500Y-78900000I237500J0D01*
G01*
X118383500Y-78900000D01*
G75*
G02*
X118621000Y-79137500I0J-237500D01*
G01*
G37*
G36*
G01*
X116871000Y-79137500D02*
X116871000Y-79612500D01*
G75*
G02*
X116633500Y-79850000I-237500J0D01*
G01*
X116058500Y-79850000D01*
G75*
G02*
X115821000Y-79612500I0J237500D01*
G01*
X115821000Y-79137500D01*
G75*
G02*
X116058500Y-78900000I237500J0D01*
G01*
X116633500Y-78900000D01*
G75*
G02*
X116871000Y-79137500I0J-237500D01*
G01*
G37*
G36*
G01*
X116398989Y-89613387D02*
X116063113Y-89277511D01*
G75*
G02*
X116063113Y-88941635I167938J167938D01*
G01*
X116469699Y-88535049D01*
G75*
G02*
X116805575Y-88535049I167938J-167938D01*
G01*
X117141451Y-88870925D01*
G75*
G02*
X117141451Y-89206801I-167938J-167938D01*
G01*
X116734865Y-89613387D01*
G75*
G02*
X116398989Y-89613387I-167938J167938D01*
G01*
G37*
G36*
G01*
X117636425Y-88375951D02*
X117300549Y-88040075D01*
G75*
G02*
X117300549Y-87704199I167938J167938D01*
G01*
X117707135Y-87297613D01*
G75*
G02*
X118043011Y-87297613I167938J-167938D01*
G01*
X118378887Y-87633489D01*
G75*
G02*
X118378887Y-87969365I-167938J-167938D01*
G01*
X117972301Y-88375951D01*
G75*
G02*
X117636425Y-88375951I-167938J167938D01*
G01*
G37*
G36*
G01*
X113204451Y-87976575D02*
X112868575Y-88312451D01*
G75*
G02*
X112532699Y-88312451I-167938J167938D01*
G01*
X112126113Y-87905865D01*
G75*
G02*
X112126113Y-87569989I167938J167938D01*
G01*
X112461989Y-87234113D01*
G75*
G02*
X112797865Y-87234113I167938J-167938D01*
G01*
X113204451Y-87640699D01*
G75*
G02*
X113204451Y-87976575I-167938J-167938D01*
G01*
G37*
G36*
G01*
X114441887Y-89214011D02*
X114106011Y-89549887D01*
G75*
G02*
X113770135Y-89549887I-167938J167938D01*
G01*
X113363549Y-89143301D01*
G75*
G02*
X113363549Y-88807425I167938J167938D01*
G01*
X113699425Y-88471549D01*
G75*
G02*
X114035301Y-88471549I167938J-167938D01*
G01*
X114441887Y-88878135D01*
G75*
G02*
X114441887Y-89214011I-167938J-167938D01*
G01*
G37*
G36*
G01*
X116655001Y-99453500D02*
X115754999Y-99453500D01*
G75*
G02*
X115505000Y-99203501I0J249999D01*
G01*
X115505000Y-98553499D01*
G75*
G02*
X115754999Y-98303500I249999J0D01*
G01*
X116655001Y-98303500D01*
G75*
G02*
X116905000Y-98553499I0J-249999D01*
G01*
X116905000Y-99203501D01*
G75*
G02*
X116655001Y-99453500I-249999J0D01*
G01*
G37*
G36*
G01*
X116655001Y-97403500D02*
X115754999Y-97403500D01*
G75*
G02*
X115505000Y-97153501I0J249999D01*
G01*
X115505000Y-96503499D01*
G75*
G02*
X115754999Y-96253500I249999J0D01*
G01*
X116655001Y-96253500D01*
G75*
G02*
X116905000Y-96503499I0J-249999D01*
G01*
X116905000Y-97153501D01*
G75*
G02*
X116655001Y-97403500I-249999J0D01*
G01*
G37*
G36*
G01*
X159062000Y-115754999D02*
X159062000Y-116655001D01*
G75*
G02*
X158812001Y-116905000I-249999J0D01*
G01*
X158161999Y-116905000D01*
G75*
G02*
X157912000Y-116655001I0J249999D01*
G01*
X157912000Y-115754999D01*
G75*
G02*
X158161999Y-115505000I249999J0D01*
G01*
X158812001Y-115505000D01*
G75*
G02*
X159062000Y-115754999I0J-249999D01*
G01*
G37*
G36*
G01*
X161112000Y-115754999D02*
X161112000Y-116655001D01*
G75*
G02*
X160862001Y-116905000I-249999J0D01*
G01*
X160211999Y-116905000D01*
G75*
G02*
X159962000Y-116655001I0J249999D01*
G01*
X159962000Y-115754999D01*
G75*
G02*
X160211999Y-115505000I249999J0D01*
G01*
X160862001Y-115505000D01*
G75*
G02*
X161112000Y-115754999I0J-249999D01*
G01*
G37*
G36*
G01*
X168326000Y-105606001D02*
X168326000Y-104705999D01*
G75*
G02*
X168575999Y-104456000I249999J0D01*
G01*
X169226001Y-104456000D01*
G75*
G02*
X169476000Y-104705999I0J-249999D01*
G01*
X169476000Y-105606001D01*
G75*
G02*
X169226001Y-105856000I-249999J0D01*
G01*
X168575999Y-105856000D01*
G75*
G02*
X168326000Y-105606001I0J249999D01*
G01*
G37*
G36*
G01*
X170376000Y-105606001D02*
X170376000Y-104705999D01*
G75*
G02*
X170625999Y-104456000I249999J0D01*
G01*
X171276001Y-104456000D01*
G75*
G02*
X171526000Y-104705999I0J-249999D01*
G01*
X171526000Y-105606001D01*
G75*
G02*
X171276001Y-105856000I-249999J0D01*
G01*
X170625999Y-105856000D01*
G75*
G02*
X170376000Y-105606001I0J249999D01*
G01*
G37*
G36*
G01*
X141166000Y-103193001D02*
X141166000Y-102292999D01*
G75*
G02*
X141415999Y-102043000I249999J0D01*
G01*
X142066001Y-102043000D01*
G75*
G02*
X142316000Y-102292999I0J-249999D01*
G01*
X142316000Y-103193001D01*
G75*
G02*
X142066001Y-103443000I-249999J0D01*
G01*
X141415999Y-103443000D01*
G75*
G02*
X141166000Y-103193001I0J249999D01*
G01*
G37*
G36*
G01*
X139116000Y-103193001D02*
X139116000Y-102292999D01*
G75*
G02*
X139365999Y-102043000I249999J0D01*
G01*
X140016001Y-102043000D01*
G75*
G02*
X140266000Y-102292999I0J-249999D01*
G01*
X140266000Y-103193001D01*
G75*
G02*
X140016001Y-103443000I-249999J0D01*
G01*
X139365999Y-103443000D01*
G75*
G02*
X139116000Y-103193001I0J249999D01*
G01*
G37*
G36*
G01*
X136220000Y-83750999D02*
X136220000Y-84651001D01*
G75*
G02*
X135970001Y-84901000I-249999J0D01*
G01*
X135319999Y-84901000D01*
G75*
G02*
X135070000Y-84651001I0J249999D01*
G01*
X135070000Y-83750999D01*
G75*
G02*
X135319999Y-83501000I249999J0D01*
G01*
X135970001Y-83501000D01*
G75*
G02*
X136220000Y-83750999I0J-249999D01*
G01*
G37*
G36*
G01*
X134170000Y-83750999D02*
X134170000Y-84651001D01*
G75*
G02*
X133920001Y-84901000I-249999J0D01*
G01*
X133269999Y-84901000D01*
G75*
G02*
X133020000Y-84651001I0J249999D01*
G01*
X133020000Y-83750999D01*
G75*
G02*
X133269999Y-83501000I249999J0D01*
G01*
X133920001Y-83501000D01*
G75*
G02*
X134170000Y-83750999I0J-249999D01*
G01*
G37*
G36*
G01*
X154882000Y-103193001D02*
X154882000Y-102292999D01*
G75*
G02*
X155131999Y-102043000I249999J0D01*
G01*
X155782001Y-102043000D01*
G75*
G02*
X156032000Y-102292999I0J-249999D01*
G01*
X156032000Y-103193001D01*
G75*
G02*
X155782001Y-103443000I-249999J0D01*
G01*
X155131999Y-103443000D01*
G75*
G02*
X154882000Y-103193001I0J249999D01*
G01*
G37*
G36*
G01*
X152832000Y-103193001D02*
X152832000Y-102292999D01*
G75*
G02*
X153081999Y-102043000I249999J0D01*
G01*
X153732001Y-102043000D01*
G75*
G02*
X153982000Y-102292999I0J-249999D01*
G01*
X153982000Y-103193001D01*
G75*
G02*
X153732001Y-103443000I-249999J0D01*
G01*
X153081999Y-103443000D01*
G75*
G02*
X152832000Y-103193001I0J249999D01*
G01*
G37*
G36*
G01*
X149682000Y-83750999D02*
X149682000Y-84651001D01*
G75*
G02*
X149432001Y-84901000I-249999J0D01*
G01*
X148781999Y-84901000D01*
G75*
G02*
X148532000Y-84651001I0J249999D01*
G01*
X148532000Y-83750999D01*
G75*
G02*
X148781999Y-83501000I249999J0D01*
G01*
X149432001Y-83501000D01*
G75*
G02*
X149682000Y-83750999I0J-249999D01*
G01*
G37*
G36*
G01*
X147632000Y-83750999D02*
X147632000Y-84651001D01*
G75*
G02*
X147382001Y-84901000I-249999J0D01*
G01*
X146731999Y-84901000D01*
G75*
G02*
X146482000Y-84651001I0J249999D01*
G01*
X146482000Y-83750999D01*
G75*
G02*
X146731999Y-83501000I249999J0D01*
G01*
X147382001Y-83501000D01*
G75*
G02*
X147632000Y-83750999I0J-249999D01*
G01*
G37*
D18*
X172593000Y-123063000D03*
X172593000Y-121793000D03*
D17*
X172593000Y-124333000D03*
D23*
X170622000Y-99584000D03*
X168722000Y-99584000D03*
X169672000Y-101584000D03*
G36*
G01*
X110195000Y-95367000D02*
X110195000Y-94117000D01*
G75*
G02*
X110445000Y-93867000I250000J0D01*
G01*
X111370000Y-93867000D01*
G75*
G02*
X111620000Y-94117000I0J-250000D01*
G01*
X111620000Y-95367000D01*
G75*
G02*
X111370000Y-95617000I-250000J0D01*
G01*
X110445000Y-95617000D01*
G75*
G02*
X110195000Y-95367000I0J250000D01*
G01*
G37*
G36*
G01*
X113170000Y-95367000D02*
X113170000Y-94117000D01*
G75*
G02*
X113420000Y-93867000I250000J0D01*
G01*
X114345000Y-93867000D01*
G75*
G02*
X114595000Y-94117000I0J-250000D01*
G01*
X114595000Y-95367000D01*
G75*
G02*
X114345000Y-95617000I-250000J0D01*
G01*
X113420000Y-95617000D01*
G75*
G02*
X113170000Y-95367000I0J250000D01*
G01*
G37*
G36*
G01*
X168018000Y-118411000D02*
X168018000Y-117936000D01*
G75*
G02*
X168255500Y-117698500I237500J0D01*
G01*
X168830500Y-117698500D01*
G75*
G02*
X169068000Y-117936000I0J-237500D01*
G01*
X169068000Y-118411000D01*
G75*
G02*
X168830500Y-118648500I-237500J0D01*
G01*
X168255500Y-118648500D01*
G75*
G02*
X168018000Y-118411000I0J237500D01*
G01*
G37*
G36*
G01*
X169768000Y-118411000D02*
X169768000Y-117936000D01*
G75*
G02*
X170005500Y-117698500I237500J0D01*
G01*
X170580500Y-117698500D01*
G75*
G02*
X170818000Y-117936000I0J-237500D01*
G01*
X170818000Y-118411000D01*
G75*
G02*
X170580500Y-118648500I-237500J0D01*
G01*
X170005500Y-118648500D01*
G75*
G02*
X169768000Y-118411000I0J237500D01*
G01*
G37*
G36*
G01*
X140429500Y-111332000D02*
X140429500Y-111807000D01*
G75*
G02*
X140192000Y-112044500I-237500J0D01*
G01*
X139617000Y-112044500D01*
G75*
G02*
X139379500Y-111807000I0J237500D01*
G01*
X139379500Y-111332000D01*
G75*
G02*
X139617000Y-111094500I237500J0D01*
G01*
X140192000Y-111094500D01*
G75*
G02*
X140429500Y-111332000I0J-237500D01*
G01*
G37*
G36*
G01*
X142179500Y-111332000D02*
X142179500Y-111807000D01*
G75*
G02*
X141942000Y-112044500I-237500J0D01*
G01*
X141367000Y-112044500D01*
G75*
G02*
X141129500Y-111807000I0J237500D01*
G01*
X141129500Y-111332000D01*
G75*
G02*
X141367000Y-111094500I237500J0D01*
G01*
X141942000Y-111094500D01*
G75*
G02*
X142179500Y-111332000I0J-237500D01*
G01*
G37*
G36*
G01*
X171828000Y-103361500D02*
X171828000Y-102886500D01*
G75*
G02*
X172065500Y-102649000I237500J0D01*
G01*
X172640500Y-102649000D01*
G75*
G02*
X172878000Y-102886500I0J-237500D01*
G01*
X172878000Y-103361500D01*
G75*
G02*
X172640500Y-103599000I-237500J0D01*
G01*
X172065500Y-103599000D01*
G75*
G02*
X171828000Y-103361500I0J237500D01*
G01*
G37*
G36*
G01*
X173578000Y-103361500D02*
X173578000Y-102886500D01*
G75*
G02*
X173815500Y-102649000I237500J0D01*
G01*
X174390500Y-102649000D01*
G75*
G02*
X174628000Y-102886500I0J-237500D01*
G01*
X174628000Y-103361500D01*
G75*
G02*
X174390500Y-103599000I-237500J0D01*
G01*
X173815500Y-103599000D01*
G75*
G02*
X173578000Y-103361500I0J237500D01*
G01*
G37*
G36*
G01*
X161687500Y-90901000D02*
X162162500Y-90901000D01*
G75*
G02*
X162400000Y-91138500I0J-237500D01*
G01*
X162400000Y-91713500D01*
G75*
G02*
X162162500Y-91951000I-237500J0D01*
G01*
X161687500Y-91951000D01*
G75*
G02*
X161450000Y-91713500I0J237500D01*
G01*
X161450000Y-91138500D01*
G75*
G02*
X161687500Y-90901000I237500J0D01*
G01*
G37*
G36*
G01*
X161687500Y-89151000D02*
X162162500Y-89151000D01*
G75*
G02*
X162400000Y-89388500I0J-237500D01*
G01*
X162400000Y-89963500D01*
G75*
G02*
X162162500Y-90201000I-237500J0D01*
G01*
X161687500Y-90201000D01*
G75*
G02*
X161450000Y-89963500I0J237500D01*
G01*
X161450000Y-89388500D01*
G75*
G02*
X161687500Y-89151000I237500J0D01*
G01*
G37*
G36*
G01*
X162162500Y-95888000D02*
X161687500Y-95888000D01*
G75*
G02*
X161450000Y-95650500I0J237500D01*
G01*
X161450000Y-95075500D01*
G75*
G02*
X161687500Y-94838000I237500J0D01*
G01*
X162162500Y-94838000D01*
G75*
G02*
X162400000Y-95075500I0J-237500D01*
G01*
X162400000Y-95650500D01*
G75*
G02*
X162162500Y-95888000I-237500J0D01*
G01*
G37*
G36*
G01*
X162162500Y-94138000D02*
X161687500Y-94138000D01*
G75*
G02*
X161450000Y-93900500I0J237500D01*
G01*
X161450000Y-93325500D01*
G75*
G02*
X161687500Y-93088000I237500J0D01*
G01*
X162162500Y-93088000D01*
G75*
G02*
X162400000Y-93325500I0J-237500D01*
G01*
X162400000Y-93900500D01*
G75*
G02*
X162162500Y-94138000I-237500J0D01*
G01*
G37*
G36*
G01*
X155895500Y-111395500D02*
X155895500Y-111870500D01*
G75*
G02*
X155658000Y-112108000I-237500J0D01*
G01*
X155083000Y-112108000D01*
G75*
G02*
X154845500Y-111870500I0J237500D01*
G01*
X154845500Y-111395500D01*
G75*
G02*
X155083000Y-111158000I237500J0D01*
G01*
X155658000Y-111158000D01*
G75*
G02*
X155895500Y-111395500I0J-237500D01*
G01*
G37*
G36*
G01*
X154145500Y-111395500D02*
X154145500Y-111870500D01*
G75*
G02*
X153908000Y-112108000I-237500J0D01*
G01*
X153333000Y-112108000D01*
G75*
G02*
X153095500Y-111870500I0J237500D01*
G01*
X153095500Y-111395500D01*
G75*
G02*
X153333000Y-111158000I237500J0D01*
G01*
X153908000Y-111158000D01*
G75*
G02*
X154145500Y-111395500I0J-237500D01*
G01*
G37*
D24*
X165307000Y-116393000D03*
X165307000Y-115443000D03*
X165307000Y-114493000D03*
X162607000Y-114493000D03*
X162607000Y-116393000D03*
X162607000Y-115443000D03*
D25*
X139766000Y-105012500D03*
X141666000Y-105012500D03*
X141666000Y-107712500D03*
X140716000Y-107712500D03*
X139766000Y-107712500D03*
X153482000Y-107712500D03*
X154432000Y-107712500D03*
X155382000Y-107712500D03*
X155382000Y-105012500D03*
X153482000Y-105012500D03*
G36*
G01*
X114485000Y-122866999D02*
X114485000Y-123767001D01*
G75*
G02*
X114235001Y-124017000I-249999J0D01*
G01*
X113584999Y-124017000D01*
G75*
G02*
X113335000Y-123767001I0J249999D01*
G01*
X113335000Y-122866999D01*
G75*
G02*
X113584999Y-122617000I249999J0D01*
G01*
X114235001Y-122617000D01*
G75*
G02*
X114485000Y-122866999I0J-249999D01*
G01*
G37*
G36*
G01*
X116535000Y-122866999D02*
X116535000Y-123767001D01*
G75*
G02*
X116285001Y-124017000I-249999J0D01*
G01*
X115634999Y-124017000D01*
G75*
G02*
X115385000Y-123767001I0J249999D01*
G01*
X115385000Y-122866999D01*
G75*
G02*
X115634999Y-122617000I249999J0D01*
G01*
X116285001Y-122617000D01*
G75*
G02*
X116535000Y-122866999I0J-249999D01*
G01*
G37*
G36*
G01*
X123667000Y-116061500D02*
X123667000Y-115586500D01*
G75*
G02*
X123904500Y-115349000I237500J0D01*
G01*
X124479500Y-115349000D01*
G75*
G02*
X124717000Y-115586500I0J-237500D01*
G01*
X124717000Y-116061500D01*
G75*
G02*
X124479500Y-116299000I-237500J0D01*
G01*
X123904500Y-116299000D01*
G75*
G02*
X123667000Y-116061500I0J237500D01*
G01*
G37*
G36*
G01*
X121917000Y-116061500D02*
X121917000Y-115586500D01*
G75*
G02*
X122154500Y-115349000I237500J0D01*
G01*
X122729500Y-115349000D01*
G75*
G02*
X122967000Y-115586500I0J-237500D01*
G01*
X122967000Y-116061500D01*
G75*
G02*
X122729500Y-116299000I-237500J0D01*
G01*
X122154500Y-116299000D01*
G75*
G02*
X121917000Y-116061500I0J237500D01*
G01*
G37*
G36*
G01*
X124717000Y-113808500D02*
X124717000Y-114283500D01*
G75*
G02*
X124479500Y-114521000I-237500J0D01*
G01*
X123904500Y-114521000D01*
G75*
G02*
X123667000Y-114283500I0J237500D01*
G01*
X123667000Y-113808500D01*
G75*
G02*
X123904500Y-113571000I237500J0D01*
G01*
X124479500Y-113571000D01*
G75*
G02*
X124717000Y-113808500I0J-237500D01*
G01*
G37*
G36*
G01*
X122967000Y-113808500D02*
X122967000Y-114283500D01*
G75*
G02*
X122729500Y-114521000I-237500J0D01*
G01*
X122154500Y-114521000D01*
G75*
G02*
X121917000Y-114283500I0J237500D01*
G01*
X121917000Y-113808500D01*
G75*
G02*
X122154500Y-113571000I237500J0D01*
G01*
X122729500Y-113571000D01*
G75*
G02*
X122967000Y-113808500I0J-237500D01*
G01*
G37*
G36*
G01*
X126635500Y-110459000D02*
X127110500Y-110459000D01*
G75*
G02*
X127348000Y-110696500I0J-237500D01*
G01*
X127348000Y-111271500D01*
G75*
G02*
X127110500Y-111509000I-237500J0D01*
G01*
X126635500Y-111509000D01*
G75*
G02*
X126398000Y-111271500I0J237500D01*
G01*
X126398000Y-110696500D01*
G75*
G02*
X126635500Y-110459000I237500J0D01*
G01*
G37*
G36*
G01*
X126635500Y-108709000D02*
X127110500Y-108709000D01*
G75*
G02*
X127348000Y-108946500I0J-237500D01*
G01*
X127348000Y-109521500D01*
G75*
G02*
X127110500Y-109759000I-237500J0D01*
G01*
X126635500Y-109759000D01*
G75*
G02*
X126398000Y-109521500I0J237500D01*
G01*
X126398000Y-108946500D01*
G75*
G02*
X126635500Y-108709000I237500J0D01*
G01*
G37*
G36*
G01*
X125332500Y-111523000D02*
X124857500Y-111523000D01*
G75*
G02*
X124620000Y-111285500I0J237500D01*
G01*
X124620000Y-110710500D01*
G75*
G02*
X124857500Y-110473000I237500J0D01*
G01*
X125332500Y-110473000D01*
G75*
G02*
X125570000Y-110710500I0J-237500D01*
G01*
X125570000Y-111285500D01*
G75*
G02*
X125332500Y-111523000I-237500J0D01*
G01*
G37*
G36*
G01*
X125332500Y-109773000D02*
X124857500Y-109773000D01*
G75*
G02*
X124620000Y-109535500I0J237500D01*
G01*
X124620000Y-108960500D01*
G75*
G02*
X124857500Y-108723000I237500J0D01*
G01*
X125332500Y-108723000D01*
G75*
G02*
X125570000Y-108960500I0J-237500D01*
G01*
X125570000Y-109535500D01*
G75*
G02*
X125332500Y-109773000I-237500J0D01*
G01*
G37*
D26*
X165549000Y-100584000D03*
X161349000Y-100584000D03*
G36*
G01*
X113958000Y-128258000D02*
X113958000Y-126758000D01*
G75*
G02*
X114208000Y-126508000I250000J0D01*
G01*
X115408000Y-126508000D01*
G75*
G02*
X115658000Y-126758000I0J-250000D01*
G01*
X115658000Y-128258000D01*
G75*
G02*
X115408000Y-128508000I-250000J0D01*
G01*
X114208000Y-128508000D01*
G75*
G02*
X113958000Y-128258000I0J250000D01*
G01*
G37*
D27*
X117308000Y-127508000D03*
G36*
G01*
X136867000Y-79514000D02*
X136867000Y-81014000D01*
G75*
G02*
X136617000Y-81264000I-250000J0D01*
G01*
X135417000Y-81264000D01*
G75*
G02*
X135167000Y-81014000I0J250000D01*
G01*
X135167000Y-79514000D01*
G75*
G02*
X135417000Y-79264000I250000J0D01*
G01*
X136617000Y-79264000D01*
G75*
G02*
X136867000Y-79514000I0J-250000D01*
G01*
G37*
X133517000Y-80264000D03*
X146979000Y-80264000D03*
G36*
G01*
X150329000Y-79514000D02*
X150329000Y-81014000D01*
G75*
G02*
X150079000Y-81264000I-250000J0D01*
G01*
X148879000Y-81264000D01*
G75*
G02*
X148629000Y-81014000I0J250000D01*
G01*
X148629000Y-79514000D01*
G75*
G02*
X148879000Y-79264000I250000J0D01*
G01*
X150079000Y-79264000D01*
G75*
G02*
X150329000Y-79514000I0J-250000D01*
G01*
G37*
G36*
G01*
X163791000Y-79514000D02*
X163791000Y-81014000D01*
G75*
G02*
X163541000Y-81264000I-250000J0D01*
G01*
X162341000Y-81264000D01*
G75*
G02*
X162091000Y-81014000I0J250000D01*
G01*
X162091000Y-79514000D01*
G75*
G02*
X162341000Y-79264000I250000J0D01*
G01*
X163541000Y-79264000D01*
G75*
G02*
X163791000Y-79514000I0J-250000D01*
G01*
G37*
X160441000Y-80264000D03*
G36*
G01*
X160116000Y-114537500D02*
X160116000Y-114062500D01*
G75*
G02*
X160353500Y-113825000I237500J0D01*
G01*
X160928500Y-113825000D01*
G75*
G02*
X161166000Y-114062500I0J-237500D01*
G01*
X161166000Y-114537500D01*
G75*
G02*
X160928500Y-114775000I-237500J0D01*
G01*
X160353500Y-114775000D01*
G75*
G02*
X160116000Y-114537500I0J237500D01*
G01*
G37*
G36*
G01*
X158366000Y-114537500D02*
X158366000Y-114062500D01*
G75*
G02*
X158603500Y-113825000I237500J0D01*
G01*
X159178500Y-113825000D01*
G75*
G02*
X159416000Y-114062500I0J-237500D01*
G01*
X159416000Y-114537500D01*
G75*
G02*
X159178500Y-114775000I-237500J0D01*
G01*
X158603500Y-114775000D01*
G75*
G02*
X158366000Y-114537500I0J237500D01*
G01*
G37*
D28*
X109647056Y-77042944D03*
X107950000Y-76340000D03*
X106252944Y-77042944D03*
X105550000Y-78740000D03*
X106252944Y-80437056D03*
X107950000Y-81140000D03*
X109647056Y-80437056D03*
X110350000Y-78740000D03*
D29*
X107950000Y-78740000D03*
X171450000Y-129540000D03*
D28*
X173850000Y-129540000D03*
X173147056Y-131237056D03*
X171450000Y-131940000D03*
X169752944Y-131237056D03*
X169050000Y-129540000D03*
X169752944Y-127842944D03*
X171450000Y-127140000D03*
X173147056Y-127842944D03*
X173147056Y-77042944D03*
X171450000Y-76340000D03*
X169752944Y-77042944D03*
X169050000Y-78740000D03*
X169752944Y-80437056D03*
X171450000Y-81140000D03*
X173147056Y-80437056D03*
X173850000Y-78740000D03*
D29*
X171450000Y-78740000D03*
X107950000Y-129540000D03*
D28*
X110350000Y-129540000D03*
X109647056Y-131237056D03*
X107950000Y-131940000D03*
X106252944Y-131237056D03*
X105550000Y-129540000D03*
X106252944Y-127842944D03*
X107950000Y-127140000D03*
X109647056Y-127842944D03*
D30*
X128778000Y-122555000D03*
D31*
X128778000Y-119055000D03*
D13*
X128397000Y-97536000D03*
X136779000Y-117475000D03*
X152908000Y-116459000D03*
X144907000Y-116459000D03*
G36*
G01*
X113858989Y-92153387D02*
X113523113Y-91817511D01*
G75*
G02*
X113523113Y-91481635I167938J167938D01*
G01*
X113929699Y-91075049D01*
G75*
G02*
X114265575Y-91075049I167938J-167938D01*
G01*
X114601451Y-91410925D01*
G75*
G02*
X114601451Y-91746801I-167938J-167938D01*
G01*
X114194865Y-92153387D01*
G75*
G02*
X113858989Y-92153387I-167938J167938D01*
G01*
G37*
G36*
G01*
X115096425Y-90915951D02*
X114760549Y-90580075D01*
G75*
G02*
X114760549Y-90244199I167938J167938D01*
G01*
X115167135Y-89837613D01*
G75*
G02*
X115503011Y-89837613I167938J-167938D01*
G01*
X115838887Y-90173489D01*
G75*
G02*
X115838887Y-90509365I-167938J-167938D01*
G01*
X115432301Y-90915951D01*
G75*
G02*
X115096425Y-90915951I-167938J167938D01*
G01*
G37*
G36*
G01*
X162845000Y-117999500D02*
X162845000Y-118474500D01*
G75*
G02*
X162607500Y-118712000I-237500J0D01*
G01*
X162032500Y-118712000D01*
G75*
G02*
X161795000Y-118474500I0J237500D01*
G01*
X161795000Y-117999500D01*
G75*
G02*
X162032500Y-117762000I237500J0D01*
G01*
X162607500Y-117762000D01*
G75*
G02*
X162845000Y-117999500I0J-237500D01*
G01*
G37*
G36*
G01*
X164595000Y-117999500D02*
X164595000Y-118474500D01*
G75*
G02*
X164357500Y-118712000I-237500J0D01*
G01*
X163782500Y-118712000D01*
G75*
G02*
X163545000Y-118474500I0J237500D01*
G01*
X163545000Y-117999500D01*
G75*
G02*
X163782500Y-117762000I237500J0D01*
G01*
X164357500Y-117762000D01*
G75*
G02*
X164595000Y-117999500I0J-237500D01*
G01*
G37*
G36*
G01*
X161220999Y-83744000D02*
X162121001Y-83744000D01*
G75*
G02*
X162371000Y-83993999I0J-249999D01*
G01*
X162371000Y-84644001D01*
G75*
G02*
X162121001Y-84894000I-249999J0D01*
G01*
X161220999Y-84894000D01*
G75*
G02*
X160971000Y-84644001I0J249999D01*
G01*
X160971000Y-83993999D01*
G75*
G02*
X161220999Y-83744000I249999J0D01*
G01*
G37*
G36*
G01*
X161220999Y-85794000D02*
X162121001Y-85794000D01*
G75*
G02*
X162371000Y-86043999I0J-249999D01*
G01*
X162371000Y-86694001D01*
G75*
G02*
X162121001Y-86944000I-249999J0D01*
G01*
X161220999Y-86944000D01*
G75*
G02*
X160971000Y-86694001I0J249999D01*
G01*
X160971000Y-86043999D01*
G75*
G02*
X161220999Y-85794000I249999J0D01*
G01*
G37*
G36*
G01*
X143329500Y-107137500D02*
X144579500Y-107137500D01*
G75*
G02*
X144829500Y-107387500I0J-250000D01*
G01*
X144829500Y-108312500D01*
G75*
G02*
X144579500Y-108562500I-250000J0D01*
G01*
X143329500Y-108562500D01*
G75*
G02*
X143079500Y-108312500I0J250000D01*
G01*
X143079500Y-107387500D01*
G75*
G02*
X143329500Y-107137500I250000J0D01*
G01*
G37*
G36*
G01*
X143329500Y-104162500D02*
X144579500Y-104162500D01*
G75*
G02*
X144829500Y-104412500I0J-250000D01*
G01*
X144829500Y-105337500D01*
G75*
G02*
X144579500Y-105587500I-250000J0D01*
G01*
X143329500Y-105587500D01*
G75*
G02*
X143079500Y-105337500I0J250000D01*
G01*
X143079500Y-104412500D01*
G75*
G02*
X143329500Y-104162500I250000J0D01*
G01*
G37*
G36*
G01*
X157058200Y-104162500D02*
X158308200Y-104162500D01*
G75*
G02*
X158558200Y-104412500I0J-250000D01*
G01*
X158558200Y-105337500D01*
G75*
G02*
X158308200Y-105587500I-250000J0D01*
G01*
X157058200Y-105587500D01*
G75*
G02*
X156808200Y-105337500I0J250000D01*
G01*
X156808200Y-104412500D01*
G75*
G02*
X157058200Y-104162500I250000J0D01*
G01*
G37*
G36*
G01*
X157058200Y-107137500D02*
X158308200Y-107137500D01*
G75*
G02*
X158558200Y-107387500I0J-250000D01*
G01*
X158558200Y-108312500D01*
G75*
G02*
X158308200Y-108562500I-250000J0D01*
G01*
X157058200Y-108562500D01*
G75*
G02*
X156808200Y-108312500I0J250000D01*
G01*
X156808200Y-107387500D01*
G75*
G02*
X157058200Y-107137500I250000J0D01*
G01*
G37*
G36*
G01*
X113171887Y-90484011D02*
X112836011Y-90819887D01*
G75*
G02*
X112500135Y-90819887I-167938J167938D01*
G01*
X112093549Y-90413301D01*
G75*
G02*
X112093549Y-90077425I167938J167938D01*
G01*
X112429425Y-89741549D01*
G75*
G02*
X112765301Y-89741549I167938J-167938D01*
G01*
X113171887Y-90148135D01*
G75*
G02*
X113171887Y-90484011I-167938J-167938D01*
G01*
G37*
G36*
G01*
X111934451Y-89246575D02*
X111598575Y-89582451D01*
G75*
G02*
X111262699Y-89582451I-167938J167938D01*
G01*
X110856113Y-89175865D01*
G75*
G02*
X110856113Y-88839989I167938J167938D01*
G01*
X111191989Y-88504113D01*
G75*
G02*
X111527865Y-88504113I167938J-167938D01*
G01*
X111934451Y-88910699D01*
G75*
G02*
X111934451Y-89246575I-167938J-167938D01*
G01*
G37*
G36*
G01*
X110586000Y-83549500D02*
X110586000Y-83074500D01*
G75*
G02*
X110823500Y-82837000I237500J0D01*
G01*
X111398500Y-82837000D01*
G75*
G02*
X111636000Y-83074500I0J-237500D01*
G01*
X111636000Y-83549500D01*
G75*
G02*
X111398500Y-83787000I-237500J0D01*
G01*
X110823500Y-83787000D01*
G75*
G02*
X110586000Y-83549500I0J237500D01*
G01*
G37*
G36*
G01*
X108836000Y-83549500D02*
X108836000Y-83074500D01*
G75*
G02*
X109073500Y-82837000I237500J0D01*
G01*
X109648500Y-82837000D01*
G75*
G02*
X109886000Y-83074500I0J-237500D01*
G01*
X109886000Y-83549500D01*
G75*
G02*
X109648500Y-83787000I-237500J0D01*
G01*
X109073500Y-83787000D01*
G75*
G02*
X108836000Y-83549500I0J237500D01*
G01*
G37*
G36*
G01*
X112969989Y-85231887D02*
X112634113Y-84896011D01*
G75*
G02*
X112634113Y-84560135I167938J167938D01*
G01*
X113040699Y-84153549D01*
G75*
G02*
X113376575Y-84153549I167938J-167938D01*
G01*
X113712451Y-84489425D01*
G75*
G02*
X113712451Y-84825301I-167938J-167938D01*
G01*
X113305865Y-85231887D01*
G75*
G02*
X112969989Y-85231887I-167938J167938D01*
G01*
G37*
G36*
G01*
X114207425Y-83994451D02*
X113871549Y-83658575D01*
G75*
G02*
X113871549Y-83322699I167938J167938D01*
G01*
X114278135Y-82916113D01*
G75*
G02*
X114614011Y-82916113I167938J-167938D01*
G01*
X114949887Y-83251989D01*
G75*
G02*
X114949887Y-83587865I-167938J-167938D01*
G01*
X114543301Y-83994451D01*
G75*
G02*
X114207425Y-83994451I-167938J167938D01*
G01*
G37*
G36*
G01*
X113052500Y-103952200D02*
X113052500Y-102702200D01*
G75*
G02*
X113302500Y-102452200I250000J0D01*
G01*
X114227500Y-102452200D01*
G75*
G02*
X114477500Y-102702200I0J-250000D01*
G01*
X114477500Y-103952200D01*
G75*
G02*
X114227500Y-104202200I-250000J0D01*
G01*
X113302500Y-104202200D01*
G75*
G02*
X113052500Y-103952200I0J250000D01*
G01*
G37*
G36*
G01*
X116027500Y-103952200D02*
X116027500Y-102702200D01*
G75*
G02*
X116277500Y-102452200I250000J0D01*
G01*
X117202500Y-102452200D01*
G75*
G02*
X117452500Y-102702200I0J-250000D01*
G01*
X117452500Y-103952200D01*
G75*
G02*
X117202500Y-104202200I-250000J0D01*
G01*
X116277500Y-104202200D01*
G75*
G02*
X116027500Y-103952200I0J250000D01*
G01*
G37*
D31*
X172680000Y-109982000D03*
D30*
X170180000Y-109982000D03*
D32*
X163957000Y-105054000D03*
X163957000Y-111354000D03*
G36*
G01*
X111483000Y-96943500D02*
X111783000Y-96943500D01*
G75*
G02*
X111933000Y-97093500I0J-150000D01*
G01*
X111933000Y-98543500D01*
G75*
G02*
X111783000Y-98693500I-150000J0D01*
G01*
X111483000Y-98693500D01*
G75*
G02*
X111333000Y-98543500I0J150000D01*
G01*
X111333000Y-97093500D01*
G75*
G02*
X111483000Y-96943500I150000J0D01*
G01*
G37*
G36*
G01*
X110213000Y-96943500D02*
X110513000Y-96943500D01*
G75*
G02*
X110663000Y-97093500I0J-150000D01*
G01*
X110663000Y-98543500D01*
G75*
G02*
X110513000Y-98693500I-150000J0D01*
G01*
X110213000Y-98693500D01*
G75*
G02*
X110063000Y-98543500I0J150000D01*
G01*
X110063000Y-97093500D01*
G75*
G02*
X110213000Y-96943500I150000J0D01*
G01*
G37*
G36*
G01*
X108943000Y-96943500D02*
X109243000Y-96943500D01*
G75*
G02*
X109393000Y-97093500I0J-150000D01*
G01*
X109393000Y-98543500D01*
G75*
G02*
X109243000Y-98693500I-150000J0D01*
G01*
X108943000Y-98693500D01*
G75*
G02*
X108793000Y-98543500I0J150000D01*
G01*
X108793000Y-97093500D01*
G75*
G02*
X108943000Y-96943500I150000J0D01*
G01*
G37*
G36*
G01*
X107673000Y-96943500D02*
X107973000Y-96943500D01*
G75*
G02*
X108123000Y-97093500I0J-150000D01*
G01*
X108123000Y-98543500D01*
G75*
G02*
X107973000Y-98693500I-150000J0D01*
G01*
X107673000Y-98693500D01*
G75*
G02*
X107523000Y-98543500I0J150000D01*
G01*
X107523000Y-97093500D01*
G75*
G02*
X107673000Y-96943500I150000J0D01*
G01*
G37*
G36*
G01*
X107673000Y-102093500D02*
X107973000Y-102093500D01*
G75*
G02*
X108123000Y-102243500I0J-150000D01*
G01*
X108123000Y-103693500D01*
G75*
G02*
X107973000Y-103843500I-150000J0D01*
G01*
X107673000Y-103843500D01*
G75*
G02*
X107523000Y-103693500I0J150000D01*
G01*
X107523000Y-102243500D01*
G75*
G02*
X107673000Y-102093500I150000J0D01*
G01*
G37*
G36*
G01*
X108943000Y-102093500D02*
X109243000Y-102093500D01*
G75*
G02*
X109393000Y-102243500I0J-150000D01*
G01*
X109393000Y-103693500D01*
G75*
G02*
X109243000Y-103843500I-150000J0D01*
G01*
X108943000Y-103843500D01*
G75*
G02*
X108793000Y-103693500I0J150000D01*
G01*
X108793000Y-102243500D01*
G75*
G02*
X108943000Y-102093500I150000J0D01*
G01*
G37*
G36*
G01*
X110213000Y-102093500D02*
X110513000Y-102093500D01*
G75*
G02*
X110663000Y-102243500I0J-150000D01*
G01*
X110663000Y-103693500D01*
G75*
G02*
X110513000Y-103843500I-150000J0D01*
G01*
X110213000Y-103843500D01*
G75*
G02*
X110063000Y-103693500I0J150000D01*
G01*
X110063000Y-102243500D01*
G75*
G02*
X110213000Y-102093500I150000J0D01*
G01*
G37*
G36*
G01*
X111483000Y-102093500D02*
X111783000Y-102093500D01*
G75*
G02*
X111933000Y-102243500I0J-150000D01*
G01*
X111933000Y-103693500D01*
G75*
G02*
X111783000Y-103843500I-150000J0D01*
G01*
X111483000Y-103843500D01*
G75*
G02*
X111333000Y-103693500I0J150000D01*
G01*
X111333000Y-102243500D01*
G75*
G02*
X111483000Y-102093500I150000J0D01*
G01*
G37*
G36*
G01*
X119054361Y-83929787D02*
X119160427Y-84035853D01*
G75*
G02*
X119160427Y-84141919I-53033J-53033D01*
G01*
X118241189Y-85061157D01*
G75*
G02*
X118135123Y-85061157I-53033J53033D01*
G01*
X118029057Y-84955091D01*
G75*
G02*
X118029057Y-84849025I53033J53033D01*
G01*
X118948295Y-83929787D01*
G75*
G02*
X119054361Y-83929787I53033J-53033D01*
G01*
G37*
G36*
G01*
X118700807Y-83576233D02*
X118806873Y-83682299D01*
G75*
G02*
X118806873Y-83788365I-53033J-53033D01*
G01*
X117887635Y-84707603D01*
G75*
G02*
X117781569Y-84707603I-53033J53033D01*
G01*
X117675503Y-84601537D01*
G75*
G02*
X117675503Y-84495471I53033J53033D01*
G01*
X118594741Y-83576233D01*
G75*
G02*
X118700807Y-83576233I53033J-53033D01*
G01*
G37*
G36*
G01*
X118347254Y-83222680D02*
X118453320Y-83328746D01*
G75*
G02*
X118453320Y-83434812I-53033J-53033D01*
G01*
X117534082Y-84354050D01*
G75*
G02*
X117428016Y-84354050I-53033J53033D01*
G01*
X117321950Y-84247984D01*
G75*
G02*
X117321950Y-84141918I53033J53033D01*
G01*
X118241188Y-83222680D01*
G75*
G02*
X118347254Y-83222680I53033J-53033D01*
G01*
G37*
G36*
G01*
X117993701Y-82869127D02*
X118099767Y-82975193D01*
G75*
G02*
X118099767Y-83081259I-53033J-53033D01*
G01*
X117180529Y-84000497D01*
G75*
G02*
X117074463Y-84000497I-53033J53033D01*
G01*
X116968397Y-83894431D01*
G75*
G02*
X116968397Y-83788365I53033J53033D01*
G01*
X117887635Y-82869127D01*
G75*
G02*
X117993701Y-82869127I53033J-53033D01*
G01*
G37*
G36*
G01*
X117640147Y-82515573D02*
X117746213Y-82621639D01*
G75*
G02*
X117746213Y-82727705I-53033J-53033D01*
G01*
X116826975Y-83646943D01*
G75*
G02*
X116720909Y-83646943I-53033J53033D01*
G01*
X116614843Y-83540877D01*
G75*
G02*
X116614843Y-83434811I53033J53033D01*
G01*
X117534081Y-82515573D01*
G75*
G02*
X117640147Y-82515573I53033J-53033D01*
G01*
G37*
G36*
G01*
X114528877Y-85626843D02*
X114634943Y-85732909D01*
G75*
G02*
X114634943Y-85838975I-53033J-53033D01*
G01*
X113715705Y-86758213D01*
G75*
G02*
X113609639Y-86758213I-53033J53033D01*
G01*
X113503573Y-86652147D01*
G75*
G02*
X113503573Y-86546081I53033J53033D01*
G01*
X114422811Y-85626843D01*
G75*
G02*
X114528877Y-85626843I53033J-53033D01*
G01*
G37*
G36*
G01*
X114882431Y-85980397D02*
X114988497Y-86086463D01*
G75*
G02*
X114988497Y-86192529I-53033J-53033D01*
G01*
X114069259Y-87111767D01*
G75*
G02*
X113963193Y-87111767I-53033J53033D01*
G01*
X113857127Y-87005701D01*
G75*
G02*
X113857127Y-86899635I53033J53033D01*
G01*
X114776365Y-85980397D01*
G75*
G02*
X114882431Y-85980397I53033J-53033D01*
G01*
G37*
G36*
G01*
X115235984Y-86333950D02*
X115342050Y-86440016D01*
G75*
G02*
X115342050Y-86546082I-53033J-53033D01*
G01*
X114422812Y-87465320D01*
G75*
G02*
X114316746Y-87465320I-53033J53033D01*
G01*
X114210680Y-87359254D01*
G75*
G02*
X114210680Y-87253188I53033J53033D01*
G01*
X115129918Y-86333950D01*
G75*
G02*
X115235984Y-86333950I53033J-53033D01*
G01*
G37*
G36*
G01*
X115589537Y-86687503D02*
X115695603Y-86793569D01*
G75*
G02*
X115695603Y-86899635I-53033J-53033D01*
G01*
X114776365Y-87818873D01*
G75*
G02*
X114670299Y-87818873I-53033J53033D01*
G01*
X114564233Y-87712807D01*
G75*
G02*
X114564233Y-87606741I53033J53033D01*
G01*
X115483471Y-86687503D01*
G75*
G02*
X115589537Y-86687503I53033J-53033D01*
G01*
G37*
G36*
G01*
X115943091Y-87041057D02*
X116049157Y-87147123D01*
G75*
G02*
X116049157Y-87253189I-53033J-53033D01*
G01*
X115129919Y-88172427D01*
G75*
G02*
X115023853Y-88172427I-53033J53033D01*
G01*
X114917787Y-88066361D01*
G75*
G02*
X114917787Y-87960295I53033J53033D01*
G01*
X115837025Y-87041057D01*
G75*
G02*
X115943091Y-87041057I53033J-53033D01*
G01*
G37*
M02*
