M48
INCH,TZ
T1C0.0118
T2C0.0157
T3C0.0197
T4C0.0295
T5C0.0315
T6C0.0394
T7C0.1260
%
G90
G05
T1
X43306Y-34994
X43650Y-34350
X44675Y-38125
X45100Y-38125
X45400Y-37175
X45400Y-37600
X45625Y-36625
X45825Y-37175
X45825Y-37600
X46000Y-33800
X47050Y-32675
X47400Y-33000
X48875Y-41925
X49600Y-41400
X50100Y-40750
X52400Y-45875
X52400Y-46275
X52400Y-46675
X52800Y-45875
X52800Y-46275
X52800Y-46675
X53100Y-49350
X53200Y-45875
X53200Y-46275
X53200Y-46675
X54600Y-39775
X54850Y-52100
X55000Y-39775
X55225Y-43000
X55225Y-43400
X55400Y-39775
X55775Y-43200
X55800Y-39775
X60015Y-39780
X60415Y-39780
X60700Y-43000
X60700Y-43400
X60815Y-39780
X61174Y-43200
X61215Y-39780
X61950Y-45750
X63100Y-36550
X63450Y-46300
X64150Y-36450
X65600Y-45450
X67950Y-38225
T2
X42250Y-44950
X42250Y-45750
X42250Y-46500
X42250Y-48000
X42250Y-48700
X42450Y-39250
X42450Y-39800
X42950Y-39250
X42950Y-39800
X43000Y-44950
X43000Y-45750
X43000Y-46500
X43000Y-47250
X43000Y-48000
X43000Y-48700
X43000Y-49400
X43450Y-39250
X43450Y-39800
X43750Y-44950
X43750Y-45750
X43750Y-46500
X43750Y-47250
X43750Y-48000
X43750Y-48700
X43950Y-39250
X43950Y-39800
X44500Y-44950
X45250Y-44950
X46000Y-44950
X46750Y-44950
X47100Y-35450
X47500Y-44950
X48450Y-32750
X51450Y-34600
X55775Y-45400
X57450Y-38550
X61175Y-45400
X62900Y-33000
X63100Y-46900
X63800Y-38650
X67050Y-47175
T3
X66555Y-51000
X66832Y-50332
X66832Y-51668
X67500Y-50055
X67500Y-51945
X68168Y-50332
X68168Y-51668
X68445Y-51000
X41555Y-31000
X41832Y-30332
X41832Y-31668
X42500Y-30055
X42500Y-31945
X43168Y-30332
X43168Y-31668
X43445Y-31000
X66555Y-31000
X66832Y-30332
X66832Y-31668
X67500Y-30055
X67500Y-31945
X68168Y-30332
X68168Y-31668
X68445Y-31000
X41555Y-51000
X41832Y-50332
X41832Y-51668
X42500Y-50055
X42500Y-51945
X43168Y-50332
X43168Y-51668
X43445Y-51000
T4
X67950Y-47950
X67950Y-48450
X67950Y-48950
X48400Y-30850
X48400Y-31350
X48400Y-31850
T5
X50700Y-46872
X50700Y-48250
X67000Y-43300
X67984Y-43300
T6
X50500Y-34081
X50500Y-36050
X45200Y-50200
X46184Y-50200
X57866Y-31600
X58850Y-31600
X63166Y-31600
X64150Y-31600
X59900Y-49500
X59900Y-50500
X60900Y-49500
X60900Y-50500
X61900Y-49500
X61900Y-50500
X62900Y-49500
X62900Y-50500
X63900Y-49500
X63900Y-50500
X52566Y-31600
X53550Y-31600
T7
X42500Y-31000
X67500Y-31000
X42500Y-51000
X67500Y-51000
T0
M30
