%TF.GenerationSoftware,KiCad,Pcbnew,(5.1.6)-1*%
%TF.CreationDate,2020-11-03T02:47:29-08:00*%
%TF.ProjectId,Power Board V2,506f7765-7220-4426-9f61-72642056322e,rev?*%
%TF.SameCoordinates,Original*%
%TF.FileFunction,Paste,Top*%
%TF.FilePolarity,Positive*%
%FSLAX46Y46*%
G04 Gerber Fmt 4.6, Leading zero omitted, Abs format (unit mm)*
G04 Created by KiCad (PCBNEW (5.1.6)-1) date 2020-11-03 02:47:29*
%MOMM*%
%LPD*%
G01*
G04 APERTURE LIST*
%ADD10C,0.100000*%
%ADD11R,3.000000X3.000000*%
%ADD12R,3.300000X3.300000*%
%ADD13R,0.800000X0.900000*%
%ADD14R,1.560000X0.650000*%
%ADD15R,0.650000X1.560000*%
%ADD16R,2.700000X1.800000*%
G04 APERTURE END LIST*
%TO.C,R2*%
G36*
G01*
X110432001Y-85021000D02*
X109531999Y-85021000D01*
G75*
G02*
X109282000Y-84771001I0J249999D01*
G01*
X109282000Y-84120999D01*
G75*
G02*
X109531999Y-83871000I249999J0D01*
G01*
X110432001Y-83871000D01*
G75*
G02*
X110682000Y-84120999I0J-249999D01*
G01*
X110682000Y-84771001D01*
G75*
G02*
X110432001Y-85021000I-249999J0D01*
G01*
G37*
G36*
G01*
X110432001Y-87071000D02*
X109531999Y-87071000D01*
G75*
G02*
X109282000Y-86821001I0J249999D01*
G01*
X109282000Y-86170999D01*
G75*
G02*
X109531999Y-85921000I249999J0D01*
G01*
X110432001Y-85921000D01*
G75*
G02*
X110682000Y-86170999I0J-249999D01*
G01*
X110682000Y-86821001D01*
G75*
G02*
X110432001Y-87071000I-249999J0D01*
G01*
G37*
%TD*%
D10*
%TO.C,IC1*%
G36*
X118980115Y-83912109D02*
G01*
X119178104Y-84110098D01*
X118138657Y-85149545D01*
X117940668Y-84951556D01*
X118980115Y-83912109D01*
G37*
G36*
X118626562Y-83558556D02*
G01*
X118824551Y-83756545D01*
X117785104Y-84795992D01*
X117587115Y-84598003D01*
X118626562Y-83558556D01*
G37*
G36*
X118273009Y-83205002D02*
G01*
X118470998Y-83402991D01*
X117431551Y-84442438D01*
X117233562Y-84244449D01*
X118273009Y-83205002D01*
G37*
G36*
X117919455Y-82851449D02*
G01*
X118117444Y-83049438D01*
X117077997Y-84088885D01*
X116880008Y-83890896D01*
X117919455Y-82851449D01*
G37*
G36*
X117565902Y-82497896D02*
G01*
X117763891Y-82695885D01*
X116724444Y-83735332D01*
X116526455Y-83537343D01*
X117565902Y-82497896D01*
G37*
G36*
X114525343Y-85538455D02*
G01*
X114723332Y-85736444D01*
X113683885Y-86775891D01*
X113485896Y-86577902D01*
X114525343Y-85538455D01*
G37*
G36*
X114878896Y-85892008D02*
G01*
X115076885Y-86089997D01*
X114037438Y-87129444D01*
X113839449Y-86931455D01*
X114878896Y-85892008D01*
G37*
G36*
X115232449Y-86245562D02*
G01*
X115430438Y-86443551D01*
X114390991Y-87482998D01*
X114193002Y-87285009D01*
X115232449Y-86245562D01*
G37*
G36*
X115586003Y-86599115D02*
G01*
X115783992Y-86797104D01*
X114744545Y-87836551D01*
X114546556Y-87638562D01*
X115586003Y-86599115D01*
G37*
G36*
X115939556Y-86952668D02*
G01*
X116137545Y-87150657D01*
X115098098Y-88190104D01*
X114900109Y-87992115D01*
X115939556Y-86952668D01*
G37*
%TD*%
D11*
%TO.C,L2*%
X163957000Y-111354000D03*
X163957000Y-105054000D03*
%TD*%
%TO.C,L6*%
X142469000Y-125984000D03*
X136169000Y-125984000D03*
%TD*%
%TO.C,L3*%
X139509500Y-87360000D03*
X139509500Y-98060000D03*
%TD*%
%TO.C,L5*%
X153225500Y-87360000D03*
X153225500Y-98060000D03*
%TD*%
%TO.C,L4*%
X168529000Y-96028000D03*
X168529000Y-85328000D03*
%TD*%
%TO.C,R8*%
G36*
G01*
X120456011Y-84871913D02*
X120791887Y-85207789D01*
G75*
G02*
X120791887Y-85543665I-167938J-167938D01*
G01*
X120385301Y-85950251D01*
G75*
G02*
X120049425Y-85950251I-167938J167938D01*
G01*
X119713549Y-85614375D01*
G75*
G02*
X119713549Y-85278499I167938J167938D01*
G01*
X120120135Y-84871913D01*
G75*
G02*
X120456011Y-84871913I167938J-167938D01*
G01*
G37*
G36*
G01*
X119218575Y-86109349D02*
X119554451Y-86445225D01*
G75*
G02*
X119554451Y-86781101I-167938J-167938D01*
G01*
X119147865Y-87187687D01*
G75*
G02*
X118811989Y-87187687I-167938J167938D01*
G01*
X118476113Y-86851811D01*
G75*
G02*
X118476113Y-86515935I167938J167938D01*
G01*
X118882699Y-86109349D01*
G75*
G02*
X119218575Y-86109349I167938J-167938D01*
G01*
G37*
%TD*%
%TO.C,R3*%
G36*
G01*
X120760500Y-79228200D02*
X120285500Y-79228200D01*
G75*
G02*
X120048000Y-78990700I0J237500D01*
G01*
X120048000Y-78415700D01*
G75*
G02*
X120285500Y-78178200I237500J0D01*
G01*
X120760500Y-78178200D01*
G75*
G02*
X120998000Y-78415700I0J-237500D01*
G01*
X120998000Y-78990700D01*
G75*
G02*
X120760500Y-79228200I-237500J0D01*
G01*
G37*
G36*
G01*
X120760500Y-80978200D02*
X120285500Y-80978200D01*
G75*
G02*
X120048000Y-80740700I0J237500D01*
G01*
X120048000Y-80165700D01*
G75*
G02*
X120285500Y-79928200I237500J0D01*
G01*
X120760500Y-79928200D01*
G75*
G02*
X120998000Y-80165700I0J-237500D01*
G01*
X120998000Y-80740700D01*
G75*
G02*
X120760500Y-80978200I-237500J0D01*
G01*
G37*
%TD*%
%TO.C,C8*%
G36*
G01*
X108441500Y-85248000D02*
X107966500Y-85248000D01*
G75*
G02*
X107729000Y-85010500I0J237500D01*
G01*
X107729000Y-84435500D01*
G75*
G02*
X107966500Y-84198000I237500J0D01*
G01*
X108441500Y-84198000D01*
G75*
G02*
X108679000Y-84435500I0J-237500D01*
G01*
X108679000Y-85010500D01*
G75*
G02*
X108441500Y-85248000I-237500J0D01*
G01*
G37*
G36*
G01*
X108441500Y-86998000D02*
X107966500Y-86998000D01*
G75*
G02*
X107729000Y-86760500I0J237500D01*
G01*
X107729000Y-86185500D01*
G75*
G02*
X107966500Y-85948000I237500J0D01*
G01*
X108441500Y-85948000D01*
G75*
G02*
X108679000Y-86185500I0J-237500D01*
G01*
X108679000Y-86760500D01*
G75*
G02*
X108441500Y-86998000I-237500J0D01*
G01*
G37*
%TD*%
%TO.C,R5*%
G36*
G01*
X108441500Y-88931000D02*
X107966500Y-88931000D01*
G75*
G02*
X107729000Y-88693500I0J237500D01*
G01*
X107729000Y-88118500D01*
G75*
G02*
X107966500Y-87881000I237500J0D01*
G01*
X108441500Y-87881000D01*
G75*
G02*
X108679000Y-88118500I0J-237500D01*
G01*
X108679000Y-88693500D01*
G75*
G02*
X108441500Y-88931000I-237500J0D01*
G01*
G37*
G36*
G01*
X108441500Y-90681000D02*
X107966500Y-90681000D01*
G75*
G02*
X107729000Y-90443500I0J237500D01*
G01*
X107729000Y-89868500D01*
G75*
G02*
X107966500Y-89631000I237500J0D01*
G01*
X108441500Y-89631000D01*
G75*
G02*
X108679000Y-89868500I0J-237500D01*
G01*
X108679000Y-90443500D01*
G75*
G02*
X108441500Y-90681000I-237500J0D01*
G01*
G37*
%TD*%
D12*
%TO.C,D1*%
X121094500Y-103622000D03*
X121094500Y-96022000D03*
%TD*%
%TO.C,D2*%
X135191500Y-102372000D03*
X135191500Y-109972000D03*
%TD*%
%TO.C,D4*%
X148907500Y-102372000D03*
X148907500Y-109972000D03*
%TD*%
%TO.C,L1*%
G36*
G01*
X112081500Y-121381500D02*
X112081500Y-116456500D01*
G75*
G02*
X112619000Y-115919000I537500J0D01*
G01*
X113694000Y-115919000D01*
G75*
G02*
X114231500Y-116456500I0J-537500D01*
G01*
X114231500Y-121381500D01*
G75*
G02*
X113694000Y-121919000I-537500J0D01*
G01*
X112619000Y-121919000D01*
G75*
G02*
X112081500Y-121381500I0J537500D01*
G01*
G37*
G36*
G01*
X115511500Y-121381500D02*
X115511500Y-116456500D01*
G75*
G02*
X116049000Y-115919000I537500J0D01*
G01*
X117124000Y-115919000D01*
G75*
G02*
X117661500Y-116456500I0J-537500D01*
G01*
X117661500Y-121381500D01*
G75*
G02*
X117124000Y-121919000I-537500J0D01*
G01*
X116049000Y-121919000D01*
G75*
G02*
X115511500Y-121381500I0J537500D01*
G01*
G37*
G36*
G01*
X115511500Y-111381500D02*
X115511500Y-106456500D01*
G75*
G02*
X116049000Y-105919000I537500J0D01*
G01*
X117124000Y-105919000D01*
G75*
G02*
X117661500Y-106456500I0J-537500D01*
G01*
X117661500Y-111381500D01*
G75*
G02*
X117124000Y-111919000I-537500J0D01*
G01*
X116049000Y-111919000D01*
G75*
G02*
X115511500Y-111381500I0J537500D01*
G01*
G37*
G36*
G01*
X112081500Y-111381500D02*
X112081500Y-106456500D01*
G75*
G02*
X112619000Y-105919000I537500J0D01*
G01*
X113694000Y-105919000D01*
G75*
G02*
X114231500Y-106456500I0J-537500D01*
G01*
X114231500Y-111381500D01*
G75*
G02*
X113694000Y-111919000I-537500J0D01*
G01*
X112619000Y-111919000D01*
G75*
G02*
X112081500Y-111381500I0J537500D01*
G01*
G37*
%TD*%
%TO.C,R1*%
G36*
G01*
X112273501Y-90881000D02*
X111373499Y-90881000D01*
G75*
G02*
X111123500Y-90631001I0J249999D01*
G01*
X111123500Y-89980999D01*
G75*
G02*
X111373499Y-89731000I249999J0D01*
G01*
X112273501Y-89731000D01*
G75*
G02*
X112523500Y-89980999I0J-249999D01*
G01*
X112523500Y-90631001D01*
G75*
G02*
X112273501Y-90881000I-249999J0D01*
G01*
G37*
G36*
G01*
X112273501Y-88831000D02*
X111373499Y-88831000D01*
G75*
G02*
X111123500Y-88581001I0J249999D01*
G01*
X111123500Y-87930999D01*
G75*
G02*
X111373499Y-87681000I249999J0D01*
G01*
X112273501Y-87681000D01*
G75*
G02*
X112523500Y-87930999I0J-249999D01*
G01*
X112523500Y-88581001D01*
G75*
G02*
X112273501Y-88831000I-249999J0D01*
G01*
G37*
%TD*%
%TO.C,Q2*%
G36*
G01*
X111483000Y-96943500D02*
X111783000Y-96943500D01*
G75*
G02*
X111933000Y-97093500I0J-150000D01*
G01*
X111933000Y-98743500D01*
G75*
G02*
X111783000Y-98893500I-150000J0D01*
G01*
X111483000Y-98893500D01*
G75*
G02*
X111333000Y-98743500I0J150000D01*
G01*
X111333000Y-97093500D01*
G75*
G02*
X111483000Y-96943500I150000J0D01*
G01*
G37*
G36*
G01*
X110213000Y-96943500D02*
X110513000Y-96943500D01*
G75*
G02*
X110663000Y-97093500I0J-150000D01*
G01*
X110663000Y-98743500D01*
G75*
G02*
X110513000Y-98893500I-150000J0D01*
G01*
X110213000Y-98893500D01*
G75*
G02*
X110063000Y-98743500I0J150000D01*
G01*
X110063000Y-97093500D01*
G75*
G02*
X110213000Y-96943500I150000J0D01*
G01*
G37*
G36*
G01*
X108943000Y-96943500D02*
X109243000Y-96943500D01*
G75*
G02*
X109393000Y-97093500I0J-150000D01*
G01*
X109393000Y-98743500D01*
G75*
G02*
X109243000Y-98893500I-150000J0D01*
G01*
X108943000Y-98893500D01*
G75*
G02*
X108793000Y-98743500I0J150000D01*
G01*
X108793000Y-97093500D01*
G75*
G02*
X108943000Y-96943500I150000J0D01*
G01*
G37*
G36*
G01*
X107673000Y-96943500D02*
X107973000Y-96943500D01*
G75*
G02*
X108123000Y-97093500I0J-150000D01*
G01*
X108123000Y-98743500D01*
G75*
G02*
X107973000Y-98893500I-150000J0D01*
G01*
X107673000Y-98893500D01*
G75*
G02*
X107523000Y-98743500I0J150000D01*
G01*
X107523000Y-97093500D01*
G75*
G02*
X107673000Y-96943500I150000J0D01*
G01*
G37*
G36*
G01*
X107673000Y-101893500D02*
X107973000Y-101893500D01*
G75*
G02*
X108123000Y-102043500I0J-150000D01*
G01*
X108123000Y-103693500D01*
G75*
G02*
X107973000Y-103843500I-150000J0D01*
G01*
X107673000Y-103843500D01*
G75*
G02*
X107523000Y-103693500I0J150000D01*
G01*
X107523000Y-102043500D01*
G75*
G02*
X107673000Y-101893500I150000J0D01*
G01*
G37*
G36*
G01*
X108943000Y-101893500D02*
X109243000Y-101893500D01*
G75*
G02*
X109393000Y-102043500I0J-150000D01*
G01*
X109393000Y-103693500D01*
G75*
G02*
X109243000Y-103843500I-150000J0D01*
G01*
X108943000Y-103843500D01*
G75*
G02*
X108793000Y-103693500I0J150000D01*
G01*
X108793000Y-102043500D01*
G75*
G02*
X108943000Y-101893500I150000J0D01*
G01*
G37*
G36*
G01*
X110213000Y-101893500D02*
X110513000Y-101893500D01*
G75*
G02*
X110663000Y-102043500I0J-150000D01*
G01*
X110663000Y-103693500D01*
G75*
G02*
X110513000Y-103843500I-150000J0D01*
G01*
X110213000Y-103843500D01*
G75*
G02*
X110063000Y-103693500I0J150000D01*
G01*
X110063000Y-102043500D01*
G75*
G02*
X110213000Y-101893500I150000J0D01*
G01*
G37*
G36*
G01*
X111483000Y-101893500D02*
X111783000Y-101893500D01*
G75*
G02*
X111933000Y-102043500I0J-150000D01*
G01*
X111933000Y-103693500D01*
G75*
G02*
X111783000Y-103843500I-150000J0D01*
G01*
X111483000Y-103843500D01*
G75*
G02*
X111333000Y-103693500I0J150000D01*
G01*
X111333000Y-102043500D01*
G75*
G02*
X111483000Y-101893500I150000J0D01*
G01*
G37*
%TD*%
%TO.C,R7*%
G36*
G01*
X121319425Y-87220251D02*
X120983549Y-86884375D01*
G75*
G02*
X120983549Y-86548499I167938J167938D01*
G01*
X121390135Y-86141913D01*
G75*
G02*
X121726011Y-86141913I167938J-167938D01*
G01*
X122061887Y-86477789D01*
G75*
G02*
X122061887Y-86813665I-167938J-167938D01*
G01*
X121655301Y-87220251D01*
G75*
G02*
X121319425Y-87220251I-167938J167938D01*
G01*
G37*
G36*
G01*
X120081989Y-88457687D02*
X119746113Y-88121811D01*
G75*
G02*
X119746113Y-87785935I167938J167938D01*
G01*
X120152699Y-87379349D01*
G75*
G02*
X120488575Y-87379349I167938J-167938D01*
G01*
X120824451Y-87715225D01*
G75*
G02*
X120824451Y-88051101I-167938J-167938D01*
G01*
X120417865Y-88457687D01*
G75*
G02*
X120081989Y-88457687I-167938J167938D01*
G01*
G37*
%TD*%
%TO.C,C3*%
G36*
G01*
X117633000Y-78375500D02*
X117633000Y-78850500D01*
G75*
G02*
X117395500Y-79088000I-237500J0D01*
G01*
X116820500Y-79088000D01*
G75*
G02*
X116583000Y-78850500I0J237500D01*
G01*
X116583000Y-78375500D01*
G75*
G02*
X116820500Y-78138000I237500J0D01*
G01*
X117395500Y-78138000D01*
G75*
G02*
X117633000Y-78375500I0J-237500D01*
G01*
G37*
G36*
G01*
X119383000Y-78375500D02*
X119383000Y-78850500D01*
G75*
G02*
X119145500Y-79088000I-237500J0D01*
G01*
X118570500Y-79088000D01*
G75*
G02*
X118333000Y-78850500I0J237500D01*
G01*
X118333000Y-78375500D01*
G75*
G02*
X118570500Y-78138000I237500J0D01*
G01*
X119145500Y-78138000D01*
G75*
G02*
X119383000Y-78375500I0J-237500D01*
G01*
G37*
%TD*%
%TO.C,C4*%
G36*
G01*
X119383000Y-80280500D02*
X119383000Y-80755500D01*
G75*
G02*
X119145500Y-80993000I-237500J0D01*
G01*
X118570500Y-80993000D01*
G75*
G02*
X118333000Y-80755500I0J237500D01*
G01*
X118333000Y-80280500D01*
G75*
G02*
X118570500Y-80043000I237500J0D01*
G01*
X119145500Y-80043000D01*
G75*
G02*
X119383000Y-80280500I0J-237500D01*
G01*
G37*
G36*
G01*
X117633000Y-80280500D02*
X117633000Y-80755500D01*
G75*
G02*
X117395500Y-80993000I-237500J0D01*
G01*
X116820500Y-80993000D01*
G75*
G02*
X116583000Y-80755500I0J237500D01*
G01*
X116583000Y-80280500D01*
G75*
G02*
X116820500Y-80043000I237500J0D01*
G01*
X117395500Y-80043000D01*
G75*
G02*
X117633000Y-80280500I0J-237500D01*
G01*
G37*
%TD*%
%TO.C,C5*%
G36*
G01*
X117414989Y-91073887D02*
X117079113Y-90738011D01*
G75*
G02*
X117079113Y-90402135I167938J167938D01*
G01*
X117485699Y-89995549D01*
G75*
G02*
X117821575Y-89995549I167938J-167938D01*
G01*
X118157451Y-90331425D01*
G75*
G02*
X118157451Y-90667301I-167938J-167938D01*
G01*
X117750865Y-91073887D01*
G75*
G02*
X117414989Y-91073887I-167938J167938D01*
G01*
G37*
G36*
G01*
X118652425Y-89836451D02*
X118316549Y-89500575D01*
G75*
G02*
X118316549Y-89164699I167938J167938D01*
G01*
X118723135Y-88758113D01*
G75*
G02*
X119059011Y-88758113I167938J-167938D01*
G01*
X119394887Y-89093989D01*
G75*
G02*
X119394887Y-89429865I-167938J-167938D01*
G01*
X118988301Y-89836451D01*
G75*
G02*
X118652425Y-89836451I-167938J167938D01*
G01*
G37*
%TD*%
%TO.C,C7*%
G36*
G01*
X117382425Y-88566451D02*
X117046549Y-88230575D01*
G75*
G02*
X117046549Y-87894699I167938J167938D01*
G01*
X117453135Y-87488113D01*
G75*
G02*
X117789011Y-87488113I167938J-167938D01*
G01*
X118124887Y-87823989D01*
G75*
G02*
X118124887Y-88159865I-167938J-167938D01*
G01*
X117718301Y-88566451D01*
G75*
G02*
X117382425Y-88566451I-167938J167938D01*
G01*
G37*
G36*
G01*
X116144989Y-89803887D02*
X115809113Y-89468011D01*
G75*
G02*
X115809113Y-89132135I167938J167938D01*
G01*
X116215699Y-88725549D01*
G75*
G02*
X116551575Y-88725549I167938J-167938D01*
G01*
X116887451Y-89061425D01*
G75*
G02*
X116887451Y-89397301I-167938J-167938D01*
G01*
X116480865Y-89803887D01*
G75*
G02*
X116144989Y-89803887I-167938J167938D01*
G01*
G37*
%TD*%
%TO.C,C9*%
G36*
G01*
X116655001Y-99453500D02*
X115754999Y-99453500D01*
G75*
G02*
X115505000Y-99203501I0J249999D01*
G01*
X115505000Y-98553499D01*
G75*
G02*
X115754999Y-98303500I249999J0D01*
G01*
X116655001Y-98303500D01*
G75*
G02*
X116905000Y-98553499I0J-249999D01*
G01*
X116905000Y-99203501D01*
G75*
G02*
X116655001Y-99453500I-249999J0D01*
G01*
G37*
G36*
G01*
X116655001Y-97403500D02*
X115754999Y-97403500D01*
G75*
G02*
X115505000Y-97153501I0J249999D01*
G01*
X115505000Y-96503499D01*
G75*
G02*
X115754999Y-96253500I249999J0D01*
G01*
X116655001Y-96253500D01*
G75*
G02*
X116905000Y-96503499I0J-249999D01*
G01*
X116905000Y-97153501D01*
G75*
G02*
X116655001Y-97403500I-249999J0D01*
G01*
G37*
%TD*%
%TO.C,C12*%
G36*
G01*
X159062000Y-115754999D02*
X159062000Y-116655001D01*
G75*
G02*
X158812001Y-116905000I-249999J0D01*
G01*
X158161999Y-116905000D01*
G75*
G02*
X157912000Y-116655001I0J249999D01*
G01*
X157912000Y-115754999D01*
G75*
G02*
X158161999Y-115505000I249999J0D01*
G01*
X158812001Y-115505000D01*
G75*
G02*
X159062000Y-115754999I0J-249999D01*
G01*
G37*
G36*
G01*
X161112000Y-115754999D02*
X161112000Y-116655001D01*
G75*
G02*
X160862001Y-116905000I-249999J0D01*
G01*
X160211999Y-116905000D01*
G75*
G02*
X159962000Y-116655001I0J249999D01*
G01*
X159962000Y-115754999D01*
G75*
G02*
X160211999Y-115505000I249999J0D01*
G01*
X160862001Y-115505000D01*
G75*
G02*
X161112000Y-115754999I0J-249999D01*
G01*
G37*
%TD*%
%TO.C,C13*%
G36*
G01*
X169995001Y-117106500D02*
X169094999Y-117106500D01*
G75*
G02*
X168845000Y-116856501I0J249999D01*
G01*
X168845000Y-116206499D01*
G75*
G02*
X169094999Y-115956500I249999J0D01*
G01*
X169995001Y-115956500D01*
G75*
G02*
X170245000Y-116206499I0J-249999D01*
G01*
X170245000Y-116856501D01*
G75*
G02*
X169995001Y-117106500I-249999J0D01*
G01*
G37*
G36*
G01*
X169995001Y-115056500D02*
X169094999Y-115056500D01*
G75*
G02*
X168845000Y-114806501I0J249999D01*
G01*
X168845000Y-114156499D01*
G75*
G02*
X169094999Y-113906500I249999J0D01*
G01*
X169995001Y-113906500D01*
G75*
G02*
X170245000Y-114156499I0J-249999D01*
G01*
X170245000Y-114806501D01*
G75*
G02*
X169995001Y-115056500I-249999J0D01*
G01*
G37*
%TD*%
%TO.C,C14*%
G36*
G01*
X169856999Y-102794000D02*
X170757001Y-102794000D01*
G75*
G02*
X171007000Y-103043999I0J-249999D01*
G01*
X171007000Y-103694001D01*
G75*
G02*
X170757001Y-103944000I-249999J0D01*
G01*
X169856999Y-103944000D01*
G75*
G02*
X169607000Y-103694001I0J249999D01*
G01*
X169607000Y-103043999D01*
G75*
G02*
X169856999Y-102794000I249999J0D01*
G01*
G37*
G36*
G01*
X169856999Y-104844000D02*
X170757001Y-104844000D01*
G75*
G02*
X171007000Y-105093999I0J-249999D01*
G01*
X171007000Y-105744001D01*
G75*
G02*
X170757001Y-105994000I-249999J0D01*
G01*
X169856999Y-105994000D01*
G75*
G02*
X169607000Y-105744001I0J249999D01*
G01*
X169607000Y-105093999D01*
G75*
G02*
X169856999Y-104844000I249999J0D01*
G01*
G37*
%TD*%
%TO.C,C15*%
G36*
G01*
X141166000Y-103193001D02*
X141166000Y-102292999D01*
G75*
G02*
X141415999Y-102043000I249999J0D01*
G01*
X142066001Y-102043000D01*
G75*
G02*
X142316000Y-102292999I0J-249999D01*
G01*
X142316000Y-103193001D01*
G75*
G02*
X142066001Y-103443000I-249999J0D01*
G01*
X141415999Y-103443000D01*
G75*
G02*
X141166000Y-103193001I0J249999D01*
G01*
G37*
G36*
G01*
X139116000Y-103193001D02*
X139116000Y-102292999D01*
G75*
G02*
X139365999Y-102043000I249999J0D01*
G01*
X140016001Y-102043000D01*
G75*
G02*
X140266000Y-102292999I0J-249999D01*
G01*
X140266000Y-103193001D01*
G75*
G02*
X140016001Y-103443000I-249999J0D01*
G01*
X139365999Y-103443000D01*
G75*
G02*
X139116000Y-103193001I0J249999D01*
G01*
G37*
%TD*%
%TO.C,C16*%
G36*
G01*
X136220000Y-83750999D02*
X136220000Y-84651001D01*
G75*
G02*
X135970001Y-84901000I-249999J0D01*
G01*
X135319999Y-84901000D01*
G75*
G02*
X135070000Y-84651001I0J249999D01*
G01*
X135070000Y-83750999D01*
G75*
G02*
X135319999Y-83501000I249999J0D01*
G01*
X135970001Y-83501000D01*
G75*
G02*
X136220000Y-83750999I0J-249999D01*
G01*
G37*
G36*
G01*
X134170000Y-83750999D02*
X134170000Y-84651001D01*
G75*
G02*
X133920001Y-84901000I-249999J0D01*
G01*
X133269999Y-84901000D01*
G75*
G02*
X133020000Y-84651001I0J249999D01*
G01*
X133020000Y-83750999D01*
G75*
G02*
X133269999Y-83501000I249999J0D01*
G01*
X133920001Y-83501000D01*
G75*
G02*
X134170000Y-83750999I0J-249999D01*
G01*
G37*
%TD*%
%TO.C,C17*%
G36*
G01*
X161220999Y-83744000D02*
X162121001Y-83744000D01*
G75*
G02*
X162371000Y-83993999I0J-249999D01*
G01*
X162371000Y-84644001D01*
G75*
G02*
X162121001Y-84894000I-249999J0D01*
G01*
X161220999Y-84894000D01*
G75*
G02*
X160971000Y-84644001I0J249999D01*
G01*
X160971000Y-83993999D01*
G75*
G02*
X161220999Y-83744000I249999J0D01*
G01*
G37*
G36*
G01*
X161220999Y-85794000D02*
X162121001Y-85794000D01*
G75*
G02*
X162371000Y-86043999I0J-249999D01*
G01*
X162371000Y-86694001D01*
G75*
G02*
X162121001Y-86944000I-249999J0D01*
G01*
X161220999Y-86944000D01*
G75*
G02*
X160971000Y-86694001I0J249999D01*
G01*
X160971000Y-86043999D01*
G75*
G02*
X161220999Y-85794000I249999J0D01*
G01*
G37*
%TD*%
%TO.C,C18*%
G36*
G01*
X154882000Y-103193001D02*
X154882000Y-102292999D01*
G75*
G02*
X155131999Y-102043000I249999J0D01*
G01*
X155782001Y-102043000D01*
G75*
G02*
X156032000Y-102292999I0J-249999D01*
G01*
X156032000Y-103193001D01*
G75*
G02*
X155782001Y-103443000I-249999J0D01*
G01*
X155131999Y-103443000D01*
G75*
G02*
X154882000Y-103193001I0J249999D01*
G01*
G37*
G36*
G01*
X152832000Y-103193001D02*
X152832000Y-102292999D01*
G75*
G02*
X153081999Y-102043000I249999J0D01*
G01*
X153732001Y-102043000D01*
G75*
G02*
X153982000Y-102292999I0J-249999D01*
G01*
X153982000Y-103193001D01*
G75*
G02*
X153732001Y-103443000I-249999J0D01*
G01*
X153081999Y-103443000D01*
G75*
G02*
X152832000Y-103193001I0J249999D01*
G01*
G37*
%TD*%
%TO.C,C19*%
G36*
G01*
X149682000Y-83750999D02*
X149682000Y-84651001D01*
G75*
G02*
X149432001Y-84901000I-249999J0D01*
G01*
X148781999Y-84901000D01*
G75*
G02*
X148532000Y-84651001I0J249999D01*
G01*
X148532000Y-83750999D01*
G75*
G02*
X148781999Y-83501000I249999J0D01*
G01*
X149432001Y-83501000D01*
G75*
G02*
X149682000Y-83750999I0J-249999D01*
G01*
G37*
G36*
G01*
X147632000Y-83750999D02*
X147632000Y-84651001D01*
G75*
G02*
X147382001Y-84901000I-249999J0D01*
G01*
X146731999Y-84901000D01*
G75*
G02*
X146482000Y-84651001I0J249999D01*
G01*
X146482000Y-83750999D01*
G75*
G02*
X146731999Y-83501000I249999J0D01*
G01*
X147382001Y-83501000D01*
G75*
G02*
X147632000Y-83750999I0J-249999D01*
G01*
G37*
%TD*%
%TO.C,C20*%
G36*
G01*
X131958501Y-122803500D02*
X131058499Y-122803500D01*
G75*
G02*
X130808500Y-122553501I0J249999D01*
G01*
X130808500Y-121903499D01*
G75*
G02*
X131058499Y-121653500I249999J0D01*
G01*
X131958501Y-121653500D01*
G75*
G02*
X132208500Y-121903499I0J-249999D01*
G01*
X132208500Y-122553501D01*
G75*
G02*
X131958501Y-122803500I-249999J0D01*
G01*
G37*
G36*
G01*
X131958501Y-124853500D02*
X131058499Y-124853500D01*
G75*
G02*
X130808500Y-124603501I0J249999D01*
G01*
X130808500Y-123953499D01*
G75*
G02*
X131058499Y-123703500I249999J0D01*
G01*
X131958501Y-123703500D01*
G75*
G02*
X132208500Y-123953499I0J-249999D01*
G01*
X132208500Y-124603501D01*
G75*
G02*
X131958501Y-124853500I-249999J0D01*
G01*
G37*
%TD*%
%TO.C,C21*%
G36*
G01*
X128720001Y-130886000D02*
X127819999Y-130886000D01*
G75*
G02*
X127570000Y-130636001I0J249999D01*
G01*
X127570000Y-129985999D01*
G75*
G02*
X127819999Y-129736000I249999J0D01*
G01*
X128720001Y-129736000D01*
G75*
G02*
X128970000Y-129985999I0J-249999D01*
G01*
X128970000Y-130636001D01*
G75*
G02*
X128720001Y-130886000I-249999J0D01*
G01*
G37*
G36*
G01*
X128720001Y-128836000D02*
X127819999Y-128836000D01*
G75*
G02*
X127570000Y-128586001I0J249999D01*
G01*
X127570000Y-127935999D01*
G75*
G02*
X127819999Y-127686000I249999J0D01*
G01*
X128720001Y-127686000D01*
G75*
G02*
X128970000Y-127935999I0J-249999D01*
G01*
X128970000Y-128586001D01*
G75*
G02*
X128720001Y-128836000I-249999J0D01*
G01*
G37*
%TD*%
%TO.C,C22*%
G36*
G01*
X145980999Y-127958000D02*
X146881001Y-127958000D01*
G75*
G02*
X147131000Y-128207999I0J-249999D01*
G01*
X147131000Y-128858001D01*
G75*
G02*
X146881001Y-129108000I-249999J0D01*
G01*
X145980999Y-129108000D01*
G75*
G02*
X145731000Y-128858001I0J249999D01*
G01*
X145731000Y-128207999D01*
G75*
G02*
X145980999Y-127958000I249999J0D01*
G01*
G37*
G36*
G01*
X145980999Y-125908000D02*
X146881001Y-125908000D01*
G75*
G02*
X147131000Y-126157999I0J-249999D01*
G01*
X147131000Y-126808001D01*
G75*
G02*
X146881001Y-127058000I-249999J0D01*
G01*
X145980999Y-127058000D01*
G75*
G02*
X145731000Y-126808001I0J249999D01*
G01*
X145731000Y-126157999D01*
G75*
G02*
X145980999Y-125908000I249999J0D01*
G01*
G37*
%TD*%
D13*
%TO.C,Q4*%
X170622000Y-99584000D03*
X168722000Y-99584000D03*
X169672000Y-101584000D03*
%TD*%
%TO.C,R4*%
G36*
G01*
X112597828Y-85650569D02*
X111961431Y-85014172D01*
G75*
G02*
X111961431Y-84660620I176776J176776D01*
G01*
X112421052Y-84200999D01*
G75*
G02*
X112774604Y-84200999I176776J-176776D01*
G01*
X113411001Y-84837396D01*
G75*
G02*
X113411001Y-85190948I-176776J-176776D01*
G01*
X112951380Y-85650569D01*
G75*
G02*
X112597828Y-85650569I-176776J176776D01*
G01*
G37*
G36*
G01*
X114047396Y-84201001D02*
X113410999Y-83564604D01*
G75*
G02*
X113410999Y-83211052I176776J176776D01*
G01*
X113870620Y-82751431D01*
G75*
G02*
X114224172Y-82751431I176776J-176776D01*
G01*
X114860569Y-83387828D01*
G75*
G02*
X114860569Y-83741380I-176776J-176776D01*
G01*
X114400948Y-84201001D01*
G75*
G02*
X114047396Y-84201001I-176776J176776D01*
G01*
G37*
%TD*%
%TO.C,R6*%
G36*
G01*
X110195000Y-95811500D02*
X110195000Y-94561500D01*
G75*
G02*
X110445000Y-94311500I250000J0D01*
G01*
X111370000Y-94311500D01*
G75*
G02*
X111620000Y-94561500I0J-250000D01*
G01*
X111620000Y-95811500D01*
G75*
G02*
X111370000Y-96061500I-250000J0D01*
G01*
X110445000Y-96061500D01*
G75*
G02*
X110195000Y-95811500I0J250000D01*
G01*
G37*
G36*
G01*
X113170000Y-95811500D02*
X113170000Y-94561500D01*
G75*
G02*
X113420000Y-94311500I250000J0D01*
G01*
X114345000Y-94311500D01*
G75*
G02*
X114595000Y-94561500I0J-250000D01*
G01*
X114595000Y-95811500D01*
G75*
G02*
X114345000Y-96061500I-250000J0D01*
G01*
X113420000Y-96061500D01*
G75*
G02*
X113170000Y-95811500I0J250000D01*
G01*
G37*
%TD*%
%TO.C,R10*%
G36*
G01*
X144021000Y-130826500D02*
X144021000Y-131301500D01*
G75*
G02*
X143783500Y-131539000I-237500J0D01*
G01*
X143208500Y-131539000D01*
G75*
G02*
X142971000Y-131301500I0J237500D01*
G01*
X142971000Y-130826500D01*
G75*
G02*
X143208500Y-130589000I237500J0D01*
G01*
X143783500Y-130589000D01*
G75*
G02*
X144021000Y-130826500I0J-237500D01*
G01*
G37*
G36*
G01*
X142271000Y-130826500D02*
X142271000Y-131301500D01*
G75*
G02*
X142033500Y-131539000I-237500J0D01*
G01*
X141458500Y-131539000D01*
G75*
G02*
X141221000Y-131301500I0J237500D01*
G01*
X141221000Y-130826500D01*
G75*
G02*
X141458500Y-130589000I237500J0D01*
G01*
X142033500Y-130589000D01*
G75*
G02*
X142271000Y-130826500I0J-237500D01*
G01*
G37*
%TD*%
%TO.C,R11*%
G36*
G01*
X136113000Y-131301500D02*
X136113000Y-130826500D01*
G75*
G02*
X136350500Y-130589000I237500J0D01*
G01*
X136925500Y-130589000D01*
G75*
G02*
X137163000Y-130826500I0J-237500D01*
G01*
X137163000Y-131301500D01*
G75*
G02*
X136925500Y-131539000I-237500J0D01*
G01*
X136350500Y-131539000D01*
G75*
G02*
X136113000Y-131301500I0J237500D01*
G01*
G37*
G36*
G01*
X134363000Y-131301500D02*
X134363000Y-130826500D01*
G75*
G02*
X134600500Y-130589000I237500J0D01*
G01*
X135175500Y-130589000D01*
G75*
G02*
X135413000Y-130826500I0J-237500D01*
G01*
X135413000Y-131301500D01*
G75*
G02*
X135175500Y-131539000I-237500J0D01*
G01*
X134600500Y-131539000D01*
G75*
G02*
X134363000Y-131301500I0J237500D01*
G01*
G37*
%TD*%
%TO.C,R12*%
G36*
G01*
X171212500Y-116047000D02*
X171687500Y-116047000D01*
G75*
G02*
X171925000Y-116284500I0J-237500D01*
G01*
X171925000Y-116859500D01*
G75*
G02*
X171687500Y-117097000I-237500J0D01*
G01*
X171212500Y-117097000D01*
G75*
G02*
X170975000Y-116859500I0J237500D01*
G01*
X170975000Y-116284500D01*
G75*
G02*
X171212500Y-116047000I237500J0D01*
G01*
G37*
G36*
G01*
X171212500Y-114297000D02*
X171687500Y-114297000D01*
G75*
G02*
X171925000Y-114534500I0J-237500D01*
G01*
X171925000Y-115109500D01*
G75*
G02*
X171687500Y-115347000I-237500J0D01*
G01*
X171212500Y-115347000D01*
G75*
G02*
X170975000Y-115109500I0J237500D01*
G01*
X170975000Y-114534500D01*
G75*
G02*
X171212500Y-114297000I237500J0D01*
G01*
G37*
%TD*%
%TO.C,R13*%
G36*
G01*
X173592500Y-117097000D02*
X173117500Y-117097000D01*
G75*
G02*
X172880000Y-116859500I0J237500D01*
G01*
X172880000Y-116284500D01*
G75*
G02*
X173117500Y-116047000I237500J0D01*
G01*
X173592500Y-116047000D01*
G75*
G02*
X173830000Y-116284500I0J-237500D01*
G01*
X173830000Y-116859500D01*
G75*
G02*
X173592500Y-117097000I-237500J0D01*
G01*
G37*
G36*
G01*
X173592500Y-115347000D02*
X173117500Y-115347000D01*
G75*
G02*
X172880000Y-115109500I0J237500D01*
G01*
X172880000Y-114534500D01*
G75*
G02*
X173117500Y-114297000I237500J0D01*
G01*
X173592500Y-114297000D01*
G75*
G02*
X173830000Y-114534500I0J-237500D01*
G01*
X173830000Y-115109500D01*
G75*
G02*
X173592500Y-115347000I-237500J0D01*
G01*
G37*
%TD*%
%TO.C,R14*%
G36*
G01*
X140239000Y-111332000D02*
X140239000Y-111807000D01*
G75*
G02*
X140001500Y-112044500I-237500J0D01*
G01*
X139426500Y-112044500D01*
G75*
G02*
X139189000Y-111807000I0J237500D01*
G01*
X139189000Y-111332000D01*
G75*
G02*
X139426500Y-111094500I237500J0D01*
G01*
X140001500Y-111094500D01*
G75*
G02*
X140239000Y-111332000I0J-237500D01*
G01*
G37*
G36*
G01*
X141989000Y-111332000D02*
X141989000Y-111807000D01*
G75*
G02*
X141751500Y-112044500I-237500J0D01*
G01*
X141176500Y-112044500D01*
G75*
G02*
X140939000Y-111807000I0J237500D01*
G01*
X140939000Y-111332000D01*
G75*
G02*
X141176500Y-111094500I237500J0D01*
G01*
X141751500Y-111094500D01*
G75*
G02*
X141989000Y-111332000I0J-237500D01*
G01*
G37*
%TD*%
%TO.C,R15*%
G36*
G01*
X143329500Y-104162500D02*
X144579500Y-104162500D01*
G75*
G02*
X144829500Y-104412500I0J-250000D01*
G01*
X144829500Y-105337500D01*
G75*
G02*
X144579500Y-105587500I-250000J0D01*
G01*
X143329500Y-105587500D01*
G75*
G02*
X143079500Y-105337500I0J250000D01*
G01*
X143079500Y-104412500D01*
G75*
G02*
X143329500Y-104162500I250000J0D01*
G01*
G37*
G36*
G01*
X143329500Y-107137500D02*
X144579500Y-107137500D01*
G75*
G02*
X144829500Y-107387500I0J-250000D01*
G01*
X144829500Y-108312500D01*
G75*
G02*
X144579500Y-108562500I-250000J0D01*
G01*
X143329500Y-108562500D01*
G75*
G02*
X143079500Y-108312500I0J250000D01*
G01*
X143079500Y-107387500D01*
G75*
G02*
X143329500Y-107137500I250000J0D01*
G01*
G37*
%TD*%
%TO.C,R16*%
G36*
G01*
X172830500Y-101970000D02*
X172355500Y-101970000D01*
G75*
G02*
X172118000Y-101732500I0J237500D01*
G01*
X172118000Y-101157500D01*
G75*
G02*
X172355500Y-100920000I237500J0D01*
G01*
X172830500Y-100920000D01*
G75*
G02*
X173068000Y-101157500I0J-237500D01*
G01*
X173068000Y-101732500D01*
G75*
G02*
X172830500Y-101970000I-237500J0D01*
G01*
G37*
G36*
G01*
X172830500Y-100220000D02*
X172355500Y-100220000D01*
G75*
G02*
X172118000Y-99982500I0J237500D01*
G01*
X172118000Y-99407500D01*
G75*
G02*
X172355500Y-99170000I237500J0D01*
G01*
X172830500Y-99170000D01*
G75*
G02*
X173068000Y-99407500I0J-237500D01*
G01*
X173068000Y-99982500D01*
G75*
G02*
X172830500Y-100220000I-237500J0D01*
G01*
G37*
%TD*%
%TO.C,R17*%
G36*
G01*
X173719500Y-104044000D02*
X173244500Y-104044000D01*
G75*
G02*
X173007000Y-103806500I0J237500D01*
G01*
X173007000Y-103231500D01*
G75*
G02*
X173244500Y-102994000I237500J0D01*
G01*
X173719500Y-102994000D01*
G75*
G02*
X173957000Y-103231500I0J-237500D01*
G01*
X173957000Y-103806500D01*
G75*
G02*
X173719500Y-104044000I-237500J0D01*
G01*
G37*
G36*
G01*
X173719500Y-105794000D02*
X173244500Y-105794000D01*
G75*
G02*
X173007000Y-105556500I0J237500D01*
G01*
X173007000Y-104981500D01*
G75*
G02*
X173244500Y-104744000I237500J0D01*
G01*
X173719500Y-104744000D01*
G75*
G02*
X173957000Y-104981500I0J-237500D01*
G01*
X173957000Y-105556500D01*
G75*
G02*
X173719500Y-105794000I-237500J0D01*
G01*
G37*
%TD*%
%TO.C,R18*%
G36*
G01*
X161687500Y-90901000D02*
X162162500Y-90901000D01*
G75*
G02*
X162400000Y-91138500I0J-237500D01*
G01*
X162400000Y-91713500D01*
G75*
G02*
X162162500Y-91951000I-237500J0D01*
G01*
X161687500Y-91951000D01*
G75*
G02*
X161450000Y-91713500I0J237500D01*
G01*
X161450000Y-91138500D01*
G75*
G02*
X161687500Y-90901000I237500J0D01*
G01*
G37*
G36*
G01*
X161687500Y-89151000D02*
X162162500Y-89151000D01*
G75*
G02*
X162400000Y-89388500I0J-237500D01*
G01*
X162400000Y-89963500D01*
G75*
G02*
X162162500Y-90201000I-237500J0D01*
G01*
X161687500Y-90201000D01*
G75*
G02*
X161450000Y-89963500I0J237500D01*
G01*
X161450000Y-89388500D01*
G75*
G02*
X161687500Y-89151000I237500J0D01*
G01*
G37*
%TD*%
%TO.C,R19*%
G36*
G01*
X162162500Y-95888000D02*
X161687500Y-95888000D01*
G75*
G02*
X161450000Y-95650500I0J237500D01*
G01*
X161450000Y-95075500D01*
G75*
G02*
X161687500Y-94838000I237500J0D01*
G01*
X162162500Y-94838000D01*
G75*
G02*
X162400000Y-95075500I0J-237500D01*
G01*
X162400000Y-95650500D01*
G75*
G02*
X162162500Y-95888000I-237500J0D01*
G01*
G37*
G36*
G01*
X162162500Y-94138000D02*
X161687500Y-94138000D01*
G75*
G02*
X161450000Y-93900500I0J237500D01*
G01*
X161450000Y-93325500D01*
G75*
G02*
X161687500Y-93088000I237500J0D01*
G01*
X162162500Y-93088000D01*
G75*
G02*
X162400000Y-93325500I0J-237500D01*
G01*
X162400000Y-93900500D01*
G75*
G02*
X162162500Y-94138000I-237500J0D01*
G01*
G37*
%TD*%
%TO.C,R20*%
G36*
G01*
X155705000Y-111395500D02*
X155705000Y-111870500D01*
G75*
G02*
X155467500Y-112108000I-237500J0D01*
G01*
X154892500Y-112108000D01*
G75*
G02*
X154655000Y-111870500I0J237500D01*
G01*
X154655000Y-111395500D01*
G75*
G02*
X154892500Y-111158000I237500J0D01*
G01*
X155467500Y-111158000D01*
G75*
G02*
X155705000Y-111395500I0J-237500D01*
G01*
G37*
G36*
G01*
X153955000Y-111395500D02*
X153955000Y-111870500D01*
G75*
G02*
X153717500Y-112108000I-237500J0D01*
G01*
X153142500Y-112108000D01*
G75*
G02*
X152905000Y-111870500I0J237500D01*
G01*
X152905000Y-111395500D01*
G75*
G02*
X153142500Y-111158000I237500J0D01*
G01*
X153717500Y-111158000D01*
G75*
G02*
X153955000Y-111395500I0J-237500D01*
G01*
G37*
%TD*%
%TO.C,R21*%
G36*
G01*
X157058200Y-104162500D02*
X158308200Y-104162500D01*
G75*
G02*
X158558200Y-104412500I0J-250000D01*
G01*
X158558200Y-105337500D01*
G75*
G02*
X158308200Y-105587500I-250000J0D01*
G01*
X157058200Y-105587500D01*
G75*
G02*
X156808200Y-105337500I0J250000D01*
G01*
X156808200Y-104412500D01*
G75*
G02*
X157058200Y-104162500I250000J0D01*
G01*
G37*
G36*
G01*
X157058200Y-107137500D02*
X158308200Y-107137500D01*
G75*
G02*
X158558200Y-107387500I0J-250000D01*
G01*
X158558200Y-108312500D01*
G75*
G02*
X158308200Y-108562500I-250000J0D01*
G01*
X157058200Y-108562500D01*
G75*
G02*
X156808200Y-108312500I0J250000D01*
G01*
X156808200Y-107387500D01*
G75*
G02*
X157058200Y-107137500I250000J0D01*
G01*
G37*
%TD*%
D14*
%TO.C,U1*%
X165307000Y-116393000D03*
X165307000Y-115443000D03*
X165307000Y-114493000D03*
X162607000Y-114493000D03*
X162607000Y-116393000D03*
X162607000Y-115443000D03*
%TD*%
D15*
%TO.C,U2*%
X139766000Y-105012500D03*
X141666000Y-105012500D03*
X141666000Y-107712500D03*
X140716000Y-107712500D03*
X139766000Y-107712500D03*
%TD*%
%TO.C,U3*%
X153482000Y-107712500D03*
X154432000Y-107712500D03*
X155382000Y-107712500D03*
X155382000Y-105012500D03*
X153482000Y-105012500D03*
%TD*%
%TO.C,U4*%
X130495000Y-129112000D03*
X131445000Y-129112000D03*
X132395000Y-129112000D03*
X132395000Y-126412000D03*
X130495000Y-126412000D03*
X131445000Y-126412000D03*
%TD*%
%TO.C,C2*%
G36*
G01*
X114485000Y-122866999D02*
X114485000Y-123767001D01*
G75*
G02*
X114235001Y-124017000I-249999J0D01*
G01*
X113584999Y-124017000D01*
G75*
G02*
X113335000Y-123767001I0J249999D01*
G01*
X113335000Y-122866999D01*
G75*
G02*
X113584999Y-122617000I249999J0D01*
G01*
X114235001Y-122617000D01*
G75*
G02*
X114485000Y-122866999I0J-249999D01*
G01*
G37*
G36*
G01*
X116535000Y-122866999D02*
X116535000Y-123767001D01*
G75*
G02*
X116285001Y-124017000I-249999J0D01*
G01*
X115634999Y-124017000D01*
G75*
G02*
X115385000Y-123767001I0J249999D01*
G01*
X115385000Y-122866999D01*
G75*
G02*
X115634999Y-122617000I249999J0D01*
G01*
X116285001Y-122617000D01*
G75*
G02*
X116535000Y-122866999I0J-249999D01*
G01*
G37*
%TD*%
%TO.C,C6*%
G36*
G01*
X113652500Y-103777201D02*
X113652500Y-102877199D01*
G75*
G02*
X113902499Y-102627200I249999J0D01*
G01*
X114552501Y-102627200D01*
G75*
G02*
X114802500Y-102877199I0J-249999D01*
G01*
X114802500Y-103777201D01*
G75*
G02*
X114552501Y-104027200I-249999J0D01*
G01*
X113902499Y-104027200D01*
G75*
G02*
X113652500Y-103777201I0J249999D01*
G01*
G37*
G36*
G01*
X115702500Y-103777201D02*
X115702500Y-102877199D01*
G75*
G02*
X115952499Y-102627200I249999J0D01*
G01*
X116602501Y-102627200D01*
G75*
G02*
X116852500Y-102877199I0J-249999D01*
G01*
X116852500Y-103777201D01*
G75*
G02*
X116602501Y-104027200I-249999J0D01*
G01*
X115952499Y-104027200D01*
G75*
G02*
X115702500Y-103777201I0J249999D01*
G01*
G37*
%TD*%
%TO.C,R22*%
G36*
G01*
X123667000Y-116061500D02*
X123667000Y-115586500D01*
G75*
G02*
X123904500Y-115349000I237500J0D01*
G01*
X124479500Y-115349000D01*
G75*
G02*
X124717000Y-115586500I0J-237500D01*
G01*
X124717000Y-116061500D01*
G75*
G02*
X124479500Y-116299000I-237500J0D01*
G01*
X123904500Y-116299000D01*
G75*
G02*
X123667000Y-116061500I0J237500D01*
G01*
G37*
G36*
G01*
X121917000Y-116061500D02*
X121917000Y-115586500D01*
G75*
G02*
X122154500Y-115349000I237500J0D01*
G01*
X122729500Y-115349000D01*
G75*
G02*
X122967000Y-115586500I0J-237500D01*
G01*
X122967000Y-116061500D01*
G75*
G02*
X122729500Y-116299000I-237500J0D01*
G01*
X122154500Y-116299000D01*
G75*
G02*
X121917000Y-116061500I0J237500D01*
G01*
G37*
%TD*%
%TO.C,R23*%
G36*
G01*
X124717000Y-113808500D02*
X124717000Y-114283500D01*
G75*
G02*
X124479500Y-114521000I-237500J0D01*
G01*
X123904500Y-114521000D01*
G75*
G02*
X123667000Y-114283500I0J237500D01*
G01*
X123667000Y-113808500D01*
G75*
G02*
X123904500Y-113571000I237500J0D01*
G01*
X124479500Y-113571000D01*
G75*
G02*
X124717000Y-113808500I0J-237500D01*
G01*
G37*
G36*
G01*
X122967000Y-113808500D02*
X122967000Y-114283500D01*
G75*
G02*
X122729500Y-114521000I-237500J0D01*
G01*
X122154500Y-114521000D01*
G75*
G02*
X121917000Y-114283500I0J237500D01*
G01*
X121917000Y-113808500D01*
G75*
G02*
X122154500Y-113571000I237500J0D01*
G01*
X122729500Y-113571000D01*
G75*
G02*
X122967000Y-113808500I0J-237500D01*
G01*
G37*
%TD*%
%TO.C,R24*%
G36*
G01*
X125492500Y-102204000D02*
X125967500Y-102204000D01*
G75*
G02*
X126205000Y-102441500I0J-237500D01*
G01*
X126205000Y-103016500D01*
G75*
G02*
X125967500Y-103254000I-237500J0D01*
G01*
X125492500Y-103254000D01*
G75*
G02*
X125255000Y-103016500I0J237500D01*
G01*
X125255000Y-102441500D01*
G75*
G02*
X125492500Y-102204000I237500J0D01*
G01*
G37*
G36*
G01*
X125492500Y-100454000D02*
X125967500Y-100454000D01*
G75*
G02*
X126205000Y-100691500I0J-237500D01*
G01*
X126205000Y-101266500D01*
G75*
G02*
X125967500Y-101504000I-237500J0D01*
G01*
X125492500Y-101504000D01*
G75*
G02*
X125255000Y-101266500I0J237500D01*
G01*
X125255000Y-100691500D01*
G75*
G02*
X125492500Y-100454000I237500J0D01*
G01*
G37*
%TD*%
%TO.C,R25*%
G36*
G01*
X125492500Y-104264000D02*
X125967500Y-104264000D01*
G75*
G02*
X126205000Y-104501500I0J-237500D01*
G01*
X126205000Y-105076500D01*
G75*
G02*
X125967500Y-105314000I-237500J0D01*
G01*
X125492500Y-105314000D01*
G75*
G02*
X125255000Y-105076500I0J237500D01*
G01*
X125255000Y-104501500D01*
G75*
G02*
X125492500Y-104264000I237500J0D01*
G01*
G37*
G36*
G01*
X125492500Y-106014000D02*
X125967500Y-106014000D01*
G75*
G02*
X126205000Y-106251500I0J-237500D01*
G01*
X126205000Y-106826500D01*
G75*
G02*
X125967500Y-107064000I-237500J0D01*
G01*
X125492500Y-107064000D01*
G75*
G02*
X125255000Y-106826500I0J237500D01*
G01*
X125255000Y-106251500D01*
G75*
G02*
X125492500Y-106014000I237500J0D01*
G01*
G37*
%TD*%
D16*
%TO.C,D3*%
X165549000Y-100584000D03*
X161349000Y-100584000D03*
%TD*%
%TO.C,R26*%
G36*
G01*
X160116000Y-114537500D02*
X160116000Y-114062500D01*
G75*
G02*
X160353500Y-113825000I237500J0D01*
G01*
X160928500Y-113825000D01*
G75*
G02*
X161166000Y-114062500I0J-237500D01*
G01*
X161166000Y-114537500D01*
G75*
G02*
X160928500Y-114775000I-237500J0D01*
G01*
X160353500Y-114775000D01*
G75*
G02*
X160116000Y-114537500I0J237500D01*
G01*
G37*
G36*
G01*
X158366000Y-114537500D02*
X158366000Y-114062500D01*
G75*
G02*
X158603500Y-113825000I237500J0D01*
G01*
X159178500Y-113825000D01*
G75*
G02*
X159416000Y-114062500I0J-237500D01*
G01*
X159416000Y-114537500D01*
G75*
G02*
X159178500Y-114775000I-237500J0D01*
G01*
X158603500Y-114775000D01*
G75*
G02*
X158366000Y-114537500I0J237500D01*
G01*
G37*
%TD*%
%TO.C,R27*%
G36*
G01*
X133112500Y-122044000D02*
X133587500Y-122044000D01*
G75*
G02*
X133825000Y-122281500I0J-237500D01*
G01*
X133825000Y-122856500D01*
G75*
G02*
X133587500Y-123094000I-237500J0D01*
G01*
X133112500Y-123094000D01*
G75*
G02*
X132875000Y-122856500I0J237500D01*
G01*
X132875000Y-122281500D01*
G75*
G02*
X133112500Y-122044000I237500J0D01*
G01*
G37*
G36*
G01*
X133112500Y-123794000D02*
X133587500Y-123794000D01*
G75*
G02*
X133825000Y-124031500I0J-237500D01*
G01*
X133825000Y-124606500D01*
G75*
G02*
X133587500Y-124844000I-237500J0D01*
G01*
X133112500Y-124844000D01*
G75*
G02*
X132875000Y-124606500I0J237500D01*
G01*
X132875000Y-124031500D01*
G75*
G02*
X133112500Y-123794000I237500J0D01*
G01*
G37*
%TD*%
%TO.C,C10*%
G36*
G01*
X137303500Y-118234000D02*
X137778500Y-118234000D01*
G75*
G02*
X138016000Y-118471500I0J-237500D01*
G01*
X138016000Y-119046500D01*
G75*
G02*
X137778500Y-119284000I-237500J0D01*
G01*
X137303500Y-119284000D01*
G75*
G02*
X137066000Y-119046500I0J237500D01*
G01*
X137066000Y-118471500D01*
G75*
G02*
X137303500Y-118234000I237500J0D01*
G01*
G37*
G36*
G01*
X137303500Y-119984000D02*
X137778500Y-119984000D01*
G75*
G02*
X138016000Y-120221500I0J-237500D01*
G01*
X138016000Y-120796500D01*
G75*
G02*
X137778500Y-121034000I-237500J0D01*
G01*
X137303500Y-121034000D01*
G75*
G02*
X137066000Y-120796500I0J237500D01*
G01*
X137066000Y-120221500D01*
G75*
G02*
X137303500Y-119984000I237500J0D01*
G01*
G37*
%TD*%
%TO.C,C11*%
G36*
G01*
X138954500Y-119095000D02*
X139429500Y-119095000D01*
G75*
G02*
X139667000Y-119332500I0J-237500D01*
G01*
X139667000Y-119907500D01*
G75*
G02*
X139429500Y-120145000I-237500J0D01*
G01*
X138954500Y-120145000D01*
G75*
G02*
X138717000Y-119907500I0J237500D01*
G01*
X138717000Y-119332500D01*
G75*
G02*
X138954500Y-119095000I237500J0D01*
G01*
G37*
G36*
G01*
X138954500Y-117345000D02*
X139429500Y-117345000D01*
G75*
G02*
X139667000Y-117582500I0J-237500D01*
G01*
X139667000Y-118157500D01*
G75*
G02*
X139429500Y-118395000I-237500J0D01*
G01*
X138954500Y-118395000D01*
G75*
G02*
X138717000Y-118157500I0J237500D01*
G01*
X138717000Y-117582500D01*
G75*
G02*
X138954500Y-117345000I237500J0D01*
G01*
G37*
%TD*%
%TO.C,C24*%
G36*
G01*
X166500000Y-119650500D02*
X166500000Y-120125500D01*
G75*
G02*
X166262500Y-120363000I-237500J0D01*
G01*
X165687500Y-120363000D01*
G75*
G02*
X165450000Y-120125500I0J237500D01*
G01*
X165450000Y-119650500D01*
G75*
G02*
X165687500Y-119413000I237500J0D01*
G01*
X166262500Y-119413000D01*
G75*
G02*
X166500000Y-119650500I0J-237500D01*
G01*
G37*
G36*
G01*
X164750000Y-119650500D02*
X164750000Y-120125500D01*
G75*
G02*
X164512500Y-120363000I-237500J0D01*
G01*
X163937500Y-120363000D01*
G75*
G02*
X163700000Y-120125500I0J237500D01*
G01*
X163700000Y-119650500D01*
G75*
G02*
X163937500Y-119413000I237500J0D01*
G01*
X164512500Y-119413000D01*
G75*
G02*
X164750000Y-119650500I0J-237500D01*
G01*
G37*
%TD*%
%TO.C,R9*%
G36*
G01*
X113027000Y-91677500D02*
X113027000Y-91202500D01*
G75*
G02*
X113264500Y-90965000I237500J0D01*
G01*
X113839500Y-90965000D01*
G75*
G02*
X114077000Y-91202500I0J-237500D01*
G01*
X114077000Y-91677500D01*
G75*
G02*
X113839500Y-91915000I-237500J0D01*
G01*
X113264500Y-91915000D01*
G75*
G02*
X113027000Y-91677500I0J237500D01*
G01*
G37*
G36*
G01*
X114777000Y-91677500D02*
X114777000Y-91202500D01*
G75*
G02*
X115014500Y-90965000I237500J0D01*
G01*
X115589500Y-90965000D01*
G75*
G02*
X115827000Y-91202500I0J-237500D01*
G01*
X115827000Y-91677500D01*
G75*
G02*
X115589500Y-91915000I-237500J0D01*
G01*
X115014500Y-91915000D01*
G75*
G02*
X114777000Y-91677500I0J237500D01*
G01*
G37*
%TD*%
M02*
