G04 #@! TF.GenerationSoftware,KiCad,Pcbnew,(5.1.6)-1*
G04 #@! TF.CreationDate,2020-11-18T04:23:10-08:00*
G04 #@! TF.ProjectId,Power Board V2,506f7765-7220-4426-9f61-72642056322e,rev?*
G04 #@! TF.SameCoordinates,Original*
G04 #@! TF.FileFunction,Copper,L2,Bot*
G04 #@! TF.FilePolarity,Positive*
%FSLAX46Y46*%
G04 Gerber Fmt 4.6, Leading zero omitted, Abs format (unit mm)*
G04 Created by KiCad (PCBNEW (5.1.6)-1) date 2020-11-18 04:23:10*
%MOMM*%
%LPD*%
G01*
G04 APERTURE LIST*
G04 #@! TA.AperFunction,ComponentPad*
%ADD10C,1.700000*%
G04 #@! TD*
G04 #@! TA.AperFunction,ComponentPad*
%ADD11R,1.500000X1.050000*%
G04 #@! TD*
G04 #@! TA.AperFunction,ComponentPad*
%ADD12O,1.500000X1.050000*%
G04 #@! TD*
G04 #@! TA.AperFunction,ComponentPad*
%ADD13R,2.000000X2.000000*%
G04 #@! TD*
G04 #@! TA.AperFunction,ComponentPad*
%ADD14C,2.000000*%
G04 #@! TD*
G04 #@! TA.AperFunction,ComponentPad*
%ADD15O,1.700000X2.000000*%
G04 #@! TD*
G04 #@! TA.AperFunction,ComponentPad*
%ADD16C,0.800000*%
G04 #@! TD*
G04 #@! TA.AperFunction,ComponentPad*
%ADD17C,6.400000*%
G04 #@! TD*
G04 #@! TA.AperFunction,ComponentPad*
%ADD18R,1.600000X1.600000*%
G04 #@! TD*
G04 #@! TA.AperFunction,ComponentPad*
%ADD19C,1.600000*%
G04 #@! TD*
G04 #@! TA.AperFunction,ViaPad*
%ADD20C,0.600000*%
G04 #@! TD*
G04 #@! TA.AperFunction,ViaPad*
%ADD21C,0.599999*%
G04 #@! TD*
G04 #@! TA.AperFunction,ViaPad*
%ADD22C,0.800000*%
G04 #@! TD*
G04 #@! TA.AperFunction,ViaPad*
%ADD23C,0.900000*%
G04 #@! TD*
G04 #@! TA.AperFunction,Conductor*
%ADD24C,0.250000*%
G04 #@! TD*
G04 #@! TA.AperFunction,Conductor*
%ADD25C,0.381000*%
G04 #@! TD*
G04 #@! TA.AperFunction,Conductor*
%ADD26C,0.127000*%
G04 #@! TD*
G04 APERTURE END LIST*
G04 #@! TA.AperFunction,ComponentPad*
G36*
G01*
X152746000Y-129120000D02*
X151546000Y-129120000D01*
G75*
G02*
X151296000Y-128870000I0J250000D01*
G01*
X151296000Y-127670000D01*
G75*
G02*
X151546000Y-127420000I250000J0D01*
G01*
X152746000Y-127420000D01*
G75*
G02*
X152996000Y-127670000I0J-250000D01*
G01*
X152996000Y-128870000D01*
G75*
G02*
X152746000Y-129120000I-250000J0D01*
G01*
G37*
G04 #@! TD.AperFunction*
D10*
X154686000Y-128270000D03*
X157226000Y-128270000D03*
X159766000Y-128270000D03*
X162306000Y-128270000D03*
X152146000Y-125730000D03*
X154686000Y-125730000D03*
X157226000Y-125730000D03*
X159766000Y-125730000D03*
X162306000Y-125730000D03*
G04 #@! TA.AperFunction,SMDPad,CuDef*
G36*
G01*
X166775000Y-100688000D02*
X166775000Y-100988000D01*
G75*
G02*
X166625000Y-101138000I-150000J0D01*
G01*
X164975000Y-101138000D01*
G75*
G02*
X164825000Y-100988000I0J150000D01*
G01*
X164825000Y-100688000D01*
G75*
G02*
X164975000Y-100538000I150000J0D01*
G01*
X166625000Y-100538000D01*
G75*
G02*
X166775000Y-100688000I0J-150000D01*
G01*
G37*
G04 #@! TD.AperFunction*
G04 #@! TA.AperFunction,SMDPad,CuDef*
G36*
G01*
X166775000Y-101958000D02*
X166775000Y-102258000D01*
G75*
G02*
X166625000Y-102408000I-150000J0D01*
G01*
X164975000Y-102408000D01*
G75*
G02*
X164825000Y-102258000I0J150000D01*
G01*
X164825000Y-101958000D01*
G75*
G02*
X164975000Y-101808000I150000J0D01*
G01*
X166625000Y-101808000D01*
G75*
G02*
X166775000Y-101958000I0J-150000D01*
G01*
G37*
G04 #@! TD.AperFunction*
G04 #@! TA.AperFunction,SMDPad,CuDef*
G36*
G01*
X166775000Y-103228000D02*
X166775000Y-103528000D01*
G75*
G02*
X166625000Y-103678000I-150000J0D01*
G01*
X164975000Y-103678000D01*
G75*
G02*
X164825000Y-103528000I0J150000D01*
G01*
X164825000Y-103228000D01*
G75*
G02*
X164975000Y-103078000I150000J0D01*
G01*
X166625000Y-103078000D01*
G75*
G02*
X166775000Y-103228000I0J-150000D01*
G01*
G37*
G04 #@! TD.AperFunction*
G04 #@! TA.AperFunction,SMDPad,CuDef*
G36*
G01*
X166775000Y-104498000D02*
X166775000Y-104798000D01*
G75*
G02*
X166625000Y-104948000I-150000J0D01*
G01*
X164975000Y-104948000D01*
G75*
G02*
X164825000Y-104798000I0J150000D01*
G01*
X164825000Y-104498000D01*
G75*
G02*
X164975000Y-104348000I150000J0D01*
G01*
X166625000Y-104348000D01*
G75*
G02*
X166775000Y-104498000I0J-150000D01*
G01*
G37*
G04 #@! TD.AperFunction*
G04 #@! TA.AperFunction,SMDPad,CuDef*
G36*
G01*
X171725000Y-104498000D02*
X171725000Y-104798000D01*
G75*
G02*
X171575000Y-104948000I-150000J0D01*
G01*
X169925000Y-104948000D01*
G75*
G02*
X169775000Y-104798000I0J150000D01*
G01*
X169775000Y-104498000D01*
G75*
G02*
X169925000Y-104348000I150000J0D01*
G01*
X171575000Y-104348000D01*
G75*
G02*
X171725000Y-104498000I0J-150000D01*
G01*
G37*
G04 #@! TD.AperFunction*
G04 #@! TA.AperFunction,SMDPad,CuDef*
G36*
G01*
X171725000Y-103228000D02*
X171725000Y-103528000D01*
G75*
G02*
X171575000Y-103678000I-150000J0D01*
G01*
X169925000Y-103678000D01*
G75*
G02*
X169775000Y-103528000I0J150000D01*
G01*
X169775000Y-103228000D01*
G75*
G02*
X169925000Y-103078000I150000J0D01*
G01*
X171575000Y-103078000D01*
G75*
G02*
X171725000Y-103228000I0J-150000D01*
G01*
G37*
G04 #@! TD.AperFunction*
G04 #@! TA.AperFunction,SMDPad,CuDef*
G36*
G01*
X171725000Y-101958000D02*
X171725000Y-102258000D01*
G75*
G02*
X171575000Y-102408000I-150000J0D01*
G01*
X169925000Y-102408000D01*
G75*
G02*
X169775000Y-102258000I0J150000D01*
G01*
X169775000Y-101958000D01*
G75*
G02*
X169925000Y-101808000I150000J0D01*
G01*
X171575000Y-101808000D01*
G75*
G02*
X171725000Y-101958000I0J-150000D01*
G01*
G37*
G04 #@! TD.AperFunction*
G04 #@! TA.AperFunction,SMDPad,CuDef*
G36*
G01*
X171725000Y-100688000D02*
X171725000Y-100988000D01*
G75*
G02*
X171575000Y-101138000I-150000J0D01*
G01*
X169925000Y-101138000D01*
G75*
G02*
X169775000Y-100988000I0J150000D01*
G01*
X169775000Y-100688000D01*
G75*
G02*
X169925000Y-100538000I150000J0D01*
G01*
X171575000Y-100538000D01*
G75*
G02*
X171725000Y-100688000I0J-150000D01*
G01*
G37*
G04 #@! TD.AperFunction*
D11*
X122936000Y-78359000D03*
D12*
X122936000Y-80899000D03*
X122936000Y-79629000D03*
D13*
X128270000Y-91567000D03*
D14*
X128270000Y-86567000D03*
D12*
X172593000Y-123063000D03*
X172593000Y-121793000D03*
D11*
X172593000Y-124333000D03*
G04 #@! TA.AperFunction,ComponentPad*
G36*
G01*
X113958000Y-128258000D02*
X113958000Y-126758000D01*
G75*
G02*
X114208000Y-126508000I250000J0D01*
G01*
X115408000Y-126508000D01*
G75*
G02*
X115658000Y-126758000I0J-250000D01*
G01*
X115658000Y-128258000D01*
G75*
G02*
X115408000Y-128508000I-250000J0D01*
G01*
X114208000Y-128508000D01*
G75*
G02*
X113958000Y-128258000I0J250000D01*
G01*
G37*
G04 #@! TD.AperFunction*
D15*
X117308000Y-127508000D03*
G04 #@! TA.AperFunction,ComponentPad*
G36*
G01*
X136867000Y-79514000D02*
X136867000Y-81014000D01*
G75*
G02*
X136617000Y-81264000I-250000J0D01*
G01*
X135417000Y-81264000D01*
G75*
G02*
X135167000Y-81014000I0J250000D01*
G01*
X135167000Y-79514000D01*
G75*
G02*
X135417000Y-79264000I250000J0D01*
G01*
X136617000Y-79264000D01*
G75*
G02*
X136867000Y-79514000I0J-250000D01*
G01*
G37*
G04 #@! TD.AperFunction*
X133517000Y-80264000D03*
X146979000Y-80264000D03*
G04 #@! TA.AperFunction,ComponentPad*
G36*
G01*
X150329000Y-79514000D02*
X150329000Y-81014000D01*
G75*
G02*
X150079000Y-81264000I-250000J0D01*
G01*
X148879000Y-81264000D01*
G75*
G02*
X148629000Y-81014000I0J250000D01*
G01*
X148629000Y-79514000D01*
G75*
G02*
X148879000Y-79264000I250000J0D01*
G01*
X150079000Y-79264000D01*
G75*
G02*
X150329000Y-79514000I0J-250000D01*
G01*
G37*
G04 #@! TD.AperFunction*
G04 #@! TA.AperFunction,ComponentPad*
G36*
G01*
X163791000Y-79514000D02*
X163791000Y-81014000D01*
G75*
G02*
X163541000Y-81264000I-250000J0D01*
G01*
X162341000Y-81264000D01*
G75*
G02*
X162091000Y-81014000I0J250000D01*
G01*
X162091000Y-79514000D01*
G75*
G02*
X162341000Y-79264000I250000J0D01*
G01*
X163541000Y-79264000D01*
G75*
G02*
X163791000Y-79514000I0J-250000D01*
G01*
G37*
G04 #@! TD.AperFunction*
X160441000Y-80264000D03*
D16*
X109647056Y-77042944D03*
X107950000Y-76340000D03*
X106252944Y-77042944D03*
X105550000Y-78740000D03*
X106252944Y-80437056D03*
X107950000Y-81140000D03*
X109647056Y-80437056D03*
X110350000Y-78740000D03*
D17*
X107950000Y-78740000D03*
X171450000Y-129540000D03*
D16*
X173850000Y-129540000D03*
X173147056Y-131237056D03*
X171450000Y-131940000D03*
X169752944Y-131237056D03*
X169050000Y-129540000D03*
X169752944Y-127842944D03*
X171450000Y-127140000D03*
X173147056Y-127842944D03*
X173147056Y-77042944D03*
X171450000Y-76340000D03*
X169752944Y-77042944D03*
X169050000Y-78740000D03*
X169752944Y-80437056D03*
X171450000Y-81140000D03*
X173147056Y-80437056D03*
X173850000Y-78740000D03*
D17*
X171450000Y-78740000D03*
X107950000Y-129540000D03*
D16*
X110350000Y-129540000D03*
X109647056Y-131237056D03*
X107950000Y-131940000D03*
X106252944Y-131237056D03*
X105550000Y-129540000D03*
X106252944Y-127842944D03*
X107950000Y-127140000D03*
X109647056Y-127842944D03*
D18*
X128778000Y-122555000D03*
D19*
X128778000Y-119055000D03*
X172680000Y-109982000D03*
D18*
X170180000Y-109982000D03*
D20*
X120396000Y-83820000D03*
D21*
X109996000Y-88886000D03*
D20*
X119507000Y-82994500D03*
D21*
X110871000Y-87249000D03*
D22*
X107823000Y-99695000D03*
X107823000Y-101092000D03*
X109093000Y-101092000D03*
X109093000Y-99695000D03*
X110363000Y-99695000D03*
X110363000Y-101092000D03*
X111633000Y-101092000D03*
X111633000Y-99695000D03*
X141668500Y-115316000D03*
D20*
X141668500Y-109728000D03*
D22*
X160274000Y-119126000D03*
D21*
X160274000Y-92837000D03*
D22*
X155384500Y-115316000D03*
D20*
X155382000Y-109728000D03*
X115887500Y-93027500D03*
D21*
X124142500Y-106489500D03*
D23*
X107315000Y-123698000D03*
X109220000Y-125476000D03*
D20*
X139319000Y-132334000D03*
D22*
X145923000Y-97917000D03*
X159766000Y-83820000D03*
D23*
X114935000Y-114173000D03*
X113030000Y-114173000D03*
X111125000Y-114173000D03*
X109220000Y-114173000D03*
X116840000Y-114173000D03*
X118745000Y-114173000D03*
X120650000Y-114173000D03*
D20*
X155486100Y-101041200D03*
X152438100Y-101041200D03*
X153454100Y-101041200D03*
X154470100Y-101041200D03*
X154178000Y-110236000D03*
X154178000Y-109220000D03*
D22*
X162052000Y-98171000D03*
D20*
X141732000Y-101028500D03*
X138684000Y-101028500D03*
X139700000Y-101028500D03*
X140716000Y-101028500D03*
X140271500Y-109220000D03*
X140271500Y-110236000D03*
X113474500Y-96837500D03*
X114554000Y-96837500D03*
X115316000Y-94424500D03*
X116395500Y-94424500D03*
X116395500Y-95504000D03*
X115316000Y-95504000D03*
X116840000Y-85852000D03*
D23*
X109220000Y-116205000D03*
X111125000Y-116205000D03*
X111125000Y-118110000D03*
X109220000Y-118110000D03*
X109220000Y-120015000D03*
X111125000Y-120015000D03*
X111125000Y-121920000D03*
X109220000Y-121920000D03*
X109220000Y-123698000D03*
X111125000Y-123698000D03*
D22*
X170307000Y-119824500D03*
D21*
X157353000Y-116205000D03*
X166624000Y-115443000D03*
D23*
X107315000Y-114173000D03*
X107315000Y-116205000D03*
X107315000Y-118110000D03*
X107315000Y-121920000D03*
D20*
X134874000Y-125349000D03*
D21*
X135128000Y-116522500D03*
X135128000Y-117538500D03*
X135128000Y-118554500D03*
X134112000Y-118554500D03*
X134112000Y-117538500D03*
X134112000Y-116522500D03*
X133096000Y-116522500D03*
X133096000Y-117538500D03*
X133096000Y-118554500D03*
X172593000Y-97091500D03*
X162941000Y-92583000D03*
X125984000Y-105156000D03*
X161163000Y-117602000D03*
D22*
X130683000Y-87884000D03*
X123063000Y-83185000D03*
X119634000Y-90043000D03*
D20*
X127254000Y-103505000D03*
D24*
X116867498Y-83820000D02*
X120396000Y-83820000D01*
X109996000Y-88886000D02*
X111801498Y-88886000D01*
X111801498Y-88886000D02*
X116867498Y-83820000D01*
X110871000Y-86995000D02*
X110871000Y-87249000D01*
X119507000Y-82994500D02*
X114871500Y-82994500D01*
X114871500Y-82994500D02*
X110871000Y-86995000D01*
X164973000Y-123063000D02*
X172593000Y-123063000D01*
X162306000Y-125730000D02*
X164973000Y-123063000D01*
X141732000Y-109921000D02*
X141666000Y-109855000D01*
X141668500Y-109857500D02*
X141666000Y-109855000D01*
X141668500Y-115316000D02*
X141668500Y-109857500D01*
X160274000Y-119126000D02*
X160274000Y-119126000D01*
X160274000Y-119126000D02*
X160274000Y-119126000D01*
X160274000Y-115316000D02*
X160274000Y-119126000D01*
X160274000Y-92837000D02*
X160274000Y-115316000D01*
X155382000Y-115250000D02*
X155448000Y-115316000D01*
X155384500Y-109860000D02*
X155382000Y-109857500D01*
X155384500Y-115316000D02*
X155384500Y-109860000D01*
X115887500Y-93027500D02*
X123136660Y-93027500D01*
X123136660Y-93027500D02*
X124142500Y-94033340D01*
X124142500Y-94033340D02*
X124142500Y-106489500D01*
X124142500Y-106489500D02*
X124142500Y-106489500D01*
X119634000Y-86614000D02*
X123063000Y-83185000D01*
X119634000Y-90043000D02*
X119634000Y-86614000D01*
X130683000Y-94742000D02*
X130683000Y-87884000D01*
X127254000Y-98171000D02*
X130683000Y-94742000D01*
X127254000Y-103505000D02*
X127254000Y-98171000D01*
D25*
G36*
X112204500Y-103822500D02*
G01*
X107251500Y-103822500D01*
X107251500Y-96964500D01*
X112204500Y-96964500D01*
X112204500Y-103822500D01*
G37*
X112204500Y-103822500D02*
X107251500Y-103822500D01*
X107251500Y-96964500D01*
X112204500Y-96964500D01*
X112204500Y-103822500D01*
D26*
G36*
X169604722Y-75876095D02*
G01*
X169213157Y-76233749D01*
X169526031Y-76546623D01*
X169526031Y-76546624D01*
X169752944Y-76773536D01*
X170022352Y-77042944D01*
X170249264Y-77269857D01*
X170249265Y-77269857D01*
X171450000Y-78470592D01*
X171464142Y-78456450D01*
X171733550Y-78725858D01*
X171719408Y-78740000D01*
X172920143Y-79940735D01*
X172920143Y-79940736D01*
X173147056Y-80167648D01*
X173416464Y-80437056D01*
X173643376Y-80663969D01*
X173643377Y-80663969D01*
X173956251Y-80976843D01*
X174313905Y-80585278D01*
X174561500Y-80102880D01*
X174561500Y-128157939D01*
X174313905Y-127694722D01*
X173956251Y-127303157D01*
X173643377Y-127616031D01*
X173643376Y-127616031D01*
X173529327Y-127730081D01*
X173147056Y-128112352D01*
X172920143Y-128339264D01*
X172920143Y-128339265D01*
X171719408Y-129540000D01*
X171733550Y-129554142D01*
X171464142Y-129823550D01*
X171450000Y-129809408D01*
X170249265Y-131010143D01*
X170249264Y-131010143D01*
X170084615Y-131174793D01*
X169752944Y-131506464D01*
X169526031Y-131733376D01*
X169526031Y-131733377D01*
X169213157Y-132046251D01*
X169604722Y-132403905D01*
X170066861Y-132641102D01*
X109351514Y-132641102D01*
X109795278Y-132403905D01*
X110186843Y-132046251D01*
X109873969Y-131733377D01*
X109873969Y-131733376D01*
X109647056Y-131506464D01*
X109315385Y-131174793D01*
X109150736Y-131010143D01*
X109150735Y-131010143D01*
X107950000Y-129809408D01*
X107935858Y-129823550D01*
X107666450Y-129554142D01*
X107680592Y-129540000D01*
X108219408Y-129540000D01*
X109420143Y-130740735D01*
X109420143Y-130740736D01*
X109647056Y-130967648D01*
X109916464Y-131237056D01*
X110143376Y-131463969D01*
X110143377Y-131463969D01*
X110456251Y-131776843D01*
X110813905Y-131385278D01*
X111118871Y-130791102D01*
X111302060Y-130148847D01*
X111347150Y-129596807D01*
X168043569Y-129596807D01*
X168120105Y-130260277D01*
X168324606Y-130896067D01*
X168586095Y-131385278D01*
X168943749Y-131776843D01*
X169256623Y-131463969D01*
X169256624Y-131463969D01*
X169483536Y-131237056D01*
X169752944Y-130967648D01*
X169979857Y-130740736D01*
X169979857Y-130740735D01*
X171180592Y-129540000D01*
X169979857Y-128339265D01*
X169979857Y-128339264D01*
X169752944Y-128112352D01*
X169370673Y-127730081D01*
X169256624Y-127616031D01*
X169256623Y-127616031D01*
X168943749Y-127303157D01*
X168586095Y-127694722D01*
X168281129Y-128288898D01*
X168097940Y-128931153D01*
X168043569Y-129596807D01*
X111347150Y-129596807D01*
X111356431Y-129483193D01*
X111279895Y-128819723D01*
X111179630Y-128508000D01*
X113766578Y-128508000D01*
X113770256Y-128545345D01*
X113781149Y-128581254D01*
X113798838Y-128614348D01*
X113822644Y-128643356D01*
X113851652Y-128667162D01*
X113884746Y-128684851D01*
X113920655Y-128695744D01*
X113958000Y-128699422D01*
X114569875Y-128698500D01*
X114617500Y-128650875D01*
X114617500Y-127698500D01*
X114998500Y-127698500D01*
X114998500Y-128650875D01*
X115046125Y-128698500D01*
X115658000Y-128699422D01*
X115695345Y-128695744D01*
X115731254Y-128684851D01*
X115764348Y-128667162D01*
X115793356Y-128643356D01*
X115817162Y-128614348D01*
X115834851Y-128581254D01*
X115845744Y-128545345D01*
X115849422Y-128508000D01*
X115848500Y-127746125D01*
X115800875Y-127698500D01*
X114998500Y-127698500D01*
X114617500Y-127698500D01*
X113815125Y-127698500D01*
X113767500Y-127746125D01*
X113766578Y-128508000D01*
X111179630Y-128508000D01*
X111075394Y-128183933D01*
X110813905Y-127694722D01*
X110456251Y-127303157D01*
X110143377Y-127616031D01*
X110143376Y-127616031D01*
X110029327Y-127730081D01*
X109647056Y-128112352D01*
X109420143Y-128339264D01*
X109420143Y-128339265D01*
X108219408Y-129540000D01*
X107680592Y-129540000D01*
X106479857Y-128339265D01*
X106479857Y-128339264D01*
X106252944Y-128112352D01*
X105870673Y-127730081D01*
X105756624Y-127616031D01*
X105756623Y-127616031D01*
X105443749Y-127303157D01*
X105086095Y-127694722D01*
X104838500Y-128177120D01*
X104838500Y-127033749D01*
X105713157Y-127033749D01*
X106026031Y-127346623D01*
X106026031Y-127346624D01*
X106252944Y-127573536D01*
X106522352Y-127842944D01*
X106749264Y-128069857D01*
X106749265Y-128069857D01*
X107950000Y-129270592D01*
X109150735Y-128069857D01*
X109150736Y-128069857D01*
X109377648Y-127842944D01*
X109647056Y-127573536D01*
X109873969Y-127346624D01*
X109873969Y-127346623D01*
X110186843Y-127033749D01*
X109795278Y-126676095D01*
X109467773Y-126508000D01*
X113766578Y-126508000D01*
X113767500Y-127269875D01*
X113815125Y-127317500D01*
X114617500Y-127317500D01*
X114617500Y-126365125D01*
X114998500Y-126365125D01*
X114998500Y-127317500D01*
X115800875Y-127317500D01*
X115823963Y-127294412D01*
X116013500Y-127294412D01*
X116013500Y-127721589D01*
X116032231Y-127911766D01*
X116106252Y-128155780D01*
X116226455Y-128380665D01*
X116388223Y-128577778D01*
X116585336Y-128739545D01*
X116810221Y-128859748D01*
X117054235Y-128933769D01*
X117308000Y-128958763D01*
X117561766Y-128933769D01*
X117805780Y-128859748D01*
X118030665Y-128739545D01*
X118227778Y-128577778D01*
X118389545Y-128380664D01*
X118509748Y-128155779D01*
X118583769Y-127911765D01*
X118602500Y-127721588D01*
X118602500Y-127670000D01*
X150849350Y-127670000D01*
X150849350Y-128870000D01*
X150862736Y-129005910D01*
X150902379Y-129136596D01*
X150966757Y-129257038D01*
X151053394Y-129362606D01*
X151158962Y-129449243D01*
X151279404Y-129513621D01*
X151410090Y-129553264D01*
X151546000Y-129566650D01*
X152746000Y-129566650D01*
X152881910Y-129553264D01*
X153012596Y-129513621D01*
X153133038Y-129449243D01*
X153238606Y-129362606D01*
X153325243Y-129257038D01*
X153389621Y-129136596D01*
X153401524Y-129097356D01*
X154128052Y-129097356D01*
X154235855Y-129213670D01*
X154428605Y-129283357D01*
X154631247Y-129314101D01*
X154835993Y-129304721D01*
X155034975Y-129255576D01*
X155136145Y-129213670D01*
X155243948Y-129097356D01*
X154686000Y-128539408D01*
X154128052Y-129097356D01*
X153401524Y-129097356D01*
X153429264Y-129005910D01*
X153442650Y-128870000D01*
X153442650Y-128215247D01*
X153641899Y-128215247D01*
X153651279Y-128419993D01*
X153700424Y-128618975D01*
X153742330Y-128720145D01*
X153858644Y-128827948D01*
X154416592Y-128270000D01*
X154955408Y-128270000D01*
X155513356Y-128827948D01*
X155629670Y-128720145D01*
X155699357Y-128527395D01*
X155730101Y-128324753D01*
X155720721Y-128120007D01*
X155671576Y-127921025D01*
X155629670Y-127819855D01*
X155513356Y-127712052D01*
X154955408Y-128270000D01*
X154416592Y-128270000D01*
X153858644Y-127712052D01*
X153742330Y-127819855D01*
X153672643Y-128012605D01*
X153641899Y-128215247D01*
X153442650Y-128215247D01*
X153442650Y-127670000D01*
X153429264Y-127534090D01*
X153401525Y-127442644D01*
X154128052Y-127442644D01*
X154686000Y-128000592D01*
X155243948Y-127442644D01*
X155136145Y-127326330D01*
X154943395Y-127256643D01*
X154740753Y-127225899D01*
X154536007Y-127235279D01*
X154337025Y-127284424D01*
X154235855Y-127326330D01*
X154128052Y-127442644D01*
X153401525Y-127442644D01*
X153389621Y-127403404D01*
X153325243Y-127282962D01*
X153238606Y-127177394D01*
X153133038Y-127090757D01*
X153012596Y-127026379D01*
X152881910Y-126986736D01*
X152746000Y-126973350D01*
X152526982Y-126973350D01*
X152759176Y-126877171D01*
X152971196Y-126735504D01*
X153151504Y-126555196D01*
X153293171Y-126343176D01*
X153390754Y-126107592D01*
X153416000Y-125980669D01*
X153441246Y-126107592D01*
X153538829Y-126343176D01*
X153680496Y-126555196D01*
X153860804Y-126735504D01*
X154072824Y-126877171D01*
X154308408Y-126974754D01*
X154558503Y-127024500D01*
X154813497Y-127024500D01*
X155063592Y-126974754D01*
X155299176Y-126877171D01*
X155511196Y-126735504D01*
X155691504Y-126555196D01*
X155833171Y-126343176D01*
X155930754Y-126107592D01*
X155956000Y-125980669D01*
X155981246Y-126107592D01*
X156078829Y-126343176D01*
X156220496Y-126555196D01*
X156400804Y-126735504D01*
X156612824Y-126877171D01*
X156848408Y-126974754D01*
X156975331Y-127000000D01*
X156848408Y-127025246D01*
X156612824Y-127122829D01*
X156400804Y-127264496D01*
X156220496Y-127444804D01*
X156078829Y-127656824D01*
X155981246Y-127892408D01*
X155931500Y-128142503D01*
X155931500Y-128397497D01*
X155981246Y-128647592D01*
X156078829Y-128883176D01*
X156220496Y-129095196D01*
X156400804Y-129275504D01*
X156612824Y-129417171D01*
X156848408Y-129514754D01*
X157098503Y-129564500D01*
X157353497Y-129564500D01*
X157603592Y-129514754D01*
X157839176Y-129417171D01*
X158051196Y-129275504D01*
X158231504Y-129095196D01*
X158373171Y-128883176D01*
X158470754Y-128647592D01*
X158496000Y-128520669D01*
X158521246Y-128647592D01*
X158618829Y-128883176D01*
X158760496Y-129095196D01*
X158940804Y-129275504D01*
X159152824Y-129417171D01*
X159388408Y-129514754D01*
X159638503Y-129564500D01*
X159893497Y-129564500D01*
X160143592Y-129514754D01*
X160379176Y-129417171D01*
X160591196Y-129275504D01*
X160771504Y-129095196D01*
X160913171Y-128883176D01*
X161010754Y-128647592D01*
X161036000Y-128520669D01*
X161061246Y-128647592D01*
X161158829Y-128883176D01*
X161300496Y-129095196D01*
X161480804Y-129275504D01*
X161692824Y-129417171D01*
X161928408Y-129514754D01*
X162178503Y-129564500D01*
X162433497Y-129564500D01*
X162683592Y-129514754D01*
X162919176Y-129417171D01*
X163131196Y-129275504D01*
X163311504Y-129095196D01*
X163453171Y-128883176D01*
X163550754Y-128647592D01*
X163600500Y-128397497D01*
X163600500Y-128142503D01*
X163550754Y-127892408D01*
X163453171Y-127656824D01*
X163311504Y-127444804D01*
X163131196Y-127264496D01*
X162919176Y-127122829D01*
X162704120Y-127033749D01*
X169213157Y-127033749D01*
X169526031Y-127346623D01*
X169526031Y-127346624D01*
X169752944Y-127573536D01*
X170022352Y-127842944D01*
X170249264Y-128069857D01*
X170249265Y-128069857D01*
X171450000Y-129270592D01*
X172650735Y-128069857D01*
X172650736Y-128069857D01*
X172877648Y-127842944D01*
X173147056Y-127573536D01*
X173373969Y-127346624D01*
X173373969Y-127346623D01*
X173686843Y-127033749D01*
X173295278Y-126676095D01*
X172701102Y-126371129D01*
X172058847Y-126187940D01*
X171393193Y-126133569D01*
X170729723Y-126210105D01*
X170093933Y-126414606D01*
X169604722Y-126676095D01*
X169213157Y-127033749D01*
X162704120Y-127033749D01*
X162683592Y-127025246D01*
X162556669Y-127000000D01*
X162683592Y-126974754D01*
X162919176Y-126877171D01*
X163131196Y-126735504D01*
X163311504Y-126555196D01*
X163453171Y-126343176D01*
X163550754Y-126107592D01*
X163600500Y-125857497D01*
X163600500Y-125602503D01*
X163550754Y-125352408D01*
X163532662Y-125308731D01*
X163983393Y-124858000D01*
X171651578Y-124858000D01*
X171655256Y-124895345D01*
X171666149Y-124931254D01*
X171683838Y-124964348D01*
X171707644Y-124993356D01*
X171736652Y-125017162D01*
X171769746Y-125034851D01*
X171805655Y-125045744D01*
X171843000Y-125049422D01*
X172354875Y-125048500D01*
X172402500Y-125000875D01*
X172402500Y-124523500D01*
X172783500Y-124523500D01*
X172783500Y-125000875D01*
X172831125Y-125048500D01*
X173343000Y-125049422D01*
X173380345Y-125045744D01*
X173416254Y-125034851D01*
X173449348Y-125017162D01*
X173478356Y-124993356D01*
X173502162Y-124964348D01*
X173519851Y-124931254D01*
X173530744Y-124895345D01*
X173534422Y-124858000D01*
X173533500Y-124571125D01*
X173485875Y-124523500D01*
X172783500Y-124523500D01*
X172402500Y-124523500D01*
X171700125Y-124523500D01*
X171652500Y-124571125D01*
X171651578Y-124858000D01*
X163983393Y-124858000D01*
X165208895Y-123632500D01*
X171581191Y-123632500D01*
X171665866Y-123735677D01*
X171655256Y-123770655D01*
X171651578Y-123808000D01*
X171652500Y-124094875D01*
X171700125Y-124142500D01*
X172402500Y-124142500D01*
X172402500Y-124122500D01*
X172783500Y-124122500D01*
X172783500Y-124142500D01*
X173485875Y-124142500D01*
X173533500Y-124094875D01*
X173534422Y-123808000D01*
X173530744Y-123770655D01*
X173520134Y-123735677D01*
X173628009Y-123604231D01*
X173718034Y-123435806D01*
X173773471Y-123253055D01*
X173792190Y-123063000D01*
X173773471Y-122872945D01*
X173718034Y-122690194D01*
X173628009Y-122521769D01*
X173551055Y-122428000D01*
X173628009Y-122334231D01*
X173718034Y-122165806D01*
X173773471Y-121983055D01*
X173792190Y-121793000D01*
X173773471Y-121602945D01*
X173718034Y-121420194D01*
X173628009Y-121251769D01*
X173506856Y-121104144D01*
X173359231Y-120982991D01*
X173190806Y-120892966D01*
X173008055Y-120837529D01*
X172865618Y-120823500D01*
X172320382Y-120823500D01*
X172177945Y-120837529D01*
X171995194Y-120892966D01*
X171826769Y-120982991D01*
X171679144Y-121104144D01*
X171557991Y-121251769D01*
X171467966Y-121420194D01*
X171412529Y-121602945D01*
X171393810Y-121793000D01*
X171412529Y-121983055D01*
X171467966Y-122165806D01*
X171557991Y-122334231D01*
X171634945Y-122428000D01*
X171581191Y-122493500D01*
X165000964Y-122493500D01*
X164973000Y-122490746D01*
X164945036Y-122493500D01*
X164945029Y-122493500D01*
X164871573Y-122500735D01*
X164861358Y-122501741D01*
X164754007Y-122534305D01*
X164655072Y-122587187D01*
X164615264Y-122619857D01*
X164590081Y-122640524D01*
X164590077Y-122640528D01*
X164568355Y-122658355D01*
X164550527Y-122680078D01*
X162727269Y-124503338D01*
X162683592Y-124485246D01*
X162433497Y-124435500D01*
X162178503Y-124435500D01*
X161928408Y-124485246D01*
X161692824Y-124582829D01*
X161480804Y-124724496D01*
X161300496Y-124904804D01*
X161158829Y-125116824D01*
X161061246Y-125352408D01*
X161011500Y-125602503D01*
X161011500Y-125857497D01*
X161061246Y-126107592D01*
X161158829Y-126343176D01*
X161300496Y-126555196D01*
X161480804Y-126735504D01*
X161692824Y-126877171D01*
X161928408Y-126974754D01*
X162055331Y-127000000D01*
X161928408Y-127025246D01*
X161692824Y-127122829D01*
X161480804Y-127264496D01*
X161300496Y-127444804D01*
X161158829Y-127656824D01*
X161061246Y-127892408D01*
X161036000Y-128019331D01*
X161010754Y-127892408D01*
X160913171Y-127656824D01*
X160771504Y-127444804D01*
X160591196Y-127264496D01*
X160379176Y-127122829D01*
X160143592Y-127025246D01*
X159893497Y-126975500D01*
X159638503Y-126975500D01*
X159388408Y-127025246D01*
X159152824Y-127122829D01*
X158940804Y-127264496D01*
X158760496Y-127444804D01*
X158618829Y-127656824D01*
X158521246Y-127892408D01*
X158496000Y-128019331D01*
X158470754Y-127892408D01*
X158373171Y-127656824D01*
X158231504Y-127444804D01*
X158051196Y-127264496D01*
X157839176Y-127122829D01*
X157603592Y-127025246D01*
X157476669Y-127000000D01*
X157603592Y-126974754D01*
X157839176Y-126877171D01*
X158051196Y-126735504D01*
X158229344Y-126557356D01*
X159208052Y-126557356D01*
X159315855Y-126673670D01*
X159508605Y-126743357D01*
X159711247Y-126774101D01*
X159915993Y-126764721D01*
X160114975Y-126715576D01*
X160216145Y-126673670D01*
X160323948Y-126557356D01*
X159766000Y-125999408D01*
X159208052Y-126557356D01*
X158229344Y-126557356D01*
X158231504Y-126555196D01*
X158373171Y-126343176D01*
X158470754Y-126107592D01*
X158520500Y-125857497D01*
X158520500Y-125675247D01*
X158721899Y-125675247D01*
X158731279Y-125879993D01*
X158780424Y-126078975D01*
X158822330Y-126180145D01*
X158938644Y-126287948D01*
X159496592Y-125730000D01*
X160035408Y-125730000D01*
X160593356Y-126287948D01*
X160709670Y-126180145D01*
X160779357Y-125987395D01*
X160810101Y-125784753D01*
X160800721Y-125580007D01*
X160751576Y-125381025D01*
X160709670Y-125279855D01*
X160593356Y-125172052D01*
X160035408Y-125730000D01*
X159496592Y-125730000D01*
X158938644Y-125172052D01*
X158822330Y-125279855D01*
X158752643Y-125472605D01*
X158721899Y-125675247D01*
X158520500Y-125675247D01*
X158520500Y-125602503D01*
X158470754Y-125352408D01*
X158373171Y-125116824D01*
X158231504Y-124904804D01*
X158229344Y-124902644D01*
X159208052Y-124902644D01*
X159766000Y-125460592D01*
X160323948Y-124902644D01*
X160216145Y-124786330D01*
X160023395Y-124716643D01*
X159820753Y-124685899D01*
X159616007Y-124695279D01*
X159417025Y-124744424D01*
X159315855Y-124786330D01*
X159208052Y-124902644D01*
X158229344Y-124902644D01*
X158051196Y-124724496D01*
X157839176Y-124582829D01*
X157603592Y-124485246D01*
X157353497Y-124435500D01*
X157098503Y-124435500D01*
X156848408Y-124485246D01*
X156612824Y-124582829D01*
X156400804Y-124724496D01*
X156220496Y-124904804D01*
X156078829Y-125116824D01*
X155981246Y-125352408D01*
X155956000Y-125479331D01*
X155930754Y-125352408D01*
X155833171Y-125116824D01*
X155691504Y-124904804D01*
X155511196Y-124724496D01*
X155299176Y-124582829D01*
X155063592Y-124485246D01*
X154813497Y-124435500D01*
X154558503Y-124435500D01*
X154308408Y-124485246D01*
X154072824Y-124582829D01*
X153860804Y-124724496D01*
X153680496Y-124904804D01*
X153538829Y-125116824D01*
X153441246Y-125352408D01*
X153416000Y-125479331D01*
X153390754Y-125352408D01*
X153293171Y-125116824D01*
X153151504Y-124904804D01*
X152971196Y-124724496D01*
X152759176Y-124582829D01*
X152523592Y-124485246D01*
X152273497Y-124435500D01*
X152018503Y-124435500D01*
X151768408Y-124485246D01*
X151532824Y-124582829D01*
X151320804Y-124724496D01*
X151140496Y-124904804D01*
X150998829Y-125116824D01*
X150901246Y-125352408D01*
X150851500Y-125602503D01*
X150851500Y-125857497D01*
X150901246Y-126107592D01*
X150998829Y-126343176D01*
X151140496Y-126555196D01*
X151320804Y-126735504D01*
X151532824Y-126877171D01*
X151765018Y-126973350D01*
X151546000Y-126973350D01*
X151410090Y-126986736D01*
X151279404Y-127026379D01*
X151158962Y-127090757D01*
X151053394Y-127177394D01*
X150966757Y-127282962D01*
X150902379Y-127403404D01*
X150862736Y-127534090D01*
X150849350Y-127670000D01*
X118602500Y-127670000D01*
X118602500Y-127294411D01*
X118583769Y-127104234D01*
X118509748Y-126860220D01*
X118389545Y-126635335D01*
X118227778Y-126438222D01*
X118030664Y-126276455D01*
X117805779Y-126156252D01*
X117561765Y-126082231D01*
X117308000Y-126057237D01*
X117054234Y-126082231D01*
X116810220Y-126156252D01*
X116585335Y-126276455D01*
X116388222Y-126438222D01*
X116226455Y-126635336D01*
X116106252Y-126860221D01*
X116032231Y-127104235D01*
X116013500Y-127294412D01*
X115823963Y-127294412D01*
X115848500Y-127269875D01*
X115849422Y-126508000D01*
X115845744Y-126470655D01*
X115834851Y-126434746D01*
X115817162Y-126401652D01*
X115793356Y-126372644D01*
X115764348Y-126348838D01*
X115731254Y-126331149D01*
X115695345Y-126320256D01*
X115658000Y-126316578D01*
X115046125Y-126317500D01*
X114998500Y-126365125D01*
X114617500Y-126365125D01*
X114569875Y-126317500D01*
X113958000Y-126316578D01*
X113920655Y-126320256D01*
X113884746Y-126331149D01*
X113851652Y-126348838D01*
X113822644Y-126372644D01*
X113798838Y-126401652D01*
X113781149Y-126434746D01*
X113770256Y-126470655D01*
X113766578Y-126508000D01*
X109467773Y-126508000D01*
X109201102Y-126371129D01*
X108558847Y-126187940D01*
X107893193Y-126133569D01*
X107229723Y-126210105D01*
X106593933Y-126414606D01*
X106104722Y-126676095D01*
X105713157Y-127033749D01*
X104838500Y-127033749D01*
X104838500Y-121755000D01*
X127531350Y-121755000D01*
X127531350Y-123355000D01*
X127539932Y-123442137D01*
X127565349Y-123525926D01*
X127606624Y-123603145D01*
X127662171Y-123670829D01*
X127729855Y-123726376D01*
X127807074Y-123767651D01*
X127890863Y-123793068D01*
X127978000Y-123801650D01*
X129578000Y-123801650D01*
X129665137Y-123793068D01*
X129748926Y-123767651D01*
X129826145Y-123726376D01*
X129893829Y-123670829D01*
X129949376Y-123603145D01*
X129990651Y-123525926D01*
X130016068Y-123442137D01*
X130024650Y-123355000D01*
X130024650Y-121755000D01*
X130016068Y-121667863D01*
X129990651Y-121584074D01*
X129949376Y-121506855D01*
X129893829Y-121439171D01*
X129826145Y-121383624D01*
X129748926Y-121342349D01*
X129665137Y-121316932D01*
X129578000Y-121308350D01*
X127978000Y-121308350D01*
X127890863Y-121316932D01*
X127807074Y-121342349D01*
X127729855Y-121383624D01*
X127662171Y-121439171D01*
X127606624Y-121506855D01*
X127565349Y-121584074D01*
X127539932Y-121667863D01*
X127531350Y-121755000D01*
X104838500Y-121755000D01*
X104838500Y-119846127D01*
X128256280Y-119846127D01*
X128357915Y-119957295D01*
X128542016Y-120021912D01*
X128735185Y-120049371D01*
X128930000Y-120038617D01*
X129118974Y-119990064D01*
X129198085Y-119957295D01*
X129299720Y-119846127D01*
X128778000Y-119324408D01*
X128256280Y-119846127D01*
X104838500Y-119846127D01*
X104838500Y-119012185D01*
X127783629Y-119012185D01*
X127794383Y-119207000D01*
X127842936Y-119395974D01*
X127875705Y-119475085D01*
X127986873Y-119576720D01*
X128508592Y-119055000D01*
X129047408Y-119055000D01*
X129569127Y-119576720D01*
X129680295Y-119475085D01*
X129744912Y-119290984D01*
X129772371Y-119097815D01*
X129769336Y-119042824D01*
X159429500Y-119042824D01*
X159429500Y-119209176D01*
X159461954Y-119372332D01*
X159525614Y-119526021D01*
X159618034Y-119664337D01*
X159735663Y-119781966D01*
X159873979Y-119874386D01*
X160027668Y-119938046D01*
X160190824Y-119970500D01*
X160357176Y-119970500D01*
X160520332Y-119938046D01*
X160674021Y-119874386D01*
X160812337Y-119781966D01*
X160929966Y-119664337D01*
X161022386Y-119526021D01*
X161086046Y-119372332D01*
X161118500Y-119209176D01*
X161118500Y-119042824D01*
X161086046Y-118879668D01*
X161022386Y-118725979D01*
X160929966Y-118587663D01*
X160843500Y-118501197D01*
X160843500Y-109182000D01*
X168933350Y-109182000D01*
X168933350Y-110782000D01*
X168941932Y-110869137D01*
X168967349Y-110952926D01*
X169008624Y-111030145D01*
X169064171Y-111097829D01*
X169131855Y-111153376D01*
X169209074Y-111194651D01*
X169292863Y-111220068D01*
X169380000Y-111228650D01*
X170980000Y-111228650D01*
X171067137Y-111220068D01*
X171150926Y-111194651D01*
X171228145Y-111153376D01*
X171295829Y-111097829D01*
X171351376Y-111030145D01*
X171392651Y-110952926D01*
X171418068Y-110869137D01*
X171426650Y-110782000D01*
X171426650Y-110773127D01*
X172158280Y-110773127D01*
X172259915Y-110884295D01*
X172444016Y-110948912D01*
X172637185Y-110976371D01*
X172832000Y-110965617D01*
X173020974Y-110917064D01*
X173100085Y-110884295D01*
X173201720Y-110773127D01*
X172680000Y-110251408D01*
X172158280Y-110773127D01*
X171426650Y-110773127D01*
X171426650Y-109939185D01*
X171685629Y-109939185D01*
X171696383Y-110134000D01*
X171744936Y-110322974D01*
X171777705Y-110402085D01*
X171888873Y-110503720D01*
X172410592Y-109982000D01*
X172949408Y-109982000D01*
X173471127Y-110503720D01*
X173582295Y-110402085D01*
X173646912Y-110217984D01*
X173674371Y-110024815D01*
X173663617Y-109830000D01*
X173615064Y-109641026D01*
X173582295Y-109561915D01*
X173471127Y-109460280D01*
X172949408Y-109982000D01*
X172410592Y-109982000D01*
X171888873Y-109460280D01*
X171777705Y-109561915D01*
X171713088Y-109746016D01*
X171685629Y-109939185D01*
X171426650Y-109939185D01*
X171426650Y-109190873D01*
X172158280Y-109190873D01*
X172680000Y-109712592D01*
X173201720Y-109190873D01*
X173100085Y-109079705D01*
X172915984Y-109015088D01*
X172722815Y-108987629D01*
X172528000Y-108998383D01*
X172339026Y-109046936D01*
X172259915Y-109079705D01*
X172158280Y-109190873D01*
X171426650Y-109190873D01*
X171426650Y-109182000D01*
X171418068Y-109094863D01*
X171392651Y-109011074D01*
X171351376Y-108933855D01*
X171295829Y-108866171D01*
X171228145Y-108810624D01*
X171150926Y-108769349D01*
X171067137Y-108743932D01*
X170980000Y-108735350D01*
X169380000Y-108735350D01*
X169292863Y-108743932D01*
X169209074Y-108769349D01*
X169131855Y-108810624D01*
X169064171Y-108866171D01*
X169008624Y-108933855D01*
X168967349Y-109011074D01*
X168941932Y-109094863D01*
X168933350Y-109182000D01*
X160843500Y-109182000D01*
X160843500Y-100688000D01*
X164378350Y-100688000D01*
X164378350Y-100988000D01*
X164389814Y-101104401D01*
X164423767Y-101216328D01*
X164478904Y-101319481D01*
X164553105Y-101409895D01*
X164629999Y-101473000D01*
X164553105Y-101536105D01*
X164478904Y-101626519D01*
X164423767Y-101729672D01*
X164389814Y-101841599D01*
X164378350Y-101958000D01*
X164378350Y-102258000D01*
X164389814Y-102374401D01*
X164423767Y-102486328D01*
X164478904Y-102589481D01*
X164553105Y-102679895D01*
X164629999Y-102743000D01*
X164553105Y-102806105D01*
X164478904Y-102896519D01*
X164423767Y-102999672D01*
X164389814Y-103111599D01*
X164378350Y-103228000D01*
X164378350Y-103528000D01*
X164389814Y-103644401D01*
X164423767Y-103756328D01*
X164478904Y-103859481D01*
X164553105Y-103949895D01*
X164629999Y-104013000D01*
X164553105Y-104076105D01*
X164478904Y-104166519D01*
X164423767Y-104269672D01*
X164389814Y-104381599D01*
X164378350Y-104498000D01*
X164378350Y-104798000D01*
X164389814Y-104914401D01*
X164423767Y-105026328D01*
X164478904Y-105129481D01*
X164553105Y-105219895D01*
X164643519Y-105294096D01*
X164746672Y-105349233D01*
X164858599Y-105383186D01*
X164975000Y-105394650D01*
X166625000Y-105394650D01*
X166741401Y-105383186D01*
X166853328Y-105349233D01*
X166956481Y-105294096D01*
X167046895Y-105219895D01*
X167121096Y-105129481D01*
X167176233Y-105026328D01*
X167210186Y-104914401D01*
X167221650Y-104798000D01*
X167221650Y-104498000D01*
X167210186Y-104381599D01*
X167176233Y-104269672D01*
X167121096Y-104166519D01*
X167046895Y-104076105D01*
X166970001Y-104013000D01*
X167046895Y-103949895D01*
X167121096Y-103859481D01*
X167176233Y-103756328D01*
X167210186Y-103644401D01*
X167221650Y-103528000D01*
X167221650Y-103228000D01*
X167210186Y-103111599D01*
X167176233Y-102999672D01*
X167121096Y-102896519D01*
X167046895Y-102806105D01*
X166970001Y-102743000D01*
X167046895Y-102679895D01*
X167121096Y-102589481D01*
X167176233Y-102486328D01*
X167210186Y-102374401D01*
X167221650Y-102258000D01*
X167221650Y-101958000D01*
X167210186Y-101841599D01*
X167176233Y-101729672D01*
X167121096Y-101626519D01*
X167046895Y-101536105D01*
X166970001Y-101473000D01*
X167046895Y-101409895D01*
X167121096Y-101319481D01*
X167176233Y-101216328D01*
X167210186Y-101104401D01*
X167221650Y-100988000D01*
X167221650Y-100688000D01*
X169328350Y-100688000D01*
X169328350Y-100988000D01*
X169339814Y-101104401D01*
X169373767Y-101216328D01*
X169428904Y-101319481D01*
X169503105Y-101409895D01*
X169579999Y-101473000D01*
X169503105Y-101536105D01*
X169428904Y-101626519D01*
X169373767Y-101729672D01*
X169339814Y-101841599D01*
X169328350Y-101958000D01*
X169328350Y-102258000D01*
X169339814Y-102374401D01*
X169373767Y-102486328D01*
X169428904Y-102589481D01*
X169503105Y-102679895D01*
X169579999Y-102743000D01*
X169503105Y-102806105D01*
X169428904Y-102896519D01*
X169373767Y-102999672D01*
X169339814Y-103111599D01*
X169328350Y-103228000D01*
X169328350Y-103528000D01*
X169339814Y-103644401D01*
X169373767Y-103756328D01*
X169428904Y-103859481D01*
X169503105Y-103949895D01*
X169579999Y-104013000D01*
X169503105Y-104076105D01*
X169428904Y-104166519D01*
X169373767Y-104269672D01*
X169339814Y-104381599D01*
X169328350Y-104498000D01*
X169328350Y-104798000D01*
X169339814Y-104914401D01*
X169373767Y-105026328D01*
X169428904Y-105129481D01*
X169503105Y-105219895D01*
X169593519Y-105294096D01*
X169696672Y-105349233D01*
X169808599Y-105383186D01*
X169925000Y-105394650D01*
X171575000Y-105394650D01*
X171691401Y-105383186D01*
X171803328Y-105349233D01*
X171906481Y-105294096D01*
X171996895Y-105219895D01*
X172071096Y-105129481D01*
X172126233Y-105026328D01*
X172160186Y-104914401D01*
X172171650Y-104798000D01*
X172171650Y-104498000D01*
X172160186Y-104381599D01*
X172126233Y-104269672D01*
X172071096Y-104166519D01*
X171996895Y-104076105D01*
X171920001Y-104013000D01*
X171996895Y-103949895D01*
X172071096Y-103859481D01*
X172126233Y-103756328D01*
X172160186Y-103644401D01*
X172171650Y-103528000D01*
X172171650Y-103228000D01*
X172160186Y-103111599D01*
X172126233Y-102999672D01*
X172071096Y-102896519D01*
X171996895Y-102806105D01*
X171920001Y-102743000D01*
X171996895Y-102679895D01*
X172071096Y-102589481D01*
X172126233Y-102486328D01*
X172160186Y-102374401D01*
X172171650Y-102258000D01*
X172171650Y-101958000D01*
X172160186Y-101841599D01*
X172126233Y-101729672D01*
X172071096Y-101626519D01*
X171996895Y-101536105D01*
X171920001Y-101473000D01*
X171996895Y-101409895D01*
X172071096Y-101319481D01*
X172126233Y-101216328D01*
X172160186Y-101104401D01*
X172171650Y-100988000D01*
X172171650Y-100688000D01*
X172160186Y-100571599D01*
X172126233Y-100459672D01*
X172071096Y-100356519D01*
X171996895Y-100266105D01*
X171906481Y-100191904D01*
X171803328Y-100136767D01*
X171691401Y-100102814D01*
X171575000Y-100091350D01*
X169925000Y-100091350D01*
X169808599Y-100102814D01*
X169696672Y-100136767D01*
X169593519Y-100191904D01*
X169503105Y-100266105D01*
X169428904Y-100356519D01*
X169373767Y-100459672D01*
X169339814Y-100571599D01*
X169328350Y-100688000D01*
X167221650Y-100688000D01*
X167210186Y-100571599D01*
X167176233Y-100459672D01*
X167121096Y-100356519D01*
X167046895Y-100266105D01*
X166956481Y-100191904D01*
X166853328Y-100136767D01*
X166741401Y-100102814D01*
X166625000Y-100091350D01*
X164975000Y-100091350D01*
X164858599Y-100102814D01*
X164746672Y-100136767D01*
X164643519Y-100191904D01*
X164553105Y-100266105D01*
X164478904Y-100356519D01*
X164423767Y-100459672D01*
X164389814Y-100571599D01*
X164378350Y-100688000D01*
X160843500Y-100688000D01*
X160843500Y-93320380D01*
X160852290Y-93311590D01*
X160933766Y-93189652D01*
X160989888Y-93054162D01*
X161018499Y-92910327D01*
X161018499Y-92763673D01*
X160989888Y-92619838D01*
X160933766Y-92484348D01*
X160852290Y-92362410D01*
X160748590Y-92258710D01*
X160626652Y-92177234D01*
X160491162Y-92121112D01*
X160347327Y-92092501D01*
X160200673Y-92092501D01*
X160056838Y-92121112D01*
X159921348Y-92177234D01*
X159799410Y-92258710D01*
X159695710Y-92362410D01*
X159614234Y-92484348D01*
X159558112Y-92619838D01*
X159529501Y-92763673D01*
X159529501Y-92910327D01*
X159558112Y-93054162D01*
X159614234Y-93189652D01*
X159695710Y-93311590D01*
X159704500Y-93320380D01*
X159704501Y-115288020D01*
X159704500Y-115288030D01*
X159704501Y-118501196D01*
X159618034Y-118587663D01*
X159525614Y-118725979D01*
X159461954Y-118879668D01*
X159429500Y-119042824D01*
X129769336Y-119042824D01*
X129761617Y-118903000D01*
X129713064Y-118714026D01*
X129680295Y-118634915D01*
X129569127Y-118533280D01*
X129047408Y-119055000D01*
X128508592Y-119055000D01*
X127986873Y-118533280D01*
X127875705Y-118634915D01*
X127811088Y-118819016D01*
X127783629Y-119012185D01*
X104838500Y-119012185D01*
X104838500Y-118263873D01*
X128256280Y-118263873D01*
X128778000Y-118785592D01*
X129299720Y-118263873D01*
X129198085Y-118152705D01*
X129013984Y-118088088D01*
X128820815Y-118060629D01*
X128626000Y-118071383D01*
X128437026Y-118119936D01*
X128357915Y-118152705D01*
X128256280Y-118263873D01*
X104838500Y-118263873D01*
X104838500Y-115232824D01*
X140824000Y-115232824D01*
X140824000Y-115399176D01*
X140856454Y-115562332D01*
X140920114Y-115716021D01*
X141012534Y-115854337D01*
X141130163Y-115971966D01*
X141268479Y-116064386D01*
X141422168Y-116128046D01*
X141585324Y-116160500D01*
X141751676Y-116160500D01*
X141914832Y-116128046D01*
X142068521Y-116064386D01*
X142206837Y-115971966D01*
X142324466Y-115854337D01*
X142416886Y-115716021D01*
X142480546Y-115562332D01*
X142513000Y-115399176D01*
X142513000Y-115232824D01*
X154540000Y-115232824D01*
X154540000Y-115399176D01*
X154572454Y-115562332D01*
X154636114Y-115716021D01*
X154728534Y-115854337D01*
X154846163Y-115971966D01*
X154984479Y-116064386D01*
X155138168Y-116128046D01*
X155301324Y-116160500D01*
X155467676Y-116160500D01*
X155630832Y-116128046D01*
X155784521Y-116064386D01*
X155922837Y-115971966D01*
X156040466Y-115854337D01*
X156132886Y-115716021D01*
X156196546Y-115562332D01*
X156229000Y-115399176D01*
X156229000Y-115232824D01*
X156196546Y-115069668D01*
X156132886Y-114915979D01*
X156040466Y-114777663D01*
X155954000Y-114691197D01*
X155954000Y-110208882D01*
X155960291Y-110202591D01*
X156041767Y-110080653D01*
X156097889Y-109945163D01*
X156126500Y-109801327D01*
X156126500Y-109654673D01*
X156097889Y-109510837D01*
X156041767Y-109375347D01*
X155960291Y-109253409D01*
X155856591Y-109149709D01*
X155734653Y-109068233D01*
X155599163Y-109012111D01*
X155455327Y-108983500D01*
X155308673Y-108983500D01*
X155164837Y-109012111D01*
X155029347Y-109068233D01*
X154907409Y-109149709D01*
X154803709Y-109253409D01*
X154722233Y-109375347D01*
X154666111Y-109510837D01*
X154637500Y-109654673D01*
X154637500Y-109801327D01*
X154666111Y-109945163D01*
X154722233Y-110080653D01*
X154803709Y-110202591D01*
X154815001Y-110213883D01*
X154815000Y-114691197D01*
X154728534Y-114777663D01*
X154636114Y-114915979D01*
X154572454Y-115069668D01*
X154540000Y-115232824D01*
X142513000Y-115232824D01*
X142480546Y-115069668D01*
X142416886Y-114915979D01*
X142324466Y-114777663D01*
X142238000Y-114691197D01*
X142238000Y-110211382D01*
X142246791Y-110202591D01*
X142328267Y-110080653D01*
X142384389Y-109945163D01*
X142413000Y-109801327D01*
X142413000Y-109654673D01*
X142384389Y-109510837D01*
X142328267Y-109375347D01*
X142246791Y-109253409D01*
X142143091Y-109149709D01*
X142021153Y-109068233D01*
X141885663Y-109012111D01*
X141741827Y-108983500D01*
X141595173Y-108983500D01*
X141451337Y-109012111D01*
X141315847Y-109068233D01*
X141193909Y-109149709D01*
X141090209Y-109253409D01*
X141008733Y-109375347D01*
X140952611Y-109510837D01*
X140924000Y-109654673D01*
X140924000Y-109801327D01*
X140952611Y-109945163D01*
X141008733Y-110080653D01*
X141090209Y-110202591D01*
X141099001Y-110211383D01*
X141099000Y-114691197D01*
X141012534Y-114777663D01*
X140920114Y-114915979D01*
X140856454Y-115069668D01*
X140824000Y-115232824D01*
X104838500Y-115232824D01*
X104838500Y-96901000D01*
X106616500Y-96901000D01*
X106616500Y-103886000D01*
X106631646Y-104001046D01*
X106648661Y-104064546D01*
X106667351Y-104119603D01*
X106708427Y-104196451D01*
X106763706Y-104263809D01*
X106810191Y-104310294D01*
X106853904Y-104348630D01*
X106927901Y-104394644D01*
X107009454Y-104425339D01*
X107072954Y-104442354D01*
X107188000Y-104457500D01*
X112268000Y-104457500D01*
X112383046Y-104442354D01*
X112446546Y-104425339D01*
X112501603Y-104406649D01*
X112578451Y-104365573D01*
X112645809Y-104310294D01*
X112692294Y-104263809D01*
X112730630Y-104220096D01*
X112776644Y-104146099D01*
X112807339Y-104064546D01*
X112824354Y-104001046D01*
X112839500Y-103886000D01*
X112839500Y-96901000D01*
X112824354Y-96785954D01*
X112807339Y-96722454D01*
X112788649Y-96667397D01*
X112747573Y-96590549D01*
X112692294Y-96523191D01*
X112645809Y-96476706D01*
X112602096Y-96438370D01*
X112528099Y-96392356D01*
X112446546Y-96361661D01*
X112383046Y-96344646D01*
X112268000Y-96329500D01*
X107188000Y-96329500D01*
X107072954Y-96344646D01*
X107009454Y-96361661D01*
X106954397Y-96380351D01*
X106877549Y-96421427D01*
X106810191Y-96476706D01*
X106763706Y-96523191D01*
X106725370Y-96566904D01*
X106679356Y-96640901D01*
X106648661Y-96722454D01*
X106631646Y-96785954D01*
X106616500Y-96901000D01*
X104838500Y-96901000D01*
X104838500Y-92954173D01*
X115143000Y-92954173D01*
X115143000Y-93100827D01*
X115171611Y-93244663D01*
X115227733Y-93380153D01*
X115309209Y-93502091D01*
X115412909Y-93605791D01*
X115534847Y-93687267D01*
X115670337Y-93743389D01*
X115814173Y-93772000D01*
X115960827Y-93772000D01*
X116104663Y-93743389D01*
X116240153Y-93687267D01*
X116362091Y-93605791D01*
X116370882Y-93597000D01*
X122900767Y-93597000D01*
X123573000Y-94269235D01*
X123573001Y-106006119D01*
X123564210Y-106014910D01*
X123482734Y-106136848D01*
X123426612Y-106272338D01*
X123398001Y-106416173D01*
X123398001Y-106562827D01*
X123426612Y-106706662D01*
X123482734Y-106842152D01*
X123564210Y-106964090D01*
X123667910Y-107067790D01*
X123789848Y-107149266D01*
X123925338Y-107205388D01*
X124069173Y-107233999D01*
X124215827Y-107233999D01*
X124359662Y-107205388D01*
X124495152Y-107149266D01*
X124617090Y-107067790D01*
X124720790Y-106964090D01*
X124802266Y-106842152D01*
X124858388Y-106706662D01*
X124886999Y-106562827D01*
X124886999Y-106416173D01*
X124858388Y-106272338D01*
X124802266Y-106136848D01*
X124720790Y-106014910D01*
X124712000Y-106006120D01*
X124712000Y-103431673D01*
X126509500Y-103431673D01*
X126509500Y-103578327D01*
X126538111Y-103722163D01*
X126594233Y-103857653D01*
X126675709Y-103979591D01*
X126779409Y-104083291D01*
X126901347Y-104164767D01*
X127036837Y-104220889D01*
X127180673Y-104249500D01*
X127327327Y-104249500D01*
X127471163Y-104220889D01*
X127606653Y-104164767D01*
X127728591Y-104083291D01*
X127832291Y-103979591D01*
X127913767Y-103857653D01*
X127969889Y-103722163D01*
X127998500Y-103578327D01*
X127998500Y-103431673D01*
X127969889Y-103287837D01*
X127913767Y-103152347D01*
X127832291Y-103030409D01*
X127823500Y-103021618D01*
X127823500Y-98406893D01*
X131065924Y-95164471D01*
X131087645Y-95146645D01*
X131158813Y-95059928D01*
X131211695Y-94960993D01*
X131244259Y-94853641D01*
X131252500Y-94769971D01*
X131252500Y-94769965D01*
X131255254Y-94742001D01*
X131252500Y-94714037D01*
X131252500Y-88508803D01*
X131338966Y-88422337D01*
X131431386Y-88284021D01*
X131495046Y-88130332D01*
X131527500Y-87967176D01*
X131527500Y-87800824D01*
X131495046Y-87637668D01*
X131431386Y-87483979D01*
X131338966Y-87345663D01*
X131221337Y-87228034D01*
X131083021Y-87135614D01*
X130929332Y-87071954D01*
X130766176Y-87039500D01*
X130599824Y-87039500D01*
X130436668Y-87071954D01*
X130282979Y-87135614D01*
X130144663Y-87228034D01*
X130027034Y-87345663D01*
X129934614Y-87483979D01*
X129870954Y-87637668D01*
X129838500Y-87800824D01*
X129838500Y-87967176D01*
X129870954Y-88130332D01*
X129934614Y-88284021D01*
X130027034Y-88422337D01*
X130113501Y-88508804D01*
X130113500Y-94506105D01*
X126871084Y-97748523D01*
X126849356Y-97766355D01*
X126778188Y-97853072D01*
X126749921Y-97905955D01*
X126725305Y-97952008D01*
X126692741Y-98059359D01*
X126681746Y-98171000D01*
X126684501Y-98198974D01*
X126684500Y-103021618D01*
X126675709Y-103030409D01*
X126594233Y-103152347D01*
X126538111Y-103287837D01*
X126509500Y-103431673D01*
X124712000Y-103431673D01*
X124712000Y-94061304D01*
X124714754Y-94033340D01*
X124712000Y-94005376D01*
X124712000Y-94005369D01*
X124703759Y-93921699D01*
X124671195Y-93814347D01*
X124618313Y-93715412D01*
X124585643Y-93675604D01*
X124564976Y-93650421D01*
X124564972Y-93650417D01*
X124547145Y-93628695D01*
X124525423Y-93610868D01*
X123559141Y-92644588D01*
X123541305Y-92622855D01*
X123454588Y-92551687D01*
X123355653Y-92498805D01*
X123248301Y-92466241D01*
X123164631Y-92458000D01*
X123164624Y-92458000D01*
X123136660Y-92455246D01*
X123108696Y-92458000D01*
X116370882Y-92458000D01*
X116362091Y-92449209D01*
X116240153Y-92367733D01*
X116104663Y-92311611D01*
X115960827Y-92283000D01*
X115814173Y-92283000D01*
X115670337Y-92311611D01*
X115534847Y-92367733D01*
X115412909Y-92449209D01*
X115309209Y-92552909D01*
X115227733Y-92674847D01*
X115171611Y-92810337D01*
X115143000Y-92954173D01*
X104838500Y-92954173D01*
X104838500Y-89959824D01*
X118789500Y-89959824D01*
X118789500Y-90126176D01*
X118821954Y-90289332D01*
X118885614Y-90443021D01*
X118978034Y-90581337D01*
X119095663Y-90698966D01*
X119233979Y-90791386D01*
X119387668Y-90855046D01*
X119550824Y-90887500D01*
X119717176Y-90887500D01*
X119880332Y-90855046D01*
X120034021Y-90791386D01*
X120172337Y-90698966D01*
X120289966Y-90581337D01*
X120299545Y-90567000D01*
X126823350Y-90567000D01*
X126823350Y-92567000D01*
X126831932Y-92654137D01*
X126857349Y-92737926D01*
X126898624Y-92815145D01*
X126954171Y-92882829D01*
X127021855Y-92938376D01*
X127099074Y-92979651D01*
X127182863Y-93005068D01*
X127270000Y-93013650D01*
X129270000Y-93013650D01*
X129357137Y-93005068D01*
X129440926Y-92979651D01*
X129518145Y-92938376D01*
X129585829Y-92882829D01*
X129641376Y-92815145D01*
X129682651Y-92737926D01*
X129708068Y-92654137D01*
X129716650Y-92567000D01*
X129716650Y-90567000D01*
X129708068Y-90479863D01*
X129682651Y-90396074D01*
X129641376Y-90318855D01*
X129585829Y-90251171D01*
X129518145Y-90195624D01*
X129440926Y-90154349D01*
X129357137Y-90128932D01*
X129270000Y-90120350D01*
X127270000Y-90120350D01*
X127182863Y-90128932D01*
X127099074Y-90154349D01*
X127021855Y-90195624D01*
X126954171Y-90251171D01*
X126898624Y-90318855D01*
X126857349Y-90396074D01*
X126831932Y-90479863D01*
X126823350Y-90567000D01*
X120299545Y-90567000D01*
X120382386Y-90443021D01*
X120446046Y-90289332D01*
X120478500Y-90126176D01*
X120478500Y-89959824D01*
X120446046Y-89796668D01*
X120382386Y-89642979D01*
X120289966Y-89504663D01*
X120203500Y-89418197D01*
X120203500Y-87502663D01*
X127603744Y-87502663D01*
X127729947Y-87634417D01*
X127948567Y-87719267D01*
X128179539Y-87759835D01*
X128413987Y-87754563D01*
X128642903Y-87703653D01*
X128810053Y-87634417D01*
X128936256Y-87502663D01*
X128270000Y-86836408D01*
X127603744Y-87502663D01*
X120203500Y-87502663D01*
X120203500Y-86849893D01*
X120576854Y-86476539D01*
X127077165Y-86476539D01*
X127082437Y-86710987D01*
X127133347Y-86939903D01*
X127202583Y-87107053D01*
X127334337Y-87233256D01*
X128000592Y-86567000D01*
X128539408Y-86567000D01*
X129205663Y-87233256D01*
X129337417Y-87107053D01*
X129422267Y-86888433D01*
X129462835Y-86657461D01*
X129457563Y-86423013D01*
X129406653Y-86194097D01*
X129337417Y-86026947D01*
X129205663Y-85900744D01*
X128539408Y-86567000D01*
X128000592Y-86567000D01*
X127334337Y-85900744D01*
X127202583Y-86026947D01*
X127117733Y-86245567D01*
X127077165Y-86476539D01*
X120576854Y-86476539D01*
X121422056Y-85631337D01*
X127603744Y-85631337D01*
X128270000Y-86297592D01*
X128936256Y-85631337D01*
X128810053Y-85499583D01*
X128591433Y-85414733D01*
X128360461Y-85374165D01*
X128126013Y-85379437D01*
X127897097Y-85430347D01*
X127729947Y-85499583D01*
X127603744Y-85631337D01*
X121422056Y-85631337D01*
X123023895Y-84029500D01*
X123146176Y-84029500D01*
X123309332Y-83997046D01*
X123463021Y-83933386D01*
X123601337Y-83840966D01*
X123718966Y-83723337D01*
X123811386Y-83585021D01*
X123875046Y-83431332D01*
X123907500Y-83268176D01*
X123907500Y-83101824D01*
X123875046Y-82938668D01*
X123811386Y-82784979D01*
X123718966Y-82646663D01*
X123601337Y-82529034D01*
X123463021Y-82436614D01*
X123309332Y-82372954D01*
X123146176Y-82340500D01*
X122979824Y-82340500D01*
X122816668Y-82372954D01*
X122662979Y-82436614D01*
X122524663Y-82529034D01*
X122407034Y-82646663D01*
X122314614Y-82784979D01*
X122250954Y-82938668D01*
X122218500Y-83101824D01*
X122218500Y-83224105D01*
X119251084Y-86191523D01*
X119229356Y-86209355D01*
X119158188Y-86296072D01*
X119157376Y-86297592D01*
X119105305Y-86395008D01*
X119072741Y-86502359D01*
X119061746Y-86614000D01*
X119064501Y-86641974D01*
X119064500Y-89418197D01*
X118978034Y-89504663D01*
X118885614Y-89642979D01*
X118821954Y-89796668D01*
X118789500Y-89959824D01*
X104838500Y-89959824D01*
X104838500Y-88812673D01*
X109251501Y-88812673D01*
X109251501Y-88959327D01*
X109280112Y-89103162D01*
X109336234Y-89238652D01*
X109417710Y-89360590D01*
X109521410Y-89464290D01*
X109643348Y-89545766D01*
X109778838Y-89601888D01*
X109922673Y-89630499D01*
X110069327Y-89630499D01*
X110213162Y-89601888D01*
X110348652Y-89545766D01*
X110470590Y-89464290D01*
X110479380Y-89455500D01*
X111773534Y-89455500D01*
X111801498Y-89458254D01*
X111829462Y-89455500D01*
X111829469Y-89455500D01*
X111913139Y-89447259D01*
X112020491Y-89414695D01*
X112119426Y-89361813D01*
X112206143Y-89290645D01*
X112223980Y-89268911D01*
X117103392Y-84389500D01*
X119912618Y-84389500D01*
X119921409Y-84398291D01*
X120043347Y-84479767D01*
X120178837Y-84535889D01*
X120322673Y-84564500D01*
X120469327Y-84564500D01*
X120613163Y-84535889D01*
X120748653Y-84479767D01*
X120870591Y-84398291D01*
X120974291Y-84294591D01*
X121055767Y-84172653D01*
X121111889Y-84037163D01*
X121140500Y-83893327D01*
X121140500Y-83746673D01*
X121111889Y-83602837D01*
X121055767Y-83467347D01*
X120974291Y-83345409D01*
X120870591Y-83241709D01*
X120748653Y-83160233D01*
X120613163Y-83104111D01*
X120469327Y-83075500D01*
X120322673Y-83075500D01*
X120246979Y-83090557D01*
X120251500Y-83067827D01*
X120251500Y-82921173D01*
X120222889Y-82777337D01*
X120166767Y-82641847D01*
X120085291Y-82519909D01*
X119981591Y-82416209D01*
X119859653Y-82334733D01*
X119724163Y-82278611D01*
X119580327Y-82250000D01*
X119433673Y-82250000D01*
X119289837Y-82278611D01*
X119154347Y-82334733D01*
X119032409Y-82416209D01*
X119023618Y-82425000D01*
X114899463Y-82425000D01*
X114871499Y-82422246D01*
X114843535Y-82425000D01*
X114843529Y-82425000D01*
X114771101Y-82432134D01*
X114759858Y-82433241D01*
X114748739Y-82436614D01*
X114652507Y-82465805D01*
X114553572Y-82518687D01*
X114506625Y-82557216D01*
X114488580Y-82572025D01*
X114488577Y-82572028D01*
X114466855Y-82589855D01*
X114449027Y-82611578D01*
X110488089Y-86572518D01*
X110466355Y-86590355D01*
X110405264Y-86664794D01*
X110396410Y-86670710D01*
X110292710Y-86774410D01*
X110211234Y-86896348D01*
X110155112Y-87031838D01*
X110126501Y-87175673D01*
X110126501Y-87322327D01*
X110155112Y-87466162D01*
X110211234Y-87601652D01*
X110292710Y-87723590D01*
X110396410Y-87827290D01*
X110518348Y-87908766D01*
X110653838Y-87964888D01*
X110797673Y-87993499D01*
X110944327Y-87993499D01*
X111088162Y-87964888D01*
X111223652Y-87908766D01*
X111345590Y-87827290D01*
X111449290Y-87723590D01*
X111530766Y-87601652D01*
X111586888Y-87466162D01*
X111615499Y-87322327D01*
X111615499Y-87175673D01*
X111595626Y-87075767D01*
X115107395Y-83564000D01*
X116318104Y-83564000D01*
X111565605Y-88316500D01*
X110479380Y-88316500D01*
X110470590Y-88307710D01*
X110348652Y-88226234D01*
X110213162Y-88170112D01*
X110069327Y-88141501D01*
X109922673Y-88141501D01*
X109778838Y-88170112D01*
X109643348Y-88226234D01*
X109521410Y-88307710D01*
X109417710Y-88411410D01*
X109336234Y-88533348D01*
X109280112Y-88668838D01*
X109251501Y-88812673D01*
X104838500Y-88812673D01*
X104838500Y-81246251D01*
X105713157Y-81246251D01*
X106104722Y-81603905D01*
X106698898Y-81908871D01*
X107341153Y-82092060D01*
X108006807Y-82146431D01*
X108670277Y-82069895D01*
X109306067Y-81865394D01*
X109795278Y-81603905D01*
X110186843Y-81246251D01*
X109873969Y-80933377D01*
X109873969Y-80933376D01*
X109647056Y-80706464D01*
X109298361Y-80357769D01*
X109150736Y-80210143D01*
X109150735Y-80210143D01*
X107950000Y-79009408D01*
X106749265Y-80210143D01*
X106749264Y-80210143D01*
X106601639Y-80357769D01*
X106252944Y-80706464D01*
X106026031Y-80933376D01*
X106026031Y-80933377D01*
X105713157Y-81246251D01*
X104838500Y-81246251D01*
X104838500Y-80122061D01*
X105086095Y-80585278D01*
X105443749Y-80976843D01*
X105756623Y-80663969D01*
X105756624Y-80663969D01*
X105983536Y-80437056D01*
X106252944Y-80167648D01*
X106479857Y-79940736D01*
X106479857Y-79940735D01*
X107680592Y-78740000D01*
X108219408Y-78740000D01*
X109420143Y-79940735D01*
X109420143Y-79940736D01*
X109647056Y-80167648D01*
X109916464Y-80437056D01*
X110143376Y-80663969D01*
X110143377Y-80663969D01*
X110456251Y-80976843D01*
X110813905Y-80585278D01*
X111118871Y-79991102D01*
X111222152Y-79629000D01*
X121736810Y-79629000D01*
X121755529Y-79819055D01*
X121810966Y-80001806D01*
X121900991Y-80170231D01*
X121977945Y-80264000D01*
X121900991Y-80357769D01*
X121810966Y-80526194D01*
X121755529Y-80708945D01*
X121736810Y-80899000D01*
X121755529Y-81089055D01*
X121810966Y-81271806D01*
X121900991Y-81440231D01*
X122022144Y-81587856D01*
X122169769Y-81709009D01*
X122338194Y-81799034D01*
X122520945Y-81854471D01*
X122663382Y-81868500D01*
X123208618Y-81868500D01*
X123351055Y-81854471D01*
X123533806Y-81799034D01*
X123702231Y-81709009D01*
X123849856Y-81587856D01*
X123971009Y-81440231D01*
X124061034Y-81271806D01*
X124116471Y-81089055D01*
X124135190Y-80899000D01*
X124116471Y-80708945D01*
X124061034Y-80526194D01*
X123971009Y-80357769D01*
X123894055Y-80264000D01*
X123971009Y-80170231D01*
X124035054Y-80050411D01*
X132222500Y-80050411D01*
X132222500Y-80477588D01*
X132241231Y-80667765D01*
X132315252Y-80911779D01*
X132435455Y-81136664D01*
X132597222Y-81333778D01*
X132794335Y-81495545D01*
X133019220Y-81615748D01*
X133263234Y-81689769D01*
X133517000Y-81714763D01*
X133770765Y-81689769D01*
X134014779Y-81615748D01*
X134239664Y-81495545D01*
X134436778Y-81333778D01*
X134598545Y-81136665D01*
X134718748Y-80911780D01*
X134720350Y-80906499D01*
X134720350Y-81014000D01*
X134733736Y-81149910D01*
X134773379Y-81280596D01*
X134837757Y-81401038D01*
X134924394Y-81506606D01*
X135029962Y-81593243D01*
X135150404Y-81657621D01*
X135281090Y-81697264D01*
X135417000Y-81710650D01*
X136617000Y-81710650D01*
X136752910Y-81697264D01*
X136883596Y-81657621D01*
X137004038Y-81593243D01*
X137109606Y-81506606D01*
X137196243Y-81401038D01*
X137260621Y-81280596D01*
X137300264Y-81149910D01*
X137313650Y-81014000D01*
X137313650Y-80050411D01*
X145684500Y-80050411D01*
X145684500Y-80477588D01*
X145703231Y-80667765D01*
X145777252Y-80911779D01*
X145897455Y-81136664D01*
X146059222Y-81333778D01*
X146256335Y-81495545D01*
X146481220Y-81615748D01*
X146725234Y-81689769D01*
X146979000Y-81714763D01*
X147232765Y-81689769D01*
X147476779Y-81615748D01*
X147701664Y-81495545D01*
X147898778Y-81333778D01*
X148060545Y-81136665D01*
X148180748Y-80911780D01*
X148182350Y-80906499D01*
X148182350Y-81014000D01*
X148195736Y-81149910D01*
X148235379Y-81280596D01*
X148299757Y-81401038D01*
X148386394Y-81506606D01*
X148491962Y-81593243D01*
X148612404Y-81657621D01*
X148743090Y-81697264D01*
X148879000Y-81710650D01*
X150079000Y-81710650D01*
X150214910Y-81697264D01*
X150345596Y-81657621D01*
X150466038Y-81593243D01*
X150571606Y-81506606D01*
X150658243Y-81401038D01*
X150722621Y-81280596D01*
X150762264Y-81149910D01*
X150775650Y-81014000D01*
X150775650Y-80616191D01*
X159423312Y-80616191D01*
X159482312Y-80810847D01*
X159578154Y-80990252D01*
X159707155Y-81147512D01*
X159864357Y-81276584D01*
X160043719Y-81372507D01*
X160092827Y-81394518D01*
X160250500Y-81388428D01*
X160250500Y-80454500D01*
X160631500Y-80454500D01*
X160631500Y-81388428D01*
X160789173Y-81394518D01*
X160838281Y-81372507D01*
X161017643Y-81276584D01*
X161174845Y-81147512D01*
X161303846Y-80990252D01*
X161399688Y-80810847D01*
X161458688Y-80616191D01*
X161430163Y-80454500D01*
X160631500Y-80454500D01*
X160250500Y-80454500D01*
X159451837Y-80454500D01*
X159423312Y-80616191D01*
X150775650Y-80616191D01*
X150775650Y-79911809D01*
X159423312Y-79911809D01*
X159451837Y-80073500D01*
X160250500Y-80073500D01*
X160250500Y-79139572D01*
X160631500Y-79139572D01*
X160631500Y-80073500D01*
X161430163Y-80073500D01*
X161458688Y-79911809D01*
X161399688Y-79717153D01*
X161303846Y-79537748D01*
X161284366Y-79514000D01*
X161644350Y-79514000D01*
X161644350Y-81014000D01*
X161657736Y-81149910D01*
X161697379Y-81280596D01*
X161761757Y-81401038D01*
X161848394Y-81506606D01*
X161953962Y-81593243D01*
X162074404Y-81657621D01*
X162205090Y-81697264D01*
X162341000Y-81710650D01*
X163541000Y-81710650D01*
X163676910Y-81697264D01*
X163807596Y-81657621D01*
X163928038Y-81593243D01*
X164033606Y-81506606D01*
X164120243Y-81401038D01*
X164184621Y-81280596D01*
X164195039Y-81246251D01*
X169213157Y-81246251D01*
X169604722Y-81603905D01*
X170198898Y-81908871D01*
X170841153Y-82092060D01*
X171506807Y-82146431D01*
X172170277Y-82069895D01*
X172806067Y-81865394D01*
X173295278Y-81603905D01*
X173686843Y-81246251D01*
X173373969Y-80933377D01*
X173373969Y-80933376D01*
X173147056Y-80706464D01*
X172798361Y-80357769D01*
X172650736Y-80210143D01*
X172650735Y-80210143D01*
X171450000Y-79009408D01*
X170249265Y-80210143D01*
X170249264Y-80210143D01*
X170101639Y-80357769D01*
X169752944Y-80706464D01*
X169526031Y-80933376D01*
X169526031Y-80933377D01*
X169213157Y-81246251D01*
X164195039Y-81246251D01*
X164224264Y-81149910D01*
X164237650Y-81014000D01*
X164237650Y-79514000D01*
X164224264Y-79378090D01*
X164184621Y-79247404D01*
X164120243Y-79126962D01*
X164033606Y-79021394D01*
X163928038Y-78934757D01*
X163807596Y-78870379D01*
X163676910Y-78830736D01*
X163541000Y-78817350D01*
X162341000Y-78817350D01*
X162205090Y-78830736D01*
X162074404Y-78870379D01*
X161953962Y-78934757D01*
X161848394Y-79021394D01*
X161761757Y-79126962D01*
X161697379Y-79247404D01*
X161657736Y-79378090D01*
X161644350Y-79514000D01*
X161284366Y-79514000D01*
X161174845Y-79380488D01*
X161017643Y-79251416D01*
X160838281Y-79155493D01*
X160789173Y-79133482D01*
X160631500Y-79139572D01*
X160250500Y-79139572D01*
X160092827Y-79133482D01*
X160043719Y-79155493D01*
X159864357Y-79251416D01*
X159707155Y-79380488D01*
X159578154Y-79537748D01*
X159482312Y-79717153D01*
X159423312Y-79911809D01*
X150775650Y-79911809D01*
X150775650Y-79514000D01*
X150762264Y-79378090D01*
X150722621Y-79247404D01*
X150658243Y-79126962D01*
X150571606Y-79021394D01*
X150466038Y-78934757D01*
X150345596Y-78870379D01*
X150214910Y-78830736D01*
X150079000Y-78817350D01*
X148879000Y-78817350D01*
X148743090Y-78830736D01*
X148612404Y-78870379D01*
X148491962Y-78934757D01*
X148386394Y-79021394D01*
X148299757Y-79126962D01*
X148235379Y-79247404D01*
X148195736Y-79378090D01*
X148182350Y-79514000D01*
X148182350Y-79621502D01*
X148180748Y-79616221D01*
X148060545Y-79391336D01*
X147898778Y-79194222D01*
X147701665Y-79032455D01*
X147476780Y-78912252D01*
X147232766Y-78838231D01*
X146979000Y-78813237D01*
X146725235Y-78838231D01*
X146481221Y-78912252D01*
X146256336Y-79032455D01*
X146059223Y-79194222D01*
X145897455Y-79391335D01*
X145777252Y-79616220D01*
X145703231Y-79860234D01*
X145684500Y-80050411D01*
X137313650Y-80050411D01*
X137313650Y-79514000D01*
X137300264Y-79378090D01*
X137260621Y-79247404D01*
X137196243Y-79126962D01*
X137109606Y-79021394D01*
X137004038Y-78934757D01*
X136883596Y-78870379D01*
X136752910Y-78830736D01*
X136617000Y-78817350D01*
X135417000Y-78817350D01*
X135281090Y-78830736D01*
X135150404Y-78870379D01*
X135029962Y-78934757D01*
X134924394Y-79021394D01*
X134837757Y-79126962D01*
X134773379Y-79247404D01*
X134733736Y-79378090D01*
X134720350Y-79514000D01*
X134720350Y-79621502D01*
X134718748Y-79616221D01*
X134598545Y-79391336D01*
X134436778Y-79194222D01*
X134239665Y-79032455D01*
X134014780Y-78912252D01*
X133770766Y-78838231D01*
X133517000Y-78813237D01*
X133263235Y-78838231D01*
X133019221Y-78912252D01*
X132794336Y-79032455D01*
X132597223Y-79194222D01*
X132435455Y-79391335D01*
X132315252Y-79616220D01*
X132241231Y-79860234D01*
X132222500Y-80050411D01*
X124035054Y-80050411D01*
X124061034Y-80001806D01*
X124116471Y-79819055D01*
X124135190Y-79629000D01*
X124116471Y-79438945D01*
X124061034Y-79256194D01*
X123971009Y-79087769D01*
X123863134Y-78956323D01*
X123873744Y-78921345D01*
X123877422Y-78884000D01*
X123877142Y-78796807D01*
X168043569Y-78796807D01*
X168120105Y-79460277D01*
X168324606Y-80096067D01*
X168586095Y-80585278D01*
X168943749Y-80976843D01*
X169256623Y-80663969D01*
X169256624Y-80663969D01*
X169483536Y-80437056D01*
X169752944Y-80167648D01*
X169979857Y-79940736D01*
X169979857Y-79940735D01*
X171180592Y-78740000D01*
X169979857Y-77539265D01*
X169979857Y-77539264D01*
X169752944Y-77312352D01*
X169370673Y-76930081D01*
X169256624Y-76816031D01*
X169256623Y-76816031D01*
X168943749Y-76503157D01*
X168586095Y-76894722D01*
X168281129Y-77488898D01*
X168097940Y-78131153D01*
X168043569Y-78796807D01*
X123877142Y-78796807D01*
X123876500Y-78597125D01*
X123828875Y-78549500D01*
X123126500Y-78549500D01*
X123126500Y-78569500D01*
X122745500Y-78569500D01*
X122745500Y-78549500D01*
X122043125Y-78549500D01*
X121995500Y-78597125D01*
X121994578Y-78884000D01*
X121998256Y-78921345D01*
X122008866Y-78956323D01*
X121900991Y-79087769D01*
X121810966Y-79256194D01*
X121755529Y-79438945D01*
X121736810Y-79629000D01*
X111222152Y-79629000D01*
X111302060Y-79348847D01*
X111356431Y-78683193D01*
X111279895Y-78019723D01*
X111220158Y-77834000D01*
X121994578Y-77834000D01*
X121995500Y-78120875D01*
X122043125Y-78168500D01*
X122745500Y-78168500D01*
X122745500Y-77691125D01*
X123126500Y-77691125D01*
X123126500Y-78168500D01*
X123828875Y-78168500D01*
X123876500Y-78120875D01*
X123877422Y-77834000D01*
X123873744Y-77796655D01*
X123862851Y-77760746D01*
X123845162Y-77727652D01*
X123821356Y-77698644D01*
X123792348Y-77674838D01*
X123759254Y-77657149D01*
X123723345Y-77646256D01*
X123686000Y-77642578D01*
X123174125Y-77643500D01*
X123126500Y-77691125D01*
X122745500Y-77691125D01*
X122697875Y-77643500D01*
X122186000Y-77642578D01*
X122148655Y-77646256D01*
X122112746Y-77657149D01*
X122079652Y-77674838D01*
X122050644Y-77698644D01*
X122026838Y-77727652D01*
X122009149Y-77760746D01*
X121998256Y-77796655D01*
X121994578Y-77834000D01*
X111220158Y-77834000D01*
X111075394Y-77383933D01*
X110813905Y-76894722D01*
X110456251Y-76503157D01*
X110143377Y-76816031D01*
X110143376Y-76816031D01*
X110029327Y-76930081D01*
X109647056Y-77312352D01*
X109420143Y-77539264D01*
X109420143Y-77539265D01*
X108219408Y-78740000D01*
X107680592Y-78740000D01*
X107666450Y-78725858D01*
X107935858Y-78456450D01*
X107950000Y-78470592D01*
X109150735Y-77269857D01*
X109150736Y-77269857D01*
X109377648Y-77042944D01*
X109647056Y-76773536D01*
X109873969Y-76546624D01*
X109873969Y-76546623D01*
X110186843Y-76233749D01*
X109795278Y-75876095D01*
X109292621Y-75618102D01*
X170087392Y-75618102D01*
X169604722Y-75876095D01*
G37*
X169604722Y-75876095D02*
X169213157Y-76233749D01*
X169526031Y-76546623D01*
X169526031Y-76546624D01*
X169752944Y-76773536D01*
X170022352Y-77042944D01*
X170249264Y-77269857D01*
X170249265Y-77269857D01*
X171450000Y-78470592D01*
X171464142Y-78456450D01*
X171733550Y-78725858D01*
X171719408Y-78740000D01*
X172920143Y-79940735D01*
X172920143Y-79940736D01*
X173147056Y-80167648D01*
X173416464Y-80437056D01*
X173643376Y-80663969D01*
X173643377Y-80663969D01*
X173956251Y-80976843D01*
X174313905Y-80585278D01*
X174561500Y-80102880D01*
X174561500Y-128157939D01*
X174313905Y-127694722D01*
X173956251Y-127303157D01*
X173643377Y-127616031D01*
X173643376Y-127616031D01*
X173529327Y-127730081D01*
X173147056Y-128112352D01*
X172920143Y-128339264D01*
X172920143Y-128339265D01*
X171719408Y-129540000D01*
X171733550Y-129554142D01*
X171464142Y-129823550D01*
X171450000Y-129809408D01*
X170249265Y-131010143D01*
X170249264Y-131010143D01*
X170084615Y-131174793D01*
X169752944Y-131506464D01*
X169526031Y-131733376D01*
X169526031Y-131733377D01*
X169213157Y-132046251D01*
X169604722Y-132403905D01*
X170066861Y-132641102D01*
X109351514Y-132641102D01*
X109795278Y-132403905D01*
X110186843Y-132046251D01*
X109873969Y-131733377D01*
X109873969Y-131733376D01*
X109647056Y-131506464D01*
X109315385Y-131174793D01*
X109150736Y-131010143D01*
X109150735Y-131010143D01*
X107950000Y-129809408D01*
X107935858Y-129823550D01*
X107666450Y-129554142D01*
X107680592Y-129540000D01*
X108219408Y-129540000D01*
X109420143Y-130740735D01*
X109420143Y-130740736D01*
X109647056Y-130967648D01*
X109916464Y-131237056D01*
X110143376Y-131463969D01*
X110143377Y-131463969D01*
X110456251Y-131776843D01*
X110813905Y-131385278D01*
X111118871Y-130791102D01*
X111302060Y-130148847D01*
X111347150Y-129596807D01*
X168043569Y-129596807D01*
X168120105Y-130260277D01*
X168324606Y-130896067D01*
X168586095Y-131385278D01*
X168943749Y-131776843D01*
X169256623Y-131463969D01*
X169256624Y-131463969D01*
X169483536Y-131237056D01*
X169752944Y-130967648D01*
X169979857Y-130740736D01*
X169979857Y-130740735D01*
X171180592Y-129540000D01*
X169979857Y-128339265D01*
X169979857Y-128339264D01*
X169752944Y-128112352D01*
X169370673Y-127730081D01*
X169256624Y-127616031D01*
X169256623Y-127616031D01*
X168943749Y-127303157D01*
X168586095Y-127694722D01*
X168281129Y-128288898D01*
X168097940Y-128931153D01*
X168043569Y-129596807D01*
X111347150Y-129596807D01*
X111356431Y-129483193D01*
X111279895Y-128819723D01*
X111179630Y-128508000D01*
X113766578Y-128508000D01*
X113770256Y-128545345D01*
X113781149Y-128581254D01*
X113798838Y-128614348D01*
X113822644Y-128643356D01*
X113851652Y-128667162D01*
X113884746Y-128684851D01*
X113920655Y-128695744D01*
X113958000Y-128699422D01*
X114569875Y-128698500D01*
X114617500Y-128650875D01*
X114617500Y-127698500D01*
X114998500Y-127698500D01*
X114998500Y-128650875D01*
X115046125Y-128698500D01*
X115658000Y-128699422D01*
X115695345Y-128695744D01*
X115731254Y-128684851D01*
X115764348Y-128667162D01*
X115793356Y-128643356D01*
X115817162Y-128614348D01*
X115834851Y-128581254D01*
X115845744Y-128545345D01*
X115849422Y-128508000D01*
X115848500Y-127746125D01*
X115800875Y-127698500D01*
X114998500Y-127698500D01*
X114617500Y-127698500D01*
X113815125Y-127698500D01*
X113767500Y-127746125D01*
X113766578Y-128508000D01*
X111179630Y-128508000D01*
X111075394Y-128183933D01*
X110813905Y-127694722D01*
X110456251Y-127303157D01*
X110143377Y-127616031D01*
X110143376Y-127616031D01*
X110029327Y-127730081D01*
X109647056Y-128112352D01*
X109420143Y-128339264D01*
X109420143Y-128339265D01*
X108219408Y-129540000D01*
X107680592Y-129540000D01*
X106479857Y-128339265D01*
X106479857Y-128339264D01*
X106252944Y-128112352D01*
X105870673Y-127730081D01*
X105756624Y-127616031D01*
X105756623Y-127616031D01*
X105443749Y-127303157D01*
X105086095Y-127694722D01*
X104838500Y-128177120D01*
X104838500Y-127033749D01*
X105713157Y-127033749D01*
X106026031Y-127346623D01*
X106026031Y-127346624D01*
X106252944Y-127573536D01*
X106522352Y-127842944D01*
X106749264Y-128069857D01*
X106749265Y-128069857D01*
X107950000Y-129270592D01*
X109150735Y-128069857D01*
X109150736Y-128069857D01*
X109377648Y-127842944D01*
X109647056Y-127573536D01*
X109873969Y-127346624D01*
X109873969Y-127346623D01*
X110186843Y-127033749D01*
X109795278Y-126676095D01*
X109467773Y-126508000D01*
X113766578Y-126508000D01*
X113767500Y-127269875D01*
X113815125Y-127317500D01*
X114617500Y-127317500D01*
X114617500Y-126365125D01*
X114998500Y-126365125D01*
X114998500Y-127317500D01*
X115800875Y-127317500D01*
X115823963Y-127294412D01*
X116013500Y-127294412D01*
X116013500Y-127721589D01*
X116032231Y-127911766D01*
X116106252Y-128155780D01*
X116226455Y-128380665D01*
X116388223Y-128577778D01*
X116585336Y-128739545D01*
X116810221Y-128859748D01*
X117054235Y-128933769D01*
X117308000Y-128958763D01*
X117561766Y-128933769D01*
X117805780Y-128859748D01*
X118030665Y-128739545D01*
X118227778Y-128577778D01*
X118389545Y-128380664D01*
X118509748Y-128155779D01*
X118583769Y-127911765D01*
X118602500Y-127721588D01*
X118602500Y-127670000D01*
X150849350Y-127670000D01*
X150849350Y-128870000D01*
X150862736Y-129005910D01*
X150902379Y-129136596D01*
X150966757Y-129257038D01*
X151053394Y-129362606D01*
X151158962Y-129449243D01*
X151279404Y-129513621D01*
X151410090Y-129553264D01*
X151546000Y-129566650D01*
X152746000Y-129566650D01*
X152881910Y-129553264D01*
X153012596Y-129513621D01*
X153133038Y-129449243D01*
X153238606Y-129362606D01*
X153325243Y-129257038D01*
X153389621Y-129136596D01*
X153401524Y-129097356D01*
X154128052Y-129097356D01*
X154235855Y-129213670D01*
X154428605Y-129283357D01*
X154631247Y-129314101D01*
X154835993Y-129304721D01*
X155034975Y-129255576D01*
X155136145Y-129213670D01*
X155243948Y-129097356D01*
X154686000Y-128539408D01*
X154128052Y-129097356D01*
X153401524Y-129097356D01*
X153429264Y-129005910D01*
X153442650Y-128870000D01*
X153442650Y-128215247D01*
X153641899Y-128215247D01*
X153651279Y-128419993D01*
X153700424Y-128618975D01*
X153742330Y-128720145D01*
X153858644Y-128827948D01*
X154416592Y-128270000D01*
X154955408Y-128270000D01*
X155513356Y-128827948D01*
X155629670Y-128720145D01*
X155699357Y-128527395D01*
X155730101Y-128324753D01*
X155720721Y-128120007D01*
X155671576Y-127921025D01*
X155629670Y-127819855D01*
X155513356Y-127712052D01*
X154955408Y-128270000D01*
X154416592Y-128270000D01*
X153858644Y-127712052D01*
X153742330Y-127819855D01*
X153672643Y-128012605D01*
X153641899Y-128215247D01*
X153442650Y-128215247D01*
X153442650Y-127670000D01*
X153429264Y-127534090D01*
X153401525Y-127442644D01*
X154128052Y-127442644D01*
X154686000Y-128000592D01*
X155243948Y-127442644D01*
X155136145Y-127326330D01*
X154943395Y-127256643D01*
X154740753Y-127225899D01*
X154536007Y-127235279D01*
X154337025Y-127284424D01*
X154235855Y-127326330D01*
X154128052Y-127442644D01*
X153401525Y-127442644D01*
X153389621Y-127403404D01*
X153325243Y-127282962D01*
X153238606Y-127177394D01*
X153133038Y-127090757D01*
X153012596Y-127026379D01*
X152881910Y-126986736D01*
X152746000Y-126973350D01*
X152526982Y-126973350D01*
X152759176Y-126877171D01*
X152971196Y-126735504D01*
X153151504Y-126555196D01*
X153293171Y-126343176D01*
X153390754Y-126107592D01*
X153416000Y-125980669D01*
X153441246Y-126107592D01*
X153538829Y-126343176D01*
X153680496Y-126555196D01*
X153860804Y-126735504D01*
X154072824Y-126877171D01*
X154308408Y-126974754D01*
X154558503Y-127024500D01*
X154813497Y-127024500D01*
X155063592Y-126974754D01*
X155299176Y-126877171D01*
X155511196Y-126735504D01*
X155691504Y-126555196D01*
X155833171Y-126343176D01*
X155930754Y-126107592D01*
X155956000Y-125980669D01*
X155981246Y-126107592D01*
X156078829Y-126343176D01*
X156220496Y-126555196D01*
X156400804Y-126735504D01*
X156612824Y-126877171D01*
X156848408Y-126974754D01*
X156975331Y-127000000D01*
X156848408Y-127025246D01*
X156612824Y-127122829D01*
X156400804Y-127264496D01*
X156220496Y-127444804D01*
X156078829Y-127656824D01*
X155981246Y-127892408D01*
X155931500Y-128142503D01*
X155931500Y-128397497D01*
X155981246Y-128647592D01*
X156078829Y-128883176D01*
X156220496Y-129095196D01*
X156400804Y-129275504D01*
X156612824Y-129417171D01*
X156848408Y-129514754D01*
X157098503Y-129564500D01*
X157353497Y-129564500D01*
X157603592Y-129514754D01*
X157839176Y-129417171D01*
X158051196Y-129275504D01*
X158231504Y-129095196D01*
X158373171Y-128883176D01*
X158470754Y-128647592D01*
X158496000Y-128520669D01*
X158521246Y-128647592D01*
X158618829Y-128883176D01*
X158760496Y-129095196D01*
X158940804Y-129275504D01*
X159152824Y-129417171D01*
X159388408Y-129514754D01*
X159638503Y-129564500D01*
X159893497Y-129564500D01*
X160143592Y-129514754D01*
X160379176Y-129417171D01*
X160591196Y-129275504D01*
X160771504Y-129095196D01*
X160913171Y-128883176D01*
X161010754Y-128647592D01*
X161036000Y-128520669D01*
X161061246Y-128647592D01*
X161158829Y-128883176D01*
X161300496Y-129095196D01*
X161480804Y-129275504D01*
X161692824Y-129417171D01*
X161928408Y-129514754D01*
X162178503Y-129564500D01*
X162433497Y-129564500D01*
X162683592Y-129514754D01*
X162919176Y-129417171D01*
X163131196Y-129275504D01*
X163311504Y-129095196D01*
X163453171Y-128883176D01*
X163550754Y-128647592D01*
X163600500Y-128397497D01*
X163600500Y-128142503D01*
X163550754Y-127892408D01*
X163453171Y-127656824D01*
X163311504Y-127444804D01*
X163131196Y-127264496D01*
X162919176Y-127122829D01*
X162704120Y-127033749D01*
X169213157Y-127033749D01*
X169526031Y-127346623D01*
X169526031Y-127346624D01*
X169752944Y-127573536D01*
X170022352Y-127842944D01*
X170249264Y-128069857D01*
X170249265Y-128069857D01*
X171450000Y-129270592D01*
X172650735Y-128069857D01*
X172650736Y-128069857D01*
X172877648Y-127842944D01*
X173147056Y-127573536D01*
X173373969Y-127346624D01*
X173373969Y-127346623D01*
X173686843Y-127033749D01*
X173295278Y-126676095D01*
X172701102Y-126371129D01*
X172058847Y-126187940D01*
X171393193Y-126133569D01*
X170729723Y-126210105D01*
X170093933Y-126414606D01*
X169604722Y-126676095D01*
X169213157Y-127033749D01*
X162704120Y-127033749D01*
X162683592Y-127025246D01*
X162556669Y-127000000D01*
X162683592Y-126974754D01*
X162919176Y-126877171D01*
X163131196Y-126735504D01*
X163311504Y-126555196D01*
X163453171Y-126343176D01*
X163550754Y-126107592D01*
X163600500Y-125857497D01*
X163600500Y-125602503D01*
X163550754Y-125352408D01*
X163532662Y-125308731D01*
X163983393Y-124858000D01*
X171651578Y-124858000D01*
X171655256Y-124895345D01*
X171666149Y-124931254D01*
X171683838Y-124964348D01*
X171707644Y-124993356D01*
X171736652Y-125017162D01*
X171769746Y-125034851D01*
X171805655Y-125045744D01*
X171843000Y-125049422D01*
X172354875Y-125048500D01*
X172402500Y-125000875D01*
X172402500Y-124523500D01*
X172783500Y-124523500D01*
X172783500Y-125000875D01*
X172831125Y-125048500D01*
X173343000Y-125049422D01*
X173380345Y-125045744D01*
X173416254Y-125034851D01*
X173449348Y-125017162D01*
X173478356Y-124993356D01*
X173502162Y-124964348D01*
X173519851Y-124931254D01*
X173530744Y-124895345D01*
X173534422Y-124858000D01*
X173533500Y-124571125D01*
X173485875Y-124523500D01*
X172783500Y-124523500D01*
X172402500Y-124523500D01*
X171700125Y-124523500D01*
X171652500Y-124571125D01*
X171651578Y-124858000D01*
X163983393Y-124858000D01*
X165208895Y-123632500D01*
X171581191Y-123632500D01*
X171665866Y-123735677D01*
X171655256Y-123770655D01*
X171651578Y-123808000D01*
X171652500Y-124094875D01*
X171700125Y-124142500D01*
X172402500Y-124142500D01*
X172402500Y-124122500D01*
X172783500Y-124122500D01*
X172783500Y-124142500D01*
X173485875Y-124142500D01*
X173533500Y-124094875D01*
X173534422Y-123808000D01*
X173530744Y-123770655D01*
X173520134Y-123735677D01*
X173628009Y-123604231D01*
X173718034Y-123435806D01*
X173773471Y-123253055D01*
X173792190Y-123063000D01*
X173773471Y-122872945D01*
X173718034Y-122690194D01*
X173628009Y-122521769D01*
X173551055Y-122428000D01*
X173628009Y-122334231D01*
X173718034Y-122165806D01*
X173773471Y-121983055D01*
X173792190Y-121793000D01*
X173773471Y-121602945D01*
X173718034Y-121420194D01*
X173628009Y-121251769D01*
X173506856Y-121104144D01*
X173359231Y-120982991D01*
X173190806Y-120892966D01*
X173008055Y-120837529D01*
X172865618Y-120823500D01*
X172320382Y-120823500D01*
X172177945Y-120837529D01*
X171995194Y-120892966D01*
X171826769Y-120982991D01*
X171679144Y-121104144D01*
X171557991Y-121251769D01*
X171467966Y-121420194D01*
X171412529Y-121602945D01*
X171393810Y-121793000D01*
X171412529Y-121983055D01*
X171467966Y-122165806D01*
X171557991Y-122334231D01*
X171634945Y-122428000D01*
X171581191Y-122493500D01*
X165000964Y-122493500D01*
X164973000Y-122490746D01*
X164945036Y-122493500D01*
X164945029Y-122493500D01*
X164871573Y-122500735D01*
X164861358Y-122501741D01*
X164754007Y-122534305D01*
X164655072Y-122587187D01*
X164615264Y-122619857D01*
X164590081Y-122640524D01*
X164590077Y-122640528D01*
X164568355Y-122658355D01*
X164550527Y-122680078D01*
X162727269Y-124503338D01*
X162683592Y-124485246D01*
X162433497Y-124435500D01*
X162178503Y-124435500D01*
X161928408Y-124485246D01*
X161692824Y-124582829D01*
X161480804Y-124724496D01*
X161300496Y-124904804D01*
X161158829Y-125116824D01*
X161061246Y-125352408D01*
X161011500Y-125602503D01*
X161011500Y-125857497D01*
X161061246Y-126107592D01*
X161158829Y-126343176D01*
X161300496Y-126555196D01*
X161480804Y-126735504D01*
X161692824Y-126877171D01*
X161928408Y-126974754D01*
X162055331Y-127000000D01*
X161928408Y-127025246D01*
X161692824Y-127122829D01*
X161480804Y-127264496D01*
X161300496Y-127444804D01*
X161158829Y-127656824D01*
X161061246Y-127892408D01*
X161036000Y-128019331D01*
X161010754Y-127892408D01*
X160913171Y-127656824D01*
X160771504Y-127444804D01*
X160591196Y-127264496D01*
X160379176Y-127122829D01*
X160143592Y-127025246D01*
X159893497Y-126975500D01*
X159638503Y-126975500D01*
X159388408Y-127025246D01*
X159152824Y-127122829D01*
X158940804Y-127264496D01*
X158760496Y-127444804D01*
X158618829Y-127656824D01*
X158521246Y-127892408D01*
X158496000Y-128019331D01*
X158470754Y-127892408D01*
X158373171Y-127656824D01*
X158231504Y-127444804D01*
X158051196Y-127264496D01*
X157839176Y-127122829D01*
X157603592Y-127025246D01*
X157476669Y-127000000D01*
X157603592Y-126974754D01*
X157839176Y-126877171D01*
X158051196Y-126735504D01*
X158229344Y-126557356D01*
X159208052Y-126557356D01*
X159315855Y-126673670D01*
X159508605Y-126743357D01*
X159711247Y-126774101D01*
X159915993Y-126764721D01*
X160114975Y-126715576D01*
X160216145Y-126673670D01*
X160323948Y-126557356D01*
X159766000Y-125999408D01*
X159208052Y-126557356D01*
X158229344Y-126557356D01*
X158231504Y-126555196D01*
X158373171Y-126343176D01*
X158470754Y-126107592D01*
X158520500Y-125857497D01*
X158520500Y-125675247D01*
X158721899Y-125675247D01*
X158731279Y-125879993D01*
X158780424Y-126078975D01*
X158822330Y-126180145D01*
X158938644Y-126287948D01*
X159496592Y-125730000D01*
X160035408Y-125730000D01*
X160593356Y-126287948D01*
X160709670Y-126180145D01*
X160779357Y-125987395D01*
X160810101Y-125784753D01*
X160800721Y-125580007D01*
X160751576Y-125381025D01*
X160709670Y-125279855D01*
X160593356Y-125172052D01*
X160035408Y-125730000D01*
X159496592Y-125730000D01*
X158938644Y-125172052D01*
X158822330Y-125279855D01*
X158752643Y-125472605D01*
X158721899Y-125675247D01*
X158520500Y-125675247D01*
X158520500Y-125602503D01*
X158470754Y-125352408D01*
X158373171Y-125116824D01*
X158231504Y-124904804D01*
X158229344Y-124902644D01*
X159208052Y-124902644D01*
X159766000Y-125460592D01*
X160323948Y-124902644D01*
X160216145Y-124786330D01*
X160023395Y-124716643D01*
X159820753Y-124685899D01*
X159616007Y-124695279D01*
X159417025Y-124744424D01*
X159315855Y-124786330D01*
X159208052Y-124902644D01*
X158229344Y-124902644D01*
X158051196Y-124724496D01*
X157839176Y-124582829D01*
X157603592Y-124485246D01*
X157353497Y-124435500D01*
X157098503Y-124435500D01*
X156848408Y-124485246D01*
X156612824Y-124582829D01*
X156400804Y-124724496D01*
X156220496Y-124904804D01*
X156078829Y-125116824D01*
X155981246Y-125352408D01*
X155956000Y-125479331D01*
X155930754Y-125352408D01*
X155833171Y-125116824D01*
X155691504Y-124904804D01*
X155511196Y-124724496D01*
X155299176Y-124582829D01*
X155063592Y-124485246D01*
X154813497Y-124435500D01*
X154558503Y-124435500D01*
X154308408Y-124485246D01*
X154072824Y-124582829D01*
X153860804Y-124724496D01*
X153680496Y-124904804D01*
X153538829Y-125116824D01*
X153441246Y-125352408D01*
X153416000Y-125479331D01*
X153390754Y-125352408D01*
X153293171Y-125116824D01*
X153151504Y-124904804D01*
X152971196Y-124724496D01*
X152759176Y-124582829D01*
X152523592Y-124485246D01*
X152273497Y-124435500D01*
X152018503Y-124435500D01*
X151768408Y-124485246D01*
X151532824Y-124582829D01*
X151320804Y-124724496D01*
X151140496Y-124904804D01*
X150998829Y-125116824D01*
X150901246Y-125352408D01*
X150851500Y-125602503D01*
X150851500Y-125857497D01*
X150901246Y-126107592D01*
X150998829Y-126343176D01*
X151140496Y-126555196D01*
X151320804Y-126735504D01*
X151532824Y-126877171D01*
X151765018Y-126973350D01*
X151546000Y-126973350D01*
X151410090Y-126986736D01*
X151279404Y-127026379D01*
X151158962Y-127090757D01*
X151053394Y-127177394D01*
X150966757Y-127282962D01*
X150902379Y-127403404D01*
X150862736Y-127534090D01*
X150849350Y-127670000D01*
X118602500Y-127670000D01*
X118602500Y-127294411D01*
X118583769Y-127104234D01*
X118509748Y-126860220D01*
X118389545Y-126635335D01*
X118227778Y-126438222D01*
X118030664Y-126276455D01*
X117805779Y-126156252D01*
X117561765Y-126082231D01*
X117308000Y-126057237D01*
X117054234Y-126082231D01*
X116810220Y-126156252D01*
X116585335Y-126276455D01*
X116388222Y-126438222D01*
X116226455Y-126635336D01*
X116106252Y-126860221D01*
X116032231Y-127104235D01*
X116013500Y-127294412D01*
X115823963Y-127294412D01*
X115848500Y-127269875D01*
X115849422Y-126508000D01*
X115845744Y-126470655D01*
X115834851Y-126434746D01*
X115817162Y-126401652D01*
X115793356Y-126372644D01*
X115764348Y-126348838D01*
X115731254Y-126331149D01*
X115695345Y-126320256D01*
X115658000Y-126316578D01*
X115046125Y-126317500D01*
X114998500Y-126365125D01*
X114617500Y-126365125D01*
X114569875Y-126317500D01*
X113958000Y-126316578D01*
X113920655Y-126320256D01*
X113884746Y-126331149D01*
X113851652Y-126348838D01*
X113822644Y-126372644D01*
X113798838Y-126401652D01*
X113781149Y-126434746D01*
X113770256Y-126470655D01*
X113766578Y-126508000D01*
X109467773Y-126508000D01*
X109201102Y-126371129D01*
X108558847Y-126187940D01*
X107893193Y-126133569D01*
X107229723Y-126210105D01*
X106593933Y-126414606D01*
X106104722Y-126676095D01*
X105713157Y-127033749D01*
X104838500Y-127033749D01*
X104838500Y-121755000D01*
X127531350Y-121755000D01*
X127531350Y-123355000D01*
X127539932Y-123442137D01*
X127565349Y-123525926D01*
X127606624Y-123603145D01*
X127662171Y-123670829D01*
X127729855Y-123726376D01*
X127807074Y-123767651D01*
X127890863Y-123793068D01*
X127978000Y-123801650D01*
X129578000Y-123801650D01*
X129665137Y-123793068D01*
X129748926Y-123767651D01*
X129826145Y-123726376D01*
X129893829Y-123670829D01*
X129949376Y-123603145D01*
X129990651Y-123525926D01*
X130016068Y-123442137D01*
X130024650Y-123355000D01*
X130024650Y-121755000D01*
X130016068Y-121667863D01*
X129990651Y-121584074D01*
X129949376Y-121506855D01*
X129893829Y-121439171D01*
X129826145Y-121383624D01*
X129748926Y-121342349D01*
X129665137Y-121316932D01*
X129578000Y-121308350D01*
X127978000Y-121308350D01*
X127890863Y-121316932D01*
X127807074Y-121342349D01*
X127729855Y-121383624D01*
X127662171Y-121439171D01*
X127606624Y-121506855D01*
X127565349Y-121584074D01*
X127539932Y-121667863D01*
X127531350Y-121755000D01*
X104838500Y-121755000D01*
X104838500Y-119846127D01*
X128256280Y-119846127D01*
X128357915Y-119957295D01*
X128542016Y-120021912D01*
X128735185Y-120049371D01*
X128930000Y-120038617D01*
X129118974Y-119990064D01*
X129198085Y-119957295D01*
X129299720Y-119846127D01*
X128778000Y-119324408D01*
X128256280Y-119846127D01*
X104838500Y-119846127D01*
X104838500Y-119012185D01*
X127783629Y-119012185D01*
X127794383Y-119207000D01*
X127842936Y-119395974D01*
X127875705Y-119475085D01*
X127986873Y-119576720D01*
X128508592Y-119055000D01*
X129047408Y-119055000D01*
X129569127Y-119576720D01*
X129680295Y-119475085D01*
X129744912Y-119290984D01*
X129772371Y-119097815D01*
X129769336Y-119042824D01*
X159429500Y-119042824D01*
X159429500Y-119209176D01*
X159461954Y-119372332D01*
X159525614Y-119526021D01*
X159618034Y-119664337D01*
X159735663Y-119781966D01*
X159873979Y-119874386D01*
X160027668Y-119938046D01*
X160190824Y-119970500D01*
X160357176Y-119970500D01*
X160520332Y-119938046D01*
X160674021Y-119874386D01*
X160812337Y-119781966D01*
X160929966Y-119664337D01*
X161022386Y-119526021D01*
X161086046Y-119372332D01*
X161118500Y-119209176D01*
X161118500Y-119042824D01*
X161086046Y-118879668D01*
X161022386Y-118725979D01*
X160929966Y-118587663D01*
X160843500Y-118501197D01*
X160843500Y-109182000D01*
X168933350Y-109182000D01*
X168933350Y-110782000D01*
X168941932Y-110869137D01*
X168967349Y-110952926D01*
X169008624Y-111030145D01*
X169064171Y-111097829D01*
X169131855Y-111153376D01*
X169209074Y-111194651D01*
X169292863Y-111220068D01*
X169380000Y-111228650D01*
X170980000Y-111228650D01*
X171067137Y-111220068D01*
X171150926Y-111194651D01*
X171228145Y-111153376D01*
X171295829Y-111097829D01*
X171351376Y-111030145D01*
X171392651Y-110952926D01*
X171418068Y-110869137D01*
X171426650Y-110782000D01*
X171426650Y-110773127D01*
X172158280Y-110773127D01*
X172259915Y-110884295D01*
X172444016Y-110948912D01*
X172637185Y-110976371D01*
X172832000Y-110965617D01*
X173020974Y-110917064D01*
X173100085Y-110884295D01*
X173201720Y-110773127D01*
X172680000Y-110251408D01*
X172158280Y-110773127D01*
X171426650Y-110773127D01*
X171426650Y-109939185D01*
X171685629Y-109939185D01*
X171696383Y-110134000D01*
X171744936Y-110322974D01*
X171777705Y-110402085D01*
X171888873Y-110503720D01*
X172410592Y-109982000D01*
X172949408Y-109982000D01*
X173471127Y-110503720D01*
X173582295Y-110402085D01*
X173646912Y-110217984D01*
X173674371Y-110024815D01*
X173663617Y-109830000D01*
X173615064Y-109641026D01*
X173582295Y-109561915D01*
X173471127Y-109460280D01*
X172949408Y-109982000D01*
X172410592Y-109982000D01*
X171888873Y-109460280D01*
X171777705Y-109561915D01*
X171713088Y-109746016D01*
X171685629Y-109939185D01*
X171426650Y-109939185D01*
X171426650Y-109190873D01*
X172158280Y-109190873D01*
X172680000Y-109712592D01*
X173201720Y-109190873D01*
X173100085Y-109079705D01*
X172915984Y-109015088D01*
X172722815Y-108987629D01*
X172528000Y-108998383D01*
X172339026Y-109046936D01*
X172259915Y-109079705D01*
X172158280Y-109190873D01*
X171426650Y-109190873D01*
X171426650Y-109182000D01*
X171418068Y-109094863D01*
X171392651Y-109011074D01*
X171351376Y-108933855D01*
X171295829Y-108866171D01*
X171228145Y-108810624D01*
X171150926Y-108769349D01*
X171067137Y-108743932D01*
X170980000Y-108735350D01*
X169380000Y-108735350D01*
X169292863Y-108743932D01*
X169209074Y-108769349D01*
X169131855Y-108810624D01*
X169064171Y-108866171D01*
X169008624Y-108933855D01*
X168967349Y-109011074D01*
X168941932Y-109094863D01*
X168933350Y-109182000D01*
X160843500Y-109182000D01*
X160843500Y-100688000D01*
X164378350Y-100688000D01*
X164378350Y-100988000D01*
X164389814Y-101104401D01*
X164423767Y-101216328D01*
X164478904Y-101319481D01*
X164553105Y-101409895D01*
X164629999Y-101473000D01*
X164553105Y-101536105D01*
X164478904Y-101626519D01*
X164423767Y-101729672D01*
X164389814Y-101841599D01*
X164378350Y-101958000D01*
X164378350Y-102258000D01*
X164389814Y-102374401D01*
X164423767Y-102486328D01*
X164478904Y-102589481D01*
X164553105Y-102679895D01*
X164629999Y-102743000D01*
X164553105Y-102806105D01*
X164478904Y-102896519D01*
X164423767Y-102999672D01*
X164389814Y-103111599D01*
X164378350Y-103228000D01*
X164378350Y-103528000D01*
X164389814Y-103644401D01*
X164423767Y-103756328D01*
X164478904Y-103859481D01*
X164553105Y-103949895D01*
X164629999Y-104013000D01*
X164553105Y-104076105D01*
X164478904Y-104166519D01*
X164423767Y-104269672D01*
X164389814Y-104381599D01*
X164378350Y-104498000D01*
X164378350Y-104798000D01*
X164389814Y-104914401D01*
X164423767Y-105026328D01*
X164478904Y-105129481D01*
X164553105Y-105219895D01*
X164643519Y-105294096D01*
X164746672Y-105349233D01*
X164858599Y-105383186D01*
X164975000Y-105394650D01*
X166625000Y-105394650D01*
X166741401Y-105383186D01*
X166853328Y-105349233D01*
X166956481Y-105294096D01*
X167046895Y-105219895D01*
X167121096Y-105129481D01*
X167176233Y-105026328D01*
X167210186Y-104914401D01*
X167221650Y-104798000D01*
X167221650Y-104498000D01*
X167210186Y-104381599D01*
X167176233Y-104269672D01*
X167121096Y-104166519D01*
X167046895Y-104076105D01*
X166970001Y-104013000D01*
X167046895Y-103949895D01*
X167121096Y-103859481D01*
X167176233Y-103756328D01*
X167210186Y-103644401D01*
X167221650Y-103528000D01*
X167221650Y-103228000D01*
X167210186Y-103111599D01*
X167176233Y-102999672D01*
X167121096Y-102896519D01*
X167046895Y-102806105D01*
X166970001Y-102743000D01*
X167046895Y-102679895D01*
X167121096Y-102589481D01*
X167176233Y-102486328D01*
X167210186Y-102374401D01*
X167221650Y-102258000D01*
X167221650Y-101958000D01*
X167210186Y-101841599D01*
X167176233Y-101729672D01*
X167121096Y-101626519D01*
X167046895Y-101536105D01*
X166970001Y-101473000D01*
X167046895Y-101409895D01*
X167121096Y-101319481D01*
X167176233Y-101216328D01*
X167210186Y-101104401D01*
X167221650Y-100988000D01*
X167221650Y-100688000D01*
X169328350Y-100688000D01*
X169328350Y-100988000D01*
X169339814Y-101104401D01*
X169373767Y-101216328D01*
X169428904Y-101319481D01*
X169503105Y-101409895D01*
X169579999Y-101473000D01*
X169503105Y-101536105D01*
X169428904Y-101626519D01*
X169373767Y-101729672D01*
X169339814Y-101841599D01*
X169328350Y-101958000D01*
X169328350Y-102258000D01*
X169339814Y-102374401D01*
X169373767Y-102486328D01*
X169428904Y-102589481D01*
X169503105Y-102679895D01*
X169579999Y-102743000D01*
X169503105Y-102806105D01*
X169428904Y-102896519D01*
X169373767Y-102999672D01*
X169339814Y-103111599D01*
X169328350Y-103228000D01*
X169328350Y-103528000D01*
X169339814Y-103644401D01*
X169373767Y-103756328D01*
X169428904Y-103859481D01*
X169503105Y-103949895D01*
X169579999Y-104013000D01*
X169503105Y-104076105D01*
X169428904Y-104166519D01*
X169373767Y-104269672D01*
X169339814Y-104381599D01*
X169328350Y-104498000D01*
X169328350Y-104798000D01*
X169339814Y-104914401D01*
X169373767Y-105026328D01*
X169428904Y-105129481D01*
X169503105Y-105219895D01*
X169593519Y-105294096D01*
X169696672Y-105349233D01*
X169808599Y-105383186D01*
X169925000Y-105394650D01*
X171575000Y-105394650D01*
X171691401Y-105383186D01*
X171803328Y-105349233D01*
X171906481Y-105294096D01*
X171996895Y-105219895D01*
X172071096Y-105129481D01*
X172126233Y-105026328D01*
X172160186Y-104914401D01*
X172171650Y-104798000D01*
X172171650Y-104498000D01*
X172160186Y-104381599D01*
X172126233Y-104269672D01*
X172071096Y-104166519D01*
X171996895Y-104076105D01*
X171920001Y-104013000D01*
X171996895Y-103949895D01*
X172071096Y-103859481D01*
X172126233Y-103756328D01*
X172160186Y-103644401D01*
X172171650Y-103528000D01*
X172171650Y-103228000D01*
X172160186Y-103111599D01*
X172126233Y-102999672D01*
X172071096Y-102896519D01*
X171996895Y-102806105D01*
X171920001Y-102743000D01*
X171996895Y-102679895D01*
X172071096Y-102589481D01*
X172126233Y-102486328D01*
X172160186Y-102374401D01*
X172171650Y-102258000D01*
X172171650Y-101958000D01*
X172160186Y-101841599D01*
X172126233Y-101729672D01*
X172071096Y-101626519D01*
X171996895Y-101536105D01*
X171920001Y-101473000D01*
X171996895Y-101409895D01*
X172071096Y-101319481D01*
X172126233Y-101216328D01*
X172160186Y-101104401D01*
X172171650Y-100988000D01*
X172171650Y-100688000D01*
X172160186Y-100571599D01*
X172126233Y-100459672D01*
X172071096Y-100356519D01*
X171996895Y-100266105D01*
X171906481Y-100191904D01*
X171803328Y-100136767D01*
X171691401Y-100102814D01*
X171575000Y-100091350D01*
X169925000Y-100091350D01*
X169808599Y-100102814D01*
X169696672Y-100136767D01*
X169593519Y-100191904D01*
X169503105Y-100266105D01*
X169428904Y-100356519D01*
X169373767Y-100459672D01*
X169339814Y-100571599D01*
X169328350Y-100688000D01*
X167221650Y-100688000D01*
X167210186Y-100571599D01*
X167176233Y-100459672D01*
X167121096Y-100356519D01*
X167046895Y-100266105D01*
X166956481Y-100191904D01*
X166853328Y-100136767D01*
X166741401Y-100102814D01*
X166625000Y-100091350D01*
X164975000Y-100091350D01*
X164858599Y-100102814D01*
X164746672Y-100136767D01*
X164643519Y-100191904D01*
X164553105Y-100266105D01*
X164478904Y-100356519D01*
X164423767Y-100459672D01*
X164389814Y-100571599D01*
X164378350Y-100688000D01*
X160843500Y-100688000D01*
X160843500Y-93320380D01*
X160852290Y-93311590D01*
X160933766Y-93189652D01*
X160989888Y-93054162D01*
X161018499Y-92910327D01*
X161018499Y-92763673D01*
X160989888Y-92619838D01*
X160933766Y-92484348D01*
X160852290Y-92362410D01*
X160748590Y-92258710D01*
X160626652Y-92177234D01*
X160491162Y-92121112D01*
X160347327Y-92092501D01*
X160200673Y-92092501D01*
X160056838Y-92121112D01*
X159921348Y-92177234D01*
X159799410Y-92258710D01*
X159695710Y-92362410D01*
X159614234Y-92484348D01*
X159558112Y-92619838D01*
X159529501Y-92763673D01*
X159529501Y-92910327D01*
X159558112Y-93054162D01*
X159614234Y-93189652D01*
X159695710Y-93311590D01*
X159704500Y-93320380D01*
X159704501Y-115288020D01*
X159704500Y-115288030D01*
X159704501Y-118501196D01*
X159618034Y-118587663D01*
X159525614Y-118725979D01*
X159461954Y-118879668D01*
X159429500Y-119042824D01*
X129769336Y-119042824D01*
X129761617Y-118903000D01*
X129713064Y-118714026D01*
X129680295Y-118634915D01*
X129569127Y-118533280D01*
X129047408Y-119055000D01*
X128508592Y-119055000D01*
X127986873Y-118533280D01*
X127875705Y-118634915D01*
X127811088Y-118819016D01*
X127783629Y-119012185D01*
X104838500Y-119012185D01*
X104838500Y-118263873D01*
X128256280Y-118263873D01*
X128778000Y-118785592D01*
X129299720Y-118263873D01*
X129198085Y-118152705D01*
X129013984Y-118088088D01*
X128820815Y-118060629D01*
X128626000Y-118071383D01*
X128437026Y-118119936D01*
X128357915Y-118152705D01*
X128256280Y-118263873D01*
X104838500Y-118263873D01*
X104838500Y-115232824D01*
X140824000Y-115232824D01*
X140824000Y-115399176D01*
X140856454Y-115562332D01*
X140920114Y-115716021D01*
X141012534Y-115854337D01*
X141130163Y-115971966D01*
X141268479Y-116064386D01*
X141422168Y-116128046D01*
X141585324Y-116160500D01*
X141751676Y-116160500D01*
X141914832Y-116128046D01*
X142068521Y-116064386D01*
X142206837Y-115971966D01*
X142324466Y-115854337D01*
X142416886Y-115716021D01*
X142480546Y-115562332D01*
X142513000Y-115399176D01*
X142513000Y-115232824D01*
X154540000Y-115232824D01*
X154540000Y-115399176D01*
X154572454Y-115562332D01*
X154636114Y-115716021D01*
X154728534Y-115854337D01*
X154846163Y-115971966D01*
X154984479Y-116064386D01*
X155138168Y-116128046D01*
X155301324Y-116160500D01*
X155467676Y-116160500D01*
X155630832Y-116128046D01*
X155784521Y-116064386D01*
X155922837Y-115971966D01*
X156040466Y-115854337D01*
X156132886Y-115716021D01*
X156196546Y-115562332D01*
X156229000Y-115399176D01*
X156229000Y-115232824D01*
X156196546Y-115069668D01*
X156132886Y-114915979D01*
X156040466Y-114777663D01*
X155954000Y-114691197D01*
X155954000Y-110208882D01*
X155960291Y-110202591D01*
X156041767Y-110080653D01*
X156097889Y-109945163D01*
X156126500Y-109801327D01*
X156126500Y-109654673D01*
X156097889Y-109510837D01*
X156041767Y-109375347D01*
X155960291Y-109253409D01*
X155856591Y-109149709D01*
X155734653Y-109068233D01*
X155599163Y-109012111D01*
X155455327Y-108983500D01*
X155308673Y-108983500D01*
X155164837Y-109012111D01*
X155029347Y-109068233D01*
X154907409Y-109149709D01*
X154803709Y-109253409D01*
X154722233Y-109375347D01*
X154666111Y-109510837D01*
X154637500Y-109654673D01*
X154637500Y-109801327D01*
X154666111Y-109945163D01*
X154722233Y-110080653D01*
X154803709Y-110202591D01*
X154815001Y-110213883D01*
X154815000Y-114691197D01*
X154728534Y-114777663D01*
X154636114Y-114915979D01*
X154572454Y-115069668D01*
X154540000Y-115232824D01*
X142513000Y-115232824D01*
X142480546Y-115069668D01*
X142416886Y-114915979D01*
X142324466Y-114777663D01*
X142238000Y-114691197D01*
X142238000Y-110211382D01*
X142246791Y-110202591D01*
X142328267Y-110080653D01*
X142384389Y-109945163D01*
X142413000Y-109801327D01*
X142413000Y-109654673D01*
X142384389Y-109510837D01*
X142328267Y-109375347D01*
X142246791Y-109253409D01*
X142143091Y-109149709D01*
X142021153Y-109068233D01*
X141885663Y-109012111D01*
X141741827Y-108983500D01*
X141595173Y-108983500D01*
X141451337Y-109012111D01*
X141315847Y-109068233D01*
X141193909Y-109149709D01*
X141090209Y-109253409D01*
X141008733Y-109375347D01*
X140952611Y-109510837D01*
X140924000Y-109654673D01*
X140924000Y-109801327D01*
X140952611Y-109945163D01*
X141008733Y-110080653D01*
X141090209Y-110202591D01*
X141099001Y-110211383D01*
X141099000Y-114691197D01*
X141012534Y-114777663D01*
X140920114Y-114915979D01*
X140856454Y-115069668D01*
X140824000Y-115232824D01*
X104838500Y-115232824D01*
X104838500Y-96901000D01*
X106616500Y-96901000D01*
X106616500Y-103886000D01*
X106631646Y-104001046D01*
X106648661Y-104064546D01*
X106667351Y-104119603D01*
X106708427Y-104196451D01*
X106763706Y-104263809D01*
X106810191Y-104310294D01*
X106853904Y-104348630D01*
X106927901Y-104394644D01*
X107009454Y-104425339D01*
X107072954Y-104442354D01*
X107188000Y-104457500D01*
X112268000Y-104457500D01*
X112383046Y-104442354D01*
X112446546Y-104425339D01*
X112501603Y-104406649D01*
X112578451Y-104365573D01*
X112645809Y-104310294D01*
X112692294Y-104263809D01*
X112730630Y-104220096D01*
X112776644Y-104146099D01*
X112807339Y-104064546D01*
X112824354Y-104001046D01*
X112839500Y-103886000D01*
X112839500Y-96901000D01*
X112824354Y-96785954D01*
X112807339Y-96722454D01*
X112788649Y-96667397D01*
X112747573Y-96590549D01*
X112692294Y-96523191D01*
X112645809Y-96476706D01*
X112602096Y-96438370D01*
X112528099Y-96392356D01*
X112446546Y-96361661D01*
X112383046Y-96344646D01*
X112268000Y-96329500D01*
X107188000Y-96329500D01*
X107072954Y-96344646D01*
X107009454Y-96361661D01*
X106954397Y-96380351D01*
X106877549Y-96421427D01*
X106810191Y-96476706D01*
X106763706Y-96523191D01*
X106725370Y-96566904D01*
X106679356Y-96640901D01*
X106648661Y-96722454D01*
X106631646Y-96785954D01*
X106616500Y-96901000D01*
X104838500Y-96901000D01*
X104838500Y-92954173D01*
X115143000Y-92954173D01*
X115143000Y-93100827D01*
X115171611Y-93244663D01*
X115227733Y-93380153D01*
X115309209Y-93502091D01*
X115412909Y-93605791D01*
X115534847Y-93687267D01*
X115670337Y-93743389D01*
X115814173Y-93772000D01*
X115960827Y-93772000D01*
X116104663Y-93743389D01*
X116240153Y-93687267D01*
X116362091Y-93605791D01*
X116370882Y-93597000D01*
X122900767Y-93597000D01*
X123573000Y-94269235D01*
X123573001Y-106006119D01*
X123564210Y-106014910D01*
X123482734Y-106136848D01*
X123426612Y-106272338D01*
X123398001Y-106416173D01*
X123398001Y-106562827D01*
X123426612Y-106706662D01*
X123482734Y-106842152D01*
X123564210Y-106964090D01*
X123667910Y-107067790D01*
X123789848Y-107149266D01*
X123925338Y-107205388D01*
X124069173Y-107233999D01*
X124215827Y-107233999D01*
X124359662Y-107205388D01*
X124495152Y-107149266D01*
X124617090Y-107067790D01*
X124720790Y-106964090D01*
X124802266Y-106842152D01*
X124858388Y-106706662D01*
X124886999Y-106562827D01*
X124886999Y-106416173D01*
X124858388Y-106272338D01*
X124802266Y-106136848D01*
X124720790Y-106014910D01*
X124712000Y-106006120D01*
X124712000Y-103431673D01*
X126509500Y-103431673D01*
X126509500Y-103578327D01*
X126538111Y-103722163D01*
X126594233Y-103857653D01*
X126675709Y-103979591D01*
X126779409Y-104083291D01*
X126901347Y-104164767D01*
X127036837Y-104220889D01*
X127180673Y-104249500D01*
X127327327Y-104249500D01*
X127471163Y-104220889D01*
X127606653Y-104164767D01*
X127728591Y-104083291D01*
X127832291Y-103979591D01*
X127913767Y-103857653D01*
X127969889Y-103722163D01*
X127998500Y-103578327D01*
X127998500Y-103431673D01*
X127969889Y-103287837D01*
X127913767Y-103152347D01*
X127832291Y-103030409D01*
X127823500Y-103021618D01*
X127823500Y-98406893D01*
X131065924Y-95164471D01*
X131087645Y-95146645D01*
X131158813Y-95059928D01*
X131211695Y-94960993D01*
X131244259Y-94853641D01*
X131252500Y-94769971D01*
X131252500Y-94769965D01*
X131255254Y-94742001D01*
X131252500Y-94714037D01*
X131252500Y-88508803D01*
X131338966Y-88422337D01*
X131431386Y-88284021D01*
X131495046Y-88130332D01*
X131527500Y-87967176D01*
X131527500Y-87800824D01*
X131495046Y-87637668D01*
X131431386Y-87483979D01*
X131338966Y-87345663D01*
X131221337Y-87228034D01*
X131083021Y-87135614D01*
X130929332Y-87071954D01*
X130766176Y-87039500D01*
X130599824Y-87039500D01*
X130436668Y-87071954D01*
X130282979Y-87135614D01*
X130144663Y-87228034D01*
X130027034Y-87345663D01*
X129934614Y-87483979D01*
X129870954Y-87637668D01*
X129838500Y-87800824D01*
X129838500Y-87967176D01*
X129870954Y-88130332D01*
X129934614Y-88284021D01*
X130027034Y-88422337D01*
X130113501Y-88508804D01*
X130113500Y-94506105D01*
X126871084Y-97748523D01*
X126849356Y-97766355D01*
X126778188Y-97853072D01*
X126749921Y-97905955D01*
X126725305Y-97952008D01*
X126692741Y-98059359D01*
X126681746Y-98171000D01*
X126684501Y-98198974D01*
X126684500Y-103021618D01*
X126675709Y-103030409D01*
X126594233Y-103152347D01*
X126538111Y-103287837D01*
X126509500Y-103431673D01*
X124712000Y-103431673D01*
X124712000Y-94061304D01*
X124714754Y-94033340D01*
X124712000Y-94005376D01*
X124712000Y-94005369D01*
X124703759Y-93921699D01*
X124671195Y-93814347D01*
X124618313Y-93715412D01*
X124585643Y-93675604D01*
X124564976Y-93650421D01*
X124564972Y-93650417D01*
X124547145Y-93628695D01*
X124525423Y-93610868D01*
X123559141Y-92644588D01*
X123541305Y-92622855D01*
X123454588Y-92551687D01*
X123355653Y-92498805D01*
X123248301Y-92466241D01*
X123164631Y-92458000D01*
X123164624Y-92458000D01*
X123136660Y-92455246D01*
X123108696Y-92458000D01*
X116370882Y-92458000D01*
X116362091Y-92449209D01*
X116240153Y-92367733D01*
X116104663Y-92311611D01*
X115960827Y-92283000D01*
X115814173Y-92283000D01*
X115670337Y-92311611D01*
X115534847Y-92367733D01*
X115412909Y-92449209D01*
X115309209Y-92552909D01*
X115227733Y-92674847D01*
X115171611Y-92810337D01*
X115143000Y-92954173D01*
X104838500Y-92954173D01*
X104838500Y-89959824D01*
X118789500Y-89959824D01*
X118789500Y-90126176D01*
X118821954Y-90289332D01*
X118885614Y-90443021D01*
X118978034Y-90581337D01*
X119095663Y-90698966D01*
X119233979Y-90791386D01*
X119387668Y-90855046D01*
X119550824Y-90887500D01*
X119717176Y-90887500D01*
X119880332Y-90855046D01*
X120034021Y-90791386D01*
X120172337Y-90698966D01*
X120289966Y-90581337D01*
X120299545Y-90567000D01*
X126823350Y-90567000D01*
X126823350Y-92567000D01*
X126831932Y-92654137D01*
X126857349Y-92737926D01*
X126898624Y-92815145D01*
X126954171Y-92882829D01*
X127021855Y-92938376D01*
X127099074Y-92979651D01*
X127182863Y-93005068D01*
X127270000Y-93013650D01*
X129270000Y-93013650D01*
X129357137Y-93005068D01*
X129440926Y-92979651D01*
X129518145Y-92938376D01*
X129585829Y-92882829D01*
X129641376Y-92815145D01*
X129682651Y-92737926D01*
X129708068Y-92654137D01*
X129716650Y-92567000D01*
X129716650Y-90567000D01*
X129708068Y-90479863D01*
X129682651Y-90396074D01*
X129641376Y-90318855D01*
X129585829Y-90251171D01*
X129518145Y-90195624D01*
X129440926Y-90154349D01*
X129357137Y-90128932D01*
X129270000Y-90120350D01*
X127270000Y-90120350D01*
X127182863Y-90128932D01*
X127099074Y-90154349D01*
X127021855Y-90195624D01*
X126954171Y-90251171D01*
X126898624Y-90318855D01*
X126857349Y-90396074D01*
X126831932Y-90479863D01*
X126823350Y-90567000D01*
X120299545Y-90567000D01*
X120382386Y-90443021D01*
X120446046Y-90289332D01*
X120478500Y-90126176D01*
X120478500Y-89959824D01*
X120446046Y-89796668D01*
X120382386Y-89642979D01*
X120289966Y-89504663D01*
X120203500Y-89418197D01*
X120203500Y-87502663D01*
X127603744Y-87502663D01*
X127729947Y-87634417D01*
X127948567Y-87719267D01*
X128179539Y-87759835D01*
X128413987Y-87754563D01*
X128642903Y-87703653D01*
X128810053Y-87634417D01*
X128936256Y-87502663D01*
X128270000Y-86836408D01*
X127603744Y-87502663D01*
X120203500Y-87502663D01*
X120203500Y-86849893D01*
X120576854Y-86476539D01*
X127077165Y-86476539D01*
X127082437Y-86710987D01*
X127133347Y-86939903D01*
X127202583Y-87107053D01*
X127334337Y-87233256D01*
X128000592Y-86567000D01*
X128539408Y-86567000D01*
X129205663Y-87233256D01*
X129337417Y-87107053D01*
X129422267Y-86888433D01*
X129462835Y-86657461D01*
X129457563Y-86423013D01*
X129406653Y-86194097D01*
X129337417Y-86026947D01*
X129205663Y-85900744D01*
X128539408Y-86567000D01*
X128000592Y-86567000D01*
X127334337Y-85900744D01*
X127202583Y-86026947D01*
X127117733Y-86245567D01*
X127077165Y-86476539D01*
X120576854Y-86476539D01*
X121422056Y-85631337D01*
X127603744Y-85631337D01*
X128270000Y-86297592D01*
X128936256Y-85631337D01*
X128810053Y-85499583D01*
X128591433Y-85414733D01*
X128360461Y-85374165D01*
X128126013Y-85379437D01*
X127897097Y-85430347D01*
X127729947Y-85499583D01*
X127603744Y-85631337D01*
X121422056Y-85631337D01*
X123023895Y-84029500D01*
X123146176Y-84029500D01*
X123309332Y-83997046D01*
X123463021Y-83933386D01*
X123601337Y-83840966D01*
X123718966Y-83723337D01*
X123811386Y-83585021D01*
X123875046Y-83431332D01*
X123907500Y-83268176D01*
X123907500Y-83101824D01*
X123875046Y-82938668D01*
X123811386Y-82784979D01*
X123718966Y-82646663D01*
X123601337Y-82529034D01*
X123463021Y-82436614D01*
X123309332Y-82372954D01*
X123146176Y-82340500D01*
X122979824Y-82340500D01*
X122816668Y-82372954D01*
X122662979Y-82436614D01*
X122524663Y-82529034D01*
X122407034Y-82646663D01*
X122314614Y-82784979D01*
X122250954Y-82938668D01*
X122218500Y-83101824D01*
X122218500Y-83224105D01*
X119251084Y-86191523D01*
X119229356Y-86209355D01*
X119158188Y-86296072D01*
X119157376Y-86297592D01*
X119105305Y-86395008D01*
X119072741Y-86502359D01*
X119061746Y-86614000D01*
X119064501Y-86641974D01*
X119064500Y-89418197D01*
X118978034Y-89504663D01*
X118885614Y-89642979D01*
X118821954Y-89796668D01*
X118789500Y-89959824D01*
X104838500Y-89959824D01*
X104838500Y-88812673D01*
X109251501Y-88812673D01*
X109251501Y-88959327D01*
X109280112Y-89103162D01*
X109336234Y-89238652D01*
X109417710Y-89360590D01*
X109521410Y-89464290D01*
X109643348Y-89545766D01*
X109778838Y-89601888D01*
X109922673Y-89630499D01*
X110069327Y-89630499D01*
X110213162Y-89601888D01*
X110348652Y-89545766D01*
X110470590Y-89464290D01*
X110479380Y-89455500D01*
X111773534Y-89455500D01*
X111801498Y-89458254D01*
X111829462Y-89455500D01*
X111829469Y-89455500D01*
X111913139Y-89447259D01*
X112020491Y-89414695D01*
X112119426Y-89361813D01*
X112206143Y-89290645D01*
X112223980Y-89268911D01*
X117103392Y-84389500D01*
X119912618Y-84389500D01*
X119921409Y-84398291D01*
X120043347Y-84479767D01*
X120178837Y-84535889D01*
X120322673Y-84564500D01*
X120469327Y-84564500D01*
X120613163Y-84535889D01*
X120748653Y-84479767D01*
X120870591Y-84398291D01*
X120974291Y-84294591D01*
X121055767Y-84172653D01*
X121111889Y-84037163D01*
X121140500Y-83893327D01*
X121140500Y-83746673D01*
X121111889Y-83602837D01*
X121055767Y-83467347D01*
X120974291Y-83345409D01*
X120870591Y-83241709D01*
X120748653Y-83160233D01*
X120613163Y-83104111D01*
X120469327Y-83075500D01*
X120322673Y-83075500D01*
X120246979Y-83090557D01*
X120251500Y-83067827D01*
X120251500Y-82921173D01*
X120222889Y-82777337D01*
X120166767Y-82641847D01*
X120085291Y-82519909D01*
X119981591Y-82416209D01*
X119859653Y-82334733D01*
X119724163Y-82278611D01*
X119580327Y-82250000D01*
X119433673Y-82250000D01*
X119289837Y-82278611D01*
X119154347Y-82334733D01*
X119032409Y-82416209D01*
X119023618Y-82425000D01*
X114899463Y-82425000D01*
X114871499Y-82422246D01*
X114843535Y-82425000D01*
X114843529Y-82425000D01*
X114771101Y-82432134D01*
X114759858Y-82433241D01*
X114748739Y-82436614D01*
X114652507Y-82465805D01*
X114553572Y-82518687D01*
X114506625Y-82557216D01*
X114488580Y-82572025D01*
X114488577Y-82572028D01*
X114466855Y-82589855D01*
X114449027Y-82611578D01*
X110488089Y-86572518D01*
X110466355Y-86590355D01*
X110405264Y-86664794D01*
X110396410Y-86670710D01*
X110292710Y-86774410D01*
X110211234Y-86896348D01*
X110155112Y-87031838D01*
X110126501Y-87175673D01*
X110126501Y-87322327D01*
X110155112Y-87466162D01*
X110211234Y-87601652D01*
X110292710Y-87723590D01*
X110396410Y-87827290D01*
X110518348Y-87908766D01*
X110653838Y-87964888D01*
X110797673Y-87993499D01*
X110944327Y-87993499D01*
X111088162Y-87964888D01*
X111223652Y-87908766D01*
X111345590Y-87827290D01*
X111449290Y-87723590D01*
X111530766Y-87601652D01*
X111586888Y-87466162D01*
X111615499Y-87322327D01*
X111615499Y-87175673D01*
X111595626Y-87075767D01*
X115107395Y-83564000D01*
X116318104Y-83564000D01*
X111565605Y-88316500D01*
X110479380Y-88316500D01*
X110470590Y-88307710D01*
X110348652Y-88226234D01*
X110213162Y-88170112D01*
X110069327Y-88141501D01*
X109922673Y-88141501D01*
X109778838Y-88170112D01*
X109643348Y-88226234D01*
X109521410Y-88307710D01*
X109417710Y-88411410D01*
X109336234Y-88533348D01*
X109280112Y-88668838D01*
X109251501Y-88812673D01*
X104838500Y-88812673D01*
X104838500Y-81246251D01*
X105713157Y-81246251D01*
X106104722Y-81603905D01*
X106698898Y-81908871D01*
X107341153Y-82092060D01*
X108006807Y-82146431D01*
X108670277Y-82069895D01*
X109306067Y-81865394D01*
X109795278Y-81603905D01*
X110186843Y-81246251D01*
X109873969Y-80933377D01*
X109873969Y-80933376D01*
X109647056Y-80706464D01*
X109298361Y-80357769D01*
X109150736Y-80210143D01*
X109150735Y-80210143D01*
X107950000Y-79009408D01*
X106749265Y-80210143D01*
X106749264Y-80210143D01*
X106601639Y-80357769D01*
X106252944Y-80706464D01*
X106026031Y-80933376D01*
X106026031Y-80933377D01*
X105713157Y-81246251D01*
X104838500Y-81246251D01*
X104838500Y-80122061D01*
X105086095Y-80585278D01*
X105443749Y-80976843D01*
X105756623Y-80663969D01*
X105756624Y-80663969D01*
X105983536Y-80437056D01*
X106252944Y-80167648D01*
X106479857Y-79940736D01*
X106479857Y-79940735D01*
X107680592Y-78740000D01*
X108219408Y-78740000D01*
X109420143Y-79940735D01*
X109420143Y-79940736D01*
X109647056Y-80167648D01*
X109916464Y-80437056D01*
X110143376Y-80663969D01*
X110143377Y-80663969D01*
X110456251Y-80976843D01*
X110813905Y-80585278D01*
X111118871Y-79991102D01*
X111222152Y-79629000D01*
X121736810Y-79629000D01*
X121755529Y-79819055D01*
X121810966Y-80001806D01*
X121900991Y-80170231D01*
X121977945Y-80264000D01*
X121900991Y-80357769D01*
X121810966Y-80526194D01*
X121755529Y-80708945D01*
X121736810Y-80899000D01*
X121755529Y-81089055D01*
X121810966Y-81271806D01*
X121900991Y-81440231D01*
X122022144Y-81587856D01*
X122169769Y-81709009D01*
X122338194Y-81799034D01*
X122520945Y-81854471D01*
X122663382Y-81868500D01*
X123208618Y-81868500D01*
X123351055Y-81854471D01*
X123533806Y-81799034D01*
X123702231Y-81709009D01*
X123849856Y-81587856D01*
X123971009Y-81440231D01*
X124061034Y-81271806D01*
X124116471Y-81089055D01*
X124135190Y-80899000D01*
X124116471Y-80708945D01*
X124061034Y-80526194D01*
X123971009Y-80357769D01*
X123894055Y-80264000D01*
X123971009Y-80170231D01*
X124035054Y-80050411D01*
X132222500Y-80050411D01*
X132222500Y-80477588D01*
X132241231Y-80667765D01*
X132315252Y-80911779D01*
X132435455Y-81136664D01*
X132597222Y-81333778D01*
X132794335Y-81495545D01*
X133019220Y-81615748D01*
X133263234Y-81689769D01*
X133517000Y-81714763D01*
X133770765Y-81689769D01*
X134014779Y-81615748D01*
X134239664Y-81495545D01*
X134436778Y-81333778D01*
X134598545Y-81136665D01*
X134718748Y-80911780D01*
X134720350Y-80906499D01*
X134720350Y-81014000D01*
X134733736Y-81149910D01*
X134773379Y-81280596D01*
X134837757Y-81401038D01*
X134924394Y-81506606D01*
X135029962Y-81593243D01*
X135150404Y-81657621D01*
X135281090Y-81697264D01*
X135417000Y-81710650D01*
X136617000Y-81710650D01*
X136752910Y-81697264D01*
X136883596Y-81657621D01*
X137004038Y-81593243D01*
X137109606Y-81506606D01*
X137196243Y-81401038D01*
X137260621Y-81280596D01*
X137300264Y-81149910D01*
X137313650Y-81014000D01*
X137313650Y-80050411D01*
X145684500Y-80050411D01*
X145684500Y-80477588D01*
X145703231Y-80667765D01*
X145777252Y-80911779D01*
X145897455Y-81136664D01*
X146059222Y-81333778D01*
X146256335Y-81495545D01*
X146481220Y-81615748D01*
X146725234Y-81689769D01*
X146979000Y-81714763D01*
X147232765Y-81689769D01*
X147476779Y-81615748D01*
X147701664Y-81495545D01*
X147898778Y-81333778D01*
X148060545Y-81136665D01*
X148180748Y-80911780D01*
X148182350Y-80906499D01*
X148182350Y-81014000D01*
X148195736Y-81149910D01*
X148235379Y-81280596D01*
X148299757Y-81401038D01*
X148386394Y-81506606D01*
X148491962Y-81593243D01*
X148612404Y-81657621D01*
X148743090Y-81697264D01*
X148879000Y-81710650D01*
X150079000Y-81710650D01*
X150214910Y-81697264D01*
X150345596Y-81657621D01*
X150466038Y-81593243D01*
X150571606Y-81506606D01*
X150658243Y-81401038D01*
X150722621Y-81280596D01*
X150762264Y-81149910D01*
X150775650Y-81014000D01*
X150775650Y-80616191D01*
X159423312Y-80616191D01*
X159482312Y-80810847D01*
X159578154Y-80990252D01*
X159707155Y-81147512D01*
X159864357Y-81276584D01*
X160043719Y-81372507D01*
X160092827Y-81394518D01*
X160250500Y-81388428D01*
X160250500Y-80454500D01*
X160631500Y-80454500D01*
X160631500Y-81388428D01*
X160789173Y-81394518D01*
X160838281Y-81372507D01*
X161017643Y-81276584D01*
X161174845Y-81147512D01*
X161303846Y-80990252D01*
X161399688Y-80810847D01*
X161458688Y-80616191D01*
X161430163Y-80454500D01*
X160631500Y-80454500D01*
X160250500Y-80454500D01*
X159451837Y-80454500D01*
X159423312Y-80616191D01*
X150775650Y-80616191D01*
X150775650Y-79911809D01*
X159423312Y-79911809D01*
X159451837Y-80073500D01*
X160250500Y-80073500D01*
X160250500Y-79139572D01*
X160631500Y-79139572D01*
X160631500Y-80073500D01*
X161430163Y-80073500D01*
X161458688Y-79911809D01*
X161399688Y-79717153D01*
X161303846Y-79537748D01*
X161284366Y-79514000D01*
X161644350Y-79514000D01*
X161644350Y-81014000D01*
X161657736Y-81149910D01*
X161697379Y-81280596D01*
X161761757Y-81401038D01*
X161848394Y-81506606D01*
X161953962Y-81593243D01*
X162074404Y-81657621D01*
X162205090Y-81697264D01*
X162341000Y-81710650D01*
X163541000Y-81710650D01*
X163676910Y-81697264D01*
X163807596Y-81657621D01*
X163928038Y-81593243D01*
X164033606Y-81506606D01*
X164120243Y-81401038D01*
X164184621Y-81280596D01*
X164195039Y-81246251D01*
X169213157Y-81246251D01*
X169604722Y-81603905D01*
X170198898Y-81908871D01*
X170841153Y-82092060D01*
X171506807Y-82146431D01*
X172170277Y-82069895D01*
X172806067Y-81865394D01*
X173295278Y-81603905D01*
X173686843Y-81246251D01*
X173373969Y-80933377D01*
X173373969Y-80933376D01*
X173147056Y-80706464D01*
X172798361Y-80357769D01*
X172650736Y-80210143D01*
X172650735Y-80210143D01*
X171450000Y-79009408D01*
X170249265Y-80210143D01*
X170249264Y-80210143D01*
X170101639Y-80357769D01*
X169752944Y-80706464D01*
X169526031Y-80933376D01*
X169526031Y-80933377D01*
X169213157Y-81246251D01*
X164195039Y-81246251D01*
X164224264Y-81149910D01*
X164237650Y-81014000D01*
X164237650Y-79514000D01*
X164224264Y-79378090D01*
X164184621Y-79247404D01*
X164120243Y-79126962D01*
X164033606Y-79021394D01*
X163928038Y-78934757D01*
X163807596Y-78870379D01*
X163676910Y-78830736D01*
X163541000Y-78817350D01*
X162341000Y-78817350D01*
X162205090Y-78830736D01*
X162074404Y-78870379D01*
X161953962Y-78934757D01*
X161848394Y-79021394D01*
X161761757Y-79126962D01*
X161697379Y-79247404D01*
X161657736Y-79378090D01*
X161644350Y-79514000D01*
X161284366Y-79514000D01*
X161174845Y-79380488D01*
X161017643Y-79251416D01*
X160838281Y-79155493D01*
X160789173Y-79133482D01*
X160631500Y-79139572D01*
X160250500Y-79139572D01*
X160092827Y-79133482D01*
X160043719Y-79155493D01*
X159864357Y-79251416D01*
X159707155Y-79380488D01*
X159578154Y-79537748D01*
X159482312Y-79717153D01*
X159423312Y-79911809D01*
X150775650Y-79911809D01*
X150775650Y-79514000D01*
X150762264Y-79378090D01*
X150722621Y-79247404D01*
X150658243Y-79126962D01*
X150571606Y-79021394D01*
X150466038Y-78934757D01*
X150345596Y-78870379D01*
X150214910Y-78830736D01*
X150079000Y-78817350D01*
X148879000Y-78817350D01*
X148743090Y-78830736D01*
X148612404Y-78870379D01*
X148491962Y-78934757D01*
X148386394Y-79021394D01*
X148299757Y-79126962D01*
X148235379Y-79247404D01*
X148195736Y-79378090D01*
X148182350Y-79514000D01*
X148182350Y-79621502D01*
X148180748Y-79616221D01*
X148060545Y-79391336D01*
X147898778Y-79194222D01*
X147701665Y-79032455D01*
X147476780Y-78912252D01*
X147232766Y-78838231D01*
X146979000Y-78813237D01*
X146725235Y-78838231D01*
X146481221Y-78912252D01*
X146256336Y-79032455D01*
X146059223Y-79194222D01*
X145897455Y-79391335D01*
X145777252Y-79616220D01*
X145703231Y-79860234D01*
X145684500Y-80050411D01*
X137313650Y-80050411D01*
X137313650Y-79514000D01*
X137300264Y-79378090D01*
X137260621Y-79247404D01*
X137196243Y-79126962D01*
X137109606Y-79021394D01*
X137004038Y-78934757D01*
X136883596Y-78870379D01*
X136752910Y-78830736D01*
X136617000Y-78817350D01*
X135417000Y-78817350D01*
X135281090Y-78830736D01*
X135150404Y-78870379D01*
X135029962Y-78934757D01*
X134924394Y-79021394D01*
X134837757Y-79126962D01*
X134773379Y-79247404D01*
X134733736Y-79378090D01*
X134720350Y-79514000D01*
X134720350Y-79621502D01*
X134718748Y-79616221D01*
X134598545Y-79391336D01*
X134436778Y-79194222D01*
X134239665Y-79032455D01*
X134014780Y-78912252D01*
X133770766Y-78838231D01*
X133517000Y-78813237D01*
X133263235Y-78838231D01*
X133019221Y-78912252D01*
X132794336Y-79032455D01*
X132597223Y-79194222D01*
X132435455Y-79391335D01*
X132315252Y-79616220D01*
X132241231Y-79860234D01*
X132222500Y-80050411D01*
X124035054Y-80050411D01*
X124061034Y-80001806D01*
X124116471Y-79819055D01*
X124135190Y-79629000D01*
X124116471Y-79438945D01*
X124061034Y-79256194D01*
X123971009Y-79087769D01*
X123863134Y-78956323D01*
X123873744Y-78921345D01*
X123877422Y-78884000D01*
X123877142Y-78796807D01*
X168043569Y-78796807D01*
X168120105Y-79460277D01*
X168324606Y-80096067D01*
X168586095Y-80585278D01*
X168943749Y-80976843D01*
X169256623Y-80663969D01*
X169256624Y-80663969D01*
X169483536Y-80437056D01*
X169752944Y-80167648D01*
X169979857Y-79940736D01*
X169979857Y-79940735D01*
X171180592Y-78740000D01*
X169979857Y-77539265D01*
X169979857Y-77539264D01*
X169752944Y-77312352D01*
X169370673Y-76930081D01*
X169256624Y-76816031D01*
X169256623Y-76816031D01*
X168943749Y-76503157D01*
X168586095Y-76894722D01*
X168281129Y-77488898D01*
X168097940Y-78131153D01*
X168043569Y-78796807D01*
X123877142Y-78796807D01*
X123876500Y-78597125D01*
X123828875Y-78549500D01*
X123126500Y-78549500D01*
X123126500Y-78569500D01*
X122745500Y-78569500D01*
X122745500Y-78549500D01*
X122043125Y-78549500D01*
X121995500Y-78597125D01*
X121994578Y-78884000D01*
X121998256Y-78921345D01*
X122008866Y-78956323D01*
X121900991Y-79087769D01*
X121810966Y-79256194D01*
X121755529Y-79438945D01*
X121736810Y-79629000D01*
X111222152Y-79629000D01*
X111302060Y-79348847D01*
X111356431Y-78683193D01*
X111279895Y-78019723D01*
X111220158Y-77834000D01*
X121994578Y-77834000D01*
X121995500Y-78120875D01*
X122043125Y-78168500D01*
X122745500Y-78168500D01*
X122745500Y-77691125D01*
X123126500Y-77691125D01*
X123126500Y-78168500D01*
X123828875Y-78168500D01*
X123876500Y-78120875D01*
X123877422Y-77834000D01*
X123873744Y-77796655D01*
X123862851Y-77760746D01*
X123845162Y-77727652D01*
X123821356Y-77698644D01*
X123792348Y-77674838D01*
X123759254Y-77657149D01*
X123723345Y-77646256D01*
X123686000Y-77642578D01*
X123174125Y-77643500D01*
X123126500Y-77691125D01*
X122745500Y-77691125D01*
X122697875Y-77643500D01*
X122186000Y-77642578D01*
X122148655Y-77646256D01*
X122112746Y-77657149D01*
X122079652Y-77674838D01*
X122050644Y-77698644D01*
X122026838Y-77727652D01*
X122009149Y-77760746D01*
X121998256Y-77796655D01*
X121994578Y-77834000D01*
X111220158Y-77834000D01*
X111075394Y-77383933D01*
X110813905Y-76894722D01*
X110456251Y-76503157D01*
X110143377Y-76816031D01*
X110143376Y-76816031D01*
X110029327Y-76930081D01*
X109647056Y-77312352D01*
X109420143Y-77539264D01*
X109420143Y-77539265D01*
X108219408Y-78740000D01*
X107680592Y-78740000D01*
X107666450Y-78725858D01*
X107935858Y-78456450D01*
X107950000Y-78470592D01*
X109150735Y-77269857D01*
X109150736Y-77269857D01*
X109377648Y-77042944D01*
X109647056Y-76773536D01*
X109873969Y-76546624D01*
X109873969Y-76546623D01*
X110186843Y-76233749D01*
X109795278Y-75876095D01*
X109292621Y-75618102D01*
X170087392Y-75618102D01*
X169604722Y-75876095D01*
M02*
