G04 #@! TF.GenerationSoftware,KiCad,Pcbnew,(5.1.6)-1*
G04 #@! TF.CreationDate,2020-11-18T04:27:20-08:00*
G04 #@! TF.ProjectId,Logic Board RevA,4c6f6769-6320-4426-9f61-726420526576,rev?*
G04 #@! TF.SameCoordinates,Original*
G04 #@! TF.FileFunction,Copper,L2,Bot*
G04 #@! TF.FilePolarity,Positive*
%FSLAX46Y46*%
G04 Gerber Fmt 4.6, Leading zero omitted, Abs format (unit mm)*
G04 Created by KiCad (PCBNEW (5.1.6)-1) date 2020-11-18 04:27:20*
%MOMM*%
%LPD*%
G01*
G04 APERTURE LIST*
G04 #@! TA.AperFunction,ComponentPad*
%ADD10O,1.700000X1.700000*%
G04 #@! TD*
G04 #@! TA.AperFunction,ComponentPad*
%ADD11R,1.700000X1.700000*%
G04 #@! TD*
G04 #@! TA.AperFunction,ComponentPad*
%ADD12C,1.600000*%
G04 #@! TD*
G04 #@! TA.AperFunction,ComponentPad*
%ADD13R,1.600000X1.600000*%
G04 #@! TD*
G04 #@! TA.AperFunction,ComponentPad*
%ADD14O,1.600000X1.600000*%
G04 #@! TD*
G04 #@! TA.AperFunction,ComponentPad*
%ADD15O,1.700000X2.000000*%
G04 #@! TD*
G04 #@! TA.AperFunction,ComponentPad*
%ADD16C,0.800000*%
G04 #@! TD*
G04 #@! TA.AperFunction,ComponentPad*
%ADD17C,6.400000*%
G04 #@! TD*
G04 #@! TA.AperFunction,ComponentPad*
%ADD18C,1.700000*%
G04 #@! TD*
G04 #@! TA.AperFunction,ViaPad*
%ADD19C,0.800000*%
G04 #@! TD*
G04 #@! TA.AperFunction,Conductor*
%ADD20C,0.635000*%
G04 #@! TD*
G04 #@! TA.AperFunction,Conductor*
%ADD21C,0.381000*%
G04 #@! TD*
G04 #@! TA.AperFunction,Conductor*
%ADD22C,0.254000*%
G04 #@! TD*
G04 APERTURE END LIST*
D10*
X132080000Y-121920000D03*
X134620000Y-121920000D03*
X137160000Y-121920000D03*
D11*
X139700000Y-121920000D03*
D10*
X146050000Y-121920000D03*
X148590000Y-121920000D03*
X151130000Y-121920000D03*
D11*
X153670000Y-121920000D03*
D12*
X185507000Y-123444000D03*
D13*
X183007000Y-123444000D03*
D14*
X124587000Y-104394000D03*
X124587000Y-89154000D03*
X160147000Y-104394000D03*
X127127000Y-89154000D03*
X157607000Y-104394000D03*
X129667000Y-89154000D03*
X155067000Y-104394000D03*
X132207000Y-89154000D03*
X152527000Y-104394000D03*
X134747000Y-89154000D03*
X149987000Y-104394000D03*
X137287000Y-89154000D03*
X147447000Y-104394000D03*
X139827000Y-89154000D03*
X144907000Y-104394000D03*
X142367000Y-89154000D03*
X142367000Y-104394000D03*
X144907000Y-89154000D03*
X139827000Y-104394000D03*
X147447000Y-89154000D03*
X137287000Y-104394000D03*
X149987000Y-89154000D03*
X134747000Y-104394000D03*
X152527000Y-89154000D03*
X132207000Y-104394000D03*
X155067000Y-89154000D03*
X129667000Y-104394000D03*
X157607000Y-89154000D03*
X127127000Y-104394000D03*
D13*
X160147000Y-89154000D03*
D10*
X124587000Y-108966000D03*
X127127000Y-108966000D03*
X129667000Y-108966000D03*
X132207000Y-108966000D03*
X134747000Y-108966000D03*
X137287000Y-108966000D03*
X139827000Y-108966000D03*
X142367000Y-108966000D03*
X144907000Y-108966000D03*
X147447000Y-108966000D03*
X149987000Y-108966000D03*
X152527000Y-108966000D03*
X155067000Y-108966000D03*
X157607000Y-108966000D03*
D11*
X160147000Y-108966000D03*
D12*
X176530000Y-94290000D03*
D13*
X176530000Y-97790000D03*
D10*
X124587000Y-84582000D03*
X127127000Y-84582000D03*
X129667000Y-84582000D03*
X132207000Y-84582000D03*
X134747000Y-84582000D03*
X137287000Y-84582000D03*
X139827000Y-84582000D03*
X142367000Y-84582000D03*
X144907000Y-84582000D03*
X147447000Y-84582000D03*
X149987000Y-84582000D03*
X152527000Y-84582000D03*
X155067000Y-84582000D03*
X157607000Y-84582000D03*
D11*
X160147000Y-84582000D03*
D15*
X167854000Y-82486500D03*
G04 #@! TA.AperFunction,ComponentPad*
G36*
G01*
X164504000Y-83236500D02*
X164504000Y-81736500D01*
G75*
G02*
X164754000Y-81486500I250000J0D01*
G01*
X165954000Y-81486500D01*
G75*
G02*
X166204000Y-81736500I0J-250000D01*
G01*
X166204000Y-83236500D01*
G75*
G02*
X165954000Y-83486500I-250000J0D01*
G01*
X164754000Y-83486500D01*
G75*
G02*
X164504000Y-83236500I0J250000D01*
G01*
G37*
G04 #@! TD.AperFunction*
X177379000Y-82486500D03*
G04 #@! TA.AperFunction,ComponentPad*
G36*
G01*
X174029000Y-83236500D02*
X174029000Y-81736500D01*
G75*
G02*
X174279000Y-81486500I250000J0D01*
G01*
X175479000Y-81486500D01*
G75*
G02*
X175729000Y-81736500I0J-250000D01*
G01*
X175729000Y-83236500D01*
G75*
G02*
X175479000Y-83486500I-250000J0D01*
G01*
X174279000Y-83486500D01*
G75*
G02*
X174029000Y-83236500I0J250000D01*
G01*
G37*
G04 #@! TD.AperFunction*
D10*
X184658000Y-112649000D03*
X184658000Y-115189000D03*
D11*
X184658000Y-117729000D03*
D16*
X185847056Y-129112944D03*
X184150000Y-128410000D03*
X182452944Y-129112944D03*
X181750000Y-130810000D03*
X182452944Y-132507056D03*
X184150000Y-133210000D03*
X185847056Y-132507056D03*
X186550000Y-130810000D03*
D17*
X184150000Y-130810000D03*
D16*
X122347056Y-129112944D03*
X120650000Y-128410000D03*
X118952944Y-129112944D03*
X118250000Y-130810000D03*
X118952944Y-132507056D03*
X120650000Y-133210000D03*
X122347056Y-132507056D03*
X123050000Y-130810000D03*
D17*
X120650000Y-130810000D03*
D16*
X185847056Y-78312944D03*
X184150000Y-77610000D03*
X182452944Y-78312944D03*
X181750000Y-80010000D03*
X182452944Y-81707056D03*
X184150000Y-82410000D03*
X185847056Y-81707056D03*
X186550000Y-80010000D03*
D17*
X184150000Y-80010000D03*
D16*
X122347056Y-78312944D03*
X120650000Y-77610000D03*
X118952944Y-78312944D03*
X118250000Y-80010000D03*
X118952944Y-81707056D03*
X120650000Y-82410000D03*
X122347056Y-81707056D03*
X123050000Y-80010000D03*
D17*
X120650000Y-80010000D03*
D18*
X175006000Y-127000000D03*
X172466000Y-127000000D03*
X169926000Y-127000000D03*
X167386000Y-127000000D03*
X164846000Y-127000000D03*
X175006000Y-129540000D03*
X172466000Y-129540000D03*
X169926000Y-129540000D03*
X167386000Y-129540000D03*
G04 #@! TA.AperFunction,ComponentPad*
G36*
G01*
X165446000Y-130390000D02*
X164246000Y-130390000D01*
G75*
G02*
X163996000Y-130140000I0J250000D01*
G01*
X163996000Y-128940000D01*
G75*
G02*
X164246000Y-128690000I250000J0D01*
G01*
X165446000Y-128690000D01*
G75*
G02*
X165696000Y-128940000I0J-250000D01*
G01*
X165696000Y-130140000D01*
G75*
G02*
X165446000Y-130390000I-250000J0D01*
G01*
G37*
G04 #@! TD.AperFunction*
D19*
X185674000Y-110363000D03*
X173482000Y-97790000D03*
X169418000Y-107950000D03*
X169418000Y-102870000D03*
X169418000Y-104140000D03*
X169418000Y-105410000D03*
X169418000Y-106680000D03*
X162560000Y-106045000D03*
X162560000Y-107315000D03*
X162560000Y-103505000D03*
X162560000Y-104775000D03*
X169672000Y-97790000D03*
X170942000Y-97790000D03*
X172212000Y-97790000D03*
X159512000Y-116332000D03*
X160782000Y-115062000D03*
X156972000Y-115316000D03*
X158242000Y-114046000D03*
X159512000Y-112776000D03*
X158242000Y-117602000D03*
X137795000Y-115443000D03*
X149098000Y-117094000D03*
X173101000Y-121793000D03*
X174371000Y-123063000D03*
X175641000Y-124333000D03*
X175641000Y-123063000D03*
X174371000Y-121793000D03*
X137414000Y-100330000D03*
X142875000Y-132715000D03*
X142875000Y-130810000D03*
X142875000Y-128905000D03*
X142875000Y-127000000D03*
X181610000Y-112903000D03*
X181610000Y-114300000D03*
X172720000Y-88265000D03*
X175768000Y-99822000D03*
X177292000Y-99822000D03*
X177292000Y-101346000D03*
X175768000Y-101346000D03*
X173990000Y-105410000D03*
X173990000Y-107696000D03*
X157480000Y-100965000D03*
X155575000Y-99695000D03*
X171450000Y-105410000D03*
X171450000Y-107696000D03*
X172720000Y-105410000D03*
X172720000Y-107696000D03*
X172085000Y-111760000D03*
X155575000Y-100965000D03*
X157480000Y-99695000D03*
X132715000Y-118110000D03*
X144653000Y-116078000D03*
X132715000Y-115570000D03*
X136017000Y-115570000D03*
X137795000Y-116840000D03*
X132715000Y-116840000D03*
X173609000Y-118427500D03*
X132715000Y-119380000D03*
X150368000Y-115697000D03*
X165354000Y-87630000D03*
D20*
X153670000Y-120435000D02*
X153670000Y-121920000D01*
X172085000Y-111760000D02*
X162345000Y-111760000D01*
X162345000Y-111760000D02*
X153670000Y-120435000D01*
D21*
X142621000Y-118110000D02*
X144653000Y-116078000D01*
X132715000Y-118110000D02*
X142621000Y-118110000D01*
X132715000Y-115570000D02*
X136017000Y-115570000D01*
X132715000Y-116840000D02*
X137795000Y-116840000D01*
X173609000Y-118427500D02*
X179959000Y-118427500D01*
X183197500Y-115189000D02*
X184658000Y-115189000D01*
X179959000Y-118427500D02*
X183197500Y-115189000D01*
X132715000Y-119380000D02*
X149225000Y-119380000D01*
X150368000Y-118237000D02*
X150368000Y-115697000D01*
X149225000Y-119380000D02*
X150368000Y-118237000D01*
D20*
X165354000Y-87630000D02*
X165354000Y-83820000D01*
X165354000Y-83820000D02*
X165354000Y-82486500D01*
D22*
G36*
X177927000Y-108458000D02*
G01*
X170815000Y-108458000D01*
X170815000Y-101854000D01*
X170812560Y-101829224D01*
X170805333Y-101805399D01*
X170793597Y-101783443D01*
X170777803Y-101764197D01*
X170758557Y-101748403D01*
X170736601Y-101736667D01*
X170712776Y-101729440D01*
X170688000Y-101727000D01*
X154305000Y-101727000D01*
X154305000Y-98933000D01*
X175006000Y-98933000D01*
X175030776Y-98930560D01*
X175054601Y-98923333D01*
X175076557Y-98911597D01*
X175095803Y-98895803D01*
X175111597Y-98876557D01*
X175123333Y-98854601D01*
X175130560Y-98830776D01*
X175133000Y-98806000D01*
X175133000Y-98590000D01*
X175474771Y-98590000D01*
X175479675Y-98639793D01*
X175494199Y-98687672D01*
X175517785Y-98731798D01*
X175549526Y-98770474D01*
X175588202Y-98802215D01*
X175632328Y-98825801D01*
X175680207Y-98840325D01*
X175730000Y-98845229D01*
X176339500Y-98844000D01*
X176403000Y-98780500D01*
X176403000Y-97917000D01*
X176657000Y-97917000D01*
X176657000Y-98780500D01*
X176720500Y-98844000D01*
X177330000Y-98845229D01*
X177379793Y-98840325D01*
X177427672Y-98825801D01*
X177471798Y-98802215D01*
X177510474Y-98770474D01*
X177542215Y-98731798D01*
X177565801Y-98687672D01*
X177580325Y-98639793D01*
X177585229Y-98590000D01*
X177584000Y-97980500D01*
X177520500Y-97917000D01*
X176657000Y-97917000D01*
X176403000Y-97917000D01*
X175539500Y-97917000D01*
X175476000Y-97980500D01*
X175474771Y-98590000D01*
X175133000Y-98590000D01*
X175133000Y-96990000D01*
X175474771Y-96990000D01*
X175476000Y-97599500D01*
X175539500Y-97663000D01*
X176403000Y-97663000D01*
X176403000Y-96799500D01*
X176657000Y-96799500D01*
X176657000Y-97663000D01*
X177520500Y-97663000D01*
X177584000Y-97599500D01*
X177585229Y-96990000D01*
X177580325Y-96940207D01*
X177565801Y-96892328D01*
X177542215Y-96848202D01*
X177510474Y-96809526D01*
X177471798Y-96777785D01*
X177427672Y-96754199D01*
X177379793Y-96739675D01*
X177330000Y-96734771D01*
X176720500Y-96736000D01*
X176657000Y-96799500D01*
X176403000Y-96799500D01*
X176339500Y-96736000D01*
X175730000Y-96734771D01*
X175680207Y-96739675D01*
X175632328Y-96754199D01*
X175588202Y-96777785D01*
X175549526Y-96809526D01*
X175517785Y-96848202D01*
X175494199Y-96892328D01*
X175479675Y-96940207D01*
X175474771Y-96990000D01*
X175133000Y-96990000D01*
X175133000Y-96393000D01*
X177927000Y-96393000D01*
X177927000Y-108458000D01*
G37*
X177927000Y-108458000D02*
X170815000Y-108458000D01*
X170815000Y-101854000D01*
X170812560Y-101829224D01*
X170805333Y-101805399D01*
X170793597Y-101783443D01*
X170777803Y-101764197D01*
X170758557Y-101748403D01*
X170736601Y-101736667D01*
X170712776Y-101729440D01*
X170688000Y-101727000D01*
X154305000Y-101727000D01*
X154305000Y-98933000D01*
X175006000Y-98933000D01*
X175030776Y-98930560D01*
X175054601Y-98923333D01*
X175076557Y-98911597D01*
X175095803Y-98895803D01*
X175111597Y-98876557D01*
X175123333Y-98854601D01*
X175130560Y-98830776D01*
X175133000Y-98806000D01*
X175133000Y-98590000D01*
X175474771Y-98590000D01*
X175479675Y-98639793D01*
X175494199Y-98687672D01*
X175517785Y-98731798D01*
X175549526Y-98770474D01*
X175588202Y-98802215D01*
X175632328Y-98825801D01*
X175680207Y-98840325D01*
X175730000Y-98845229D01*
X176339500Y-98844000D01*
X176403000Y-98780500D01*
X176403000Y-97917000D01*
X176657000Y-97917000D01*
X176657000Y-98780500D01*
X176720500Y-98844000D01*
X177330000Y-98845229D01*
X177379793Y-98840325D01*
X177427672Y-98825801D01*
X177471798Y-98802215D01*
X177510474Y-98770474D01*
X177542215Y-98731798D01*
X177565801Y-98687672D01*
X177580325Y-98639793D01*
X177585229Y-98590000D01*
X177584000Y-97980500D01*
X177520500Y-97917000D01*
X176657000Y-97917000D01*
X176403000Y-97917000D01*
X175539500Y-97917000D01*
X175476000Y-97980500D01*
X175474771Y-98590000D01*
X175133000Y-98590000D01*
X175133000Y-96990000D01*
X175474771Y-96990000D01*
X175476000Y-97599500D01*
X175539500Y-97663000D01*
X176403000Y-97663000D01*
X176403000Y-96799500D01*
X176657000Y-96799500D01*
X176657000Y-97663000D01*
X177520500Y-97663000D01*
X177584000Y-97599500D01*
X177585229Y-96990000D01*
X177580325Y-96940207D01*
X177565801Y-96892328D01*
X177542215Y-96848202D01*
X177510474Y-96809526D01*
X177471798Y-96777785D01*
X177427672Y-96754199D01*
X177379793Y-96739675D01*
X177330000Y-96734771D01*
X176720500Y-96736000D01*
X176657000Y-96799500D01*
X176403000Y-96799500D01*
X176339500Y-96736000D01*
X175730000Y-96734771D01*
X175680207Y-96739675D01*
X175632328Y-96754199D01*
X175588202Y-96777785D01*
X175549526Y-96809526D01*
X175517785Y-96848202D01*
X175494199Y-96892328D01*
X175479675Y-96940207D01*
X175474771Y-96990000D01*
X175133000Y-96990000D01*
X175133000Y-96393000D01*
X177927000Y-96393000D01*
X177927000Y-108458000D01*
G36*
X182229487Y-77119071D02*
G01*
X182214078Y-77129366D01*
X181832214Y-77512609D01*
X184150000Y-79830395D01*
X184164143Y-79816253D01*
X184343748Y-79995858D01*
X184329605Y-80010000D01*
X186647391Y-82327786D01*
X187030634Y-81945922D01*
X187198000Y-81634801D01*
X187198000Y-129185243D01*
X187040929Y-128889487D01*
X187030634Y-128874078D01*
X186647391Y-128492214D01*
X184329605Y-130810000D01*
X184343748Y-130824143D01*
X184164143Y-131003748D01*
X184150000Y-130989605D01*
X181832214Y-133307391D01*
X182214078Y-133690634D01*
X182525199Y-133858000D01*
X122274757Y-133858000D01*
X122570513Y-133700929D01*
X122585922Y-133690634D01*
X122967786Y-133307391D01*
X120650000Y-130989605D01*
X120635858Y-131003748D01*
X120456253Y-130824143D01*
X120470395Y-130810000D01*
X120829605Y-130810000D01*
X123147391Y-133127786D01*
X123530634Y-132745922D01*
X123852962Y-132146739D01*
X124052203Y-131496188D01*
X124120699Y-130819266D01*
X124055819Y-130141988D01*
X123860054Y-129490382D01*
X123567756Y-128940000D01*
X163485543Y-128940000D01*
X163485543Y-130140000D01*
X163500155Y-130288358D01*
X163543429Y-130431014D01*
X163613703Y-130562487D01*
X163708276Y-130677724D01*
X163823513Y-130772297D01*
X163954986Y-130842571D01*
X164097642Y-130885845D01*
X164246000Y-130900457D01*
X165446000Y-130900457D01*
X165594358Y-130885845D01*
X165737014Y-130842571D01*
X165868487Y-130772297D01*
X165983724Y-130677724D01*
X166078297Y-130562487D01*
X166148571Y-130431014D01*
X166168944Y-130363852D01*
X166741754Y-130363852D01*
X166840978Y-130506225D01*
X167039951Y-130593987D01*
X167252223Y-130641246D01*
X167469636Y-130646184D01*
X167683835Y-130608612D01*
X167886588Y-130529975D01*
X167931022Y-130506225D01*
X168030246Y-130363852D01*
X167386000Y-129719605D01*
X166741754Y-130363852D01*
X166168944Y-130363852D01*
X166191845Y-130288358D01*
X166206457Y-130140000D01*
X166206457Y-129623636D01*
X166279816Y-129623636D01*
X166317388Y-129837835D01*
X166396025Y-130040588D01*
X166419775Y-130085022D01*
X166562148Y-130184246D01*
X167206395Y-129540000D01*
X167565605Y-129540000D01*
X168209852Y-130184246D01*
X168352225Y-130085022D01*
X168439987Y-129886049D01*
X168487246Y-129673777D01*
X168492184Y-129456364D01*
X168454612Y-129242165D01*
X168375975Y-129039412D01*
X168352225Y-128994978D01*
X168209852Y-128895754D01*
X167565605Y-129540000D01*
X167206395Y-129540000D01*
X166562148Y-128895754D01*
X166419775Y-128994978D01*
X166332013Y-129193951D01*
X166284754Y-129406223D01*
X166279816Y-129623636D01*
X166206457Y-129623636D01*
X166206457Y-128940000D01*
X166191845Y-128791642D01*
X166168945Y-128716148D01*
X166741754Y-128716148D01*
X167386000Y-129360395D01*
X168030246Y-128716148D01*
X167931022Y-128573775D01*
X167732049Y-128486013D01*
X167519777Y-128438754D01*
X167302364Y-128433816D01*
X167088165Y-128471388D01*
X166885412Y-128550025D01*
X166840978Y-128573775D01*
X166741754Y-128716148D01*
X166168945Y-128716148D01*
X166148571Y-128648986D01*
X166078297Y-128517513D01*
X165983724Y-128402276D01*
X165868487Y-128307703D01*
X165737014Y-128237429D01*
X165594358Y-128194155D01*
X165514873Y-128186326D01*
X165711675Y-128054828D01*
X165900828Y-127865675D01*
X166049444Y-127643254D01*
X166116000Y-127482574D01*
X166182556Y-127643254D01*
X166331172Y-127865675D01*
X166520325Y-128054828D01*
X166742746Y-128203444D01*
X166989886Y-128305813D01*
X167252249Y-128358000D01*
X167519751Y-128358000D01*
X167782114Y-128305813D01*
X168029254Y-128203444D01*
X168251675Y-128054828D01*
X168440828Y-127865675D01*
X168589444Y-127643254D01*
X168656000Y-127482574D01*
X168722556Y-127643254D01*
X168871172Y-127865675D01*
X169060325Y-128054828D01*
X169282746Y-128203444D01*
X169443426Y-128270000D01*
X169282746Y-128336556D01*
X169060325Y-128485172D01*
X168871172Y-128674325D01*
X168722556Y-128896746D01*
X168620187Y-129143886D01*
X168568000Y-129406249D01*
X168568000Y-129673751D01*
X168620187Y-129936114D01*
X168722556Y-130183254D01*
X168871172Y-130405675D01*
X169060325Y-130594828D01*
X169282746Y-130743444D01*
X169529886Y-130845813D01*
X169792249Y-130898000D01*
X170059751Y-130898000D01*
X170322114Y-130845813D01*
X170569254Y-130743444D01*
X170791675Y-130594828D01*
X170980828Y-130405675D01*
X171129444Y-130183254D01*
X171196000Y-130022574D01*
X171262556Y-130183254D01*
X171411172Y-130405675D01*
X171600325Y-130594828D01*
X171822746Y-130743444D01*
X172069886Y-130845813D01*
X172332249Y-130898000D01*
X172599751Y-130898000D01*
X172862114Y-130845813D01*
X173109254Y-130743444D01*
X173331675Y-130594828D01*
X173520828Y-130405675D01*
X173669444Y-130183254D01*
X173736000Y-130022574D01*
X173802556Y-130183254D01*
X173951172Y-130405675D01*
X174140325Y-130594828D01*
X174362746Y-130743444D01*
X174609886Y-130845813D01*
X174872249Y-130898000D01*
X175139751Y-130898000D01*
X175402114Y-130845813D01*
X175510944Y-130800734D01*
X180679301Y-130800734D01*
X180744181Y-131478012D01*
X180939946Y-132129618D01*
X181259071Y-132730513D01*
X181269366Y-132745922D01*
X181652609Y-133127786D01*
X183970395Y-130810000D01*
X181652609Y-128492214D01*
X181269366Y-128874078D01*
X180947038Y-129473261D01*
X180747797Y-130123812D01*
X180679301Y-130800734D01*
X175510944Y-130800734D01*
X175649254Y-130743444D01*
X175871675Y-130594828D01*
X176060828Y-130405675D01*
X176209444Y-130183254D01*
X176311813Y-129936114D01*
X176364000Y-129673751D01*
X176364000Y-129406249D01*
X176311813Y-129143886D01*
X176209444Y-128896746D01*
X176060828Y-128674325D01*
X175871675Y-128485172D01*
X175649254Y-128336556D01*
X175591441Y-128312609D01*
X181832214Y-128312609D01*
X184150000Y-130630395D01*
X186467786Y-128312609D01*
X186085922Y-127929366D01*
X185486739Y-127607038D01*
X184836188Y-127407797D01*
X184159266Y-127339301D01*
X183481988Y-127404181D01*
X182830382Y-127599946D01*
X182229487Y-127919071D01*
X182214078Y-127929366D01*
X181832214Y-128312609D01*
X175591441Y-128312609D01*
X175488574Y-128270000D01*
X175649254Y-128203444D01*
X175871675Y-128054828D01*
X176060828Y-127865675D01*
X176209444Y-127643254D01*
X176311813Y-127396114D01*
X176364000Y-127133751D01*
X176364000Y-126866249D01*
X176311813Y-126603886D01*
X176209444Y-126356746D01*
X176060828Y-126134325D01*
X175871675Y-125945172D01*
X175649254Y-125796556D01*
X175402114Y-125694187D01*
X175139751Y-125642000D01*
X174872249Y-125642000D01*
X174609886Y-125694187D01*
X174362746Y-125796556D01*
X174140325Y-125945172D01*
X173951172Y-126134325D01*
X173802556Y-126356746D01*
X173700187Y-126603886D01*
X173648000Y-126866249D01*
X173648000Y-127133751D01*
X173700187Y-127396114D01*
X173802556Y-127643254D01*
X173951172Y-127865675D01*
X174140325Y-128054828D01*
X174362746Y-128203444D01*
X174523426Y-128270000D01*
X174362746Y-128336556D01*
X174140325Y-128485172D01*
X173951172Y-128674325D01*
X173802556Y-128896746D01*
X173736000Y-129057426D01*
X173669444Y-128896746D01*
X173520828Y-128674325D01*
X173331675Y-128485172D01*
X173109254Y-128336556D01*
X172862114Y-128234187D01*
X172599751Y-128182000D01*
X172332249Y-128182000D01*
X172069886Y-128234187D01*
X171822746Y-128336556D01*
X171600325Y-128485172D01*
X171411172Y-128674325D01*
X171262556Y-128896746D01*
X171196000Y-129057426D01*
X171129444Y-128896746D01*
X170980828Y-128674325D01*
X170791675Y-128485172D01*
X170569254Y-128336556D01*
X170408574Y-128270000D01*
X170569254Y-128203444D01*
X170791675Y-128054828D01*
X170980828Y-127865675D01*
X171008773Y-127823852D01*
X171821754Y-127823852D01*
X171920978Y-127966225D01*
X172119951Y-128053987D01*
X172332223Y-128101246D01*
X172549636Y-128106184D01*
X172763835Y-128068612D01*
X172966588Y-127989975D01*
X173011022Y-127966225D01*
X173110246Y-127823852D01*
X172466000Y-127179605D01*
X171821754Y-127823852D01*
X171008773Y-127823852D01*
X171129444Y-127643254D01*
X171231813Y-127396114D01*
X171284000Y-127133751D01*
X171284000Y-127083636D01*
X171359816Y-127083636D01*
X171397388Y-127297835D01*
X171476025Y-127500588D01*
X171499775Y-127545022D01*
X171642148Y-127644246D01*
X172286395Y-127000000D01*
X172645605Y-127000000D01*
X173289852Y-127644246D01*
X173432225Y-127545022D01*
X173519987Y-127346049D01*
X173567246Y-127133777D01*
X173572184Y-126916364D01*
X173534612Y-126702165D01*
X173455975Y-126499412D01*
X173432225Y-126454978D01*
X173289852Y-126355754D01*
X172645605Y-127000000D01*
X172286395Y-127000000D01*
X171642148Y-126355754D01*
X171499775Y-126454978D01*
X171412013Y-126653951D01*
X171364754Y-126866223D01*
X171359816Y-127083636D01*
X171284000Y-127083636D01*
X171284000Y-126866249D01*
X171231813Y-126603886D01*
X171129444Y-126356746D01*
X171008774Y-126176148D01*
X171821754Y-126176148D01*
X172466000Y-126820395D01*
X173110246Y-126176148D01*
X173011022Y-126033775D01*
X172812049Y-125946013D01*
X172599777Y-125898754D01*
X172382364Y-125893816D01*
X172168165Y-125931388D01*
X171965412Y-126010025D01*
X171920978Y-126033775D01*
X171821754Y-126176148D01*
X171008774Y-126176148D01*
X170980828Y-126134325D01*
X170791675Y-125945172D01*
X170569254Y-125796556D01*
X170322114Y-125694187D01*
X170059751Y-125642000D01*
X169792249Y-125642000D01*
X169529886Y-125694187D01*
X169282746Y-125796556D01*
X169060325Y-125945172D01*
X168871172Y-126134325D01*
X168722556Y-126356746D01*
X168656000Y-126517426D01*
X168589444Y-126356746D01*
X168440828Y-126134325D01*
X168251675Y-125945172D01*
X168029254Y-125796556D01*
X167782114Y-125694187D01*
X167519751Y-125642000D01*
X167252249Y-125642000D01*
X166989886Y-125694187D01*
X166742746Y-125796556D01*
X166520325Y-125945172D01*
X166331172Y-126134325D01*
X166182556Y-126356746D01*
X166116000Y-126517426D01*
X166049444Y-126356746D01*
X165900828Y-126134325D01*
X165711675Y-125945172D01*
X165489254Y-125796556D01*
X165242114Y-125694187D01*
X164979751Y-125642000D01*
X164712249Y-125642000D01*
X164449886Y-125694187D01*
X164202746Y-125796556D01*
X163980325Y-125945172D01*
X163791172Y-126134325D01*
X163642556Y-126356746D01*
X163540187Y-126603886D01*
X163488000Y-126866249D01*
X163488000Y-127133751D01*
X163540187Y-127396114D01*
X163642556Y-127643254D01*
X163791172Y-127865675D01*
X163980325Y-128054828D01*
X164177127Y-128186326D01*
X164097642Y-128194155D01*
X163954986Y-128237429D01*
X163823513Y-128307703D01*
X163708276Y-128402276D01*
X163613703Y-128517513D01*
X163543429Y-128648986D01*
X163500155Y-128791642D01*
X163485543Y-128940000D01*
X123567756Y-128940000D01*
X123540929Y-128889487D01*
X123530634Y-128874078D01*
X123147391Y-128492214D01*
X120829605Y-130810000D01*
X120470395Y-130810000D01*
X118152609Y-128492214D01*
X117769366Y-128874078D01*
X117602000Y-129185199D01*
X117602000Y-128312609D01*
X118332214Y-128312609D01*
X120650000Y-130630395D01*
X122967786Y-128312609D01*
X122585922Y-127929366D01*
X121986739Y-127607038D01*
X121336188Y-127407797D01*
X120659266Y-127339301D01*
X119981988Y-127404181D01*
X119330382Y-127599946D01*
X118729487Y-127919071D01*
X118714078Y-127929366D01*
X118332214Y-128312609D01*
X117602000Y-128312609D01*
X117602000Y-122216994D01*
X131016692Y-122216994D01*
X131095064Y-122418728D01*
X131211286Y-122601297D01*
X131360893Y-122757684D01*
X131538134Y-122881879D01*
X131736199Y-122969110D01*
X131783006Y-122983302D01*
X131953000Y-122952720D01*
X131953000Y-122047000D01*
X132207000Y-122047000D01*
X132207000Y-122952720D01*
X132376994Y-122983302D01*
X132423801Y-122969110D01*
X132621866Y-122881879D01*
X132799107Y-122757684D01*
X132948714Y-122601297D01*
X133064936Y-122418728D01*
X133143308Y-122216994D01*
X133113177Y-122047000D01*
X132207000Y-122047000D01*
X131953000Y-122047000D01*
X131046823Y-122047000D01*
X131016692Y-122216994D01*
X117602000Y-122216994D01*
X117602000Y-121623006D01*
X131016692Y-121623006D01*
X131046823Y-121793000D01*
X131953000Y-121793000D01*
X131953000Y-120887280D01*
X132207000Y-120887280D01*
X132207000Y-121793000D01*
X133113177Y-121793000D01*
X133114373Y-121786249D01*
X133262000Y-121786249D01*
X133262000Y-122053751D01*
X133314187Y-122316114D01*
X133416556Y-122563254D01*
X133565172Y-122785675D01*
X133754325Y-122974828D01*
X133976746Y-123123444D01*
X134223886Y-123225813D01*
X134486249Y-123278000D01*
X134753751Y-123278000D01*
X135016114Y-123225813D01*
X135263254Y-123123444D01*
X135485675Y-122974828D01*
X135674828Y-122785675D01*
X135823444Y-122563254D01*
X135890000Y-122402574D01*
X135956556Y-122563254D01*
X136105172Y-122785675D01*
X136294325Y-122974828D01*
X136516746Y-123123444D01*
X136763886Y-123225813D01*
X137026249Y-123278000D01*
X137293751Y-123278000D01*
X137556114Y-123225813D01*
X137803254Y-123123444D01*
X138025675Y-122974828D01*
X138214828Y-122785675D01*
X138339543Y-122599025D01*
X138339543Y-122770000D01*
X138349351Y-122869585D01*
X138378399Y-122965343D01*
X138425571Y-123053595D01*
X138489052Y-123130948D01*
X138566405Y-123194429D01*
X138654657Y-123241601D01*
X138750415Y-123270649D01*
X138850000Y-123280457D01*
X140550000Y-123280457D01*
X140649585Y-123270649D01*
X140745343Y-123241601D01*
X140833595Y-123194429D01*
X140910948Y-123130948D01*
X140974429Y-123053595D01*
X141021601Y-122965343D01*
X141050649Y-122869585D01*
X141060457Y-122770000D01*
X141060457Y-122216994D01*
X144986692Y-122216994D01*
X145065064Y-122418728D01*
X145181286Y-122601297D01*
X145330893Y-122757684D01*
X145508134Y-122881879D01*
X145706199Y-122969110D01*
X145753006Y-122983302D01*
X145923000Y-122952720D01*
X145923000Y-122047000D01*
X146177000Y-122047000D01*
X146177000Y-122952720D01*
X146346994Y-122983302D01*
X146393801Y-122969110D01*
X146591866Y-122881879D01*
X146769107Y-122757684D01*
X146918714Y-122601297D01*
X147034936Y-122418728D01*
X147113308Y-122216994D01*
X147083177Y-122047000D01*
X146177000Y-122047000D01*
X145923000Y-122047000D01*
X145016823Y-122047000D01*
X144986692Y-122216994D01*
X141060457Y-122216994D01*
X141060457Y-121623006D01*
X144986692Y-121623006D01*
X145016823Y-121793000D01*
X145923000Y-121793000D01*
X145923000Y-120887280D01*
X146177000Y-120887280D01*
X146177000Y-121793000D01*
X147083177Y-121793000D01*
X147084373Y-121786249D01*
X147232000Y-121786249D01*
X147232000Y-122053751D01*
X147284187Y-122316114D01*
X147386556Y-122563254D01*
X147535172Y-122785675D01*
X147724325Y-122974828D01*
X147946746Y-123123444D01*
X148193886Y-123225813D01*
X148456249Y-123278000D01*
X148723751Y-123278000D01*
X148986114Y-123225813D01*
X149233254Y-123123444D01*
X149455675Y-122974828D01*
X149644828Y-122785675D01*
X149793444Y-122563254D01*
X149860000Y-122402574D01*
X149926556Y-122563254D01*
X150075172Y-122785675D01*
X150264325Y-122974828D01*
X150486746Y-123123444D01*
X150733886Y-123225813D01*
X150996249Y-123278000D01*
X151263751Y-123278000D01*
X151526114Y-123225813D01*
X151773254Y-123123444D01*
X151995675Y-122974828D01*
X152184828Y-122785675D01*
X152309543Y-122599025D01*
X152309543Y-122770000D01*
X152319351Y-122869585D01*
X152348399Y-122965343D01*
X152395571Y-123053595D01*
X152459052Y-123130948D01*
X152536405Y-123194429D01*
X152624657Y-123241601D01*
X152720415Y-123270649D01*
X152820000Y-123280457D01*
X154520000Y-123280457D01*
X154619585Y-123270649D01*
X154715343Y-123241601D01*
X154803595Y-123194429D01*
X154880948Y-123130948D01*
X154944429Y-123053595D01*
X154991601Y-122965343D01*
X155020649Y-122869585D01*
X155030457Y-122770000D01*
X155030457Y-122644000D01*
X181696543Y-122644000D01*
X181696543Y-124244000D01*
X181706351Y-124343585D01*
X181735399Y-124439343D01*
X181782571Y-124527595D01*
X181846052Y-124604948D01*
X181923405Y-124668429D01*
X182011657Y-124715601D01*
X182107415Y-124744649D01*
X182207000Y-124754457D01*
X183807000Y-124754457D01*
X183906585Y-124744649D01*
X184002343Y-124715601D01*
X184090595Y-124668429D01*
X184167948Y-124604948D01*
X184231429Y-124527595D01*
X184278601Y-124439343D01*
X184307649Y-124343585D01*
X184317457Y-124244000D01*
X184317457Y-124232047D01*
X184898558Y-124232047D01*
X184991714Y-124369297D01*
X185182131Y-124452044D01*
X185385033Y-124496054D01*
X185592623Y-124499633D01*
X185796922Y-124462646D01*
X185990079Y-124386512D01*
X186022286Y-124369297D01*
X186115442Y-124232047D01*
X185507000Y-123623605D01*
X184898558Y-124232047D01*
X184317457Y-124232047D01*
X184317457Y-123529623D01*
X184451367Y-123529623D01*
X184488354Y-123733922D01*
X184564488Y-123927079D01*
X184581703Y-123959286D01*
X184718953Y-124052442D01*
X185327395Y-123444000D01*
X185686605Y-123444000D01*
X186295047Y-124052442D01*
X186432297Y-123959286D01*
X186515044Y-123768869D01*
X186559054Y-123565967D01*
X186562633Y-123358377D01*
X186525646Y-123154078D01*
X186449512Y-122960921D01*
X186432297Y-122928714D01*
X186295047Y-122835558D01*
X185686605Y-123444000D01*
X185327395Y-123444000D01*
X184718953Y-122835558D01*
X184581703Y-122928714D01*
X184498956Y-123119131D01*
X184454946Y-123322033D01*
X184451367Y-123529623D01*
X184317457Y-123529623D01*
X184317457Y-122655953D01*
X184898558Y-122655953D01*
X185507000Y-123264395D01*
X186115442Y-122655953D01*
X186022286Y-122518703D01*
X185831869Y-122435956D01*
X185628967Y-122391946D01*
X185421377Y-122388367D01*
X185217078Y-122425354D01*
X185023921Y-122501488D01*
X184991714Y-122518703D01*
X184898558Y-122655953D01*
X184317457Y-122655953D01*
X184317457Y-122644000D01*
X184307649Y-122544415D01*
X184278601Y-122448657D01*
X184231429Y-122360405D01*
X184167948Y-122283052D01*
X184090595Y-122219571D01*
X184002343Y-122172399D01*
X183906585Y-122143351D01*
X183807000Y-122133543D01*
X182207000Y-122133543D01*
X182107415Y-122143351D01*
X182011657Y-122172399D01*
X181923405Y-122219571D01*
X181846052Y-122283052D01*
X181782571Y-122360405D01*
X181735399Y-122448657D01*
X181706351Y-122544415D01*
X181696543Y-122644000D01*
X155030457Y-122644000D01*
X155030457Y-121070000D01*
X155020649Y-120970415D01*
X154991601Y-120874657D01*
X154944429Y-120786405D01*
X154880948Y-120709052D01*
X154803595Y-120645571D01*
X154715343Y-120598399D01*
X154683648Y-120588784D01*
X156934362Y-118338070D01*
X172701000Y-118338070D01*
X172701000Y-118516930D01*
X172735894Y-118692354D01*
X172804341Y-118857599D01*
X172903711Y-119006316D01*
X173030184Y-119132789D01*
X173178901Y-119232159D01*
X173344146Y-119300606D01*
X173519570Y-119335500D01*
X173698430Y-119335500D01*
X173873854Y-119300606D01*
X174039099Y-119232159D01*
X174187816Y-119132789D01*
X174194605Y-119126000D01*
X179924702Y-119126000D01*
X179959000Y-119129378D01*
X179993298Y-119126000D01*
X179993309Y-119126000D01*
X180095930Y-119115893D01*
X180227597Y-119075952D01*
X180348943Y-119011091D01*
X180455303Y-118923803D01*
X180477175Y-118897152D01*
X183486828Y-115887500D01*
X183491470Y-115887500D01*
X183603172Y-116054675D01*
X183792325Y-116243828D01*
X183978975Y-116368543D01*
X183808000Y-116368543D01*
X183708415Y-116378351D01*
X183612657Y-116407399D01*
X183524405Y-116454571D01*
X183447052Y-116518052D01*
X183383571Y-116595405D01*
X183336399Y-116683657D01*
X183307351Y-116779415D01*
X183297543Y-116879000D01*
X183297543Y-118579000D01*
X183307351Y-118678585D01*
X183336399Y-118774343D01*
X183383571Y-118862595D01*
X183447052Y-118939948D01*
X183524405Y-119003429D01*
X183612657Y-119050601D01*
X183708415Y-119079649D01*
X183808000Y-119089457D01*
X185508000Y-119089457D01*
X185607585Y-119079649D01*
X185703343Y-119050601D01*
X185791595Y-119003429D01*
X185868948Y-118939948D01*
X185932429Y-118862595D01*
X185979601Y-118774343D01*
X186008649Y-118678585D01*
X186018457Y-118579000D01*
X186018457Y-116879000D01*
X186008649Y-116779415D01*
X185979601Y-116683657D01*
X185932429Y-116595405D01*
X185868948Y-116518052D01*
X185791595Y-116454571D01*
X185703343Y-116407399D01*
X185607585Y-116378351D01*
X185508000Y-116368543D01*
X185337025Y-116368543D01*
X185523675Y-116243828D01*
X185712828Y-116054675D01*
X185861444Y-115832254D01*
X185963813Y-115585114D01*
X186016000Y-115322751D01*
X186016000Y-115055249D01*
X185963813Y-114792886D01*
X185861444Y-114545746D01*
X185712828Y-114323325D01*
X185523675Y-114134172D01*
X185301254Y-113985556D01*
X185140574Y-113919000D01*
X185301254Y-113852444D01*
X185523675Y-113703828D01*
X185712828Y-113514675D01*
X185861444Y-113292254D01*
X185963813Y-113045114D01*
X186016000Y-112782751D01*
X186016000Y-112515249D01*
X185963813Y-112252886D01*
X185861444Y-112005746D01*
X185712828Y-111783325D01*
X185523675Y-111594172D01*
X185301254Y-111445556D01*
X185054114Y-111343187D01*
X184791751Y-111291000D01*
X184524249Y-111291000D01*
X184261886Y-111343187D01*
X184014746Y-111445556D01*
X183792325Y-111594172D01*
X183603172Y-111783325D01*
X183454556Y-112005746D01*
X183352187Y-112252886D01*
X183300000Y-112515249D01*
X183300000Y-112782751D01*
X183352187Y-113045114D01*
X183454556Y-113292254D01*
X183603172Y-113514675D01*
X183792325Y-113703828D01*
X184014746Y-113852444D01*
X184175426Y-113919000D01*
X184014746Y-113985556D01*
X183792325Y-114134172D01*
X183603172Y-114323325D01*
X183491470Y-114490500D01*
X183231798Y-114490500D01*
X183197500Y-114487122D01*
X183163202Y-114490500D01*
X183163191Y-114490500D01*
X183060570Y-114500607D01*
X182928903Y-114540548D01*
X182807557Y-114605409D01*
X182727846Y-114670826D01*
X182727843Y-114670829D01*
X182701197Y-114692697D01*
X182679329Y-114719343D01*
X179669673Y-117729000D01*
X174194605Y-117729000D01*
X174187816Y-117722211D01*
X174039099Y-117622841D01*
X173873854Y-117554394D01*
X173698430Y-117519500D01*
X173519570Y-117519500D01*
X173344146Y-117554394D01*
X173178901Y-117622841D01*
X173030184Y-117722211D01*
X172903711Y-117848684D01*
X172804341Y-117997401D01*
X172735894Y-118162646D01*
X172701000Y-118338070D01*
X156934362Y-118338070D01*
X162686934Y-112585500D01*
X171705215Y-112585500D01*
X171820146Y-112633106D01*
X171995570Y-112668000D01*
X172174430Y-112668000D01*
X172349854Y-112633106D01*
X172515099Y-112564659D01*
X172663816Y-112465289D01*
X172790289Y-112338816D01*
X172889659Y-112190099D01*
X172958106Y-112024854D01*
X172993000Y-111849430D01*
X172993000Y-111670570D01*
X172958106Y-111495146D01*
X172889659Y-111329901D01*
X172790289Y-111181184D01*
X172663816Y-111054711D01*
X172515099Y-110955341D01*
X172349854Y-110886894D01*
X172174430Y-110852000D01*
X171995570Y-110852000D01*
X171820146Y-110886894D01*
X171705215Y-110934500D01*
X162385550Y-110934500D01*
X162345000Y-110930506D01*
X162304449Y-110934500D01*
X162304447Y-110934500D01*
X162183174Y-110946444D01*
X162027566Y-110993647D01*
X161884157Y-111070301D01*
X161789958Y-111147608D01*
X161789955Y-111147611D01*
X161758459Y-111173459D01*
X161732611Y-111204955D01*
X153114966Y-119822602D01*
X153083459Y-119848459D01*
X153014214Y-119932835D01*
X152980301Y-119974158D01*
X152951281Y-120028451D01*
X152903647Y-120117567D01*
X152856444Y-120273175D01*
X152844500Y-120394447D01*
X152840506Y-120435000D01*
X152844500Y-120475551D01*
X152844500Y-120559543D01*
X152820000Y-120559543D01*
X152720415Y-120569351D01*
X152624657Y-120598399D01*
X152536405Y-120645571D01*
X152459052Y-120709052D01*
X152395571Y-120786405D01*
X152348399Y-120874657D01*
X152319351Y-120970415D01*
X152309543Y-121070000D01*
X152309543Y-121240975D01*
X152184828Y-121054325D01*
X151995675Y-120865172D01*
X151773254Y-120716556D01*
X151526114Y-120614187D01*
X151263751Y-120562000D01*
X150996249Y-120562000D01*
X150733886Y-120614187D01*
X150486746Y-120716556D01*
X150264325Y-120865172D01*
X150075172Y-121054325D01*
X149926556Y-121276746D01*
X149860000Y-121437426D01*
X149793444Y-121276746D01*
X149644828Y-121054325D01*
X149455675Y-120865172D01*
X149233254Y-120716556D01*
X148986114Y-120614187D01*
X148723751Y-120562000D01*
X148456249Y-120562000D01*
X148193886Y-120614187D01*
X147946746Y-120716556D01*
X147724325Y-120865172D01*
X147535172Y-121054325D01*
X147386556Y-121276746D01*
X147284187Y-121523886D01*
X147232000Y-121786249D01*
X147084373Y-121786249D01*
X147113308Y-121623006D01*
X147034936Y-121421272D01*
X146918714Y-121238703D01*
X146769107Y-121082316D01*
X146591866Y-120958121D01*
X146393801Y-120870890D01*
X146346994Y-120856698D01*
X146177000Y-120887280D01*
X145923000Y-120887280D01*
X145753006Y-120856698D01*
X145706199Y-120870890D01*
X145508134Y-120958121D01*
X145330893Y-121082316D01*
X145181286Y-121238703D01*
X145065064Y-121421272D01*
X144986692Y-121623006D01*
X141060457Y-121623006D01*
X141060457Y-121070000D01*
X141050649Y-120970415D01*
X141021601Y-120874657D01*
X140974429Y-120786405D01*
X140910948Y-120709052D01*
X140833595Y-120645571D01*
X140745343Y-120598399D01*
X140649585Y-120569351D01*
X140550000Y-120559543D01*
X138850000Y-120559543D01*
X138750415Y-120569351D01*
X138654657Y-120598399D01*
X138566405Y-120645571D01*
X138489052Y-120709052D01*
X138425571Y-120786405D01*
X138378399Y-120874657D01*
X138349351Y-120970415D01*
X138339543Y-121070000D01*
X138339543Y-121240975D01*
X138214828Y-121054325D01*
X138025675Y-120865172D01*
X137803254Y-120716556D01*
X137556114Y-120614187D01*
X137293751Y-120562000D01*
X137026249Y-120562000D01*
X136763886Y-120614187D01*
X136516746Y-120716556D01*
X136294325Y-120865172D01*
X136105172Y-121054325D01*
X135956556Y-121276746D01*
X135890000Y-121437426D01*
X135823444Y-121276746D01*
X135674828Y-121054325D01*
X135485675Y-120865172D01*
X135263254Y-120716556D01*
X135016114Y-120614187D01*
X134753751Y-120562000D01*
X134486249Y-120562000D01*
X134223886Y-120614187D01*
X133976746Y-120716556D01*
X133754325Y-120865172D01*
X133565172Y-121054325D01*
X133416556Y-121276746D01*
X133314187Y-121523886D01*
X133262000Y-121786249D01*
X133114373Y-121786249D01*
X133143308Y-121623006D01*
X133064936Y-121421272D01*
X132948714Y-121238703D01*
X132799107Y-121082316D01*
X132621866Y-120958121D01*
X132423801Y-120870890D01*
X132376994Y-120856698D01*
X132207000Y-120887280D01*
X131953000Y-120887280D01*
X131783006Y-120856698D01*
X131736199Y-120870890D01*
X131538134Y-120958121D01*
X131360893Y-121082316D01*
X131211286Y-121238703D01*
X131095064Y-121421272D01*
X131016692Y-121623006D01*
X117602000Y-121623006D01*
X117602000Y-115480570D01*
X131807000Y-115480570D01*
X131807000Y-115659430D01*
X131841894Y-115834854D01*
X131910341Y-116000099D01*
X132009711Y-116148816D01*
X132065895Y-116205000D01*
X132009711Y-116261184D01*
X131910341Y-116409901D01*
X131841894Y-116575146D01*
X131807000Y-116750570D01*
X131807000Y-116929430D01*
X131841894Y-117104854D01*
X131910341Y-117270099D01*
X132009711Y-117418816D01*
X132065895Y-117475000D01*
X132009711Y-117531184D01*
X131910341Y-117679901D01*
X131841894Y-117845146D01*
X131807000Y-118020570D01*
X131807000Y-118199430D01*
X131841894Y-118374854D01*
X131910341Y-118540099D01*
X132009711Y-118688816D01*
X132065895Y-118745000D01*
X132009711Y-118801184D01*
X131910341Y-118949901D01*
X131841894Y-119115146D01*
X131807000Y-119290570D01*
X131807000Y-119469430D01*
X131841894Y-119644854D01*
X131910341Y-119810099D01*
X132009711Y-119958816D01*
X132136184Y-120085289D01*
X132284901Y-120184659D01*
X132450146Y-120253106D01*
X132625570Y-120288000D01*
X132804430Y-120288000D01*
X132979854Y-120253106D01*
X133145099Y-120184659D01*
X133293816Y-120085289D01*
X133300605Y-120078500D01*
X149190702Y-120078500D01*
X149225000Y-120081878D01*
X149259298Y-120078500D01*
X149259309Y-120078500D01*
X149361930Y-120068393D01*
X149493597Y-120028452D01*
X149614943Y-119963591D01*
X149721303Y-119876303D01*
X149743175Y-119849652D01*
X150837667Y-118755162D01*
X150864302Y-118733303D01*
X150886162Y-118706667D01*
X150886174Y-118706655D01*
X150951591Y-118626944D01*
X151016451Y-118505599D01*
X151018167Y-118499943D01*
X151056393Y-118373930D01*
X151066500Y-118271309D01*
X151066500Y-118271299D01*
X151069878Y-118237001D01*
X151066500Y-118202703D01*
X151066500Y-116282605D01*
X151073289Y-116275816D01*
X151172659Y-116127099D01*
X151241106Y-115961854D01*
X151276000Y-115786430D01*
X151276000Y-115607570D01*
X151241106Y-115432146D01*
X151172659Y-115266901D01*
X151073289Y-115118184D01*
X150946816Y-114991711D01*
X150798099Y-114892341D01*
X150632854Y-114823894D01*
X150457430Y-114789000D01*
X150278570Y-114789000D01*
X150103146Y-114823894D01*
X149937901Y-114892341D01*
X149789184Y-114991711D01*
X149662711Y-115118184D01*
X149563341Y-115266901D01*
X149494894Y-115432146D01*
X149460000Y-115607570D01*
X149460000Y-115786430D01*
X149494894Y-115961854D01*
X149563341Y-116127099D01*
X149662711Y-116275816D01*
X149669501Y-116282606D01*
X149669500Y-117947671D01*
X148935673Y-118681500D01*
X143025676Y-118681500D01*
X143117303Y-118606303D01*
X143139175Y-118579652D01*
X144732828Y-116986000D01*
X144742430Y-116986000D01*
X144917854Y-116951106D01*
X145083099Y-116882659D01*
X145231816Y-116783289D01*
X145358289Y-116656816D01*
X145457659Y-116508099D01*
X145526106Y-116342854D01*
X145561000Y-116167430D01*
X145561000Y-115988570D01*
X145526106Y-115813146D01*
X145457659Y-115647901D01*
X145358289Y-115499184D01*
X145231816Y-115372711D01*
X145083099Y-115273341D01*
X144917854Y-115204894D01*
X144742430Y-115170000D01*
X144563570Y-115170000D01*
X144388146Y-115204894D01*
X144222901Y-115273341D01*
X144074184Y-115372711D01*
X143947711Y-115499184D01*
X143848341Y-115647901D01*
X143779894Y-115813146D01*
X143745000Y-115988570D01*
X143745000Y-115998172D01*
X142331673Y-117411500D01*
X138505177Y-117411500D01*
X138599659Y-117270099D01*
X138668106Y-117104854D01*
X138703000Y-116929430D01*
X138703000Y-116750570D01*
X138668106Y-116575146D01*
X138599659Y-116409901D01*
X138500289Y-116261184D01*
X138373816Y-116134711D01*
X138225099Y-116035341D01*
X138059854Y-115966894D01*
X137884430Y-115932000D01*
X137705570Y-115932000D01*
X137530146Y-115966894D01*
X137364901Y-116035341D01*
X137216184Y-116134711D01*
X137209395Y-116141500D01*
X136727177Y-116141500D01*
X136821659Y-116000099D01*
X136890106Y-115834854D01*
X136925000Y-115659430D01*
X136925000Y-115480570D01*
X136890106Y-115305146D01*
X136821659Y-115139901D01*
X136722289Y-114991184D01*
X136595816Y-114864711D01*
X136447099Y-114765341D01*
X136281854Y-114696894D01*
X136106430Y-114662000D01*
X135927570Y-114662000D01*
X135752146Y-114696894D01*
X135586901Y-114765341D01*
X135438184Y-114864711D01*
X135431395Y-114871500D01*
X133300605Y-114871500D01*
X133293816Y-114864711D01*
X133145099Y-114765341D01*
X132979854Y-114696894D01*
X132804430Y-114662000D01*
X132625570Y-114662000D01*
X132450146Y-114696894D01*
X132284901Y-114765341D01*
X132136184Y-114864711D01*
X132009711Y-114991184D01*
X131910341Y-115139901D01*
X131841894Y-115305146D01*
X131807000Y-115480570D01*
X117602000Y-115480570D01*
X117602000Y-108832249D01*
X123229000Y-108832249D01*
X123229000Y-109099751D01*
X123281187Y-109362114D01*
X123383556Y-109609254D01*
X123532172Y-109831675D01*
X123721325Y-110020828D01*
X123943746Y-110169444D01*
X124190886Y-110271813D01*
X124453249Y-110324000D01*
X124720751Y-110324000D01*
X124983114Y-110271813D01*
X125230254Y-110169444D01*
X125452675Y-110020828D01*
X125641828Y-109831675D01*
X125790444Y-109609254D01*
X125857000Y-109448574D01*
X125923556Y-109609254D01*
X126072172Y-109831675D01*
X126261325Y-110020828D01*
X126483746Y-110169444D01*
X126730886Y-110271813D01*
X126993249Y-110324000D01*
X127260751Y-110324000D01*
X127523114Y-110271813D01*
X127770254Y-110169444D01*
X127992675Y-110020828D01*
X128181828Y-109831675D01*
X128330444Y-109609254D01*
X128397000Y-109448574D01*
X128463556Y-109609254D01*
X128612172Y-109831675D01*
X128801325Y-110020828D01*
X129023746Y-110169444D01*
X129270886Y-110271813D01*
X129533249Y-110324000D01*
X129800751Y-110324000D01*
X130063114Y-110271813D01*
X130310254Y-110169444D01*
X130532675Y-110020828D01*
X130721828Y-109831675D01*
X130870444Y-109609254D01*
X130937000Y-109448574D01*
X131003556Y-109609254D01*
X131152172Y-109831675D01*
X131341325Y-110020828D01*
X131563746Y-110169444D01*
X131810886Y-110271813D01*
X132073249Y-110324000D01*
X132340751Y-110324000D01*
X132603114Y-110271813D01*
X132850254Y-110169444D01*
X133072675Y-110020828D01*
X133261828Y-109831675D01*
X133410444Y-109609254D01*
X133477000Y-109448574D01*
X133543556Y-109609254D01*
X133692172Y-109831675D01*
X133881325Y-110020828D01*
X134103746Y-110169444D01*
X134350886Y-110271813D01*
X134613249Y-110324000D01*
X134880751Y-110324000D01*
X135143114Y-110271813D01*
X135390254Y-110169444D01*
X135612675Y-110020828D01*
X135801828Y-109831675D01*
X135950444Y-109609254D01*
X136017000Y-109448574D01*
X136083556Y-109609254D01*
X136232172Y-109831675D01*
X136421325Y-110020828D01*
X136643746Y-110169444D01*
X136890886Y-110271813D01*
X137153249Y-110324000D01*
X137420751Y-110324000D01*
X137683114Y-110271813D01*
X137930254Y-110169444D01*
X138152675Y-110020828D01*
X138341828Y-109831675D01*
X138490444Y-109609254D01*
X138557000Y-109448574D01*
X138623556Y-109609254D01*
X138772172Y-109831675D01*
X138961325Y-110020828D01*
X139183746Y-110169444D01*
X139430886Y-110271813D01*
X139693249Y-110324000D01*
X139960751Y-110324000D01*
X140223114Y-110271813D01*
X140470254Y-110169444D01*
X140692675Y-110020828D01*
X140881828Y-109831675D01*
X141030444Y-109609254D01*
X141097000Y-109448574D01*
X141163556Y-109609254D01*
X141312172Y-109831675D01*
X141501325Y-110020828D01*
X141723746Y-110169444D01*
X141970886Y-110271813D01*
X142233249Y-110324000D01*
X142500751Y-110324000D01*
X142763114Y-110271813D01*
X143010254Y-110169444D01*
X143232675Y-110020828D01*
X143421828Y-109831675D01*
X143570444Y-109609254D01*
X143637000Y-109448574D01*
X143703556Y-109609254D01*
X143852172Y-109831675D01*
X144041325Y-110020828D01*
X144263746Y-110169444D01*
X144510886Y-110271813D01*
X144773249Y-110324000D01*
X145040751Y-110324000D01*
X145303114Y-110271813D01*
X145550254Y-110169444D01*
X145772675Y-110020828D01*
X145961828Y-109831675D01*
X146110444Y-109609254D01*
X146177000Y-109448574D01*
X146243556Y-109609254D01*
X146392172Y-109831675D01*
X146581325Y-110020828D01*
X146803746Y-110169444D01*
X147050886Y-110271813D01*
X147313249Y-110324000D01*
X147580751Y-110324000D01*
X147843114Y-110271813D01*
X148090254Y-110169444D01*
X148312675Y-110020828D01*
X148501828Y-109831675D01*
X148650444Y-109609254D01*
X148717000Y-109448574D01*
X148783556Y-109609254D01*
X148932172Y-109831675D01*
X149121325Y-110020828D01*
X149343746Y-110169444D01*
X149590886Y-110271813D01*
X149853249Y-110324000D01*
X150120751Y-110324000D01*
X150383114Y-110271813D01*
X150630254Y-110169444D01*
X150852675Y-110020828D01*
X151041828Y-109831675D01*
X151190444Y-109609254D01*
X151257000Y-109448574D01*
X151323556Y-109609254D01*
X151472172Y-109831675D01*
X151661325Y-110020828D01*
X151883746Y-110169444D01*
X152130886Y-110271813D01*
X152393249Y-110324000D01*
X152660751Y-110324000D01*
X152923114Y-110271813D01*
X153170254Y-110169444D01*
X153392675Y-110020828D01*
X153581828Y-109831675D01*
X153730444Y-109609254D01*
X153797000Y-109448574D01*
X153863556Y-109609254D01*
X154012172Y-109831675D01*
X154201325Y-110020828D01*
X154423746Y-110169444D01*
X154670886Y-110271813D01*
X154933249Y-110324000D01*
X155200751Y-110324000D01*
X155463114Y-110271813D01*
X155710254Y-110169444D01*
X155932675Y-110020828D01*
X156121828Y-109831675D01*
X156270444Y-109609254D01*
X156372813Y-109362114D01*
X156392529Y-109262994D01*
X156543692Y-109262994D01*
X156622064Y-109464728D01*
X156738286Y-109647297D01*
X156887893Y-109803684D01*
X157065134Y-109927879D01*
X157263199Y-110015110D01*
X157310006Y-110029302D01*
X157480000Y-109998720D01*
X157480000Y-109093000D01*
X157734000Y-109093000D01*
X157734000Y-109998720D01*
X157903994Y-110029302D01*
X157950801Y-110015110D01*
X158148866Y-109927879D01*
X158326107Y-109803684D01*
X158475714Y-109647297D01*
X158591936Y-109464728D01*
X158670308Y-109262994D01*
X158640177Y-109093000D01*
X157734000Y-109093000D01*
X157480000Y-109093000D01*
X156573823Y-109093000D01*
X156543692Y-109262994D01*
X156392529Y-109262994D01*
X156425000Y-109099751D01*
X156425000Y-108832249D01*
X156392530Y-108669006D01*
X156543692Y-108669006D01*
X156573823Y-108839000D01*
X157480000Y-108839000D01*
X157480000Y-107933280D01*
X157734000Y-107933280D01*
X157734000Y-108839000D01*
X158640177Y-108839000D01*
X158670308Y-108669006D01*
X158591936Y-108467272D01*
X158475714Y-108284703D01*
X158326107Y-108128316D01*
X158308531Y-108116000D01*
X158786543Y-108116000D01*
X158786543Y-109816000D01*
X158796351Y-109915585D01*
X158825399Y-110011343D01*
X158872571Y-110099595D01*
X158936052Y-110176948D01*
X159013405Y-110240429D01*
X159101657Y-110287601D01*
X159197415Y-110316649D01*
X159297000Y-110326457D01*
X160997000Y-110326457D01*
X161096585Y-110316649D01*
X161192343Y-110287601D01*
X161280595Y-110240429D01*
X161357948Y-110176948D01*
X161421429Y-110099595D01*
X161468601Y-110011343D01*
X161497649Y-109915585D01*
X161507457Y-109816000D01*
X161507457Y-108116000D01*
X161497649Y-108016415D01*
X161468601Y-107920657D01*
X161421429Y-107832405D01*
X161357948Y-107755052D01*
X161280595Y-107691571D01*
X161192343Y-107644399D01*
X161096585Y-107615351D01*
X160997000Y-107605543D01*
X159297000Y-107605543D01*
X159197415Y-107615351D01*
X159101657Y-107644399D01*
X159013405Y-107691571D01*
X158936052Y-107755052D01*
X158872571Y-107832405D01*
X158825399Y-107920657D01*
X158796351Y-108016415D01*
X158786543Y-108116000D01*
X158308531Y-108116000D01*
X158148866Y-108004121D01*
X157950801Y-107916890D01*
X157903994Y-107902698D01*
X157734000Y-107933280D01*
X157480000Y-107933280D01*
X157310006Y-107902698D01*
X157263199Y-107916890D01*
X157065134Y-108004121D01*
X156887893Y-108128316D01*
X156738286Y-108284703D01*
X156622064Y-108467272D01*
X156543692Y-108669006D01*
X156392530Y-108669006D01*
X156372813Y-108569886D01*
X156270444Y-108322746D01*
X156121828Y-108100325D01*
X155932675Y-107911172D01*
X155710254Y-107762556D01*
X155463114Y-107660187D01*
X155200751Y-107608000D01*
X154933249Y-107608000D01*
X154670886Y-107660187D01*
X154423746Y-107762556D01*
X154201325Y-107911172D01*
X154012172Y-108100325D01*
X153863556Y-108322746D01*
X153797000Y-108483426D01*
X153730444Y-108322746D01*
X153581828Y-108100325D01*
X153392675Y-107911172D01*
X153170254Y-107762556D01*
X152923114Y-107660187D01*
X152660751Y-107608000D01*
X152393249Y-107608000D01*
X152130886Y-107660187D01*
X151883746Y-107762556D01*
X151661325Y-107911172D01*
X151472172Y-108100325D01*
X151323556Y-108322746D01*
X151257000Y-108483426D01*
X151190444Y-108322746D01*
X151041828Y-108100325D01*
X150852675Y-107911172D01*
X150630254Y-107762556D01*
X150383114Y-107660187D01*
X150120751Y-107608000D01*
X149853249Y-107608000D01*
X149590886Y-107660187D01*
X149343746Y-107762556D01*
X149121325Y-107911172D01*
X148932172Y-108100325D01*
X148783556Y-108322746D01*
X148717000Y-108483426D01*
X148650444Y-108322746D01*
X148501828Y-108100325D01*
X148312675Y-107911172D01*
X148090254Y-107762556D01*
X147843114Y-107660187D01*
X147580751Y-107608000D01*
X147313249Y-107608000D01*
X147050886Y-107660187D01*
X146803746Y-107762556D01*
X146581325Y-107911172D01*
X146392172Y-108100325D01*
X146243556Y-108322746D01*
X146177000Y-108483426D01*
X146110444Y-108322746D01*
X145961828Y-108100325D01*
X145772675Y-107911172D01*
X145550254Y-107762556D01*
X145303114Y-107660187D01*
X145040751Y-107608000D01*
X144773249Y-107608000D01*
X144510886Y-107660187D01*
X144263746Y-107762556D01*
X144041325Y-107911172D01*
X143852172Y-108100325D01*
X143703556Y-108322746D01*
X143637000Y-108483426D01*
X143570444Y-108322746D01*
X143421828Y-108100325D01*
X143232675Y-107911172D01*
X143010254Y-107762556D01*
X142763114Y-107660187D01*
X142500751Y-107608000D01*
X142233249Y-107608000D01*
X141970886Y-107660187D01*
X141723746Y-107762556D01*
X141501325Y-107911172D01*
X141312172Y-108100325D01*
X141163556Y-108322746D01*
X141097000Y-108483426D01*
X141030444Y-108322746D01*
X140881828Y-108100325D01*
X140692675Y-107911172D01*
X140470254Y-107762556D01*
X140223114Y-107660187D01*
X139960751Y-107608000D01*
X139693249Y-107608000D01*
X139430886Y-107660187D01*
X139183746Y-107762556D01*
X138961325Y-107911172D01*
X138772172Y-108100325D01*
X138623556Y-108322746D01*
X138557000Y-108483426D01*
X138490444Y-108322746D01*
X138341828Y-108100325D01*
X138152675Y-107911172D01*
X137930254Y-107762556D01*
X137683114Y-107660187D01*
X137420751Y-107608000D01*
X137153249Y-107608000D01*
X136890886Y-107660187D01*
X136643746Y-107762556D01*
X136421325Y-107911172D01*
X136232172Y-108100325D01*
X136083556Y-108322746D01*
X136017000Y-108483426D01*
X135950444Y-108322746D01*
X135801828Y-108100325D01*
X135612675Y-107911172D01*
X135390254Y-107762556D01*
X135143114Y-107660187D01*
X134880751Y-107608000D01*
X134613249Y-107608000D01*
X134350886Y-107660187D01*
X134103746Y-107762556D01*
X133881325Y-107911172D01*
X133692172Y-108100325D01*
X133543556Y-108322746D01*
X133477000Y-108483426D01*
X133410444Y-108322746D01*
X133261828Y-108100325D01*
X133072675Y-107911172D01*
X132850254Y-107762556D01*
X132603114Y-107660187D01*
X132340751Y-107608000D01*
X132073249Y-107608000D01*
X131810886Y-107660187D01*
X131563746Y-107762556D01*
X131341325Y-107911172D01*
X131152172Y-108100325D01*
X131003556Y-108322746D01*
X130937000Y-108483426D01*
X130870444Y-108322746D01*
X130721828Y-108100325D01*
X130532675Y-107911172D01*
X130310254Y-107762556D01*
X130063114Y-107660187D01*
X129800751Y-107608000D01*
X129533249Y-107608000D01*
X129270886Y-107660187D01*
X129023746Y-107762556D01*
X128801325Y-107911172D01*
X128612172Y-108100325D01*
X128463556Y-108322746D01*
X128397000Y-108483426D01*
X128330444Y-108322746D01*
X128181828Y-108100325D01*
X127992675Y-107911172D01*
X127770254Y-107762556D01*
X127523114Y-107660187D01*
X127260751Y-107608000D01*
X126993249Y-107608000D01*
X126730886Y-107660187D01*
X126483746Y-107762556D01*
X126261325Y-107911172D01*
X126072172Y-108100325D01*
X125923556Y-108322746D01*
X125857000Y-108483426D01*
X125790444Y-108322746D01*
X125641828Y-108100325D01*
X125452675Y-107911172D01*
X125230254Y-107762556D01*
X124983114Y-107660187D01*
X124720751Y-107608000D01*
X124453249Y-107608000D01*
X124190886Y-107660187D01*
X123943746Y-107762556D01*
X123721325Y-107911172D01*
X123532172Y-108100325D01*
X123383556Y-108322746D01*
X123281187Y-108569886D01*
X123229000Y-108832249D01*
X117602000Y-108832249D01*
X117602000Y-104265173D01*
X123279000Y-104265173D01*
X123279000Y-104522827D01*
X123329266Y-104775530D01*
X123427865Y-105013570D01*
X123571010Y-105227801D01*
X123753199Y-105409990D01*
X123967430Y-105553135D01*
X124205470Y-105651734D01*
X124458173Y-105702000D01*
X124715827Y-105702000D01*
X124968530Y-105651734D01*
X125206570Y-105553135D01*
X125420801Y-105409990D01*
X125602990Y-105227801D01*
X125746135Y-105013570D01*
X125844734Y-104775530D01*
X125857000Y-104713865D01*
X125869266Y-104775530D01*
X125967865Y-105013570D01*
X126111010Y-105227801D01*
X126293199Y-105409990D01*
X126507430Y-105553135D01*
X126745470Y-105651734D01*
X126998173Y-105702000D01*
X127255827Y-105702000D01*
X127508530Y-105651734D01*
X127746570Y-105553135D01*
X127960801Y-105409990D01*
X128142990Y-105227801D01*
X128286135Y-105013570D01*
X128384734Y-104775530D01*
X128397000Y-104713865D01*
X128409266Y-104775530D01*
X128507865Y-105013570D01*
X128651010Y-105227801D01*
X128833199Y-105409990D01*
X129047430Y-105553135D01*
X129285470Y-105651734D01*
X129538173Y-105702000D01*
X129795827Y-105702000D01*
X130048530Y-105651734D01*
X130286570Y-105553135D01*
X130500801Y-105409990D01*
X130682990Y-105227801D01*
X130826135Y-105013570D01*
X130924734Y-104775530D01*
X130937000Y-104713865D01*
X130949266Y-104775530D01*
X131047865Y-105013570D01*
X131191010Y-105227801D01*
X131373199Y-105409990D01*
X131587430Y-105553135D01*
X131825470Y-105651734D01*
X132078173Y-105702000D01*
X132335827Y-105702000D01*
X132588530Y-105651734D01*
X132826570Y-105553135D01*
X133040801Y-105409990D01*
X133222990Y-105227801D01*
X133366135Y-105013570D01*
X133464734Y-104775530D01*
X133477000Y-104713865D01*
X133489266Y-104775530D01*
X133587865Y-105013570D01*
X133731010Y-105227801D01*
X133913199Y-105409990D01*
X134127430Y-105553135D01*
X134365470Y-105651734D01*
X134618173Y-105702000D01*
X134875827Y-105702000D01*
X135128530Y-105651734D01*
X135366570Y-105553135D01*
X135580801Y-105409990D01*
X135762990Y-105227801D01*
X135906135Y-105013570D01*
X136004734Y-104775530D01*
X136017000Y-104713865D01*
X136029266Y-104775530D01*
X136127865Y-105013570D01*
X136271010Y-105227801D01*
X136453199Y-105409990D01*
X136667430Y-105553135D01*
X136905470Y-105651734D01*
X137158173Y-105702000D01*
X137415827Y-105702000D01*
X137668530Y-105651734D01*
X137906570Y-105553135D01*
X138120801Y-105409990D01*
X138302990Y-105227801D01*
X138446135Y-105013570D01*
X138544734Y-104775530D01*
X138557000Y-104713865D01*
X138569266Y-104775530D01*
X138667865Y-105013570D01*
X138811010Y-105227801D01*
X138993199Y-105409990D01*
X139207430Y-105553135D01*
X139445470Y-105651734D01*
X139698173Y-105702000D01*
X139955827Y-105702000D01*
X140208530Y-105651734D01*
X140446570Y-105553135D01*
X140660801Y-105409990D01*
X140842990Y-105227801D01*
X140986135Y-105013570D01*
X141084734Y-104775530D01*
X141097000Y-104713865D01*
X141109266Y-104775530D01*
X141207865Y-105013570D01*
X141351010Y-105227801D01*
X141533199Y-105409990D01*
X141747430Y-105553135D01*
X141985470Y-105651734D01*
X142238173Y-105702000D01*
X142495827Y-105702000D01*
X142748530Y-105651734D01*
X142986570Y-105553135D01*
X143200801Y-105409990D01*
X143382990Y-105227801D01*
X143526135Y-105013570D01*
X143624734Y-104775530D01*
X143637000Y-104713865D01*
X143649266Y-104775530D01*
X143747865Y-105013570D01*
X143891010Y-105227801D01*
X144073199Y-105409990D01*
X144287430Y-105553135D01*
X144525470Y-105651734D01*
X144778173Y-105702000D01*
X145035827Y-105702000D01*
X145288530Y-105651734D01*
X145526570Y-105553135D01*
X145740801Y-105409990D01*
X145922990Y-105227801D01*
X146066135Y-105013570D01*
X146164734Y-104775530D01*
X146177000Y-104713865D01*
X146189266Y-104775530D01*
X146287865Y-105013570D01*
X146431010Y-105227801D01*
X146613199Y-105409990D01*
X146827430Y-105553135D01*
X147065470Y-105651734D01*
X147318173Y-105702000D01*
X147575827Y-105702000D01*
X147828530Y-105651734D01*
X148066570Y-105553135D01*
X148280801Y-105409990D01*
X148462990Y-105227801D01*
X148606135Y-105013570D01*
X148704734Y-104775530D01*
X148717000Y-104713865D01*
X148729266Y-104775530D01*
X148827865Y-105013570D01*
X148971010Y-105227801D01*
X149153199Y-105409990D01*
X149367430Y-105553135D01*
X149605470Y-105651734D01*
X149858173Y-105702000D01*
X150115827Y-105702000D01*
X150368530Y-105651734D01*
X150606570Y-105553135D01*
X150820801Y-105409990D01*
X151002990Y-105227801D01*
X151146135Y-105013570D01*
X151244734Y-104775530D01*
X151257000Y-104713865D01*
X151269266Y-104775530D01*
X151367865Y-105013570D01*
X151511010Y-105227801D01*
X151693199Y-105409990D01*
X151907430Y-105553135D01*
X152145470Y-105651734D01*
X152398173Y-105702000D01*
X152655827Y-105702000D01*
X152908530Y-105651734D01*
X153146570Y-105553135D01*
X153360801Y-105409990D01*
X153542990Y-105227801D01*
X153686135Y-105013570D01*
X153784734Y-104775530D01*
X153797000Y-104713865D01*
X153809266Y-104775530D01*
X153907865Y-105013570D01*
X154051010Y-105227801D01*
X154233199Y-105409990D01*
X154447430Y-105553135D01*
X154685470Y-105651734D01*
X154938173Y-105702000D01*
X155195827Y-105702000D01*
X155448530Y-105651734D01*
X155686570Y-105553135D01*
X155900801Y-105409990D01*
X156082990Y-105227801D01*
X156226135Y-105013570D01*
X156324734Y-104775530D01*
X156343115Y-104683118D01*
X156593421Y-104683118D01*
X156669301Y-104875302D01*
X156781216Y-105048990D01*
X156924865Y-105197507D01*
X157094728Y-105315146D01*
X157284278Y-105397386D01*
X157317883Y-105407572D01*
X157480000Y-105376324D01*
X157480000Y-104521000D01*
X157734000Y-104521000D01*
X157734000Y-105376324D01*
X157896117Y-105407572D01*
X157929722Y-105397386D01*
X158119272Y-105315146D01*
X158289135Y-105197507D01*
X158432784Y-105048990D01*
X158544699Y-104875302D01*
X158620579Y-104683118D01*
X158589828Y-104521000D01*
X157734000Y-104521000D01*
X157480000Y-104521000D01*
X156624172Y-104521000D01*
X156593421Y-104683118D01*
X156343115Y-104683118D01*
X156375000Y-104522827D01*
X156375000Y-104265173D01*
X156343116Y-104104882D01*
X156593421Y-104104882D01*
X156624172Y-104267000D01*
X157480000Y-104267000D01*
X157480000Y-103411676D01*
X157734000Y-103411676D01*
X157734000Y-104267000D01*
X158589828Y-104267000D01*
X158590174Y-104265173D01*
X158839000Y-104265173D01*
X158839000Y-104522827D01*
X158889266Y-104775530D01*
X158987865Y-105013570D01*
X159131010Y-105227801D01*
X159313199Y-105409990D01*
X159527430Y-105553135D01*
X159765470Y-105651734D01*
X160018173Y-105702000D01*
X160275827Y-105702000D01*
X160528530Y-105651734D01*
X160766570Y-105553135D01*
X160980801Y-105409990D01*
X161162990Y-105227801D01*
X161306135Y-105013570D01*
X161404734Y-104775530D01*
X161455000Y-104522827D01*
X161455000Y-104265173D01*
X161404734Y-104012470D01*
X161306135Y-103774430D01*
X161162990Y-103560199D01*
X160980801Y-103378010D01*
X160766570Y-103234865D01*
X160528530Y-103136266D01*
X160275827Y-103086000D01*
X160018173Y-103086000D01*
X159765470Y-103136266D01*
X159527430Y-103234865D01*
X159313199Y-103378010D01*
X159131010Y-103560199D01*
X158987865Y-103774430D01*
X158889266Y-104012470D01*
X158839000Y-104265173D01*
X158590174Y-104265173D01*
X158620579Y-104104882D01*
X158544699Y-103912698D01*
X158432784Y-103739010D01*
X158289135Y-103590493D01*
X158119272Y-103472854D01*
X157929722Y-103390614D01*
X157896117Y-103380428D01*
X157734000Y-103411676D01*
X157480000Y-103411676D01*
X157317883Y-103380428D01*
X157284278Y-103390614D01*
X157094728Y-103472854D01*
X156924865Y-103590493D01*
X156781216Y-103739010D01*
X156669301Y-103912698D01*
X156593421Y-104104882D01*
X156343116Y-104104882D01*
X156324734Y-104012470D01*
X156226135Y-103774430D01*
X156082990Y-103560199D01*
X155900801Y-103378010D01*
X155686570Y-103234865D01*
X155448530Y-103136266D01*
X155195827Y-103086000D01*
X154938173Y-103086000D01*
X154685470Y-103136266D01*
X154447430Y-103234865D01*
X154233199Y-103378010D01*
X154051010Y-103560199D01*
X153907865Y-103774430D01*
X153809266Y-104012470D01*
X153797000Y-104074135D01*
X153784734Y-104012470D01*
X153686135Y-103774430D01*
X153542990Y-103560199D01*
X153360801Y-103378010D01*
X153146570Y-103234865D01*
X152908530Y-103136266D01*
X152655827Y-103086000D01*
X152398173Y-103086000D01*
X152145470Y-103136266D01*
X151907430Y-103234865D01*
X151693199Y-103378010D01*
X151511010Y-103560199D01*
X151367865Y-103774430D01*
X151269266Y-104012470D01*
X151257000Y-104074135D01*
X151244734Y-104012470D01*
X151146135Y-103774430D01*
X151002990Y-103560199D01*
X150820801Y-103378010D01*
X150606570Y-103234865D01*
X150368530Y-103136266D01*
X150115827Y-103086000D01*
X149858173Y-103086000D01*
X149605470Y-103136266D01*
X149367430Y-103234865D01*
X149153199Y-103378010D01*
X148971010Y-103560199D01*
X148827865Y-103774430D01*
X148729266Y-104012470D01*
X148717000Y-104074135D01*
X148704734Y-104012470D01*
X148606135Y-103774430D01*
X148462990Y-103560199D01*
X148280801Y-103378010D01*
X148066570Y-103234865D01*
X147828530Y-103136266D01*
X147575827Y-103086000D01*
X147318173Y-103086000D01*
X147065470Y-103136266D01*
X146827430Y-103234865D01*
X146613199Y-103378010D01*
X146431010Y-103560199D01*
X146287865Y-103774430D01*
X146189266Y-104012470D01*
X146177000Y-104074135D01*
X146164734Y-104012470D01*
X146066135Y-103774430D01*
X145922990Y-103560199D01*
X145740801Y-103378010D01*
X145526570Y-103234865D01*
X145288530Y-103136266D01*
X145035827Y-103086000D01*
X144778173Y-103086000D01*
X144525470Y-103136266D01*
X144287430Y-103234865D01*
X144073199Y-103378010D01*
X143891010Y-103560199D01*
X143747865Y-103774430D01*
X143649266Y-104012470D01*
X143637000Y-104074135D01*
X143624734Y-104012470D01*
X143526135Y-103774430D01*
X143382990Y-103560199D01*
X143200801Y-103378010D01*
X142986570Y-103234865D01*
X142748530Y-103136266D01*
X142495827Y-103086000D01*
X142238173Y-103086000D01*
X141985470Y-103136266D01*
X141747430Y-103234865D01*
X141533199Y-103378010D01*
X141351010Y-103560199D01*
X141207865Y-103774430D01*
X141109266Y-104012470D01*
X141097000Y-104074135D01*
X141084734Y-104012470D01*
X140986135Y-103774430D01*
X140842990Y-103560199D01*
X140660801Y-103378010D01*
X140446570Y-103234865D01*
X140208530Y-103136266D01*
X139955827Y-103086000D01*
X139698173Y-103086000D01*
X139445470Y-103136266D01*
X139207430Y-103234865D01*
X138993199Y-103378010D01*
X138811010Y-103560199D01*
X138667865Y-103774430D01*
X138569266Y-104012470D01*
X138557000Y-104074135D01*
X138544734Y-104012470D01*
X138446135Y-103774430D01*
X138302990Y-103560199D01*
X138120801Y-103378010D01*
X137906570Y-103234865D01*
X137668530Y-103136266D01*
X137415827Y-103086000D01*
X137158173Y-103086000D01*
X136905470Y-103136266D01*
X136667430Y-103234865D01*
X136453199Y-103378010D01*
X136271010Y-103560199D01*
X136127865Y-103774430D01*
X136029266Y-104012470D01*
X136017000Y-104074135D01*
X136004734Y-104012470D01*
X135906135Y-103774430D01*
X135762990Y-103560199D01*
X135580801Y-103378010D01*
X135366570Y-103234865D01*
X135128530Y-103136266D01*
X134875827Y-103086000D01*
X134618173Y-103086000D01*
X134365470Y-103136266D01*
X134127430Y-103234865D01*
X133913199Y-103378010D01*
X133731010Y-103560199D01*
X133587865Y-103774430D01*
X133489266Y-104012470D01*
X133477000Y-104074135D01*
X133464734Y-104012470D01*
X133366135Y-103774430D01*
X133222990Y-103560199D01*
X133040801Y-103378010D01*
X132826570Y-103234865D01*
X132588530Y-103136266D01*
X132335827Y-103086000D01*
X132078173Y-103086000D01*
X131825470Y-103136266D01*
X131587430Y-103234865D01*
X131373199Y-103378010D01*
X131191010Y-103560199D01*
X131047865Y-103774430D01*
X130949266Y-104012470D01*
X130937000Y-104074135D01*
X130924734Y-104012470D01*
X130826135Y-103774430D01*
X130682990Y-103560199D01*
X130500801Y-103378010D01*
X130286570Y-103234865D01*
X130048530Y-103136266D01*
X129795827Y-103086000D01*
X129538173Y-103086000D01*
X129285470Y-103136266D01*
X129047430Y-103234865D01*
X128833199Y-103378010D01*
X128651010Y-103560199D01*
X128507865Y-103774430D01*
X128409266Y-104012470D01*
X128397000Y-104074135D01*
X128384734Y-104012470D01*
X128286135Y-103774430D01*
X128142990Y-103560199D01*
X127960801Y-103378010D01*
X127746570Y-103234865D01*
X127508530Y-103136266D01*
X127255827Y-103086000D01*
X126998173Y-103086000D01*
X126745470Y-103136266D01*
X126507430Y-103234865D01*
X126293199Y-103378010D01*
X126111010Y-103560199D01*
X125967865Y-103774430D01*
X125869266Y-104012470D01*
X125857000Y-104074135D01*
X125844734Y-104012470D01*
X125746135Y-103774430D01*
X125602990Y-103560199D01*
X125420801Y-103378010D01*
X125206570Y-103234865D01*
X124968530Y-103136266D01*
X124715827Y-103086000D01*
X124458173Y-103086000D01*
X124205470Y-103136266D01*
X123967430Y-103234865D01*
X123753199Y-103378010D01*
X123571010Y-103560199D01*
X123427865Y-103774430D01*
X123329266Y-104012470D01*
X123279000Y-104265173D01*
X117602000Y-104265173D01*
X117602000Y-98806000D01*
X153670000Y-98806000D01*
X153670000Y-101854000D01*
X153679761Y-101953106D01*
X153708669Y-102048403D01*
X153755613Y-102136230D01*
X153818790Y-102213210D01*
X153895770Y-102276387D01*
X153983597Y-102323331D01*
X154078894Y-102352239D01*
X154178000Y-102362000D01*
X170180000Y-102362000D01*
X170180000Y-108585000D01*
X170189761Y-108684106D01*
X170218669Y-108779403D01*
X170265613Y-108867230D01*
X170328790Y-108944210D01*
X170405770Y-109007387D01*
X170493597Y-109054331D01*
X170588894Y-109083239D01*
X170688000Y-109093000D01*
X178054000Y-109093000D01*
X178153106Y-109083239D01*
X178248403Y-109054331D01*
X178336230Y-109007387D01*
X178413210Y-108944210D01*
X178476387Y-108867230D01*
X178523331Y-108779403D01*
X178552239Y-108684106D01*
X178562000Y-108585000D01*
X178562000Y-96266000D01*
X178552239Y-96166894D01*
X178523331Y-96071597D01*
X178476387Y-95983770D01*
X178413210Y-95906790D01*
X178336230Y-95843613D01*
X178248403Y-95796669D01*
X178153106Y-95767761D01*
X178054000Y-95758000D01*
X175006000Y-95758000D01*
X174906894Y-95767761D01*
X174811597Y-95796669D01*
X174723770Y-95843613D01*
X174646790Y-95906790D01*
X174583613Y-95983770D01*
X174536669Y-96071597D01*
X174507761Y-96166894D01*
X174498000Y-96266000D01*
X174498000Y-98298000D01*
X154178000Y-98298000D01*
X154078894Y-98307761D01*
X153983597Y-98336669D01*
X153895770Y-98383613D01*
X153818790Y-98446790D01*
X153755613Y-98523770D01*
X153708669Y-98611597D01*
X153679761Y-98706894D01*
X153670000Y-98806000D01*
X117602000Y-98806000D01*
X117602000Y-95078047D01*
X175921558Y-95078047D01*
X176014714Y-95215297D01*
X176205131Y-95298044D01*
X176408033Y-95342054D01*
X176615623Y-95345633D01*
X176819922Y-95308646D01*
X177013079Y-95232512D01*
X177045286Y-95215297D01*
X177138442Y-95078047D01*
X176530000Y-94469605D01*
X175921558Y-95078047D01*
X117602000Y-95078047D01*
X117602000Y-94375623D01*
X175474367Y-94375623D01*
X175511354Y-94579922D01*
X175587488Y-94773079D01*
X175604703Y-94805286D01*
X175741953Y-94898442D01*
X176350395Y-94290000D01*
X176709605Y-94290000D01*
X177318047Y-94898442D01*
X177455297Y-94805286D01*
X177538044Y-94614869D01*
X177582054Y-94411967D01*
X177585633Y-94204377D01*
X177548646Y-94000078D01*
X177472512Y-93806921D01*
X177455297Y-93774714D01*
X177318047Y-93681558D01*
X176709605Y-94290000D01*
X176350395Y-94290000D01*
X175741953Y-93681558D01*
X175604703Y-93774714D01*
X175521956Y-93965131D01*
X175477946Y-94168033D01*
X175474367Y-94375623D01*
X117602000Y-94375623D01*
X117602000Y-93501953D01*
X175921558Y-93501953D01*
X176530000Y-94110395D01*
X177138442Y-93501953D01*
X177045286Y-93364703D01*
X176854869Y-93281956D01*
X176651967Y-93237946D01*
X176444377Y-93234367D01*
X176240078Y-93271354D01*
X176046921Y-93347488D01*
X176014714Y-93364703D01*
X175921558Y-93501953D01*
X117602000Y-93501953D01*
X117602000Y-89025173D01*
X123279000Y-89025173D01*
X123279000Y-89282827D01*
X123329266Y-89535530D01*
X123427865Y-89773570D01*
X123571010Y-89987801D01*
X123753199Y-90169990D01*
X123967430Y-90313135D01*
X124205470Y-90411734D01*
X124458173Y-90462000D01*
X124715827Y-90462000D01*
X124968530Y-90411734D01*
X125206570Y-90313135D01*
X125420801Y-90169990D01*
X125602990Y-89987801D01*
X125746135Y-89773570D01*
X125844734Y-89535530D01*
X125857000Y-89473865D01*
X125869266Y-89535530D01*
X125967865Y-89773570D01*
X126111010Y-89987801D01*
X126293199Y-90169990D01*
X126507430Y-90313135D01*
X126745470Y-90411734D01*
X126998173Y-90462000D01*
X127255827Y-90462000D01*
X127508530Y-90411734D01*
X127746570Y-90313135D01*
X127960801Y-90169990D01*
X128142990Y-89987801D01*
X128286135Y-89773570D01*
X128384734Y-89535530D01*
X128397000Y-89473865D01*
X128409266Y-89535530D01*
X128507865Y-89773570D01*
X128651010Y-89987801D01*
X128833199Y-90169990D01*
X129047430Y-90313135D01*
X129285470Y-90411734D01*
X129538173Y-90462000D01*
X129795827Y-90462000D01*
X130048530Y-90411734D01*
X130286570Y-90313135D01*
X130500801Y-90169990D01*
X130682990Y-89987801D01*
X130826135Y-89773570D01*
X130924734Y-89535530D01*
X130937000Y-89473865D01*
X130949266Y-89535530D01*
X131047865Y-89773570D01*
X131191010Y-89987801D01*
X131373199Y-90169990D01*
X131587430Y-90313135D01*
X131825470Y-90411734D01*
X132078173Y-90462000D01*
X132335827Y-90462000D01*
X132588530Y-90411734D01*
X132826570Y-90313135D01*
X133040801Y-90169990D01*
X133222990Y-89987801D01*
X133366135Y-89773570D01*
X133464734Y-89535530D01*
X133477000Y-89473865D01*
X133489266Y-89535530D01*
X133587865Y-89773570D01*
X133731010Y-89987801D01*
X133913199Y-90169990D01*
X134127430Y-90313135D01*
X134365470Y-90411734D01*
X134618173Y-90462000D01*
X134875827Y-90462000D01*
X135128530Y-90411734D01*
X135366570Y-90313135D01*
X135580801Y-90169990D01*
X135762990Y-89987801D01*
X135906135Y-89773570D01*
X136004734Y-89535530D01*
X136017000Y-89473865D01*
X136029266Y-89535530D01*
X136127865Y-89773570D01*
X136271010Y-89987801D01*
X136453199Y-90169990D01*
X136667430Y-90313135D01*
X136905470Y-90411734D01*
X137158173Y-90462000D01*
X137415827Y-90462000D01*
X137668530Y-90411734D01*
X137906570Y-90313135D01*
X138120801Y-90169990D01*
X138302990Y-89987801D01*
X138446135Y-89773570D01*
X138544734Y-89535530D01*
X138557000Y-89473865D01*
X138569266Y-89535530D01*
X138667865Y-89773570D01*
X138811010Y-89987801D01*
X138993199Y-90169990D01*
X139207430Y-90313135D01*
X139445470Y-90411734D01*
X139698173Y-90462000D01*
X139955827Y-90462000D01*
X140208530Y-90411734D01*
X140446570Y-90313135D01*
X140660801Y-90169990D01*
X140842990Y-89987801D01*
X140986135Y-89773570D01*
X141084734Y-89535530D01*
X141097000Y-89473865D01*
X141109266Y-89535530D01*
X141207865Y-89773570D01*
X141351010Y-89987801D01*
X141533199Y-90169990D01*
X141747430Y-90313135D01*
X141985470Y-90411734D01*
X142238173Y-90462000D01*
X142495827Y-90462000D01*
X142748530Y-90411734D01*
X142986570Y-90313135D01*
X143200801Y-90169990D01*
X143382990Y-89987801D01*
X143526135Y-89773570D01*
X143624734Y-89535530D01*
X143637000Y-89473865D01*
X143649266Y-89535530D01*
X143747865Y-89773570D01*
X143891010Y-89987801D01*
X144073199Y-90169990D01*
X144287430Y-90313135D01*
X144525470Y-90411734D01*
X144778173Y-90462000D01*
X145035827Y-90462000D01*
X145288530Y-90411734D01*
X145526570Y-90313135D01*
X145740801Y-90169990D01*
X145922990Y-89987801D01*
X146066135Y-89773570D01*
X146164734Y-89535530D01*
X146177000Y-89473865D01*
X146189266Y-89535530D01*
X146287865Y-89773570D01*
X146431010Y-89987801D01*
X146613199Y-90169990D01*
X146827430Y-90313135D01*
X147065470Y-90411734D01*
X147318173Y-90462000D01*
X147575827Y-90462000D01*
X147828530Y-90411734D01*
X148066570Y-90313135D01*
X148280801Y-90169990D01*
X148462990Y-89987801D01*
X148606135Y-89773570D01*
X148704734Y-89535530D01*
X148717000Y-89473865D01*
X148729266Y-89535530D01*
X148827865Y-89773570D01*
X148971010Y-89987801D01*
X149153199Y-90169990D01*
X149367430Y-90313135D01*
X149605470Y-90411734D01*
X149858173Y-90462000D01*
X150115827Y-90462000D01*
X150368530Y-90411734D01*
X150606570Y-90313135D01*
X150820801Y-90169990D01*
X151002990Y-89987801D01*
X151146135Y-89773570D01*
X151244734Y-89535530D01*
X151263115Y-89443118D01*
X151513421Y-89443118D01*
X151589301Y-89635302D01*
X151701216Y-89808990D01*
X151844865Y-89957507D01*
X152014728Y-90075146D01*
X152204278Y-90157386D01*
X152237883Y-90167572D01*
X152400000Y-90136324D01*
X152400000Y-89281000D01*
X152654000Y-89281000D01*
X152654000Y-90136324D01*
X152816117Y-90167572D01*
X152849722Y-90157386D01*
X153039272Y-90075146D01*
X153209135Y-89957507D01*
X153352784Y-89808990D01*
X153464699Y-89635302D01*
X153540579Y-89443118D01*
X153509828Y-89281000D01*
X152654000Y-89281000D01*
X152400000Y-89281000D01*
X151544172Y-89281000D01*
X151513421Y-89443118D01*
X151263115Y-89443118D01*
X151295000Y-89282827D01*
X151295000Y-89025173D01*
X151263116Y-88864882D01*
X151513421Y-88864882D01*
X151544172Y-89027000D01*
X152400000Y-89027000D01*
X152400000Y-88171676D01*
X152654000Y-88171676D01*
X152654000Y-89027000D01*
X153509828Y-89027000D01*
X153510174Y-89025173D01*
X153759000Y-89025173D01*
X153759000Y-89282827D01*
X153809266Y-89535530D01*
X153907865Y-89773570D01*
X154051010Y-89987801D01*
X154233199Y-90169990D01*
X154447430Y-90313135D01*
X154685470Y-90411734D01*
X154938173Y-90462000D01*
X155195827Y-90462000D01*
X155448530Y-90411734D01*
X155686570Y-90313135D01*
X155900801Y-90169990D01*
X156082990Y-89987801D01*
X156226135Y-89773570D01*
X156324734Y-89535530D01*
X156337000Y-89473865D01*
X156349266Y-89535530D01*
X156447865Y-89773570D01*
X156591010Y-89987801D01*
X156773199Y-90169990D01*
X156987430Y-90313135D01*
X157225470Y-90411734D01*
X157478173Y-90462000D01*
X157735827Y-90462000D01*
X157988530Y-90411734D01*
X158226570Y-90313135D01*
X158440801Y-90169990D01*
X158622990Y-89987801D01*
X158766135Y-89773570D01*
X158836543Y-89603589D01*
X158836543Y-89954000D01*
X158846351Y-90053585D01*
X158875399Y-90149343D01*
X158922571Y-90237595D01*
X158986052Y-90314948D01*
X159063405Y-90378429D01*
X159151657Y-90425601D01*
X159247415Y-90454649D01*
X159347000Y-90464457D01*
X160947000Y-90464457D01*
X161046585Y-90454649D01*
X161142343Y-90425601D01*
X161230595Y-90378429D01*
X161307948Y-90314948D01*
X161371429Y-90237595D01*
X161418601Y-90149343D01*
X161447649Y-90053585D01*
X161457457Y-89954000D01*
X161457457Y-88354000D01*
X161447649Y-88254415D01*
X161418601Y-88158657D01*
X161371429Y-88070405D01*
X161307948Y-87993052D01*
X161230595Y-87929571D01*
X161142343Y-87882399D01*
X161046585Y-87853351D01*
X160947000Y-87843543D01*
X159347000Y-87843543D01*
X159247415Y-87853351D01*
X159151657Y-87882399D01*
X159063405Y-87929571D01*
X158986052Y-87993052D01*
X158922571Y-88070405D01*
X158875399Y-88158657D01*
X158846351Y-88254415D01*
X158836543Y-88354000D01*
X158836543Y-88704411D01*
X158766135Y-88534430D01*
X158622990Y-88320199D01*
X158440801Y-88138010D01*
X158226570Y-87994865D01*
X157988530Y-87896266D01*
X157735827Y-87846000D01*
X157478173Y-87846000D01*
X157225470Y-87896266D01*
X156987430Y-87994865D01*
X156773199Y-88138010D01*
X156591010Y-88320199D01*
X156447865Y-88534430D01*
X156349266Y-88772470D01*
X156337000Y-88834135D01*
X156324734Y-88772470D01*
X156226135Y-88534430D01*
X156082990Y-88320199D01*
X155900801Y-88138010D01*
X155686570Y-87994865D01*
X155448530Y-87896266D01*
X155195827Y-87846000D01*
X154938173Y-87846000D01*
X154685470Y-87896266D01*
X154447430Y-87994865D01*
X154233199Y-88138010D01*
X154051010Y-88320199D01*
X153907865Y-88534430D01*
X153809266Y-88772470D01*
X153759000Y-89025173D01*
X153510174Y-89025173D01*
X153540579Y-88864882D01*
X153464699Y-88672698D01*
X153352784Y-88499010D01*
X153209135Y-88350493D01*
X153039272Y-88232854D01*
X152849722Y-88150614D01*
X152816117Y-88140428D01*
X152654000Y-88171676D01*
X152400000Y-88171676D01*
X152237883Y-88140428D01*
X152204278Y-88150614D01*
X152014728Y-88232854D01*
X151844865Y-88350493D01*
X151701216Y-88499010D01*
X151589301Y-88672698D01*
X151513421Y-88864882D01*
X151263116Y-88864882D01*
X151244734Y-88772470D01*
X151146135Y-88534430D01*
X151002990Y-88320199D01*
X150820801Y-88138010D01*
X150606570Y-87994865D01*
X150368530Y-87896266D01*
X150115827Y-87846000D01*
X149858173Y-87846000D01*
X149605470Y-87896266D01*
X149367430Y-87994865D01*
X149153199Y-88138010D01*
X148971010Y-88320199D01*
X148827865Y-88534430D01*
X148729266Y-88772470D01*
X148717000Y-88834135D01*
X148704734Y-88772470D01*
X148606135Y-88534430D01*
X148462990Y-88320199D01*
X148280801Y-88138010D01*
X148066570Y-87994865D01*
X147828530Y-87896266D01*
X147575827Y-87846000D01*
X147318173Y-87846000D01*
X147065470Y-87896266D01*
X146827430Y-87994865D01*
X146613199Y-88138010D01*
X146431010Y-88320199D01*
X146287865Y-88534430D01*
X146189266Y-88772470D01*
X146177000Y-88834135D01*
X146164734Y-88772470D01*
X146066135Y-88534430D01*
X145922990Y-88320199D01*
X145740801Y-88138010D01*
X145526570Y-87994865D01*
X145288530Y-87896266D01*
X145035827Y-87846000D01*
X144778173Y-87846000D01*
X144525470Y-87896266D01*
X144287430Y-87994865D01*
X144073199Y-88138010D01*
X143891010Y-88320199D01*
X143747865Y-88534430D01*
X143649266Y-88772470D01*
X143637000Y-88834135D01*
X143624734Y-88772470D01*
X143526135Y-88534430D01*
X143382990Y-88320199D01*
X143200801Y-88138010D01*
X142986570Y-87994865D01*
X142748530Y-87896266D01*
X142495827Y-87846000D01*
X142238173Y-87846000D01*
X141985470Y-87896266D01*
X141747430Y-87994865D01*
X141533199Y-88138010D01*
X141351010Y-88320199D01*
X141207865Y-88534430D01*
X141109266Y-88772470D01*
X141097000Y-88834135D01*
X141084734Y-88772470D01*
X140986135Y-88534430D01*
X140842990Y-88320199D01*
X140660801Y-88138010D01*
X140446570Y-87994865D01*
X140208530Y-87896266D01*
X139955827Y-87846000D01*
X139698173Y-87846000D01*
X139445470Y-87896266D01*
X139207430Y-87994865D01*
X138993199Y-88138010D01*
X138811010Y-88320199D01*
X138667865Y-88534430D01*
X138569266Y-88772470D01*
X138557000Y-88834135D01*
X138544734Y-88772470D01*
X138446135Y-88534430D01*
X138302990Y-88320199D01*
X138120801Y-88138010D01*
X137906570Y-87994865D01*
X137668530Y-87896266D01*
X137415827Y-87846000D01*
X137158173Y-87846000D01*
X136905470Y-87896266D01*
X136667430Y-87994865D01*
X136453199Y-88138010D01*
X136271010Y-88320199D01*
X136127865Y-88534430D01*
X136029266Y-88772470D01*
X136017000Y-88834135D01*
X136004734Y-88772470D01*
X135906135Y-88534430D01*
X135762990Y-88320199D01*
X135580801Y-88138010D01*
X135366570Y-87994865D01*
X135128530Y-87896266D01*
X134875827Y-87846000D01*
X134618173Y-87846000D01*
X134365470Y-87896266D01*
X134127430Y-87994865D01*
X133913199Y-88138010D01*
X133731010Y-88320199D01*
X133587865Y-88534430D01*
X133489266Y-88772470D01*
X133477000Y-88834135D01*
X133464734Y-88772470D01*
X133366135Y-88534430D01*
X133222990Y-88320199D01*
X133040801Y-88138010D01*
X132826570Y-87994865D01*
X132588530Y-87896266D01*
X132335827Y-87846000D01*
X132078173Y-87846000D01*
X131825470Y-87896266D01*
X131587430Y-87994865D01*
X131373199Y-88138010D01*
X131191010Y-88320199D01*
X131047865Y-88534430D01*
X130949266Y-88772470D01*
X130937000Y-88834135D01*
X130924734Y-88772470D01*
X130826135Y-88534430D01*
X130682990Y-88320199D01*
X130500801Y-88138010D01*
X130286570Y-87994865D01*
X130048530Y-87896266D01*
X129795827Y-87846000D01*
X129538173Y-87846000D01*
X129285470Y-87896266D01*
X129047430Y-87994865D01*
X128833199Y-88138010D01*
X128651010Y-88320199D01*
X128507865Y-88534430D01*
X128409266Y-88772470D01*
X128397000Y-88834135D01*
X128384734Y-88772470D01*
X128286135Y-88534430D01*
X128142990Y-88320199D01*
X127960801Y-88138010D01*
X127746570Y-87994865D01*
X127508530Y-87896266D01*
X127255827Y-87846000D01*
X126998173Y-87846000D01*
X126745470Y-87896266D01*
X126507430Y-87994865D01*
X126293199Y-88138010D01*
X126111010Y-88320199D01*
X125967865Y-88534430D01*
X125869266Y-88772470D01*
X125857000Y-88834135D01*
X125844734Y-88772470D01*
X125746135Y-88534430D01*
X125602990Y-88320199D01*
X125420801Y-88138010D01*
X125206570Y-87994865D01*
X124968530Y-87896266D01*
X124715827Y-87846000D01*
X124458173Y-87846000D01*
X124205470Y-87896266D01*
X123967430Y-87994865D01*
X123753199Y-88138010D01*
X123571010Y-88320199D01*
X123427865Y-88534430D01*
X123329266Y-88772470D01*
X123279000Y-89025173D01*
X117602000Y-89025173D01*
X117602000Y-84448249D01*
X123229000Y-84448249D01*
X123229000Y-84715751D01*
X123281187Y-84978114D01*
X123383556Y-85225254D01*
X123532172Y-85447675D01*
X123721325Y-85636828D01*
X123943746Y-85785444D01*
X124190886Y-85887813D01*
X124453249Y-85940000D01*
X124720751Y-85940000D01*
X124983114Y-85887813D01*
X125230254Y-85785444D01*
X125452675Y-85636828D01*
X125641828Y-85447675D01*
X125790444Y-85225254D01*
X125857000Y-85064574D01*
X125923556Y-85225254D01*
X126072172Y-85447675D01*
X126261325Y-85636828D01*
X126483746Y-85785444D01*
X126730886Y-85887813D01*
X126993249Y-85940000D01*
X127260751Y-85940000D01*
X127523114Y-85887813D01*
X127770254Y-85785444D01*
X127992675Y-85636828D01*
X128181828Y-85447675D01*
X128330444Y-85225254D01*
X128397000Y-85064574D01*
X128463556Y-85225254D01*
X128612172Y-85447675D01*
X128801325Y-85636828D01*
X129023746Y-85785444D01*
X129270886Y-85887813D01*
X129533249Y-85940000D01*
X129800751Y-85940000D01*
X130063114Y-85887813D01*
X130310254Y-85785444D01*
X130532675Y-85636828D01*
X130721828Y-85447675D01*
X130870444Y-85225254D01*
X130937000Y-85064574D01*
X131003556Y-85225254D01*
X131152172Y-85447675D01*
X131341325Y-85636828D01*
X131563746Y-85785444D01*
X131810886Y-85887813D01*
X132073249Y-85940000D01*
X132340751Y-85940000D01*
X132603114Y-85887813D01*
X132850254Y-85785444D01*
X133072675Y-85636828D01*
X133261828Y-85447675D01*
X133410444Y-85225254D01*
X133477000Y-85064574D01*
X133543556Y-85225254D01*
X133692172Y-85447675D01*
X133881325Y-85636828D01*
X134103746Y-85785444D01*
X134350886Y-85887813D01*
X134613249Y-85940000D01*
X134880751Y-85940000D01*
X135143114Y-85887813D01*
X135390254Y-85785444D01*
X135612675Y-85636828D01*
X135801828Y-85447675D01*
X135950444Y-85225254D01*
X136017000Y-85064574D01*
X136083556Y-85225254D01*
X136232172Y-85447675D01*
X136421325Y-85636828D01*
X136643746Y-85785444D01*
X136890886Y-85887813D01*
X137153249Y-85940000D01*
X137420751Y-85940000D01*
X137683114Y-85887813D01*
X137930254Y-85785444D01*
X138152675Y-85636828D01*
X138341828Y-85447675D01*
X138490444Y-85225254D01*
X138557000Y-85064574D01*
X138623556Y-85225254D01*
X138772172Y-85447675D01*
X138961325Y-85636828D01*
X139183746Y-85785444D01*
X139430886Y-85887813D01*
X139693249Y-85940000D01*
X139960751Y-85940000D01*
X140223114Y-85887813D01*
X140470254Y-85785444D01*
X140692675Y-85636828D01*
X140881828Y-85447675D01*
X141030444Y-85225254D01*
X141097000Y-85064574D01*
X141163556Y-85225254D01*
X141312172Y-85447675D01*
X141501325Y-85636828D01*
X141723746Y-85785444D01*
X141970886Y-85887813D01*
X142233249Y-85940000D01*
X142500751Y-85940000D01*
X142763114Y-85887813D01*
X143010254Y-85785444D01*
X143232675Y-85636828D01*
X143421828Y-85447675D01*
X143570444Y-85225254D01*
X143637000Y-85064574D01*
X143703556Y-85225254D01*
X143852172Y-85447675D01*
X144041325Y-85636828D01*
X144263746Y-85785444D01*
X144510886Y-85887813D01*
X144773249Y-85940000D01*
X145040751Y-85940000D01*
X145303114Y-85887813D01*
X145550254Y-85785444D01*
X145772675Y-85636828D01*
X145961828Y-85447675D01*
X146110444Y-85225254D01*
X146177000Y-85064574D01*
X146243556Y-85225254D01*
X146392172Y-85447675D01*
X146581325Y-85636828D01*
X146803746Y-85785444D01*
X147050886Y-85887813D01*
X147313249Y-85940000D01*
X147580751Y-85940000D01*
X147843114Y-85887813D01*
X148090254Y-85785444D01*
X148312675Y-85636828D01*
X148501828Y-85447675D01*
X148650444Y-85225254D01*
X148717000Y-85064574D01*
X148783556Y-85225254D01*
X148932172Y-85447675D01*
X149121325Y-85636828D01*
X149343746Y-85785444D01*
X149590886Y-85887813D01*
X149853249Y-85940000D01*
X150120751Y-85940000D01*
X150383114Y-85887813D01*
X150630254Y-85785444D01*
X150852675Y-85636828D01*
X151041828Y-85447675D01*
X151190444Y-85225254D01*
X151292813Y-84978114D01*
X151312529Y-84878994D01*
X151463692Y-84878994D01*
X151542064Y-85080728D01*
X151658286Y-85263297D01*
X151807893Y-85419684D01*
X151985134Y-85543879D01*
X152183199Y-85631110D01*
X152230006Y-85645302D01*
X152400000Y-85614720D01*
X152400000Y-84709000D01*
X152654000Y-84709000D01*
X152654000Y-85614720D01*
X152823994Y-85645302D01*
X152870801Y-85631110D01*
X153068866Y-85543879D01*
X153246107Y-85419684D01*
X153395714Y-85263297D01*
X153511936Y-85080728D01*
X153590308Y-84878994D01*
X153560177Y-84709000D01*
X152654000Y-84709000D01*
X152400000Y-84709000D01*
X151493823Y-84709000D01*
X151463692Y-84878994D01*
X151312529Y-84878994D01*
X151345000Y-84715751D01*
X151345000Y-84448249D01*
X151312530Y-84285006D01*
X151463692Y-84285006D01*
X151493823Y-84455000D01*
X152400000Y-84455000D01*
X152400000Y-83549280D01*
X152654000Y-83549280D01*
X152654000Y-84455000D01*
X153560177Y-84455000D01*
X153561373Y-84448249D01*
X153709000Y-84448249D01*
X153709000Y-84715751D01*
X153761187Y-84978114D01*
X153863556Y-85225254D01*
X154012172Y-85447675D01*
X154201325Y-85636828D01*
X154423746Y-85785444D01*
X154670886Y-85887813D01*
X154933249Y-85940000D01*
X155200751Y-85940000D01*
X155463114Y-85887813D01*
X155710254Y-85785444D01*
X155932675Y-85636828D01*
X156121828Y-85447675D01*
X156270444Y-85225254D01*
X156337000Y-85064574D01*
X156403556Y-85225254D01*
X156552172Y-85447675D01*
X156741325Y-85636828D01*
X156963746Y-85785444D01*
X157210886Y-85887813D01*
X157473249Y-85940000D01*
X157740751Y-85940000D01*
X158003114Y-85887813D01*
X158250254Y-85785444D01*
X158472675Y-85636828D01*
X158661828Y-85447675D01*
X158786543Y-85261025D01*
X158786543Y-85432000D01*
X158796351Y-85531585D01*
X158825399Y-85627343D01*
X158872571Y-85715595D01*
X158936052Y-85792948D01*
X159013405Y-85856429D01*
X159101657Y-85903601D01*
X159197415Y-85932649D01*
X159297000Y-85942457D01*
X160997000Y-85942457D01*
X161096585Y-85932649D01*
X161192343Y-85903601D01*
X161280595Y-85856429D01*
X161357948Y-85792948D01*
X161421429Y-85715595D01*
X161468601Y-85627343D01*
X161497649Y-85531585D01*
X161507457Y-85432000D01*
X161507457Y-83732000D01*
X161497649Y-83632415D01*
X161468601Y-83536657D01*
X161421429Y-83448405D01*
X161357948Y-83371052D01*
X161280595Y-83307571D01*
X161192343Y-83260399D01*
X161096585Y-83231351D01*
X160997000Y-83221543D01*
X159297000Y-83221543D01*
X159197415Y-83231351D01*
X159101657Y-83260399D01*
X159013405Y-83307571D01*
X158936052Y-83371052D01*
X158872571Y-83448405D01*
X158825399Y-83536657D01*
X158796351Y-83632415D01*
X158786543Y-83732000D01*
X158786543Y-83902975D01*
X158661828Y-83716325D01*
X158472675Y-83527172D01*
X158250254Y-83378556D01*
X158003114Y-83276187D01*
X157740751Y-83224000D01*
X157473249Y-83224000D01*
X157210886Y-83276187D01*
X156963746Y-83378556D01*
X156741325Y-83527172D01*
X156552172Y-83716325D01*
X156403556Y-83938746D01*
X156337000Y-84099426D01*
X156270444Y-83938746D01*
X156121828Y-83716325D01*
X155932675Y-83527172D01*
X155710254Y-83378556D01*
X155463114Y-83276187D01*
X155200751Y-83224000D01*
X154933249Y-83224000D01*
X154670886Y-83276187D01*
X154423746Y-83378556D01*
X154201325Y-83527172D01*
X154012172Y-83716325D01*
X153863556Y-83938746D01*
X153761187Y-84185886D01*
X153709000Y-84448249D01*
X153561373Y-84448249D01*
X153590308Y-84285006D01*
X153511936Y-84083272D01*
X153395714Y-83900703D01*
X153246107Y-83744316D01*
X153068866Y-83620121D01*
X152870801Y-83532890D01*
X152823994Y-83518698D01*
X152654000Y-83549280D01*
X152400000Y-83549280D01*
X152230006Y-83518698D01*
X152183199Y-83532890D01*
X151985134Y-83620121D01*
X151807893Y-83744316D01*
X151658286Y-83900703D01*
X151542064Y-84083272D01*
X151463692Y-84285006D01*
X151312530Y-84285006D01*
X151292813Y-84185886D01*
X151190444Y-83938746D01*
X151041828Y-83716325D01*
X150852675Y-83527172D01*
X150630254Y-83378556D01*
X150383114Y-83276187D01*
X150120751Y-83224000D01*
X149853249Y-83224000D01*
X149590886Y-83276187D01*
X149343746Y-83378556D01*
X149121325Y-83527172D01*
X148932172Y-83716325D01*
X148783556Y-83938746D01*
X148717000Y-84099426D01*
X148650444Y-83938746D01*
X148501828Y-83716325D01*
X148312675Y-83527172D01*
X148090254Y-83378556D01*
X147843114Y-83276187D01*
X147580751Y-83224000D01*
X147313249Y-83224000D01*
X147050886Y-83276187D01*
X146803746Y-83378556D01*
X146581325Y-83527172D01*
X146392172Y-83716325D01*
X146243556Y-83938746D01*
X146177000Y-84099426D01*
X146110444Y-83938746D01*
X145961828Y-83716325D01*
X145772675Y-83527172D01*
X145550254Y-83378556D01*
X145303114Y-83276187D01*
X145040751Y-83224000D01*
X144773249Y-83224000D01*
X144510886Y-83276187D01*
X144263746Y-83378556D01*
X144041325Y-83527172D01*
X143852172Y-83716325D01*
X143703556Y-83938746D01*
X143637000Y-84099426D01*
X143570444Y-83938746D01*
X143421828Y-83716325D01*
X143232675Y-83527172D01*
X143010254Y-83378556D01*
X142763114Y-83276187D01*
X142500751Y-83224000D01*
X142233249Y-83224000D01*
X141970886Y-83276187D01*
X141723746Y-83378556D01*
X141501325Y-83527172D01*
X141312172Y-83716325D01*
X141163556Y-83938746D01*
X141097000Y-84099426D01*
X141030444Y-83938746D01*
X140881828Y-83716325D01*
X140692675Y-83527172D01*
X140470254Y-83378556D01*
X140223114Y-83276187D01*
X139960751Y-83224000D01*
X139693249Y-83224000D01*
X139430886Y-83276187D01*
X139183746Y-83378556D01*
X138961325Y-83527172D01*
X138772172Y-83716325D01*
X138623556Y-83938746D01*
X138557000Y-84099426D01*
X138490444Y-83938746D01*
X138341828Y-83716325D01*
X138152675Y-83527172D01*
X137930254Y-83378556D01*
X137683114Y-83276187D01*
X137420751Y-83224000D01*
X137153249Y-83224000D01*
X136890886Y-83276187D01*
X136643746Y-83378556D01*
X136421325Y-83527172D01*
X136232172Y-83716325D01*
X136083556Y-83938746D01*
X136017000Y-84099426D01*
X135950444Y-83938746D01*
X135801828Y-83716325D01*
X135612675Y-83527172D01*
X135390254Y-83378556D01*
X135143114Y-83276187D01*
X134880751Y-83224000D01*
X134613249Y-83224000D01*
X134350886Y-83276187D01*
X134103746Y-83378556D01*
X133881325Y-83527172D01*
X133692172Y-83716325D01*
X133543556Y-83938746D01*
X133477000Y-84099426D01*
X133410444Y-83938746D01*
X133261828Y-83716325D01*
X133072675Y-83527172D01*
X132850254Y-83378556D01*
X132603114Y-83276187D01*
X132340751Y-83224000D01*
X132073249Y-83224000D01*
X131810886Y-83276187D01*
X131563746Y-83378556D01*
X131341325Y-83527172D01*
X131152172Y-83716325D01*
X131003556Y-83938746D01*
X130937000Y-84099426D01*
X130870444Y-83938746D01*
X130721828Y-83716325D01*
X130532675Y-83527172D01*
X130310254Y-83378556D01*
X130063114Y-83276187D01*
X129800751Y-83224000D01*
X129533249Y-83224000D01*
X129270886Y-83276187D01*
X129023746Y-83378556D01*
X128801325Y-83527172D01*
X128612172Y-83716325D01*
X128463556Y-83938746D01*
X128397000Y-84099426D01*
X128330444Y-83938746D01*
X128181828Y-83716325D01*
X127992675Y-83527172D01*
X127770254Y-83378556D01*
X127523114Y-83276187D01*
X127260751Y-83224000D01*
X126993249Y-83224000D01*
X126730886Y-83276187D01*
X126483746Y-83378556D01*
X126261325Y-83527172D01*
X126072172Y-83716325D01*
X125923556Y-83938746D01*
X125857000Y-84099426D01*
X125790444Y-83938746D01*
X125641828Y-83716325D01*
X125452675Y-83527172D01*
X125230254Y-83378556D01*
X124983114Y-83276187D01*
X124720751Y-83224000D01*
X124453249Y-83224000D01*
X124190886Y-83276187D01*
X123943746Y-83378556D01*
X123721325Y-83527172D01*
X123532172Y-83716325D01*
X123383556Y-83938746D01*
X123281187Y-84185886D01*
X123229000Y-84448249D01*
X117602000Y-84448249D01*
X117602000Y-82507391D01*
X118332214Y-82507391D01*
X118714078Y-82890634D01*
X119313261Y-83212962D01*
X119963812Y-83412203D01*
X120640734Y-83480699D01*
X121318012Y-83415819D01*
X121969618Y-83220054D01*
X122570513Y-82900929D01*
X122585922Y-82890634D01*
X122967786Y-82507391D01*
X120650000Y-80189605D01*
X118332214Y-82507391D01*
X117602000Y-82507391D01*
X117602000Y-81634757D01*
X117759071Y-81930513D01*
X117769366Y-81945922D01*
X118152609Y-82327786D01*
X120470395Y-80010000D01*
X120829605Y-80010000D01*
X123147391Y-82327786D01*
X123530634Y-81945922D01*
X123643291Y-81736500D01*
X163993543Y-81736500D01*
X163993543Y-83236500D01*
X164008155Y-83384858D01*
X164051429Y-83527514D01*
X164121703Y-83658987D01*
X164216276Y-83774224D01*
X164331513Y-83868797D01*
X164462986Y-83939071D01*
X164528501Y-83958945D01*
X164528500Y-87250215D01*
X164480894Y-87365146D01*
X164446000Y-87540570D01*
X164446000Y-87719430D01*
X164480894Y-87894854D01*
X164549341Y-88060099D01*
X164648711Y-88208816D01*
X164775184Y-88335289D01*
X164923901Y-88434659D01*
X165089146Y-88503106D01*
X165264570Y-88538000D01*
X165443430Y-88538000D01*
X165618854Y-88503106D01*
X165784099Y-88434659D01*
X165932816Y-88335289D01*
X166059289Y-88208816D01*
X166158659Y-88060099D01*
X166227106Y-87894854D01*
X166262000Y-87719430D01*
X166262000Y-87540570D01*
X166227106Y-87365146D01*
X166179500Y-87250215D01*
X166179500Y-83958944D01*
X166245014Y-83939071D01*
X166376487Y-83868797D01*
X166491724Y-83774224D01*
X166586297Y-83658987D01*
X166656571Y-83527514D01*
X166699845Y-83384858D01*
X166714457Y-83236500D01*
X166714457Y-82786693D01*
X166758689Y-82786693D01*
X166809036Y-82997492D01*
X166899541Y-83194418D01*
X167026725Y-83369903D01*
X167185701Y-83517204D01*
X167370359Y-83630660D01*
X167557006Y-83699802D01*
X167727000Y-83669220D01*
X167727000Y-82613500D01*
X167981000Y-82613500D01*
X167981000Y-83669220D01*
X168150994Y-83699802D01*
X168337641Y-83630660D01*
X168522299Y-83517204D01*
X168681275Y-83369903D01*
X168808459Y-83194418D01*
X168898964Y-82997492D01*
X168949311Y-82786693D01*
X168895821Y-82613500D01*
X167981000Y-82613500D01*
X167727000Y-82613500D01*
X166812179Y-82613500D01*
X166758689Y-82786693D01*
X166714457Y-82786693D01*
X166714457Y-82186307D01*
X166758689Y-82186307D01*
X166812179Y-82359500D01*
X167727000Y-82359500D01*
X167727000Y-81303780D01*
X167981000Y-81303780D01*
X167981000Y-82359500D01*
X168895821Y-82359500D01*
X168949311Y-82186307D01*
X168898964Y-81975508D01*
X168808459Y-81778582D01*
X168777960Y-81736500D01*
X173518543Y-81736500D01*
X173518543Y-83236500D01*
X173533155Y-83384858D01*
X173576429Y-83527514D01*
X173646703Y-83658987D01*
X173741276Y-83774224D01*
X173856513Y-83868797D01*
X173987986Y-83939071D01*
X174130642Y-83982345D01*
X174279000Y-83996957D01*
X175479000Y-83996957D01*
X175627358Y-83982345D01*
X175770014Y-83939071D01*
X175901487Y-83868797D01*
X176016724Y-83774224D01*
X176111297Y-83658987D01*
X176181571Y-83527514D01*
X176224845Y-83384858D01*
X176239457Y-83236500D01*
X176239457Y-82786693D01*
X176283689Y-82786693D01*
X176334036Y-82997492D01*
X176424541Y-83194418D01*
X176551725Y-83369903D01*
X176710701Y-83517204D01*
X176895359Y-83630660D01*
X177082006Y-83699802D01*
X177252000Y-83669220D01*
X177252000Y-82613500D01*
X177506000Y-82613500D01*
X177506000Y-83669220D01*
X177675994Y-83699802D01*
X177862641Y-83630660D01*
X178047299Y-83517204D01*
X178206275Y-83369903D01*
X178333459Y-83194418D01*
X178423964Y-82997492D01*
X178474311Y-82786693D01*
X178420821Y-82613500D01*
X177506000Y-82613500D01*
X177252000Y-82613500D01*
X176337179Y-82613500D01*
X176283689Y-82786693D01*
X176239457Y-82786693D01*
X176239457Y-82507391D01*
X181832214Y-82507391D01*
X182214078Y-82890634D01*
X182813261Y-83212962D01*
X183463812Y-83412203D01*
X184140734Y-83480699D01*
X184818012Y-83415819D01*
X185469618Y-83220054D01*
X186070513Y-82900929D01*
X186085922Y-82890634D01*
X186467786Y-82507391D01*
X184150000Y-80189605D01*
X181832214Y-82507391D01*
X176239457Y-82507391D01*
X176239457Y-82186307D01*
X176283689Y-82186307D01*
X176337179Y-82359500D01*
X177252000Y-82359500D01*
X177252000Y-81303780D01*
X177506000Y-81303780D01*
X177506000Y-82359500D01*
X178420821Y-82359500D01*
X178474311Y-82186307D01*
X178423964Y-81975508D01*
X178333459Y-81778582D01*
X178206275Y-81603097D01*
X178047299Y-81455796D01*
X177862641Y-81342340D01*
X177675994Y-81273198D01*
X177506000Y-81303780D01*
X177252000Y-81303780D01*
X177082006Y-81273198D01*
X176895359Y-81342340D01*
X176710701Y-81455796D01*
X176551725Y-81603097D01*
X176424541Y-81778582D01*
X176334036Y-81975508D01*
X176283689Y-82186307D01*
X176239457Y-82186307D01*
X176239457Y-81736500D01*
X176224845Y-81588142D01*
X176181571Y-81445486D01*
X176111297Y-81314013D01*
X176016724Y-81198776D01*
X175901487Y-81104203D01*
X175770014Y-81033929D01*
X175627358Y-80990655D01*
X175479000Y-80976043D01*
X174279000Y-80976043D01*
X174130642Y-80990655D01*
X173987986Y-81033929D01*
X173856513Y-81104203D01*
X173741276Y-81198776D01*
X173646703Y-81314013D01*
X173576429Y-81445486D01*
X173533155Y-81588142D01*
X173518543Y-81736500D01*
X168777960Y-81736500D01*
X168681275Y-81603097D01*
X168522299Y-81455796D01*
X168337641Y-81342340D01*
X168150994Y-81273198D01*
X167981000Y-81303780D01*
X167727000Y-81303780D01*
X167557006Y-81273198D01*
X167370359Y-81342340D01*
X167185701Y-81455796D01*
X167026725Y-81603097D01*
X166899541Y-81778582D01*
X166809036Y-81975508D01*
X166758689Y-82186307D01*
X166714457Y-82186307D01*
X166714457Y-81736500D01*
X166699845Y-81588142D01*
X166656571Y-81445486D01*
X166586297Y-81314013D01*
X166491724Y-81198776D01*
X166376487Y-81104203D01*
X166245014Y-81033929D01*
X166102358Y-80990655D01*
X165954000Y-80976043D01*
X164754000Y-80976043D01*
X164605642Y-80990655D01*
X164462986Y-81033929D01*
X164331513Y-81104203D01*
X164216276Y-81198776D01*
X164121703Y-81314013D01*
X164051429Y-81445486D01*
X164008155Y-81588142D01*
X163993543Y-81736500D01*
X123643291Y-81736500D01*
X123852962Y-81346739D01*
X124052203Y-80696188D01*
X124120699Y-80019266D01*
X124118924Y-80000734D01*
X180679301Y-80000734D01*
X180744181Y-80678012D01*
X180939946Y-81329618D01*
X181259071Y-81930513D01*
X181269366Y-81945922D01*
X181652609Y-82327786D01*
X183970395Y-80010000D01*
X181652609Y-77692214D01*
X181269366Y-78074078D01*
X180947038Y-78673261D01*
X180747797Y-79323812D01*
X180679301Y-80000734D01*
X124118924Y-80000734D01*
X124055819Y-79341988D01*
X123860054Y-78690382D01*
X123540929Y-78089487D01*
X123530634Y-78074078D01*
X123147391Y-77692214D01*
X120829605Y-80010000D01*
X120470395Y-80010000D01*
X120456253Y-79995858D01*
X120635858Y-79816253D01*
X120650000Y-79830395D01*
X122967786Y-77512609D01*
X122585922Y-77129366D01*
X122274801Y-76962000D01*
X182525243Y-76962000D01*
X182229487Y-77119071D01*
G37*
X182229487Y-77119071D02*
X182214078Y-77129366D01*
X181832214Y-77512609D01*
X184150000Y-79830395D01*
X184164143Y-79816253D01*
X184343748Y-79995858D01*
X184329605Y-80010000D01*
X186647391Y-82327786D01*
X187030634Y-81945922D01*
X187198000Y-81634801D01*
X187198000Y-129185243D01*
X187040929Y-128889487D01*
X187030634Y-128874078D01*
X186647391Y-128492214D01*
X184329605Y-130810000D01*
X184343748Y-130824143D01*
X184164143Y-131003748D01*
X184150000Y-130989605D01*
X181832214Y-133307391D01*
X182214078Y-133690634D01*
X182525199Y-133858000D01*
X122274757Y-133858000D01*
X122570513Y-133700929D01*
X122585922Y-133690634D01*
X122967786Y-133307391D01*
X120650000Y-130989605D01*
X120635858Y-131003748D01*
X120456253Y-130824143D01*
X120470395Y-130810000D01*
X120829605Y-130810000D01*
X123147391Y-133127786D01*
X123530634Y-132745922D01*
X123852962Y-132146739D01*
X124052203Y-131496188D01*
X124120699Y-130819266D01*
X124055819Y-130141988D01*
X123860054Y-129490382D01*
X123567756Y-128940000D01*
X163485543Y-128940000D01*
X163485543Y-130140000D01*
X163500155Y-130288358D01*
X163543429Y-130431014D01*
X163613703Y-130562487D01*
X163708276Y-130677724D01*
X163823513Y-130772297D01*
X163954986Y-130842571D01*
X164097642Y-130885845D01*
X164246000Y-130900457D01*
X165446000Y-130900457D01*
X165594358Y-130885845D01*
X165737014Y-130842571D01*
X165868487Y-130772297D01*
X165983724Y-130677724D01*
X166078297Y-130562487D01*
X166148571Y-130431014D01*
X166168944Y-130363852D01*
X166741754Y-130363852D01*
X166840978Y-130506225D01*
X167039951Y-130593987D01*
X167252223Y-130641246D01*
X167469636Y-130646184D01*
X167683835Y-130608612D01*
X167886588Y-130529975D01*
X167931022Y-130506225D01*
X168030246Y-130363852D01*
X167386000Y-129719605D01*
X166741754Y-130363852D01*
X166168944Y-130363852D01*
X166191845Y-130288358D01*
X166206457Y-130140000D01*
X166206457Y-129623636D01*
X166279816Y-129623636D01*
X166317388Y-129837835D01*
X166396025Y-130040588D01*
X166419775Y-130085022D01*
X166562148Y-130184246D01*
X167206395Y-129540000D01*
X167565605Y-129540000D01*
X168209852Y-130184246D01*
X168352225Y-130085022D01*
X168439987Y-129886049D01*
X168487246Y-129673777D01*
X168492184Y-129456364D01*
X168454612Y-129242165D01*
X168375975Y-129039412D01*
X168352225Y-128994978D01*
X168209852Y-128895754D01*
X167565605Y-129540000D01*
X167206395Y-129540000D01*
X166562148Y-128895754D01*
X166419775Y-128994978D01*
X166332013Y-129193951D01*
X166284754Y-129406223D01*
X166279816Y-129623636D01*
X166206457Y-129623636D01*
X166206457Y-128940000D01*
X166191845Y-128791642D01*
X166168945Y-128716148D01*
X166741754Y-128716148D01*
X167386000Y-129360395D01*
X168030246Y-128716148D01*
X167931022Y-128573775D01*
X167732049Y-128486013D01*
X167519777Y-128438754D01*
X167302364Y-128433816D01*
X167088165Y-128471388D01*
X166885412Y-128550025D01*
X166840978Y-128573775D01*
X166741754Y-128716148D01*
X166168945Y-128716148D01*
X166148571Y-128648986D01*
X166078297Y-128517513D01*
X165983724Y-128402276D01*
X165868487Y-128307703D01*
X165737014Y-128237429D01*
X165594358Y-128194155D01*
X165514873Y-128186326D01*
X165711675Y-128054828D01*
X165900828Y-127865675D01*
X166049444Y-127643254D01*
X166116000Y-127482574D01*
X166182556Y-127643254D01*
X166331172Y-127865675D01*
X166520325Y-128054828D01*
X166742746Y-128203444D01*
X166989886Y-128305813D01*
X167252249Y-128358000D01*
X167519751Y-128358000D01*
X167782114Y-128305813D01*
X168029254Y-128203444D01*
X168251675Y-128054828D01*
X168440828Y-127865675D01*
X168589444Y-127643254D01*
X168656000Y-127482574D01*
X168722556Y-127643254D01*
X168871172Y-127865675D01*
X169060325Y-128054828D01*
X169282746Y-128203444D01*
X169443426Y-128270000D01*
X169282746Y-128336556D01*
X169060325Y-128485172D01*
X168871172Y-128674325D01*
X168722556Y-128896746D01*
X168620187Y-129143886D01*
X168568000Y-129406249D01*
X168568000Y-129673751D01*
X168620187Y-129936114D01*
X168722556Y-130183254D01*
X168871172Y-130405675D01*
X169060325Y-130594828D01*
X169282746Y-130743444D01*
X169529886Y-130845813D01*
X169792249Y-130898000D01*
X170059751Y-130898000D01*
X170322114Y-130845813D01*
X170569254Y-130743444D01*
X170791675Y-130594828D01*
X170980828Y-130405675D01*
X171129444Y-130183254D01*
X171196000Y-130022574D01*
X171262556Y-130183254D01*
X171411172Y-130405675D01*
X171600325Y-130594828D01*
X171822746Y-130743444D01*
X172069886Y-130845813D01*
X172332249Y-130898000D01*
X172599751Y-130898000D01*
X172862114Y-130845813D01*
X173109254Y-130743444D01*
X173331675Y-130594828D01*
X173520828Y-130405675D01*
X173669444Y-130183254D01*
X173736000Y-130022574D01*
X173802556Y-130183254D01*
X173951172Y-130405675D01*
X174140325Y-130594828D01*
X174362746Y-130743444D01*
X174609886Y-130845813D01*
X174872249Y-130898000D01*
X175139751Y-130898000D01*
X175402114Y-130845813D01*
X175510944Y-130800734D01*
X180679301Y-130800734D01*
X180744181Y-131478012D01*
X180939946Y-132129618D01*
X181259071Y-132730513D01*
X181269366Y-132745922D01*
X181652609Y-133127786D01*
X183970395Y-130810000D01*
X181652609Y-128492214D01*
X181269366Y-128874078D01*
X180947038Y-129473261D01*
X180747797Y-130123812D01*
X180679301Y-130800734D01*
X175510944Y-130800734D01*
X175649254Y-130743444D01*
X175871675Y-130594828D01*
X176060828Y-130405675D01*
X176209444Y-130183254D01*
X176311813Y-129936114D01*
X176364000Y-129673751D01*
X176364000Y-129406249D01*
X176311813Y-129143886D01*
X176209444Y-128896746D01*
X176060828Y-128674325D01*
X175871675Y-128485172D01*
X175649254Y-128336556D01*
X175591441Y-128312609D01*
X181832214Y-128312609D01*
X184150000Y-130630395D01*
X186467786Y-128312609D01*
X186085922Y-127929366D01*
X185486739Y-127607038D01*
X184836188Y-127407797D01*
X184159266Y-127339301D01*
X183481988Y-127404181D01*
X182830382Y-127599946D01*
X182229487Y-127919071D01*
X182214078Y-127929366D01*
X181832214Y-128312609D01*
X175591441Y-128312609D01*
X175488574Y-128270000D01*
X175649254Y-128203444D01*
X175871675Y-128054828D01*
X176060828Y-127865675D01*
X176209444Y-127643254D01*
X176311813Y-127396114D01*
X176364000Y-127133751D01*
X176364000Y-126866249D01*
X176311813Y-126603886D01*
X176209444Y-126356746D01*
X176060828Y-126134325D01*
X175871675Y-125945172D01*
X175649254Y-125796556D01*
X175402114Y-125694187D01*
X175139751Y-125642000D01*
X174872249Y-125642000D01*
X174609886Y-125694187D01*
X174362746Y-125796556D01*
X174140325Y-125945172D01*
X173951172Y-126134325D01*
X173802556Y-126356746D01*
X173700187Y-126603886D01*
X173648000Y-126866249D01*
X173648000Y-127133751D01*
X173700187Y-127396114D01*
X173802556Y-127643254D01*
X173951172Y-127865675D01*
X174140325Y-128054828D01*
X174362746Y-128203444D01*
X174523426Y-128270000D01*
X174362746Y-128336556D01*
X174140325Y-128485172D01*
X173951172Y-128674325D01*
X173802556Y-128896746D01*
X173736000Y-129057426D01*
X173669444Y-128896746D01*
X173520828Y-128674325D01*
X173331675Y-128485172D01*
X173109254Y-128336556D01*
X172862114Y-128234187D01*
X172599751Y-128182000D01*
X172332249Y-128182000D01*
X172069886Y-128234187D01*
X171822746Y-128336556D01*
X171600325Y-128485172D01*
X171411172Y-128674325D01*
X171262556Y-128896746D01*
X171196000Y-129057426D01*
X171129444Y-128896746D01*
X170980828Y-128674325D01*
X170791675Y-128485172D01*
X170569254Y-128336556D01*
X170408574Y-128270000D01*
X170569254Y-128203444D01*
X170791675Y-128054828D01*
X170980828Y-127865675D01*
X171008773Y-127823852D01*
X171821754Y-127823852D01*
X171920978Y-127966225D01*
X172119951Y-128053987D01*
X172332223Y-128101246D01*
X172549636Y-128106184D01*
X172763835Y-128068612D01*
X172966588Y-127989975D01*
X173011022Y-127966225D01*
X173110246Y-127823852D01*
X172466000Y-127179605D01*
X171821754Y-127823852D01*
X171008773Y-127823852D01*
X171129444Y-127643254D01*
X171231813Y-127396114D01*
X171284000Y-127133751D01*
X171284000Y-127083636D01*
X171359816Y-127083636D01*
X171397388Y-127297835D01*
X171476025Y-127500588D01*
X171499775Y-127545022D01*
X171642148Y-127644246D01*
X172286395Y-127000000D01*
X172645605Y-127000000D01*
X173289852Y-127644246D01*
X173432225Y-127545022D01*
X173519987Y-127346049D01*
X173567246Y-127133777D01*
X173572184Y-126916364D01*
X173534612Y-126702165D01*
X173455975Y-126499412D01*
X173432225Y-126454978D01*
X173289852Y-126355754D01*
X172645605Y-127000000D01*
X172286395Y-127000000D01*
X171642148Y-126355754D01*
X171499775Y-126454978D01*
X171412013Y-126653951D01*
X171364754Y-126866223D01*
X171359816Y-127083636D01*
X171284000Y-127083636D01*
X171284000Y-126866249D01*
X171231813Y-126603886D01*
X171129444Y-126356746D01*
X171008774Y-126176148D01*
X171821754Y-126176148D01*
X172466000Y-126820395D01*
X173110246Y-126176148D01*
X173011022Y-126033775D01*
X172812049Y-125946013D01*
X172599777Y-125898754D01*
X172382364Y-125893816D01*
X172168165Y-125931388D01*
X171965412Y-126010025D01*
X171920978Y-126033775D01*
X171821754Y-126176148D01*
X171008774Y-126176148D01*
X170980828Y-126134325D01*
X170791675Y-125945172D01*
X170569254Y-125796556D01*
X170322114Y-125694187D01*
X170059751Y-125642000D01*
X169792249Y-125642000D01*
X169529886Y-125694187D01*
X169282746Y-125796556D01*
X169060325Y-125945172D01*
X168871172Y-126134325D01*
X168722556Y-126356746D01*
X168656000Y-126517426D01*
X168589444Y-126356746D01*
X168440828Y-126134325D01*
X168251675Y-125945172D01*
X168029254Y-125796556D01*
X167782114Y-125694187D01*
X167519751Y-125642000D01*
X167252249Y-125642000D01*
X166989886Y-125694187D01*
X166742746Y-125796556D01*
X166520325Y-125945172D01*
X166331172Y-126134325D01*
X166182556Y-126356746D01*
X166116000Y-126517426D01*
X166049444Y-126356746D01*
X165900828Y-126134325D01*
X165711675Y-125945172D01*
X165489254Y-125796556D01*
X165242114Y-125694187D01*
X164979751Y-125642000D01*
X164712249Y-125642000D01*
X164449886Y-125694187D01*
X164202746Y-125796556D01*
X163980325Y-125945172D01*
X163791172Y-126134325D01*
X163642556Y-126356746D01*
X163540187Y-126603886D01*
X163488000Y-126866249D01*
X163488000Y-127133751D01*
X163540187Y-127396114D01*
X163642556Y-127643254D01*
X163791172Y-127865675D01*
X163980325Y-128054828D01*
X164177127Y-128186326D01*
X164097642Y-128194155D01*
X163954986Y-128237429D01*
X163823513Y-128307703D01*
X163708276Y-128402276D01*
X163613703Y-128517513D01*
X163543429Y-128648986D01*
X163500155Y-128791642D01*
X163485543Y-128940000D01*
X123567756Y-128940000D01*
X123540929Y-128889487D01*
X123530634Y-128874078D01*
X123147391Y-128492214D01*
X120829605Y-130810000D01*
X120470395Y-130810000D01*
X118152609Y-128492214D01*
X117769366Y-128874078D01*
X117602000Y-129185199D01*
X117602000Y-128312609D01*
X118332214Y-128312609D01*
X120650000Y-130630395D01*
X122967786Y-128312609D01*
X122585922Y-127929366D01*
X121986739Y-127607038D01*
X121336188Y-127407797D01*
X120659266Y-127339301D01*
X119981988Y-127404181D01*
X119330382Y-127599946D01*
X118729487Y-127919071D01*
X118714078Y-127929366D01*
X118332214Y-128312609D01*
X117602000Y-128312609D01*
X117602000Y-122216994D01*
X131016692Y-122216994D01*
X131095064Y-122418728D01*
X131211286Y-122601297D01*
X131360893Y-122757684D01*
X131538134Y-122881879D01*
X131736199Y-122969110D01*
X131783006Y-122983302D01*
X131953000Y-122952720D01*
X131953000Y-122047000D01*
X132207000Y-122047000D01*
X132207000Y-122952720D01*
X132376994Y-122983302D01*
X132423801Y-122969110D01*
X132621866Y-122881879D01*
X132799107Y-122757684D01*
X132948714Y-122601297D01*
X133064936Y-122418728D01*
X133143308Y-122216994D01*
X133113177Y-122047000D01*
X132207000Y-122047000D01*
X131953000Y-122047000D01*
X131046823Y-122047000D01*
X131016692Y-122216994D01*
X117602000Y-122216994D01*
X117602000Y-121623006D01*
X131016692Y-121623006D01*
X131046823Y-121793000D01*
X131953000Y-121793000D01*
X131953000Y-120887280D01*
X132207000Y-120887280D01*
X132207000Y-121793000D01*
X133113177Y-121793000D01*
X133114373Y-121786249D01*
X133262000Y-121786249D01*
X133262000Y-122053751D01*
X133314187Y-122316114D01*
X133416556Y-122563254D01*
X133565172Y-122785675D01*
X133754325Y-122974828D01*
X133976746Y-123123444D01*
X134223886Y-123225813D01*
X134486249Y-123278000D01*
X134753751Y-123278000D01*
X135016114Y-123225813D01*
X135263254Y-123123444D01*
X135485675Y-122974828D01*
X135674828Y-122785675D01*
X135823444Y-122563254D01*
X135890000Y-122402574D01*
X135956556Y-122563254D01*
X136105172Y-122785675D01*
X136294325Y-122974828D01*
X136516746Y-123123444D01*
X136763886Y-123225813D01*
X137026249Y-123278000D01*
X137293751Y-123278000D01*
X137556114Y-123225813D01*
X137803254Y-123123444D01*
X138025675Y-122974828D01*
X138214828Y-122785675D01*
X138339543Y-122599025D01*
X138339543Y-122770000D01*
X138349351Y-122869585D01*
X138378399Y-122965343D01*
X138425571Y-123053595D01*
X138489052Y-123130948D01*
X138566405Y-123194429D01*
X138654657Y-123241601D01*
X138750415Y-123270649D01*
X138850000Y-123280457D01*
X140550000Y-123280457D01*
X140649585Y-123270649D01*
X140745343Y-123241601D01*
X140833595Y-123194429D01*
X140910948Y-123130948D01*
X140974429Y-123053595D01*
X141021601Y-122965343D01*
X141050649Y-122869585D01*
X141060457Y-122770000D01*
X141060457Y-122216994D01*
X144986692Y-122216994D01*
X145065064Y-122418728D01*
X145181286Y-122601297D01*
X145330893Y-122757684D01*
X145508134Y-122881879D01*
X145706199Y-122969110D01*
X145753006Y-122983302D01*
X145923000Y-122952720D01*
X145923000Y-122047000D01*
X146177000Y-122047000D01*
X146177000Y-122952720D01*
X146346994Y-122983302D01*
X146393801Y-122969110D01*
X146591866Y-122881879D01*
X146769107Y-122757684D01*
X146918714Y-122601297D01*
X147034936Y-122418728D01*
X147113308Y-122216994D01*
X147083177Y-122047000D01*
X146177000Y-122047000D01*
X145923000Y-122047000D01*
X145016823Y-122047000D01*
X144986692Y-122216994D01*
X141060457Y-122216994D01*
X141060457Y-121623006D01*
X144986692Y-121623006D01*
X145016823Y-121793000D01*
X145923000Y-121793000D01*
X145923000Y-120887280D01*
X146177000Y-120887280D01*
X146177000Y-121793000D01*
X147083177Y-121793000D01*
X147084373Y-121786249D01*
X147232000Y-121786249D01*
X147232000Y-122053751D01*
X147284187Y-122316114D01*
X147386556Y-122563254D01*
X147535172Y-122785675D01*
X147724325Y-122974828D01*
X147946746Y-123123444D01*
X148193886Y-123225813D01*
X148456249Y-123278000D01*
X148723751Y-123278000D01*
X148986114Y-123225813D01*
X149233254Y-123123444D01*
X149455675Y-122974828D01*
X149644828Y-122785675D01*
X149793444Y-122563254D01*
X149860000Y-122402574D01*
X149926556Y-122563254D01*
X150075172Y-122785675D01*
X150264325Y-122974828D01*
X150486746Y-123123444D01*
X150733886Y-123225813D01*
X150996249Y-123278000D01*
X151263751Y-123278000D01*
X151526114Y-123225813D01*
X151773254Y-123123444D01*
X151995675Y-122974828D01*
X152184828Y-122785675D01*
X152309543Y-122599025D01*
X152309543Y-122770000D01*
X152319351Y-122869585D01*
X152348399Y-122965343D01*
X152395571Y-123053595D01*
X152459052Y-123130948D01*
X152536405Y-123194429D01*
X152624657Y-123241601D01*
X152720415Y-123270649D01*
X152820000Y-123280457D01*
X154520000Y-123280457D01*
X154619585Y-123270649D01*
X154715343Y-123241601D01*
X154803595Y-123194429D01*
X154880948Y-123130948D01*
X154944429Y-123053595D01*
X154991601Y-122965343D01*
X155020649Y-122869585D01*
X155030457Y-122770000D01*
X155030457Y-122644000D01*
X181696543Y-122644000D01*
X181696543Y-124244000D01*
X181706351Y-124343585D01*
X181735399Y-124439343D01*
X181782571Y-124527595D01*
X181846052Y-124604948D01*
X181923405Y-124668429D01*
X182011657Y-124715601D01*
X182107415Y-124744649D01*
X182207000Y-124754457D01*
X183807000Y-124754457D01*
X183906585Y-124744649D01*
X184002343Y-124715601D01*
X184090595Y-124668429D01*
X184167948Y-124604948D01*
X184231429Y-124527595D01*
X184278601Y-124439343D01*
X184307649Y-124343585D01*
X184317457Y-124244000D01*
X184317457Y-124232047D01*
X184898558Y-124232047D01*
X184991714Y-124369297D01*
X185182131Y-124452044D01*
X185385033Y-124496054D01*
X185592623Y-124499633D01*
X185796922Y-124462646D01*
X185990079Y-124386512D01*
X186022286Y-124369297D01*
X186115442Y-124232047D01*
X185507000Y-123623605D01*
X184898558Y-124232047D01*
X184317457Y-124232047D01*
X184317457Y-123529623D01*
X184451367Y-123529623D01*
X184488354Y-123733922D01*
X184564488Y-123927079D01*
X184581703Y-123959286D01*
X184718953Y-124052442D01*
X185327395Y-123444000D01*
X185686605Y-123444000D01*
X186295047Y-124052442D01*
X186432297Y-123959286D01*
X186515044Y-123768869D01*
X186559054Y-123565967D01*
X186562633Y-123358377D01*
X186525646Y-123154078D01*
X186449512Y-122960921D01*
X186432297Y-122928714D01*
X186295047Y-122835558D01*
X185686605Y-123444000D01*
X185327395Y-123444000D01*
X184718953Y-122835558D01*
X184581703Y-122928714D01*
X184498956Y-123119131D01*
X184454946Y-123322033D01*
X184451367Y-123529623D01*
X184317457Y-123529623D01*
X184317457Y-122655953D01*
X184898558Y-122655953D01*
X185507000Y-123264395D01*
X186115442Y-122655953D01*
X186022286Y-122518703D01*
X185831869Y-122435956D01*
X185628967Y-122391946D01*
X185421377Y-122388367D01*
X185217078Y-122425354D01*
X185023921Y-122501488D01*
X184991714Y-122518703D01*
X184898558Y-122655953D01*
X184317457Y-122655953D01*
X184317457Y-122644000D01*
X184307649Y-122544415D01*
X184278601Y-122448657D01*
X184231429Y-122360405D01*
X184167948Y-122283052D01*
X184090595Y-122219571D01*
X184002343Y-122172399D01*
X183906585Y-122143351D01*
X183807000Y-122133543D01*
X182207000Y-122133543D01*
X182107415Y-122143351D01*
X182011657Y-122172399D01*
X181923405Y-122219571D01*
X181846052Y-122283052D01*
X181782571Y-122360405D01*
X181735399Y-122448657D01*
X181706351Y-122544415D01*
X181696543Y-122644000D01*
X155030457Y-122644000D01*
X155030457Y-121070000D01*
X155020649Y-120970415D01*
X154991601Y-120874657D01*
X154944429Y-120786405D01*
X154880948Y-120709052D01*
X154803595Y-120645571D01*
X154715343Y-120598399D01*
X154683648Y-120588784D01*
X156934362Y-118338070D01*
X172701000Y-118338070D01*
X172701000Y-118516930D01*
X172735894Y-118692354D01*
X172804341Y-118857599D01*
X172903711Y-119006316D01*
X173030184Y-119132789D01*
X173178901Y-119232159D01*
X173344146Y-119300606D01*
X173519570Y-119335500D01*
X173698430Y-119335500D01*
X173873854Y-119300606D01*
X174039099Y-119232159D01*
X174187816Y-119132789D01*
X174194605Y-119126000D01*
X179924702Y-119126000D01*
X179959000Y-119129378D01*
X179993298Y-119126000D01*
X179993309Y-119126000D01*
X180095930Y-119115893D01*
X180227597Y-119075952D01*
X180348943Y-119011091D01*
X180455303Y-118923803D01*
X180477175Y-118897152D01*
X183486828Y-115887500D01*
X183491470Y-115887500D01*
X183603172Y-116054675D01*
X183792325Y-116243828D01*
X183978975Y-116368543D01*
X183808000Y-116368543D01*
X183708415Y-116378351D01*
X183612657Y-116407399D01*
X183524405Y-116454571D01*
X183447052Y-116518052D01*
X183383571Y-116595405D01*
X183336399Y-116683657D01*
X183307351Y-116779415D01*
X183297543Y-116879000D01*
X183297543Y-118579000D01*
X183307351Y-118678585D01*
X183336399Y-118774343D01*
X183383571Y-118862595D01*
X183447052Y-118939948D01*
X183524405Y-119003429D01*
X183612657Y-119050601D01*
X183708415Y-119079649D01*
X183808000Y-119089457D01*
X185508000Y-119089457D01*
X185607585Y-119079649D01*
X185703343Y-119050601D01*
X185791595Y-119003429D01*
X185868948Y-118939948D01*
X185932429Y-118862595D01*
X185979601Y-118774343D01*
X186008649Y-118678585D01*
X186018457Y-118579000D01*
X186018457Y-116879000D01*
X186008649Y-116779415D01*
X185979601Y-116683657D01*
X185932429Y-116595405D01*
X185868948Y-116518052D01*
X185791595Y-116454571D01*
X185703343Y-116407399D01*
X185607585Y-116378351D01*
X185508000Y-116368543D01*
X185337025Y-116368543D01*
X185523675Y-116243828D01*
X185712828Y-116054675D01*
X185861444Y-115832254D01*
X185963813Y-115585114D01*
X186016000Y-115322751D01*
X186016000Y-115055249D01*
X185963813Y-114792886D01*
X185861444Y-114545746D01*
X185712828Y-114323325D01*
X185523675Y-114134172D01*
X185301254Y-113985556D01*
X185140574Y-113919000D01*
X185301254Y-113852444D01*
X185523675Y-113703828D01*
X185712828Y-113514675D01*
X185861444Y-113292254D01*
X185963813Y-113045114D01*
X186016000Y-112782751D01*
X186016000Y-112515249D01*
X185963813Y-112252886D01*
X185861444Y-112005746D01*
X185712828Y-111783325D01*
X185523675Y-111594172D01*
X185301254Y-111445556D01*
X185054114Y-111343187D01*
X184791751Y-111291000D01*
X184524249Y-111291000D01*
X184261886Y-111343187D01*
X184014746Y-111445556D01*
X183792325Y-111594172D01*
X183603172Y-111783325D01*
X183454556Y-112005746D01*
X183352187Y-112252886D01*
X183300000Y-112515249D01*
X183300000Y-112782751D01*
X183352187Y-113045114D01*
X183454556Y-113292254D01*
X183603172Y-113514675D01*
X183792325Y-113703828D01*
X184014746Y-113852444D01*
X184175426Y-113919000D01*
X184014746Y-113985556D01*
X183792325Y-114134172D01*
X183603172Y-114323325D01*
X183491470Y-114490500D01*
X183231798Y-114490500D01*
X183197500Y-114487122D01*
X183163202Y-114490500D01*
X183163191Y-114490500D01*
X183060570Y-114500607D01*
X182928903Y-114540548D01*
X182807557Y-114605409D01*
X182727846Y-114670826D01*
X182727843Y-114670829D01*
X182701197Y-114692697D01*
X182679329Y-114719343D01*
X179669673Y-117729000D01*
X174194605Y-117729000D01*
X174187816Y-117722211D01*
X174039099Y-117622841D01*
X173873854Y-117554394D01*
X173698430Y-117519500D01*
X173519570Y-117519500D01*
X173344146Y-117554394D01*
X173178901Y-117622841D01*
X173030184Y-117722211D01*
X172903711Y-117848684D01*
X172804341Y-117997401D01*
X172735894Y-118162646D01*
X172701000Y-118338070D01*
X156934362Y-118338070D01*
X162686934Y-112585500D01*
X171705215Y-112585500D01*
X171820146Y-112633106D01*
X171995570Y-112668000D01*
X172174430Y-112668000D01*
X172349854Y-112633106D01*
X172515099Y-112564659D01*
X172663816Y-112465289D01*
X172790289Y-112338816D01*
X172889659Y-112190099D01*
X172958106Y-112024854D01*
X172993000Y-111849430D01*
X172993000Y-111670570D01*
X172958106Y-111495146D01*
X172889659Y-111329901D01*
X172790289Y-111181184D01*
X172663816Y-111054711D01*
X172515099Y-110955341D01*
X172349854Y-110886894D01*
X172174430Y-110852000D01*
X171995570Y-110852000D01*
X171820146Y-110886894D01*
X171705215Y-110934500D01*
X162385550Y-110934500D01*
X162345000Y-110930506D01*
X162304449Y-110934500D01*
X162304447Y-110934500D01*
X162183174Y-110946444D01*
X162027566Y-110993647D01*
X161884157Y-111070301D01*
X161789958Y-111147608D01*
X161789955Y-111147611D01*
X161758459Y-111173459D01*
X161732611Y-111204955D01*
X153114966Y-119822602D01*
X153083459Y-119848459D01*
X153014214Y-119932835D01*
X152980301Y-119974158D01*
X152951281Y-120028451D01*
X152903647Y-120117567D01*
X152856444Y-120273175D01*
X152844500Y-120394447D01*
X152840506Y-120435000D01*
X152844500Y-120475551D01*
X152844500Y-120559543D01*
X152820000Y-120559543D01*
X152720415Y-120569351D01*
X152624657Y-120598399D01*
X152536405Y-120645571D01*
X152459052Y-120709052D01*
X152395571Y-120786405D01*
X152348399Y-120874657D01*
X152319351Y-120970415D01*
X152309543Y-121070000D01*
X152309543Y-121240975D01*
X152184828Y-121054325D01*
X151995675Y-120865172D01*
X151773254Y-120716556D01*
X151526114Y-120614187D01*
X151263751Y-120562000D01*
X150996249Y-120562000D01*
X150733886Y-120614187D01*
X150486746Y-120716556D01*
X150264325Y-120865172D01*
X150075172Y-121054325D01*
X149926556Y-121276746D01*
X149860000Y-121437426D01*
X149793444Y-121276746D01*
X149644828Y-121054325D01*
X149455675Y-120865172D01*
X149233254Y-120716556D01*
X148986114Y-120614187D01*
X148723751Y-120562000D01*
X148456249Y-120562000D01*
X148193886Y-120614187D01*
X147946746Y-120716556D01*
X147724325Y-120865172D01*
X147535172Y-121054325D01*
X147386556Y-121276746D01*
X147284187Y-121523886D01*
X147232000Y-121786249D01*
X147084373Y-121786249D01*
X147113308Y-121623006D01*
X147034936Y-121421272D01*
X146918714Y-121238703D01*
X146769107Y-121082316D01*
X146591866Y-120958121D01*
X146393801Y-120870890D01*
X146346994Y-120856698D01*
X146177000Y-120887280D01*
X145923000Y-120887280D01*
X145753006Y-120856698D01*
X145706199Y-120870890D01*
X145508134Y-120958121D01*
X145330893Y-121082316D01*
X145181286Y-121238703D01*
X145065064Y-121421272D01*
X144986692Y-121623006D01*
X141060457Y-121623006D01*
X141060457Y-121070000D01*
X141050649Y-120970415D01*
X141021601Y-120874657D01*
X140974429Y-120786405D01*
X140910948Y-120709052D01*
X140833595Y-120645571D01*
X140745343Y-120598399D01*
X140649585Y-120569351D01*
X140550000Y-120559543D01*
X138850000Y-120559543D01*
X138750415Y-120569351D01*
X138654657Y-120598399D01*
X138566405Y-120645571D01*
X138489052Y-120709052D01*
X138425571Y-120786405D01*
X138378399Y-120874657D01*
X138349351Y-120970415D01*
X138339543Y-121070000D01*
X138339543Y-121240975D01*
X138214828Y-121054325D01*
X138025675Y-120865172D01*
X137803254Y-120716556D01*
X137556114Y-120614187D01*
X137293751Y-120562000D01*
X137026249Y-120562000D01*
X136763886Y-120614187D01*
X136516746Y-120716556D01*
X136294325Y-120865172D01*
X136105172Y-121054325D01*
X135956556Y-121276746D01*
X135890000Y-121437426D01*
X135823444Y-121276746D01*
X135674828Y-121054325D01*
X135485675Y-120865172D01*
X135263254Y-120716556D01*
X135016114Y-120614187D01*
X134753751Y-120562000D01*
X134486249Y-120562000D01*
X134223886Y-120614187D01*
X133976746Y-120716556D01*
X133754325Y-120865172D01*
X133565172Y-121054325D01*
X133416556Y-121276746D01*
X133314187Y-121523886D01*
X133262000Y-121786249D01*
X133114373Y-121786249D01*
X133143308Y-121623006D01*
X133064936Y-121421272D01*
X132948714Y-121238703D01*
X132799107Y-121082316D01*
X132621866Y-120958121D01*
X132423801Y-120870890D01*
X132376994Y-120856698D01*
X132207000Y-120887280D01*
X131953000Y-120887280D01*
X131783006Y-120856698D01*
X131736199Y-120870890D01*
X131538134Y-120958121D01*
X131360893Y-121082316D01*
X131211286Y-121238703D01*
X131095064Y-121421272D01*
X131016692Y-121623006D01*
X117602000Y-121623006D01*
X117602000Y-115480570D01*
X131807000Y-115480570D01*
X131807000Y-115659430D01*
X131841894Y-115834854D01*
X131910341Y-116000099D01*
X132009711Y-116148816D01*
X132065895Y-116205000D01*
X132009711Y-116261184D01*
X131910341Y-116409901D01*
X131841894Y-116575146D01*
X131807000Y-116750570D01*
X131807000Y-116929430D01*
X131841894Y-117104854D01*
X131910341Y-117270099D01*
X132009711Y-117418816D01*
X132065895Y-117475000D01*
X132009711Y-117531184D01*
X131910341Y-117679901D01*
X131841894Y-117845146D01*
X131807000Y-118020570D01*
X131807000Y-118199430D01*
X131841894Y-118374854D01*
X131910341Y-118540099D01*
X132009711Y-118688816D01*
X132065895Y-118745000D01*
X132009711Y-118801184D01*
X131910341Y-118949901D01*
X131841894Y-119115146D01*
X131807000Y-119290570D01*
X131807000Y-119469430D01*
X131841894Y-119644854D01*
X131910341Y-119810099D01*
X132009711Y-119958816D01*
X132136184Y-120085289D01*
X132284901Y-120184659D01*
X132450146Y-120253106D01*
X132625570Y-120288000D01*
X132804430Y-120288000D01*
X132979854Y-120253106D01*
X133145099Y-120184659D01*
X133293816Y-120085289D01*
X133300605Y-120078500D01*
X149190702Y-120078500D01*
X149225000Y-120081878D01*
X149259298Y-120078500D01*
X149259309Y-120078500D01*
X149361930Y-120068393D01*
X149493597Y-120028452D01*
X149614943Y-119963591D01*
X149721303Y-119876303D01*
X149743175Y-119849652D01*
X150837667Y-118755162D01*
X150864302Y-118733303D01*
X150886162Y-118706667D01*
X150886174Y-118706655D01*
X150951591Y-118626944D01*
X151016451Y-118505599D01*
X151018167Y-118499943D01*
X151056393Y-118373930D01*
X151066500Y-118271309D01*
X151066500Y-118271299D01*
X151069878Y-118237001D01*
X151066500Y-118202703D01*
X151066500Y-116282605D01*
X151073289Y-116275816D01*
X151172659Y-116127099D01*
X151241106Y-115961854D01*
X151276000Y-115786430D01*
X151276000Y-115607570D01*
X151241106Y-115432146D01*
X151172659Y-115266901D01*
X151073289Y-115118184D01*
X150946816Y-114991711D01*
X150798099Y-114892341D01*
X150632854Y-114823894D01*
X150457430Y-114789000D01*
X150278570Y-114789000D01*
X150103146Y-114823894D01*
X149937901Y-114892341D01*
X149789184Y-114991711D01*
X149662711Y-115118184D01*
X149563341Y-115266901D01*
X149494894Y-115432146D01*
X149460000Y-115607570D01*
X149460000Y-115786430D01*
X149494894Y-115961854D01*
X149563341Y-116127099D01*
X149662711Y-116275816D01*
X149669501Y-116282606D01*
X149669500Y-117947671D01*
X148935673Y-118681500D01*
X143025676Y-118681500D01*
X143117303Y-118606303D01*
X143139175Y-118579652D01*
X144732828Y-116986000D01*
X144742430Y-116986000D01*
X144917854Y-116951106D01*
X145083099Y-116882659D01*
X145231816Y-116783289D01*
X145358289Y-116656816D01*
X145457659Y-116508099D01*
X145526106Y-116342854D01*
X145561000Y-116167430D01*
X145561000Y-115988570D01*
X145526106Y-115813146D01*
X145457659Y-115647901D01*
X145358289Y-115499184D01*
X145231816Y-115372711D01*
X145083099Y-115273341D01*
X144917854Y-115204894D01*
X144742430Y-115170000D01*
X144563570Y-115170000D01*
X144388146Y-115204894D01*
X144222901Y-115273341D01*
X144074184Y-115372711D01*
X143947711Y-115499184D01*
X143848341Y-115647901D01*
X143779894Y-115813146D01*
X143745000Y-115988570D01*
X143745000Y-115998172D01*
X142331673Y-117411500D01*
X138505177Y-117411500D01*
X138599659Y-117270099D01*
X138668106Y-117104854D01*
X138703000Y-116929430D01*
X138703000Y-116750570D01*
X138668106Y-116575146D01*
X138599659Y-116409901D01*
X138500289Y-116261184D01*
X138373816Y-116134711D01*
X138225099Y-116035341D01*
X138059854Y-115966894D01*
X137884430Y-115932000D01*
X137705570Y-115932000D01*
X137530146Y-115966894D01*
X137364901Y-116035341D01*
X137216184Y-116134711D01*
X137209395Y-116141500D01*
X136727177Y-116141500D01*
X136821659Y-116000099D01*
X136890106Y-115834854D01*
X136925000Y-115659430D01*
X136925000Y-115480570D01*
X136890106Y-115305146D01*
X136821659Y-115139901D01*
X136722289Y-114991184D01*
X136595816Y-114864711D01*
X136447099Y-114765341D01*
X136281854Y-114696894D01*
X136106430Y-114662000D01*
X135927570Y-114662000D01*
X135752146Y-114696894D01*
X135586901Y-114765341D01*
X135438184Y-114864711D01*
X135431395Y-114871500D01*
X133300605Y-114871500D01*
X133293816Y-114864711D01*
X133145099Y-114765341D01*
X132979854Y-114696894D01*
X132804430Y-114662000D01*
X132625570Y-114662000D01*
X132450146Y-114696894D01*
X132284901Y-114765341D01*
X132136184Y-114864711D01*
X132009711Y-114991184D01*
X131910341Y-115139901D01*
X131841894Y-115305146D01*
X131807000Y-115480570D01*
X117602000Y-115480570D01*
X117602000Y-108832249D01*
X123229000Y-108832249D01*
X123229000Y-109099751D01*
X123281187Y-109362114D01*
X123383556Y-109609254D01*
X123532172Y-109831675D01*
X123721325Y-110020828D01*
X123943746Y-110169444D01*
X124190886Y-110271813D01*
X124453249Y-110324000D01*
X124720751Y-110324000D01*
X124983114Y-110271813D01*
X125230254Y-110169444D01*
X125452675Y-110020828D01*
X125641828Y-109831675D01*
X125790444Y-109609254D01*
X125857000Y-109448574D01*
X125923556Y-109609254D01*
X126072172Y-109831675D01*
X126261325Y-110020828D01*
X126483746Y-110169444D01*
X126730886Y-110271813D01*
X126993249Y-110324000D01*
X127260751Y-110324000D01*
X127523114Y-110271813D01*
X127770254Y-110169444D01*
X127992675Y-110020828D01*
X128181828Y-109831675D01*
X128330444Y-109609254D01*
X128397000Y-109448574D01*
X128463556Y-109609254D01*
X128612172Y-109831675D01*
X128801325Y-110020828D01*
X129023746Y-110169444D01*
X129270886Y-110271813D01*
X129533249Y-110324000D01*
X129800751Y-110324000D01*
X130063114Y-110271813D01*
X130310254Y-110169444D01*
X130532675Y-110020828D01*
X130721828Y-109831675D01*
X130870444Y-109609254D01*
X130937000Y-109448574D01*
X131003556Y-109609254D01*
X131152172Y-109831675D01*
X131341325Y-110020828D01*
X131563746Y-110169444D01*
X131810886Y-110271813D01*
X132073249Y-110324000D01*
X132340751Y-110324000D01*
X132603114Y-110271813D01*
X132850254Y-110169444D01*
X133072675Y-110020828D01*
X133261828Y-109831675D01*
X133410444Y-109609254D01*
X133477000Y-109448574D01*
X133543556Y-109609254D01*
X133692172Y-109831675D01*
X133881325Y-110020828D01*
X134103746Y-110169444D01*
X134350886Y-110271813D01*
X134613249Y-110324000D01*
X134880751Y-110324000D01*
X135143114Y-110271813D01*
X135390254Y-110169444D01*
X135612675Y-110020828D01*
X135801828Y-109831675D01*
X135950444Y-109609254D01*
X136017000Y-109448574D01*
X136083556Y-109609254D01*
X136232172Y-109831675D01*
X136421325Y-110020828D01*
X136643746Y-110169444D01*
X136890886Y-110271813D01*
X137153249Y-110324000D01*
X137420751Y-110324000D01*
X137683114Y-110271813D01*
X137930254Y-110169444D01*
X138152675Y-110020828D01*
X138341828Y-109831675D01*
X138490444Y-109609254D01*
X138557000Y-109448574D01*
X138623556Y-109609254D01*
X138772172Y-109831675D01*
X138961325Y-110020828D01*
X139183746Y-110169444D01*
X139430886Y-110271813D01*
X139693249Y-110324000D01*
X139960751Y-110324000D01*
X140223114Y-110271813D01*
X140470254Y-110169444D01*
X140692675Y-110020828D01*
X140881828Y-109831675D01*
X141030444Y-109609254D01*
X141097000Y-109448574D01*
X141163556Y-109609254D01*
X141312172Y-109831675D01*
X141501325Y-110020828D01*
X141723746Y-110169444D01*
X141970886Y-110271813D01*
X142233249Y-110324000D01*
X142500751Y-110324000D01*
X142763114Y-110271813D01*
X143010254Y-110169444D01*
X143232675Y-110020828D01*
X143421828Y-109831675D01*
X143570444Y-109609254D01*
X143637000Y-109448574D01*
X143703556Y-109609254D01*
X143852172Y-109831675D01*
X144041325Y-110020828D01*
X144263746Y-110169444D01*
X144510886Y-110271813D01*
X144773249Y-110324000D01*
X145040751Y-110324000D01*
X145303114Y-110271813D01*
X145550254Y-110169444D01*
X145772675Y-110020828D01*
X145961828Y-109831675D01*
X146110444Y-109609254D01*
X146177000Y-109448574D01*
X146243556Y-109609254D01*
X146392172Y-109831675D01*
X146581325Y-110020828D01*
X146803746Y-110169444D01*
X147050886Y-110271813D01*
X147313249Y-110324000D01*
X147580751Y-110324000D01*
X147843114Y-110271813D01*
X148090254Y-110169444D01*
X148312675Y-110020828D01*
X148501828Y-109831675D01*
X148650444Y-109609254D01*
X148717000Y-109448574D01*
X148783556Y-109609254D01*
X148932172Y-109831675D01*
X149121325Y-110020828D01*
X149343746Y-110169444D01*
X149590886Y-110271813D01*
X149853249Y-110324000D01*
X150120751Y-110324000D01*
X150383114Y-110271813D01*
X150630254Y-110169444D01*
X150852675Y-110020828D01*
X151041828Y-109831675D01*
X151190444Y-109609254D01*
X151257000Y-109448574D01*
X151323556Y-109609254D01*
X151472172Y-109831675D01*
X151661325Y-110020828D01*
X151883746Y-110169444D01*
X152130886Y-110271813D01*
X152393249Y-110324000D01*
X152660751Y-110324000D01*
X152923114Y-110271813D01*
X153170254Y-110169444D01*
X153392675Y-110020828D01*
X153581828Y-109831675D01*
X153730444Y-109609254D01*
X153797000Y-109448574D01*
X153863556Y-109609254D01*
X154012172Y-109831675D01*
X154201325Y-110020828D01*
X154423746Y-110169444D01*
X154670886Y-110271813D01*
X154933249Y-110324000D01*
X155200751Y-110324000D01*
X155463114Y-110271813D01*
X155710254Y-110169444D01*
X155932675Y-110020828D01*
X156121828Y-109831675D01*
X156270444Y-109609254D01*
X156372813Y-109362114D01*
X156392529Y-109262994D01*
X156543692Y-109262994D01*
X156622064Y-109464728D01*
X156738286Y-109647297D01*
X156887893Y-109803684D01*
X157065134Y-109927879D01*
X157263199Y-110015110D01*
X157310006Y-110029302D01*
X157480000Y-109998720D01*
X157480000Y-109093000D01*
X157734000Y-109093000D01*
X157734000Y-109998720D01*
X157903994Y-110029302D01*
X157950801Y-110015110D01*
X158148866Y-109927879D01*
X158326107Y-109803684D01*
X158475714Y-109647297D01*
X158591936Y-109464728D01*
X158670308Y-109262994D01*
X158640177Y-109093000D01*
X157734000Y-109093000D01*
X157480000Y-109093000D01*
X156573823Y-109093000D01*
X156543692Y-109262994D01*
X156392529Y-109262994D01*
X156425000Y-109099751D01*
X156425000Y-108832249D01*
X156392530Y-108669006D01*
X156543692Y-108669006D01*
X156573823Y-108839000D01*
X157480000Y-108839000D01*
X157480000Y-107933280D01*
X157734000Y-107933280D01*
X157734000Y-108839000D01*
X158640177Y-108839000D01*
X158670308Y-108669006D01*
X158591936Y-108467272D01*
X158475714Y-108284703D01*
X158326107Y-108128316D01*
X158308531Y-108116000D01*
X158786543Y-108116000D01*
X158786543Y-109816000D01*
X158796351Y-109915585D01*
X158825399Y-110011343D01*
X158872571Y-110099595D01*
X158936052Y-110176948D01*
X159013405Y-110240429D01*
X159101657Y-110287601D01*
X159197415Y-110316649D01*
X159297000Y-110326457D01*
X160997000Y-110326457D01*
X161096585Y-110316649D01*
X161192343Y-110287601D01*
X161280595Y-110240429D01*
X161357948Y-110176948D01*
X161421429Y-110099595D01*
X161468601Y-110011343D01*
X161497649Y-109915585D01*
X161507457Y-109816000D01*
X161507457Y-108116000D01*
X161497649Y-108016415D01*
X161468601Y-107920657D01*
X161421429Y-107832405D01*
X161357948Y-107755052D01*
X161280595Y-107691571D01*
X161192343Y-107644399D01*
X161096585Y-107615351D01*
X160997000Y-107605543D01*
X159297000Y-107605543D01*
X159197415Y-107615351D01*
X159101657Y-107644399D01*
X159013405Y-107691571D01*
X158936052Y-107755052D01*
X158872571Y-107832405D01*
X158825399Y-107920657D01*
X158796351Y-108016415D01*
X158786543Y-108116000D01*
X158308531Y-108116000D01*
X158148866Y-108004121D01*
X157950801Y-107916890D01*
X157903994Y-107902698D01*
X157734000Y-107933280D01*
X157480000Y-107933280D01*
X157310006Y-107902698D01*
X157263199Y-107916890D01*
X157065134Y-108004121D01*
X156887893Y-108128316D01*
X156738286Y-108284703D01*
X156622064Y-108467272D01*
X156543692Y-108669006D01*
X156392530Y-108669006D01*
X156372813Y-108569886D01*
X156270444Y-108322746D01*
X156121828Y-108100325D01*
X155932675Y-107911172D01*
X155710254Y-107762556D01*
X155463114Y-107660187D01*
X155200751Y-107608000D01*
X154933249Y-107608000D01*
X154670886Y-107660187D01*
X154423746Y-107762556D01*
X154201325Y-107911172D01*
X154012172Y-108100325D01*
X153863556Y-108322746D01*
X153797000Y-108483426D01*
X153730444Y-108322746D01*
X153581828Y-108100325D01*
X153392675Y-107911172D01*
X153170254Y-107762556D01*
X152923114Y-107660187D01*
X152660751Y-107608000D01*
X152393249Y-107608000D01*
X152130886Y-107660187D01*
X151883746Y-107762556D01*
X151661325Y-107911172D01*
X151472172Y-108100325D01*
X151323556Y-108322746D01*
X151257000Y-108483426D01*
X151190444Y-108322746D01*
X151041828Y-108100325D01*
X150852675Y-107911172D01*
X150630254Y-107762556D01*
X150383114Y-107660187D01*
X150120751Y-107608000D01*
X149853249Y-107608000D01*
X149590886Y-107660187D01*
X149343746Y-107762556D01*
X149121325Y-107911172D01*
X148932172Y-108100325D01*
X148783556Y-108322746D01*
X148717000Y-108483426D01*
X148650444Y-108322746D01*
X148501828Y-108100325D01*
X148312675Y-107911172D01*
X148090254Y-107762556D01*
X147843114Y-107660187D01*
X147580751Y-107608000D01*
X147313249Y-107608000D01*
X147050886Y-107660187D01*
X146803746Y-107762556D01*
X146581325Y-107911172D01*
X146392172Y-108100325D01*
X146243556Y-108322746D01*
X146177000Y-108483426D01*
X146110444Y-108322746D01*
X145961828Y-108100325D01*
X145772675Y-107911172D01*
X145550254Y-107762556D01*
X145303114Y-107660187D01*
X145040751Y-107608000D01*
X144773249Y-107608000D01*
X144510886Y-107660187D01*
X144263746Y-107762556D01*
X144041325Y-107911172D01*
X143852172Y-108100325D01*
X143703556Y-108322746D01*
X143637000Y-108483426D01*
X143570444Y-108322746D01*
X143421828Y-108100325D01*
X143232675Y-107911172D01*
X143010254Y-107762556D01*
X142763114Y-107660187D01*
X142500751Y-107608000D01*
X142233249Y-107608000D01*
X141970886Y-107660187D01*
X141723746Y-107762556D01*
X141501325Y-107911172D01*
X141312172Y-108100325D01*
X141163556Y-108322746D01*
X141097000Y-108483426D01*
X141030444Y-108322746D01*
X140881828Y-108100325D01*
X140692675Y-107911172D01*
X140470254Y-107762556D01*
X140223114Y-107660187D01*
X139960751Y-107608000D01*
X139693249Y-107608000D01*
X139430886Y-107660187D01*
X139183746Y-107762556D01*
X138961325Y-107911172D01*
X138772172Y-108100325D01*
X138623556Y-108322746D01*
X138557000Y-108483426D01*
X138490444Y-108322746D01*
X138341828Y-108100325D01*
X138152675Y-107911172D01*
X137930254Y-107762556D01*
X137683114Y-107660187D01*
X137420751Y-107608000D01*
X137153249Y-107608000D01*
X136890886Y-107660187D01*
X136643746Y-107762556D01*
X136421325Y-107911172D01*
X136232172Y-108100325D01*
X136083556Y-108322746D01*
X136017000Y-108483426D01*
X135950444Y-108322746D01*
X135801828Y-108100325D01*
X135612675Y-107911172D01*
X135390254Y-107762556D01*
X135143114Y-107660187D01*
X134880751Y-107608000D01*
X134613249Y-107608000D01*
X134350886Y-107660187D01*
X134103746Y-107762556D01*
X133881325Y-107911172D01*
X133692172Y-108100325D01*
X133543556Y-108322746D01*
X133477000Y-108483426D01*
X133410444Y-108322746D01*
X133261828Y-108100325D01*
X133072675Y-107911172D01*
X132850254Y-107762556D01*
X132603114Y-107660187D01*
X132340751Y-107608000D01*
X132073249Y-107608000D01*
X131810886Y-107660187D01*
X131563746Y-107762556D01*
X131341325Y-107911172D01*
X131152172Y-108100325D01*
X131003556Y-108322746D01*
X130937000Y-108483426D01*
X130870444Y-108322746D01*
X130721828Y-108100325D01*
X130532675Y-107911172D01*
X130310254Y-107762556D01*
X130063114Y-107660187D01*
X129800751Y-107608000D01*
X129533249Y-107608000D01*
X129270886Y-107660187D01*
X129023746Y-107762556D01*
X128801325Y-107911172D01*
X128612172Y-108100325D01*
X128463556Y-108322746D01*
X128397000Y-108483426D01*
X128330444Y-108322746D01*
X128181828Y-108100325D01*
X127992675Y-107911172D01*
X127770254Y-107762556D01*
X127523114Y-107660187D01*
X127260751Y-107608000D01*
X126993249Y-107608000D01*
X126730886Y-107660187D01*
X126483746Y-107762556D01*
X126261325Y-107911172D01*
X126072172Y-108100325D01*
X125923556Y-108322746D01*
X125857000Y-108483426D01*
X125790444Y-108322746D01*
X125641828Y-108100325D01*
X125452675Y-107911172D01*
X125230254Y-107762556D01*
X124983114Y-107660187D01*
X124720751Y-107608000D01*
X124453249Y-107608000D01*
X124190886Y-107660187D01*
X123943746Y-107762556D01*
X123721325Y-107911172D01*
X123532172Y-108100325D01*
X123383556Y-108322746D01*
X123281187Y-108569886D01*
X123229000Y-108832249D01*
X117602000Y-108832249D01*
X117602000Y-104265173D01*
X123279000Y-104265173D01*
X123279000Y-104522827D01*
X123329266Y-104775530D01*
X123427865Y-105013570D01*
X123571010Y-105227801D01*
X123753199Y-105409990D01*
X123967430Y-105553135D01*
X124205470Y-105651734D01*
X124458173Y-105702000D01*
X124715827Y-105702000D01*
X124968530Y-105651734D01*
X125206570Y-105553135D01*
X125420801Y-105409990D01*
X125602990Y-105227801D01*
X125746135Y-105013570D01*
X125844734Y-104775530D01*
X125857000Y-104713865D01*
X125869266Y-104775530D01*
X125967865Y-105013570D01*
X126111010Y-105227801D01*
X126293199Y-105409990D01*
X126507430Y-105553135D01*
X126745470Y-105651734D01*
X126998173Y-105702000D01*
X127255827Y-105702000D01*
X127508530Y-105651734D01*
X127746570Y-105553135D01*
X127960801Y-105409990D01*
X128142990Y-105227801D01*
X128286135Y-105013570D01*
X128384734Y-104775530D01*
X128397000Y-104713865D01*
X128409266Y-104775530D01*
X128507865Y-105013570D01*
X128651010Y-105227801D01*
X128833199Y-105409990D01*
X129047430Y-105553135D01*
X129285470Y-105651734D01*
X129538173Y-105702000D01*
X129795827Y-105702000D01*
X130048530Y-105651734D01*
X130286570Y-105553135D01*
X130500801Y-105409990D01*
X130682990Y-105227801D01*
X130826135Y-105013570D01*
X130924734Y-104775530D01*
X130937000Y-104713865D01*
X130949266Y-104775530D01*
X131047865Y-105013570D01*
X131191010Y-105227801D01*
X131373199Y-105409990D01*
X131587430Y-105553135D01*
X131825470Y-105651734D01*
X132078173Y-105702000D01*
X132335827Y-105702000D01*
X132588530Y-105651734D01*
X132826570Y-105553135D01*
X133040801Y-105409990D01*
X133222990Y-105227801D01*
X133366135Y-105013570D01*
X133464734Y-104775530D01*
X133477000Y-104713865D01*
X133489266Y-104775530D01*
X133587865Y-105013570D01*
X133731010Y-105227801D01*
X133913199Y-105409990D01*
X134127430Y-105553135D01*
X134365470Y-105651734D01*
X134618173Y-105702000D01*
X134875827Y-105702000D01*
X135128530Y-105651734D01*
X135366570Y-105553135D01*
X135580801Y-105409990D01*
X135762990Y-105227801D01*
X135906135Y-105013570D01*
X136004734Y-104775530D01*
X136017000Y-104713865D01*
X136029266Y-104775530D01*
X136127865Y-105013570D01*
X136271010Y-105227801D01*
X136453199Y-105409990D01*
X136667430Y-105553135D01*
X136905470Y-105651734D01*
X137158173Y-105702000D01*
X137415827Y-105702000D01*
X137668530Y-105651734D01*
X137906570Y-105553135D01*
X138120801Y-105409990D01*
X138302990Y-105227801D01*
X138446135Y-105013570D01*
X138544734Y-104775530D01*
X138557000Y-104713865D01*
X138569266Y-104775530D01*
X138667865Y-105013570D01*
X138811010Y-105227801D01*
X138993199Y-105409990D01*
X139207430Y-105553135D01*
X139445470Y-105651734D01*
X139698173Y-105702000D01*
X139955827Y-105702000D01*
X140208530Y-105651734D01*
X140446570Y-105553135D01*
X140660801Y-105409990D01*
X140842990Y-105227801D01*
X140986135Y-105013570D01*
X141084734Y-104775530D01*
X141097000Y-104713865D01*
X141109266Y-104775530D01*
X141207865Y-105013570D01*
X141351010Y-105227801D01*
X141533199Y-105409990D01*
X141747430Y-105553135D01*
X141985470Y-105651734D01*
X142238173Y-105702000D01*
X142495827Y-105702000D01*
X142748530Y-105651734D01*
X142986570Y-105553135D01*
X143200801Y-105409990D01*
X143382990Y-105227801D01*
X143526135Y-105013570D01*
X143624734Y-104775530D01*
X143637000Y-104713865D01*
X143649266Y-104775530D01*
X143747865Y-105013570D01*
X143891010Y-105227801D01*
X144073199Y-105409990D01*
X144287430Y-105553135D01*
X144525470Y-105651734D01*
X144778173Y-105702000D01*
X145035827Y-105702000D01*
X145288530Y-105651734D01*
X145526570Y-105553135D01*
X145740801Y-105409990D01*
X145922990Y-105227801D01*
X146066135Y-105013570D01*
X146164734Y-104775530D01*
X146177000Y-104713865D01*
X146189266Y-104775530D01*
X146287865Y-105013570D01*
X146431010Y-105227801D01*
X146613199Y-105409990D01*
X146827430Y-105553135D01*
X147065470Y-105651734D01*
X147318173Y-105702000D01*
X147575827Y-105702000D01*
X147828530Y-105651734D01*
X148066570Y-105553135D01*
X148280801Y-105409990D01*
X148462990Y-105227801D01*
X148606135Y-105013570D01*
X148704734Y-104775530D01*
X148717000Y-104713865D01*
X148729266Y-104775530D01*
X148827865Y-105013570D01*
X148971010Y-105227801D01*
X149153199Y-105409990D01*
X149367430Y-105553135D01*
X149605470Y-105651734D01*
X149858173Y-105702000D01*
X150115827Y-105702000D01*
X150368530Y-105651734D01*
X150606570Y-105553135D01*
X150820801Y-105409990D01*
X151002990Y-105227801D01*
X151146135Y-105013570D01*
X151244734Y-104775530D01*
X151257000Y-104713865D01*
X151269266Y-104775530D01*
X151367865Y-105013570D01*
X151511010Y-105227801D01*
X151693199Y-105409990D01*
X151907430Y-105553135D01*
X152145470Y-105651734D01*
X152398173Y-105702000D01*
X152655827Y-105702000D01*
X152908530Y-105651734D01*
X153146570Y-105553135D01*
X153360801Y-105409990D01*
X153542990Y-105227801D01*
X153686135Y-105013570D01*
X153784734Y-104775530D01*
X153797000Y-104713865D01*
X153809266Y-104775530D01*
X153907865Y-105013570D01*
X154051010Y-105227801D01*
X154233199Y-105409990D01*
X154447430Y-105553135D01*
X154685470Y-105651734D01*
X154938173Y-105702000D01*
X155195827Y-105702000D01*
X155448530Y-105651734D01*
X155686570Y-105553135D01*
X155900801Y-105409990D01*
X156082990Y-105227801D01*
X156226135Y-105013570D01*
X156324734Y-104775530D01*
X156343115Y-104683118D01*
X156593421Y-104683118D01*
X156669301Y-104875302D01*
X156781216Y-105048990D01*
X156924865Y-105197507D01*
X157094728Y-105315146D01*
X157284278Y-105397386D01*
X157317883Y-105407572D01*
X157480000Y-105376324D01*
X157480000Y-104521000D01*
X157734000Y-104521000D01*
X157734000Y-105376324D01*
X157896117Y-105407572D01*
X157929722Y-105397386D01*
X158119272Y-105315146D01*
X158289135Y-105197507D01*
X158432784Y-105048990D01*
X158544699Y-104875302D01*
X158620579Y-104683118D01*
X158589828Y-104521000D01*
X157734000Y-104521000D01*
X157480000Y-104521000D01*
X156624172Y-104521000D01*
X156593421Y-104683118D01*
X156343115Y-104683118D01*
X156375000Y-104522827D01*
X156375000Y-104265173D01*
X156343116Y-104104882D01*
X156593421Y-104104882D01*
X156624172Y-104267000D01*
X157480000Y-104267000D01*
X157480000Y-103411676D01*
X157734000Y-103411676D01*
X157734000Y-104267000D01*
X158589828Y-104267000D01*
X158590174Y-104265173D01*
X158839000Y-104265173D01*
X158839000Y-104522827D01*
X158889266Y-104775530D01*
X158987865Y-105013570D01*
X159131010Y-105227801D01*
X159313199Y-105409990D01*
X159527430Y-105553135D01*
X159765470Y-105651734D01*
X160018173Y-105702000D01*
X160275827Y-105702000D01*
X160528530Y-105651734D01*
X160766570Y-105553135D01*
X160980801Y-105409990D01*
X161162990Y-105227801D01*
X161306135Y-105013570D01*
X161404734Y-104775530D01*
X161455000Y-104522827D01*
X161455000Y-104265173D01*
X161404734Y-104012470D01*
X161306135Y-103774430D01*
X161162990Y-103560199D01*
X160980801Y-103378010D01*
X160766570Y-103234865D01*
X160528530Y-103136266D01*
X160275827Y-103086000D01*
X160018173Y-103086000D01*
X159765470Y-103136266D01*
X159527430Y-103234865D01*
X159313199Y-103378010D01*
X159131010Y-103560199D01*
X158987865Y-103774430D01*
X158889266Y-104012470D01*
X158839000Y-104265173D01*
X158590174Y-104265173D01*
X158620579Y-104104882D01*
X158544699Y-103912698D01*
X158432784Y-103739010D01*
X158289135Y-103590493D01*
X158119272Y-103472854D01*
X157929722Y-103390614D01*
X157896117Y-103380428D01*
X157734000Y-103411676D01*
X157480000Y-103411676D01*
X157317883Y-103380428D01*
X157284278Y-103390614D01*
X157094728Y-103472854D01*
X156924865Y-103590493D01*
X156781216Y-103739010D01*
X156669301Y-103912698D01*
X156593421Y-104104882D01*
X156343116Y-104104882D01*
X156324734Y-104012470D01*
X156226135Y-103774430D01*
X156082990Y-103560199D01*
X155900801Y-103378010D01*
X155686570Y-103234865D01*
X155448530Y-103136266D01*
X155195827Y-103086000D01*
X154938173Y-103086000D01*
X154685470Y-103136266D01*
X154447430Y-103234865D01*
X154233199Y-103378010D01*
X154051010Y-103560199D01*
X153907865Y-103774430D01*
X153809266Y-104012470D01*
X153797000Y-104074135D01*
X153784734Y-104012470D01*
X153686135Y-103774430D01*
X153542990Y-103560199D01*
X153360801Y-103378010D01*
X153146570Y-103234865D01*
X152908530Y-103136266D01*
X152655827Y-103086000D01*
X152398173Y-103086000D01*
X152145470Y-103136266D01*
X151907430Y-103234865D01*
X151693199Y-103378010D01*
X151511010Y-103560199D01*
X151367865Y-103774430D01*
X151269266Y-104012470D01*
X151257000Y-104074135D01*
X151244734Y-104012470D01*
X151146135Y-103774430D01*
X151002990Y-103560199D01*
X150820801Y-103378010D01*
X150606570Y-103234865D01*
X150368530Y-103136266D01*
X150115827Y-103086000D01*
X149858173Y-103086000D01*
X149605470Y-103136266D01*
X149367430Y-103234865D01*
X149153199Y-103378010D01*
X148971010Y-103560199D01*
X148827865Y-103774430D01*
X148729266Y-104012470D01*
X148717000Y-104074135D01*
X148704734Y-104012470D01*
X148606135Y-103774430D01*
X148462990Y-103560199D01*
X148280801Y-103378010D01*
X148066570Y-103234865D01*
X147828530Y-103136266D01*
X147575827Y-103086000D01*
X147318173Y-103086000D01*
X147065470Y-103136266D01*
X146827430Y-103234865D01*
X146613199Y-103378010D01*
X146431010Y-103560199D01*
X146287865Y-103774430D01*
X146189266Y-104012470D01*
X146177000Y-104074135D01*
X146164734Y-104012470D01*
X146066135Y-103774430D01*
X145922990Y-103560199D01*
X145740801Y-103378010D01*
X145526570Y-103234865D01*
X145288530Y-103136266D01*
X145035827Y-103086000D01*
X144778173Y-103086000D01*
X144525470Y-103136266D01*
X144287430Y-103234865D01*
X144073199Y-103378010D01*
X143891010Y-103560199D01*
X143747865Y-103774430D01*
X143649266Y-104012470D01*
X143637000Y-104074135D01*
X143624734Y-104012470D01*
X143526135Y-103774430D01*
X143382990Y-103560199D01*
X143200801Y-103378010D01*
X142986570Y-103234865D01*
X142748530Y-103136266D01*
X142495827Y-103086000D01*
X142238173Y-103086000D01*
X141985470Y-103136266D01*
X141747430Y-103234865D01*
X141533199Y-103378010D01*
X141351010Y-103560199D01*
X141207865Y-103774430D01*
X141109266Y-104012470D01*
X141097000Y-104074135D01*
X141084734Y-104012470D01*
X140986135Y-103774430D01*
X140842990Y-103560199D01*
X140660801Y-103378010D01*
X140446570Y-103234865D01*
X140208530Y-103136266D01*
X139955827Y-103086000D01*
X139698173Y-103086000D01*
X139445470Y-103136266D01*
X139207430Y-103234865D01*
X138993199Y-103378010D01*
X138811010Y-103560199D01*
X138667865Y-103774430D01*
X138569266Y-104012470D01*
X138557000Y-104074135D01*
X138544734Y-104012470D01*
X138446135Y-103774430D01*
X138302990Y-103560199D01*
X138120801Y-103378010D01*
X137906570Y-103234865D01*
X137668530Y-103136266D01*
X137415827Y-103086000D01*
X137158173Y-103086000D01*
X136905470Y-103136266D01*
X136667430Y-103234865D01*
X136453199Y-103378010D01*
X136271010Y-103560199D01*
X136127865Y-103774430D01*
X136029266Y-104012470D01*
X136017000Y-104074135D01*
X136004734Y-104012470D01*
X135906135Y-103774430D01*
X135762990Y-103560199D01*
X135580801Y-103378010D01*
X135366570Y-103234865D01*
X135128530Y-103136266D01*
X134875827Y-103086000D01*
X134618173Y-103086000D01*
X134365470Y-103136266D01*
X134127430Y-103234865D01*
X133913199Y-103378010D01*
X133731010Y-103560199D01*
X133587865Y-103774430D01*
X133489266Y-104012470D01*
X133477000Y-104074135D01*
X133464734Y-104012470D01*
X133366135Y-103774430D01*
X133222990Y-103560199D01*
X133040801Y-103378010D01*
X132826570Y-103234865D01*
X132588530Y-103136266D01*
X132335827Y-103086000D01*
X132078173Y-103086000D01*
X131825470Y-103136266D01*
X131587430Y-103234865D01*
X131373199Y-103378010D01*
X131191010Y-103560199D01*
X131047865Y-103774430D01*
X130949266Y-104012470D01*
X130937000Y-104074135D01*
X130924734Y-104012470D01*
X130826135Y-103774430D01*
X130682990Y-103560199D01*
X130500801Y-103378010D01*
X130286570Y-103234865D01*
X130048530Y-103136266D01*
X129795827Y-103086000D01*
X129538173Y-103086000D01*
X129285470Y-103136266D01*
X129047430Y-103234865D01*
X128833199Y-103378010D01*
X128651010Y-103560199D01*
X128507865Y-103774430D01*
X128409266Y-104012470D01*
X128397000Y-104074135D01*
X128384734Y-104012470D01*
X128286135Y-103774430D01*
X128142990Y-103560199D01*
X127960801Y-103378010D01*
X127746570Y-103234865D01*
X127508530Y-103136266D01*
X127255827Y-103086000D01*
X126998173Y-103086000D01*
X126745470Y-103136266D01*
X126507430Y-103234865D01*
X126293199Y-103378010D01*
X126111010Y-103560199D01*
X125967865Y-103774430D01*
X125869266Y-104012470D01*
X125857000Y-104074135D01*
X125844734Y-104012470D01*
X125746135Y-103774430D01*
X125602990Y-103560199D01*
X125420801Y-103378010D01*
X125206570Y-103234865D01*
X124968530Y-103136266D01*
X124715827Y-103086000D01*
X124458173Y-103086000D01*
X124205470Y-103136266D01*
X123967430Y-103234865D01*
X123753199Y-103378010D01*
X123571010Y-103560199D01*
X123427865Y-103774430D01*
X123329266Y-104012470D01*
X123279000Y-104265173D01*
X117602000Y-104265173D01*
X117602000Y-98806000D01*
X153670000Y-98806000D01*
X153670000Y-101854000D01*
X153679761Y-101953106D01*
X153708669Y-102048403D01*
X153755613Y-102136230D01*
X153818790Y-102213210D01*
X153895770Y-102276387D01*
X153983597Y-102323331D01*
X154078894Y-102352239D01*
X154178000Y-102362000D01*
X170180000Y-102362000D01*
X170180000Y-108585000D01*
X170189761Y-108684106D01*
X170218669Y-108779403D01*
X170265613Y-108867230D01*
X170328790Y-108944210D01*
X170405770Y-109007387D01*
X170493597Y-109054331D01*
X170588894Y-109083239D01*
X170688000Y-109093000D01*
X178054000Y-109093000D01*
X178153106Y-109083239D01*
X178248403Y-109054331D01*
X178336230Y-109007387D01*
X178413210Y-108944210D01*
X178476387Y-108867230D01*
X178523331Y-108779403D01*
X178552239Y-108684106D01*
X178562000Y-108585000D01*
X178562000Y-96266000D01*
X178552239Y-96166894D01*
X178523331Y-96071597D01*
X178476387Y-95983770D01*
X178413210Y-95906790D01*
X178336230Y-95843613D01*
X178248403Y-95796669D01*
X178153106Y-95767761D01*
X178054000Y-95758000D01*
X175006000Y-95758000D01*
X174906894Y-95767761D01*
X174811597Y-95796669D01*
X174723770Y-95843613D01*
X174646790Y-95906790D01*
X174583613Y-95983770D01*
X174536669Y-96071597D01*
X174507761Y-96166894D01*
X174498000Y-96266000D01*
X174498000Y-98298000D01*
X154178000Y-98298000D01*
X154078894Y-98307761D01*
X153983597Y-98336669D01*
X153895770Y-98383613D01*
X153818790Y-98446790D01*
X153755613Y-98523770D01*
X153708669Y-98611597D01*
X153679761Y-98706894D01*
X153670000Y-98806000D01*
X117602000Y-98806000D01*
X117602000Y-95078047D01*
X175921558Y-95078047D01*
X176014714Y-95215297D01*
X176205131Y-95298044D01*
X176408033Y-95342054D01*
X176615623Y-95345633D01*
X176819922Y-95308646D01*
X177013079Y-95232512D01*
X177045286Y-95215297D01*
X177138442Y-95078047D01*
X176530000Y-94469605D01*
X175921558Y-95078047D01*
X117602000Y-95078047D01*
X117602000Y-94375623D01*
X175474367Y-94375623D01*
X175511354Y-94579922D01*
X175587488Y-94773079D01*
X175604703Y-94805286D01*
X175741953Y-94898442D01*
X176350395Y-94290000D01*
X176709605Y-94290000D01*
X177318047Y-94898442D01*
X177455297Y-94805286D01*
X177538044Y-94614869D01*
X177582054Y-94411967D01*
X177585633Y-94204377D01*
X177548646Y-94000078D01*
X177472512Y-93806921D01*
X177455297Y-93774714D01*
X177318047Y-93681558D01*
X176709605Y-94290000D01*
X176350395Y-94290000D01*
X175741953Y-93681558D01*
X175604703Y-93774714D01*
X175521956Y-93965131D01*
X175477946Y-94168033D01*
X175474367Y-94375623D01*
X117602000Y-94375623D01*
X117602000Y-93501953D01*
X175921558Y-93501953D01*
X176530000Y-94110395D01*
X177138442Y-93501953D01*
X177045286Y-93364703D01*
X176854869Y-93281956D01*
X176651967Y-93237946D01*
X176444377Y-93234367D01*
X176240078Y-93271354D01*
X176046921Y-93347488D01*
X176014714Y-93364703D01*
X175921558Y-93501953D01*
X117602000Y-93501953D01*
X117602000Y-89025173D01*
X123279000Y-89025173D01*
X123279000Y-89282827D01*
X123329266Y-89535530D01*
X123427865Y-89773570D01*
X123571010Y-89987801D01*
X123753199Y-90169990D01*
X123967430Y-90313135D01*
X124205470Y-90411734D01*
X124458173Y-90462000D01*
X124715827Y-90462000D01*
X124968530Y-90411734D01*
X125206570Y-90313135D01*
X125420801Y-90169990D01*
X125602990Y-89987801D01*
X125746135Y-89773570D01*
X125844734Y-89535530D01*
X125857000Y-89473865D01*
X125869266Y-89535530D01*
X125967865Y-89773570D01*
X126111010Y-89987801D01*
X126293199Y-90169990D01*
X126507430Y-90313135D01*
X126745470Y-90411734D01*
X126998173Y-90462000D01*
X127255827Y-90462000D01*
X127508530Y-90411734D01*
X127746570Y-90313135D01*
X127960801Y-90169990D01*
X128142990Y-89987801D01*
X128286135Y-89773570D01*
X128384734Y-89535530D01*
X128397000Y-89473865D01*
X128409266Y-89535530D01*
X128507865Y-89773570D01*
X128651010Y-89987801D01*
X128833199Y-90169990D01*
X129047430Y-90313135D01*
X129285470Y-90411734D01*
X129538173Y-90462000D01*
X129795827Y-90462000D01*
X130048530Y-90411734D01*
X130286570Y-90313135D01*
X130500801Y-90169990D01*
X130682990Y-89987801D01*
X130826135Y-89773570D01*
X130924734Y-89535530D01*
X130937000Y-89473865D01*
X130949266Y-89535530D01*
X131047865Y-89773570D01*
X131191010Y-89987801D01*
X131373199Y-90169990D01*
X131587430Y-90313135D01*
X131825470Y-90411734D01*
X132078173Y-90462000D01*
X132335827Y-90462000D01*
X132588530Y-90411734D01*
X132826570Y-90313135D01*
X133040801Y-90169990D01*
X133222990Y-89987801D01*
X133366135Y-89773570D01*
X133464734Y-89535530D01*
X133477000Y-89473865D01*
X133489266Y-89535530D01*
X133587865Y-89773570D01*
X133731010Y-89987801D01*
X133913199Y-90169990D01*
X134127430Y-90313135D01*
X134365470Y-90411734D01*
X134618173Y-90462000D01*
X134875827Y-90462000D01*
X135128530Y-90411734D01*
X135366570Y-90313135D01*
X135580801Y-90169990D01*
X135762990Y-89987801D01*
X135906135Y-89773570D01*
X136004734Y-89535530D01*
X136017000Y-89473865D01*
X136029266Y-89535530D01*
X136127865Y-89773570D01*
X136271010Y-89987801D01*
X136453199Y-90169990D01*
X136667430Y-90313135D01*
X136905470Y-90411734D01*
X137158173Y-90462000D01*
X137415827Y-90462000D01*
X137668530Y-90411734D01*
X137906570Y-90313135D01*
X138120801Y-90169990D01*
X138302990Y-89987801D01*
X138446135Y-89773570D01*
X138544734Y-89535530D01*
X138557000Y-89473865D01*
X138569266Y-89535530D01*
X138667865Y-89773570D01*
X138811010Y-89987801D01*
X138993199Y-90169990D01*
X139207430Y-90313135D01*
X139445470Y-90411734D01*
X139698173Y-90462000D01*
X139955827Y-90462000D01*
X140208530Y-90411734D01*
X140446570Y-90313135D01*
X140660801Y-90169990D01*
X140842990Y-89987801D01*
X140986135Y-89773570D01*
X141084734Y-89535530D01*
X141097000Y-89473865D01*
X141109266Y-89535530D01*
X141207865Y-89773570D01*
X141351010Y-89987801D01*
X141533199Y-90169990D01*
X141747430Y-90313135D01*
X141985470Y-90411734D01*
X142238173Y-90462000D01*
X142495827Y-90462000D01*
X142748530Y-90411734D01*
X142986570Y-90313135D01*
X143200801Y-90169990D01*
X143382990Y-89987801D01*
X143526135Y-89773570D01*
X143624734Y-89535530D01*
X143637000Y-89473865D01*
X143649266Y-89535530D01*
X143747865Y-89773570D01*
X143891010Y-89987801D01*
X144073199Y-90169990D01*
X144287430Y-90313135D01*
X144525470Y-90411734D01*
X144778173Y-90462000D01*
X145035827Y-90462000D01*
X145288530Y-90411734D01*
X145526570Y-90313135D01*
X145740801Y-90169990D01*
X145922990Y-89987801D01*
X146066135Y-89773570D01*
X146164734Y-89535530D01*
X146177000Y-89473865D01*
X146189266Y-89535530D01*
X146287865Y-89773570D01*
X146431010Y-89987801D01*
X146613199Y-90169990D01*
X146827430Y-90313135D01*
X147065470Y-90411734D01*
X147318173Y-90462000D01*
X147575827Y-90462000D01*
X147828530Y-90411734D01*
X148066570Y-90313135D01*
X148280801Y-90169990D01*
X148462990Y-89987801D01*
X148606135Y-89773570D01*
X148704734Y-89535530D01*
X148717000Y-89473865D01*
X148729266Y-89535530D01*
X148827865Y-89773570D01*
X148971010Y-89987801D01*
X149153199Y-90169990D01*
X149367430Y-90313135D01*
X149605470Y-90411734D01*
X149858173Y-90462000D01*
X150115827Y-90462000D01*
X150368530Y-90411734D01*
X150606570Y-90313135D01*
X150820801Y-90169990D01*
X151002990Y-89987801D01*
X151146135Y-89773570D01*
X151244734Y-89535530D01*
X151263115Y-89443118D01*
X151513421Y-89443118D01*
X151589301Y-89635302D01*
X151701216Y-89808990D01*
X151844865Y-89957507D01*
X152014728Y-90075146D01*
X152204278Y-90157386D01*
X152237883Y-90167572D01*
X152400000Y-90136324D01*
X152400000Y-89281000D01*
X152654000Y-89281000D01*
X152654000Y-90136324D01*
X152816117Y-90167572D01*
X152849722Y-90157386D01*
X153039272Y-90075146D01*
X153209135Y-89957507D01*
X153352784Y-89808990D01*
X153464699Y-89635302D01*
X153540579Y-89443118D01*
X153509828Y-89281000D01*
X152654000Y-89281000D01*
X152400000Y-89281000D01*
X151544172Y-89281000D01*
X151513421Y-89443118D01*
X151263115Y-89443118D01*
X151295000Y-89282827D01*
X151295000Y-89025173D01*
X151263116Y-88864882D01*
X151513421Y-88864882D01*
X151544172Y-89027000D01*
X152400000Y-89027000D01*
X152400000Y-88171676D01*
X152654000Y-88171676D01*
X152654000Y-89027000D01*
X153509828Y-89027000D01*
X153510174Y-89025173D01*
X153759000Y-89025173D01*
X153759000Y-89282827D01*
X153809266Y-89535530D01*
X153907865Y-89773570D01*
X154051010Y-89987801D01*
X154233199Y-90169990D01*
X154447430Y-90313135D01*
X154685470Y-90411734D01*
X154938173Y-90462000D01*
X155195827Y-90462000D01*
X155448530Y-90411734D01*
X155686570Y-90313135D01*
X155900801Y-90169990D01*
X156082990Y-89987801D01*
X156226135Y-89773570D01*
X156324734Y-89535530D01*
X156337000Y-89473865D01*
X156349266Y-89535530D01*
X156447865Y-89773570D01*
X156591010Y-89987801D01*
X156773199Y-90169990D01*
X156987430Y-90313135D01*
X157225470Y-90411734D01*
X157478173Y-90462000D01*
X157735827Y-90462000D01*
X157988530Y-90411734D01*
X158226570Y-90313135D01*
X158440801Y-90169990D01*
X158622990Y-89987801D01*
X158766135Y-89773570D01*
X158836543Y-89603589D01*
X158836543Y-89954000D01*
X158846351Y-90053585D01*
X158875399Y-90149343D01*
X158922571Y-90237595D01*
X158986052Y-90314948D01*
X159063405Y-90378429D01*
X159151657Y-90425601D01*
X159247415Y-90454649D01*
X159347000Y-90464457D01*
X160947000Y-90464457D01*
X161046585Y-90454649D01*
X161142343Y-90425601D01*
X161230595Y-90378429D01*
X161307948Y-90314948D01*
X161371429Y-90237595D01*
X161418601Y-90149343D01*
X161447649Y-90053585D01*
X161457457Y-89954000D01*
X161457457Y-88354000D01*
X161447649Y-88254415D01*
X161418601Y-88158657D01*
X161371429Y-88070405D01*
X161307948Y-87993052D01*
X161230595Y-87929571D01*
X161142343Y-87882399D01*
X161046585Y-87853351D01*
X160947000Y-87843543D01*
X159347000Y-87843543D01*
X159247415Y-87853351D01*
X159151657Y-87882399D01*
X159063405Y-87929571D01*
X158986052Y-87993052D01*
X158922571Y-88070405D01*
X158875399Y-88158657D01*
X158846351Y-88254415D01*
X158836543Y-88354000D01*
X158836543Y-88704411D01*
X158766135Y-88534430D01*
X158622990Y-88320199D01*
X158440801Y-88138010D01*
X158226570Y-87994865D01*
X157988530Y-87896266D01*
X157735827Y-87846000D01*
X157478173Y-87846000D01*
X157225470Y-87896266D01*
X156987430Y-87994865D01*
X156773199Y-88138010D01*
X156591010Y-88320199D01*
X156447865Y-88534430D01*
X156349266Y-88772470D01*
X156337000Y-88834135D01*
X156324734Y-88772470D01*
X156226135Y-88534430D01*
X156082990Y-88320199D01*
X155900801Y-88138010D01*
X155686570Y-87994865D01*
X155448530Y-87896266D01*
X155195827Y-87846000D01*
X154938173Y-87846000D01*
X154685470Y-87896266D01*
X154447430Y-87994865D01*
X154233199Y-88138010D01*
X154051010Y-88320199D01*
X153907865Y-88534430D01*
X153809266Y-88772470D01*
X153759000Y-89025173D01*
X153510174Y-89025173D01*
X153540579Y-88864882D01*
X153464699Y-88672698D01*
X153352784Y-88499010D01*
X153209135Y-88350493D01*
X153039272Y-88232854D01*
X152849722Y-88150614D01*
X152816117Y-88140428D01*
X152654000Y-88171676D01*
X152400000Y-88171676D01*
X152237883Y-88140428D01*
X152204278Y-88150614D01*
X152014728Y-88232854D01*
X151844865Y-88350493D01*
X151701216Y-88499010D01*
X151589301Y-88672698D01*
X151513421Y-88864882D01*
X151263116Y-88864882D01*
X151244734Y-88772470D01*
X151146135Y-88534430D01*
X151002990Y-88320199D01*
X150820801Y-88138010D01*
X150606570Y-87994865D01*
X150368530Y-87896266D01*
X150115827Y-87846000D01*
X149858173Y-87846000D01*
X149605470Y-87896266D01*
X149367430Y-87994865D01*
X149153199Y-88138010D01*
X148971010Y-88320199D01*
X148827865Y-88534430D01*
X148729266Y-88772470D01*
X148717000Y-88834135D01*
X148704734Y-88772470D01*
X148606135Y-88534430D01*
X148462990Y-88320199D01*
X148280801Y-88138010D01*
X148066570Y-87994865D01*
X147828530Y-87896266D01*
X147575827Y-87846000D01*
X147318173Y-87846000D01*
X147065470Y-87896266D01*
X146827430Y-87994865D01*
X146613199Y-88138010D01*
X146431010Y-88320199D01*
X146287865Y-88534430D01*
X146189266Y-88772470D01*
X146177000Y-88834135D01*
X146164734Y-88772470D01*
X146066135Y-88534430D01*
X145922990Y-88320199D01*
X145740801Y-88138010D01*
X145526570Y-87994865D01*
X145288530Y-87896266D01*
X145035827Y-87846000D01*
X144778173Y-87846000D01*
X144525470Y-87896266D01*
X144287430Y-87994865D01*
X144073199Y-88138010D01*
X143891010Y-88320199D01*
X143747865Y-88534430D01*
X143649266Y-88772470D01*
X143637000Y-88834135D01*
X143624734Y-88772470D01*
X143526135Y-88534430D01*
X143382990Y-88320199D01*
X143200801Y-88138010D01*
X142986570Y-87994865D01*
X142748530Y-87896266D01*
X142495827Y-87846000D01*
X142238173Y-87846000D01*
X141985470Y-87896266D01*
X141747430Y-87994865D01*
X141533199Y-88138010D01*
X141351010Y-88320199D01*
X141207865Y-88534430D01*
X141109266Y-88772470D01*
X141097000Y-88834135D01*
X141084734Y-88772470D01*
X140986135Y-88534430D01*
X140842990Y-88320199D01*
X140660801Y-88138010D01*
X140446570Y-87994865D01*
X140208530Y-87896266D01*
X139955827Y-87846000D01*
X139698173Y-87846000D01*
X139445470Y-87896266D01*
X139207430Y-87994865D01*
X138993199Y-88138010D01*
X138811010Y-88320199D01*
X138667865Y-88534430D01*
X138569266Y-88772470D01*
X138557000Y-88834135D01*
X138544734Y-88772470D01*
X138446135Y-88534430D01*
X138302990Y-88320199D01*
X138120801Y-88138010D01*
X137906570Y-87994865D01*
X137668530Y-87896266D01*
X137415827Y-87846000D01*
X137158173Y-87846000D01*
X136905470Y-87896266D01*
X136667430Y-87994865D01*
X136453199Y-88138010D01*
X136271010Y-88320199D01*
X136127865Y-88534430D01*
X136029266Y-88772470D01*
X136017000Y-88834135D01*
X136004734Y-88772470D01*
X135906135Y-88534430D01*
X135762990Y-88320199D01*
X135580801Y-88138010D01*
X135366570Y-87994865D01*
X135128530Y-87896266D01*
X134875827Y-87846000D01*
X134618173Y-87846000D01*
X134365470Y-87896266D01*
X134127430Y-87994865D01*
X133913199Y-88138010D01*
X133731010Y-88320199D01*
X133587865Y-88534430D01*
X133489266Y-88772470D01*
X133477000Y-88834135D01*
X133464734Y-88772470D01*
X133366135Y-88534430D01*
X133222990Y-88320199D01*
X133040801Y-88138010D01*
X132826570Y-87994865D01*
X132588530Y-87896266D01*
X132335827Y-87846000D01*
X132078173Y-87846000D01*
X131825470Y-87896266D01*
X131587430Y-87994865D01*
X131373199Y-88138010D01*
X131191010Y-88320199D01*
X131047865Y-88534430D01*
X130949266Y-88772470D01*
X130937000Y-88834135D01*
X130924734Y-88772470D01*
X130826135Y-88534430D01*
X130682990Y-88320199D01*
X130500801Y-88138010D01*
X130286570Y-87994865D01*
X130048530Y-87896266D01*
X129795827Y-87846000D01*
X129538173Y-87846000D01*
X129285470Y-87896266D01*
X129047430Y-87994865D01*
X128833199Y-88138010D01*
X128651010Y-88320199D01*
X128507865Y-88534430D01*
X128409266Y-88772470D01*
X128397000Y-88834135D01*
X128384734Y-88772470D01*
X128286135Y-88534430D01*
X128142990Y-88320199D01*
X127960801Y-88138010D01*
X127746570Y-87994865D01*
X127508530Y-87896266D01*
X127255827Y-87846000D01*
X126998173Y-87846000D01*
X126745470Y-87896266D01*
X126507430Y-87994865D01*
X126293199Y-88138010D01*
X126111010Y-88320199D01*
X125967865Y-88534430D01*
X125869266Y-88772470D01*
X125857000Y-88834135D01*
X125844734Y-88772470D01*
X125746135Y-88534430D01*
X125602990Y-88320199D01*
X125420801Y-88138010D01*
X125206570Y-87994865D01*
X124968530Y-87896266D01*
X124715827Y-87846000D01*
X124458173Y-87846000D01*
X124205470Y-87896266D01*
X123967430Y-87994865D01*
X123753199Y-88138010D01*
X123571010Y-88320199D01*
X123427865Y-88534430D01*
X123329266Y-88772470D01*
X123279000Y-89025173D01*
X117602000Y-89025173D01*
X117602000Y-84448249D01*
X123229000Y-84448249D01*
X123229000Y-84715751D01*
X123281187Y-84978114D01*
X123383556Y-85225254D01*
X123532172Y-85447675D01*
X123721325Y-85636828D01*
X123943746Y-85785444D01*
X124190886Y-85887813D01*
X124453249Y-85940000D01*
X124720751Y-85940000D01*
X124983114Y-85887813D01*
X125230254Y-85785444D01*
X125452675Y-85636828D01*
X125641828Y-85447675D01*
X125790444Y-85225254D01*
X125857000Y-85064574D01*
X125923556Y-85225254D01*
X126072172Y-85447675D01*
X126261325Y-85636828D01*
X126483746Y-85785444D01*
X126730886Y-85887813D01*
X126993249Y-85940000D01*
X127260751Y-85940000D01*
X127523114Y-85887813D01*
X127770254Y-85785444D01*
X127992675Y-85636828D01*
X128181828Y-85447675D01*
X128330444Y-85225254D01*
X128397000Y-85064574D01*
X128463556Y-85225254D01*
X128612172Y-85447675D01*
X128801325Y-85636828D01*
X129023746Y-85785444D01*
X129270886Y-85887813D01*
X129533249Y-85940000D01*
X129800751Y-85940000D01*
X130063114Y-85887813D01*
X130310254Y-85785444D01*
X130532675Y-85636828D01*
X130721828Y-85447675D01*
X130870444Y-85225254D01*
X130937000Y-85064574D01*
X131003556Y-85225254D01*
X131152172Y-85447675D01*
X131341325Y-85636828D01*
X131563746Y-85785444D01*
X131810886Y-85887813D01*
X132073249Y-85940000D01*
X132340751Y-85940000D01*
X132603114Y-85887813D01*
X132850254Y-85785444D01*
X133072675Y-85636828D01*
X133261828Y-85447675D01*
X133410444Y-85225254D01*
X133477000Y-85064574D01*
X133543556Y-85225254D01*
X133692172Y-85447675D01*
X133881325Y-85636828D01*
X134103746Y-85785444D01*
X134350886Y-85887813D01*
X134613249Y-85940000D01*
X134880751Y-85940000D01*
X135143114Y-85887813D01*
X135390254Y-85785444D01*
X135612675Y-85636828D01*
X135801828Y-85447675D01*
X135950444Y-85225254D01*
X136017000Y-85064574D01*
X136083556Y-85225254D01*
X136232172Y-85447675D01*
X136421325Y-85636828D01*
X136643746Y-85785444D01*
X136890886Y-85887813D01*
X137153249Y-85940000D01*
X137420751Y-85940000D01*
X137683114Y-85887813D01*
X137930254Y-85785444D01*
X138152675Y-85636828D01*
X138341828Y-85447675D01*
X138490444Y-85225254D01*
X138557000Y-85064574D01*
X138623556Y-85225254D01*
X138772172Y-85447675D01*
X138961325Y-85636828D01*
X139183746Y-85785444D01*
X139430886Y-85887813D01*
X139693249Y-85940000D01*
X139960751Y-85940000D01*
X140223114Y-85887813D01*
X140470254Y-85785444D01*
X140692675Y-85636828D01*
X140881828Y-85447675D01*
X141030444Y-85225254D01*
X141097000Y-85064574D01*
X141163556Y-85225254D01*
X141312172Y-85447675D01*
X141501325Y-85636828D01*
X141723746Y-85785444D01*
X141970886Y-85887813D01*
X142233249Y-85940000D01*
X142500751Y-85940000D01*
X142763114Y-85887813D01*
X143010254Y-85785444D01*
X143232675Y-85636828D01*
X143421828Y-85447675D01*
X143570444Y-85225254D01*
X143637000Y-85064574D01*
X143703556Y-85225254D01*
X143852172Y-85447675D01*
X144041325Y-85636828D01*
X144263746Y-85785444D01*
X144510886Y-85887813D01*
X144773249Y-85940000D01*
X145040751Y-85940000D01*
X145303114Y-85887813D01*
X145550254Y-85785444D01*
X145772675Y-85636828D01*
X145961828Y-85447675D01*
X146110444Y-85225254D01*
X146177000Y-85064574D01*
X146243556Y-85225254D01*
X146392172Y-85447675D01*
X146581325Y-85636828D01*
X146803746Y-85785444D01*
X147050886Y-85887813D01*
X147313249Y-85940000D01*
X147580751Y-85940000D01*
X147843114Y-85887813D01*
X148090254Y-85785444D01*
X148312675Y-85636828D01*
X148501828Y-85447675D01*
X148650444Y-85225254D01*
X148717000Y-85064574D01*
X148783556Y-85225254D01*
X148932172Y-85447675D01*
X149121325Y-85636828D01*
X149343746Y-85785444D01*
X149590886Y-85887813D01*
X149853249Y-85940000D01*
X150120751Y-85940000D01*
X150383114Y-85887813D01*
X150630254Y-85785444D01*
X150852675Y-85636828D01*
X151041828Y-85447675D01*
X151190444Y-85225254D01*
X151292813Y-84978114D01*
X151312529Y-84878994D01*
X151463692Y-84878994D01*
X151542064Y-85080728D01*
X151658286Y-85263297D01*
X151807893Y-85419684D01*
X151985134Y-85543879D01*
X152183199Y-85631110D01*
X152230006Y-85645302D01*
X152400000Y-85614720D01*
X152400000Y-84709000D01*
X152654000Y-84709000D01*
X152654000Y-85614720D01*
X152823994Y-85645302D01*
X152870801Y-85631110D01*
X153068866Y-85543879D01*
X153246107Y-85419684D01*
X153395714Y-85263297D01*
X153511936Y-85080728D01*
X153590308Y-84878994D01*
X153560177Y-84709000D01*
X152654000Y-84709000D01*
X152400000Y-84709000D01*
X151493823Y-84709000D01*
X151463692Y-84878994D01*
X151312529Y-84878994D01*
X151345000Y-84715751D01*
X151345000Y-84448249D01*
X151312530Y-84285006D01*
X151463692Y-84285006D01*
X151493823Y-84455000D01*
X152400000Y-84455000D01*
X152400000Y-83549280D01*
X152654000Y-83549280D01*
X152654000Y-84455000D01*
X153560177Y-84455000D01*
X153561373Y-84448249D01*
X153709000Y-84448249D01*
X153709000Y-84715751D01*
X153761187Y-84978114D01*
X153863556Y-85225254D01*
X154012172Y-85447675D01*
X154201325Y-85636828D01*
X154423746Y-85785444D01*
X154670886Y-85887813D01*
X154933249Y-85940000D01*
X155200751Y-85940000D01*
X155463114Y-85887813D01*
X155710254Y-85785444D01*
X155932675Y-85636828D01*
X156121828Y-85447675D01*
X156270444Y-85225254D01*
X156337000Y-85064574D01*
X156403556Y-85225254D01*
X156552172Y-85447675D01*
X156741325Y-85636828D01*
X156963746Y-85785444D01*
X157210886Y-85887813D01*
X157473249Y-85940000D01*
X157740751Y-85940000D01*
X158003114Y-85887813D01*
X158250254Y-85785444D01*
X158472675Y-85636828D01*
X158661828Y-85447675D01*
X158786543Y-85261025D01*
X158786543Y-85432000D01*
X158796351Y-85531585D01*
X158825399Y-85627343D01*
X158872571Y-85715595D01*
X158936052Y-85792948D01*
X159013405Y-85856429D01*
X159101657Y-85903601D01*
X159197415Y-85932649D01*
X159297000Y-85942457D01*
X160997000Y-85942457D01*
X161096585Y-85932649D01*
X161192343Y-85903601D01*
X161280595Y-85856429D01*
X161357948Y-85792948D01*
X161421429Y-85715595D01*
X161468601Y-85627343D01*
X161497649Y-85531585D01*
X161507457Y-85432000D01*
X161507457Y-83732000D01*
X161497649Y-83632415D01*
X161468601Y-83536657D01*
X161421429Y-83448405D01*
X161357948Y-83371052D01*
X161280595Y-83307571D01*
X161192343Y-83260399D01*
X161096585Y-83231351D01*
X160997000Y-83221543D01*
X159297000Y-83221543D01*
X159197415Y-83231351D01*
X159101657Y-83260399D01*
X159013405Y-83307571D01*
X158936052Y-83371052D01*
X158872571Y-83448405D01*
X158825399Y-83536657D01*
X158796351Y-83632415D01*
X158786543Y-83732000D01*
X158786543Y-83902975D01*
X158661828Y-83716325D01*
X158472675Y-83527172D01*
X158250254Y-83378556D01*
X158003114Y-83276187D01*
X157740751Y-83224000D01*
X157473249Y-83224000D01*
X157210886Y-83276187D01*
X156963746Y-83378556D01*
X156741325Y-83527172D01*
X156552172Y-83716325D01*
X156403556Y-83938746D01*
X156337000Y-84099426D01*
X156270444Y-83938746D01*
X156121828Y-83716325D01*
X155932675Y-83527172D01*
X155710254Y-83378556D01*
X155463114Y-83276187D01*
X155200751Y-83224000D01*
X154933249Y-83224000D01*
X154670886Y-83276187D01*
X154423746Y-83378556D01*
X154201325Y-83527172D01*
X154012172Y-83716325D01*
X153863556Y-83938746D01*
X153761187Y-84185886D01*
X153709000Y-84448249D01*
X153561373Y-84448249D01*
X153590308Y-84285006D01*
X153511936Y-84083272D01*
X153395714Y-83900703D01*
X153246107Y-83744316D01*
X153068866Y-83620121D01*
X152870801Y-83532890D01*
X152823994Y-83518698D01*
X152654000Y-83549280D01*
X152400000Y-83549280D01*
X152230006Y-83518698D01*
X152183199Y-83532890D01*
X151985134Y-83620121D01*
X151807893Y-83744316D01*
X151658286Y-83900703D01*
X151542064Y-84083272D01*
X151463692Y-84285006D01*
X151312530Y-84285006D01*
X151292813Y-84185886D01*
X151190444Y-83938746D01*
X151041828Y-83716325D01*
X150852675Y-83527172D01*
X150630254Y-83378556D01*
X150383114Y-83276187D01*
X150120751Y-83224000D01*
X149853249Y-83224000D01*
X149590886Y-83276187D01*
X149343746Y-83378556D01*
X149121325Y-83527172D01*
X148932172Y-83716325D01*
X148783556Y-83938746D01*
X148717000Y-84099426D01*
X148650444Y-83938746D01*
X148501828Y-83716325D01*
X148312675Y-83527172D01*
X148090254Y-83378556D01*
X147843114Y-83276187D01*
X147580751Y-83224000D01*
X147313249Y-83224000D01*
X147050886Y-83276187D01*
X146803746Y-83378556D01*
X146581325Y-83527172D01*
X146392172Y-83716325D01*
X146243556Y-83938746D01*
X146177000Y-84099426D01*
X146110444Y-83938746D01*
X145961828Y-83716325D01*
X145772675Y-83527172D01*
X145550254Y-83378556D01*
X145303114Y-83276187D01*
X145040751Y-83224000D01*
X144773249Y-83224000D01*
X144510886Y-83276187D01*
X144263746Y-83378556D01*
X144041325Y-83527172D01*
X143852172Y-83716325D01*
X143703556Y-83938746D01*
X143637000Y-84099426D01*
X143570444Y-83938746D01*
X143421828Y-83716325D01*
X143232675Y-83527172D01*
X143010254Y-83378556D01*
X142763114Y-83276187D01*
X142500751Y-83224000D01*
X142233249Y-83224000D01*
X141970886Y-83276187D01*
X141723746Y-83378556D01*
X141501325Y-83527172D01*
X141312172Y-83716325D01*
X141163556Y-83938746D01*
X141097000Y-84099426D01*
X141030444Y-83938746D01*
X140881828Y-83716325D01*
X140692675Y-83527172D01*
X140470254Y-83378556D01*
X140223114Y-83276187D01*
X139960751Y-83224000D01*
X139693249Y-83224000D01*
X139430886Y-83276187D01*
X139183746Y-83378556D01*
X138961325Y-83527172D01*
X138772172Y-83716325D01*
X138623556Y-83938746D01*
X138557000Y-84099426D01*
X138490444Y-83938746D01*
X138341828Y-83716325D01*
X138152675Y-83527172D01*
X137930254Y-83378556D01*
X137683114Y-83276187D01*
X137420751Y-83224000D01*
X137153249Y-83224000D01*
X136890886Y-83276187D01*
X136643746Y-83378556D01*
X136421325Y-83527172D01*
X136232172Y-83716325D01*
X136083556Y-83938746D01*
X136017000Y-84099426D01*
X135950444Y-83938746D01*
X135801828Y-83716325D01*
X135612675Y-83527172D01*
X135390254Y-83378556D01*
X135143114Y-83276187D01*
X134880751Y-83224000D01*
X134613249Y-83224000D01*
X134350886Y-83276187D01*
X134103746Y-83378556D01*
X133881325Y-83527172D01*
X133692172Y-83716325D01*
X133543556Y-83938746D01*
X133477000Y-84099426D01*
X133410444Y-83938746D01*
X133261828Y-83716325D01*
X133072675Y-83527172D01*
X132850254Y-83378556D01*
X132603114Y-83276187D01*
X132340751Y-83224000D01*
X132073249Y-83224000D01*
X131810886Y-83276187D01*
X131563746Y-83378556D01*
X131341325Y-83527172D01*
X131152172Y-83716325D01*
X131003556Y-83938746D01*
X130937000Y-84099426D01*
X130870444Y-83938746D01*
X130721828Y-83716325D01*
X130532675Y-83527172D01*
X130310254Y-83378556D01*
X130063114Y-83276187D01*
X129800751Y-83224000D01*
X129533249Y-83224000D01*
X129270886Y-83276187D01*
X129023746Y-83378556D01*
X128801325Y-83527172D01*
X128612172Y-83716325D01*
X128463556Y-83938746D01*
X128397000Y-84099426D01*
X128330444Y-83938746D01*
X128181828Y-83716325D01*
X127992675Y-83527172D01*
X127770254Y-83378556D01*
X127523114Y-83276187D01*
X127260751Y-83224000D01*
X126993249Y-83224000D01*
X126730886Y-83276187D01*
X126483746Y-83378556D01*
X126261325Y-83527172D01*
X126072172Y-83716325D01*
X125923556Y-83938746D01*
X125857000Y-84099426D01*
X125790444Y-83938746D01*
X125641828Y-83716325D01*
X125452675Y-83527172D01*
X125230254Y-83378556D01*
X124983114Y-83276187D01*
X124720751Y-83224000D01*
X124453249Y-83224000D01*
X124190886Y-83276187D01*
X123943746Y-83378556D01*
X123721325Y-83527172D01*
X123532172Y-83716325D01*
X123383556Y-83938746D01*
X123281187Y-84185886D01*
X123229000Y-84448249D01*
X117602000Y-84448249D01*
X117602000Y-82507391D01*
X118332214Y-82507391D01*
X118714078Y-82890634D01*
X119313261Y-83212962D01*
X119963812Y-83412203D01*
X120640734Y-83480699D01*
X121318012Y-83415819D01*
X121969618Y-83220054D01*
X122570513Y-82900929D01*
X122585922Y-82890634D01*
X122967786Y-82507391D01*
X120650000Y-80189605D01*
X118332214Y-82507391D01*
X117602000Y-82507391D01*
X117602000Y-81634757D01*
X117759071Y-81930513D01*
X117769366Y-81945922D01*
X118152609Y-82327786D01*
X120470395Y-80010000D01*
X120829605Y-80010000D01*
X123147391Y-82327786D01*
X123530634Y-81945922D01*
X123643291Y-81736500D01*
X163993543Y-81736500D01*
X163993543Y-83236500D01*
X164008155Y-83384858D01*
X164051429Y-83527514D01*
X164121703Y-83658987D01*
X164216276Y-83774224D01*
X164331513Y-83868797D01*
X164462986Y-83939071D01*
X164528501Y-83958945D01*
X164528500Y-87250215D01*
X164480894Y-87365146D01*
X164446000Y-87540570D01*
X164446000Y-87719430D01*
X164480894Y-87894854D01*
X164549341Y-88060099D01*
X164648711Y-88208816D01*
X164775184Y-88335289D01*
X164923901Y-88434659D01*
X165089146Y-88503106D01*
X165264570Y-88538000D01*
X165443430Y-88538000D01*
X165618854Y-88503106D01*
X165784099Y-88434659D01*
X165932816Y-88335289D01*
X166059289Y-88208816D01*
X166158659Y-88060099D01*
X166227106Y-87894854D01*
X166262000Y-87719430D01*
X166262000Y-87540570D01*
X166227106Y-87365146D01*
X166179500Y-87250215D01*
X166179500Y-83958944D01*
X166245014Y-83939071D01*
X166376487Y-83868797D01*
X166491724Y-83774224D01*
X166586297Y-83658987D01*
X166656571Y-83527514D01*
X166699845Y-83384858D01*
X166714457Y-83236500D01*
X166714457Y-82786693D01*
X166758689Y-82786693D01*
X166809036Y-82997492D01*
X166899541Y-83194418D01*
X167026725Y-83369903D01*
X167185701Y-83517204D01*
X167370359Y-83630660D01*
X167557006Y-83699802D01*
X167727000Y-83669220D01*
X167727000Y-82613500D01*
X167981000Y-82613500D01*
X167981000Y-83669220D01*
X168150994Y-83699802D01*
X168337641Y-83630660D01*
X168522299Y-83517204D01*
X168681275Y-83369903D01*
X168808459Y-83194418D01*
X168898964Y-82997492D01*
X168949311Y-82786693D01*
X168895821Y-82613500D01*
X167981000Y-82613500D01*
X167727000Y-82613500D01*
X166812179Y-82613500D01*
X166758689Y-82786693D01*
X166714457Y-82786693D01*
X166714457Y-82186307D01*
X166758689Y-82186307D01*
X166812179Y-82359500D01*
X167727000Y-82359500D01*
X167727000Y-81303780D01*
X167981000Y-81303780D01*
X167981000Y-82359500D01*
X168895821Y-82359500D01*
X168949311Y-82186307D01*
X168898964Y-81975508D01*
X168808459Y-81778582D01*
X168777960Y-81736500D01*
X173518543Y-81736500D01*
X173518543Y-83236500D01*
X173533155Y-83384858D01*
X173576429Y-83527514D01*
X173646703Y-83658987D01*
X173741276Y-83774224D01*
X173856513Y-83868797D01*
X173987986Y-83939071D01*
X174130642Y-83982345D01*
X174279000Y-83996957D01*
X175479000Y-83996957D01*
X175627358Y-83982345D01*
X175770014Y-83939071D01*
X175901487Y-83868797D01*
X176016724Y-83774224D01*
X176111297Y-83658987D01*
X176181571Y-83527514D01*
X176224845Y-83384858D01*
X176239457Y-83236500D01*
X176239457Y-82786693D01*
X176283689Y-82786693D01*
X176334036Y-82997492D01*
X176424541Y-83194418D01*
X176551725Y-83369903D01*
X176710701Y-83517204D01*
X176895359Y-83630660D01*
X177082006Y-83699802D01*
X177252000Y-83669220D01*
X177252000Y-82613500D01*
X177506000Y-82613500D01*
X177506000Y-83669220D01*
X177675994Y-83699802D01*
X177862641Y-83630660D01*
X178047299Y-83517204D01*
X178206275Y-83369903D01*
X178333459Y-83194418D01*
X178423964Y-82997492D01*
X178474311Y-82786693D01*
X178420821Y-82613500D01*
X177506000Y-82613500D01*
X177252000Y-82613500D01*
X176337179Y-82613500D01*
X176283689Y-82786693D01*
X176239457Y-82786693D01*
X176239457Y-82507391D01*
X181832214Y-82507391D01*
X182214078Y-82890634D01*
X182813261Y-83212962D01*
X183463812Y-83412203D01*
X184140734Y-83480699D01*
X184818012Y-83415819D01*
X185469618Y-83220054D01*
X186070513Y-82900929D01*
X186085922Y-82890634D01*
X186467786Y-82507391D01*
X184150000Y-80189605D01*
X181832214Y-82507391D01*
X176239457Y-82507391D01*
X176239457Y-82186307D01*
X176283689Y-82186307D01*
X176337179Y-82359500D01*
X177252000Y-82359500D01*
X177252000Y-81303780D01*
X177506000Y-81303780D01*
X177506000Y-82359500D01*
X178420821Y-82359500D01*
X178474311Y-82186307D01*
X178423964Y-81975508D01*
X178333459Y-81778582D01*
X178206275Y-81603097D01*
X178047299Y-81455796D01*
X177862641Y-81342340D01*
X177675994Y-81273198D01*
X177506000Y-81303780D01*
X177252000Y-81303780D01*
X177082006Y-81273198D01*
X176895359Y-81342340D01*
X176710701Y-81455796D01*
X176551725Y-81603097D01*
X176424541Y-81778582D01*
X176334036Y-81975508D01*
X176283689Y-82186307D01*
X176239457Y-82186307D01*
X176239457Y-81736500D01*
X176224845Y-81588142D01*
X176181571Y-81445486D01*
X176111297Y-81314013D01*
X176016724Y-81198776D01*
X175901487Y-81104203D01*
X175770014Y-81033929D01*
X175627358Y-80990655D01*
X175479000Y-80976043D01*
X174279000Y-80976043D01*
X174130642Y-80990655D01*
X173987986Y-81033929D01*
X173856513Y-81104203D01*
X173741276Y-81198776D01*
X173646703Y-81314013D01*
X173576429Y-81445486D01*
X173533155Y-81588142D01*
X173518543Y-81736500D01*
X168777960Y-81736500D01*
X168681275Y-81603097D01*
X168522299Y-81455796D01*
X168337641Y-81342340D01*
X168150994Y-81273198D01*
X167981000Y-81303780D01*
X167727000Y-81303780D01*
X167557006Y-81273198D01*
X167370359Y-81342340D01*
X167185701Y-81455796D01*
X167026725Y-81603097D01*
X166899541Y-81778582D01*
X166809036Y-81975508D01*
X166758689Y-82186307D01*
X166714457Y-82186307D01*
X166714457Y-81736500D01*
X166699845Y-81588142D01*
X166656571Y-81445486D01*
X166586297Y-81314013D01*
X166491724Y-81198776D01*
X166376487Y-81104203D01*
X166245014Y-81033929D01*
X166102358Y-80990655D01*
X165954000Y-80976043D01*
X164754000Y-80976043D01*
X164605642Y-80990655D01*
X164462986Y-81033929D01*
X164331513Y-81104203D01*
X164216276Y-81198776D01*
X164121703Y-81314013D01*
X164051429Y-81445486D01*
X164008155Y-81588142D01*
X163993543Y-81736500D01*
X123643291Y-81736500D01*
X123852962Y-81346739D01*
X124052203Y-80696188D01*
X124120699Y-80019266D01*
X124118924Y-80000734D01*
X180679301Y-80000734D01*
X180744181Y-80678012D01*
X180939946Y-81329618D01*
X181259071Y-81930513D01*
X181269366Y-81945922D01*
X181652609Y-82327786D01*
X183970395Y-80010000D01*
X181652609Y-77692214D01*
X181269366Y-78074078D01*
X180947038Y-78673261D01*
X180747797Y-79323812D01*
X180679301Y-80000734D01*
X124118924Y-80000734D01*
X124055819Y-79341988D01*
X123860054Y-78690382D01*
X123540929Y-78089487D01*
X123530634Y-78074078D01*
X123147391Y-77692214D01*
X120829605Y-80010000D01*
X120470395Y-80010000D01*
X120456253Y-79995858D01*
X120635858Y-79816253D01*
X120650000Y-79830395D01*
X122967786Y-77512609D01*
X122585922Y-77129366D01*
X122274801Y-76962000D01*
X182525243Y-76962000D01*
X182229487Y-77119071D01*
M02*
