M48
INCH,TZ
T1C0.0157
T2C0.0197
T3C0.0315
T4C0.0394
T5C0.1260
%
G90
G05
T1
X52250Y-45500
X52250Y-46000
X52250Y-46500
X52250Y-47000
X53550Y-45500
X54100Y-39500
X54250Y-45450
X54250Y-46000
X56250Y-50000
X56250Y-50750
X56250Y-51500
X56250Y-52250
X56950Y-45700
X58700Y-46100
X59200Y-45550
X61250Y-39250
X61250Y-39750
X61800Y-45400
X62000Y-39250
X62000Y-39750
X62300Y-44900
X62300Y-46300
X62800Y-44400
X62800Y-45800
X63300Y-45300
X64000Y-40750
X64000Y-41250
X64000Y-41750
X64000Y-42250
X65100Y-34500
X66700Y-40500
X66700Y-41000
X66700Y-41500
X66700Y-42000
X66700Y-42500
X66800Y-38500
X67300Y-38500
X67500Y-41500
X67500Y-42400
X67750Y-44000
X67800Y-38500
X68000Y-34750
X68000Y-41500
X68000Y-42400
X68150Y-47950
X68300Y-38500
X68350Y-46625
X68500Y-41500
X68500Y-42400
X68650Y-47950
X68650Y-48450
X69150Y-48450
X69150Y-48950
X69200Y-39300
X69200Y-39900
X69800Y-39300
X69800Y-39900
X71500Y-44450
X71500Y-45000
X73100Y-43450
T2
X71555Y-31500
X71832Y-30832
X71832Y-32168
X72500Y-30555
X72500Y-32445
X73168Y-30832
X73168Y-32168
X73445Y-31500
X46555Y-51500
X46832Y-50832
X46832Y-52168
X47500Y-50555
X47500Y-52445
X48168Y-50832
X48168Y-52168
X48445Y-51500
X71555Y-51500
X71832Y-50832
X71832Y-52168
X72500Y-50555
X72500Y-52445
X73168Y-50832
X73168Y-52168
X73445Y-51500
X46555Y-31500
X46832Y-30832
X46832Y-32168
X47500Y-30555
X47500Y-32445
X48168Y-30832
X48168Y-32168
X48445Y-31500
T3
X69500Y-37122
X69500Y-38500
X72050Y-48600
X73034Y-48600
T4
X57500Y-48000
X58500Y-48000
X59500Y-48000
X60500Y-48000
X49050Y-42900
X50050Y-42900
X51050Y-42900
X52050Y-42900
X53050Y-42900
X54050Y-42900
X55050Y-42900
X56050Y-42900
X57050Y-42900
X58050Y-42900
X59050Y-42900
X60050Y-42900
X61050Y-42900
X62050Y-42900
X63050Y-42900
X52000Y-48000
X53000Y-48000
X54000Y-48000
X55000Y-48000
X64900Y-50000
X64900Y-51000
X65900Y-50000
X65900Y-51000
X66900Y-50000
X66900Y-51000
X67900Y-50000
X67900Y-51000
X68900Y-50000
X68900Y-51000
X49050Y-33300
X50050Y-33300
X51050Y-33300
X52050Y-33300
X53050Y-33300
X54050Y-33300
X55050Y-33300
X56050Y-33300
X57050Y-33300
X58050Y-33300
X59050Y-33300
X60050Y-33300
X61050Y-33300
X62050Y-33300
X63050Y-33300
X65100Y-32475
X66084Y-32475
X49050Y-35100
X49050Y-41100
X50050Y-35100
X50050Y-41100
X51050Y-35100
X51050Y-41100
X52050Y-35100
X52050Y-41100
X53050Y-35100
X53050Y-41100
X54050Y-35100
X54050Y-41100
X55050Y-35100
X55050Y-41100
X56050Y-35100
X56050Y-41100
X57050Y-35100
X57050Y-41100
X58050Y-35100
X58050Y-41100
X59050Y-35100
X59050Y-41100
X60050Y-35100
X60050Y-41100
X61050Y-35100
X61050Y-41100
X62050Y-35100
X62050Y-41100
X63050Y-35100
X63050Y-41100
X68850Y-32475
X69834Y-32475
X72700Y-44350
X72700Y-45350
X72700Y-46350
T5
X72500Y-51500
X47500Y-31500
X72500Y-31500
X47500Y-51500
T0
M30
