G04 #@! TF.GenerationSoftware,KiCad,Pcbnew,(5.1.6)-1*
G04 #@! TF.CreationDate,2020-11-18T04:27:20-08:00*
G04 #@! TF.ProjectId,Logic Board RevA,4c6f6769-6320-4426-9f61-726420526576,rev?*
G04 #@! TF.SameCoordinates,Original*
G04 #@! TF.FileFunction,Paste,Top*
G04 #@! TF.FilePolarity,Positive*
%FSLAX46Y46*%
G04 Gerber Fmt 4.6, Leading zero omitted, Abs format (unit mm)*
G04 Created by KiCad (PCBNEW (5.1.6)-1) date 2020-11-18 04:27:20*
%MOMM*%
%LPD*%
G01*
G04 APERTURE LIST*
%ADD10R,3.500000X3.000000*%
%ADD11R,1.560000X0.650000*%
%ADD12R,1.000000X1.000000*%
G04 APERTURE END LIST*
G36*
G01*
X168926500Y-91409000D02*
X169401500Y-91409000D01*
G75*
G02*
X169639000Y-91646500I0J-237500D01*
G01*
X169639000Y-92221500D01*
G75*
G02*
X169401500Y-92459000I-237500J0D01*
G01*
X168926500Y-92459000D01*
G75*
G02*
X168689000Y-92221500I0J237500D01*
G01*
X168689000Y-91646500D01*
G75*
G02*
X168926500Y-91409000I237500J0D01*
G01*
G37*
G36*
G01*
X168926500Y-89659000D02*
X169401500Y-89659000D01*
G75*
G02*
X169639000Y-89896500I0J-237500D01*
G01*
X169639000Y-90471500D01*
G75*
G02*
X169401500Y-90709000I-237500J0D01*
G01*
X168926500Y-90709000D01*
G75*
G02*
X168689000Y-90471500I0J237500D01*
G01*
X168689000Y-89896500D01*
G75*
G02*
X168926500Y-89659000I237500J0D01*
G01*
G37*
G36*
G01*
X120173000Y-86313000D02*
X120173000Y-86788000D01*
G75*
G02*
X119935500Y-87025500I-237500J0D01*
G01*
X119360500Y-87025500D01*
G75*
G02*
X119123000Y-86788000I0J237500D01*
G01*
X119123000Y-86313000D01*
G75*
G02*
X119360500Y-86075500I237500J0D01*
G01*
X119935500Y-86075500D01*
G75*
G02*
X120173000Y-86313000I0J-237500D01*
G01*
G37*
G36*
G01*
X121923000Y-86313000D02*
X121923000Y-86788000D01*
G75*
G02*
X121685500Y-87025500I-237500J0D01*
G01*
X121110500Y-87025500D01*
G75*
G02*
X120873000Y-86788000I0J237500D01*
G01*
X120873000Y-86313000D01*
G75*
G02*
X121110500Y-86075500I237500J0D01*
G01*
X121685500Y-86075500D01*
G75*
G02*
X121923000Y-86313000I0J-237500D01*
G01*
G37*
G36*
G01*
X160597000Y-100780001D02*
X160597000Y-99879999D01*
G75*
G02*
X160846999Y-99630000I249999J0D01*
G01*
X161497001Y-99630000D01*
G75*
G02*
X161747000Y-99879999I0J-249999D01*
G01*
X161747000Y-100780001D01*
G75*
G02*
X161497001Y-101030000I-249999J0D01*
G01*
X160846999Y-101030000D01*
G75*
G02*
X160597000Y-100780001I0J249999D01*
G01*
G37*
G36*
G01*
X158547000Y-100780001D02*
X158547000Y-99879999D01*
G75*
G02*
X158796999Y-99630000I249999J0D01*
G01*
X159447001Y-99630000D01*
G75*
G02*
X159697000Y-99879999I0J-249999D01*
G01*
X159697000Y-100780001D01*
G75*
G02*
X159447001Y-101030000I-249999J0D01*
G01*
X158796999Y-101030000D01*
G75*
G02*
X158547000Y-100780001I0J249999D01*
G01*
G37*
D10*
X177165000Y-112878000D03*
X177165000Y-106578000D03*
G36*
G01*
X184133500Y-105822000D02*
X183658500Y-105822000D01*
G75*
G02*
X183421000Y-105584500I0J237500D01*
G01*
X183421000Y-105009500D01*
G75*
G02*
X183658500Y-104772000I237500J0D01*
G01*
X184133500Y-104772000D01*
G75*
G02*
X184371000Y-105009500I0J-237500D01*
G01*
X184371000Y-105584500D01*
G75*
G02*
X184133500Y-105822000I-237500J0D01*
G01*
G37*
G36*
G01*
X184133500Y-107572000D02*
X183658500Y-107572000D01*
G75*
G02*
X183421000Y-107334500I0J237500D01*
G01*
X183421000Y-106759500D01*
G75*
G02*
X183658500Y-106522000I237500J0D01*
G01*
X184133500Y-106522000D01*
G75*
G02*
X184371000Y-106759500I0J-237500D01*
G01*
X184371000Y-107334500D01*
G75*
G02*
X184133500Y-107572000I-237500J0D01*
G01*
G37*
D11*
X177956200Y-117208300D03*
X177956200Y-116258300D03*
X177956200Y-118158300D03*
X175256200Y-118158300D03*
X175256200Y-117208300D03*
X175256200Y-116258300D03*
G36*
G01*
X165591500Y-90709000D02*
X165116500Y-90709000D01*
G75*
G02*
X164879000Y-90471500I0J237500D01*
G01*
X164879000Y-89896500D01*
G75*
G02*
X165116500Y-89659000I237500J0D01*
G01*
X165591500Y-89659000D01*
G75*
G02*
X165829000Y-89896500I0J-237500D01*
G01*
X165829000Y-90471500D01*
G75*
G02*
X165591500Y-90709000I-237500J0D01*
G01*
G37*
G36*
G01*
X165591500Y-92459000D02*
X165116500Y-92459000D01*
G75*
G02*
X164879000Y-92221500I0J237500D01*
G01*
X164879000Y-91646500D01*
G75*
G02*
X165116500Y-91409000I237500J0D01*
G01*
X165591500Y-91409000D01*
G75*
G02*
X165829000Y-91646500I0J-237500D01*
G01*
X165829000Y-92221500D01*
G75*
G02*
X165591500Y-92459000I-237500J0D01*
G01*
G37*
G36*
G01*
X185436500Y-102394500D02*
X185911500Y-102394500D01*
G75*
G02*
X186149000Y-102632000I0J-237500D01*
G01*
X186149000Y-103207000D01*
G75*
G02*
X185911500Y-103444500I-237500J0D01*
G01*
X185436500Y-103444500D01*
G75*
G02*
X185199000Y-103207000I0J237500D01*
G01*
X185199000Y-102632000D01*
G75*
G02*
X185436500Y-102394500I237500J0D01*
G01*
G37*
G36*
G01*
X185436500Y-100644500D02*
X185911500Y-100644500D01*
G75*
G02*
X186149000Y-100882000I0J-237500D01*
G01*
X186149000Y-101457000D01*
G75*
G02*
X185911500Y-101694500I-237500J0D01*
G01*
X185436500Y-101694500D01*
G75*
G02*
X185199000Y-101457000I0J237500D01*
G01*
X185199000Y-100882000D01*
G75*
G02*
X185436500Y-100644500I237500J0D01*
G01*
G37*
G36*
G01*
X183658500Y-102394500D02*
X184133500Y-102394500D01*
G75*
G02*
X184371000Y-102632000I0J-237500D01*
G01*
X184371000Y-103207000D01*
G75*
G02*
X184133500Y-103444500I-237500J0D01*
G01*
X183658500Y-103444500D01*
G75*
G02*
X183421000Y-103207000I0J237500D01*
G01*
X183421000Y-102632000D01*
G75*
G02*
X183658500Y-102394500I237500J0D01*
G01*
G37*
G36*
G01*
X183658500Y-100644500D02*
X184133500Y-100644500D01*
G75*
G02*
X184371000Y-100882000I0J-237500D01*
G01*
X184371000Y-101457000D01*
G75*
G02*
X184133500Y-101694500I-237500J0D01*
G01*
X183658500Y-101694500D01*
G75*
G02*
X183421000Y-101457000I0J237500D01*
G01*
X183421000Y-100882000D01*
G75*
G02*
X183658500Y-100644500I237500J0D01*
G01*
G37*
G36*
G01*
X182355500Y-101694500D02*
X181880500Y-101694500D01*
G75*
G02*
X181643000Y-101457000I0J237500D01*
G01*
X181643000Y-100882000D01*
G75*
G02*
X181880500Y-100644500I237500J0D01*
G01*
X182355500Y-100644500D01*
G75*
G02*
X182593000Y-100882000I0J-237500D01*
G01*
X182593000Y-101457000D01*
G75*
G02*
X182355500Y-101694500I-237500J0D01*
G01*
G37*
G36*
G01*
X182355500Y-103444500D02*
X181880500Y-103444500D01*
G75*
G02*
X181643000Y-103207000I0J237500D01*
G01*
X181643000Y-102632000D01*
G75*
G02*
X181880500Y-102394500I237500J0D01*
G01*
X182355500Y-102394500D01*
G75*
G02*
X182593000Y-102632000I0J-237500D01*
G01*
X182593000Y-103207000D01*
G75*
G02*
X182355500Y-103444500I-237500J0D01*
G01*
G37*
G36*
G01*
X167496500Y-90709000D02*
X167021500Y-90709000D01*
G75*
G02*
X166784000Y-90471500I0J237500D01*
G01*
X166784000Y-89896500D01*
G75*
G02*
X167021500Y-89659000I237500J0D01*
G01*
X167496500Y-89659000D01*
G75*
G02*
X167734000Y-89896500I0J-237500D01*
G01*
X167734000Y-90471500D01*
G75*
G02*
X167496500Y-90709000I-237500J0D01*
G01*
G37*
G36*
G01*
X167496500Y-92459000D02*
X167021500Y-92459000D01*
G75*
G02*
X166784000Y-92221500I0J237500D01*
G01*
X166784000Y-91646500D01*
G75*
G02*
X167021500Y-91409000I237500J0D01*
G01*
X167496500Y-91409000D01*
G75*
G02*
X167734000Y-91646500I0J-237500D01*
G01*
X167734000Y-92221500D01*
G75*
G02*
X167496500Y-92459000I-237500J0D01*
G01*
G37*
G36*
G01*
X179848500Y-117253500D02*
X180323500Y-117253500D01*
G75*
G02*
X180561000Y-117491000I0J-237500D01*
G01*
X180561000Y-118066000D01*
G75*
G02*
X180323500Y-118303500I-237500J0D01*
G01*
X179848500Y-118303500D01*
G75*
G02*
X179611000Y-118066000I0J237500D01*
G01*
X179611000Y-117491000D01*
G75*
G02*
X179848500Y-117253500I237500J0D01*
G01*
G37*
G36*
G01*
X179848500Y-115503500D02*
X180323500Y-115503500D01*
G75*
G02*
X180561000Y-115741000I0J-237500D01*
G01*
X180561000Y-116316000D01*
G75*
G02*
X180323500Y-116553500I-237500J0D01*
G01*
X179848500Y-116553500D01*
G75*
G02*
X179611000Y-116316000I0J237500D01*
G01*
X179611000Y-115741000D01*
G75*
G02*
X179848500Y-115503500I237500J0D01*
G01*
G37*
G36*
G01*
X141066000Y-118601500D02*
X141066000Y-118126500D01*
G75*
G02*
X141303500Y-117889000I237500J0D01*
G01*
X141878500Y-117889000D01*
G75*
G02*
X142116000Y-118126500I0J-237500D01*
G01*
X142116000Y-118601500D01*
G75*
G02*
X141878500Y-118839000I-237500J0D01*
G01*
X141303500Y-118839000D01*
G75*
G02*
X141066000Y-118601500I0J237500D01*
G01*
G37*
G36*
G01*
X139316000Y-118601500D02*
X139316000Y-118126500D01*
G75*
G02*
X139553500Y-117889000I237500J0D01*
G01*
X140128500Y-117889000D01*
G75*
G02*
X140366000Y-118126500I0J-237500D01*
G01*
X140366000Y-118601500D01*
G75*
G02*
X140128500Y-118839000I-237500J0D01*
G01*
X139553500Y-118839000D01*
G75*
G02*
X139316000Y-118601500I0J237500D01*
G01*
G37*
G36*
G01*
X153131000Y-118601500D02*
X153131000Y-118126500D01*
G75*
G02*
X153368500Y-117889000I237500J0D01*
G01*
X153943500Y-117889000D01*
G75*
G02*
X154181000Y-118126500I0J-237500D01*
G01*
X154181000Y-118601500D01*
G75*
G02*
X153943500Y-118839000I-237500J0D01*
G01*
X153368500Y-118839000D01*
G75*
G02*
X153131000Y-118601500I0J237500D01*
G01*
G37*
G36*
G01*
X151381000Y-118601500D02*
X151381000Y-118126500D01*
G75*
G02*
X151618500Y-117889000I237500J0D01*
G01*
X152193500Y-117889000D01*
G75*
G02*
X152431000Y-118126500I0J-237500D01*
G01*
X152431000Y-118601500D01*
G75*
G02*
X152193500Y-118839000I-237500J0D01*
G01*
X151618500Y-118839000D01*
G75*
G02*
X151381000Y-118601500I0J237500D01*
G01*
G37*
G36*
G01*
X147289000Y-118601500D02*
X147289000Y-118126500D01*
G75*
G02*
X147526500Y-117889000I237500J0D01*
G01*
X148101500Y-117889000D01*
G75*
G02*
X148339000Y-118126500I0J-237500D01*
G01*
X148339000Y-118601500D01*
G75*
G02*
X148101500Y-118839000I-237500J0D01*
G01*
X147526500Y-118839000D01*
G75*
G02*
X147289000Y-118601500I0J237500D01*
G01*
G37*
G36*
G01*
X145539000Y-118601500D02*
X145539000Y-118126500D01*
G75*
G02*
X145776500Y-117889000I237500J0D01*
G01*
X146351500Y-117889000D01*
G75*
G02*
X146589000Y-118126500I0J-237500D01*
G01*
X146589000Y-118601500D01*
G75*
G02*
X146351500Y-118839000I-237500J0D01*
G01*
X145776500Y-118839000D01*
G75*
G02*
X145539000Y-118601500I0J237500D01*
G01*
G37*
G36*
G01*
X185911500Y-105822000D02*
X185436500Y-105822000D01*
G75*
G02*
X185199000Y-105584500I0J237500D01*
G01*
X185199000Y-105009500D01*
G75*
G02*
X185436500Y-104772000I237500J0D01*
G01*
X185911500Y-104772000D01*
G75*
G02*
X186149000Y-105009500I0J-237500D01*
G01*
X186149000Y-105584500D01*
G75*
G02*
X185911500Y-105822000I-237500J0D01*
G01*
G37*
G36*
G01*
X185911500Y-107572000D02*
X185436500Y-107572000D01*
G75*
G02*
X185199000Y-107334500I0J237500D01*
G01*
X185199000Y-106759500D01*
G75*
G02*
X185436500Y-106522000I237500J0D01*
G01*
X185911500Y-106522000D01*
G75*
G02*
X186149000Y-106759500I0J-237500D01*
G01*
X186149000Y-107334500D01*
G75*
G02*
X185911500Y-107572000I-237500J0D01*
G01*
G37*
G36*
G01*
X181880500Y-106522000D02*
X182355500Y-106522000D01*
G75*
G02*
X182593000Y-106759500I0J-237500D01*
G01*
X182593000Y-107334500D01*
G75*
G02*
X182355500Y-107572000I-237500J0D01*
G01*
X181880500Y-107572000D01*
G75*
G02*
X181643000Y-107334500I0J237500D01*
G01*
X181643000Y-106759500D01*
G75*
G02*
X181880500Y-106522000I237500J0D01*
G01*
G37*
G36*
G01*
X181880500Y-104772000D02*
X182355500Y-104772000D01*
G75*
G02*
X182593000Y-105009500I0J-237500D01*
G01*
X182593000Y-105584500D01*
G75*
G02*
X182355500Y-105822000I-237500J0D01*
G01*
X181880500Y-105822000D01*
G75*
G02*
X181643000Y-105584500I0J237500D01*
G01*
X181643000Y-105009500D01*
G75*
G02*
X181880500Y-104772000I237500J0D01*
G01*
G37*
D12*
X139827000Y-114066000D03*
X139827000Y-116566000D03*
X151892000Y-114066000D03*
X151892000Y-116566000D03*
X146050000Y-114066000D03*
X146050000Y-116566000D03*
G36*
G01*
X132619000Y-112538500D02*
X132619000Y-113013500D01*
G75*
G02*
X132381500Y-113251000I-237500J0D01*
G01*
X131806500Y-113251000D01*
G75*
G02*
X131569000Y-113013500I0J237500D01*
G01*
X131569000Y-112538500D01*
G75*
G02*
X131806500Y-112301000I237500J0D01*
G01*
X132381500Y-112301000D01*
G75*
G02*
X132619000Y-112538500I0J-237500D01*
G01*
G37*
G36*
G01*
X134369000Y-112538500D02*
X134369000Y-113013500D01*
G75*
G02*
X134131500Y-113251000I-237500J0D01*
G01*
X133556500Y-113251000D01*
G75*
G02*
X133319000Y-113013500I0J237500D01*
G01*
X133319000Y-112538500D01*
G75*
G02*
X133556500Y-112301000I237500J0D01*
G01*
X134131500Y-112301000D01*
G75*
G02*
X134369000Y-112538500I0J-237500D01*
G01*
G37*
G36*
G01*
X137256000Y-113013500D02*
X137256000Y-112538500D01*
G75*
G02*
X137493500Y-112301000I237500J0D01*
G01*
X138068500Y-112301000D01*
G75*
G02*
X138306000Y-112538500I0J-237500D01*
G01*
X138306000Y-113013500D01*
G75*
G02*
X138068500Y-113251000I-237500J0D01*
G01*
X137493500Y-113251000D01*
G75*
G02*
X137256000Y-113013500I0J237500D01*
G01*
G37*
G36*
G01*
X135506000Y-113013500D02*
X135506000Y-112538500D01*
G75*
G02*
X135743500Y-112301000I237500J0D01*
G01*
X136318500Y-112301000D01*
G75*
G02*
X136556000Y-112538500I0J-237500D01*
G01*
X136556000Y-113013500D01*
G75*
G02*
X136318500Y-113251000I-237500J0D01*
G01*
X135743500Y-113251000D01*
G75*
G02*
X135506000Y-113013500I0J237500D01*
G01*
G37*
G36*
G01*
X142096500Y-114585000D02*
X141621500Y-114585000D01*
G75*
G02*
X141384000Y-114347500I0J237500D01*
G01*
X141384000Y-113772500D01*
G75*
G02*
X141621500Y-113535000I237500J0D01*
G01*
X142096500Y-113535000D01*
G75*
G02*
X142334000Y-113772500I0J-237500D01*
G01*
X142334000Y-114347500D01*
G75*
G02*
X142096500Y-114585000I-237500J0D01*
G01*
G37*
G36*
G01*
X142096500Y-116335000D02*
X141621500Y-116335000D01*
G75*
G02*
X141384000Y-116097500I0J237500D01*
G01*
X141384000Y-115522500D01*
G75*
G02*
X141621500Y-115285000I237500J0D01*
G01*
X142096500Y-115285000D01*
G75*
G02*
X142334000Y-115522500I0J-237500D01*
G01*
X142334000Y-116097500D01*
G75*
G02*
X142096500Y-116335000I-237500J0D01*
G01*
G37*
G36*
G01*
X154034500Y-114585000D02*
X153559500Y-114585000D01*
G75*
G02*
X153322000Y-114347500I0J237500D01*
G01*
X153322000Y-113772500D01*
G75*
G02*
X153559500Y-113535000I237500J0D01*
G01*
X154034500Y-113535000D01*
G75*
G02*
X154272000Y-113772500I0J-237500D01*
G01*
X154272000Y-114347500D01*
G75*
G02*
X154034500Y-114585000I-237500J0D01*
G01*
G37*
G36*
G01*
X154034500Y-116335000D02*
X153559500Y-116335000D01*
G75*
G02*
X153322000Y-116097500I0J237500D01*
G01*
X153322000Y-115522500D01*
G75*
G02*
X153559500Y-115285000I237500J0D01*
G01*
X154034500Y-115285000D01*
G75*
G02*
X154272000Y-115522500I0J-237500D01*
G01*
X154272000Y-116097500D01*
G75*
G02*
X154034500Y-116335000I-237500J0D01*
G01*
G37*
G36*
G01*
X148192500Y-114585000D02*
X147717500Y-114585000D01*
G75*
G02*
X147480000Y-114347500I0J237500D01*
G01*
X147480000Y-113772500D01*
G75*
G02*
X147717500Y-113535000I237500J0D01*
G01*
X148192500Y-113535000D01*
G75*
G02*
X148430000Y-113772500I0J-237500D01*
G01*
X148430000Y-114347500D01*
G75*
G02*
X148192500Y-114585000I-237500J0D01*
G01*
G37*
G36*
G01*
X148192500Y-116335000D02*
X147717500Y-116335000D01*
G75*
G02*
X147480000Y-116097500I0J237500D01*
G01*
X147480000Y-115522500D01*
G75*
G02*
X147717500Y-115285000I237500J0D01*
G01*
X148192500Y-115285000D01*
G75*
G02*
X148430000Y-115522500I0J-237500D01*
G01*
X148430000Y-116097500D01*
G75*
G02*
X148192500Y-116335000I-237500J0D01*
G01*
G37*
G36*
G01*
X174556000Y-102927999D02*
X174556000Y-103828001D01*
G75*
G02*
X174306001Y-104078000I-249999J0D01*
G01*
X173655999Y-104078000D01*
G75*
G02*
X173406000Y-103828001I0J249999D01*
G01*
X173406000Y-102927999D01*
G75*
G02*
X173655999Y-102678000I249999J0D01*
G01*
X174306001Y-102678000D01*
G75*
G02*
X174556000Y-102927999I0J-249999D01*
G01*
G37*
G36*
G01*
X176606000Y-102927999D02*
X176606000Y-103828001D01*
G75*
G02*
X176356001Y-104078000I-249999J0D01*
G01*
X175705999Y-104078000D01*
G75*
G02*
X175456000Y-103828001I0J249999D01*
G01*
X175456000Y-102927999D01*
G75*
G02*
X175705999Y-102678000I249999J0D01*
G01*
X176356001Y-102678000D01*
G75*
G02*
X176606000Y-102927999I0J-249999D01*
G01*
G37*
G36*
G01*
X172703500Y-115029500D02*
X172228500Y-115029500D01*
G75*
G02*
X171991000Y-114792000I0J237500D01*
G01*
X171991000Y-114217000D01*
G75*
G02*
X172228500Y-113979500I237500J0D01*
G01*
X172703500Y-113979500D01*
G75*
G02*
X172941000Y-114217000I0J-237500D01*
G01*
X172941000Y-114792000D01*
G75*
G02*
X172703500Y-115029500I-237500J0D01*
G01*
G37*
G36*
G01*
X172703500Y-116779500D02*
X172228500Y-116779500D01*
G75*
G02*
X171991000Y-116542000I0J237500D01*
G01*
X171991000Y-115967000D01*
G75*
G02*
X172228500Y-115729500I237500J0D01*
G01*
X172703500Y-115729500D01*
G75*
G02*
X172941000Y-115967000I0J-237500D01*
G01*
X172941000Y-116542000D01*
G75*
G02*
X172703500Y-116779500I-237500J0D01*
G01*
G37*
G36*
G01*
X175127500Y-119691999D02*
X175127500Y-120592001D01*
G75*
G02*
X174877501Y-120842000I-249999J0D01*
G01*
X174227499Y-120842000D01*
G75*
G02*
X173977500Y-120592001I0J249999D01*
G01*
X173977500Y-119691999D01*
G75*
G02*
X174227499Y-119442000I249999J0D01*
G01*
X174877501Y-119442000D01*
G75*
G02*
X175127500Y-119691999I0J-249999D01*
G01*
G37*
G36*
G01*
X177177500Y-119691999D02*
X177177500Y-120592001D01*
G75*
G02*
X176927501Y-120842000I-249999J0D01*
G01*
X176277499Y-120842000D01*
G75*
G02*
X176027500Y-120592001I0J249999D01*
G01*
X176027500Y-119691999D01*
G75*
G02*
X176277499Y-119442000I249999J0D01*
G01*
X176927501Y-119442000D01*
G75*
G02*
X177177500Y-119691999I0J-249999D01*
G01*
G37*
M02*
