G04 #@! TF.GenerationSoftware,KiCad,Pcbnew,(5.1.6)-1*
G04 #@! TF.CreationDate,2020-11-18T04:27:20-08:00*
G04 #@! TF.ProjectId,Logic Board RevA,4c6f6769-6320-4426-9f61-726420526576,rev?*
G04 #@! TF.SameCoordinates,Original*
G04 #@! TF.FileFunction,Legend,Top*
G04 #@! TF.FilePolarity,Positive*
%FSLAX46Y46*%
G04 Gerber Fmt 4.6, Leading zero omitted, Abs format (unit mm)*
G04 Created by KiCad (PCBNEW (5.1.6)-1) date 2020-11-18 04:27:20*
%MOMM*%
%LPD*%
G01*
G04 APERTURE LIST*
%ADD10C,0.152400*%
%ADD11C,0.127000*%
%ADD12C,0.150000*%
%ADD13C,0.177800*%
%ADD14C,0.203200*%
%ADD15C,0.120000*%
G04 APERTURE END LIST*
D10*
X152103666Y-91588166D02*
X152103666Y-92223166D01*
X152061333Y-92350166D01*
X151976666Y-92434833D01*
X151849666Y-92477166D01*
X151765000Y-92477166D01*
X152950333Y-92477166D02*
X152527000Y-92477166D01*
X152527000Y-91588166D01*
X153754666Y-92392500D02*
X153712333Y-92434833D01*
X153585333Y-92477166D01*
X153500666Y-92477166D01*
X153373666Y-92434833D01*
X153289000Y-92350166D01*
X153246666Y-92265500D01*
X153204333Y-92096166D01*
X153204333Y-91969166D01*
X153246666Y-91799833D01*
X153289000Y-91715166D01*
X153373666Y-91630500D01*
X153500666Y-91588166D01*
X153585333Y-91588166D01*
X153712333Y-91630500D01*
X153754666Y-91672833D01*
X154389666Y-91588166D02*
X154389666Y-92223166D01*
X154347333Y-92350166D01*
X154262666Y-92434833D01*
X154135666Y-92477166D01*
X154051000Y-92477166D01*
X155236333Y-92477166D02*
X154813000Y-92477166D01*
X154813000Y-91588166D01*
X156040666Y-92392500D02*
X155998333Y-92434833D01*
X155871333Y-92477166D01*
X155786666Y-92477166D01*
X155659666Y-92434833D01*
X155575000Y-92350166D01*
X155532666Y-92265500D01*
X155490333Y-92096166D01*
X155490333Y-91969166D01*
X155532666Y-91799833D01*
X155575000Y-91715166D01*
X155659666Y-91630500D01*
X155786666Y-91588166D01*
X155871333Y-91588166D01*
X155998333Y-91630500D01*
X156040666Y-91672833D01*
X156675666Y-91588166D02*
X156675666Y-92223166D01*
X156633333Y-92350166D01*
X156548666Y-92434833D01*
X156421666Y-92477166D01*
X156337000Y-92477166D01*
X157522333Y-92477166D02*
X157099000Y-92477166D01*
X157099000Y-91588166D01*
X158326666Y-92392500D02*
X158284333Y-92434833D01*
X158157333Y-92477166D01*
X158072666Y-92477166D01*
X157945666Y-92434833D01*
X157861000Y-92350166D01*
X157818666Y-92265500D01*
X157776333Y-92096166D01*
X157776333Y-91969166D01*
X157818666Y-91799833D01*
X157861000Y-91715166D01*
X157945666Y-91630500D01*
X158072666Y-91588166D01*
X158157333Y-91588166D01*
X158284333Y-91630500D01*
X158326666Y-91672833D01*
X158961666Y-91588166D02*
X158961666Y-92223166D01*
X158919333Y-92350166D01*
X158834666Y-92434833D01*
X158707666Y-92477166D01*
X158623000Y-92477166D01*
X159808333Y-92477166D02*
X159385000Y-92477166D01*
X159385000Y-91588166D01*
X160612666Y-92392500D02*
X160570333Y-92434833D01*
X160443333Y-92477166D01*
X160358666Y-92477166D01*
X160231666Y-92434833D01*
X160147000Y-92350166D01*
X160104666Y-92265500D01*
X160062333Y-92096166D01*
X160062333Y-91969166D01*
X160104666Y-91799833D01*
X160147000Y-91715166D01*
X160231666Y-91630500D01*
X160358666Y-91588166D01*
X160443333Y-91588166D01*
X160570333Y-91630500D01*
X160612666Y-91672833D01*
D11*
X156911523Y-132367261D02*
X157123190Y-133002261D01*
X157334857Y-132367261D01*
X157546523Y-133002261D02*
X157546523Y-132367261D01*
X157848904Y-133002261D02*
X157848904Y-132367261D01*
X158211761Y-133002261D01*
X158211761Y-132367261D01*
X147743333Y-133667500D02*
X147701000Y-133709833D01*
X147574000Y-133752166D01*
X147489333Y-133752166D01*
X147362333Y-133709833D01*
X147277666Y-133625166D01*
X147235333Y-133540500D01*
X147193000Y-133371166D01*
X147193000Y-133244166D01*
X147235333Y-133074833D01*
X147277666Y-132990166D01*
X147362333Y-132905500D01*
X147489333Y-132863166D01*
X147574000Y-132863166D01*
X147701000Y-132905500D01*
X147743333Y-132947833D01*
X148547666Y-133752166D02*
X148124333Y-133752166D01*
X148124333Y-132863166D01*
X149352000Y-133752166D02*
X149055666Y-133328833D01*
X148844000Y-133752166D02*
X148844000Y-132863166D01*
X149182666Y-132863166D01*
X149267333Y-132905500D01*
X149309666Y-132947833D01*
X149352000Y-133032500D01*
X149352000Y-133159500D01*
X149309666Y-133244166D01*
X149267333Y-133286500D01*
X149182666Y-133328833D01*
X148844000Y-133328833D01*
X149521333Y-133836833D02*
X150198666Y-133836833D01*
X150410333Y-133752166D02*
X150410333Y-132863166D01*
X150749000Y-132863166D01*
X150833666Y-132905500D01*
X150876000Y-132947833D01*
X150918333Y-133032500D01*
X150918333Y-133159500D01*
X150876000Y-133244166D01*
X150833666Y-133286500D01*
X150749000Y-133328833D01*
X150410333Y-133328833D01*
X151468666Y-132863166D02*
X151638000Y-132863166D01*
X151722666Y-132905500D01*
X151807333Y-132990166D01*
X151849666Y-133159500D01*
X151849666Y-133455833D01*
X151807333Y-133625166D01*
X151722666Y-133709833D01*
X151638000Y-133752166D01*
X151468666Y-133752166D01*
X151384000Y-133709833D01*
X151299333Y-133625166D01*
X151257000Y-133455833D01*
X151257000Y-133159500D01*
X151299333Y-132990166D01*
X151384000Y-132905500D01*
X151468666Y-132863166D01*
X152103666Y-132863166D02*
X152611666Y-132863166D01*
X152357666Y-133752166D02*
X152357666Y-132863166D01*
X133582833Y-133286500D02*
X133709833Y-133328833D01*
X133752166Y-133371166D01*
X133794500Y-133455833D01*
X133794500Y-133582833D01*
X133752166Y-133667500D01*
X133709833Y-133709833D01*
X133625166Y-133752166D01*
X133286500Y-133752166D01*
X133286500Y-132863166D01*
X133582833Y-132863166D01*
X133667500Y-132905500D01*
X133709833Y-132947833D01*
X133752166Y-133032500D01*
X133752166Y-133117166D01*
X133709833Y-133201833D01*
X133667500Y-133244166D01*
X133582833Y-133286500D01*
X133286500Y-133286500D01*
X134683500Y-133752166D02*
X134387166Y-133328833D01*
X134175500Y-133752166D02*
X134175500Y-132863166D01*
X134514166Y-132863166D01*
X134598833Y-132905500D01*
X134641166Y-132947833D01*
X134683500Y-133032500D01*
X134683500Y-133159500D01*
X134641166Y-133244166D01*
X134598833Y-133286500D01*
X134514166Y-133328833D01*
X134175500Y-133328833D01*
X134937500Y-132863166D02*
X135445500Y-132863166D01*
X135191500Y-133752166D02*
X135191500Y-132863166D01*
X135530166Y-133836833D02*
X136207500Y-133836833D01*
X136419166Y-133752166D02*
X136419166Y-132863166D01*
X136757833Y-132863166D01*
X136842500Y-132905500D01*
X136884833Y-132947833D01*
X136927166Y-133032500D01*
X136927166Y-133159500D01*
X136884833Y-133244166D01*
X136842500Y-133286500D01*
X136757833Y-133328833D01*
X136419166Y-133328833D01*
X137477500Y-132863166D02*
X137646833Y-132863166D01*
X137731500Y-132905500D01*
X137816166Y-132990166D01*
X137858500Y-133159500D01*
X137858500Y-133455833D01*
X137816166Y-133625166D01*
X137731500Y-133709833D01*
X137646833Y-133752166D01*
X137477500Y-133752166D01*
X137392833Y-133709833D01*
X137308166Y-133625166D01*
X137265833Y-133455833D01*
X137265833Y-133159500D01*
X137308166Y-132990166D01*
X137392833Y-132905500D01*
X137477500Y-132863166D01*
X138112500Y-132863166D02*
X138620500Y-132863166D01*
X138366500Y-133752166D02*
X138366500Y-132863166D01*
X185737500Y-87478809D02*
X185707261Y-87539285D01*
X185707261Y-87630000D01*
X185737500Y-87720714D01*
X185797976Y-87781190D01*
X185858452Y-87811428D01*
X185979404Y-87841666D01*
X186070119Y-87841666D01*
X186191071Y-87811428D01*
X186251547Y-87781190D01*
X186312023Y-87720714D01*
X186342261Y-87630000D01*
X186342261Y-87569523D01*
X186312023Y-87478809D01*
X186281785Y-87448571D01*
X186070119Y-87448571D01*
X186070119Y-87569523D01*
X186342261Y-87176428D02*
X185707261Y-87176428D01*
X186342261Y-86813571D01*
X185707261Y-86813571D01*
X186342261Y-86511190D02*
X185707261Y-86511190D01*
X185707261Y-86360000D01*
X185737500Y-86269285D01*
X185797976Y-86208809D01*
X185858452Y-86178571D01*
X185979404Y-86148333D01*
X186070119Y-86148333D01*
X186191071Y-86178571D01*
X186251547Y-86208809D01*
X186312023Y-86269285D01*
X186342261Y-86360000D01*
X186342261Y-86511190D01*
X118427500Y-123341190D02*
X118457738Y-123280714D01*
X118457738Y-123190000D01*
X118427500Y-123099285D01*
X118367023Y-123038809D01*
X118306547Y-123008571D01*
X118185595Y-122978333D01*
X118094880Y-122978333D01*
X117973928Y-123008571D01*
X117913452Y-123038809D01*
X117852976Y-123099285D01*
X117822738Y-123190000D01*
X117822738Y-123250476D01*
X117852976Y-123341190D01*
X117883214Y-123371428D01*
X118094880Y-123371428D01*
X118094880Y-123250476D01*
X117822738Y-123643571D02*
X118457738Y-123643571D01*
X117822738Y-124006428D01*
X118457738Y-124006428D01*
X117822738Y-124308809D02*
X118457738Y-124308809D01*
X118457738Y-124460000D01*
X118427500Y-124550714D01*
X118367023Y-124611190D01*
X118306547Y-124641428D01*
X118185595Y-124671666D01*
X118094880Y-124671666D01*
X117973928Y-124641428D01*
X117913452Y-124611190D01*
X117852976Y-124550714D01*
X117822738Y-124460000D01*
X117822738Y-124308809D01*
X125442738Y-121542023D02*
X124807738Y-121753690D01*
X125442738Y-121965357D01*
X125442738Y-122297976D02*
X125442738Y-122418928D01*
X125412500Y-122479404D01*
X125352023Y-122539880D01*
X125231071Y-122570119D01*
X125019404Y-122570119D01*
X124898452Y-122539880D01*
X124837976Y-122479404D01*
X124807738Y-122418928D01*
X124807738Y-122297976D01*
X124837976Y-122237500D01*
X124898452Y-122177023D01*
X125019404Y-122146785D01*
X125231071Y-122146785D01*
X125352023Y-122177023D01*
X125412500Y-122237500D01*
X125442738Y-122297976D01*
X125442738Y-122842261D02*
X124928690Y-122842261D01*
X124868214Y-122872500D01*
X124837976Y-122902738D01*
X124807738Y-122963214D01*
X124807738Y-123084166D01*
X124837976Y-123144642D01*
X124868214Y-123174880D01*
X124928690Y-123205119D01*
X125442738Y-123205119D01*
X125442738Y-123416785D02*
X125442738Y-123779642D01*
X124807738Y-123598214D02*
X125442738Y-123598214D01*
X124747261Y-123840119D02*
X124747261Y-124323928D01*
X124837976Y-124444880D02*
X124807738Y-124535595D01*
X124807738Y-124686785D01*
X124837976Y-124747261D01*
X124868214Y-124777500D01*
X124928690Y-124807738D01*
X124989166Y-124807738D01*
X125049642Y-124777500D01*
X125079880Y-124747261D01*
X125110119Y-124686785D01*
X125140357Y-124565833D01*
X125170595Y-124505357D01*
X125200833Y-124475119D01*
X125261309Y-124444880D01*
X125321785Y-124444880D01*
X125382261Y-124475119D01*
X125412500Y-124505357D01*
X125442738Y-124565833D01*
X125442738Y-124717023D01*
X125412500Y-124807738D01*
X125140357Y-125079880D02*
X125140357Y-125291547D01*
X124807738Y-125382261D02*
X124807738Y-125079880D01*
X125442738Y-125079880D01*
X125442738Y-125382261D01*
X124807738Y-125654404D02*
X125442738Y-125654404D01*
X124807738Y-126017261D01*
X125442738Y-126017261D01*
X118155357Y-117399404D02*
X118155357Y-117187738D01*
X117822738Y-117187738D02*
X118457738Y-117187738D01*
X118457738Y-117490119D01*
X118004166Y-117701785D02*
X118004166Y-118004166D01*
X117822738Y-117641309D02*
X118457738Y-117852976D01*
X117822738Y-118064642D01*
X117822738Y-118276309D02*
X118457738Y-118276309D01*
X117822738Y-118639166D01*
X118457738Y-118639166D01*
X117762261Y-118790357D02*
X117762261Y-119274166D01*
X118155357Y-119637023D02*
X118155357Y-119425357D01*
X117822738Y-119425357D02*
X118457738Y-119425357D01*
X118457738Y-119727738D01*
X118155357Y-120181309D02*
X118125119Y-120272023D01*
X118094880Y-120302261D01*
X118034404Y-120332500D01*
X117943690Y-120332500D01*
X117883214Y-120302261D01*
X117852976Y-120272023D01*
X117822738Y-120211547D01*
X117822738Y-119969642D01*
X118457738Y-119969642D01*
X118457738Y-120181309D01*
X118427500Y-120241785D01*
X118397261Y-120272023D01*
X118336785Y-120302261D01*
X118276309Y-120302261D01*
X118215833Y-120272023D01*
X118185595Y-120241785D01*
X118155357Y-120181309D01*
X118155357Y-119969642D01*
X125442738Y-116885357D02*
X124807738Y-117097023D01*
X125442738Y-117308690D01*
X124807738Y-117520357D02*
X125442738Y-117520357D01*
X124807738Y-117822738D02*
X125442738Y-117822738D01*
X124807738Y-118185595D01*
X125442738Y-118185595D01*
X124747261Y-118336785D02*
X124747261Y-118820595D01*
X124837976Y-118941547D02*
X124807738Y-119032261D01*
X124807738Y-119183452D01*
X124837976Y-119243928D01*
X124868214Y-119274166D01*
X124928690Y-119304404D01*
X124989166Y-119304404D01*
X125049642Y-119274166D01*
X125079880Y-119243928D01*
X125110119Y-119183452D01*
X125140357Y-119062500D01*
X125170595Y-119002023D01*
X125200833Y-118971785D01*
X125261309Y-118941547D01*
X125321785Y-118941547D01*
X125382261Y-118971785D01*
X125412500Y-119002023D01*
X125442738Y-119062500D01*
X125442738Y-119213690D01*
X125412500Y-119304404D01*
X125140357Y-119576547D02*
X125140357Y-119788214D01*
X124807738Y-119878928D02*
X124807738Y-119576547D01*
X125442738Y-119576547D01*
X125442738Y-119878928D01*
X124807738Y-120151071D02*
X125442738Y-120151071D01*
X124807738Y-120513928D01*
X125442738Y-120513928D01*
D12*
X187269380Y-118840285D02*
X187269380Y-119411714D01*
X187269380Y-119126000D02*
X186269380Y-119126000D01*
X186412238Y-119221238D01*
X186507476Y-119316476D01*
X186555095Y-119411714D01*
D10*
X166285333Y-133180666D02*
X166793333Y-133180666D01*
X166539333Y-134069666D02*
X166539333Y-133180666D01*
X167259000Y-133180666D02*
X167428333Y-133180666D01*
X167513000Y-133223000D01*
X167597666Y-133307666D01*
X167640000Y-133477000D01*
X167640000Y-133773333D01*
X167597666Y-133942666D01*
X167513000Y-134027333D01*
X167428333Y-134069666D01*
X167259000Y-134069666D01*
X167174333Y-134027333D01*
X167089666Y-133942666D01*
X167047333Y-133773333D01*
X167047333Y-133477000D01*
X167089666Y-133307666D01*
X167174333Y-133223000D01*
X167259000Y-133180666D01*
X168698333Y-134069666D02*
X168698333Y-133180666D01*
X169037000Y-133180666D01*
X169121666Y-133223000D01*
X169164000Y-133265333D01*
X169206333Y-133350000D01*
X169206333Y-133477000D01*
X169164000Y-133561666D01*
X169121666Y-133604000D01*
X169037000Y-133646333D01*
X168698333Y-133646333D01*
X169502666Y-133180666D02*
X169714333Y-134069666D01*
X169883666Y-133434666D01*
X170053000Y-134069666D01*
X170264666Y-133180666D01*
X171111333Y-134069666D02*
X170815000Y-133646333D01*
X170603333Y-134069666D02*
X170603333Y-133180666D01*
X170942000Y-133180666D01*
X171026666Y-133223000D01*
X171069000Y-133265333D01*
X171111333Y-133350000D01*
X171111333Y-133477000D01*
X171069000Y-133561666D01*
X171026666Y-133604000D01*
X170942000Y-133646333D01*
X170603333Y-133646333D01*
X172466000Y-133604000D02*
X172593000Y-133646333D01*
X172635333Y-133688666D01*
X172677666Y-133773333D01*
X172677666Y-133900333D01*
X172635333Y-133985000D01*
X172593000Y-134027333D01*
X172508333Y-134069666D01*
X172169666Y-134069666D01*
X172169666Y-133180666D01*
X172466000Y-133180666D01*
X172550666Y-133223000D01*
X172593000Y-133265333D01*
X172635333Y-133350000D01*
X172635333Y-133434666D01*
X172593000Y-133519333D01*
X172550666Y-133561666D01*
X172466000Y-133604000D01*
X172169666Y-133604000D01*
X173228000Y-133180666D02*
X173397333Y-133180666D01*
X173482000Y-133223000D01*
X173566666Y-133307666D01*
X173609000Y-133477000D01*
X173609000Y-133773333D01*
X173566666Y-133942666D01*
X173482000Y-134027333D01*
X173397333Y-134069666D01*
X173228000Y-134069666D01*
X173143333Y-134027333D01*
X173058666Y-133942666D01*
X173016333Y-133773333D01*
X173016333Y-133477000D01*
X173058666Y-133307666D01*
X173143333Y-133223000D01*
X173228000Y-133180666D01*
X173947666Y-133815666D02*
X174371000Y-133815666D01*
X173863000Y-134069666D02*
X174159333Y-133180666D01*
X174455666Y-134069666D01*
X175260000Y-134069666D02*
X174963666Y-133646333D01*
X174752000Y-134069666D02*
X174752000Y-133180666D01*
X175090666Y-133180666D01*
X175175333Y-133223000D01*
X175217666Y-133265333D01*
X175260000Y-133350000D01*
X175260000Y-133477000D01*
X175217666Y-133561666D01*
X175175333Y-133604000D01*
X175090666Y-133646333D01*
X174752000Y-133646333D01*
X175641000Y-134069666D02*
X175641000Y-133180666D01*
X175852666Y-133180666D01*
X175979666Y-133223000D01*
X176064333Y-133307666D01*
X176106666Y-133392333D01*
X176149000Y-133561666D01*
X176149000Y-133688666D01*
X176106666Y-133858000D01*
X176064333Y-133942666D01*
X175979666Y-134027333D01*
X175852666Y-134069666D01*
X175641000Y-134069666D01*
D11*
X124868214Y-112213571D02*
X124837976Y-112183333D01*
X124807738Y-112092619D01*
X124807738Y-112032142D01*
X124837976Y-111941428D01*
X124898452Y-111880952D01*
X124958928Y-111850714D01*
X125079880Y-111820476D01*
X125170595Y-111820476D01*
X125291547Y-111850714D01*
X125352023Y-111880952D01*
X125412500Y-111941428D01*
X125442738Y-112032142D01*
X125442738Y-112092619D01*
X125412500Y-112183333D01*
X125382261Y-112213571D01*
X124807738Y-112788095D02*
X124807738Y-112485714D01*
X125442738Y-112485714D01*
X124807738Y-113362619D02*
X125110119Y-113150952D01*
X124807738Y-112999761D02*
X125442738Y-112999761D01*
X125442738Y-113241666D01*
X125412500Y-113302142D01*
X125382261Y-113332380D01*
X125321785Y-113362619D01*
X125231071Y-113362619D01*
X125170595Y-113332380D01*
X125140357Y-113302142D01*
X125110119Y-113241666D01*
X125110119Y-112999761D01*
X124747261Y-113483571D02*
X124747261Y-113967380D01*
X124989166Y-114088333D02*
X124989166Y-114390714D01*
X124807738Y-114027857D02*
X125442738Y-114239523D01*
X124807738Y-114451190D01*
X124807738Y-114662857D02*
X125442738Y-114662857D01*
X125442738Y-114814047D01*
X125412500Y-114904761D01*
X125352023Y-114965238D01*
X125291547Y-114995476D01*
X125170595Y-115025714D01*
X125079880Y-115025714D01*
X124958928Y-114995476D01*
X124898452Y-114965238D01*
X124837976Y-114904761D01*
X124807738Y-114814047D01*
X124807738Y-114662857D01*
X125442738Y-115479285D02*
X124989166Y-115479285D01*
X124898452Y-115449047D01*
X124837976Y-115388571D01*
X124807738Y-115297857D01*
X124807738Y-115237380D01*
X118282357Y-112077500D02*
X118252119Y-112168214D01*
X118221880Y-112198452D01*
X118161404Y-112228690D01*
X118070690Y-112228690D01*
X118010214Y-112198452D01*
X117979976Y-112168214D01*
X117949738Y-112107738D01*
X117949738Y-111865833D01*
X118584738Y-111865833D01*
X118584738Y-112077500D01*
X118554500Y-112137976D01*
X118524261Y-112168214D01*
X118463785Y-112198452D01*
X118403309Y-112198452D01*
X118342833Y-112168214D01*
X118312595Y-112137976D01*
X118282357Y-112077500D01*
X118282357Y-111865833D01*
X117949738Y-112863690D02*
X118252119Y-112652023D01*
X117949738Y-112500833D02*
X118584738Y-112500833D01*
X118584738Y-112742738D01*
X118554500Y-112803214D01*
X118524261Y-112833452D01*
X118463785Y-112863690D01*
X118373071Y-112863690D01*
X118312595Y-112833452D01*
X118282357Y-112803214D01*
X118252119Y-112742738D01*
X118252119Y-112500833D01*
X118584738Y-113045119D02*
X118584738Y-113407976D01*
X117949738Y-113226547D02*
X118584738Y-113226547D01*
X117889261Y-113468452D02*
X117889261Y-113952261D01*
X118131166Y-114073214D02*
X118131166Y-114375595D01*
X117949738Y-114012738D02*
X118584738Y-114224404D01*
X117949738Y-114436071D01*
X117949738Y-114647738D02*
X118584738Y-114647738D01*
X118584738Y-114798928D01*
X118554500Y-114889642D01*
X118494023Y-114950119D01*
X118433547Y-114980357D01*
X118312595Y-115010595D01*
X118221880Y-115010595D01*
X118100928Y-114980357D01*
X118040452Y-114950119D01*
X117979976Y-114889642D01*
X117949738Y-114798928D01*
X117949738Y-114647738D01*
X118584738Y-115464166D02*
X118131166Y-115464166D01*
X118040452Y-115433928D01*
X117979976Y-115373452D01*
X117949738Y-115282738D01*
X117949738Y-115222261D01*
X185707261Y-92921666D02*
X186342261Y-92710000D01*
X185707261Y-92498333D01*
X186281785Y-91923809D02*
X186312023Y-91954047D01*
X186342261Y-92044761D01*
X186342261Y-92105238D01*
X186312023Y-92195952D01*
X186251547Y-92256428D01*
X186191071Y-92286666D01*
X186070119Y-92316904D01*
X185979404Y-92316904D01*
X185858452Y-92286666D01*
X185797976Y-92256428D01*
X185737500Y-92195952D01*
X185707261Y-92105238D01*
X185707261Y-92044761D01*
X185737500Y-91954047D01*
X185767738Y-91923809D01*
X186281785Y-91288809D02*
X186312023Y-91319047D01*
X186342261Y-91409761D01*
X186342261Y-91470238D01*
X186312023Y-91560952D01*
X186251547Y-91621428D01*
X186191071Y-91651666D01*
X186070119Y-91681904D01*
X185979404Y-91681904D01*
X185858452Y-91651666D01*
X185797976Y-91621428D01*
X185737500Y-91560952D01*
X185707261Y-91470238D01*
X185707261Y-91409761D01*
X185737500Y-91319047D01*
X185767738Y-91288809D01*
D13*
X168692285Y-78730928D02*
X168039142Y-78730928D01*
X168365714Y-77587928D02*
X168365714Y-78730928D01*
X167658142Y-78186642D02*
X167277142Y-78186642D01*
X167113857Y-77587928D02*
X167658142Y-77587928D01*
X167658142Y-78730928D01*
X167113857Y-78730928D01*
X166624000Y-77587928D02*
X166624000Y-78730928D01*
X166243000Y-77914500D01*
X165862000Y-78730928D01*
X165862000Y-77587928D01*
X165317714Y-77587928D02*
X165317714Y-78730928D01*
X164882285Y-78730928D01*
X164773428Y-78676500D01*
X164719000Y-78622071D01*
X164664571Y-78513214D01*
X164664571Y-78349928D01*
X164719000Y-78241071D01*
X164773428Y-78186642D01*
X164882285Y-78132214D01*
X165317714Y-78132214D01*
X179305857Y-77587928D02*
X179305857Y-78730928D01*
X178870428Y-78730928D01*
X178761571Y-78676500D01*
X178707142Y-78622071D01*
X178652714Y-78513214D01*
X178652714Y-78349928D01*
X178707142Y-78241071D01*
X178761571Y-78186642D01*
X178870428Y-78132214D01*
X179305857Y-78132214D01*
X178271714Y-78730928D02*
X177999571Y-77587928D01*
X177781857Y-78404357D01*
X177564142Y-77587928D01*
X177292000Y-78730928D01*
X176203428Y-77587928D02*
X176584428Y-78132214D01*
X176856571Y-77587928D02*
X176856571Y-78730928D01*
X176421142Y-78730928D01*
X176312285Y-78676500D01*
X176257857Y-78622071D01*
X176203428Y-78513214D01*
X176203428Y-78349928D01*
X176257857Y-78241071D01*
X176312285Y-78186642D01*
X176421142Y-78132214D01*
X176856571Y-78132214D01*
X175985714Y-77479071D02*
X175114857Y-77479071D01*
X174897142Y-77642357D02*
X174733857Y-77587928D01*
X174461714Y-77587928D01*
X174352857Y-77642357D01*
X174298428Y-77696785D01*
X174244000Y-77805642D01*
X174244000Y-77914500D01*
X174298428Y-78023357D01*
X174352857Y-78077785D01*
X174461714Y-78132214D01*
X174679428Y-78186642D01*
X174788285Y-78241071D01*
X174842714Y-78295500D01*
X174897142Y-78404357D01*
X174897142Y-78513214D01*
X174842714Y-78622071D01*
X174788285Y-78676500D01*
X174679428Y-78730928D01*
X174407285Y-78730928D01*
X174244000Y-78676500D01*
X173863000Y-78730928D02*
X173590857Y-77587928D01*
X173373142Y-78404357D01*
X173155428Y-77587928D01*
X172883285Y-78730928D01*
D14*
X135853714Y-96985666D02*
X136458476Y-96985666D01*
X135732761Y-97348523D02*
X136156095Y-96078523D01*
X136579428Y-97348523D01*
X137728476Y-97348523D02*
X137305142Y-96743761D01*
X137002761Y-97348523D02*
X137002761Y-96078523D01*
X137486571Y-96078523D01*
X137607523Y-96139000D01*
X137668000Y-96199476D01*
X137728476Y-96320428D01*
X137728476Y-96501857D01*
X137668000Y-96622809D01*
X137607523Y-96683285D01*
X137486571Y-96743761D01*
X137002761Y-96743761D01*
X138272761Y-97348523D02*
X138272761Y-96078523D01*
X138575142Y-96078523D01*
X138756571Y-96139000D01*
X138877523Y-96259952D01*
X138938000Y-96380904D01*
X138998476Y-96622809D01*
X138998476Y-96804238D01*
X138938000Y-97046142D01*
X138877523Y-97167095D01*
X138756571Y-97288047D01*
X138575142Y-97348523D01*
X138272761Y-97348523D01*
X139542761Y-96078523D02*
X139542761Y-97106619D01*
X139603238Y-97227571D01*
X139663714Y-97288047D01*
X139784666Y-97348523D01*
X140026571Y-97348523D01*
X140147523Y-97288047D01*
X140208000Y-97227571D01*
X140268476Y-97106619D01*
X140268476Y-96078523D01*
X140873238Y-97348523D02*
X140873238Y-96078523D01*
X141478000Y-97348523D02*
X141478000Y-96078523D01*
X142203714Y-97348523D01*
X142203714Y-96078523D01*
X143050380Y-96078523D02*
X143292285Y-96078523D01*
X143413238Y-96139000D01*
X143534190Y-96259952D01*
X143594666Y-96501857D01*
X143594666Y-96925190D01*
X143534190Y-97167095D01*
X143413238Y-97288047D01*
X143292285Y-97348523D01*
X143050380Y-97348523D01*
X142929428Y-97288047D01*
X142808476Y-97167095D01*
X142748000Y-96925190D01*
X142748000Y-96501857D01*
X142808476Y-96259952D01*
X142929428Y-96139000D01*
X143050380Y-96078523D01*
X145106571Y-97348523D02*
X145106571Y-96078523D01*
X145832285Y-97348523D01*
X145832285Y-96078523D01*
X146376571Y-96985666D02*
X146981333Y-96985666D01*
X146255619Y-97348523D02*
X146678952Y-96078523D01*
X147102285Y-97348523D01*
X147525619Y-97348523D02*
X147525619Y-96078523D01*
X148251333Y-97348523D01*
X148251333Y-96078523D01*
X149098000Y-96078523D02*
X149339904Y-96078523D01*
X149460857Y-96139000D01*
X149581809Y-96259952D01*
X149642285Y-96501857D01*
X149642285Y-96925190D01*
X149581809Y-97167095D01*
X149460857Y-97288047D01*
X149339904Y-97348523D01*
X149098000Y-97348523D01*
X148977047Y-97288047D01*
X148856095Y-97167095D01*
X148795619Y-96925190D01*
X148795619Y-96501857D01*
X148856095Y-96259952D01*
X148977047Y-96139000D01*
X149098000Y-96078523D01*
D10*
X124354166Y-98065166D02*
X124354166Y-98784833D01*
X124396500Y-98869500D01*
X124438833Y-98911833D01*
X124523500Y-98954166D01*
X124692833Y-98954166D01*
X124777500Y-98911833D01*
X124819833Y-98869500D01*
X124862166Y-98784833D01*
X124862166Y-98065166D01*
X125243166Y-98911833D02*
X125370166Y-98954166D01*
X125581833Y-98954166D01*
X125666500Y-98911833D01*
X125708833Y-98869500D01*
X125751166Y-98784833D01*
X125751166Y-98700166D01*
X125708833Y-98615500D01*
X125666500Y-98573166D01*
X125581833Y-98530833D01*
X125412500Y-98488500D01*
X125327833Y-98446166D01*
X125285500Y-98403833D01*
X125243166Y-98319166D01*
X125243166Y-98234500D01*
X125285500Y-98149833D01*
X125327833Y-98107500D01*
X125412500Y-98065166D01*
X125624166Y-98065166D01*
X125751166Y-98107500D01*
X126428500Y-98488500D02*
X126555500Y-98530833D01*
X126597833Y-98573166D01*
X126640166Y-98657833D01*
X126640166Y-98784833D01*
X126597833Y-98869500D01*
X126555500Y-98911833D01*
X126470833Y-98954166D01*
X126132166Y-98954166D01*
X126132166Y-98065166D01*
X126428500Y-98065166D01*
X126513166Y-98107500D01*
X126555500Y-98149833D01*
X126597833Y-98234500D01*
X126597833Y-98319166D01*
X126555500Y-98403833D01*
X126513166Y-98446166D01*
X126428500Y-98488500D01*
X126132166Y-98488500D01*
X127698500Y-98954166D02*
X127698500Y-98065166D01*
X128037166Y-98065166D01*
X128121833Y-98107500D01*
X128164166Y-98149833D01*
X128206500Y-98234500D01*
X128206500Y-98361500D01*
X128164166Y-98446166D01*
X128121833Y-98488500D01*
X128037166Y-98530833D01*
X127698500Y-98530833D01*
X128756833Y-98065166D02*
X128926166Y-98065166D01*
X129010833Y-98107500D01*
X129095500Y-98192166D01*
X129137833Y-98361500D01*
X129137833Y-98657833D01*
X129095500Y-98827166D01*
X129010833Y-98911833D01*
X128926166Y-98954166D01*
X128756833Y-98954166D01*
X128672166Y-98911833D01*
X128587500Y-98827166D01*
X128545166Y-98657833D01*
X128545166Y-98361500D01*
X128587500Y-98192166D01*
X128672166Y-98107500D01*
X128756833Y-98065166D01*
X130026833Y-98954166D02*
X129730500Y-98530833D01*
X129518833Y-98954166D02*
X129518833Y-98065166D01*
X129857500Y-98065166D01*
X129942166Y-98107500D01*
X129984500Y-98149833D01*
X130026833Y-98234500D01*
X130026833Y-98361500D01*
X129984500Y-98446166D01*
X129942166Y-98488500D01*
X129857500Y-98530833D01*
X129518833Y-98530833D01*
X130280833Y-98065166D02*
X130788833Y-98065166D01*
X130534833Y-98954166D02*
X130534833Y-98065166D01*
D15*
X124714000Y-96774000D02*
X125730000Y-97536000D01*
X124714000Y-96774000D02*
X125730000Y-96012000D01*
X128524000Y-96774000D02*
X124714000Y-96774000D01*
X124714000Y-96774000D02*
X128524000Y-96774000D01*
X123952000Y-99822000D02*
X123952000Y-96774000D01*
X123952000Y-93726000D02*
X120650000Y-93726000D01*
X123952000Y-99822000D02*
X120650000Y-99822000D01*
X123952000Y-96774000D02*
X123952000Y-93726000D01*
X164338000Y-119888000D02*
X164338000Y-110998000D01*
X162306000Y-110998000D02*
X162306000Y-115570000D01*
X168402000Y-110998000D02*
X162306000Y-110998000D01*
X168402000Y-115570000D02*
X168402000Y-110998000D01*
X168402000Y-119888000D02*
X168402000Y-115570000D01*
X162306000Y-119888000D02*
X168402000Y-119888000D01*
X162306000Y-115570000D02*
X162306000Y-119888000D01*
X168402000Y-115570000D02*
X162306000Y-115570000D01*
D10*
X162892619Y-118388190D02*
X163618333Y-118388190D01*
X163763476Y-118436571D01*
X163860238Y-118533333D01*
X163908619Y-118678476D01*
X163908619Y-118775238D01*
X162989380Y-117952761D02*
X162941000Y-117904380D01*
X162892619Y-117807619D01*
X162892619Y-117565714D01*
X162941000Y-117468952D01*
X162989380Y-117420571D01*
X163086142Y-117372190D01*
X163182904Y-117372190D01*
X163328047Y-117420571D01*
X163908619Y-118001142D01*
X163908619Y-117372190D01*
X162892619Y-114759619D02*
X163908619Y-114420952D01*
X162892619Y-114082285D01*
X163811857Y-113163047D02*
X163860238Y-113211428D01*
X163908619Y-113356571D01*
X163908619Y-113453333D01*
X163860238Y-113598476D01*
X163763476Y-113695238D01*
X163666714Y-113743619D01*
X163473190Y-113792000D01*
X163328047Y-113792000D01*
X163134523Y-113743619D01*
X163037761Y-113695238D01*
X162941000Y-113598476D01*
X162892619Y-113453333D01*
X162892619Y-113356571D01*
X162941000Y-113211428D01*
X162989380Y-113163047D01*
X163811857Y-112147047D02*
X163860238Y-112195428D01*
X163908619Y-112340571D01*
X163908619Y-112437333D01*
X163860238Y-112582476D01*
X163763476Y-112679238D01*
X163666714Y-112727619D01*
X163473190Y-112776000D01*
X163328047Y-112776000D01*
X163134523Y-112727619D01*
X163037761Y-112679238D01*
X162941000Y-112582476D01*
X162892619Y-112437333D01*
X162892619Y-112340571D01*
X162941000Y-112195428D01*
X162989380Y-112147047D01*
X165991419Y-118760844D02*
X165991419Y-119341416D01*
X165991419Y-119051130D02*
X164975419Y-119051130D01*
X165120561Y-119147892D01*
X165217323Y-119244654D01*
X165265704Y-119341416D01*
X165604371Y-118325416D02*
X165604371Y-117551320D01*
X165072180Y-117115892D02*
X165023800Y-117067511D01*
X164975419Y-116970749D01*
X164975419Y-116728844D01*
X165023800Y-116632082D01*
X165072180Y-116583701D01*
X165168942Y-116535320D01*
X165265704Y-116535320D01*
X165410847Y-116583701D01*
X165991419Y-117164273D01*
X165991419Y-116535320D01*
X164975419Y-114648463D02*
X164975419Y-114019511D01*
X165362466Y-114358178D01*
X165362466Y-114213035D01*
X165410847Y-114116273D01*
X165459228Y-114067892D01*
X165555990Y-114019511D01*
X165797895Y-114019511D01*
X165894657Y-114067892D01*
X165943038Y-114116273D01*
X165991419Y-114213035D01*
X165991419Y-114503320D01*
X165943038Y-114600082D01*
X165894657Y-114648463D01*
X165894657Y-113584082D02*
X165943038Y-113535701D01*
X165991419Y-113584082D01*
X165943038Y-113632463D01*
X165894657Y-113584082D01*
X165991419Y-113584082D01*
X164975419Y-113197035D02*
X164975419Y-112568082D01*
X165362466Y-112906749D01*
X165362466Y-112761606D01*
X165410847Y-112664844D01*
X165459228Y-112616463D01*
X165555990Y-112568082D01*
X165797895Y-112568082D01*
X165894657Y-112616463D01*
X165943038Y-112664844D01*
X165991419Y-112761606D01*
X165991419Y-113051892D01*
X165943038Y-113148654D01*
X165894657Y-113197035D01*
X164975419Y-112277797D02*
X165991419Y-111939130D01*
X164975419Y-111600463D01*
X166748580Y-119341416D02*
X166700200Y-119293035D01*
X166651819Y-119196273D01*
X166651819Y-118954368D01*
X166700200Y-118857606D01*
X166748580Y-118809225D01*
X166845342Y-118760844D01*
X166942104Y-118760844D01*
X167087247Y-118809225D01*
X167667819Y-119389797D01*
X167667819Y-118760844D01*
X167280771Y-118325416D02*
X167280771Y-117551320D01*
X166651819Y-117164273D02*
X166651819Y-116535320D01*
X167038866Y-116873987D01*
X167038866Y-116728844D01*
X167087247Y-116632082D01*
X167135628Y-116583701D01*
X167232390Y-116535320D01*
X167474295Y-116535320D01*
X167571057Y-116583701D01*
X167619438Y-116632082D01*
X167667819Y-116728844D01*
X167667819Y-117019130D01*
X167619438Y-117115892D01*
X167571057Y-117164273D01*
X166651819Y-114067892D02*
X166651819Y-114551701D01*
X167135628Y-114600082D01*
X167087247Y-114551701D01*
X167038866Y-114454940D01*
X167038866Y-114213035D01*
X167087247Y-114116273D01*
X167135628Y-114067892D01*
X167232390Y-114019511D01*
X167474295Y-114019511D01*
X167571057Y-114067892D01*
X167619438Y-114116273D01*
X167667819Y-114213035D01*
X167667819Y-114454940D01*
X167619438Y-114551701D01*
X167571057Y-114600082D01*
X166651819Y-113729225D02*
X167667819Y-113390559D01*
X166651819Y-113051892D01*
D15*
X169674000Y-90887733D02*
X169674000Y-91230267D01*
X168654000Y-90887733D02*
X168654000Y-91230267D01*
X130750000Y-120590000D02*
X130750000Y-123250000D01*
X138430000Y-120590000D02*
X130750000Y-120590000D01*
X138430000Y-123250000D02*
X130750000Y-123250000D01*
X138430000Y-120590000D02*
X138430000Y-123250000D01*
X139700000Y-120590000D02*
X141030000Y-120590000D01*
X141030000Y-120590000D02*
X141030000Y-121920000D01*
X144720000Y-120590000D02*
X144720000Y-123250000D01*
X152400000Y-120590000D02*
X144720000Y-120590000D01*
X152400000Y-123250000D02*
X144720000Y-123250000D01*
X152400000Y-120590000D02*
X152400000Y-123250000D01*
X153670000Y-120590000D02*
X155000000Y-120590000D01*
X155000000Y-120590000D02*
X155000000Y-121920000D01*
X187527000Y-123444000D02*
G75*
G03*
X187527000Y-123444000I-3270000J0D01*
G01*
X184257000Y-120214000D02*
X184257000Y-126674000D01*
X184297000Y-120214000D02*
X184297000Y-126674000D01*
X184337000Y-120214000D02*
X184337000Y-126674000D01*
X184377000Y-120216000D02*
X184377000Y-126672000D01*
X184417000Y-120217000D02*
X184417000Y-126671000D01*
X184457000Y-120220000D02*
X184457000Y-126668000D01*
X184497000Y-120222000D02*
X184497000Y-122404000D01*
X184497000Y-124484000D02*
X184497000Y-126666000D01*
X184537000Y-120226000D02*
X184537000Y-122404000D01*
X184537000Y-124484000D02*
X184537000Y-126662000D01*
X184577000Y-120229000D02*
X184577000Y-122404000D01*
X184577000Y-124484000D02*
X184577000Y-126659000D01*
X184617000Y-120233000D02*
X184617000Y-122404000D01*
X184617000Y-124484000D02*
X184617000Y-126655000D01*
X184657000Y-120238000D02*
X184657000Y-122404000D01*
X184657000Y-124484000D02*
X184657000Y-126650000D01*
X184697000Y-120243000D02*
X184697000Y-122404000D01*
X184697000Y-124484000D02*
X184697000Y-126645000D01*
X184737000Y-120249000D02*
X184737000Y-122404000D01*
X184737000Y-124484000D02*
X184737000Y-126639000D01*
X184777000Y-120255000D02*
X184777000Y-122404000D01*
X184777000Y-124484000D02*
X184777000Y-126633000D01*
X184817000Y-120262000D02*
X184817000Y-122404000D01*
X184817000Y-124484000D02*
X184817000Y-126626000D01*
X184857000Y-120269000D02*
X184857000Y-122404000D01*
X184857000Y-124484000D02*
X184857000Y-126619000D01*
X184897000Y-120277000D02*
X184897000Y-122404000D01*
X184897000Y-124484000D02*
X184897000Y-126611000D01*
X184937000Y-120285000D02*
X184937000Y-122404000D01*
X184937000Y-124484000D02*
X184937000Y-126603000D01*
X184978000Y-120294000D02*
X184978000Y-122404000D01*
X184978000Y-124484000D02*
X184978000Y-126594000D01*
X185018000Y-120303000D02*
X185018000Y-122404000D01*
X185018000Y-124484000D02*
X185018000Y-126585000D01*
X185058000Y-120313000D02*
X185058000Y-122404000D01*
X185058000Y-124484000D02*
X185058000Y-126575000D01*
X185098000Y-120323000D02*
X185098000Y-122404000D01*
X185098000Y-124484000D02*
X185098000Y-126565000D01*
X185138000Y-120334000D02*
X185138000Y-122404000D01*
X185138000Y-124484000D02*
X185138000Y-126554000D01*
X185178000Y-120346000D02*
X185178000Y-122404000D01*
X185178000Y-124484000D02*
X185178000Y-126542000D01*
X185218000Y-120358000D02*
X185218000Y-122404000D01*
X185218000Y-124484000D02*
X185218000Y-126530000D01*
X185258000Y-120370000D02*
X185258000Y-122404000D01*
X185258000Y-124484000D02*
X185258000Y-126518000D01*
X185298000Y-120383000D02*
X185298000Y-122404000D01*
X185298000Y-124484000D02*
X185298000Y-126505000D01*
X185338000Y-120397000D02*
X185338000Y-122404000D01*
X185338000Y-124484000D02*
X185338000Y-126491000D01*
X185378000Y-120411000D02*
X185378000Y-122404000D01*
X185378000Y-124484000D02*
X185378000Y-126477000D01*
X185418000Y-120426000D02*
X185418000Y-122404000D01*
X185418000Y-124484000D02*
X185418000Y-126462000D01*
X185458000Y-120442000D02*
X185458000Y-122404000D01*
X185458000Y-124484000D02*
X185458000Y-126446000D01*
X185498000Y-120458000D02*
X185498000Y-122404000D01*
X185498000Y-124484000D02*
X185498000Y-126430000D01*
X185538000Y-120474000D02*
X185538000Y-122404000D01*
X185538000Y-124484000D02*
X185538000Y-126414000D01*
X185578000Y-120492000D02*
X185578000Y-122404000D01*
X185578000Y-124484000D02*
X185578000Y-126396000D01*
X185618000Y-120510000D02*
X185618000Y-122404000D01*
X185618000Y-124484000D02*
X185618000Y-126378000D01*
X185658000Y-120528000D02*
X185658000Y-122404000D01*
X185658000Y-124484000D02*
X185658000Y-126360000D01*
X185698000Y-120548000D02*
X185698000Y-122404000D01*
X185698000Y-124484000D02*
X185698000Y-126340000D01*
X185738000Y-120568000D02*
X185738000Y-122404000D01*
X185738000Y-124484000D02*
X185738000Y-126320000D01*
X185778000Y-120588000D02*
X185778000Y-122404000D01*
X185778000Y-124484000D02*
X185778000Y-126300000D01*
X185818000Y-120610000D02*
X185818000Y-122404000D01*
X185818000Y-124484000D02*
X185818000Y-126278000D01*
X185858000Y-120632000D02*
X185858000Y-122404000D01*
X185858000Y-124484000D02*
X185858000Y-126256000D01*
X185898000Y-120654000D02*
X185898000Y-122404000D01*
X185898000Y-124484000D02*
X185898000Y-126234000D01*
X185938000Y-120678000D02*
X185938000Y-122404000D01*
X185938000Y-124484000D02*
X185938000Y-126210000D01*
X185978000Y-120702000D02*
X185978000Y-122404000D01*
X185978000Y-124484000D02*
X185978000Y-126186000D01*
X186018000Y-120728000D02*
X186018000Y-122404000D01*
X186018000Y-124484000D02*
X186018000Y-126160000D01*
X186058000Y-120754000D02*
X186058000Y-122404000D01*
X186058000Y-124484000D02*
X186058000Y-126134000D01*
X186098000Y-120780000D02*
X186098000Y-122404000D01*
X186098000Y-124484000D02*
X186098000Y-126108000D01*
X186138000Y-120808000D02*
X186138000Y-122404000D01*
X186138000Y-124484000D02*
X186138000Y-126080000D01*
X186178000Y-120837000D02*
X186178000Y-122404000D01*
X186178000Y-124484000D02*
X186178000Y-126051000D01*
X186218000Y-120866000D02*
X186218000Y-122404000D01*
X186218000Y-124484000D02*
X186218000Y-126022000D01*
X186258000Y-120896000D02*
X186258000Y-122404000D01*
X186258000Y-124484000D02*
X186258000Y-125992000D01*
X186298000Y-120928000D02*
X186298000Y-122404000D01*
X186298000Y-124484000D02*
X186298000Y-125960000D01*
X186338000Y-120960000D02*
X186338000Y-122404000D01*
X186338000Y-124484000D02*
X186338000Y-125928000D01*
X186378000Y-120994000D02*
X186378000Y-122404000D01*
X186378000Y-124484000D02*
X186378000Y-125894000D01*
X186418000Y-121028000D02*
X186418000Y-122404000D01*
X186418000Y-124484000D02*
X186418000Y-125860000D01*
X186458000Y-121064000D02*
X186458000Y-122404000D01*
X186458000Y-124484000D02*
X186458000Y-125824000D01*
X186498000Y-121101000D02*
X186498000Y-122404000D01*
X186498000Y-124484000D02*
X186498000Y-125787000D01*
X186538000Y-121139000D02*
X186538000Y-122404000D01*
X186538000Y-124484000D02*
X186538000Y-125749000D01*
X186578000Y-121179000D02*
X186578000Y-125709000D01*
X186618000Y-121220000D02*
X186618000Y-125668000D01*
X186658000Y-121262000D02*
X186658000Y-125626000D01*
X186698000Y-121307000D02*
X186698000Y-125581000D01*
X186738000Y-121352000D02*
X186738000Y-125536000D01*
X186778000Y-121400000D02*
X186778000Y-125488000D01*
X186818000Y-121449000D02*
X186818000Y-125439000D01*
X186858000Y-121500000D02*
X186858000Y-125388000D01*
X186898000Y-121554000D02*
X186898000Y-125334000D01*
X186938000Y-121610000D02*
X186938000Y-125278000D01*
X186978000Y-121668000D02*
X186978000Y-125220000D01*
X187018000Y-121730000D02*
X187018000Y-125158000D01*
X187058000Y-121794000D02*
X187058000Y-125094000D01*
X187098000Y-121863000D02*
X187098000Y-125025000D01*
X187138000Y-121935000D02*
X187138000Y-124953000D01*
X187178000Y-122012000D02*
X187178000Y-124876000D01*
X187218000Y-122094000D02*
X187218000Y-124794000D01*
X187258000Y-122182000D02*
X187258000Y-124706000D01*
X187298000Y-122279000D02*
X187298000Y-124609000D01*
X187338000Y-122385000D02*
X187338000Y-124503000D01*
X187378000Y-122504000D02*
X187378000Y-124384000D01*
X187418000Y-122642000D02*
X187418000Y-124246000D01*
X187458000Y-122811000D02*
X187458000Y-124077000D01*
X187498000Y-123042000D02*
X187498000Y-123846000D01*
X180756759Y-121605000D02*
X181386759Y-121605000D01*
X181071759Y-121290000D02*
X181071759Y-121920000D01*
X120694267Y-87060500D02*
X120351733Y-87060500D01*
X120694267Y-86040500D02*
X120351733Y-86040500D01*
X158557000Y-130937000D02*
G75*
G03*
X158557000Y-130937000I-950000J0D01*
G01*
X159885748Y-101040000D02*
X160408252Y-101040000D01*
X159885748Y-99620000D02*
X160408252Y-99620000D01*
X120965000Y-123825000D02*
G75*
G03*
X120965000Y-123825000I-950000J0D01*
G01*
X185100000Y-86995000D02*
G75*
G03*
X185100000Y-86995000I-950000J0D01*
G01*
X120965000Y-118745000D02*
G75*
G03*
X120965000Y-118745000I-950000J0D01*
G01*
X127950000Y-123825000D02*
G75*
G03*
X127950000Y-123825000I-950000J0D01*
G01*
X127950000Y-118745000D02*
G75*
G03*
X127950000Y-118745000I-950000J0D01*
G01*
X175336200Y-113278000D02*
X173865000Y-113278000D01*
X173865000Y-113278000D02*
X173865000Y-106178000D01*
X173865000Y-106178000D02*
X175336200Y-106178000D01*
X178993800Y-106178000D02*
X180465000Y-106178000D01*
X180465000Y-106178000D02*
X180465000Y-113278000D01*
X180465000Y-113278000D02*
X178993800Y-113278000D01*
X184406000Y-106343267D02*
X184406000Y-106000733D01*
X183386000Y-106343267D02*
X183386000Y-106000733D01*
X185100000Y-92075000D02*
G75*
G03*
X185100000Y-92075000I-950000J0D01*
G01*
X120965000Y-113665000D02*
G75*
G03*
X120965000Y-113665000I-950000J0D01*
G01*
X127950000Y-113665000D02*
G75*
G03*
X127950000Y-113665000I-950000J0D01*
G01*
X158877000Y-90424000D02*
X161417000Y-90424000D01*
X161417000Y-90424000D02*
X161417000Y-87754000D01*
X158877000Y-87754000D02*
X120647000Y-87754000D01*
X164087000Y-87754000D02*
X161417000Y-87754000D01*
X161417000Y-103124000D02*
X161417000Y-105794000D01*
X161417000Y-103124000D02*
X123317000Y-103124000D01*
X123317000Y-103124000D02*
X123317000Y-105794000D01*
X158877000Y-90424000D02*
X158877000Y-87754000D01*
X158877000Y-90424000D02*
X123317000Y-90424000D01*
X123317000Y-90424000D02*
X123317000Y-87754000D01*
X120647000Y-87754000D02*
X120647000Y-105794000D01*
X120647000Y-105794000D02*
X164087000Y-105794000D01*
X164087000Y-105794000D02*
X164087000Y-87754000D01*
X123257000Y-107636000D02*
X123257000Y-110296000D01*
X158877000Y-107636000D02*
X123257000Y-107636000D01*
X158877000Y-110296000D02*
X123257000Y-110296000D01*
X158877000Y-107636000D02*
X158877000Y-110296000D01*
X160147000Y-107636000D02*
X161477000Y-107636000D01*
X161477000Y-107636000D02*
X161477000Y-108966000D01*
X180650000Y-96040000D02*
G75*
G03*
X180650000Y-96040000I-4120000J0D01*
G01*
X172450000Y-96040000D02*
X180610000Y-96040000D01*
X172450000Y-96000000D02*
X180610000Y-96000000D01*
X172450000Y-95960000D02*
X180610000Y-95960000D01*
X172451000Y-95920000D02*
X180609000Y-95920000D01*
X172453000Y-95880000D02*
X180607000Y-95880000D01*
X172454000Y-95840000D02*
X180606000Y-95840000D01*
X172456000Y-95800000D02*
X180604000Y-95800000D01*
X172459000Y-95760000D02*
X180601000Y-95760000D01*
X172462000Y-95720000D02*
X180598000Y-95720000D01*
X172465000Y-95680000D02*
X180595000Y-95680000D01*
X172469000Y-95640000D02*
X180591000Y-95640000D01*
X172473000Y-95600000D02*
X180587000Y-95600000D01*
X172478000Y-95560000D02*
X180582000Y-95560000D01*
X172482000Y-95520000D02*
X180578000Y-95520000D01*
X172488000Y-95480000D02*
X180572000Y-95480000D01*
X172493000Y-95440000D02*
X180567000Y-95440000D01*
X172500000Y-95400000D02*
X180560000Y-95400000D01*
X172506000Y-95360000D02*
X180554000Y-95360000D01*
X172513000Y-95319000D02*
X175490000Y-95319000D01*
X177570000Y-95319000D02*
X180547000Y-95319000D01*
X172520000Y-95279000D02*
X175490000Y-95279000D01*
X177570000Y-95279000D02*
X180540000Y-95279000D01*
X172528000Y-95239000D02*
X175490000Y-95239000D01*
X177570000Y-95239000D02*
X180532000Y-95239000D01*
X172536000Y-95199000D02*
X175490000Y-95199000D01*
X177570000Y-95199000D02*
X180524000Y-95199000D01*
X172545000Y-95159000D02*
X175490000Y-95159000D01*
X177570000Y-95159000D02*
X180515000Y-95159000D01*
X172554000Y-95119000D02*
X175490000Y-95119000D01*
X177570000Y-95119000D02*
X180506000Y-95119000D01*
X172563000Y-95079000D02*
X175490000Y-95079000D01*
X177570000Y-95079000D02*
X180497000Y-95079000D01*
X172573000Y-95039000D02*
X175490000Y-95039000D01*
X177570000Y-95039000D02*
X180487000Y-95039000D01*
X172583000Y-94999000D02*
X175490000Y-94999000D01*
X177570000Y-94999000D02*
X180477000Y-94999000D01*
X172594000Y-94959000D02*
X175490000Y-94959000D01*
X177570000Y-94959000D02*
X180466000Y-94959000D01*
X172605000Y-94919000D02*
X175490000Y-94919000D01*
X177570000Y-94919000D02*
X180455000Y-94919000D01*
X172616000Y-94879000D02*
X175490000Y-94879000D01*
X177570000Y-94879000D02*
X180444000Y-94879000D01*
X172628000Y-94839000D02*
X175490000Y-94839000D01*
X177570000Y-94839000D02*
X180432000Y-94839000D01*
X172641000Y-94799000D02*
X175490000Y-94799000D01*
X177570000Y-94799000D02*
X180419000Y-94799000D01*
X172653000Y-94759000D02*
X175490000Y-94759000D01*
X177570000Y-94759000D02*
X180407000Y-94759000D01*
X172667000Y-94719000D02*
X175490000Y-94719000D01*
X177570000Y-94719000D02*
X180393000Y-94719000D01*
X172680000Y-94679000D02*
X175490000Y-94679000D01*
X177570000Y-94679000D02*
X180380000Y-94679000D01*
X172695000Y-94639000D02*
X175490000Y-94639000D01*
X177570000Y-94639000D02*
X180365000Y-94639000D01*
X172709000Y-94599000D02*
X175490000Y-94599000D01*
X177570000Y-94599000D02*
X180351000Y-94599000D01*
X172725000Y-94559000D02*
X175490000Y-94559000D01*
X177570000Y-94559000D02*
X180335000Y-94559000D01*
X172740000Y-94519000D02*
X175490000Y-94519000D01*
X177570000Y-94519000D02*
X180320000Y-94519000D01*
X172756000Y-94479000D02*
X175490000Y-94479000D01*
X177570000Y-94479000D02*
X180304000Y-94479000D01*
X172773000Y-94439000D02*
X175490000Y-94439000D01*
X177570000Y-94439000D02*
X180287000Y-94439000D01*
X172790000Y-94399000D02*
X175490000Y-94399000D01*
X177570000Y-94399000D02*
X180270000Y-94399000D01*
X172808000Y-94359000D02*
X175490000Y-94359000D01*
X177570000Y-94359000D02*
X180252000Y-94359000D01*
X172826000Y-94319000D02*
X175490000Y-94319000D01*
X177570000Y-94319000D02*
X180234000Y-94319000D01*
X172844000Y-94279000D02*
X175490000Y-94279000D01*
X177570000Y-94279000D02*
X180216000Y-94279000D01*
X172864000Y-94239000D02*
X175490000Y-94239000D01*
X177570000Y-94239000D02*
X180196000Y-94239000D01*
X172883000Y-94199000D02*
X175490000Y-94199000D01*
X177570000Y-94199000D02*
X180177000Y-94199000D01*
X172903000Y-94159000D02*
X175490000Y-94159000D01*
X177570000Y-94159000D02*
X180157000Y-94159000D01*
X172924000Y-94119000D02*
X175490000Y-94119000D01*
X177570000Y-94119000D02*
X180136000Y-94119000D01*
X172946000Y-94079000D02*
X175490000Y-94079000D01*
X177570000Y-94079000D02*
X180114000Y-94079000D01*
X172968000Y-94039000D02*
X175490000Y-94039000D01*
X177570000Y-94039000D02*
X180092000Y-94039000D01*
X172990000Y-93999000D02*
X175490000Y-93999000D01*
X177570000Y-93999000D02*
X180070000Y-93999000D01*
X173013000Y-93959000D02*
X175490000Y-93959000D01*
X177570000Y-93959000D02*
X180047000Y-93959000D01*
X173037000Y-93919000D02*
X175490000Y-93919000D01*
X177570000Y-93919000D02*
X180023000Y-93919000D01*
X173061000Y-93879000D02*
X175490000Y-93879000D01*
X177570000Y-93879000D02*
X179999000Y-93879000D01*
X173086000Y-93839000D02*
X175490000Y-93839000D01*
X177570000Y-93839000D02*
X179974000Y-93839000D01*
X173112000Y-93799000D02*
X175490000Y-93799000D01*
X177570000Y-93799000D02*
X179948000Y-93799000D01*
X173138000Y-93759000D02*
X175490000Y-93759000D01*
X177570000Y-93759000D02*
X179922000Y-93759000D01*
X173165000Y-93719000D02*
X175490000Y-93719000D01*
X177570000Y-93719000D02*
X179895000Y-93719000D01*
X173192000Y-93679000D02*
X175490000Y-93679000D01*
X177570000Y-93679000D02*
X179868000Y-93679000D01*
X173221000Y-93639000D02*
X175490000Y-93639000D01*
X177570000Y-93639000D02*
X179839000Y-93639000D01*
X173250000Y-93599000D02*
X175490000Y-93599000D01*
X177570000Y-93599000D02*
X179810000Y-93599000D01*
X173280000Y-93559000D02*
X175490000Y-93559000D01*
X177570000Y-93559000D02*
X179780000Y-93559000D01*
X173310000Y-93519000D02*
X175490000Y-93519000D01*
X177570000Y-93519000D02*
X179750000Y-93519000D01*
X173341000Y-93479000D02*
X175490000Y-93479000D01*
X177570000Y-93479000D02*
X179719000Y-93479000D01*
X173374000Y-93439000D02*
X175490000Y-93439000D01*
X177570000Y-93439000D02*
X179686000Y-93439000D01*
X173406000Y-93399000D02*
X175490000Y-93399000D01*
X177570000Y-93399000D02*
X179654000Y-93399000D01*
X173440000Y-93359000D02*
X175490000Y-93359000D01*
X177570000Y-93359000D02*
X179620000Y-93359000D01*
X173475000Y-93319000D02*
X175490000Y-93319000D01*
X177570000Y-93319000D02*
X179585000Y-93319000D01*
X173511000Y-93279000D02*
X175490000Y-93279000D01*
X177570000Y-93279000D02*
X179549000Y-93279000D01*
X173547000Y-93239000D02*
X179513000Y-93239000D01*
X173585000Y-93199000D02*
X179475000Y-93199000D01*
X173623000Y-93159000D02*
X179437000Y-93159000D01*
X173663000Y-93119000D02*
X179397000Y-93119000D01*
X173704000Y-93079000D02*
X179356000Y-93079000D01*
X173746000Y-93039000D02*
X179314000Y-93039000D01*
X173789000Y-92999000D02*
X179271000Y-92999000D01*
X173833000Y-92959000D02*
X179227000Y-92959000D01*
X173879000Y-92919000D02*
X179181000Y-92919000D01*
X173926000Y-92879000D02*
X179134000Y-92879000D01*
X173974000Y-92839000D02*
X179086000Y-92839000D01*
X174025000Y-92799000D02*
X179035000Y-92799000D01*
X174076000Y-92759000D02*
X178984000Y-92759000D01*
X174130000Y-92719000D02*
X178930000Y-92719000D01*
X174185000Y-92679000D02*
X178875000Y-92679000D01*
X174243000Y-92639000D02*
X178817000Y-92639000D01*
X174302000Y-92599000D02*
X178758000Y-92599000D01*
X174364000Y-92559000D02*
X178696000Y-92559000D01*
X174428000Y-92519000D02*
X178632000Y-92519000D01*
X174496000Y-92479000D02*
X178564000Y-92479000D01*
X174566000Y-92439000D02*
X178494000Y-92439000D01*
X174640000Y-92399000D02*
X178420000Y-92399000D01*
X174717000Y-92359000D02*
X178343000Y-92359000D01*
X174799000Y-92319000D02*
X178261000Y-92319000D01*
X174885000Y-92279000D02*
X178175000Y-92279000D01*
X174978000Y-92239000D02*
X178082000Y-92239000D01*
X175077000Y-92199000D02*
X177983000Y-92199000D01*
X175184000Y-92159000D02*
X177876000Y-92159000D01*
X175301000Y-92119000D02*
X177759000Y-92119000D01*
X175432000Y-92079000D02*
X177628000Y-92079000D01*
X175582000Y-92039000D02*
X177478000Y-92039000D01*
X175762000Y-91999000D02*
X177298000Y-91999000D01*
X175997000Y-91959000D02*
X177063000Y-91959000D01*
X174215000Y-100449698D02*
X174215000Y-99649698D01*
X173815000Y-100049698D02*
X174615000Y-100049698D01*
X123257000Y-83252000D02*
X123257000Y-85912000D01*
X158877000Y-83252000D02*
X123257000Y-83252000D01*
X158877000Y-85912000D02*
X123257000Y-85912000D01*
X158877000Y-83252000D02*
X158877000Y-85912000D01*
X160147000Y-83252000D02*
X161477000Y-83252000D01*
X161477000Y-83252000D02*
X161477000Y-84582000D01*
X177506200Y-115598300D02*
X174556200Y-115598300D01*
X175706200Y-118818300D02*
X177506200Y-118818300D01*
X165864000Y-91230267D02*
X165864000Y-90887733D01*
X164844000Y-91230267D02*
X164844000Y-90887733D01*
X185164000Y-101873233D02*
X185164000Y-102215767D01*
X186184000Y-101873233D02*
X186184000Y-102215767D01*
X183386000Y-101873233D02*
X183386000Y-102215767D01*
X184406000Y-101873233D02*
X184406000Y-102215767D01*
X182628000Y-102215767D02*
X182628000Y-101873233D01*
X181608000Y-102215767D02*
X181608000Y-101873233D01*
X167769000Y-91230267D02*
X167769000Y-90887733D01*
X166749000Y-91230267D02*
X166749000Y-90887733D01*
X179576000Y-116732233D02*
X179576000Y-117074767D01*
X180596000Y-116732233D02*
X180596000Y-117074767D01*
X140544733Y-118874000D02*
X140887267Y-118874000D01*
X140544733Y-117854000D02*
X140887267Y-117854000D01*
X152609733Y-118874000D02*
X152952267Y-118874000D01*
X152609733Y-117854000D02*
X152952267Y-117854000D01*
X146767733Y-118874000D02*
X147110267Y-118874000D01*
X146767733Y-117854000D02*
X147110267Y-117854000D01*
X186184000Y-106343267D02*
X186184000Y-106000733D01*
X185164000Y-106343267D02*
X185164000Y-106000733D01*
X181608000Y-106000733D02*
X181608000Y-106343267D01*
X182628000Y-106000733D02*
X182628000Y-106343267D01*
X162504000Y-79736500D02*
X162504000Y-80986500D01*
X163754000Y-79736500D02*
X162504000Y-79736500D01*
X169654000Y-85236500D02*
X166604000Y-85236500D01*
X169654000Y-82286500D02*
X169654000Y-85236500D01*
X170404000Y-82286500D02*
X169654000Y-82286500D01*
X163554000Y-85236500D02*
X166604000Y-85236500D01*
X163554000Y-82286500D02*
X163554000Y-85236500D01*
X162804000Y-82286500D02*
X163554000Y-82286500D01*
X170404000Y-80036500D02*
X168604000Y-80036500D01*
X170404000Y-80786500D02*
X170404000Y-80036500D01*
X168604000Y-80786500D02*
X170404000Y-80786500D01*
X168604000Y-80036500D02*
X168604000Y-80786500D01*
X164604000Y-80036500D02*
X162804000Y-80036500D01*
X164604000Y-80786500D02*
X164604000Y-80036500D01*
X162804000Y-80786500D02*
X164604000Y-80786500D01*
X162804000Y-80036500D02*
X162804000Y-80786500D01*
X167104000Y-80036500D02*
X166104000Y-80036500D01*
X167104000Y-80786500D02*
X167104000Y-80036500D01*
X166104000Y-80786500D02*
X167104000Y-80786500D01*
X166104000Y-80036500D02*
X166104000Y-80786500D01*
X170414000Y-80026500D02*
X162794000Y-80026500D01*
X170414000Y-85996500D02*
X170414000Y-80026500D01*
X162794000Y-85996500D02*
X170414000Y-85996500D01*
X162794000Y-80026500D02*
X162794000Y-85996500D01*
X172029000Y-79736500D02*
X172029000Y-80986500D01*
X173279000Y-79736500D02*
X172029000Y-79736500D01*
X179179000Y-85236500D02*
X176129000Y-85236500D01*
X179179000Y-82286500D02*
X179179000Y-85236500D01*
X179929000Y-82286500D02*
X179179000Y-82286500D01*
X173079000Y-85236500D02*
X176129000Y-85236500D01*
X173079000Y-82286500D02*
X173079000Y-85236500D01*
X172329000Y-82286500D02*
X173079000Y-82286500D01*
X179929000Y-80036500D02*
X178129000Y-80036500D01*
X179929000Y-80786500D02*
X179929000Y-80036500D01*
X178129000Y-80786500D02*
X179929000Y-80786500D01*
X178129000Y-80036500D02*
X178129000Y-80786500D01*
X174129000Y-80036500D02*
X172329000Y-80036500D01*
X174129000Y-80786500D02*
X174129000Y-80036500D01*
X172329000Y-80786500D02*
X174129000Y-80786500D01*
X172329000Y-80036500D02*
X172329000Y-80786500D01*
X176629000Y-80036500D02*
X175629000Y-80036500D01*
X176629000Y-80786500D02*
X176629000Y-80036500D01*
X175629000Y-80786500D02*
X176629000Y-80786500D01*
X175629000Y-80036500D02*
X175629000Y-80786500D01*
X179939000Y-80026500D02*
X172319000Y-80026500D01*
X179939000Y-85996500D02*
X179939000Y-80026500D01*
X172319000Y-85996500D02*
X179939000Y-85996500D01*
X172319000Y-80026500D02*
X172319000Y-85996500D01*
X185988000Y-119059000D02*
X184658000Y-119059000D01*
X185988000Y-117729000D02*
X185988000Y-119059000D01*
X185988000Y-116459000D02*
X183328000Y-116459000D01*
X183328000Y-116459000D02*
X183328000Y-111319000D01*
X185988000Y-116459000D02*
X185988000Y-111319000D01*
X185988000Y-111319000D02*
X183328000Y-111319000D01*
X138977000Y-117216000D02*
X138977000Y-114066000D01*
X140677000Y-117216000D02*
X140677000Y-114066000D01*
X138977000Y-117216000D02*
X140677000Y-117216000D01*
X151042000Y-117216000D02*
X151042000Y-114066000D01*
X152742000Y-117216000D02*
X152742000Y-114066000D01*
X151042000Y-117216000D02*
X152742000Y-117216000D01*
X145200000Y-117216000D02*
X145200000Y-114066000D01*
X146900000Y-117216000D02*
X146900000Y-114066000D01*
X145200000Y-117216000D02*
X146900000Y-117216000D01*
X133140267Y-112266000D02*
X132797733Y-112266000D01*
X133140267Y-113286000D02*
X132797733Y-113286000D01*
X136734733Y-113286000D02*
X137077267Y-113286000D01*
X136734733Y-112266000D02*
X137077267Y-112266000D01*
X142369000Y-115106267D02*
X142369000Y-114763733D01*
X141349000Y-115106267D02*
X141349000Y-114763733D01*
X154307000Y-115106267D02*
X154307000Y-114763733D01*
X153287000Y-115106267D02*
X153287000Y-114763733D01*
X148465000Y-115106267D02*
X148465000Y-114763733D01*
X147445000Y-115106267D02*
X147445000Y-114763733D01*
X175267252Y-102668000D02*
X174744748Y-102668000D01*
X175267252Y-104088000D02*
X174744748Y-104088000D01*
X172976000Y-115550767D02*
X172976000Y-115208233D01*
X171956000Y-115550767D02*
X171956000Y-115208233D01*
X175838752Y-119432000D02*
X175316248Y-119432000D01*
X175838752Y-120852000D02*
X175316248Y-120852000D01*
X159636000Y-132830000D02*
X159636000Y-123710000D01*
X159636000Y-123710000D02*
X180216000Y-123710000D01*
X180216000Y-123710000D02*
X180216000Y-132830000D01*
X180216000Y-132830000D02*
X159636000Y-132830000D01*
X167876000Y-132830000D02*
X167876000Y-131520000D01*
X167876000Y-131520000D02*
X160936000Y-131520000D01*
X160936000Y-131520000D02*
X160936000Y-125020000D01*
X160936000Y-125020000D02*
X178916000Y-125020000D01*
X178916000Y-125020000D02*
X178916000Y-131520000D01*
X178916000Y-131520000D02*
X171976000Y-131520000D01*
X171976000Y-131520000D02*
X171976000Y-131520000D01*
X171976000Y-131520000D02*
X171976000Y-132830000D01*
X164846000Y-133220000D02*
X164346000Y-134220000D01*
X164346000Y-134220000D02*
X165346000Y-134220000D01*
X165346000Y-134220000D02*
X164846000Y-133220000D01*
D12*
X169521142Y-95003857D02*
X169568761Y-95051476D01*
X169616380Y-95194333D01*
X169616380Y-95289571D01*
X169568761Y-95432428D01*
X169473523Y-95527666D01*
X169378285Y-95575285D01*
X169187809Y-95622904D01*
X169044952Y-95622904D01*
X168854476Y-95575285D01*
X168759238Y-95527666D01*
X168664000Y-95432428D01*
X168616380Y-95289571D01*
X168616380Y-95194333D01*
X168664000Y-95051476D01*
X168711619Y-95003857D01*
X169616380Y-94051476D02*
X169616380Y-94622904D01*
X169616380Y-94337190D02*
X168616380Y-94337190D01*
X168759238Y-94432428D01*
X168854476Y-94527666D01*
X168902095Y-94622904D01*
X168616380Y-93718142D02*
X168616380Y-93099095D01*
X168997333Y-93432428D01*
X168997333Y-93289571D01*
X169044952Y-93194333D01*
X169092571Y-93146714D01*
X169187809Y-93099095D01*
X169425904Y-93099095D01*
X169521142Y-93146714D01*
X169568761Y-93194333D01*
X169616380Y-93289571D01*
X169616380Y-93575285D01*
X169568761Y-93670523D01*
X169521142Y-93718142D01*
X141482380Y-122253333D02*
X142196666Y-122253333D01*
X142339523Y-122300952D01*
X142434761Y-122396190D01*
X142482380Y-122539047D01*
X142482380Y-122634285D01*
X141482380Y-121300952D02*
X141482380Y-121777142D01*
X141958571Y-121824761D01*
X141910952Y-121777142D01*
X141863333Y-121681904D01*
X141863333Y-121443809D01*
X141910952Y-121348571D01*
X141958571Y-121300952D01*
X142053809Y-121253333D01*
X142291904Y-121253333D01*
X142387142Y-121300952D01*
X142434761Y-121348571D01*
X142482380Y-121443809D01*
X142482380Y-121681904D01*
X142434761Y-121777142D01*
X142387142Y-121824761D01*
X155452380Y-122253333D02*
X156166666Y-122253333D01*
X156309523Y-122300952D01*
X156404761Y-122396190D01*
X156452380Y-122539047D01*
X156452380Y-122634285D01*
X155785714Y-121348571D02*
X156452380Y-121348571D01*
X155404761Y-121586666D02*
X156119047Y-121824761D01*
X156119047Y-121205714D01*
X181459142Y-127642857D02*
X181506761Y-127690476D01*
X181554380Y-127833333D01*
X181554380Y-127928571D01*
X181506761Y-128071428D01*
X181411523Y-128166666D01*
X181316285Y-128214285D01*
X181125809Y-128261904D01*
X180982952Y-128261904D01*
X180792476Y-128214285D01*
X180697238Y-128166666D01*
X180602000Y-128071428D01*
X180554380Y-127928571D01*
X180554380Y-127833333D01*
X180602000Y-127690476D01*
X180649619Y-127642857D01*
X181554380Y-126690476D02*
X181554380Y-127261904D01*
X181554380Y-126976190D02*
X180554380Y-126976190D01*
X180697238Y-127071428D01*
X180792476Y-127166666D01*
X180840095Y-127261904D01*
X180649619Y-126309523D02*
X180602000Y-126261904D01*
X180554380Y-126166666D01*
X180554380Y-125928571D01*
X180602000Y-125833333D01*
X180649619Y-125785714D01*
X180744857Y-125738095D01*
X180840095Y-125738095D01*
X180982952Y-125785714D01*
X181554380Y-126357142D01*
X181554380Y-125738095D01*
X119880142Y-85256642D02*
X119832523Y-85304261D01*
X119689666Y-85351880D01*
X119594428Y-85351880D01*
X119451571Y-85304261D01*
X119356333Y-85209023D01*
X119308714Y-85113785D01*
X119261095Y-84923309D01*
X119261095Y-84780452D01*
X119308714Y-84589976D01*
X119356333Y-84494738D01*
X119451571Y-84399500D01*
X119594428Y-84351880D01*
X119689666Y-84351880D01*
X119832523Y-84399500D01*
X119880142Y-84447119D01*
X120832523Y-85351880D02*
X120261095Y-85351880D01*
X120546809Y-85351880D02*
X120546809Y-84351880D01*
X120451571Y-84494738D01*
X120356333Y-84589976D01*
X120261095Y-84637595D01*
X121784904Y-85351880D02*
X121213476Y-85351880D01*
X121499190Y-85351880D02*
X121499190Y-84351880D01*
X121403952Y-84494738D01*
X121308714Y-84589976D01*
X121213476Y-84637595D01*
X156345095Y-128741380D02*
X156916523Y-128741380D01*
X156630809Y-129741380D02*
X156630809Y-128741380D01*
X157249857Y-129741380D02*
X157249857Y-128741380D01*
X157630809Y-128741380D01*
X157726047Y-128789000D01*
X157773666Y-128836619D01*
X157821285Y-128931857D01*
X157821285Y-129074714D01*
X157773666Y-129169952D01*
X157726047Y-129217571D01*
X157630809Y-129265190D01*
X157249857Y-129265190D01*
X158297476Y-129741380D02*
X158487952Y-129741380D01*
X158583190Y-129693761D01*
X158630809Y-129646142D01*
X158726047Y-129503285D01*
X158773666Y-129312809D01*
X158773666Y-128931857D01*
X158726047Y-128836619D01*
X158678428Y-128789000D01*
X158583190Y-128741380D01*
X158392714Y-128741380D01*
X158297476Y-128789000D01*
X158249857Y-128836619D01*
X158202238Y-128931857D01*
X158202238Y-129169952D01*
X158249857Y-129265190D01*
X158297476Y-129312809D01*
X158392714Y-129360428D01*
X158583190Y-129360428D01*
X158678428Y-129312809D01*
X158726047Y-129265190D01*
X158773666Y-129169952D01*
X161663142Y-102465142D02*
X161615523Y-102512761D01*
X161472666Y-102560380D01*
X161377428Y-102560380D01*
X161234571Y-102512761D01*
X161139333Y-102417523D01*
X161091714Y-102322285D01*
X161044095Y-102131809D01*
X161044095Y-101988952D01*
X161091714Y-101798476D01*
X161139333Y-101703238D01*
X161234571Y-101608000D01*
X161377428Y-101560380D01*
X161472666Y-101560380D01*
X161615523Y-101608000D01*
X161663142Y-101655619D01*
X162615523Y-102560380D02*
X162044095Y-102560380D01*
X162329809Y-102560380D02*
X162329809Y-101560380D01*
X162234571Y-101703238D01*
X162139333Y-101798476D01*
X162044095Y-101846095D01*
X163234571Y-101560380D02*
X163329809Y-101560380D01*
X163425047Y-101608000D01*
X163472666Y-101655619D01*
X163520285Y-101750857D01*
X163567904Y-101941333D01*
X163567904Y-102179428D01*
X163520285Y-102369904D01*
X163472666Y-102465142D01*
X163425047Y-102512761D01*
X163329809Y-102560380D01*
X163234571Y-102560380D01*
X163139333Y-102512761D01*
X163091714Y-102465142D01*
X163044095Y-102369904D01*
X162996476Y-102179428D01*
X162996476Y-101941333D01*
X163044095Y-101750857D01*
X163091714Y-101655619D01*
X163139333Y-101608000D01*
X163234571Y-101560380D01*
X122210619Y-122563095D02*
X122210619Y-123134523D01*
X121210619Y-122848809D02*
X122210619Y-122848809D01*
X121210619Y-123467857D02*
X122210619Y-123467857D01*
X122210619Y-123848809D01*
X122163000Y-123944047D01*
X122115380Y-123991666D01*
X122020142Y-124039285D01*
X121877285Y-124039285D01*
X121782047Y-123991666D01*
X121734428Y-123944047D01*
X121686809Y-123848809D01*
X121686809Y-123467857D01*
X121782047Y-124610714D02*
X121829666Y-124515476D01*
X121877285Y-124467857D01*
X121972523Y-124420238D01*
X122020142Y-124420238D01*
X122115380Y-124467857D01*
X122163000Y-124515476D01*
X122210619Y-124610714D01*
X122210619Y-124801190D01*
X122163000Y-124896428D01*
X122115380Y-124944047D01*
X122020142Y-124991666D01*
X121972523Y-124991666D01*
X121877285Y-124944047D01*
X121829666Y-124896428D01*
X121782047Y-124801190D01*
X121782047Y-124610714D01*
X121734428Y-124515476D01*
X121686809Y-124467857D01*
X121591571Y-124420238D01*
X121401095Y-124420238D01*
X121305857Y-124467857D01*
X121258238Y-124515476D01*
X121210619Y-124610714D01*
X121210619Y-124801190D01*
X121258238Y-124896428D01*
X121305857Y-124944047D01*
X121401095Y-124991666D01*
X121591571Y-124991666D01*
X121686809Y-124944047D01*
X121734428Y-124896428D01*
X121782047Y-124801190D01*
X181954380Y-88256904D02*
X181954380Y-87685476D01*
X182954380Y-87971190D02*
X181954380Y-87971190D01*
X182954380Y-87352142D02*
X181954380Y-87352142D01*
X181954380Y-86971190D01*
X182002000Y-86875952D01*
X182049619Y-86828333D01*
X182144857Y-86780714D01*
X182287714Y-86780714D01*
X182382952Y-86828333D01*
X182430571Y-86875952D01*
X182478190Y-86971190D01*
X182478190Y-87352142D01*
X181954380Y-86447380D02*
X181954380Y-85780714D01*
X182954380Y-86209285D01*
X122210619Y-117483095D02*
X122210619Y-118054523D01*
X121210619Y-117768809D02*
X122210619Y-117768809D01*
X121210619Y-118387857D02*
X122210619Y-118387857D01*
X122210619Y-118768809D01*
X122163000Y-118864047D01*
X122115380Y-118911666D01*
X122020142Y-118959285D01*
X121877285Y-118959285D01*
X121782047Y-118911666D01*
X121734428Y-118864047D01*
X121686809Y-118768809D01*
X121686809Y-118387857D01*
X122210619Y-119816428D02*
X122210619Y-119625952D01*
X122163000Y-119530714D01*
X122115380Y-119483095D01*
X121972523Y-119387857D01*
X121782047Y-119340238D01*
X121401095Y-119340238D01*
X121305857Y-119387857D01*
X121258238Y-119435476D01*
X121210619Y-119530714D01*
X121210619Y-119721190D01*
X121258238Y-119816428D01*
X121305857Y-119864047D01*
X121401095Y-119911666D01*
X121639190Y-119911666D01*
X121734428Y-119864047D01*
X121782047Y-119816428D01*
X121829666Y-119721190D01*
X121829666Y-119530714D01*
X121782047Y-119435476D01*
X121734428Y-119387857D01*
X121639190Y-119340238D01*
X129195619Y-122563095D02*
X129195619Y-123134523D01*
X128195619Y-122848809D02*
X129195619Y-122848809D01*
X128195619Y-123467857D02*
X129195619Y-123467857D01*
X129195619Y-123848809D01*
X129148000Y-123944047D01*
X129100380Y-123991666D01*
X129005142Y-124039285D01*
X128862285Y-124039285D01*
X128767047Y-123991666D01*
X128719428Y-123944047D01*
X128671809Y-123848809D01*
X128671809Y-123467857D01*
X129195619Y-124944047D02*
X129195619Y-124467857D01*
X128719428Y-124420238D01*
X128767047Y-124467857D01*
X128814666Y-124563095D01*
X128814666Y-124801190D01*
X128767047Y-124896428D01*
X128719428Y-124944047D01*
X128624190Y-124991666D01*
X128386095Y-124991666D01*
X128290857Y-124944047D01*
X128243238Y-124896428D01*
X128195619Y-124801190D01*
X128195619Y-124563095D01*
X128243238Y-124467857D01*
X128290857Y-124420238D01*
X129195619Y-117483095D02*
X129195619Y-118054523D01*
X128195619Y-117768809D02*
X129195619Y-117768809D01*
X128195619Y-118387857D02*
X129195619Y-118387857D01*
X129195619Y-118768809D01*
X129148000Y-118864047D01*
X129100380Y-118911666D01*
X129005142Y-118959285D01*
X128862285Y-118959285D01*
X128767047Y-118911666D01*
X128719428Y-118864047D01*
X128671809Y-118768809D01*
X128671809Y-118387857D01*
X128862285Y-119816428D02*
X128195619Y-119816428D01*
X129243238Y-119578333D02*
X128528952Y-119340238D01*
X128528952Y-119959285D01*
X180411380Y-105322666D02*
X180411380Y-105798857D01*
X179411380Y-105798857D01*
X180411380Y-104465523D02*
X180411380Y-105036952D01*
X180411380Y-104751238D02*
X179411380Y-104751238D01*
X179554238Y-104846476D01*
X179649476Y-104941714D01*
X179697095Y-105036952D01*
X184348380Y-108967566D02*
X183872190Y-109300900D01*
X184348380Y-109538995D02*
X183348380Y-109538995D01*
X183348380Y-109158042D01*
X183396000Y-109062804D01*
X183443619Y-109015185D01*
X183538857Y-108967566D01*
X183681714Y-108967566D01*
X183776952Y-109015185D01*
X183824571Y-109062804D01*
X183872190Y-109158042D01*
X183872190Y-109538995D01*
X183443619Y-108586614D02*
X183396000Y-108538995D01*
X183348380Y-108443757D01*
X183348380Y-108205661D01*
X183396000Y-108110423D01*
X183443619Y-108062804D01*
X183538857Y-108015185D01*
X183634095Y-108015185D01*
X183776952Y-108062804D01*
X184348380Y-108634233D01*
X184348380Y-108015185D01*
X181954380Y-93336904D02*
X181954380Y-92765476D01*
X182954380Y-93051190D02*
X181954380Y-93051190D01*
X182954380Y-92432142D02*
X181954380Y-92432142D01*
X181954380Y-92051190D01*
X182002000Y-91955952D01*
X182049619Y-91908333D01*
X182144857Y-91860714D01*
X182287714Y-91860714D01*
X182382952Y-91908333D01*
X182430571Y-91955952D01*
X182478190Y-92051190D01*
X182478190Y-92432142D01*
X181954380Y-91527380D02*
X181954380Y-90908333D01*
X182335333Y-91241666D01*
X182335333Y-91098809D01*
X182382952Y-91003571D01*
X182430571Y-90955952D01*
X182525809Y-90908333D01*
X182763904Y-90908333D01*
X182859142Y-90955952D01*
X182906761Y-91003571D01*
X182954380Y-91098809D01*
X182954380Y-91384523D01*
X182906761Y-91479761D01*
X182859142Y-91527380D01*
X122594619Y-112403095D02*
X122594619Y-112974523D01*
X121594619Y-112688809D02*
X122594619Y-112688809D01*
X121594619Y-113307857D02*
X122594619Y-113307857D01*
X122594619Y-113688809D01*
X122547000Y-113784047D01*
X122499380Y-113831666D01*
X122404142Y-113879285D01*
X122261285Y-113879285D01*
X122166047Y-113831666D01*
X122118428Y-113784047D01*
X122070809Y-113688809D01*
X122070809Y-113307857D01*
X122499380Y-114260238D02*
X122547000Y-114307857D01*
X122594619Y-114403095D01*
X122594619Y-114641190D01*
X122547000Y-114736428D01*
X122499380Y-114784047D01*
X122404142Y-114831666D01*
X122308904Y-114831666D01*
X122166047Y-114784047D01*
X121594619Y-114212619D01*
X121594619Y-114831666D01*
X129195619Y-112403095D02*
X129195619Y-112974523D01*
X128195619Y-112688809D02*
X129195619Y-112688809D01*
X128195619Y-113307857D02*
X129195619Y-113307857D01*
X129195619Y-113688809D01*
X129148000Y-113784047D01*
X129100380Y-113831666D01*
X129005142Y-113879285D01*
X128862285Y-113879285D01*
X128767047Y-113831666D01*
X128719428Y-113784047D01*
X128671809Y-113688809D01*
X128671809Y-113307857D01*
X128195619Y-114831666D02*
X128195619Y-114260238D01*
X128195619Y-114545952D02*
X129195619Y-114545952D01*
X129052761Y-114450714D01*
X128957523Y-114355476D01*
X128909904Y-114260238D01*
X163361666Y-89614285D02*
X163361666Y-89138095D01*
X163647380Y-89709523D02*
X162647380Y-89376190D01*
X163647380Y-89042857D01*
X163647380Y-88185714D02*
X163647380Y-88757142D01*
X163647380Y-88471428D02*
X162647380Y-88471428D01*
X162790238Y-88566666D01*
X162885476Y-88661904D01*
X162933095Y-88757142D01*
X171807142Y-96178666D02*
X171854761Y-96226285D01*
X171902380Y-96369142D01*
X171902380Y-96464380D01*
X171854761Y-96607238D01*
X171759523Y-96702476D01*
X171664285Y-96750095D01*
X171473809Y-96797714D01*
X171330952Y-96797714D01*
X171140476Y-96750095D01*
X171045238Y-96702476D01*
X170950000Y-96607238D01*
X170902380Y-96464380D01*
X170902380Y-96369142D01*
X170950000Y-96226285D01*
X170997619Y-96178666D01*
X171902380Y-95226285D02*
X171902380Y-95797714D01*
X171902380Y-95512000D02*
X170902380Y-95512000D01*
X171045238Y-95607238D01*
X171140476Y-95702476D01*
X171188095Y-95797714D01*
X177760380Y-120395904D02*
X178569904Y-120395904D01*
X178665142Y-120348285D01*
X178712761Y-120300666D01*
X178760380Y-120205428D01*
X178760380Y-120014952D01*
X178712761Y-119919714D01*
X178665142Y-119872095D01*
X178569904Y-119824476D01*
X177760380Y-119824476D01*
X178760380Y-118824476D02*
X178760380Y-119395904D01*
X178760380Y-119110190D02*
X177760380Y-119110190D01*
X177903238Y-119205428D01*
X177998476Y-119300666D01*
X178046095Y-119395904D01*
X165806380Y-95003857D02*
X165330190Y-95337190D01*
X165806380Y-95575285D02*
X164806380Y-95575285D01*
X164806380Y-95194333D01*
X164854000Y-95099095D01*
X164901619Y-95051476D01*
X164996857Y-95003857D01*
X165139714Y-95003857D01*
X165234952Y-95051476D01*
X165282571Y-95099095D01*
X165330190Y-95194333D01*
X165330190Y-95575285D01*
X165806380Y-94051476D02*
X165806380Y-94622904D01*
X165806380Y-94337190D02*
X164806380Y-94337190D01*
X164949238Y-94432428D01*
X165044476Y-94527666D01*
X165092095Y-94622904D01*
X164901619Y-93670523D02*
X164854000Y-93622904D01*
X164806380Y-93527666D01*
X164806380Y-93289571D01*
X164854000Y-93194333D01*
X164901619Y-93146714D01*
X164996857Y-93099095D01*
X165092095Y-93099095D01*
X165234952Y-93146714D01*
X165806380Y-93718142D01*
X165806380Y-93099095D01*
X186215280Y-99550457D02*
X185739090Y-99883790D01*
X186215280Y-100121885D02*
X185215280Y-100121885D01*
X185215280Y-99740933D01*
X185262900Y-99645695D01*
X185310519Y-99598076D01*
X185405757Y-99550457D01*
X185548614Y-99550457D01*
X185643852Y-99598076D01*
X185691471Y-99645695D01*
X185739090Y-99740933D01*
X185739090Y-100121885D01*
X186215280Y-98598076D02*
X186215280Y-99169504D01*
X186215280Y-98883790D02*
X185215280Y-98883790D01*
X185358138Y-98979028D01*
X185453376Y-99074266D01*
X185500995Y-99169504D01*
X186215280Y-97645695D02*
X186215280Y-98217123D01*
X186215280Y-97931409D02*
X185215280Y-97931409D01*
X185358138Y-98026647D01*
X185453376Y-98121885D01*
X185500995Y-98217123D01*
X184348380Y-99550457D02*
X183872190Y-99883790D01*
X184348380Y-100121885D02*
X183348380Y-100121885D01*
X183348380Y-99740933D01*
X183396000Y-99645695D01*
X183443619Y-99598076D01*
X183538857Y-99550457D01*
X183681714Y-99550457D01*
X183776952Y-99598076D01*
X183824571Y-99645695D01*
X183872190Y-99740933D01*
X183872190Y-100121885D01*
X184348380Y-98598076D02*
X184348380Y-99169504D01*
X184348380Y-98883790D02*
X183348380Y-98883790D01*
X183491238Y-98979028D01*
X183586476Y-99074266D01*
X183634095Y-99169504D01*
X183348380Y-97979028D02*
X183348380Y-97883790D01*
X183396000Y-97788552D01*
X183443619Y-97740933D01*
X183538857Y-97693314D01*
X183729333Y-97645695D01*
X183967428Y-97645695D01*
X184157904Y-97693314D01*
X184253142Y-97740933D01*
X184300761Y-97788552D01*
X184348380Y-97883790D01*
X184348380Y-97979028D01*
X184300761Y-98074266D01*
X184253142Y-98121885D01*
X184157904Y-98169504D01*
X183967428Y-98217123D01*
X183729333Y-98217123D01*
X183538857Y-98169504D01*
X183443619Y-98121885D01*
X183396000Y-98074266D01*
X183348380Y-97979028D01*
X182570380Y-99582266D02*
X182094190Y-99915600D01*
X182570380Y-100153695D02*
X181570380Y-100153695D01*
X181570380Y-99772742D01*
X181618000Y-99677504D01*
X181665619Y-99629885D01*
X181760857Y-99582266D01*
X181903714Y-99582266D01*
X181998952Y-99629885D01*
X182046571Y-99677504D01*
X182094190Y-99772742D01*
X182094190Y-100153695D01*
X182570380Y-99106076D02*
X182570380Y-98915600D01*
X182522761Y-98820361D01*
X182475142Y-98772742D01*
X182332285Y-98677504D01*
X182141809Y-98629885D01*
X181760857Y-98629885D01*
X181665619Y-98677504D01*
X181618000Y-98725123D01*
X181570380Y-98820361D01*
X181570380Y-99010838D01*
X181618000Y-99106076D01*
X181665619Y-99153695D01*
X181760857Y-99201314D01*
X181998952Y-99201314D01*
X182094190Y-99153695D01*
X182141809Y-99106076D01*
X182189428Y-99010838D01*
X182189428Y-98820361D01*
X182141809Y-98725123D01*
X182094190Y-98677504D01*
X181998952Y-98629885D01*
X167711380Y-94019666D02*
X167235190Y-94353000D01*
X167711380Y-94591095D02*
X166711380Y-94591095D01*
X166711380Y-94210142D01*
X166759000Y-94114904D01*
X166806619Y-94067285D01*
X166901857Y-94019666D01*
X167044714Y-94019666D01*
X167139952Y-94067285D01*
X167187571Y-94114904D01*
X167235190Y-94210142D01*
X167235190Y-94591095D01*
X167139952Y-93448238D02*
X167092333Y-93543476D01*
X167044714Y-93591095D01*
X166949476Y-93638714D01*
X166901857Y-93638714D01*
X166806619Y-93591095D01*
X166759000Y-93543476D01*
X166711380Y-93448238D01*
X166711380Y-93257761D01*
X166759000Y-93162523D01*
X166806619Y-93114904D01*
X166901857Y-93067285D01*
X166949476Y-93067285D01*
X167044714Y-93114904D01*
X167092333Y-93162523D01*
X167139952Y-93257761D01*
X167139952Y-93448238D01*
X167187571Y-93543476D01*
X167235190Y-93591095D01*
X167330428Y-93638714D01*
X167520904Y-93638714D01*
X167616142Y-93591095D01*
X167663761Y-93543476D01*
X167711380Y-93448238D01*
X167711380Y-93257761D01*
X167663761Y-93162523D01*
X167616142Y-93114904D01*
X167520904Y-93067285D01*
X167330428Y-93067285D01*
X167235190Y-93114904D01*
X167187571Y-93162523D01*
X167139952Y-93257761D01*
X182062380Y-116371666D02*
X181586190Y-116705000D01*
X182062380Y-116943095D02*
X181062380Y-116943095D01*
X181062380Y-116562142D01*
X181110000Y-116466904D01*
X181157619Y-116419285D01*
X181252857Y-116371666D01*
X181395714Y-116371666D01*
X181490952Y-116419285D01*
X181538571Y-116466904D01*
X181586190Y-116562142D01*
X181586190Y-116943095D01*
X181062380Y-116038333D02*
X181062380Y-115371666D01*
X182062380Y-115800238D01*
X138755380Y-118530666D02*
X138279190Y-118864000D01*
X138755380Y-119102095D02*
X137755380Y-119102095D01*
X137755380Y-118721142D01*
X137803000Y-118625904D01*
X137850619Y-118578285D01*
X137945857Y-118530666D01*
X138088714Y-118530666D01*
X138183952Y-118578285D01*
X138231571Y-118625904D01*
X138279190Y-118721142D01*
X138279190Y-119102095D01*
X137755380Y-117673523D02*
X137755380Y-117864000D01*
X137803000Y-117959238D01*
X137850619Y-118006857D01*
X137993476Y-118102095D01*
X138183952Y-118149714D01*
X138564904Y-118149714D01*
X138660142Y-118102095D01*
X138707761Y-118054476D01*
X138755380Y-117959238D01*
X138755380Y-117768761D01*
X138707761Y-117673523D01*
X138660142Y-117625904D01*
X138564904Y-117578285D01*
X138326809Y-117578285D01*
X138231571Y-117625904D01*
X138183952Y-117673523D01*
X138136333Y-117768761D01*
X138136333Y-117959238D01*
X138183952Y-118054476D01*
X138231571Y-118102095D01*
X138326809Y-118149714D01*
X150820380Y-118544666D02*
X150344190Y-118878000D01*
X150820380Y-119116095D02*
X149820380Y-119116095D01*
X149820380Y-118735142D01*
X149868000Y-118639904D01*
X149915619Y-118592285D01*
X150010857Y-118544666D01*
X150153714Y-118544666D01*
X150248952Y-118592285D01*
X150296571Y-118639904D01*
X150344190Y-118735142D01*
X150344190Y-119116095D01*
X149820380Y-117639904D02*
X149820380Y-118116095D01*
X150296571Y-118163714D01*
X150248952Y-118116095D01*
X150201333Y-118020857D01*
X150201333Y-117782761D01*
X150248952Y-117687523D01*
X150296571Y-117639904D01*
X150391809Y-117592285D01*
X150629904Y-117592285D01*
X150725142Y-117639904D01*
X150772761Y-117687523D01*
X150820380Y-117782761D01*
X150820380Y-118020857D01*
X150772761Y-118116095D01*
X150725142Y-118163714D01*
X144978380Y-118530666D02*
X144502190Y-118864000D01*
X144978380Y-119102095D02*
X143978380Y-119102095D01*
X143978380Y-118721142D01*
X144026000Y-118625904D01*
X144073619Y-118578285D01*
X144168857Y-118530666D01*
X144311714Y-118530666D01*
X144406952Y-118578285D01*
X144454571Y-118625904D01*
X144502190Y-118721142D01*
X144502190Y-119102095D01*
X144311714Y-117673523D02*
X144978380Y-117673523D01*
X143930761Y-117911619D02*
X144645047Y-118149714D01*
X144645047Y-117530666D01*
X186164480Y-108967566D02*
X185688290Y-109300900D01*
X186164480Y-109538995D02*
X185164480Y-109538995D01*
X185164480Y-109158042D01*
X185212100Y-109062804D01*
X185259719Y-109015185D01*
X185354957Y-108967566D01*
X185497814Y-108967566D01*
X185593052Y-109015185D01*
X185640671Y-109062804D01*
X185688290Y-109158042D01*
X185688290Y-109538995D01*
X185164480Y-108634233D02*
X185164480Y-108015185D01*
X185545433Y-108348519D01*
X185545433Y-108205661D01*
X185593052Y-108110423D01*
X185640671Y-108062804D01*
X185735909Y-108015185D01*
X185974004Y-108015185D01*
X186069242Y-108062804D01*
X186116861Y-108110423D01*
X186164480Y-108205661D01*
X186164480Y-108491376D01*
X186116861Y-108586614D01*
X186069242Y-108634233D01*
X182570380Y-108967566D02*
X182094190Y-109300900D01*
X182570380Y-109538995D02*
X181570380Y-109538995D01*
X181570380Y-109158042D01*
X181618000Y-109062804D01*
X181665619Y-109015185D01*
X181760857Y-108967566D01*
X181903714Y-108967566D01*
X181998952Y-109015185D01*
X182046571Y-109062804D01*
X182094190Y-109158042D01*
X182094190Y-109538995D01*
X182570380Y-108015185D02*
X182570380Y-108586614D01*
X182570380Y-108300900D02*
X181570380Y-108300900D01*
X181713238Y-108396138D01*
X181808476Y-108491376D01*
X181856095Y-108586614D01*
X170386333Y-87733119D02*
X170386333Y-87018833D01*
X170433952Y-86875976D01*
X170529190Y-86780738D01*
X170672047Y-86733119D01*
X170767285Y-86733119D01*
X169481571Y-87733119D02*
X169672047Y-87733119D01*
X169767285Y-87685500D01*
X169814904Y-87637880D01*
X169910142Y-87495023D01*
X169957761Y-87304547D01*
X169957761Y-86923595D01*
X169910142Y-86828357D01*
X169862523Y-86780738D01*
X169767285Y-86733119D01*
X169576809Y-86733119D01*
X169481571Y-86780738D01*
X169433952Y-86828357D01*
X169386333Y-86923595D01*
X169386333Y-87161690D01*
X169433952Y-87256928D01*
X169481571Y-87304547D01*
X169576809Y-87352166D01*
X169767285Y-87352166D01*
X169862523Y-87304547D01*
X169910142Y-87256928D01*
X169957761Y-87161690D01*
X179911333Y-87733119D02*
X179911333Y-87018833D01*
X179958952Y-86875976D01*
X180054190Y-86780738D01*
X180197047Y-86733119D01*
X180292285Y-86733119D01*
X179530380Y-87733119D02*
X178911333Y-87733119D01*
X179244666Y-87352166D01*
X179101809Y-87352166D01*
X179006571Y-87304547D01*
X178958952Y-87256928D01*
X178911333Y-87161690D01*
X178911333Y-86923595D01*
X178958952Y-86828357D01*
X179006571Y-86780738D01*
X179101809Y-86733119D01*
X179387523Y-86733119D01*
X179482761Y-86780738D01*
X179530380Y-86828357D01*
X181570380Y-111966333D02*
X182284666Y-111966333D01*
X182427523Y-112013952D01*
X182522761Y-112109190D01*
X182570380Y-112252047D01*
X182570380Y-112347285D01*
X181665619Y-111537761D02*
X181618000Y-111490142D01*
X181570380Y-111394904D01*
X181570380Y-111156809D01*
X181618000Y-111061571D01*
X181665619Y-111013952D01*
X181760857Y-110966333D01*
X181856095Y-110966333D01*
X181998952Y-111013952D01*
X182570380Y-111585380D01*
X182570380Y-110966333D01*
X140279380Y-112879095D02*
X139279380Y-112879095D01*
X139279380Y-112641000D01*
X139327000Y-112498142D01*
X139422238Y-112402904D01*
X139517476Y-112355285D01*
X139707952Y-112307666D01*
X139850809Y-112307666D01*
X140041285Y-112355285D01*
X140136523Y-112402904D01*
X140231761Y-112498142D01*
X140279380Y-112641000D01*
X140279380Y-112879095D01*
X139279380Y-111974333D02*
X139279380Y-111355285D01*
X139660333Y-111688619D01*
X139660333Y-111545761D01*
X139707952Y-111450523D01*
X139755571Y-111402904D01*
X139850809Y-111355285D01*
X140088904Y-111355285D01*
X140184142Y-111402904D01*
X140231761Y-111450523D01*
X140279380Y-111545761D01*
X140279380Y-111831476D01*
X140231761Y-111926714D01*
X140184142Y-111974333D01*
X152344380Y-112879095D02*
X151344380Y-112879095D01*
X151344380Y-112641000D01*
X151392000Y-112498142D01*
X151487238Y-112402904D01*
X151582476Y-112355285D01*
X151772952Y-112307666D01*
X151915809Y-112307666D01*
X152106285Y-112355285D01*
X152201523Y-112402904D01*
X152296761Y-112498142D01*
X152344380Y-112641000D01*
X152344380Y-112879095D01*
X151439619Y-111926714D02*
X151392000Y-111879095D01*
X151344380Y-111783857D01*
X151344380Y-111545761D01*
X151392000Y-111450523D01*
X151439619Y-111402904D01*
X151534857Y-111355285D01*
X151630095Y-111355285D01*
X151772952Y-111402904D01*
X152344380Y-111974333D01*
X152344380Y-111355285D01*
X146502380Y-112879095D02*
X145502380Y-112879095D01*
X145502380Y-112641000D01*
X145550000Y-112498142D01*
X145645238Y-112402904D01*
X145740476Y-112355285D01*
X145930952Y-112307666D01*
X146073809Y-112307666D01*
X146264285Y-112355285D01*
X146359523Y-112402904D01*
X146454761Y-112498142D01*
X146502380Y-112641000D01*
X146502380Y-112879095D01*
X146502380Y-111355285D02*
X146502380Y-111926714D01*
X146502380Y-111641000D02*
X145502380Y-111641000D01*
X145645238Y-111736238D01*
X145740476Y-111831476D01*
X145788095Y-111926714D01*
X132040333Y-114657142D02*
X131992714Y-114704761D01*
X131849857Y-114752380D01*
X131754619Y-114752380D01*
X131611761Y-114704761D01*
X131516523Y-114609523D01*
X131468904Y-114514285D01*
X131421285Y-114323809D01*
X131421285Y-114180952D01*
X131468904Y-113990476D01*
X131516523Y-113895238D01*
X131611761Y-113800000D01*
X131754619Y-113752380D01*
X131849857Y-113752380D01*
X131992714Y-113800000D01*
X132040333Y-113847619D01*
X132516523Y-114752380D02*
X132707000Y-114752380D01*
X132802238Y-114704761D01*
X132849857Y-114657142D01*
X132945095Y-114514285D01*
X132992714Y-114323809D01*
X132992714Y-113942857D01*
X132945095Y-113847619D01*
X132897476Y-113800000D01*
X132802238Y-113752380D01*
X132611761Y-113752380D01*
X132516523Y-113800000D01*
X132468904Y-113847619D01*
X132421285Y-113942857D01*
X132421285Y-114180952D01*
X132468904Y-114276190D01*
X132516523Y-114323809D01*
X132611761Y-114371428D01*
X132802238Y-114371428D01*
X132897476Y-114323809D01*
X132945095Y-114276190D01*
X132992714Y-114180952D01*
X137501333Y-114657142D02*
X137453714Y-114704761D01*
X137310857Y-114752380D01*
X137215619Y-114752380D01*
X137072761Y-114704761D01*
X136977523Y-114609523D01*
X136929904Y-114514285D01*
X136882285Y-114323809D01*
X136882285Y-114180952D01*
X136929904Y-113990476D01*
X136977523Y-113895238D01*
X137072761Y-113800000D01*
X137215619Y-113752380D01*
X137310857Y-113752380D01*
X137453714Y-113800000D01*
X137501333Y-113847619D01*
X138072761Y-114180952D02*
X137977523Y-114133333D01*
X137929904Y-114085714D01*
X137882285Y-113990476D01*
X137882285Y-113942857D01*
X137929904Y-113847619D01*
X137977523Y-113800000D01*
X138072761Y-113752380D01*
X138263238Y-113752380D01*
X138358476Y-113800000D01*
X138406095Y-113847619D01*
X138453714Y-113942857D01*
X138453714Y-113990476D01*
X138406095Y-114085714D01*
X138358476Y-114133333D01*
X138263238Y-114180952D01*
X138072761Y-114180952D01*
X137977523Y-114228571D01*
X137929904Y-114276190D01*
X137882285Y-114371428D01*
X137882285Y-114561904D01*
X137929904Y-114657142D01*
X137977523Y-114704761D01*
X138072761Y-114752380D01*
X138263238Y-114752380D01*
X138358476Y-114704761D01*
X138406095Y-114657142D01*
X138453714Y-114561904D01*
X138453714Y-114371428D01*
X138406095Y-114276190D01*
X138358476Y-114228571D01*
X138263238Y-114180952D01*
X142216142Y-112307666D02*
X142263761Y-112355285D01*
X142311380Y-112498142D01*
X142311380Y-112593380D01*
X142263761Y-112736238D01*
X142168523Y-112831476D01*
X142073285Y-112879095D01*
X141882809Y-112926714D01*
X141739952Y-112926714D01*
X141549476Y-112879095D01*
X141454238Y-112831476D01*
X141359000Y-112736238D01*
X141311380Y-112593380D01*
X141311380Y-112498142D01*
X141359000Y-112355285D01*
X141406619Y-112307666D01*
X141311380Y-111974333D02*
X141311380Y-111307666D01*
X142311380Y-111736238D01*
X154154142Y-112307666D02*
X154201761Y-112355285D01*
X154249380Y-112498142D01*
X154249380Y-112593380D01*
X154201761Y-112736238D01*
X154106523Y-112831476D01*
X154011285Y-112879095D01*
X153820809Y-112926714D01*
X153677952Y-112926714D01*
X153487476Y-112879095D01*
X153392238Y-112831476D01*
X153297000Y-112736238D01*
X153249380Y-112593380D01*
X153249380Y-112498142D01*
X153297000Y-112355285D01*
X153344619Y-112307666D01*
X153249380Y-111450523D02*
X153249380Y-111641000D01*
X153297000Y-111736238D01*
X153344619Y-111783857D01*
X153487476Y-111879095D01*
X153677952Y-111926714D01*
X154058904Y-111926714D01*
X154154142Y-111879095D01*
X154201761Y-111831476D01*
X154249380Y-111736238D01*
X154249380Y-111545761D01*
X154201761Y-111450523D01*
X154154142Y-111402904D01*
X154058904Y-111355285D01*
X153820809Y-111355285D01*
X153725571Y-111402904D01*
X153677952Y-111450523D01*
X153630333Y-111545761D01*
X153630333Y-111736238D01*
X153677952Y-111831476D01*
X153725571Y-111879095D01*
X153820809Y-111926714D01*
X148312142Y-112307666D02*
X148359761Y-112355285D01*
X148407380Y-112498142D01*
X148407380Y-112593380D01*
X148359761Y-112736238D01*
X148264523Y-112831476D01*
X148169285Y-112879095D01*
X147978809Y-112926714D01*
X147835952Y-112926714D01*
X147645476Y-112879095D01*
X147550238Y-112831476D01*
X147455000Y-112736238D01*
X147407380Y-112593380D01*
X147407380Y-112498142D01*
X147455000Y-112355285D01*
X147502619Y-112307666D01*
X147407380Y-111402904D02*
X147407380Y-111879095D01*
X147883571Y-111926714D01*
X147835952Y-111879095D01*
X147788333Y-111783857D01*
X147788333Y-111545761D01*
X147835952Y-111450523D01*
X147883571Y-111402904D01*
X147978809Y-111355285D01*
X148216904Y-111355285D01*
X148312142Y-111402904D01*
X148359761Y-111450523D01*
X148407380Y-111545761D01*
X148407380Y-111783857D01*
X148359761Y-111879095D01*
X148312142Y-111926714D01*
X177887333Y-103735142D02*
X177839714Y-103782761D01*
X177696857Y-103830380D01*
X177601619Y-103830380D01*
X177458761Y-103782761D01*
X177363523Y-103687523D01*
X177315904Y-103592285D01*
X177268285Y-103401809D01*
X177268285Y-103258952D01*
X177315904Y-103068476D01*
X177363523Y-102973238D01*
X177458761Y-102878000D01*
X177601619Y-102830380D01*
X177696857Y-102830380D01*
X177839714Y-102878000D01*
X177887333Y-102925619D01*
X178744476Y-103163714D02*
X178744476Y-103830380D01*
X178506380Y-102782761D02*
X178268285Y-103497047D01*
X178887333Y-103497047D01*
X172696142Y-118213166D02*
X172743761Y-118260785D01*
X172791380Y-118403642D01*
X172791380Y-118498880D01*
X172743761Y-118641738D01*
X172648523Y-118736976D01*
X172553285Y-118784595D01*
X172362809Y-118832214D01*
X172219952Y-118832214D01*
X172029476Y-118784595D01*
X171934238Y-118736976D01*
X171839000Y-118641738D01*
X171791380Y-118498880D01*
X171791380Y-118403642D01*
X171839000Y-118260785D01*
X171886619Y-118213166D01*
X171791380Y-117879833D02*
X171791380Y-117260785D01*
X172172333Y-117594119D01*
X172172333Y-117451261D01*
X172219952Y-117356023D01*
X172267571Y-117308404D01*
X172362809Y-117260785D01*
X172600904Y-117260785D01*
X172696142Y-117308404D01*
X172743761Y-117356023D01*
X172791380Y-117451261D01*
X172791380Y-117736976D01*
X172743761Y-117832214D01*
X172696142Y-117879833D01*
X172413633Y-120638842D02*
X172366014Y-120686461D01*
X172223157Y-120734080D01*
X172127919Y-120734080D01*
X171985061Y-120686461D01*
X171889823Y-120591223D01*
X171842204Y-120495985D01*
X171794585Y-120305509D01*
X171794585Y-120162652D01*
X171842204Y-119972176D01*
X171889823Y-119876938D01*
X171985061Y-119781700D01*
X172127919Y-119734080D01*
X172223157Y-119734080D01*
X172366014Y-119781700D01*
X172413633Y-119829319D01*
X172794585Y-119829319D02*
X172842204Y-119781700D01*
X172937442Y-119734080D01*
X173175538Y-119734080D01*
X173270776Y-119781700D01*
X173318395Y-119829319D01*
X173366014Y-119924557D01*
X173366014Y-120019795D01*
X173318395Y-120162652D01*
X172746966Y-120734080D01*
X173366014Y-120734080D01*
X159686666Y-133183380D02*
X159686666Y-133897666D01*
X159639047Y-134040523D01*
X159543809Y-134135761D01*
X159400952Y-134183380D01*
X159305714Y-134183380D01*
X160686666Y-134183380D02*
X160115238Y-134183380D01*
X160400952Y-134183380D02*
X160400952Y-133183380D01*
X160305714Y-133326238D01*
X160210476Y-133421476D01*
X160115238Y-133469095D01*
M02*
